<svg xmlns="http://www.w3.org/2000/svg" id="main" viewBox="0 0 500 500"><defs><style>.st0{fill:#b6b6b7}.st1{fill:#fff}</style></defs><rect width="360.13" height="267.94" x="47.84" y="116.03" class="st1" rx="68.82" ry="68.82"/><rect width="313.12" height="222.47" x="71.62" y="138.76" class="st0" rx="46.42" ry="46.42"/><rect width="169.08" height="222.47" x="71.62" y="138.76" rx="46.42" ry="46.42" style="fill:#01af4f"/><path d="m91.12 186.49.16 68.35.92 3.78 3.13 3.92 3.78 2.37h5.22l5.08-1.46 3.66-3.39 67.45-91.96v-3.08l-.93-2.79-1.57-2.74-3.91-2.74-3.78-1.56-3.79-.26-49.3.26-6.91 1.56-4.31 2.09-4.69 3.39-4.57 4.6-2.61 5.18-2.22 5.09-.81 4.05z" style="fill:#35ce6f"/><path d="m407.45 179.75 4.66-.23 6.05.45 6.71 1.36 6.31 2.58 6.07 4.63 4.01 2.5 2.48 3.59 2.87 3.91 1.37 2.87 1.14 2.41 1.47 4.3 1.56 6.29v64.08l-1.24 9.62-3.36 9.18-3.03 5.08-1.3 1.78-2.15 2-2.09 2.14s-2.08 1.66-2.15 1.71-3.62 2.69-3.62 2.69l-3.84 1.86-3.5 1.3-3.59.94-3.32.74-3.56.39-2.61.31-1.86.06-1.49.12h-2V179.72Z" class="st1"/><path d="m407.92 295.57 6.1-.24 2.93-.53 2.68-1.17 3.32-2.28 2.61-3.07 1.63-2.48 1.31-3.78.55-3.06v-19.83l-.03-9.46.03-7.89V223l-.29-7.17-.37-1.85-.48-1.48-.91-1.96-1.77-2.34-2.21-2.09-2.61-1.89-4.11-1.63-3.33-.59-3.45-.2h-1.6z" class="st0"/><path d="m234.47 166.33-4.95 5.74-10.31 15.26-12.52 17.47-11.61 17.09-13.82 19.44-10.43 15.49-2.3 4.3v2.77l1.38 3.91 3.39 2.22 4.04.39h40.1l-7.75 56.87.13 6.39 2.09 2.48 2.61 1.39h2.21l3-.6 1.96-2.09 2.74-4.18 6-8.73 13.17-18.92 35.24-51.18 6.06-9.3.31-1.87-.52-2.6-1.61-2.36-1.81-1.24-2.43-.89-2.98-.33-39.3.12L244 178.2v-6.66l-1.57-2.74-1.96-1.56-3.28-.91-1.67-.19z" class="st1"/><path d="M276.68 233.34v21.64l8.22-12.44.31-1.87-.52-2.6-1.61-2.36-1.81-1.24-2.43-.89zm-9 34.71 9-13.07v-21.64h-9zm-8.96 13.02 8.96-13.02v-34.71h-8.96zm-9.05 13.15 9.05-13.15v-47.73h-9.05zm-8.97 12.97 8.97-12.97v-60.88h-8.97zm0-104.54 3.3-24.45v-6.66l-1.57-2.74-1.96-1.56-3.28-.91h-.48l1.01 2.34 1.32 3.18.78 2.1.53 3.13.35 5.58z"/></svg>