<?xml version="1.0" encoding="UTF-8"?>
<svg id="main" xmlns="http://www.w3.org/2000/svg" version="1.1" viewBox="0 0 500 500">
  <!-- Generator: Adobe Illustrator 29.8.1, SVG Export Plug-In . SVG Version: 2.1.1 Build 2)  -->
  <defs>
    <style>
      .st0 {
        fill: #3c73ff;
      }

      .st1 {
        fill: #b6b6b7;
      }

      .st2 {
        fill: #fff;
      }

      .st3 {
        fill: #3c99ff;
      }

      .st4 {
        fill: #0a111d;
      }
    </style>
  </defs>
  <rect class="st4" x="47.84" y="116.03" width="360.13" height="267.94" rx="68.82" ry="68.82"/>
  <rect class="st1" x="71.62" y="138.76" width="313.12" height="222.47" rx="46.42" ry="46.42"/>
  <rect class="st0" x="71.62" y="138.76" width="313.12" height="222.47" rx="46.42" ry="46.42"/>
  <polygon class="st3" points="91.12 186.49 91.28 254.84 92.2 258.62 95.33 262.54 99.11 264.91 104.33 264.91 109.41 263.45 113.07 260.06 180.52 168.1 180.52 165.02 179.59 162.23 178.02 159.49 174.11 156.75 170.33 155.19 166.54 154.93 117.24 155.19 110.33 156.75 106.02 158.84 101.33 162.23 96.76 166.83 94.15 172.01 91.93 177.1 91.12 181.15 91.12 186.49"/>
  <path class="st4" d="M407.45,179.75l4.66-.23,6.05.45,6.71,1.36,6.31,2.58,6.07,4.63,4.01,2.5,2.48,3.59,2.87,3.91,1.37,2.87,1.14,2.41,1.47,4.3,1.56,6.29v64.08l-1.24,9.62-3.36,9.18-3.03,5.08-1.3,1.78-2.15,2-2.09,2.14s-2.08,1.66-2.15,1.71-3.62,2.69-3.62,2.69l-3.84,1.86-3.5,1.3-3.59.94-3.32.74-3.56.39-2.61.31-1.86.06-1.49.12h-2v-138.69.03h0Z"/>
  <polygon class="st2" points="234.47 166.33 229.52 172.07 219.21 187.33 206.69 204.8 195.08 221.89 181.26 241.33 170.83 256.82 168.53 261.12 168.53 263.89 169.91 267.8 173.3 270.02 177.34 270.41 217.44 270.41 209.69 327.28 209.82 333.67 211.91 336.15 214.52 337.54 216.73 337.54 219.73 336.94 221.69 334.85 224.43 330.67 230.43 321.94 243.6 303.02 278.84 251.84 284.9 242.54 285.21 240.67 284.69 238.07 283.08 235.71 281.27 234.47 278.84 233.58 275.86 233.25 236.56 233.37 244 178.2 244 171.54 242.43 168.8 240.47 167.24 237.19 166.33 235.52 166.14 234.47 166.33"/>
  <rect class="st0" x="407.92" y="201.8" width="21.13" height="93.77" rx="10.56" ry="10.56"/>
</svg>