<svg xmlns="http://www.w3.org/2000/svg" width="250" height="250" fill="none" viewBox="0 0 250 250"><rect width="250" height="250" fill="#03c" rx="30"/><path fill="#fff" d="M49.2 174.2q6.8.4 9 .4 6.8 0 12-.2 5.4-.2 9.2-.4 9.8-.6 17.6-.6 7.6 0 11.2 4t3.6 10.6q0 3.2-4.2 5.2-4.2 1.8-8.6 1.8-3.8 0-15.8-.8-14.4-1.2-22.6-1.2-4.4 0-10.4.6-2.4.2-5.8.4t-7.6.2q-8 0-12.2-2.2t-4.2-8q0-5 4-10.2t11.2-12.4l4.8-4.8q3.2-3.4 11.8-11.6 14.2-12.8 22-22.6 8-9.8 8-19.4 0-6.2-6-10-5.8-4-13.4-4-11.6 0-16.8 5.2-5 5-5 14.6 0 2.4-2.8 4.4-2.6 1.8-6.6 1.8-5.6 0-7.8-4t-2.2-9.8q0-9.2 5.6-16.2 5.6-7.2 15.2-11.2 9.8-4 21.6-4 8.4 0 17.4 4.2 9.2 4 15.2 11 6.2 6.8 6.2 15 0 12.4-6.2 23.6t-14.6 20q-8.2 8.6-21.4 20.4-6.4 5.4-11.4 10.2m164.873-92q6.6 10.2 10.6 23.4a90 90 0 0 1 4 26.6q0 16.2-5.6 30.8-5.4 14.6-16.4 23.8-10.8 9.2-26.4 9.2-14.6 0-26.8-7.4-12.2-7.6-18.4-17.6-4.6-7.4-7-16.6-2.4-9.4-2.4-18.8 0-16.4 6.8-32 7-15.6 19.2-25 11.6-8.6 26.6-8.6 16.6 0 35.8 12.2m-53.6 13.8q-1.8 3-3.6 5.4-4.4 6.6-6.4 11.2-2 4.4-3.6 13.6-.8 4.2-.8 9.8 0 14.2 5.6 24.6 5.8 10.2 15.8 13.8 4.8 1.8 10.8 1.8 15 0 22.6-13.2 7.8-13.4 7.8-33 0-18.2-6.8-29.8-6.8-11.8-21-11.8-5.8 0-10 1.8-4 1.8-10.4 5.8"/></svg>