<svg xmlns="http://www.w3.org/2000/svg" width="250" height="250" fill="none" viewBox="0 0 250 250"><rect width="250" height="250" fill="#663" rx="30"/><path fill="#fff" d="M81 115q16.4 3.6 27.2 14.2t10.8 24.6q0 8.4-4 16.4-6.4 12.8-19.2 19.2-12.6 6.4-29.2 6.4-10.4 0-18.6-3.8-8.2-4-16.2-10.6-3-2.8-5.4-8-2.2-5.2-2.2-8.6 0-4.4 2.4-7 2.6-2.8 6.8-2.8t6.6 2 5.8 6.4q3.2 4.2 5.8 6.8 2.6 2.4 7 4.2t11 1.8q13.4 0 21-6.6t7.6-18.6q0-4.6-5-9.2-5-4.8-9.4-6.8-2.6-1.4-9.6-2.8-9.4-2.4-14.2-4.6-4.6-2.4-4.6-7.4 0-3.4 3-6.6 3-3.4 9-8.4t9-8.2q3-3.4 3-6.8-3.8-1-11.4-1-3.4 0-10.2.4-6 .4-9.2.4-7.2 0-12.4-2.4-5-2.4-5-6.2 0-4.2.8-6.6.8-2.6 3-3.2 1.4-.6 5-.6 9.8 0 17 .6 8 .4 12.2.4l16.6-.2q20.4 0 20.4 9.8 0 7.4-7.6 16.8-7.4 9.2-17.6 16.6m83.984-24.8q-1.4 5.6-1.8 14.8-.399 8-1.2 12 5.8-2.4 11-3 5.2-.8 13.2-.8 12.4 0 21.6 5.8 9.2 5.6 14 15.2 4.8 9.4 4.8 20.2 0 4.2-2.8 11.4-2.8 7-5.8 10.8-6.999 9.2-16.2 14.2-9.2 4.8-20 4.8-8.199 0-15-2.2-6.6-2.4-14.2-6.4-7.8-4.2-11.4-8.6-3.4-4.6-3.4-11.4 0-3.6 3-5.8 3.201-2.4 6-2.4 1.8 0 3.2 1t4.6 4l5 4.8q4.8 4 9.4 6 4.8 2 11.6 2 6.2 0 10-1.6 7.6-3 11.8-7.8 4.4-4.8 4.4-15.4 0-10.2-6.8-15.8-6.8-5.8-23-5.8-2.2 0-6.4 1.2t-8.2 2.6q-9.6 3.2-11.8 3.2-2.8 0-5.6-2.4t-2.8-6.4q3.6-24.2 3.6-40.2l-.2-5q-.4-3.6-.4-6 0-3.6 3.8-5.4 4-2 8.2-2 3.6 0 15.6 1.2l9.6.8q1.8.2 5.4.2l7.4-.2q2.2-.2 6.4-.2 6 0 10 1.8t4 5.8q0 6.2-2 9t-4.6 2.8q-2.4 0-8-.8-7.4-.8-17.4-.8-6.999 0-18.6.8"/></svg>