<svg xmlns="http://www.w3.org/2000/svg" width="250" height="250" fill="none" viewBox="0 0 250 250"><rect width="250" height="250" fill="#7d7f7d" rx="30"/><path fill="#fff" d="M79 115q16.4 3.6 27.2 14.2t10.8 24.6q0 8.4-4 16.4-6.4 12.8-19.2 19.2-12.6 6.4-29.2 6.4-10.4 0-18.6-3.8-8.2-4-16.2-10.6-3-2.8-5.4-8-2.2-5.2-2.2-8.6 0-4.4 2.4-7 2.6-2.8 6.8-2.8t6.6 2 5.8 6.4q3.2 4.2 5.8 6.8 2.6 2.4 7 4.2t11 1.8q13.4 0 21-6.6t7.6-18.6q0-4.6-5-9.2-5-4.8-9.4-6.8-2.6-1.4-9.6-2.8-9.4-2.4-14.2-4.6-4.6-2.4-4.6-7.4 0-3.4 3-6.6 3-3.4 9-8.4t9-8.2q3-3.4 3-6.8-3.8-1-11.4-1-3.4 0-10.2.4-6 .4-9.2.4-7.2 0-12.4-2.4-5-2.4-5-6.2 0-4.2.8-6.6.8-2.6 3-3.2 1.4-.6 5-.6 9.8 0 17 .6 8 .4 12.2.4l16.6-.2q20.4 0 20.4 9.8 0 7.4-7.6 16.8-7.4 9.2-17.6 16.6m122.384 13.8q12.2 4.8 19.6 12.8t7.4 18.4q0 3-1.4 7.6-1.2 4.4-3.4 7.6-13.2 20.4-46.6 20.4-17.4 0-30.2-7-12.8-7.2-12.8-21.4 0-20.2 27.8-34.6-26-9.6-26-28.4 0-11.4 6.4-19.2t16.8-11.6q10.6-3.8 23-3.8 9.2 0 18.8 4.4 9.6 4.2 13.2 11 3.6 7.6 3.6 14.2 0 8.6-3.6 15.8-3.399 7.2-12.6 13.8m-20.8-6q6.4-4.2 9.8-6.8 3.6-2.8 6-6.6 2.6-4 2.6-9.2 0-6-4.8-10t-11.6-4q-14.6 0-20.4 5-5.6 5-5.6 11.8 0 5.4 3.6 9.2 3.6 3.6 8 5.8 4.6 2 12.4 4.8m26.6 35.8q0-3.4-4.4-7.2-4.2-3.8-10-6.6-5.8-3-9.8-4-6.8 2.8-15 9-8.2 6-10 8.8-2 2.8-2.8 4.8-.6 1.8-.6 4.4 0 3 3.6 5.8 3.6 2.6 8.6 4.2t8.6 1.6q14.2 0 23-5.6 8.8-5.8 8.8-15.2"/></svg>