<svg xmlns="http://www.w3.org/2000/svg" width="250" height="250" fill="none" viewBox="0 0 250 250"><rect width="250" height="250" fill="#b0e0e6" rx="30"/><path fill="#fff" d="M81 115q16.4 3.6 27.2 14.2t10.8 24.6q0 8.4-4 16.4-6.4 12.8-19.2 19.2-12.6 6.4-29.2 6.4-10.4 0-18.6-3.8-8.2-4-16.2-10.6-3-2.8-5.4-8-2.2-5.2-2.2-8.6 0-4.4 2.4-7 2.6-2.8 6.8-2.8t6.6 2 5.8 6.4q3.2 4.2 5.8 6.8 2.6 2.4 7 4.2t11 1.8q13.4 0 21-6.6t7.6-18.6q0-4.6-5-9.2-5-4.8-9.4-6.8-2.6-1.4-9.6-2.8-9.4-2.4-14.2-4.6-4.6-2.4-4.6-7.4 0-3.4 3-6.6 3-3.4 9-8.4t9-8.2q3-3.4 3-6.8-3.8-1-11.4-1-3.4 0-10.2.4-6 .4-9.2.4-7.2 0-12.4-2.4-5-2.4-5-6.2 0-4.2.8-6.6.8-2.6 3-3.2 1.4-.6 5-.6 9.8 0 17 .6 8 .4 12.2.4l16.6-.2q20.4 0 20.4 9.8 0 7.4-7.6 16.8-7.4 9.2-17.6 16.6m87.984 60.4q6.8-2.2 13-8 6.4-5.8 10.6-13 4.4-7.4 5.2-14.2-5.6 4-11.4 5.6t-13.4 1.6q-10.2 0-16.8-3.4-6.6-3.6-14-10.2-1.2-1.2-3-5.2-1.8-4.2-3.2-10.2a57 57 0 0 1-1.4-12.6q0-5.8 3.6-12.2t9-11.4q5.6-5.2 10.6-7.4 4.6-2 10.6-3.4 6.2-1.6 10.4-1.6 14.2 0 23.8 6.6 9.801 6.6 14.4 17.6t4.6 24.4q0 23-10.2 42-10.2 18.8-25.8 29.2-2.6 1.8-9 4-6.2 2-11.4 2-4 0-7-3.6t-3-8.2q0-3.2 2.2-4.4 2.2-1.4 7.2-2.8zm9.8-88.6q-3.2 0-7.6 1.4-4.2 1.2-7.2 3-3.399 2-6.6 6.2-3 4-3 6.2 0 26.2 21.2 26.2 4.8 0 10.6-2 6-2.2 10-6t4-8.6q0-13.2-5.6-19.8-5.4-6.6-15.8-6.6"/></svg>