<svg xmlns="http://www.w3.org/2000/svg" width="250" height="250" fill="none" viewBox="0 0 250 250"><rect width="250" height="250" fill="#930" rx="30"/><path fill="#fff" d="M134.8 89q-6.8 2.6-11.6 6.8-4.8 4-8.6 9.8l-3.2 5q-3.6 5.4-5.4 8.8t-2.4 7.2q9.8-10 28-10 7.8 0 16.4 4.4 8.8 4.4 14.2 10.2 3.4 3.8 5.6 11.6 2.4 7.8 2.4 16.6 0 7-4.2 14.4-4.2 7.2-10.4 12.6-6 5.4-11.2 6.8-8 2-13.8 2-13.2 0-24.4-7.2t-17.8-19.2q-6.6-12.2-6.6-26.4 0-19.6 9.4-37.4 9.6-18 25.2-29.2 2.6-1.8 9.2-3.8 6.8-2.2 12-2.2 9.8 0 9.8 7.8 0 4.6-3.4 7.2-3.2 2.6-9.2 4.2m-8 87.8q4.6 0 7.8-.4 3.2-.6 5.8-2.2 4-2.8 7-6.6 3.2-4 3.2-7.6 0-13.8-6.8-19.4-6.6-5.6-15.6-5.8-4.6 0-10.6 2.6-5.8 2.4-10 6.4-4 4-4 7.8 0 8.6 3.6 14.4 3.8 5.6 9.2 8.2t10.4 2.6"/></svg>