<svg xmlns="http://www.w3.org/2000/svg" width="250" height="250" fill="none" viewBox="0 0 250 250"><rect width="250" height="250" fill="#f03" rx="30"/><path fill="#fff" d="M169.6 78.2a224 224 0 0 1-6.6 24.2q-3.8 12-9.8 27.6-10.2 27.4-14.4 44.2-3.4 11.4-6.4 16.4t-7 5q-3.2 0-8.6-3.8-1.4-1.8-1.4-5 0-2.6 1.4-7.6 1.4-5.2 3.4-11.4l2.4-7.2q2.6-8.6 8.8-23.2 4.6-11.2 8.2-21.6 3.8-10.4 7.4-24.8-10.4 3.2-20.6 3.2-5 0-15.2-1.4-8.4-1.2-12-1.2.2 3 3 11.4 3.4 8.6 3.4 13 0 2.6-1.8 4.4t-5.8 1.8q-5.2 0-8-3.2-2.6-3.4-4.4-7.6-1.6-4.4-2.4-6a76.7 76.7 0 0 1-4.4-13.2q-1.6-7-1.6-12.4 0-3.2 1.6-5.6 1.8-2.4 4-2.4 3 .4 9 1.6 9.6 1.6 16 2.6 6.6.8 14 .8 18.2 0 28-6.4 1.4-.8 4.2-.8 5.2 0 10.4 2.6 5.2 2.4 5.2 6"/></svg>