<?xml version="1.0" encoding="UTF-8"?>
<svg version="1.1" xmlns="http://www.w3.org/2000/svg" width="1080" height="1920">
<path d="M0 0 C356.4 0 712.8 0 1080 0 C1080 633.6 1080 1267.2 1080 1920 C723.6 1920 367.2 1920 0 1920 C0 1286.4 0 652.8 0 0 Z " fill="#FABA32" transform="translate(0,0)"/>
<path d="M0 0 C7.03639963 5.56335896 11.51329054 11.97189059 16.08984375 19.65234375 C16.6003125 20.45929687 17.11078125 21.26625 17.63671875 22.09765625 C20.42368245 26.99731824 22.15432757 32.37250945 24.08984375 37.65234375 C24.36957031 38.39484375 24.64929688 39.13734375 24.9375 39.90234375 C33.31097759 63.32977832 33.40266665 87.92906907 33.35546875 112.5078125 C33.35682093 115.03160133 33.35876602 117.5553899 33.36126709 120.07917786 C33.36419076 125.32909666 33.36000946 130.57894671 33.35058594 135.82885742 C33.34144916 141.17493568 33.34092504 146.52086835 33.35058594 151.86694336 C33.36227355 158.3957236 33.36395493 164.92442363 33.35747528 171.45321083 C33.35615622 173.91320122 33.35772411 176.37319515 33.36243439 178.83318138 C33.39007799 197.31355908 32.89472431 215.39128285 28.33984375 233.40234375 C27.94406128 234.995625 27.94406128 234.995625 27.5402832 236.62109375 C20.8863728 262.56442348 7.18444337 286.17061402 -11.54052734 305.25195312 C-12.78087983 306.5201638 -13.99739874 307.81157683 -15.2109375 309.10546875 C-25.39600448 319.75603239 -37.24940334 327.41060767 -50.01806641 334.57861328 C-51.60646704 335.48000502 -53.17327521 336.4192998 -54.734375 337.3671875 C-106.51315532 368.01177177 -182.62257668 366.62498736 -238.91015625 352.65234375 C-244.91487031 351.06233026 -250.84852673 349.27676291 -256.75439453 347.35351562 C-258.69528787 346.72223073 -260.6441029 346.11542708 -262.59375 345.51171875 C-288.17185163 337.1138218 -312.71049547 320.28478506 -329.91015625 299.65234375 C-330.70550781 298.73324219 -331.50085938 297.81414062 -332.3203125 296.8671875 C-343.66098622 283.61074386 -353.16565333 268.20430131 -358.91015625 251.65234375 C-359.296875 250.59015625 -359.68359375 249.52796875 -360.08203125 248.43359375 C-367.69561285 226.06282313 -369.67822276 203.4498726 -369.48298907 179.95596981 C-369.45854505 176.40371414 -369.46209951 172.85145806 -369.46168518 169.2991333 C-369.45711076 163.35601275 -369.43382325 157.41322045 -369.3972168 151.47021484 C-369.35528219 144.6449256 -369.33788545 137.81992874 -369.33459705 130.99451804 C-369.33097494 123.64019942 -369.31210244 116.28598212 -369.28747678 108.93170643 C-369.28131348 106.84570333 -369.27763702 104.75970797 -369.27444267 102.67369843 C-369.2211124 75.16112255 -369.2211124 75.16112255 -366.91015625 62.65234375 C-366.76706528 61.79513229 -366.6239743 60.93792084 -366.47654724 60.05473328 C-362.55315531 36.8577943 -352.45580469 12.49734473 -333.5 -2.21875 C-324.77784966 -7.91511666 -314.8772409 -7.74839732 -304.9375 -5.75 C-292.40444603 -1.68573665 -280.93325722 6.39350596 -270.3984375 14.11328125 C-243.65616193 33.70065986 -212.67123736 50.23218355 -178.91015625 51.65234375 C-177.68546631 51.70793457 -177.68546631 51.70793457 -176.43603516 51.76464844 C-157.05283144 52.50888093 -138.22757068 50.10696794 -119.91015625 43.65234375 C-119.24661133 43.42095703 -118.58306641 43.18957031 -117.89941406 42.95117188 C-101.60105647 37.11507876 -85.61904765 28.4047768 -71.890625 17.87890625 C-24.44105314 -17.56834927 -24.44105314 -17.56834927 0 0 Z " fill="#F5B837" transform="translate(707.91015625,627.34765625)"/>
<path d="M0 0 C7.03639963 5.56335896 11.51329054 11.97189059 16.08984375 19.65234375 C16.6003125 20.45929687 17.11078125 21.26625 17.63671875 22.09765625 C20.42368245 26.99731824 22.15432757 32.37250945 24.08984375 37.65234375 C24.36957031 38.39484375 24.64929688 39.13734375 24.9375 39.90234375 C33.31097759 63.32977832 33.40266665 87.92906907 33.35546875 112.5078125 C33.35682093 115.03160133 33.35876602 117.5553899 33.36126709 120.07917786 C33.36419076 125.32909666 33.36000946 130.57894671 33.35058594 135.82885742 C33.34144916 141.17493568 33.34092504 146.52086835 33.35058594 151.86694336 C33.36227355 158.3957236 33.36395493 164.92442363 33.35747528 171.45321083 C33.35615622 173.91320122 33.35772411 176.37319515 33.36243439 178.83318138 C33.39007799 197.31355908 32.89472431 215.39128285 28.33984375 233.40234375 C27.94406128 234.995625 27.94406128 234.995625 27.5402832 236.62109375 C20.8863728 262.56442348 7.18444337 286.17061402 -11.54052734 305.25195312 C-12.78087983 306.5201638 -13.99739874 307.81157683 -15.2109375 309.10546875 C-25.39600448 319.75603239 -37.24940334 327.41060767 -50.01806641 334.57861328 C-51.60646704 335.48000502 -53.17327521 336.4192998 -54.734375 337.3671875 C-106.51315532 368.01177177 -182.62257668 366.62498736 -238.91015625 352.65234375 C-244.91487031 351.06233026 -250.84852673 349.27676291 -256.75439453 347.35351562 C-258.69528787 346.72223073 -260.6441029 346.11542708 -262.59375 345.51171875 C-288.17185163 337.1138218 -312.71049547 320.28478506 -329.91015625 299.65234375 C-330.70550781 298.73324219 -331.50085938 297.81414062 -332.3203125 296.8671875 C-343.66098622 283.61074386 -353.16565333 268.20430131 -358.91015625 251.65234375 C-359.296875 250.59015625 -359.68359375 249.52796875 -360.08203125 248.43359375 C-367.69561285 226.06282313 -369.67822276 203.4498726 -369.48298907 179.95596981 C-369.45854505 176.40371414 -369.46209951 172.85145806 -369.46168518 169.2991333 C-369.45711076 163.35601275 -369.43382325 157.41322045 -369.3972168 151.47021484 C-369.35528219 144.6449256 -369.33788545 137.81992874 -369.33459705 130.99451804 C-369.33097494 123.64019942 -369.31210244 116.28598212 -369.28747678 108.93170643 C-369.28131348 106.84570333 -369.27763702 104.75970797 -369.27444267 102.67369843 C-369.2211124 75.16112255 -369.2211124 75.16112255 -366.91015625 62.65234375 C-366.76706528 61.79513229 -366.6239743 60.93792084 -366.47654724 60.05473328 C-362.55315531 36.8577943 -352.45580469 12.49734473 -333.5 -2.21875 C-324.77784966 -7.91511666 -314.8772409 -7.74839732 -304.9375 -5.75 C-292.40444603 -1.68573665 -280.93325722 6.39350596 -270.3984375 14.11328125 C-243.65616193 33.70065986 -212.67123736 50.23218355 -178.91015625 51.65234375 C-177.68546631 51.70793457 -177.68546631 51.70793457 -176.43603516 51.76464844 C-157.05283144 52.50888093 -138.22757068 50.10696794 -119.91015625 43.65234375 C-119.24661133 43.42095703 -118.58306641 43.18957031 -117.89941406 42.95117188 C-101.60105647 37.11507876 -85.61904765 28.4047768 -71.890625 17.87890625 C-24.44105314 -17.56834927 -24.44105314 -17.56834927 0 0 Z M-325.91015625 88.65234375 C-326.83699219 89.35101562 -327.76382813 90.0496875 -328.71875 90.76953125 C-329.44191406 91.39085937 -330.16507812 92.0121875 -330.91015625 92.65234375 C-330.91015625 93.31234375 -330.91015625 93.97234375 -330.91015625 94.65234375 C-331.47089844 94.85472656 -332.03164063 95.05710937 -332.609375 95.265625 C-335.78921872 97.18216918 -337.62727355 99.85206594 -339.72265625 102.83984375 C-340.15843994 103.45915771 -340.59422363 104.07847168 -341.04321289 104.71655273 C-354.34949935 124.19280692 -357.91635627 146.09715015 -354.2890625 169.36328125 C-351.76850941 181.99310095 -345.08314683 193.81624462 -336.91015625 203.65234375 C-336.18828125 204.62171875 -335.46640625 205.59109375 -334.72265625 206.58984375 C-322.51902449 220.84028716 -303.50048412 230.45324399 -284.91015625 232.65234375 C-281.32558854 232.78749361 -277.7468842 232.79206356 -274.16015625 232.77734375 C-273.20238281 232.78121094 -272.24460937 232.78507813 -271.2578125 232.7890625 C-270.34386719 232.78777344 -269.42992187 232.78648437 -268.48828125 232.78515625 C-267.6571582 232.78402832 -266.82603516 232.78290039 -265.96972656 232.78173828 C-263.84583953 232.78278993 -263.84583953 232.78278993 -261.91015625 231.65234375 C-270.8844981 243.16890531 -282.37314392 250.89125348 -297.04443359 252.95214844 C-301.3286268 253.39597574 -305.6027805 253.58513647 -309.91015625 253.65234375 C-310.49395507 262.79852533 -305.68532792 268.64376245 -300.66015625 275.90234375 C-284.5234923 292.0390077 -263.48667066 297.80836909 -241.28515625 297.90234375 C-240.09019531 297.92296875 -238.89523437 297.94359375 -237.6640625 297.96484375 C-215.41646597 298.06125804 -195.44843228 289.42840074 -179.39208984 274.21386719 C-175.91564598 270.72385791 -172.80910808 267.17684356 -170.3046875 262.9296875 C-168.91015625 260.65234375 -168.91015625 260.65234375 -166.91015625 259.65234375 C-166.56984375 260.71001953 -166.56984375 260.71001953 -166.22265625 261.7890625 C-164.64556901 265.22955341 -162.4734251 267.73872987 -159.91015625 270.46484375 C-159.4203125 270.98965332 -158.93046875 271.51446289 -158.42578125 272.05517578 C-143.46825021 287.77889479 -123.87690105 297.26955809 -102.08984375 297.98828125 C-78.37819738 298.28457619 -56.69008689 295.93455089 -38.87402344 278.79736328 C-32.2979155 272.17772013 -25.08384795 264.80435495 -24.84375 254.91796875 C-24.86566406 254.1703125 -24.88757813 253.42265625 -24.91015625 252.65234375 C-25.89113281 252.71035156 -26.87210938 252.76835938 -27.8828125 252.828125 C-42.19243092 253.41251931 -54.05291982 250.59021742 -64.91015625 240.65234375 C-66.24255938 239.54705479 -67.57583232 238.44281313 -68.91015625 237.33984375 C-70.77968087 235.76026855 -71.80916676 234.85432272 -72.91015625 232.65234375 C-71.98904053 232.6680542 -71.98904053 232.6680542 -71.04931641 232.68408203 C-68.21130628 232.72618584 -65.37336224 232.75183997 -62.53515625 232.77734375 C-61.08689453 232.80248047 -61.08689453 232.80248047 -59.609375 232.828125 C-39.04946727 232.96611096 -19.07522281 224.34011542 -4.25 210.15625 C11.57364788 193.22309759 20.85525729 172.01867214 20.34375 148.5234375 C19.83501602 142.77083014 18.5140679 137.23826185 17.08984375 131.65234375 C16.82300781 130.56695313 16.55617188 129.4815625 16.28125 128.36328125 C12.62266636 114.99725568 5.76253275 104.46649804 -3.91015625 94.65234375 C-4.73580078 93.71841797 -4.73580078 93.71841797 -5.578125 92.765625 C-18.57795561 78.4818605 -37.9799874 72.26534852 -56.7109375 71.296875 C-69.02739525 70.89685664 -79.54661004 71.82251633 -90.91015625 76.65234375 C-91.96074219 77.08675781 -93.01132812 77.52117187 -94.09375 77.96875 C-112.13661199 86.20417855 -124.97069994 100.25158809 -133.91015625 117.65234375 C-134.32007813 118.43222656 -134.73 119.21210937 -135.15234375 120.015625 C-138.47237152 126.84870541 -140.09183074 134.31133809 -141.91015625 141.65234375 C-142.44382812 141.31460938 -142.9775 140.976875 -143.52734375 140.62890625 C-154.96291762 133.78338971 -168.83228918 132.71426941 -181.7890625 135.48046875 C-186.23653922 136.81222714 -190.03665732 138.07001113 -193.91015625 140.65234375 C-195.50811482 136.91451024 -196.5523964 133.21756783 -197.53515625 129.27734375 C-202.97953675 110.04053264 -215.84564686 93.18152237 -232.66015625 82.33984375 C-262.19021939 65.98691954 -299.35173676 67.31923931 -325.91015625 88.65234375 Z " fill="#1B1314" transform="translate(707.91015625,627.34765625)"/>
<path d="M0 0 C2.69278792 2.07417448 3.73382441 3.91028967 5.26953125 6.92578125 C7.49508551 10.87953114 10.33747895 13.71950305 13.5625 16.875 C14.10567871 17.4218042 14.64885742 17.9686084 15.20849609 18.53198242 C20.98610593 24.22800742 26.25108218 28.07990314 34.5625 28.4375 C45.19957892 28.27149517 51.69295356 21.81026364 58.79833984 14.62084961 C62.32549581 10.91519852 65.29277694 7.05305697 67.9140625 2.64453125 C69 1 69 1 71 0 C91.43456415 -1.06579472 108.40439617 2.5315699 124.1875 16.1875 C126.87673362 18.75059696 129.19660086 21.44921043 131.50390625 24.36328125 C137.16559776 30.5571422 144.15203189 35.95910433 152 39 C152.71027344 39.29648437 153.42054688 39.59296875 154.15234375 39.8984375 C161.95646311 42.72921624 169.82602044 42.27381817 178 42 C176.56452695 53.41477123 172.05597573 59.90354198 164 68 C163.40574219 68.6290625 162.81148437 69.258125 162.19921875 69.90625 C147.73394373 84.01871343 127.54755102 87.30052518 108.25 87.4375 C106.4388269 87.45296875 106.4388269 87.45296875 104.59106445 87.46875 C96.37124161 87.38792689 88.91339483 86.19604542 81 84 C80.29504395 83.80672119 79.59008789 83.61344238 78.86376953 83.41430664 C62.57665937 78.64204439 48.12785329 67.58254377 38 54 C36.5625 51 36.5625 51 36 49 C33.00555842 51.87386004 30.47172499 54.90484968 27.9375 58.1875 C23.22173438 63.9968889 18.00141878 68.55985257 12 73 C11.37996094 73.46921875 10.75992188 73.9384375 10.12109375 74.421875 C5.64793959 77.50404833 0.66634087 79.56803283 -4.3125 81.6875 C-4.99973145 81.98543457 -5.68696289 82.28336914 -6.39501953 82.59033203 C-16.61421486 86.78337252 -26.86557654 87.36446207 -37.8125 87.3125 C-39.05281982 87.30686035 -40.29313965 87.3012207 -41.57104492 87.29541016 C-50.10759439 87.18194151 -57.85463364 86.73914975 -66 84 C-66.61085449 83.79600586 -67.22170898 83.59201172 -67.85107422 83.38183594 C-76.42860032 80.44207019 -83.84266297 76.63953599 -91 71 C-92.36125 70.0409375 -92.36125 70.0409375 -93.75 69.0625 C-99.22294683 64.04563208 -104.40117956 56.98001773 -107 50 C-107.1328125 46.22265625 -107.1328125 46.22265625 -107 43 C-105.63681641 42.97873047 -105.63681641 42.97873047 -104.24609375 42.95703125 C-83.44698308 42.16773167 -70.37757061 33.69983261 -56.15356445 19.03588867 C-51.26510771 14.072799 -46.13843576 10.32498604 -40 7 C-39.34 6.60554687 -38.68 6.21109375 -38 5.8046875 C-27.54373166 -0.07696344 -11.81824632 -2.84690549 0 0 Z " fill="#FCF0D5" transform="translate(505,838)"/>
<path d="M0 0 C9.30316314 7.77724749 16.95216922 17.45189668 18.46289062 29.89453125 C19.58049848 44.08438379 16.48934378 56.7136926 7.21484375 67.8515625 C-0.96415213 76.6822712 -12.58726374 83.57266208 -24.8359375 84.15234375 C-26.2563823 84.17181772 -27.67712241 84.17529963 -29.09765625 84.1640625 C-29.8460376 84.15842285 -30.59441895 84.1527832 -31.36547852 84.14697266 C-44.69527488 83.85553215 -55.47123328 78.15144755 -64.671875 68.55859375 C-72.02842056 59.13514444 -74.96971856 49.43466778 -75.03515625 37.6640625 C-75.05578125 36.75591797 -75.07640625 35.84777344 -75.09765625 34.91210938 C-75.1693881 22.38593464 -70.11647616 12.1842399 -61.59765625 3.1015625 C-44.84715669 -12.80437406 -18.3509056 -13.97880978 0 0 Z " fill="#F9EDD4" transform="translate(674.78515625,742.1484375)"/>
<path d="M0 0 C9.91845064 7.2746531 17.28117681 17.28188287 19.35546875 29.5390625 C20.90927769 43.90232076 19.6003564 56.32271741 10.65234375 68.18359375 C3.19461422 76.92358113 -6.60123403 84.15596354 -18.32421875 85.5 C-33.78218684 86.41312892 -46.17342095 83.87255585 -58.46484375 73.734375 C-60.19770454 72.06178763 -61.77438297 70.34225763 -63.32421875 68.5 C-63.77152344 68.00371094 -64.21882813 67.50742187 -64.6796875 66.99609375 C-72.92265456 56.8762665 -74.55602442 44.12139841 -73.55908203 31.56103516 C-72.13680411 19.07988111 -64.85348505 8.71520808 -55.2421875 0.92578125 C-39.2614916 -10.95396214 -16.56095035 -10.68807552 0 0 Z " fill="#FAEED4" transform="translate(460.32421875,740.5)"/>
<path d="M0 0 C1.45792969 0.63421875 1.45792969 0.63421875 2.9453125 1.28125 C18.07417926 8.69482573 29.26896777 22.31838433 35 38 C40.25525744 55.28536483 38.24523916 71.89041588 30 88 C20.8149268 103.59166176 6.51996294 114.33679182 -11 119 C-28.74134115 122.10002183 -45.55992001 119.66057477 -60.55859375 109.21875 C-74.59220834 98.45323744 -85.20785102 83.62078605 -87.8125 65.75 C-88.77250571 46.54988572 -84.44530417 30.64793181 -71.75 15.9375 C-52.86830601 -4.32654762 -25.64176298 -11.34270927 0 0 Z M-56 21 C-56.71027344 21.58652344 -57.42054688 22.17304687 -58.15234375 22.77734375 C-66.51996062 30.37404774 -71.71799384 40.37310845 -72.2734375 51.625 C-72.66206499 66.22027217 -71.11715846 77.70875154 -61 89 C-60.48824219 89.60328125 -59.97648438 90.2065625 -59.44921875 90.828125 C-52.04725895 98.95438158 -41.88071795 103.7075063 -30.921875 104.3359375 C-15.99511141 104.65966323 -3.75477719 100.97869275 7.51171875 90.7109375 C12.9142827 85.08512711 16.31239471 79.29647059 19 72 C19.36222656 71.07574219 19.72445312 70.15148437 20.09765625 69.19921875 C23.31458073 57.79375923 21.72962866 45.06790169 16.0703125 34.72412109 C8.98632226 23.31282112 -1.50309561 15.29403931 -14.40625 11.69140625 C-29.54253562 8.77931652 -44.03780816 10.98090531 -56 21 Z " fill="#1D1416" transform="translate(672,722)"/>
<path d="M0 0 C12.05405639 10.10985374 21.43890736 25.17534881 23.35546875 41.0078125 C24.49588522 58.92550973 19.77368137 76.01371183 7.79296875 89.6328125 C6.33916827 91.11643452 4.86203618 92.57780385 3.35546875 94.0078125 C2.75863281 94.58917969 2.16179687 95.17054688 1.546875 95.76953125 C-11.62956675 107.85047207 -29.08557091 111.94624289 -46.49658203 111.19580078 C-51.82833924 110.72916597 -56.70109338 108.95810032 -61.64453125 107.0078125 C-62.44117188 106.7190625 -63.2378125 106.4303125 -64.05859375 106.1328125 C-79.21969906 100.13265775 -90.20849084 88.04886898 -97.171875 73.66015625 C-100.6612948 65.00602491 -102.17647687 57.48887811 -102.08203125 48.1328125 C-102.07373291 47.07215576 -102.06543457 46.01149902 -102.05688477 44.91870117 C-101.8920954 37.29792596 -101.05286185 30.90611036 -97.64453125 24.0078125 C-97.19335938 22.97140625 -96.7421875 21.935 -96.27734375 20.8671875 C-89.06323996 5.72115866 -76.30934673 -5.06121426 -60.78515625 -11.10546875 C-38.99636202 -18.07128024 -18.00254122 -13.56173711 0 0 Z M-74.01953125 16.3828125 C-77.54163946 20.63239092 -80.31666904 25.00819935 -82.64453125 30.0078125 C-82.96421875 30.64589844 -83.28390625 31.28398438 -83.61328125 31.94140625 C-87.7770162 41.83027674 -86.88275868 54.49775135 -83.64453125 64.5078125 C-78.06220149 78.13248175 -67.6937085 86.86477877 -54.64453125 93.0078125 C-43.00307544 97.34869433 -28.83076853 95.98929893 -17.64453125 91.0078125 C-5.71719653 84.45880652 2.1782192 74.49496816 6.46875 61.68359375 C9.53742423 48.96279002 7.64871132 34.3890487 0.8671875 23.16796875 C-6.5914464 12.51002418 -15.57186794 5.09655032 -28.5078125 2.4140625 C-46.01432025 0.14671903 -61.67718797 3.16217513 -74.01953125 16.3828125 Z " fill="#1C1415" transform="translate(472.64453125,730.9921875)"/>
<path d="M0 0 C1.02480469 0.37125 2.04960938 0.7425 3.10546875 1.125 C7.19914434 2.95992402 10.85975387 4.65040191 12.90234375 8.859375 C14.19144347 12.62215256 15.02111007 16.46759624 15.875 20.34765625 C18.34716594 31.4201421 24.59960109 40.58298063 32 49 C33.1667976 50.37488889 34.33347842 51.74987691 35.5 53.125 C36.325 54.07375 37.15 55.0225 38 56 C36.81921875 56.02578125 35.6384375 56.0515625 34.421875 56.078125 C32.86454677 56.13441397 31.30725653 56.19176114 29.75 56.25 C28.97269531 56.26417969 28.19539062 56.27835938 27.39453125 56.29296875 C22.65644718 56.48631622 22.65644718 56.48631622 18.6171875 58.8203125 C18.08351563 59.53960938 17.54984375 60.25890625 17 61 C16.33097656 61.88558594 16.33097656 61.88558594 15.6484375 62.7890625 C15.22820312 63.39492188 14.80796875 64.00078125 14.375 64.625 C7.93376308 73.29963063 -0.84462143 83.77153158 -12.0859375 85.46484375 C-22.03355341 85.77186893 -27.29804342 82.06942723 -34.40234375 75.46875 C-35.25957031 74.6540625 -36.11679687 73.839375 -37 73 C-37.82628906 72.2265625 -38.65257812 71.453125 -39.50390625 70.65625 C-42.9514421 67.33934566 -45.71742234 64.66178801 -47.6796875 60.28515625 C-48.93354629 57.99287832 -49.4883565 57.16726086 -52.00146484 56.34570312 C-54.44129727 56.08559087 -56.79684728 56.02991907 -59.25 56.0625 C-60.09046875 56.04638672 -60.9309375 56.03027344 -61.796875 56.01367188 C-63.86428804 55.97843188 -65.93234026 55.98510945 -68 56 C-66.7315625 54.5459375 -66.7315625 54.5459375 -65.4375 53.0625 C-55.15612221 41.01514438 -46.00952058 28.86309257 -44.25 12.6875 C-43.60825143 8.44757144 -42.93927586 6.21922925 -39.5625 3.5 C-37.38671875 2.1796875 -37.38671875 2.1796875 -35 1 C-34.18144531 0.59007812 -33.36289062 0.18015625 -32.51953125 -0.2421875 C-22.04175561 -4.73045181 -10.43640626 -4.41477839 0 0 Z " fill="#170F10" transform="translate(555,782)"/>
<path d="M0 0 C0.7734375 -0.01675781 1.546875 -0.03351563 2.34375 -0.05078125 C5.00052926 0.3968283 5.88872529 1.18995543 7.5 3.3125 C7.5 3.9725 7.5 4.6325 7.5 5.3125 C7.98726563 4.9515625 8.47453125 4.590625 8.9765625 4.21875 C15.92020395 -0.32617895 22.35803339 -0.9257203 30.5 0.3125 C40.40909464 3.51838356 47.05862668 9.33814804 51.9375 18.4375 C55.08486938 26.48537873 54.85382009 35.01095407 51.44433594 42.93164062 C48.11089552 49.80524644 44.10225325 54.50307807 37.5 58.3125 C36.5615625 58.85777344 35.623125 59.40304687 34.65625 59.96484375 C28.70697218 62.50506757 21.3355963 62.34491988 15.10546875 60.66796875 C13.25 59.875 13.25 59.875 10.5 58.3125 C9.84 57.9825 9.18 57.6525 8.5 57.3125 C8.52094727 58.05411377 8.54189453 58.79572754 8.56347656 59.55981445 C8.64654137 62.9147388 8.69863014 66.26944707 8.75 69.625 C8.78351563 70.79224609 8.81703125 71.95949219 8.8515625 73.16210938 C8.86445313 74.28037109 8.87734375 75.39863281 8.890625 76.55078125 C8.91157227 77.58243408 8.93251953 78.61408691 8.95410156 79.67700195 C8.5 82.3125 8.5 82.3125 6.63232422 84.14990234 C4.03899095 85.56385392 2.31502135 85.68204519 -0.625 85.625 C-1.92824219 85.61919922 -1.92824219 85.61919922 -3.2578125 85.61328125 C-5.5 85.3125 -5.5 85.3125 -7.5 83.3125 C-7.70358768 80.73374658 -7.7832148 78.26192379 -7.7746582 75.68164062 C-7.7823246 74.5009626 -7.7823246 74.5009626 -7.79014587 73.2964325 C-7.80407892 70.68712828 -7.80308251 68.07808705 -7.80078125 65.46875 C-7.80466582 63.66035869 -7.80899999 61.8519683 -7.81376648 60.0435791 C-7.82123644 56.25053959 -7.82093158 52.45759315 -7.81567383 48.66455078 C-7.80987471 43.79502101 -7.82681702 38.92587105 -7.8500185 34.05640411 C-7.86472284 30.32128661 -7.86563212 26.58626131 -7.86250877 22.85112 C-7.86302354 21.05530545 -7.86829019 19.25948595 -7.87832069 17.46369934 C-7.89060576 14.95666534 -7.88394205 12.45038065 -7.87231445 9.94335938 C-7.87995819 9.1962822 -7.88760193 8.44920502 -7.89547729 7.67948914 C-7.8742218 5.61462402 -7.8742218 5.61462402 -7.5 2.3125 C-4.40219052 0.24729368 -3.5459519 0.01772976 0 0 Z " fill="#FDF6E0" transform="translate(488.5,1778.6875)"/>
<path d="M0 0 C1.08667969 0.01804687 2.17335938 0.03609375 3.29296875 0.0546875 C4.54013672 0.08949219 4.54013672 0.08949219 5.8125 0.125 C8.25097224 3.88309456 8.12492821 7.66767941 8.15625 11.99609375 C8.1708728 12.75543716 8.18549561 13.51478058 8.20056152 14.2971344 C8.24695665 16.71886982 8.28121144 19.14052515 8.3125 21.5625 C8.3537553 24.74899618 8.40747066 27.9349267 8.46875 31.12109375 C8.4740271 31.84832138 8.4793042 32.57554901 8.48474121 33.32481384 C8.56286916 37.32860732 8.87205329 40.5828555 10.8125 44.125 C15.69660007 46.68333813 19.60163529 46.30164687 24.8125 45.125 C27.24037023 43.47603237 28.60028945 42.21616845 29.17312622 39.27069092 C29.32314111 36.92984671 29.33963717 34.61897368 29.31640625 32.2734375 C29.32582748 31.41819489 29.33524872 30.56295227 29.34495544 29.68179321 C29.37360922 26.95428405 29.37668255 24.22764761 29.375 21.5 C29.37860076 18.76533923 29.38803773 16.03131103 29.41575623 13.29678345 C29.43262375 11.59632433 29.43535867 9.8956559 29.42274475 8.19515991 C29.44360352 5.86865234 29.44360352 5.86865234 29.8125 2.125 C33.16447843 -0.10965229 34.39041246 -0.14608649 38.3125 -0.125 C39.75109375 -0.13273437 39.75109375 -0.13273437 41.21875 -0.140625 C43.8125 0.125 43.8125 0.125 46.8125 2.125 C47.1867218 4.46888733 47.1867218 4.46888733 47.18481445 7.44165039 C47.19415764 9.10962425 47.19415764 9.10962425 47.20368958 10.81129456 C47.19447983 12.01954391 47.18527008 13.22779327 47.17578125 14.47265625 C47.17652901 16.33415565 47.17652901 16.33415565 47.17729187 18.23326111 C47.17494631 20.867326 47.16676022 23.5005947 47.14868164 26.13452148 C47.13061511 28.82408574 47.12350065 31.51325959 47.12817383 34.20288086 C47.13462383 38.08458561 47.12661261 41.96597341 47.11328125 45.84765625 C47.11464836 47.63877586 47.11464836 47.63877586 47.11604309 49.46607971 C47.01694882 61.25557562 45.4577515 69.24630875 37.14453125 77.8515625 C30.17239288 84.32910982 22.97039413 85.6112075 13.75 85.4375 C12.89083984 85.44072266 12.03167969 85.44394531 11.14648438 85.44726562 C5.00251531 85.39563563 -0.46465707 84.96291897 -5.6875 81.4375 C-7.1875 79.125 -7.1875 79.125 -7.125 75.625 C-5.67025862 70.19396552 -5.67025862 70.19396552 -3.1875 68.125 C0.35238111 67.73167988 2.89399751 67.73802436 6.1953125 69.12890625 C11.45030379 71.12894025 17.46134486 70.92539324 22.75 69.125 C26.68126601 65.31286326 28.63006432 60.41048747 29.8125 55.125 C28.905 55.764375 27.9975 56.40375 27.0625 57.0625 C20.54523547 61.19845634 13.35318494 60.7402074 5.8125 60.125 C2.3125 58.5625 2.3125 58.5625 -0.1875 56.125 C-0.70699219 55.650625 -1.22648437 55.17625 -1.76171875 54.6875 C-9.84287987 46.54763796 -9.61298916 35.21921174 -9.59765625 24.45898438 C-9.59137207 23.65549561 -9.58508789 22.85200684 -9.57861328 22.02416992 C-9.56232494 19.53575541 -9.57864059 17.04891645 -9.59765625 14.56054688 C-9.59567725 12.97655892 -9.59184072 11.39257194 -9.5859375 9.80859375 C-9.59201019 9.06596786 -9.59808289 8.32334198 -9.6043396 7.55821228 C-9.57568359 5.48217773 -9.57568359 5.48217773 -9.1875 2.125 C-5.66070901 -0.22619399 -4.15870515 -0.08943452 0 0 Z " fill="#FDF6E0" transform="translate(424.1875,1779.875)"/>
<path d="M0 0 C1.28583984 0.00580078 1.28583984 0.00580078 2.59765625 0.01171875 C4.9375 0.3125 4.9375 0.3125 7.9375 2.3125 C8.27552675 4.85829377 8.4262947 7.17399086 8.44921875 9.7265625 C8.47614555 10.82102188 8.47614555 10.82102188 8.50361633 11.93759155 C8.55785132 14.27083535 8.59165562 16.60387314 8.625 18.9375 C8.65816162 20.51825792 8.6926502 22.09898861 8.72851562 23.6796875 C8.81358467 27.55714326 8.88033178 31.43453655 8.9375 35.3125 C10.87656544 32.93876329 12.8141133 30.56382796 14.75 28.1875 C15.33587891 27.46844482 15.92175781 26.74938965 16.52539062 26.00854492 C20.83796839 20.70116037 25.08394663 15.34628502 29.24536133 9.91943359 C36.34906537 0.75470158 36.34906537 0.75470158 40.0703125 -0.28125 C45.45660537 -0.02777739 45.45660537 -0.02777739 47.65542603 1.52809143 C49.36731057 3.9107164 49.3179787 5.44140394 49.32568359 8.36303711 C49.33514008 9.39097885 49.34459656 10.41892059 49.3543396 11.47801208 C49.34826691 12.58741653 49.34219421 13.69682098 49.3359375 14.83984375 C49.33880768 15.98030655 49.34167786 17.12076935 49.34463501 18.29579163 C49.34667773 20.70916235 49.34113343 23.12254956 49.32861328 25.53588867 C49.31257816 29.23198488 49.32844825 32.92698503 49.34765625 36.62304688 C49.34567357 38.96614825 49.34182937 41.30924894 49.3359375 43.65234375 C49.34504654 45.31341408 49.34504654 45.31341408 49.3543396 47.00804138 C49.34488312 48.03913528 49.33542664 49.07022919 49.32568359 50.13256836 C49.32329681 51.03841171 49.32091003 51.94425507 49.31845093 52.87754822 C48.85950906 55.81100037 47.99371755 57.19243949 45.9375 59.3125 C43.08984375 59.7734375 43.08984375 59.7734375 39.875 59.6875 C38.27978516 59.66816406 38.27978516 59.66816406 36.65234375 59.6484375 C33.9375 59.3125 33.9375 59.3125 31.9375 57.3125 C31.61865234 54.33154297 31.61865234 54.33154297 31.5234375 50.5546875 C31.50407135 49.89163605 31.4847052 49.22858459 31.4647522 48.54544067 C31.40494046 46.42625823 31.35856612 44.3070215 31.3125 42.1875 C31.27432155 40.75127831 31.23526989 39.31507955 31.1953125 37.87890625 C31.09923875 34.35698064 31.01521358 30.83488392 30.9375 27.3125 C30.43178467 28.01592529 29.92606934 28.71935059 29.4050293 29.4440918 C25.31026378 35.11180842 21.14993791 40.6911648 16.75 46.125 C16.25564453 46.74052734 15.76128906 47.35605469 15.25195312 47.99023438 C13.81994026 49.76940188 12.37967961 51.54156979 10.9375 53.3125 C10.4739209 53.88919434 10.0103418 54.46588867 9.53271484 55.06005859 C6.16633191 59.19808404 6.16633191 59.19808404 3.9375 60.3125 C-4.70397775 60.73063602 -4.70397775 60.73063602 -8.0625 58.3125 C-9.31432563 55.80884875 -9.20978136 54.06969083 -9.23950195 51.26782227 C-9.25233719 50.21655655 -9.26517242 49.16529083 -9.27839661 48.08216858 C-9.28578354 46.94259201 -9.29317047 45.80301544 -9.30078125 44.62890625 C-9.31288887 42.87923805 -9.31288887 42.87923805 -9.32524109 41.09422302 C-9.3390881 38.62362153 -9.34980748 36.15300085 -9.35766602 33.68237305 C-9.37491348 29.89400344 -9.41879953 26.10649846 -9.46289062 22.31835938 C-9.47301409 19.92188144 -9.48153127 17.52539606 -9.48828125 15.12890625 C-9.50578934 13.99135391 -9.52329742 12.85380157 -9.54133606 11.68177795 C-9.53841049 10.62736008 -9.53548492 9.5729422 -9.5324707 8.48657227 C-9.53833694 7.5577272 -9.54420319 6.62888214 -9.55024719 5.67189026 C-9.0625 3.3125 -9.0625 3.3125 -7.18766785 1.51182556 C-4.60969992 0.05696502 -2.94480035 -0.05774118 0 0 Z " fill="#FDF5DF" transform="translate(617.0625,1778.6875)"/>
<path d="M0 0 C0.85464844 -0.02835938 1.70929688 -0.05671875 2.58984375 -0.0859375 C6.04161829 0.55752126 7.07374622 1.47492113 9.0625 4.375 C9.67484643 7.28836301 9.75831586 10.15472415 9.8125 13.125 C9.84214844 13.91777344 9.87179687 14.71054688 9.90234375 15.52734375 C9.97277787 17.47602094 10.01993482 19.42551495 10.0625 21.375 C10.88041016 20.35792969 10.88041016 20.35792969 11.71484375 19.3203125 C13.29998293 17.36395269 14.90146284 15.42076421 16.515625 13.48828125 C18.16643984 11.50544162 19.66846948 9.52552057 21.171875 7.41796875 C24.40041457 3.17595905 26.33410298 0.6667358 31.7421875 -0.24609375 C35.24044526 -0.24961312 38.59457446 -0.0689734 42.0625 0.375 C42.80859375 2.58203125 42.80859375 2.58203125 43.0625 5.375 C41.47265625 7.69921875 41.47265625 7.69921875 39.125 10.0625 C34.4445998 14.94097356 30.22115732 20.04919907 26.0625 25.375 C27.71805221 28.99978799 29.89805008 32.12031161 32.1875 35.375 C32.99000665 36.52965382 33.79207981 37.68460903 34.59375 38.83984375 C36.20522462 41.15442616 37.83273833 43.45662835 39.46875 45.75390625 C40.2009375 46.80449219 40.933125 47.85507813 41.6875 48.9375 C42.36039062 49.88753906 43.03328125 50.83757812 43.7265625 51.81640625 C45.0625 54.375 45.0625 54.375 44.8359375 56.65234375 C44.0625 58.375 44.0625 58.375 43.0625 59.375 C31.39537651 61.03279503 31.39537651 61.03279503 26.9296875 57.859375 C25.09154641 55.46179967 23.59468552 52.97971539 22.0625 50.375 C20.35375946 47.88678529 18.57939145 45.4471002 16.8125 43 C16.38743164 42.39333496 15.96236328 41.78666992 15.52441406 41.16162109 C13.53758891 38.33312181 11.54973473 35.77028025 9.0625 33.375 C9.07821045 34.05079102 9.0939209 34.72658203 9.11010742 35.42285156 C9.17253867 38.49014897 9.21151647 41.55731259 9.25 44.625 C9.27513672 45.68847656 9.30027344 46.75195312 9.32617188 47.84765625 C9.33583984 48.87246094 9.34550781 49.89726563 9.35546875 50.953125 C9.3711792 51.89575195 9.38688965 52.83837891 9.40307617 53.80957031 C9.00016012 56.8445824 8.1818763 58.19329836 6.0625 60.375 C3.46875 60.87109375 3.46875 60.87109375 0.5625 60.8125 C-0.3965625 60.81121094 -1.355625 60.80992188 -2.34375 60.80859375 C-5.39202807 60.29901715 -6.10270417 59.81001475 -7.9375 57.375 C-8.31845093 54.93968201 -8.31845093 54.93968201 -8.32568359 52.01733398 C-8.33986832 50.37564491 -8.33986832 50.37564491 -8.3543396 48.70079041 C-8.34826691 47.51949051 -8.34219421 46.33819061 -8.3359375 45.12109375 C-8.33880768 43.90929947 -8.34167786 42.69750519 -8.34463501 41.44898987 C-8.34667771 38.88599175 -8.34113358 36.32297812 -8.32861328 33.76000977 C-8.31254972 29.82468026 -8.32846328 25.89037575 -8.34765625 21.95507812 C-8.34567413 19.46874772 -8.3418311 16.98241796 -8.3359375 14.49609375 C-8.34201019 13.31276962 -8.34808289 12.1294455 -8.3543396 10.91026306 C-8.34488312 9.81895584 -8.33542664 8.72764862 -8.32568359 7.60327148 C-8.32329681 6.63969223 -8.32091003 5.67611298 -8.31845093 4.68333435 C-8.19273712 3.92158401 -8.06702332 3.15983368 -7.9375 2.375 C-4.7524857 0.25165713 -3.69293693 0.05553289 0 0 Z " fill="#FDF5DF" transform="translate(366.9375,1778.625)"/>
<path d="M0 0 C0.7528125 -0.00773437 1.505625 -0.01546875 2.28125 -0.0234375 C5.30765632 0.52003687 6.46763799 1.01440253 8.5 3.375 C9.14142708 6.4279462 9.19705032 9.45050271 9.25 12.5625 C9.27964844 13.40748047 9.30929687 14.25246094 9.33984375 15.12304688 C9.4104699 17.20651822 9.45750795 19.29076506 9.5 21.375 C14.58849449 16.51955929 19.03771184 11.35901123 23.38671875 5.828125 C27.87587064 0.61705774 27.87587064 0.61705774 31.9375 0.01171875 C32.783125 0.02847656 33.62875 0.04523438 34.5 0.0625 C35.345625 0.06636719 36.19125 0.07023437 37.0625 0.07421875 C39.61537729 0.38923726 41.29013935 1.09103004 43.5 2.375 C41.95832375 7.61872778 38.5634672 11.07775523 35 15.0625 C34.40574219 15.73861328 33.81148437 16.41472656 33.19921875 17.11132812 C31.01417592 19.58984736 28.83684317 22.03815683 26.5 24.375 C26.61835425 29.43692039 29.73042371 32.79227286 32.6875 36.625 C33.68859454 37.96011749 34.68860031 39.29605208 35.6875 40.6328125 C36.17089844 41.27508789 36.65429688 41.91736328 37.15234375 42.57910156 C38.86592459 44.8626343 40.54970803 47.16142204 42.1875 49.5 C42.87392578 50.46292969 42.87392578 50.46292969 43.57421875 51.4453125 C44.73367057 53.86206017 44.66944033 55.72806724 44.5 58.375 C39.66340465 61.13876877 34.91683227 61.70980681 29.5 60.375 C27.26016675 58.35253453 25.99437919 56.25879392 24.46875 53.65625 C21.96459265 49.48265441 19.0345041 45.72290401 16.0625 41.875 C14.99625367 40.49346494 13.93469599 39.1082925 12.87890625 37.71875 C12.4207251 37.12255859 11.96254395 36.52636719 11.49047852 35.91210938 C10.5 34.375 10.5 34.375 10.5 32.375 C9.84 32.375 9.18 32.375 8.5 32.375 C8.51571045 33.11661377 8.5314209 33.85822754 8.54760742 34.62231445 C8.60990714 37.97729896 8.64897507 41.33216186 8.6875 44.6875 C8.71263672 45.85474609 8.73777344 47.02199219 8.76367188 48.22460938 C8.77333984 49.34287109 8.78300781 50.46113281 8.79296875 51.61328125 C8.8086792 52.64493408 8.82438965 53.67658691 8.84057617 54.73950195 C8.5 57.375 8.5 57.375 7.12792969 59.21020508 C4.8846688 60.81527372 3.29882179 60.77468862 0.5625 60.75 C-0.71947266 60.76160156 -0.71947266 60.76160156 -2.02734375 60.7734375 C-5.05355399 60.28580173 -6.29453817 59.49286271 -8.5 57.375 C-9.00793457 54.984375 -9.00793457 54.984375 -9.01757812 52.125 C-9.03018677 51.05378906 -9.04279541 49.98257812 -9.05578613 48.87890625 C-9.04768921 47.72261719 -9.03959229 46.56632812 -9.03125 45.375 C-9.0350769 44.18777344 -9.03890381 43.00054688 -9.04284668 41.77734375 C-9.04557036 39.26561638 -9.0381775 36.75386087 -9.02148438 34.2421875 C-9.00008324 30.38998381 -9.02127281 26.53964544 -9.046875 22.6875 C-9.04423181 20.24999587 -9.03910701 17.8124929 -9.03125 15.375 C-9.03934692 14.21871094 -9.04744385 13.06242187 -9.05578613 11.87109375 C-9.04317749 10.79988281 -9.03056885 9.72867187 -9.01757812 8.625 C-9.01439575 7.68140625 -9.01121338 6.7378125 -9.00793457 5.765625 C-8.5 3.375 -8.5 3.375 -6.60632324 1.57177734 C-4.20119319 0.20522301 -2.74975787 -0.02825094 0 0 Z " fill="#FDF5DF" transform="translate(684.5,1778.625)"/>
<path d="M0 0 C6.65541695 2.54287157 10.52433401 7.15407274 13.75 13.375 C17.07033719 23.02587019 15.69203216 34.65107737 12 44 C8.99017231 49.70829389 5.14217835 52.95260722 -1 55 C-7.54751841 55.74043019 -12.82390061 55.55212482 -18.27734375 51.6328125 C-22.28484826 47.83431616 -25.74388395 42.58562476 -26.14526367 36.96630859 C-26.1700523 34.43573644 -26.1856635 31.90570291 -26.1875 29.375 C-26.20586914 28.07755859 -26.20586914 28.07755859 -26.22460938 26.75390625 C-26.25890414 11.50416745 -26.25890414 11.50416745 -21.1875 6.125 C-20.70667969 5.59132813 -20.22585938 5.05765625 -19.73046875 4.5078125 C-13.63027328 -0.80748197 -7.83092861 -1.01196783 0 0 Z " fill="#160F0F" transform="translate(456,756)"/>
<path d="M0 0 C5.10059435 1.94881199 9.21681383 5.28999264 12 10 C14.59499025 17.09893885 14.27178348 24.55313273 14 32 C13.98195313 32.91523437 13.96390625 33.83046875 13.9453125 34.7734375 C13.57660269 41.82230155 11.45096587 46.71678942 6.3125 51.60546875 C1.43611351 55.2322812 -3.18326154 55.69667106 -9.1640625 55.41796875 C-14.77451858 54.59108335 -17.79230971 52.20769029 -21.8125 48.1875 C-27.76247293 39.51753945 -27.96044945 25.66064612 -26.5 15.4375 C-24.94554158 9.24081542 -20.72366293 4.97215059 -15.6640625 1.30859375 C-10.67924936 -1.13995816 -5.40794344 -0.69885259 0 0 Z " fill="#160F0F" transform="translate(636,756)"/>
<path d="M0 0 C6.25333527 3.49324246 6.25333527 3.49324246 8.1875 6.1875 C8.04464009 8.77428478 7.3919995 9.94287023 5.734375 11.92578125 C0.8889454 16.17079892 0.8889454 16.17079892 -2.4375 16.25 C-4.8125 15.1875 -4.8125 15.1875 -7 13.625 C-11.22575897 11.46516764 -15.15924128 11.51635692 -19.8125 12.1875 C-24.36172093 14.42075391 -26.57412341 16.69799254 -28.8125 21.1875 C-29.92357071 28.41871857 -29.50985703 34.62680329 -25.296875 40.69921875 C-22.04846151 43.9561807 -18.94176564 44.49941505 -14.4375 44.5625 C-9.37358435 44.4951607 -6.87299017 43.2812068 -2.8125 40.1875 C-0.3125 39.5 -0.3125 39.5 2.1875 40.1875 C4.60199851 42.2482464 6.67321234 44.38663711 8.1875 47.1875 C8.10546875 49.2265625 8.10546875 49.2265625 7.1875 51.1875 C-0.94128208 58.62257857 -9.88928415 59.61821927 -20.47265625 59.4375 C-27.54279804 58.90827301 -33.63973509 56.04408123 -38.8125 51.1875 C-44.76635957 43.95896589 -47.44286689 34.92414349 -47.09375 25.62890625 C-46.06826049 16.72708755 -41.90740088 10.16865364 -35.5625 4 C-34.655 3.401875 -33.7475 2.80375 -32.8125 2.1875 C-32.16152344 1.74277344 -31.51054688 1.29804687 -30.83984375 0.83984375 C-21.22670445 -4.92162037 -9.93509541 -4.81701596 0 0 Z " fill="#FDF5DE" transform="translate(592.8125,1780.8125)"/>
<path d="M0 0 C3.98877783 1.85623409 6.54933924 4.32400886 9 8 C10.52041833 14.53779884 11.27063511 20.38102201 7.875 26.3125 C5.38713111 29.8596296 3.21901436 31.67638765 -1 33 C-4.7735402 33.51997601 -8.05330982 33.33024076 -11.6875 32.0625 C-15.95223911 28.25881376 -18.57515087 23.87070952 -19.41796875 18.17578125 C-19.61378074 11.34101053 -18.45937577 6.92050872 -14 1.625 C-9.39978626 -0.86678244 -5.11235825 -0.86303043 0 0 Z " fill="#FBBC36" transform="translate(515,1793)"/>
<path d="M0 0 C10.23 0 20.46 0 31 0 C31 0.33 31 0.66 31 1 C24.70354997 2.06280504 18.43733393 2.32111895 12.0625 2.5625 C10.46438477 2.62727539 10.46438477 2.62727539 8.83398438 2.69335938 C6.22276557 2.79874489 3.61146254 2.90087088 1 3 C0.67 2.01 0.34 1.02 0 0 Z " fill="#C69C53" transform="translate(633,858)"/>
<path d="M0 0 C0.33 0.66 0.66 1.32 1 2 C-2.15221101 6.41309542 -5.55463907 9.00793014 -10 12 C-10.66 11.67 -11.32 11.34 -12 11 C-11.30132812 10.37351562 -10.60265625 9.74703125 -9.8828125 9.1015625 C-8.97273438 8.28429687 -8.06265625 7.46703125 -7.125 6.625 C-5.76761719 5.40683594 -5.76761719 5.40683594 -4.3828125 4.1640625 C-2.89103817 2.80923795 -1.42494565 1.42494565 0 0 Z " fill="#E0AE5D" transform="translate(481,819)"/>
<path d="M0 0 C0.99 0.33 1.98 0.66 3 1 C0.36 3.64 -2.28 6.28 -5 9 C-5.66 8.67 -6.32 8.34 -7 8 C-4.69 5.36 -2.38 2.72 0 0 Z " fill="#DFD8C8" transform="translate(403,743)"/>
<path d="M0 0 C0 0.33 0 0.66 0 1 C-5.16044765 2.512545 -8.65998179 3.33500455 -14 2 C-14 1.67 -14 1.34 -14 1 C-9.32798795 -0.20568053 -4.78503708 -0.09382426 0 0 Z " fill="#6A4E1C" transform="translate(691,620)"/>
<path d="M0 0 C1.32 0.66 2.64 1.32 4 2 C4 2.33 4 2.66 4 3 C0.04 3 -3.92 3 -8 3 C-8 2.67 -8 2.34 -8 2 C-6.865625 1.855625 -5.73125 1.71125 -4.5625 1.5625 C-1.19222799 1.38828522 -1.19222799 1.38828522 0 0 Z " fill="#29231E" transform="translate(589,835)"/>
<path d="M0 0 C0.66 0.33 1.32 0.66 2 1 C-4.45 5.09326923 -4.45 5.09326923 -7.234375 4.62109375 C-7.81703125 4.41613281 -8.3996875 4.21117187 -9 4 C-7.54618103 3.30300448 -6.08677047 2.61766134 -4.625 1.9375 C-3.40683594 1.36322266 -3.40683594 1.36322266 -2.1640625 0.77734375 C-1.44992187 0.52082031 -0.73578125 0.26429688 0 0 Z " fill="#B8925A" transform="translate(525,763)"/>
</svg>
