<?xml version="1.0" encoding="UTF-8"?>
<svg version="1.1" xmlns="http://www.w3.org/2000/svg" width="1080" height="1920">
<path d="M0 0 C356.4 0 712.8 0 1080 0 C1080 633.6 1080 1267.2 1080 1920 C723.6 1920 367.2 1920 0 1920 C0 1286.4 0 652.8 0 0 Z " fill="#000000" transform="translate(0,0)"/>
<path d="M0 0 C0.76376953 0.62237549 0.76376953 0.62237549 1.54296875 1.25732422 C17.85702185 14.78616932 26.07974174 31.63178006 31 52 C34.19203638 52 35.54586331 51.4191338 38.375 50.0625 C49.11260752 44.91509021 63.22899711 45.83296887 74.4609375 49.06640625 C77.95309827 50.3504469 80.8957413 51.95401131 84 54 C85.77701002 52.22298998 85.64959463 49.40633596 86.0625 47 C88.70027243 34.40302823 94.39378739 22.60136353 103 13 C103.65355469 12.19433594 104.30710937 11.38867188 104.98046875 10.55859375 C113.57039443 0.31013962 124.73622715 -6.81390583 137 -12 C137.96164062 -12.41378906 138.92328125 -12.82757812 139.9140625 -13.25390625 C158.73671503 -19.95626515 181.45338073 -17.47259866 199.26245117 -9.21337891 C206.11612035 -5.88515541 212.35159431 -2.16000971 218 3 C218.83015625 3.75023437 219.6603125 4.50046875 220.515625 5.2734375 C226.48580684 10.93974781 230.98149734 16.83186012 235 24 C235.80244141 25.40378906 235.80244141 25.40378906 236.62109375 26.8359375 C247.37525803 46.84243762 248.20926209 69.12059128 241.93359375 90.66015625 C234.11156847 112.31916355 218.04521911 128.69483211 197.46484375 138.49609375 C186.05488949 143.44855417 175.93389141 145.16713766 163.5625 145.0625 C162.54478516 145.05798828 161.52707031 145.05347656 160.47851562 145.04882812 C157.98561491 145.03712437 155.49283926 145.02072848 153 145 C156.09541086 148.12810886 159.22539986 151.18477804 162.5 154.125 C163.2321875 154.78757812 163.964375 155.45015625 164.71875 156.1328125 C175.39519613 164.87141053 187.83581125 165.60835789 201 165 C199.56452695 176.41477123 195.05597573 182.90354198 187 191 C186.40574219 191.6290625 185.81148437 192.258125 185.19921875 192.90625 C170.73394373 207.01871343 150.54755102 210.30052518 131.25 210.4375 C129.4388269 210.45296875 129.4388269 210.45296875 127.59106445 210.46875 C104.55671001 210.24225993 84.63188448 201.57920454 68.37939453 185.43164062 C59 175.69699115 59 175.69699115 59 172 C56.00555842 174.87386004 53.47172499 177.90484968 50.9375 181.1875 C46.22240103 186.99606765 41.00292059 191.5630587 35 196 C34.35675781 196.48082031 33.71351563 196.96164062 33.05078125 197.45703125 C19.06068097 207.01642732 1.70260297 210.5741456 -14.9375 210.375 C-16.16879639 210.36484863 -17.40009277 210.35469727 -18.66870117 210.34423828 C-27.15171786 210.19915255 -34.90689956 209.7215736 -43 207 C-43.61085449 206.79600586 -44.22170898 206.59201172 -44.85107422 206.38183594 C-61.21634232 200.77298626 -74.58843128 191.12216515 -83.0390625 175.73828125 C-84.2166249 172.3827071 -84.16540348 169.5300585 -84 166 C-82.63681641 165.97873047 -82.63681641 165.97873047 -81.24609375 165.95703125 C-62.27961748 165.23727779 -49.25155973 158.52398534 -36 145 C-36.61294922 145.02094727 -37.22589844 145.04189453 -37.85742188 145.06347656 C-64.4807293 145.85002903 -86.66861862 140.2079451 -106.5625 121.47265625 C-109.78908853 118.19953039 -112.50432929 114.85360919 -115 111 C-115.50015625 110.23042969 -116.0003125 109.46085938 -116.515625 108.66796875 C-128.77100916 89.01602698 -132.53071534 67.12003296 -127.97021484 44.23852539 C-124.73528485 30.98807744 -117.10857164 18.09668099 -108 8 C-107.01 7.67 -106.02 7.34 -105 7 C-104.67 6.01 -104.34 5.02 -104 4 C-76.0850558 -21.2261142 -29.59237557 -24.13402581 0 0 Z " fill="#F3B737" transform="translate(482,715)"/>
<path d="M0 0 C16.20499566 12.40447551 23.15609059 33.00689623 27.55029297 52.09814453 C27.96274279 53.84243556 28.41872906 55.57628229 28.87890625 57.30859375 C33.348453 74.60379641 32.16273067 93.15694122 32.16796875 110.8828125 C32.17119126 113.47142555 32.17455604 116.06003843 32.17805481 118.64865112 C32.18401034 124.05288188 32.18594181 129.45709475 32.18530273 134.86132812 C32.18470363 141.04207494 32.19523734 147.22273404 32.2110464 153.40345871 C32.22588153 159.42568754 32.22928587 165.44787003 32.22869301 171.47011948 C32.22985824 173.9965844 32.23419599 176.52305027 32.24202538 179.04950333 C32.27635387 191.26979207 32.15392688 203.42093867 31.13793945 215.60498047 C31.02707268 216.96533259 31.02707268 216.96533259 30.91396618 218.35316658 C29.8315174 229.82229906 26.55715122 240.4692857 22 251 C21.40428432 252.80185608 20.83715868 254.61368648 20.3125 256.4375 C20.06113281 257.30246094 19.80976562 258.16742187 19.55078125 259.05859375 C19.36902344 259.69925781 19.18726563 260.33992188 19 261 C18.34 261 17.68 261 17 261 C16.85304688 261.70125 16.70609375 262.4025 16.5546875 263.125 C15.13643628 269.12403966 13.44963882 273.32640569 9.515625 278.0625 C7.98809228 280.01522223 6.96837858 281.90560466 5.875 284.125 C-0.12705157 295.28265997 -10.53183048 305.68565759 -20 314 C-20.66 314 -21.32 314 -22 314 C-22.33 314.99 -22.66 315.98 -23 317 C-26 319 -26 319 -29 319 C-29.185625 319.556875 -29.37125 320.11375 -29.5625 320.6875 C-34.45246924 328.55397225 -46.87679133 333.15216431 -55 337 C-55.66 337 -56.32 337 -57 337 C-57 337.66 -57 338.32 -57 339 C-63.26224107 341.91240256 -69.50603718 344.6487376 -76 347 C-76.76441406 347.32613281 -77.52882813 347.65226562 -78.31640625 347.98828125 C-82.4189628 349.53495104 -86.66066415 350.3081644 -90.94140625 351.21875 C-93.89318766 351.84806428 -93.89318766 351.84806428 -95.97265625 353.03125 C-98.87001195 354.41572825 -101.69710444 354.6172857 -104.875 355 C-108.35686868 355.42113315 -111.53205791 355.84274077 -114.859375 356.9609375 C-138.09219759 364.64741861 -165.92034448 361.29269923 -190 361 C-190 360.34 -190 359.68 -190 359 C-190.60005859 359.01087646 -191.20011719 359.02175293 -191.81835938 359.03295898 C-198.10639837 359.09678769 -204.24936893 358.72218487 -210.5 358.0625 C-211.39203125 357.97548828 -212.2840625 357.88847656 -213.203125 357.79882812 C-219.73928571 357.13035714 -219.73928571 357.13035714 -222 356 C-224.07980771 355.70330427 -226.16408998 355.43771566 -228.25 355.1875 C-236.9829591 353.98481087 -245.66126013 352.03670509 -253.75 348.4375 C-256.55753047 347.19570768 -259.1823801 346.33273554 -262.125 345.5 C-265.83452418 344.43372225 -268.72301012 343.05982221 -272 341 C-274.69254991 340.29329272 -274.69254991 340.29329272 -277 340 C-277 339.34 -277 338.68 -277 338 C-278.2065625 337.938125 -278.2065625 337.938125 -279.4375 337.875 C-283.62132536 336.84739377 -286.20110673 335.01917354 -289.6796875 332.5546875 C-291.8962878 331.06949067 -294.08212064 329.93044422 -296.5 328.8125 C-300 327 -300 327 -301 324 C-301.680625 323.731875 -302.36125 323.46375 -303.0625 323.1875 C-307.19494519 321.51693705 -310.71696319 319.01456417 -314 316 C-314.495 314.515 -314.495 314.515 -315 313 C-315.5775 312.71125 -316.155 312.4225 -316.75 312.125 C-319.77498657 310.61250671 -321.63592648 308.41267415 -324 306 C-325.18529297 304.88431641 -325.18529297 304.88431641 -326.39453125 303.74609375 C-331.86864385 298.51959852 -336.18797634 293.17277813 -340.2109375 286.76171875 C-341.98688473 284.02024562 -343.95449114 281.54294917 -346 279 C-347.0358679 277.01833966 -348.03112419 275.01526169 -349 273 C-349.82993658 271.56053622 -350.66355393 270.12319101 -351.5 268.6875 C-353.56290493 265.00374119 -354.96938563 261.43137306 -356.1953125 257.40234375 C-357.08275433 254.75294218 -358.21430548 252.29127216 -359.375 249.75 C-361.7790943 244.08216557 -363.31971187 238.34590205 -364.75 232.375 C-364.96060059 231.50456055 -365.17120117 230.63412109 -365.38818359 229.73730469 C-367.69090951 219.73808043 -368.14815724 209.91447941 -368.12939453 199.67578125 C-368.13114685 198.48403793 -368.13289917 197.29229462 -368.13470459 196.06443787 C-368.13832972 192.8221753 -368.13750977 189.57995414 -368.1343255 186.33769226 C-368.13177031 182.91751019 -368.13414859 179.49733063 -368.13571167 176.07714844 C-368.13752619 170.32763177 -368.135148 164.57812799 -368.13037109 158.82861328 C-368.12495062 152.22929563 -368.12667786 145.63000898 -368.1321975 139.0306921 C-368.13677411 133.32579507 -368.13735657 127.62090723 -368.13475883 121.91600895 C-368.13321815 118.52632708 -368.13293991 115.13665964 -368.13629532 111.74697876 C-368.15500083 84.18899525 -368.01026514 58.03460261 -358 32 C-357.34 32 -356.68 32 -356 32 C-355.8453125 30.9790625 -355.8453125 30.9790625 -355.6875 29.9375 C-354.85274981 26.37084011 -353.50527246 23.33777806 -352 20 C-351.34 20 -350.68 20 -350 20 C-349.7525 19.13375 -349.505 18.2675 -349.25 17.375 C-346.07201857 8.79445013 -339.07401896 0.95264948 -331.0625 -3.5 C-326.50094392 -5.48721255 -321.92581172 -5.82115056 -317 -6 C-316.13761719 -6.0515625 -315.27523437 -6.103125 -314.38671875 -6.15625 C-308.80861257 -6.35939802 -305.06055423 -5.57801819 -300 -3 C-298.2365625 -2.2884375 -298.2365625 -2.2884375 -296.4375 -1.5625 C-292.97550162 0.01113563 -290.13284717 1.85000684 -287 4 C-285.42094434 4.94468721 -283.83716222 5.88149689 -282.25 6.8125 C-277.96183581 9.36755771 -273.88868104 12.13086205 -269.8203125 15.01953125 C-263.96134753 19.13379059 -257.99131556 23.0817608 -252 27 C-251.1342334 27.56799316 -251.1342334 27.56799316 -250.25097656 28.14746094 C-243.73979503 32.38861985 -237.29960201 35.98801541 -230.046875 38.796875 C-227.61291127 39.75797863 -225.29155731 40.80058717 -222.92578125 41.91015625 C-217.26884416 44.44154405 -211.4042702 46.05437685 -205.4375 47.6875 C-204.35275391 47.99494141 -203.26800781 48.30238281 -202.15039062 48.61914062 C-175.79225412 55.93284335 -144.26397502 53.57949277 -118.84521484 43.70800781 C-116.23579371 42.70677451 -113.58392586 41.83545967 -110.9375 40.9375 C-106.63617491 39.36675416 -102.78038383 37.33655778 -98.875 34.953125 C-97 34 -97 34 -94 34 C-94 33.34 -94 32.68 -94 32 C-87.375 28 -87.375 28 -84 28 C-84 27.34 -84 26.68 -84 26 C-83.11957031 25.58363281 -82.23914063 25.16726563 -81.33203125 24.73828125 C-78.1893036 23.09875745 -75.51663832 21.31249723 -72.6875 19.1875 C-68.50620548 16.08708434 -64.26131561 13.15160389 -59.91015625 10.296875 C-57.86271463 8.94890793 -57.86271463 8.94890793 -55.5625 7 C-38.98218074 -5.94073698 -18.63827526 -12.3380132 0 0 Z M-326 89 C-326.92683594 89.69867187 -327.85367188 90.39734375 -328.80859375 91.1171875 C-329.53175781 91.73851562 -330.25492187 92.35984375 -331 93 C-331 93.66 -331 94.32 -331 95 C-331.56074219 95.20238281 -332.12148438 95.40476562 -332.69921875 95.61328125 C-335.87906247 97.52982543 -337.7171173 100.19972219 -339.8125 103.1875 C-340.24828369 103.80681396 -340.68406738 104.42612793 -341.13305664 105.06420898 C-354.4393431 124.54046317 -358.00620002 146.4448064 -354.37890625 169.7109375 C-351.85835316 182.3407572 -345.17299058 194.16390087 -337 204 C-336.278125 204.969375 -335.55625 205.93875 -334.8125 206.9375 C-322.64793859 221.14232013 -303.564729 230.873253 -285 233 C-281.04051012 233.11244361 -277.08564813 233.0942047 -273.125 233.0625 C-271.52011719 233.05573242 -271.52011719 233.05573242 -269.8828125 233.04882812 C-267.25515014 233.03709749 -264.62760462 233.02068228 -262 233 C-276.15198704 247.42585439 -289.87561889 253.68600256 -310 254 C-310.51360972 263.17649374 -306.26552916 269.10490958 -300.5078125 275.97265625 C-286.93902892 290.26904127 -268.31940738 297.64247944 -248.75390625 298.23828125 C-235.57539357 298.44159117 -223.49076099 298.50347165 -211 294 C-209.84242188 293.61070312 -208.68484375 293.22140625 -207.4921875 292.8203125 C-193.14534333 287.39611415 -178.28035112 276.65061978 -170.39453125 263.27734375 C-169 261 -169 261 -167 260 C-166.6596875 261.05767578 -166.6596875 261.05767578 -166.3125 262.13671875 C-164.73541276 265.57720966 -162.56326885 268.08638612 -160 270.8125 C-159.51015625 271.33730957 -159.0203125 271.86211914 -158.515625 272.40283203 C-143.55809396 288.12655104 -123.9667448 297.61721434 -102.1796875 298.3359375 C-78.46804113 298.63223244 -56.77993064 296.28220714 -38.96386719 279.14501953 C-32.38775925 272.52537638 -25.1736917 265.1520112 -24.93359375 255.265625 C-24.95550781 254.51796875 -24.97742188 253.7703125 -25 253 C-25.98097656 253.05800781 -26.96195313 253.11601563 -27.97265625 253.17578125 C-42.28227467 253.76017556 -54.14276357 250.93787367 -65 241 C-66.33240313 239.89471104 -67.66567607 238.79046938 -69 237.6875 C-70.86952462 236.1079248 -71.89901051 235.20197897 -73 233 C-72.07888428 233.01571045 -72.07888428 233.01571045 -71.13916016 233.03173828 C-68.30115003 233.07384209 -65.46320599 233.09949622 -62.625 233.125 C-61.17673828 233.15013672 -61.17673828 233.15013672 -59.69921875 233.17578125 C-48.13282225 233.25340807 -38.60984215 230.49079952 -28 226 C-26.71609375 225.46246094 -26.71609375 225.46246094 -25.40625 224.9140625 C-7.01961926 216.49680622 6.88500596 200.4129653 14.6875 182 C20.76720745 165.40828225 21.341677 149.0283955 17 132 C16.73316406 130.91460938 16.46632813 129.82921875 16.19140625 128.7109375 C12.22222643 114.21020057 4.53397918 103.40950084 -6 93 C-6.65613281 92.33355469 -7.31226563 91.66710937 -7.98828125 90.98046875 C-16.43675335 82.96617937 -27.8578552 77.1478507 -39 74 C-39.61593018 73.82557373 -40.23186035 73.65114746 -40.86645508 73.47143555 C-57.01527626 69.35644121 -75.74958949 70.31464562 -91 77 C-92.04671875 77.43441406 -93.0934375 77.86882812 -94.171875 78.31640625 C-112.22914997 86.5263849 -125.05546069 100.60899317 -134 118 C-134.42152344 118.79148437 -134.84304688 119.58296875 -135.27734375 120.3984375 C-138.48006347 126.90056282 -139.67045831 133.91918329 -141 141 C-143 141 -143 141 -146.5 139.125 C-158.10409635 133.29192483 -173.07607323 133.19219288 -185.375 136.875 C-188.6787936 138.00414465 -191.08189937 139.05459958 -194 141 C-195.59795857 137.26216649 -196.64224015 133.56522408 -197.625 129.625 C-203.0693805 110.38818889 -215.93549061 93.52917862 -232.75 82.6875 C-262.28006314 66.33457579 -299.44158051 67.66689556 -326 89 Z " fill="#191114" transform="translate(708,627)"/>
<path d="M0 0 C2.69278792 2.07417448 3.73382441 3.91028967 5.26953125 6.92578125 C7.49508551 10.87953114 10.33747895 13.71950305 13.5625 16.875 C14.10567871 17.4218042 14.64885742 17.9686084 15.20849609 18.53198242 C20.98610593 24.22800742 26.25108218 28.07990314 34.5625 28.4375 C45.19957892 28.27149517 51.69295356 21.81026364 58.79833984 14.62084961 C62.32549581 10.91519852 65.29277694 7.05305697 67.9140625 2.64453125 C69 1 69 1 71 0 C91.43456415 -1.06579472 108.40439617 2.5315699 124.1875 16.1875 C126.87435414 18.74832909 129.19737716 21.43870729 131.4921875 24.359375 C140.01800408 33.63617025 151.35901268 41.13325893 164.1640625 42.17626953 C168.78379102 42.33622964 173.38394005 42.21332241 178 42 C176.56452695 53.41477123 172.05597573 59.90354198 164 68 C163.40574219 68.6290625 162.81148437 69.258125 162.19921875 69.90625 C147.73394373 84.01871343 127.54755102 87.30052518 108.25 87.4375 C106.4388269 87.45296875 106.4388269 87.45296875 104.59106445 87.46875 C81.55671001 87.24225993 61.63188448 78.57920454 45.37939453 62.43164062 C36 52.69699115 36 52.69699115 36 49 C33.00555842 51.87386004 30.47172499 54.90484968 27.9375 58.1875 C23.22240103 63.99606765 18.00292059 68.5630587 12 73 C11.35675781 73.48082031 10.71351563 73.96164062 10.05078125 74.45703125 C-3.93931903 84.01642732 -21.29739703 87.5741456 -37.9375 87.375 C-39.16879639 87.36484863 -40.40009277 87.35469727 -41.66870117 87.34423828 C-50.15171786 87.19915255 -57.90689956 86.7215736 -66 84 C-66.61085449 83.79600586 -67.22170898 83.59201172 -67.85107422 83.38183594 C-84.21634232 77.77298626 -97.58843128 68.12216515 -106.0390625 52.73828125 C-107.2166249 49.3827071 -107.16540348 46.5300585 -107 43 C-105.63681641 42.97873047 -105.63681641 42.97873047 -104.24609375 42.95703125 C-83.44698308 42.16773167 -70.37757061 33.69983261 -56.15356445 19.03588867 C-51.26510771 14.072799 -46.13843576 10.32498604 -40 7 C-39.34 6.60554687 -38.68 6.21109375 -38 5.8046875 C-27.54373166 -0.07696344 -11.81824632 -2.84690549 0 0 Z " fill="#FBEFD5" transform="translate(505,838)"/>
<path d="M0 0 C10.09192268 8.76244784 17.71741344 18.53222414 18.90625 32.3359375 C19.54201578 45.66857026 16.07350292 57.56327047 7.421875 67.953125 C-0.75712088 76.7838337 -12.38023249 83.67422458 -24.62890625 84.25390625 C-26.04935105 84.27338022 -27.47009116 84.27686213 -28.890625 84.265625 C-29.63900635 84.25998535 -30.3873877 84.2543457 -31.15844727 84.24853516 C-44.48824363 83.95709465 -55.26420203 78.25301005 -64.46484375 68.66015625 C-71.82138931 59.23670694 -74.76268731 49.53623028 -74.828125 37.765625 C-74.84875 36.85748047 -74.869375 35.94933594 -74.890625 35.01367188 C-74.96235685 22.48749714 -69.90944491 12.2858024 -61.390625 3.203125 C-44.90731275 -12.44909587 -17.91678297 -14.22483982 0 0 Z " fill="#F7ECD3" transform="translate(674.578125,742.046875)"/>
<path d="M0 0 C9.91845064 7.2746531 17.28117681 17.28188287 19.35546875 29.5390625 C20.90927769 43.90232076 19.6003564 56.32271741 10.65234375 68.18359375 C3.19461422 76.92358113 -6.60123403 84.15596354 -18.32421875 85.5 C-33.78218684 86.41312892 -46.17342095 83.87255585 -58.46484375 73.734375 C-60.19770454 72.06178763 -61.77438297 70.34225763 -63.32421875 68.5 C-63.77152344 68.00371094 -64.21882813 67.50742187 -64.6796875 66.99609375 C-72.92265456 56.8762665 -74.55602442 44.12139841 -73.55908203 31.56103516 C-72.13680411 19.07988111 -64.85348505 8.71520808 -55.2421875 0.92578125 C-39.2614916 -10.95396214 -16.56095035 -10.68807552 0 0 Z " fill="#F8EDD4" transform="translate(460.32421875,740.5)"/>
<path d="M0 0 C12.05405639 10.10985374 21.43890736 25.17534881 23.35546875 41.0078125 C24.50419542 59.05607579 19.71687522 74.90871773 8.35546875 89.0078125 C-2.08436825 100.8243313 -15.72969864 109.15628295 -31.64453125 111.0078125 C-41.48830079 111.55352254 -50.22187121 111.11270048 -59.64453125 108.0078125 C-60.90136719 107.62496094 -60.90136719 107.62496094 -62.18359375 107.234375 C-76.5183661 102.27408869 -88.81520645 90.3491473 -95.58203125 76.9453125 C-100.21820367 67.36540832 -102.18923008 58.75224972 -102.08203125 48.1328125 C-102.07373291 47.07215576 -102.06543457 46.01149902 -102.05688477 44.91870117 C-101.8920954 37.29792596 -101.05286185 30.90611036 -97.64453125 24.0078125 C-97.19335938 22.97140625 -96.7421875 21.935 -96.27734375 20.8671875 C-89.06323996 5.72115866 -76.30934673 -5.06121426 -60.78515625 -11.10546875 C-38.99636202 -18.07128024 -18.00254122 -13.56173711 0 0 Z M-74.01953125 16.3828125 C-77.54163946 20.63239092 -80.31666904 25.00819935 -82.64453125 30.0078125 C-82.96421875 30.64589844 -83.28390625 31.28398438 -83.61328125 31.94140625 C-87.7770162 41.83027674 -86.88275868 54.49775135 -83.64453125 64.5078125 C-78.06220149 78.13248175 -67.6937085 86.86477877 -54.64453125 93.0078125 C-43.00307544 97.34869433 -28.83076853 95.98929893 -17.64453125 91.0078125 C-5.71719653 84.45880652 2.1782192 74.49496816 6.46875 61.68359375 C9.53742423 48.96279002 7.64871132 34.3890487 0.8671875 23.16796875 C-6.5914464 12.51002418 -15.57186794 5.09655032 -28.5078125 2.4140625 C-46.01432025 0.14671903 -61.67718797 3.16217513 -74.01953125 16.3828125 Z " fill="#1B1315" transform="translate(472.64453125,730.9921875)"/>
<path d="M0 0 C1.45792969 0.63421875 1.45792969 0.63421875 2.9453125 1.28125 C18.07417926 8.69482573 29.26896777 22.31838433 35 38 C40.25525744 55.28536483 38.24523916 71.89041588 30 88 C20.8149268 103.59166176 6.51996294 114.33679182 -11 119 C-28.74134115 122.10002183 -45.55992001 119.66057477 -60.55859375 109.21875 C-74.59220834 98.45323744 -85.20785102 83.62078605 -87.8125 65.75 C-88.77250571 46.54988572 -84.44530417 30.64793181 -71.75 15.9375 C-52.86830601 -4.32654762 -25.64176298 -11.34270927 0 0 Z M-56 21 C-56.71027344 21.58652344 -57.42054688 22.17304687 -58.15234375 22.77734375 C-66.51996062 30.37404774 -71.71799384 40.37310845 -72.2734375 51.625 C-72.66206499 66.22027217 -71.11715846 77.70875154 -61 89 C-60.48824219 89.60328125 -59.97648438 90.2065625 -59.44921875 90.828125 C-52.04725895 98.95438158 -41.88071795 103.7075063 -30.921875 104.3359375 C-15.99511141 104.65966323 -3.75477719 100.97869275 7.51171875 90.7109375 C12.9142827 85.08512711 16.31239471 79.29647059 19 72 C19.36222656 71.07574219 19.72445312 70.15148437 20.09765625 69.19921875 C23.31458073 57.79375923 21.72962866 45.06790169 16.0703125 34.72412109 C8.91838973 23.20339148 -2.07831813 14.6974102 -15.26171875 11.44140625 C-30.22307381 9.02966143 -44.24756156 11.15658709 -56 21 Z " fill="#1B1315" transform="translate(672,722)"/>
<path d="M0 0 C4.04632654 2.69755103 4.18807517 5.76927356 5.25 10.25 C8.6142763 23.24557059 14.08194996 33.85684409 23 44 C24.1667976 45.37488889 25.33347842 46.74987691 26.5 48.125 C27.325 49.07375 28.15 50.0225 29 51 C27.81921875 51.02578125 26.6384375 51.0515625 25.421875 51.078125 C23.86454677 51.13441397 22.30725653 51.19176114 20.75 51.25 C19.97269531 51.26417969 19.19539062 51.27835938 18.39453125 51.29296875 C13.65644718 51.48631622 13.65644718 51.48631622 9.6171875 53.8203125 C9.08351563 54.53960938 8.54984375 55.25890625 8 56 C7.33097656 56.88558594 7.33097656 56.88558594 6.6484375 57.7890625 C6.22820312 58.39492188 5.80796875 59.00078125 5.375 59.625 C-1.06623692 68.29963063 -9.84462143 78.77153158 -21.0859375 80.46484375 C-31.03355341 80.77186893 -36.29804342 77.06942723 -43.40234375 70.46875 C-44.25957031 69.6540625 -45.11679687 68.839375 -46 68 C-46.82628906 67.2265625 -47.65257812 66.453125 -48.50390625 65.65625 C-51.9514421 62.33934566 -54.71742234 59.66178801 -56.6796875 55.28515625 C-57.93354629 52.99287832 -58.4883565 52.16726086 -61.00146484 51.34570312 C-63.44129727 51.08559087 -65.79684728 51.02991907 -68.25 51.0625 C-69.09046875 51.04638672 -69.9309375 51.03027344 -70.796875 51.01367188 C-72.86428804 50.97843188 -74.93234026 50.98510945 -77 51 C-75.7315625 49.5459375 -75.7315625 49.5459375 -74.4375 48.0625 C-64.15612221 36.01514438 -55.00952058 23.86309257 -53.25 7.6875 C-52.60825143 3.44757144 -51.93927586 1.21922925 -48.5625 -1.5 C-46.38671875 -2.8203125 -46.38671875 -2.8203125 -44 -4 C-43.18144531 -4.40992188 -42.36289062 -4.81984375 -41.51953125 -5.2421875 C-26.65366075 -11.61013794 -13.38574677 -7.32108532 0 0 Z " fill="#160F10" transform="translate(564,787)"/>
<path d="M0 0 C1.31291016 -0.02513672 1.31291016 -0.02513672 2.65234375 -0.05078125 C5.0625 0.3125 5.0625 0.3125 6.87890625 1.70703125 C8.0625 3.3125 8.0625 3.3125 8.0625 5.3125 C8.805 4.673125 9.5475 4.03375 10.3125 3.375 C16.50320513 -1.26802885 24.65556924 -0.10961541 32.0625 0.3125 C38.81549534 1.58598874 44.6878004 7.06414548 48.64453125 12.4765625 C54.06353538 21.06576213 54.04272589 29.27326343 53.0625 39.3125 C52.00702701 43.23147596 50.51334589 46.09694004 48.0625 49.3125 C47.58941406 49.96347656 47.11632812 50.61445312 46.62890625 51.28515625 C41.08347251 57.79862082 32.60987343 60.70618354 24.3125 61.8125 C20.01801095 61.15180938 16.12115061 59.83056118 12.0625 58.3125 C10.5775 57.8175 10.5775 57.8175 9.0625 57.3125 C9.08868408 58.01858398 9.11486816 58.72466797 9.1418457 59.45214844 C9.24586357 62.65537208 9.31084149 65.8582406 9.375 69.0625 C9.41689453 70.17367188 9.45878906 71.28484375 9.50195312 72.4296875 C9.62545118 80.62995816 9.62545118 80.62995816 6.80078125 84.0546875 C2.74388722 85.9181966 0.50379594 85.74230283 -3.9375 85.3125 C-4.9275 84.6525 -5.9175 83.9925 -6.9375 83.3125 C-7.23457693 80.69110044 -7.33665823 78.30527488 -7.30981445 75.68164062 C-7.31346512 74.89452194 -7.31711578 74.10740326 -7.32087708 73.2964325 C-7.32900248 70.6869875 -7.3153563 68.07815963 -7.30078125 65.46875 C-7.30026288 63.6603597 -7.30077968 61.85196884 -7.30229187 60.0435791 C-7.30220206 56.25048428 -7.29175433 52.4576016 -7.27368164 48.66455078 C-7.25099413 43.79507793 -7.25044939 38.92591527 -7.25719929 34.05640411 C-7.26053595 30.32128121 -7.25391492 26.58622942 -7.24407005 22.85112 C-7.24021252 21.05531689 -7.23907212 19.25950589 -7.2406559 17.46369934 C-7.24102551 14.9567652 -7.22843588 12.45023327 -7.2121582 9.94335938 C-7.21463562 9.1962822 -7.21711304 8.44920502 -7.21966553 7.67948914 C-7.15676035 1.62936976 -6.07034854 0.02674162 0 0 Z " fill="#F6F1E0" transform="translate(487.9375,1646.6875)"/>
<path d="M0 0 C1.28197266 -0.01160156 1.28197266 -0.01160156 2.58984375 -0.0234375 C5.72614586 0.4819382 6.87042248 1.05018175 9.0625 3.375 C9.43981975 6.23583223 9.57284068 8.72680041 9.53125 11.5859375 C9.53829956 12.39108795 9.54534912 13.1962384 9.5526123 14.02578735 C9.58212039 17.46885573 9.56548728 20.91136052 9.55322266 24.35449219 C9.55083833 26.86948339 9.57178299 29.3835599 9.59375 31.8984375 C9.58243042 32.67254974 9.57111084 33.44666199 9.55944824 34.24423218 C9.59441641 37.99746511 9.92339093 40.1563181 11.95751953 43.35400391 C14.89167423 46.17109189 16.87725325 46.27973741 20.8046875 46.51953125 C24.10178022 46.30847168 26.35050796 45.20559463 29.0625 43.375 C30.68701197 40.12597606 30.24129702 36.54474887 30.2734375 32.97265625 C30.30150072 31.26105806 30.33016515 29.54946963 30.359375 27.83789062 C30.40068654 25.13419817 30.43756625 22.43068921 30.46386719 19.72680664 C30.49142562 17.12087169 30.53729025 14.51577127 30.5859375 11.91015625 C30.58919037 11.1007106 30.59244324 10.29126495 30.59579468 9.45729065 C30.72007657 3.79997147 30.72007657 3.79997147 32.44229126 1.6625824 C34.66804644 -0.10622869 36.1861552 -0.02538807 39 0 C40.28197266 -0.01160156 40.28197266 -0.01160156 41.58984375 -0.0234375 C44.61685289 0.46432701 45.85723181 1.25549542 48.0625 3.375 C48.57043457 5.77426147 48.57043457 5.77426147 48.58007812 8.64990234 C48.59268677 9.72887787 48.60529541 10.80785339 48.61828613 11.91952515 C48.61018921 13.08819122 48.60209229 14.2568573 48.59375 15.4609375 C48.5975769 16.66883942 48.60140381 17.87674133 48.60534668 19.12124634 C48.60807261 21.68516876 48.60066412 24.24911867 48.58398438 26.81298828 C48.56277179 30.70019403 48.58366833 34.5855118 48.609375 38.47265625 C48.60672822 40.96875403 48.60159602 43.46485065 48.59375 45.9609375 C48.60184692 47.10936127 48.60994385 48.25778503 48.61828613 49.44100952 C48.50056799 59.80895019 46.88970066 71.05859746 39.19921875 78.65234375 C31.51862325 84.84456059 24.61342291 86.90652552 14.875 87 C14.04395752 87.01095703 13.21291504 87.02191406 12.35668945 87.03320312 C5.59574059 86.87767113 -1.0322042 85.2802958 -5.9375 80.375 C-5.61380058 73.57731214 -5.61380058 73.57731214 -3.8125 70.375 C-0.26562015 68.48333075 3.58794582 69.06147353 7.4140625 69.875 C10.33640826 70.42671129 13.08945063 70.57949414 16.0625 70.625 C17.073125 70.65078125 18.08375 70.6765625 19.125 70.703125 C22.60553624 70.3143417 24.34339146 69.57930314 27.0625 67.375 C28.50879043 64.68967169 28.50879043 64.68967169 29.375 61.6875 C29.70113281 60.69363281 30.02726562 59.69976563 30.36328125 58.67578125 C30.59402344 57.91652344 30.82476562 57.15726563 31.0625 56.375 C30.53140625 56.65214844 30.0003125 56.92929688 29.453125 57.21484375 C28.39351563 57.75818359 28.39351563 57.75818359 27.3125 58.3125 C26.61640625 58.67214844 25.9203125 59.03179688 25.203125 59.40234375 C19.60901074 61.94419494 13.62811468 62.29572616 7.6875 60.76171875 C0.10690812 57.85497152 -3.2877375 52.98483746 -6.578125 45.78515625 C-8.81266374 38.77683021 -8.3834965 31.33109372 -8.32861328 24.05273438 C-8.31240625 21.48514746 -8.32858308 18.91910407 -8.34765625 16.3515625 C-8.34567601 14.71614237 -8.34183688 13.08072319 -8.3359375 11.4453125 C-8.34201019 10.67970001 -8.34808289 9.91408752 -8.3543396 9.12527466 C-8.28453497 3.8732751 -8.28453497 3.8732751 -6.55883789 1.39550781 C-4.30806871 -0.0211787 -2.64423613 -0.02385777 0 0 Z " fill="#F4EEDD" transform="translate(422.9375,1646.625)"/>
<path d="M0 0 C1.06347656 0.00386719 2.12695312 0.00773437 3.22265625 0.01171875 C5.9375 0.3125 5.9375 0.3125 7.9375 2.3125 C8.18265697 4.81625468 8.31083658 7.21799479 8.3515625 9.7265625 C8.37092865 10.45620209 8.3902948 11.18584167 8.4102478 11.93759155 C8.47008422 14.27077502 8.51644423 16.60400773 8.5625 18.9375 C8.60067614 20.51825082 8.63972765 22.09898076 8.6796875 23.6796875 C8.77578878 27.5571223 8.85980412 31.43465449 8.9375 35.3125 C9.66912354 34.38131348 10.40074707 33.45012695 11.15454102 32.49072266 C12.55852579 30.70382128 13.96261582 28.91700311 15.36694336 27.13037109 C17.89451234 23.91457882 20.42009792 20.69726633 22.94140625 17.4765625 C23.42311279 16.86184082 23.90481934 16.24711914 24.40112305 15.61376953 C25.31608375 14.44605114 26.23035235 13.27778999 27.14379883 12.10888672 C35.39605903 1.58322048 35.39605903 1.58322048 37.9375 0.3125 C39.8125 0.14453125 39.8125 0.14453125 41.9375 0.125 C42.989375 0.10373047 42.989375 0.10373047 44.0625 0.08203125 C45.9375 0.3125 45.9375 0.3125 47.9375 2.3125 C48.94374144 5.28977616 49.07349806 8.07393421 49.09863281 11.20117188 C49.10824036 12.16897583 49.1178479 13.13677979 49.12774658 14.13391113 C49.13199646 15.17253296 49.13624634 16.21115479 49.140625 17.28125 C49.14632507 18.35370972 49.15202515 19.42616943 49.15789795 20.53112793 C49.16733712 22.79727189 49.17387763 25.06342951 49.17773438 27.32958984 C49.18746326 30.79939531 49.21850678 34.26861417 49.25 37.73828125 C49.256528 39.94010065 49.26177927 42.14192428 49.265625 44.34375 C49.2779718 45.38237183 49.2903186 46.42099365 49.30303955 47.49108887 C49.30003845 48.45889282 49.29703735 49.42669678 49.29394531 50.42382812 C49.29941376 51.69812683 49.29941376 51.69812683 49.30499268 52.99816895 C48.85146812 55.85429652 47.91711869 57.22950524 45.9375 59.3125 C43.34375 59.80859375 43.34375 59.80859375 40.4375 59.75 C39.4784375 59.74871094 38.519375 59.74742188 37.53125 59.74609375 C34.44846749 59.23074908 33.75502594 58.81706435 31.9375 56.3125 C31.50512695 53.30981445 31.50512695 53.30981445 31.42578125 49.67578125 C31.39033203 48.37705078 31.35488281 47.07832031 31.31835938 45.74023438 C31.2952595 44.36849483 31.2724771 42.9967499 31.25 41.625 C31.21682458 40.24150393 31.18233469 38.85803871 31.14648438 37.47460938 C31.06386759 34.08732117 30.99475942 30.70029643 30.9375 27.3125 C29.24970682 29.45810326 27.56228045 31.60399359 25.875 33.75 C25.11944824 34.710271 25.11944824 34.710271 24.34863281 35.68994141 C21.60893531 39.17467516 18.88754017 42.67188706 16.1875 46.1875 C7.29010337 57.63619832 7.29010337 57.63619832 3.9375 59.3125 C-1.20113603 59.5652198 -4.29778945 59.29857501 -9.0625 57.3125 C-9.13843591 49.6770666 -9.19105169 42.04173023 -9.22729492 34.40600586 C-9.24240063 31.80733603 -9.26288634 29.20869177 -9.28881836 26.61010742 C-9.32512243 22.87933042 -9.34220858 19.14888987 -9.35546875 15.41796875 C-9.37095261 14.25226852 -9.38643646 13.0865683 -9.40238953 11.88554382 C-9.40261612 10.80464981 -9.40284271 9.7237558 -9.40307617 8.61010742 C-9.40973801 7.65746506 -9.41639984 6.70482269 -9.42326355 5.72331238 C-9.0625 3.3125 -9.0625 3.3125 -7.7191925 1.50410461 C-5.19885258 -0.30869328 -3.05686537 -0.04828584 0 0 Z " fill="#F5F0DF" transform="translate(617.0625,1646.6875)"/>
<path d="M0 0 C0.95648438 -0.01675781 1.91296875 -0.03351563 2.8984375 -0.05078125 C6.21400145 0.39097727 7.4620361 0.73089792 9.625 3.3125 C10.2558062 6.20094854 10.32177941 9.05109525 10.375 12 C10.40464844 12.79728516 10.43429687 13.59457031 10.46484375 14.41601562 C10.53544082 16.38096749 10.58249708 18.34673977 10.625 20.3125 C15.92264094 14.5138749 21.20108523 8.70713114 26.34765625 2.7734375 C27.08332299 1.93203273 27.83469387 1.10280613 28.625 0.3125 C31.15549402 0.23936433 33.65804837 0.22002473 36.1875 0.25 C37.25387695 0.25676758 37.25387695 0.25676758 38.34179688 0.26367188 C40.10290013 0.27549136 41.86396036 0.29342737 43.625 0.3125 C43.11759463 4.8545965 41.43855995 7.18339843 38.5 10.625 C37.695625 11.58148437 36.89125 12.53796875 36.0625 13.5234375 C34.54568881 15.25901953 33.00743515 16.97638221 31.4375 18.6640625 C30.798125 19.35242187 30.15875 20.04078125 29.5 20.75 C28.91992188 21.34683594 28.33984375 21.94367188 27.7421875 22.55859375 C26.40466552 24.23741366 26.40466552 24.23741366 26.89819336 26.19873047 C27.68629819 28.49077335 28.65423861 29.97569497 30.13671875 31.88671875 C30.64501221 32.55018311 31.15330566 33.21364746 31.67700195 33.8972168 C32.21671631 34.59113525 32.75643066 35.28505371 33.3125 36 C34.40498114 37.43648544 35.49613863 38.87397857 36.5859375 40.3125 C37.11026367 41.00214844 37.63458984 41.69179687 38.17480469 42.40234375 C39.95694002 44.74972201 41.72666045 47.09995968 43.4375 49.5 C43.89769531 50.13292969 44.35789062 50.76585937 44.83203125 51.41796875 C45.91181989 53.99775935 45.36761546 55.67462055 44.625 58.3125 C39.24494114 60.10585295 35.14263562 61.25506208 29.625 59.3125 C24.91151493 54.84981692 21.57301809 49.12436831 18.14550781 43.66015625 C15.82172043 40.07224048 13.24196115 36.68997545 10.625 33.3125 C10.61883667 34.32618652 10.61883667 34.32618652 10.61254883 35.36035156 C10.57961055 38.428618 10.5089674 41.49489926 10.4375 44.5625 C10.43169922 45.62597656 10.42589844 46.68945312 10.41992188 47.78515625 C10.1976843 55.63755065 10.1976843 55.63755065 7.328125 59.01953125 C3.25053975 60.96993691 1.12861337 60.81290149 -3.375 60.3125 C-5.59072876 59.12001038 -5.59072876 59.12001038 -7.375 57.3125 C-7.86947632 54.87718201 -7.86947632 54.87718201 -7.86083984 51.95483398 C-7.8669931 50.8603746 -7.87314636 49.76591522 -7.87948608 48.63829041 C-7.86511505 47.45699051 -7.85074402 46.27569061 -7.8359375 45.05859375 C-7.83456284 43.24090233 -7.83456284 43.24090233 -7.8331604 41.38648987 C-7.82711476 38.82345668 -7.81134019 36.26043088 -7.78662109 33.69750977 C-7.75011382 29.76226947 -7.74560161 25.82797004 -7.74609375 21.89257812 C-7.73626321 19.40624182 -7.72460649 16.91991192 -7.7109375 14.43359375 C-7.70871185 13.25026962 -7.70648621 12.0669455 -7.70419312 10.84776306 C-7.69143341 9.75645584 -7.67867371 8.66514862 -7.66552734 7.54077148 C-7.65790375 6.57719223 -7.65028015 5.61361298 -7.64242554 4.62083435 C-7.08475009 -0.1928473 -4.13448627 0.01662662 0 0 Z " fill="#F4EFDE" transform="translate(366.375,1646.6875)"/>
<path d="M0 0 C2.9375 1 2.9375 1 5 2 C4.46962155 6.26575813 3.1162403 8.53677076 0.375 11.8125 C-0.69427734 13.10994141 -0.69427734 13.10994141 -1.78515625 14.43359375 C-4.38391565 17.44485464 -7.07482159 20.3592257 -9.84765625 23.2109375 C-11.21177401 24.90613308 -11.21177401 24.90613308 -10.76293945 26.82495117 C-9.84615417 29.438596 -8.55816678 31.33744121 -6.9453125 33.58984375 C-6.33042969 34.45673828 -5.71554687 35.32363281 -5.08203125 36.21679688 C-4.43621094 37.11462891 -3.79039062 38.01246094 -3.125 38.9375 C-1.85528274 40.7163867 -0.5870066 42.49630308 0.6796875 44.27734375 C1.24413574 45.06359131 1.80858398 45.84983887 2.39013672 46.65991211 C7.0611481 53.44966706 7.0611481 53.44966706 6.6875 56.8125 C6.460625 57.534375 6.23375 58.25625 6 59 C1.2630088 60.57899707 -3.07993029 61.00906663 -8 60 C-11.15681225 57.60082269 -12.90515986 54.32514308 -15 51 C-16.02259792 49.55633234 -17.05466615 48.1193476 -18.09375 46.6875 C-22.59162912 40.47087088 -22.59162912 40.47087088 -24.62109375 37.59765625 C-25.0792749 36.95320557 -25.53745605 36.30875488 -26.00952148 35.64477539 C-27 34 -27 34 -27 32 C-27.66 32 -28.32 32 -29 32 C-28.9685791 33.10456543 -28.9685791 33.10456543 -28.93652344 34.23144531 C-28.85332856 37.57082442 -28.80132843 40.90998549 -28.75 44.25 C-28.69972656 45.98830078 -28.69972656 45.98830078 -28.6484375 47.76171875 C-28.63554688 48.87675781 -28.62265625 49.99179688 -28.609375 51.140625 C-28.58842773 52.16704102 -28.56748047 53.19345703 -28.54589844 54.25097656 C-29.11830158 57.71616977 -30.26977983 58.86338759 -33 61 C-35.47265625 61.53125 -35.47265625 61.53125 -38.0625 61.5 C-38.91972656 61.5103125 -39.77695312 61.520625 -40.66015625 61.53125 C-43 61 -43 61 -44.62197876 59.29627991 C-46.2731415 56.54484784 -46.37993301 54.92098534 -46.38818359 51.72827148 C-46.39764008 50.67715683 -46.40709656 49.62604218 -46.4168396 48.54307556 C-46.41076691 47.41382156 -46.40469421 46.28456757 -46.3984375 45.12109375 C-46.40130768 43.95747818 -46.40417786 42.79386261 -46.40713501 41.59498596 C-46.40917578 39.13631707 -46.40364506 36.67763194 -46.39111328 34.21899414 C-46.37504629 30.44836286 -46.39096996 26.67880122 -46.41015625 22.90820312 C-46.40817411 20.52083096 -46.40433103 18.13345946 -46.3984375 15.74609375 C-46.40451019 14.61481552 -46.41058289 13.48353729 -46.4168396 12.31797791 C-46.40738312 11.27001541 -46.39792664 10.22205292 -46.38818359 9.14233398 C-46.38579681 8.21952133 -46.38341003 7.29670868 -46.38095093 6.34593201 C-45.92731547 3.55240176 -45.25865666 2.65968275 -43 1 C-40.40625 0.6015625 -40.40625 0.6015625 -37.5 0.625 C-36.5409375 0.61726563 -35.581875 0.60953125 -34.59375 0.6015625 C-31.55387133 1.06853181 -30.85881688 1.61582894 -29 4 C-28.65942383 5.99291992 -28.65942383 5.99291992 -28.70703125 8.23046875 C-28.71669922 9.03291016 -28.72636719 9.83535156 -28.73632812 10.66210938 C-28.76146484 11.49548828 -28.78660156 12.32886719 -28.8125 13.1875 C-28.83280273 14.4549707 -28.83280273 14.4549707 -28.85351562 15.74804688 C-28.88884201 17.83230384 -28.94264861 19.91623277 -29 22 C-25.29064059 19.22610075 -22.51733114 16.34506968 -19.6875 12.6875 C-8.29366313 -1.40835789 -8.29366313 -1.40835789 0 0 Z " fill="#F4EFDE" transform="translate(722,1646)"/>
<path d="M0 0 C6.65541695 2.54287157 10.52433401 7.15407274 13.75 13.375 C17.07033719 23.02587019 15.69203216 34.65107737 12 44 C8.99017231 49.70829389 5.14217835 52.95260722 -1 55 C-7.54751841 55.74043019 -12.82390061 55.55212482 -18.27734375 51.6328125 C-22.28484826 47.83431616 -25.74388395 42.58562476 -26.14526367 36.96630859 C-26.1700523 34.43573644 -26.1856635 31.90570291 -26.1875 29.375 C-26.20586914 28.07755859 -26.20586914 28.07755859 -26.22460938 26.75390625 C-26.25890414 11.50416745 -26.25890414 11.50416745 -21.1875 6.125 C-20.70667969 5.59132813 -20.22585938 5.05765625 -19.73046875 4.5078125 C-13.63027328 -0.80748197 -7.83092861 -1.01196783 0 0 Z " fill="#150E0F" transform="translate(456,756)"/>
<path d="M0 0 C5.10059435 1.94881199 9.21681383 5.28999264 12 10 C15.8494411 20.13243692 15.33974093 33.78883806 12 44 C9.34900095 49.4039596 5.60775522 52.86414509 0 55 C-5.47522918 55.83619038 -10.92015579 55.97131131 -15.9375 53.375 C-22.22413538 48.49965011 -25.16289833 43.9204866 -26.2824707 36.00219727 C-28.26146577 15.8796223 -28.26146577 15.8796223 -23.48046875 8.7265625 C-16.7165724 0.56273117 -10.51236225 -1.3584816 0 0 Z " fill="#150E0F" transform="translate(636,756)"/>
<path d="M0 0 C1.15801965 0.94357157 2.30857587 1.89680416 3.4375 2.875 C2.85354794 6.38649841 1.60470355 8.16531758 -0.875 10.6875 C-1.46925781 11.31269531 -2.06351563 11.93789062 -2.67578125 12.58203125 C-4.5625 13.875 -4.5625 13.875 -6.48046875 13.76171875 C-8.5625 12.875 -8.5625 12.875 -10.91015625 11.3515625 C-15.79320108 8.63316641 -21.16161782 8.89918189 -26.5625 9.875 C-29.96723532 12.25645421 -31.73390755 15.2178151 -33.5625 18.875 C-34.0539074 24.70744197 -34.39325678 30.05372553 -31.9375 35.4375 C-28.27211009 39.19934753 -25.48226347 41.5905906 -20.1875 42.375 C-15.70083057 41.75614904 -12.50870501 39.98634536 -8.5625 37.875 C-6 36.6875 -6 36.6875 -3.5625 36.875 C-0.79979436 38.8687051 1.59001908 41.00050329 3.4375 43.875 C3.36073607 46.66591709 2.51008278 47.78540826 0.75390625 49.953125 C-5.73180037 55.33418344 -14.61405688 57.68628756 -22.9375 57.2265625 C-32.88534061 55.89426242 -39.21225863 52.03189731 -46.375 45.1875 C-51.9414417 36.75831685 -52.78573676 26.52469542 -50.9375 16.75 C-48.71479043 9.07856488 -42.20167316 2.08575076 -35.5625 -2.125 C-24.29513816 -6.51366856 -10.06757681 -7.5020256 0 0 Z " fill="#F3EEDD" transform="translate(597.5625,1651.125)"/>
<path d="M0 0 C4.30342877 2.58759222 7.2336167 5.85042506 10 10 C10.66660924 15.80570138 10.8190629 21.20436211 8.375 26.5625 C4.36455751 30.67848045 1.29231879 33.21381091 -4.5625 33.4375 C-8.4464746 33.24819704 -10.93623905 32.52309726 -14 30 C-18.67411897 24.63341896 -19.49347218 20.06543677 -19.390625 13.0546875 C-18.81480801 8.55179864 -17.0366868 5.33607846 -14 2 C-9.5074222 -0.99505187 -5.25594587 -0.95953235 0 0 Z " fill="#050504" transform="translate(515,1660)"/>
<path d="M0 0 C10.23 0 20.46 0 31 0 C31 0.33 31 0.66 31 1 C24.70354997 2.06280504 18.43733393 2.32111895 12.0625 2.5625 C10.46438477 2.62727539 10.46438477 2.62727539 8.83398438 2.69335938 C6.22276557 2.79874489 3.61146254 2.90087088 1 3 C0.67 2.01 0.34 1.02 0 0 Z " fill="#C49B53" transform="translate(633,858)"/>
<path d="M0 0 C0.33 0.66 0.66 1.32 1 2 C-2.15221101 6.41309542 -5.55463907 9.00793014 -10 12 C-10.66 11.67 -11.32 11.34 -12 11 C-11.30132812 10.37351562 -10.60265625 9.74703125 -9.8828125 9.1015625 C-8.97273438 8.28429687 -8.06265625 7.46703125 -7.125 6.625 C-5.76761719 5.40683594 -5.76761719 5.40683594 -4.3828125 4.1640625 C-2.89103817 2.80923795 -1.42494565 1.42494565 0 0 Z " fill="#DFAD5D" transform="translate(481,819)"/>
<path d="M0 0 C0.98484375 0.02707031 1.9696875 0.05414062 2.984375 0.08203125 C3.73203125 0.11683594 4.4796875 0.15164063 5.25 0.1875 C5.25 0.5175 5.25 0.8475 5.25 1.1875 C4.60933594 1.19007812 3.96867188 1.19265625 3.30859375 1.1953125 C-3.55294377 1.50208765 -7.09770866 3.1500852 -11.75 8.1875 C-9.65399555 1.72481961 -6.76383093 -0.24156539 0 0 Z " fill="#42413C" transform="translate(509.75,1659.8125)"/>
<path d="M0 0 C0.66 0 1.32 0 2 0 C0.44499019 3.81684226 -2.03595495 6.19195732 -5 9 C-5.66 8.67 -6.32 8.34 -7 8 C-5.88200014 6.66079162 -4.75538103 5.32877444 -3.625 4 C-2.68527344 2.88625 -2.68527344 2.88625 -1.7265625 1.75 C-1.15679687 1.1725 -0.58703125 0.595 0 0 Z " fill="#DCD5C7" transform="translate(403,743)"/>
<path d="M0 0 C0.66 0 1.32 0 2 0 C1.125 3.875 1.125 3.875 0 5 C-1.85287502 5.07226502 -3.70833878 5.0838122 -5.5625 5.0625 C-6.57441406 5.05347656 -7.58632813 5.04445313 -8.62890625 5.03515625 C-9.41136719 5.02355469 -10.19382812 5.01195312 -11 5 C-11 4.67 -11 4.34 -11 4 C-10.37351562 3.96261719 -9.74703125 3.92523437 -9.1015625 3.88671875 C-8.28429687 3.82097656 -7.46703125 3.75523438 -6.625 3.6875 C-5.81289063 3.62949219 -5.00078125 3.57148437 -4.1640625 3.51171875 C-1.62078662 3.17009472 -1.62078662 3.17009472 0 0 Z " fill="#D3CFC1" transform="translate(663,1701)"/>
<path d="M0 0 C0.66 0.33 1.32 0.66 2 1 C-0.31 3.64 -2.62 6.28 -5 9 C-5.66 8.67 -6.32 8.34 -7 8 C-4.69 5.36 -2.38 2.72 0 0 Z " fill="#DCD7C9" transform="translate(387,1656)"/>
<path d="M0 0 C1.32 0.66 2.64 1.32 4 2 C4 2.33 4 2.66 4 3 C0.04 3 -3.92 3 -8 3 C-8 2.67 -8 2.34 -8 2 C-6.865625 1.855625 -5.73125 1.71125 -4.5625 1.5625 C-1.19222799 1.38828522 -1.19222799 1.38828522 0 0 Z " fill="#28221E" transform="translate(589,835)"/>
<path d="M0 0 C0.66 0.33 1.32 0.66 2 1 C-4.45 5.09326923 -4.45 5.09326923 -7.234375 4.62109375 C-7.81703125 4.41613281 -8.3996875 4.21117187 -9 4 C-7.54618103 3.30300448 -6.08677047 2.61766134 -4.625 1.9375 C-3.40683594 1.36322266 -3.40683594 1.36322266 -2.1640625 0.77734375 C-1.44992187 0.52082031 -0.73578125 0.26429688 0 0 Z " fill="#B7915A" transform="translate(525,763)"/>
<path d="M0 0 C0.66 0.33 1.32 0.66 2 1 C0.02 3.31 -1.96 5.62 -4 8 C-4.66 7.67 -5.32 7.34 -6 7 C-4.02 4.69 -2.04 2.38 0 0 Z " fill="#D6D2C3" transform="translate(653,1648)"/>
</svg>
