<svg width="400" height="370" viewBox="0 0 400 370" fill="none" xmlns="http://www.w3.org/2000/svg">
<rect width="400" height="370" fill="#1E1E1E"/>
<path d="M228.081 178.504C227.569 176.188 224.998 173.098 221.768 170.895C215.46 166.591 203.823 170.751 202.019 172.296C197.816 175.895 197.875 195.156 199.416 206.622C199.99 210.892 207.897 213.852 215.782 215.548C223.173 217.138 230.381 214.657 234.377 212.725C237.253 211.335 238.916 208.98 240.333 206.022C243.921 198.531 241.51 190.664 238.939 184.727C236.592 179.309 230.946 175.422 225.157 172.715C218.518 169.611 209.539 169.985 201.163 170.24C194.534 170.442 186.312 173.067 176.135 176.541C166.806 179.725 161.745 184.173 159.425 186.489C157.05 188.86 156.827 192.174 157.082 194.749C157.653 200.495 165.827 204.558 174.733 208.566C179.559 210.737 190.564 211.544 204.873 211.552C215.043 211.557 220.32 206.657 223.155 204.082C228.208 199.491 229.366 191.965 229.502 185.626C229.56 182.892 228.344 180.324 227.058 177.877C225.74 175.368 221.652 173.609 215.991 172.06C209.524 170.291 203.575 172.045 198.688 173.842C191.9 176.338 185.259 182.601 179.841 188.53C176.303 192.402 175.934 196.558 175.546 200.291C175.135 204.26 176.437 208.175 179.136 211.78C182.353 216.077 188.295 218.507 194.982 220.826C203.408 223.749 213.83 223.425 222.469 223.041C227.904 222.8 230.907 220.079 233.099 217.891C238.406 212.593 235.578 199.973 231.206 190.296C226.941 180.857 219.577 176.188 216.231 174.643C208.589 171.114 200.493 171.534 190.177 173.969C174.791 177.602 169.761 189.053 167.159 196.29C165.936 199.692 167.407 203.272 168.948 206.49C172.854 214.647 185.932 217.724 200.524 220.063C210.545 221.67 220.808 218.793 227.902 215.831C232.186 214.042 233.239 210.529 234.141 207.699C235.175 204.455 234.795 200.98 234.025 197.762C232.249 190.346 220.924 182.686 210.178 178.512C198.424 173.946 189.913 179.263 178.04 185.962C173.398 188.582 171.294 192.174 169.618 194.877C167.986 197.507 168.444 200.693 168.828 203.396C169.748 209.888 178.993 212.566 187.772 214.77C199.789 217.786 216.153 213.372 222.899 209.372C225.391 207.894 225.238 204.589 225.498 202.401C225.787 199.962 224.216 197.619 222.287 195.558C217.367 190.302 209.012 189.099 193.038 188.569C184.6 188.288 179.558 192.693 177.367 194.753C175.541 196.469 175.159 199.144 174.772 201.72C174.578 203.009 174.64 204.295 175.918 206.103C182.465 215.369 198.805 217.213 210.879 217.748C215.195 217.939 219.027 215.176 221.865 212.601C224.003 210.661 223.434 207.431 223.05 204.856C222.185 199.046 213.659 195.822 206.55 192.712C199.045 189.43 189.123 193.204 184.724 196.434C182.45 198.104 181.355 200.438 180.968 202.498C180.775 203.526 180.836 204.558 181.603 205.724C185.393 211.485 198.82 211.033 209.206 210.007C212.779 209.654 215.162 206.913 216.839 204.98C218.089 203.539 218.012 201.491 217.501 199.431C216.882 196.938 213.892 195.551 211.065 194.133C202.171 189.674 193.507 193.467 190.281 195.527C188.164 196.879 188.581 199.919 188.965 202.111C189.628 205.906 196.047 206.123 207.897 206.002C210.543 205.976 211.537 204.852 212.064 203.307C212.591 201.762 212.591 199.462 211.824 197.766C210.357 194.521 206.921 193.738 204.35 193.351C200.794 192.816 197.883 193.475 196.082 194.501C194.962 195.14 193.77 196.55 193.112 198.103C192.454 199.655 192.454 201.445 192.837 202.75C194.458 208.267 204.815 209.221 214.748 209.356C218.265 209.404 220.328 208.454 221.873 207.683C222.708 207.267 223.418 206.401 223.813 204.856C224.208 203.311 224.208 201.011 223.825 199.443C223.207 196.914 220.607 195.295 217.137 193.235C206.692 187.033 196.094 190.633 191.95 192.565C191.03 192.994 190.657 193.978 190.394 195.012C190.13 196.046 190.13 197.324 190.514 198.366C191.999 202.403 198.882 202.761 210.74 202.905C213.133 202.933 213.613 201.754 213.748 200.976C213.884 200.198 213.628 199.431 212.986 198.78C212.343 198.13 211.32 197.619 210.027 197.355C208.734 197.092 207.2 197.092 205.62 197.092" stroke="#09026B" stroke-width="200" stroke-linecap="round"/>
<path d="M105.6 258.451C104.578 257.94 102.773 257.421 100.454 257.161C99.4184 257.046 98.6452 257.413 97.739 258.951C93.1093 266.805 93.9827 283.359 94.6255 293.16C94.6857 294.078 94.7572 294.837 94.885 294.337C96.2353 289.059 92.9758 274.576 90.118 265.565C89.523 263.689 88.0501 262.076 87.2756 261.421C83.4188 258.162 86.2377 270.564 85.5949 274.057C85.245 275.958 84.9521 278.572 84.1776 281.663C83.7937 283.194 83.9142 284.753 83.9142 281.709C83.9142 278.665 83.9142 270.998 83.9142 269.476C83.9142 260.368 83.1397 281.415 83.012 282.712C82.505 287.859 81.8541 270.347 80.6923 268.388C77.3922 262.822 78.7561 279.858 78.4928 289.934C78.4614 291.134 78.4928 281.066 78.4928 278.522C78.4928 273.797 80.0418 288.378 81.7108 294.57C82.1504 296.201 83.1243 297.408 83.9026 298.322C84.681 299.236 85.4477 299.747 86.2261 299.499C90.2582 298.215 89.3357 291.266 89.3357 287.39C89.3357 286.106 88.5612 295.573 88.689 303.194C88.7269 305.451 89.0724 304.425 88.9485 303.132C88.6721 300.247 87.02 297.958 85.6026 297.18C80.447 294.348 84.9366 314.695 87.0045 318.85C87.4213 319.688 88.0346 320.395 88.5535 320.279C89.0724 320.163 89.5836 319.141 89.8469 318.23C91.1087 313.87 86.7644 307.523 83.283 304.413C82.5003 303.714 81.6062 303.635 80.9557 304.015C79.383 304.932 79.2673 307.748 79.5229 310.067C79.738 312.02 81.583 314.199 83.1281 316.778C84.2554 318.66 86.23 319.117 87.6473 319.121C88.3449 319.123 88.8091 318.103 89.0724 316.813C90.5719 309.47 86.5011 303.38 85.471 302.601C85.0569 302.288 84.4409 303.356 84.1776 304.135C83.0197 307.557 85.7111 311.876 87.2639 314.85C88.0646 316.383 90.358 317.305 92.2904 318.467C93.1406 318.978 93.9672 318.862 94.3622 317.073C95.5224 311.817 93.7349 305.974 91.9303 302.493C90.7545 300.224 89.0879 298.733 87.1555 297.571C86.3053 297.06 85.4787 297.176 84.8281 297.559C81.7754 299.358 82.3653 308.731 84.0343 315.744C85.3637 321.33 90.6059 324.779 97.8242 330.073C101.497 332.766 105.585 332.803 108.164 332.291C110.307 331.867 110.247 327.916 109.992 324.821C109.667 320.889 106.39 317.592 103.288 315.895C101.928 315.151 99.9308 316.53 98.1262 318.203C96.4233 319.782 96.3062 322.974 96.6896 326.324C97.0378 329.367 99.652 331.246 102.734 332.791C107.522 335.191 112.555 335.126 115.006 334.615C116.035 334.4 116.18 333.081 116.056 332.044C115.8 329.903 113.616 328.163 110.913 326.618C108.015 324.962 103.308 324.283 98.2773 324.794C96.2589 324.999 95.5472 326.328 95.28 327.621C95.0128 328.915 95.2684 330.448 95.6556 331.621C97.5393 337.329 111.734 341.043 121.694 342.739C129.407 344.053 134.768 342.104 135.542 340.559C135.91 339.825 135.805 339.014 135.039 338.236C130.065 333.187 120.083 336.667 115.955 338.212C114.312 338.827 113.872 339.758 113.992 340.408C115.361 347.83 135 345.195 141.97 345.837C144.288 346.051 147.361 345.969 148.941 345.33C150.521 344.691 150.521 343.413 150.138 342.627C148.57 339.412 140.236 340.548 136.073 342.217C135.301 342.526 135.294 343.63 135.418 344.408C135.542 345.187 136.053 345.954 136.7 346.476C137.955 347.491 143.504 348.285 153.669 349.447C165.553 350.805 173.229 349.33 175.161 348.172C176.119 347.599 176.838 346.759 176.722 346.236C176.004 343.006 167.854 345.969 162.944 345.841C157.055 345.688 183.267 344.172 193.982 341.977C196.487 341.463 198.245 340.563 198.656 339.912C199.066 339.262 198.044 338.751 196.878 338.36C188.905 335.684 176.11 336.938 166.948 336.547C164.986 336.464 163.966 336.164 162.928 336.032C154.265 334.933 195.434 328.675 196.212 328.159C198.45 326.679 184.413 328.915 174.43 329.832C169.453 330.29 201.591 325.832 209.355 325.189C212.951 324.892 215.826 324.802 216.992 324.543C224.322 322.911 195.209 329.952 192.603 331.378C191.053 332.225 203.109 334.081 215.749 336.017C226.573 337.675 234.383 337.45 237.64 337.45C251.432 337.45 219.73 336.675 212.252 335.389C210.436 335.077 209.15 335.126 209.259 335.126C214.021 335.126 220.706 336.923 228.458 338.092C235.639 339.176 241.64 339.773 243.065 339.773C248.878 339.773 223.897 337.45 215.761 337.833C213.221 337.953 214.014 338.983 214.92 339.634C222.646 345.18 239.557 344.42 243.693 344.037C244.823 343.932 243.739 342.887 242.701 342.236C236.939 338.623 225.941 338.999 221.159 338.999C211.215 338.999 249.641 344.157 251.593 344.037C257.738 343.659 239.356 339.262 235.851 339.254C228.119 339.237 260.445 344.42 268.066 344.164C270.333 344.088 269.298 343.398 266.726 343.134C260.095 342.455 254.83 343.127 253.92 343.642C250.422 345.621 262.544 343.646 268.608 342.232C270.055 341.895 271.063 341.585 271.079 341.326C271.094 341.066 270.072 340.811 268.779 341.063C267.485 341.314 265.952 342.081 265.928 342.732C265.727 348.377 280.59 343.398 286.941 341.074C290.191 339.885 292.246 337.457 293.024 336.168C293.294 335.72 292.269 335.389 291.235 335.513C285.336 336.22 280.652 341.059 277.031 343.378C274.096 345.259 288.087 343.909 299.441 339.277C301.932 338.261 302.818 336.954 303.344 335.788C303.871 334.623 303.871 333.345 303.36 332.559C302.349 331.004 300.006 331.254 298.461 331.509C294.437 332.175 291.495 336.412 286.464 338.731C285.298 339.269 284.524 339.51 285.151 338.875C290.292 333.67 293.787 330.495 297.017 326.111C298.081 324.666 298.945 322.517 299.216 322.359C303.249 319.996 296.645 329.697 296.769 330.731C297.397 335.974 308.75 320.705 310.071 318.591C313.577 312.976 306.713 330.471 307.093 331.122C310.245 336.526 315.736 322.75 317.034 319.52C317.385 318.645 317.549 317.591 317.041 317.959C312.321 321.382 312.398 325.561 311.492 326.858C308.866 330.618 314.962 316.306 316.774 308.177C317.314 305.756 317.293 303.898 317.553 302.733C317.699 302.076 316.526 305.169 316.135 305.951C313.424 311.373 319.361 294.093 320.004 289.965C320.204 288.681 320.135 287.138 320.135 287.754C320.135 291.181 319.88 294.845 319.62 295.495C318.508 298.285 321.158 286.89 321.684 277.964C321.725 277.28 321.684 279.068 321.429 280.756C321.173 282.445 320.662 283.978 320.399 281.957C320.135 279.936 320.135 274.313 320.008 271.799C319.88 269.286 319.624 270.053 319.493 271.087C319.361 272.121 319.361 273.399 319.233 273.546C318.607 274.267 318.586 268.295 318.331 264.027C318.139 260.825 316.526 270.053 316.135 272.132C315.299 276.577 312.917 263.113 310.594 256.801C309.083 252.696 307.744 249.428 308.255 247.236C310.311 238.42 327.865 236.254 331.61 234.449C335.051 232.791 340.241 231.87 343.878 231.084C344.445 230.962 344.656 232.103 344.149 233.392C341.576 239.931 336.671 241.916 334.99 243.468C333.009 245.299 339.482 238.577 347.084 233.431C348.859 232.229 349.551 231.359 349.562 230.836C349.574 230.314 348.807 230.058 348.029 230.054C344.885 230.038 342.348 230.825 341.182 231.084C336.265 232.179 355.468 222.592 358.086 219.73C359.083 218.64 351.929 223.831 346.887 227.704C345.469 228.792 347.212 229.02 348.385 228.765C353.012 227.757 359.34 222.592 363.24 218.32C363.948 217.545 364.018 216.644 363.256 217.143C360.388 219.021 358.094 221.786 357.187 222.177C353.229 223.886 362.981 211.238 364.15 208.113C365.237 205.207 361.71 216.349 359.77 219.842C359.291 220.705 359.124 221.771 359.375 222.042C361.267 224.08 363.244 217.418 364.921 213.546C366.563 209.754 367.635 207.342 368.023 206.564C369.517 203.559 365.583 215.064 364.158 218.166C363.795 218.956 363.259 219.711 363.507 219.083C365.84 213.179 367.628 208.651 370.083 197.955C370.701 195.263 370.478 193.177 370.35 192.507C370.222 191.837 369.967 192.603 369.835 192.104C368.586 187.365 371.5 182.581 372.154 178.047C372.634 174.724 374.087 171.723 374.993 168.621C375.87 165.621 376.41 162.429 377.316 159.327C378.193 156.327 378.223 153.646 378.223 154.27C378.223 165.762 377.448 174.48 376.678 180.215C376.018 185.124 375.388 191.829 375.125 194.164C374.831 196.765 376.674 187.987 377.959 182.574C379.221 177.26 378.997 173.535 379.64 165.949C381.529 143.656 376.937 138.42 375.647 135.446C374.23 132.176 369.471 128.878 365.072 125.122C361.229 121.84 358.101 119.832 352.943 116.73C348.755 114.211 345.709 112.598 342.607 110.53C339.618 108.537 336.415 107.176 332.675 105.496C326.079 102.532 321.452 100.981 316.538 100.326C312.142 99.7406 304.429 98.657 299.755 98.0026C297.434 97.6776 295.359 97.1003 295.092 96.713C292.157 92.4587 304.367 95.8069 311.438 95.164C333.459 93.1621 337.159 95.8069 340.516 96.5775C345.16 97.6433 348.776 99.1527 351.878 101.348C355.243 103.73 358.07 106.634 362.202 111.022C364.905 113.892 365.815 120.296 366.605 147.342C366.744 152.095 366.605 151.075 366.35 150.037C365.326 145.882 362.996 143.067 357.981 135.852C353.419 129.289 344.207 125.021 332.949 118.802C328.675 116.44 325.572 114.921 321.7 113.496C317.732 112.036 314.218 109.763 308.797 107.56C304.867 105.963 301.563 105.627 298.461 104.458C297.723 104.18 296.916 104.326 296.393 103.943C293.973 102.168 294.066 98.1459 293.93 82.7024C293.875 76.3461 296.637 73.362 297.543 70.1323C297.791 69.2507 297.675 68.2039 297.675 68.0606C297.675 65.6114 298.961 74.6167 299.607 79.2675C300.161 83.2474 302.833 85.7229 303.867 88.8248C304.127 89.6032 304.382 90.3699 304.514 88.4647C305.342 76.4802 302.849 73.362 301.679 70.2601C300.473 67.0615 298.976 63.2935 295.75 56.9775C293.876 53.3081 292.006 50.1271 289.938 47.0253C287.87 43.9234 285.299 41.3443 282.84 38.6336C280.262 35.7922 277.554 32.3137 274.452 29.3397C271.337 26.3532 267.485 24.0421 264.383 23.0081C261.282 21.9742 258.191 20.9441 255.089 19.9102C251.988 18.8762 248.897 17.8461 238.082 17.7106C233.356 17.6514 230.309 18.8685 226.565 20.673C222.788 22.4929 219.978 26.0868 217.139 28.6736C213.759 31.7544 211.458 34.6062 208.236 38.7343C203.9 44.2904 200.879 47.5093 197.134 52.9308C194.234 57.1293 192.096 60.1646 190.028 63.2664C187.96 66.3683 185.9 70.4809 185.242 73.4704C184.485 76.9049 191.554 70.5118 194.783 68.5795C200.122 65.3854 204.72 59.9322 208.72 57.2215C212.984 54.3326 217.36 50.6538 221.116 46.3824C224.623 42.3942 229.241 38.773 232.734 35.5356C235.998 32.5099 241.369 33.0727 246.667 32.4299C252.96 31.6663 260.716 35.3807 265.905 37.1969C271.118 39.0215 275.447 47.2305 280.489 54.6037C284.202 60.0332 285.531 63.2626 286.956 66.3644C288.483 69.6871 290.952 72.5565 292.509 74.8916C294.133 77.3279 284.555 67.4448 268.701 58.1509C252.954 48.9194 244.529 49.8638 234.077 48.0515C227.034 46.8302 218.227 47.0136 208.395 47.6565C189.785 48.8732 184.614 43.4045 181.512 40.8293C177.859 37.7963 175.057 33.8627 172.218 31.5315C169.442 29.2514 166.026 28.6891 153.282 28.5535C148.164 28.4991 144.604 29.7114 139.31 31.3882C138.131 31.7617 137.37 32.0349 137.358 32.2944C136.899 42.5486 167.281 33.5839 172.06 35.2607C176.838 36.9375 181.485 39.0054 185.613 40.8099C188.37 42.0151 190.787 42.6223 192.332 42.7539C193.117 42.8208 193.877 42.1188 194.272 41.2165C195.161 39.1868 194.156 36.4418 192.743 33.8666C189.793 28.4937 184.878 26.8922 181.385 25.0761C176.571 22.5733 171.448 21.4553 168.346 20.6847C165.001 19.8537 160.868 19.3951 155.578 18.489C148.56 17.2867 137.695 17.5828 130.272 19.5074C124.43 21.022 123.94 26.8613 121.229 29.9631C118.727 32.8264 116.97 36.1552 115.545 39.3849C113.561 43.8797 111.548 49.5695 110.383 54.7315C107.692 66.6486 105.089 71.5187 101.871 78.2258C99.4778 83.2138 97.344 86.4974 94.3816 92.1706C92.4219 95.9234 90.6369 101.709 88.6968 105.864C87.9881 107.381 87.5311 108.966 87.1439 109.361C81.7808 114.831 91.907 91.4387 94.6178 83.5737C96.9365 76.8462 100.426 68.715 104.295 60.9855C106.645 56.2908 109.194 51.4283 113.198 48.9576C116.467 46.9404 119.789 45.728 121.721 44.8257C122.619 44.4066 123.398 44.179 123.793 45.0697C126.252 50.6147 120.347 59.8548 116.582 67.1312C113.341 73.3973 113.345 81.5871 112.702 86.3658C112.165 90.3603 111.285 94.4902 110.123 98.3743C108.706 103.112 107.924 106.123 107.54 107.544C106.816 110.228 100.21 104.342 95.036 102.909C88.5465 101.112 82.6596 102.003 76.8431 101.36C70.3523 100.643 65.3341 101.74 63.15 103.536C56.4421 109.055 55.0101 112.83 48.3145 119.917C44.0738 124.405 40.3101 129.343 36.6816 134.257C33.9459 137.962 30.7529 144.042 28.9289 148.461C28.3075 149.966 27.895 151.563 27.2521 153.108C26.9182 153.911 26.3537 154.653 26.0904 153.642C23.813 144.901 28.6617 137.397 29.8235 133.641C31.3448 128.722 34.331 122.682 37.5607 117.64C40.618 112.867 45.6851 110.027 49.8209 107.176C50.8872 106.442 51.8811 105.38 52.1522 105.236C55.4573 103.489 41.6268 118.453 36.8094 124.579C33.8205 128.38 31.0007 132.704 27.1321 138.64C24.4168 142.807 22.2179 148.194 21.184 151.559C19.9149 155.689 18.3454 160.849 17.4393 163.951C16.4916 167.195 16.5331 175.518 17.9466 181.118C18.9277 185.005 21.9391 188.468 25.9394 192.088C30.3533 196.084 32.0075 199.574 34.4666 202.803C37.2703 206.486 39.2413 209.642 44.1361 214.673C48.0552 218.7 53.1668 220.749 57.5659 223.459C61.3632 225.799 65.0475 227.719 68.6683 229.915C73.0855 232.593 75.6426 235.712 77.4549 239.205C77.8895 240.042 77.7183 241.133 77.3349 241.788C75.8437 244.333 68.4708 241.939 61.3493 239.871C55.2532 238.101 44.5079 228.339 38.8696 221.287C36.6664 218.531 35.6477 215.095 34.3504 211.865C32.809 208.028 32.2864 203.741 31.3802 197.556C29.7671 186.548 32.023 183.34 33.4365 179.596C34.7355 176.154 35.6322 171.986 37.4368 167.978C38.9101 164.706 39.2491 162.421 39.2529 161.132C39.2547 160.552 38.2345 160.353 37.5839 160.733C33.9469 162.854 32.2864 167.045 30.2262 170.402C26.594 176.322 24.5414 183.046 24.1503 186.411C23.7489 189.865 22.7291 195.423 23.3719 199.705C23.9738 203.716 25.5637 207.319 27.4961 210.421C29.7708 214.072 34.331 214.816 37.4329 216.493C42.5794 218.425 49.3098 220.756 52.2645 221.144C54.1968 221.275 57.0083 221.275 59.9049 221.275" stroke="#09026B" stroke-width="22" stroke-linecap="round"/>
<path d="M145.813 0.239714C135.724 2.04126 132.889 2.81335 127.386 4.95804C102.538 14.8236 83.3606 40.56 77.4405 71.9583L76.5233 76.934H72.1874C66.5175 76.934 55.4277 79.6792 48.8406 82.7675C31.9141 90.66 18.3229 105.072 9.48445 124.375C-5.77439 157.489 -2.35574 200.125 17.8226 229.207C22.6587 236.242 34.2488 247.308 40.8359 251.34C45.3385 254 52.9263 257.431 58.4295 259.147C59.6802 259.49 59.6802 260.091 58.0126 266.268C55.4277 276.133 55.4277 296.551 58.1793 306.845C62.0149 321.515 68.7688 333.782 79.4416 345.278C96.6182 363.722 119.465 372.301 144.146 369.47C161.322 367.583 176.248 363.637 191.34 356.945L200.011 353.171L208.016 356.602C224.192 363.722 238.367 367.497 255.877 369.47C280.558 372.301 303.405 363.722 320.581 345.278C331.254 333.782 338.008 321.515 341.844 306.845C344.595 296.551 344.595 276.133 342.01 266.268C340.343 260.091 340.343 259.49 341.593 259.147C353.684 255.372 362.522 250.054 371.611 241.303C386.536 226.719 395.541 208.447 398.793 185.713C405.214 141.446 385.536 98.8098 351.182 82.7675C344.595 79.6792 333.505 76.934 327.835 76.934H323.5L322.582 71.9583C318.83 51.9697 308.324 31.5522 295.65 19.7993C286.061 10.8774 273.387 4.10016 261.297 1.35496C253.542 -0.3608 238.45 0.0681388 230.446 2.21283C221.857 4.61489 211.685 9.76215 205.181 15.1668L200.011 19.4562L194.842 15.1668C188.338 9.76215 178.082 4.5291 169.661 2.29862C163.324 0.668653 149.982 -0.532375 145.813 0.239714ZM159.988 14.3947C172.245 16.3678 181.918 21.2577 191.757 30.3512C196.093 34.3832 198.177 35.7558 200.011 35.7558C201.846 35.7558 203.93 34.3832 208.266 30.3512C215.354 23.8313 221.441 19.9709 228.945 17.3115C243.37 12.1642 256.544 12.5932 269.719 18.5983C290.981 28.3781 305.322 49.6535 309.825 77.6203C311.743 90.1453 312.327 90.66 323.166 90.66C333.089 90.66 339.092 92.1184 348.014 96.6651C366.274 105.93 379.365 124.718 384.869 149.339C386.62 157.06 386.786 179.793 385.285 187.171C381.116 207.074 372.278 223.288 360.188 233.668C354.101 238.815 343.511 244.563 337.174 246.022C334.923 246.622 331.588 247.394 329.837 247.823C327.419 248.424 326.335 249.282 325.334 251.512C324.083 254.257 324.083 254.6 326.168 259.919C331.921 274.675 332.505 292.948 327.669 307.703C320.164 330.694 302.988 347.852 281.225 354.114C264.465 359.004 236.199 354.629 211.518 343.219C206.765 341.074 201.846 339.273 200.428 339.187C199.094 339.187 193.424 341.16 187.921 343.562C161.739 354.972 135.474 359.004 118.798 354.114C97.0352 347.852 79.8585 330.694 72.3542 307.703C67.5181 292.948 68.1017 274.675 73.8551 259.919C75.9396 254.6 75.9396 254.257 74.6889 251.426C73.7717 249.539 72.521 248.338 71.0201 247.995C61.4312 245.85 57.8458 244.649 52.0091 241.732C33.0815 232.124 20.2407 213.336 14.7375 187.171C13.2366 179.793 13.4034 157.06 15.1544 149.339C20.6576 124.718 33.7485 105.93 52.0091 96.6651C60.9309 92.1184 66.9344 90.66 76.8568 90.66C87.6964 90.66 88.2801 90.1453 90.1979 77.6203C94.6171 49.6535 109.042 28.4639 130.221 18.5983C134.724 16.5394 137.225 15.8531 146.23 13.9658C149.482 13.3652 154.652 13.451 159.988 14.3947Z" fill="black"/>
<path d="M144.229 38.7585C132.639 42.1042 121.633 53.5139 116.63 67.24C112.127 79.6792 111.21 97.5231 114.545 109.962C120.716 133.297 139.059 148.567 157.237 145.564C172.245 142.991 185.837 127.806 190.589 108.247C192.757 99.153 192.507 82.7676 190.089 73.9314C183.085 48.4525 163.324 33.268 144.229 38.7585Z" fill="#3C73FF"/>
<path d="M240.535 38.4153C227.194 41.6752 214.853 56.0018 209.934 73.9314C207.432 82.8533 207.266 100.097 209.517 108.675C215.937 133.125 233.864 148.653 252.375 145.564C267.05 143.076 280.475 128.664 285.478 109.962C287.395 102.67 287.979 88.6869 286.728 80.6229C282.392 52.3129 261.63 33.3538 240.535 38.4153Z" fill="#3C73FF"/>
<path d="M71.6871 114.766C52.0924 118.198 36.5835 141.961 36.5835 168.47C36.5835 186.742 42.0867 201.755 52.8429 212.822C67.6848 228.264 88.5302 227.663 102.872 211.363C108.125 205.444 112.377 197.466 115.129 188.458C116.797 182.882 117.047 180.222 117.047 169.156C117.047 158.089 116.797 155.43 115.129 149.854C107.708 125.49 90.448 111.506 71.6871 114.766Z" fill="#3C73FF"/>
<path d="M316.746 115.024C302.237 118.284 290.647 130.98 284.894 149.854C283.226 155.43 282.976 158.089 282.976 169.156C282.976 180.222 283.226 182.882 284.894 188.458C289.313 202.956 298.568 215.567 308.491 220.543C321.749 227.148 336.174 224.232 347.18 212.822C358.77 200.811 364.273 184.254 363.106 164.866C362.522 154.658 360.938 148.138 357.186 139.988C348.597 121.544 332.255 111.506 316.746 115.024Z" fill="#3C73FF"/>
<path d="M185.42 157.918C170.744 161.435 159.905 169.07 150.566 182.539C148.482 185.627 143.896 193.691 140.394 200.468C132.389 215.91 131.138 217.712 120.632 229.55C105.54 246.536 99.2031 256.402 94.7005 269.871C92.5325 276.133 92.199 278.535 92.199 285.827C92.199 292.862 92.6159 295.435 94.2835 300.068C97.2019 308.046 100.12 312.85 105.957 319.284C120.716 335.584 142.228 336.613 175.33 322.63C180.417 320.485 188.088 317.483 192.34 316.024L200.095 313.451L208.6 316.453C213.269 318.083 220.69 321.086 225.109 322.973C240.535 329.75 261.297 333.782 271.72 331.895C286.645 329.15 299.736 317.054 305.573 300.497C312.493 280.68 304.989 258.632 282.476 233.153C270.219 219.427 266.884 214.709 260.88 202.785C247.539 176.276 237.617 165.724 220.44 159.633C214.687 157.66 212.185 157.231 202.096 157.06C194.258 156.802 188.755 157.146 185.42 157.918Z" fill="#1438EB"/>
</svg>
