<svg xmlns="http://www.w3.org/2000/svg" width="400" height="370" fill="none" viewBox="0 0 400 370"><path fill="#1e1e1e" d="M0 0h400v370H0z"/><path stroke="#09026b" stroke-linecap="round" stroke-width="200" d="M228.081 178.504c-.512-2.316-3.083-5.406-6.313-7.609-6.308-4.304-17.945-.144-19.749 1.401-4.203 3.599-4.144 22.86-2.603 34.326.574 4.27 8.481 7.23 16.366 8.926 7.391 1.59 14.599-.891 18.595-2.823 2.876-1.39 4.539-3.745 5.956-6.703 3.588-7.491 1.177-15.358-1.394-21.295-2.347-5.418-7.993-9.305-13.782-12.012-6.639-3.104-15.618-2.73-23.994-2.475-6.629.202-14.851 2.827-25.028 6.301-9.329 3.184-14.39 7.632-16.71 9.948-2.375 2.371-2.598 5.685-2.343 8.26.571 5.746 8.745 9.809 17.651 13.817 4.826 2.171 15.831 2.978 30.14 2.986 10.17.005 15.447-4.895 18.282-7.47 5.053-4.591 6.211-12.117 6.347-18.456.058-2.734-1.158-5.302-2.444-7.749-1.318-2.509-5.406-4.268-11.067-5.817-6.467-1.769-12.416-.015-17.303 1.782-6.788 2.496-13.429 8.759-18.847 14.688-3.538 3.872-3.907 8.028-4.295 11.761-.411 3.969.891 7.884 3.59 11.489 3.217 4.297 9.159 6.727 15.846 9.046 8.426 2.923 18.848 2.599 27.487 2.215 5.435-.241 8.438-2.962 10.63-5.15 5.307-5.298 2.479-17.918-1.893-27.595-4.265-9.439-11.629-14.108-14.975-15.653-7.642-3.529-15.738-3.109-26.054-.674-15.386 3.633-20.416 15.084-23.018 22.321-1.223 3.402.248 6.982 1.789 10.2 3.906 8.157 16.984 11.234 31.576 13.573 10.021 1.607 20.284-1.27 27.378-4.232 4.284-1.789 5.337-5.302 6.239-8.132 1.034-3.244.654-6.719-.116-9.937-1.776-7.416-13.101-15.076-23.847-19.25-11.754-4.566-20.265.751-32.138 7.45-4.642 2.62-6.746 6.212-8.422 8.915-1.632 2.63-1.174 5.816-.79 8.519.92 6.492 10.165 9.17 18.944 11.374 12.017 3.016 28.381-1.398 35.127-5.398 2.492-1.478 2.339-4.783 2.599-6.971.289-2.439-1.282-4.782-3.211-6.843-4.92-5.256-13.275-6.459-29.249-6.989-8.438-.281-13.48 4.124-15.671 6.184-1.826 1.716-2.208 4.391-2.595 6.967-.194 1.289-.132 2.575 1.146 4.383 6.547 9.266 22.887 11.11 34.961 11.645 4.316.191 8.148-2.572 10.986-5.147 2.138-1.94 1.569-5.17 1.185-7.745-.865-5.81-9.391-9.034-16.5-12.144-7.505-3.282-17.427.492-21.826 3.722-2.274 1.67-3.369 4.004-3.756 6.064-.193 1.028-.132 2.06.635 3.226 3.79 5.761 17.217 5.309 27.603 4.283 3.573-.353 5.956-3.094 7.633-5.027 1.25-1.441 1.173-3.489.662-5.549-.619-2.493-3.609-3.88-6.436-5.298-8.894-4.459-17.558-.666-20.784 1.394-2.117 1.352-1.7 4.392-1.316 6.584.663 3.795 7.082 4.012 18.932 3.891 2.646-.026 3.64-1.15 4.167-2.695s.527-3.845-.24-5.541c-1.467-3.245-4.903-4.028-7.474-4.415-3.556-.535-6.467.124-8.268 1.15-1.12.639-2.312 2.049-2.97 3.602s-.658 3.342-.275 4.647c1.621 5.517 11.978 6.471 21.911 6.606 3.517.048 5.58-.902 7.125-1.673.835-.416 1.545-1.282 1.94-2.827s.395-3.845.012-5.413c-.618-2.529-3.218-4.148-6.688-6.208-10.445-6.202-21.043-2.602-25.187-.67-.92.429-1.293 1.413-1.556 2.447s-.264 2.312.12 3.354c1.485 4.037 8.368 4.395 20.226 4.539 2.393.028 2.873-1.151 3.008-1.929.136-.778-.12-1.545-.762-2.196-.643-.65-1.666-1.161-2.959-1.425-1.293-.263-2.827-.263-4.407-.263"/><path stroke="#09026b" stroke-linecap="round" stroke-width="22" d="M105.6 258.451c-1.022-.511-2.827-1.03-5.146-1.29-1.036-.115-1.809.252-2.715 1.79-4.63 7.854-3.756 24.408-3.114 34.209.06.918.132 1.677.26 1.177 1.35-5.278-1.91-19.761-4.767-28.772-.595-1.876-2.068-3.489-2.842-4.144-3.857-3.259-1.038 9.143-1.681 12.636-.35 1.901-.643 4.515-1.417 7.606-.384 1.531-.264 3.09-.264.046v-12.233c0-9.108-.774 11.939-.902 13.236-.507 5.147-1.158-12.365-2.32-14.324-3.3-5.566-1.936 11.47-2.2 21.546-.03 1.2 0-8.868 0-11.412 0-4.725 1.55 9.856 3.219 16.048.44 1.631 1.413 2.838 2.192 3.752.778.914 1.545 1.425 2.323 1.177 4.032-1.284 3.11-8.233 3.11-12.109 0-1.284-.775 8.183-.647 15.804.038 2.257.383 1.231.26-.062-.277-2.885-1.929-5.174-3.346-5.952-5.156-2.832-.666 17.515 1.401 21.67.417.838 1.03 1.545 1.55 1.429.518-.116 1.03-1.138 1.293-2.049 1.262-4.36-3.083-10.707-6.564-13.817-.783-.699-1.677-.778-2.327-.398-1.573.917-1.689 3.733-1.433 6.052.215 1.953 2.06 4.132 3.605 6.711 1.127 1.882 3.102 2.339 4.52 2.343.697.002 1.161-1.018 1.424-2.308 1.5-7.343-2.57-13.433-3.601-14.212-.414-.313-1.03.755-1.293 1.534-1.158 3.422 1.533 7.741 3.086 10.715.8 1.533 3.094 2.455 5.026 3.617.85.511 1.677.395 2.072-1.394 1.16-5.256-.627-11.099-2.432-14.58-1.176-2.269-2.842-3.76-4.775-4.922-.85-.511-1.676-.395-2.327-.012-3.053 1.799-2.463 11.172-.794 18.185 1.33 5.586 6.572 9.035 13.79 14.329 3.673 2.693 7.761 2.73 10.34 2.218 2.143-.424 2.083-4.375 1.828-7.47-.325-3.932-3.602-7.229-6.704-8.926-1.36-.744-3.357.635-5.162 2.308-1.703 1.579-1.82 4.771-1.436 8.121.348 3.043 2.962 4.922 6.044 6.467 4.788 2.4 9.821 2.335 12.272 1.824 1.029-.215 1.174-1.534 1.05-2.571-.256-2.141-2.44-3.881-5.143-5.426-2.898-1.656-7.605-2.335-12.636-1.824-2.018.205-2.73 1.534-2.997 2.827-.267 1.294-.012 2.827.376 4 1.883 5.708 16.078 9.422 26.038 11.118 7.713 1.314 13.074-.635 13.848-2.18.368-.734.263-1.545-.503-2.323-4.974-5.049-14.956-1.569-19.084-.024-1.643.615-2.083 1.546-1.963 2.196 1.369 7.422 21.008 4.787 27.978 5.429 2.318.214 5.391.132 6.971-.507s1.58-1.917 1.197-2.703c-1.568-3.215-9.902-2.079-14.065-.41-.772.309-.779 1.413-.655 2.191.124.779.635 1.546 1.282 2.068 1.255 1.015 6.804 1.809 16.969 2.971 11.884 1.358 19.56-.117 21.492-1.275.958-.573 1.677-1.413 1.561-1.936-.718-3.23-8.868-.267-13.778-.395-5.889-.153 20.323-1.669 31.038-3.864 2.505-.514 4.263-1.414 4.674-2.065.41-.65-.612-1.161-1.778-1.552-7.973-2.676-20.768-1.422-29.93-1.813-1.962-.083-2.982-.383-4.02-.515-8.663-1.099 32.506-7.357 33.284-7.873 2.238-1.48-11.799.756-21.782 1.673-4.977.458 27.161-4 34.925-4.643 3.596-.297 6.471-.387 7.637-.646 7.33-1.632-21.783 5.409-24.389 6.835-1.55.847 10.506 2.703 23.146 4.639 10.824 1.658 18.634 1.433 21.891 1.433 13.792 0-17.91-.775-25.388-2.061-1.816-.312-3.102-.263-2.993-.263 4.762 0 11.447 1.797 19.199 2.966 7.181 1.084 13.182 1.681 14.607 1.681 5.813 0-19.168-2.323-27.304-1.94-2.54.12-1.747 1.15-.841 1.801 7.726 5.546 24.637 4.786 28.773 4.403 1.13-.105.046-1.15-.992-1.801-5.762-3.613-16.76-3.237-21.542-3.237-9.944 0 28.482 5.158 30.434 5.038 6.145-.378-12.237-4.775-15.742-4.783-7.732-.017 24.594 5.166 32.215 4.91 2.267-.076 1.232-.766-1.34-1.03-6.631-.679-11.896-.007-12.806.508-3.498 1.979 8.624.004 14.688-1.41 1.447-.337 2.455-.647 2.471-.906.015-.26-1.007-.515-2.3-.263-1.294.251-2.827 1.018-2.851 1.669-.201 5.645 14.662.666 21.013-1.658 3.25-1.189 5.305-3.617 6.083-4.906.27-.448-.755-.779-1.789-.655-5.899.707-10.583 5.546-14.204 7.865-2.935 1.881 11.056.531 22.41-4.101 2.491-1.016 3.377-2.323 3.903-3.489s.527-2.443.016-3.229c-1.011-1.555-3.354-1.305-4.899-1.05-4.024.666-6.966 4.903-11.997 7.222-1.166.538-1.94.779-1.313.144 5.141-5.205 8.636-8.38 11.866-12.764 1.064-1.445 1.928-3.594 2.199-3.752 4.033-2.363-2.571 7.338-2.447 8.372.628 5.243 11.981-10.026 13.302-12.14 3.506-5.615-3.358 11.88-2.978 12.531 3.152 5.404 8.643-8.372 9.941-11.602.351-.875.515-1.929.007-1.561-4.72 3.423-4.643 7.602-5.549 8.899-2.626 3.76 3.47-10.552 5.282-18.681.54-2.421.519-4.279.779-5.444.146-.657-1.027 2.436-1.418 3.218-2.711 5.422 3.226-11.858 3.869-15.986.2-1.284.131-2.827.131-2.211 0 3.427-.255 7.091-.515 7.741-1.112 2.79 1.538-8.605 2.064-17.531.041-.684 0 1.104-.255 2.792-.256 1.689-.767 3.222-1.03 1.201-.264-2.021-.264-7.644-.391-10.158-.128-2.513-.384-1.746-.515-.712-.132 1.034-.132 2.312-.26 2.459-.626.721-.647-5.251-.902-9.519-.192-3.202-1.805 6.026-2.196 8.105-.836 4.445-3.218-9.019-5.541-15.331-1.511-4.105-2.85-7.373-2.339-9.565 2.056-8.816 19.61-10.982 23.355-12.787 3.441-1.658 8.631-2.579 12.268-3.365.567-.122.778 1.019.271 2.308-2.573 6.539-7.478 8.524-9.159 10.076-1.981 1.831 4.492-4.891 12.094-10.037 1.775-1.202 2.467-2.072 2.478-2.595.012-.522-.755-.778-1.533-.782-3.144-.016-5.681.771-6.847 1.03-4.917 1.095 14.286-8.492 16.904-11.354.997-1.09-6.157 4.101-11.199 7.974-1.418 1.088.325 1.316 1.498 1.061 4.627-1.008 10.955-6.173 14.855-10.445.708-.775.778-1.676.016-1.177-2.868 1.878-5.162 4.643-6.069 5.034-3.958 1.709 5.794-10.939 6.963-14.064 1.087-2.906-2.44 8.236-4.38 11.729-.479.863-.646 1.929-.395 2.2 1.892 2.038 3.869-4.624 5.546-8.496 1.642-3.792 2.714-6.204 3.102-6.982 1.494-3.005-2.44 8.5-3.865 11.602-.363.79-.899 1.545-.651.917 2.333-5.904 4.121-10.432 6.576-21.128.618-2.692.395-4.778.267-5.448s-.383.096-.515-.403c-1.249-4.739 1.665-9.523 2.319-14.057.48-3.323 1.933-6.324 2.839-9.426.877-3 1.417-6.192 2.323-9.294.877-3 .907-5.681.907-5.057 0 11.492-.775 20.21-1.545 25.945-.66 4.909-1.29 11.614-1.553 13.949-.294 2.601 1.549-6.177 2.834-11.59 1.262-5.314 1.038-9.039 1.681-16.625 1.889-22.293-2.703-27.529-3.993-30.503-1.417-3.27-6.176-6.568-10.575-10.324-3.843-3.282-6.971-5.29-12.129-8.392-4.188-2.519-7.234-4.132-10.336-6.2-2.989-1.993-6.192-3.354-9.932-5.034-6.596-2.964-11.223-4.515-16.137-5.17-4.396-.585-12.109-1.669-16.783-2.323-2.321-.325-4.396-.903-4.663-1.29-2.935-4.254 9.275-.906 16.346-1.549 22.021-2.002 25.721.643 29.078 1.413 4.644 1.066 8.26 2.576 11.362 4.771 3.365 2.382 6.192 5.286 10.324 9.674 2.703 2.87 3.613 9.274 4.403 36.32.139 4.753 0 3.733-.255 2.695-1.024-4.155-3.354-6.97-8.369-14.185-4.562-6.563-13.774-10.831-25.032-17.05-4.274-2.362-7.377-3.881-11.249-5.306-3.968-1.46-7.482-3.733-12.903-5.936-3.93-1.597-7.234-1.933-10.336-3.102-.738-.278-1.545-.132-2.068-.515-2.42-1.775-2.327-5.797-2.463-21.24-.055-6.357 2.707-9.341 3.613-12.57.248-.882.132-1.93.132-2.072 0-2.45 1.286 6.556 1.932 11.206.554 3.98 3.226 6.456 4.26 9.558.26.778.515 1.545.647-.36.828-11.985-1.665-15.103-2.835-18.205-1.206-3.199-2.703-6.967-5.929-13.283a98 98 0 0 0-5.812-9.952c-2.068-3.102-4.639-5.68-7.098-8.391-2.578-2.842-5.286-6.32-8.388-9.294-3.115-2.987-6.967-5.298-10.069-6.332l-9.294-3.098c-3.101-1.034-6.192-2.064-17.007-2.2-4.726-.059-7.773 1.159-11.517 2.963-3.777 1.82-6.587 5.414-9.426 8-3.38 3.081-5.681 5.933-8.903 10.061-4.336 5.556-7.357 8.775-11.102 14.197-2.9 4.198-5.038 7.234-7.106 10.335s-4.128 7.215-4.786 10.204c-.757 3.435 6.312-2.958 9.541-4.89 5.339-3.195 9.937-8.648 13.937-11.358 4.264-2.89 8.64-6.568 12.396-10.84 3.507-3.988 8.125-7.609 11.618-10.846 3.264-3.026 8.635-2.463 13.933-3.106 6.293-.764 14.049 2.95 19.238 4.767 5.213 1.825 9.542 10.033 14.584 17.407 3.713 5.43 5.042 8.659 6.467 11.76 1.527 3.323 3.996 6.192 5.553 8.528 1.624 2.436-7.954-7.447-23.808-16.741-15.747-9.232-24.172-8.287-34.624-10.1-7.043-1.22-15.85-1.037-25.682-.395-18.61 1.217-23.781-4.251-26.883-6.827-3.653-3.033-6.455-6.966-9.294-9.297-2.776-2.28-6.192-2.843-18.936-2.979-5.118-.054-8.678 1.158-13.972 2.835-1.179.374-1.94.647-1.952.906-.459 10.255 29.923 1.29 34.702 2.967 4.778 1.676 9.425 3.744 13.553 5.549 2.757 1.205 5.174 1.812 6.719 1.944.785.067 1.545-.635 1.94-1.537.889-2.03-.116-4.775-1.529-7.35-2.95-5.373-7.865-6.975-11.358-8.79-4.814-2.504-9.937-3.622-13.039-4.392-3.345-.831-7.478-1.29-12.768-2.196-7.018-1.202-17.883-.906-25.306 1.018-5.842 1.515-6.332 7.354-9.043 10.456-2.502 2.863-4.259 6.192-5.684 9.422-1.984 4.495-3.997 10.185-5.162 15.346-2.691 11.918-5.294 16.788-8.512 23.495-2.393 4.988-4.527 8.271-7.49 13.945-1.96 3.752-3.744 9.538-5.684 13.693-.709 1.517-1.166 3.102-1.553 3.497-5.363 5.47 4.763-17.922 7.474-25.787 2.319-6.728 5.808-14.859 9.677-22.588 2.35-4.695 4.899-9.558 8.903-12.028 3.269-2.018 6.591-3.23 8.523-4.132.898-.42 1.677-.647 2.072.244 2.459 5.545-3.446 14.785-7.211 22.061-3.241 6.266-3.237 14.456-3.88 19.235a79.4 79.4 0 0 1-2.579 12.008c-1.417 4.738-2.199 7.749-2.583 9.17-.724 2.684-7.33-3.202-12.504-4.635-6.49-1.797-12.376-.906-18.193-1.549-6.49-.717-11.509.38-13.693 2.176-6.708 5.519-8.14 9.294-14.835 16.381-4.241 4.488-8.005 9.426-11.633 14.34-2.736 3.705-5.93 9.785-7.753 14.204-.621 1.505-1.034 3.102-1.677 4.647-.334.803-.898 1.545-1.162.534-2.277-8.741 2.572-16.245 3.733-20.001 1.522-4.919 4.508-10.959 7.738-16.001 3.057-4.773 8.124-7.613 12.26-10.464 1.066-.734 2.06-1.796 2.331-1.94 3.305-1.747-10.525 13.217-15.343 19.343-2.988 3.801-5.808 8.125-9.677 14.061-2.715 4.167-4.914 9.554-5.948 12.919-1.27 4.13-2.839 9.29-3.745 12.392-.947 3.244-.906 11.567.508 17.167.98 3.887 3.992 7.35 7.992 10.97 4.414 3.996 6.069 7.486 8.528 10.715 2.803 3.683 4.774 6.839 9.67 11.87 3.918 4.027 9.03 6.076 13.429 8.786 3.797 2.34 7.481 4.26 11.102 6.456 4.417 2.678 6.975 5.797 8.787 9.29.434.837.263 1.928-.12 2.583-1.491 2.545-8.864.151-15.986-1.917-6.096-1.77-16.841-11.532-22.48-18.584-2.203-2.756-3.221-6.192-4.519-9.422-1.541-3.837-2.064-8.124-2.97-14.309-1.613-11.008.643-14.216 2.057-17.96 1.299-3.442 2.195-7.61 4-11.618 1.473-3.272 1.812-5.557 1.816-6.846.002-.58-1.019-.779-1.67-.399-3.636 2.121-5.297 6.312-7.357 9.669-3.632 5.92-5.685 12.644-6.076 16.009-.401 3.454-1.42 9.012-.778 13.294.602 4.011 2.192 7.614 4.124 10.716 2.275 3.651 6.835 4.395 9.937 6.072 5.146 1.932 11.877 4.263 14.831 4.651 1.933.131 4.744.131 7.64.131"/><path fill="#000" d="M145.813.24c-10.089 1.801-12.924 2.573-18.427 4.718-24.848 9.866-44.025 35.602-49.945 67l-.918 4.976h-4.336c-5.67 0-16.76 2.745-23.346 5.834-16.927 7.892-30.518 22.304-39.357 41.607-15.258 33.114-11.84 75.75 8.339 104.832 4.836 7.035 16.426 18.101 23.013 22.133 4.503 2.66 12.09 6.091 17.594 7.807 1.25.343 1.25.944-.417 7.121-2.585 9.865-2.585 30.283.166 40.577 3.836 14.67 10.59 26.937 21.263 38.433 17.176 18.444 40.023 27.023 64.704 24.192 17.176-1.887 32.102-5.833 47.194-12.525l8.671-3.774 8.005 3.431c16.176 7.12 30.351 10.895 47.861 12.868 24.681 2.831 47.528-5.748 64.704-24.192 10.673-11.496 17.427-23.763 21.263-38.433 2.751-10.294 2.751-30.712.166-40.577-1.667-6.177-1.667-6.778-.417-7.121 12.091-3.775 20.929-9.093 30.018-17.844 14.925-14.584 23.93-32.856 27.182-55.59 6.421-44.267-13.257-86.903-47.611-102.945-6.587-3.089-17.677-5.834-23.347-5.834H323.5l-.918-4.976C318.83 51.97 308.324 31.552 295.65 19.8c-9.589-8.922-22.263-15.699-34.353-18.444-7.755-1.716-22.847-1.287-30.851.858-8.589 2.402-18.761 7.55-25.265 12.954l-5.17 4.29-5.169-4.29C188.338 9.763 178.082 4.53 169.661 2.3 163.324.67 149.982-.531 145.813.24m14.175 14.155c12.257 1.973 21.93 6.863 31.769 15.956 4.336 4.032 6.42 5.405 8.254 5.405 1.835 0 3.919-1.373 8.255-5.405 7.088-6.52 13.175-10.38 20.679-13.04 14.425-5.147 27.599-4.718 40.774 1.287 21.262 9.78 35.603 31.056 40.106 59.022 1.918 12.525 2.502 13.04 13.341 13.04 9.923 0 15.926 1.458 24.848 6.005 18.26 9.265 31.351 28.053 36.855 52.674 1.751 7.721 1.917 30.454.416 37.832-4.169 19.903-13.007 36.117-25.097 46.497-6.087 5.147-16.677 10.895-23.014 12.354-2.251.6-5.586 1.372-7.337 1.801-2.418.601-3.502 1.459-4.503 3.689-1.251 2.745-1.251 3.088.834 8.407 5.753 14.756 6.337 33.029 1.501 47.784-7.505 22.991-24.681 40.149-46.444 46.411-16.76 4.89-45.026.515-69.707-10.895-4.753-2.145-9.672-3.946-11.09-4.032-1.334 0-7.004 1.973-12.507 4.375-26.182 11.41-52.447 15.442-69.123 10.552-21.763-6.262-38.94-23.42-46.444-46.411-4.836-14.755-4.252-33.028 1.501-47.784 2.085-5.319 2.085-5.662.834-8.493-.917-1.887-2.168-3.088-3.669-3.431-9.589-2.145-13.174-3.346-19.01-6.263-18.928-9.608-31.77-28.396-37.272-54.561-1.501-7.378-1.335-30.111.416-37.832 5.504-24.621 18.594-43.409 36.855-52.674 8.922-4.547 14.925-6.005 24.848-6.005 10.84 0 11.423-.515 13.34-13.04 4.42-27.967 18.845-49.156 40.024-59.022 4.503-2.059 7.004-2.745 16.009-4.632 3.252-.6 8.422-.515 13.758.429"/><path fill="#3c73ff" d="M144.229 38.759c-11.59 3.345-22.596 14.755-27.599 28.481-4.503 12.44-5.42 30.283-2.085 42.722 6.171 23.335 24.514 38.605 42.692 35.602 15.008-2.573 28.6-17.758 33.352-37.317 2.168-9.094 1.918-25.48-.5-34.316-7.004-25.478-26.765-40.663-45.86-35.172m96.306-.344c-13.341 3.26-25.682 17.587-30.601 35.516-2.502 8.922-2.668 26.166-.417 34.744 6.42 24.45 24.347 39.978 42.858 36.889 14.675-2.488 28.1-16.9 33.103-35.602 1.917-7.292 2.501-21.275 1.25-29.34-4.336-28.31-25.098-47.268-46.193-42.207M71.687 114.766c-19.595 3.432-35.103 27.195-35.103 53.704 0 18.272 5.503 33.285 16.259 44.352 14.842 15.442 35.687 14.841 50.029-1.459 5.253-5.919 9.505-13.897 12.257-22.905 1.668-5.576 1.918-8.236 1.918-19.302 0-11.067-.25-13.726-1.918-19.302-7.421-24.364-24.681-38.348-43.442-35.088m245.059.258c-14.509 3.26-26.099 15.956-31.852 34.83-1.668 5.576-1.918 8.235-1.918 19.302s.25 13.726 1.918 19.302c4.419 14.498 13.674 27.109 23.597 32.085 13.258 6.605 27.683 3.689 38.689-7.721 11.59-12.011 17.093-28.568 15.926-47.956-.584-10.208-2.168-16.728-5.92-24.878-8.589-18.444-24.931-28.482-40.44-24.964"/><path fill="#1438eb" d="M185.42 157.918c-14.676 3.517-25.515 11.152-34.854 24.621-2.084 3.088-6.67 11.152-10.172 17.929-8.005 15.442-9.256 17.244-19.762 29.082-15.092 16.986-21.429 26.852-25.931 40.321-2.168 6.262-2.502 8.664-2.502 15.956 0 7.035.417 9.608 2.085 14.241 2.918 7.978 5.836 12.782 11.673 19.216 14.759 16.3 36.271 17.329 69.373 3.346 5.087-2.145 12.758-5.147 17.01-6.606l7.755-2.573 8.505 3.002c4.669 1.63 12.09 4.633 16.509 6.52 15.426 6.777 36.188 10.809 46.611 8.922 14.925-2.745 28.016-14.841 33.853-31.398 6.92-19.817-.584-41.865-23.097-67.344-12.257-13.726-15.592-18.444-21.596-30.368-13.341-26.509-23.263-37.061-40.44-43.152-5.753-1.973-8.255-2.402-18.344-2.573-7.838-.258-13.341.086-16.676.858"/></svg>