<svg xmlns="http://www.w3.org/2000/svg" id="main" viewBox="0 0 872 514"><defs><style>.st0{fill:#fff}.st1{fill:#2e2f2e}</style></defs><rect width="872" height="514" class="st1" rx="125" ry="125"/><path d="m43.74 213.76 2.35 13.83 12.52-9v63.39h13.83v-79.3H60.18zm37.08 53.28 14.67-4.5 3.03 5.28 4.01 1.37h2.84l4.6-.78 2.25-.68s1.66-1.37 1.86-1.86 1.08-1.66 1.27-2.25.68-1.86.78-2.54-.39-2.74 0-3.23-.36-2.54.01-2.93.1-4.99.1-4.99l-8.53 4.6H99.1c-.29 0-3.72-.29-3.72-.29l-4.21-2.64-6.07-6.46s-1.57-5.97-1.76-6.55-.49-3.62-.68-4.6-.1-4.79-.1-6.07.29-4.11.29-4.99.39-2.84.39-4.5 4.7-7.92 4.7-7.92l2.25-1.96s2.45-1.76 2.64-2.05 2.35-1.47 2.64-1.66 6.36-2.15 6.36-2.15h9.2l3.91.49s3.42 1.37 3.62 1.66.88.59 1.47 1.37 1.86 1.47 2.35 2.25 1.27 1.08 1.76 1.96.88 1.27 1.47 2.45 1.08 1.76 1.47 2.93.68 1.66 1.08 2.74.78 1.86 1.17 2.74.78 1.37.98 2.54.29 1.76.49 3.03.1 1.96.2 3.13 0 2.84 0 2.84l.04 20.25s-1.61 10.57-1.9 10.96-.59 2.05-.88 3.03-.68 2.15-1.47 3.52-1.08 2.05-1.47 2.64-.78 1.76-1.47 2.45-.78.78-1.96 1.76-1.17 1.17-2.74 1.96-1.17.68-2.45 1.17-1.08.39-2.35.88-1.17.59-2.93.98-1.57.49-3.03.59-2.05.2-4.11.29-1.27 0-3.23-.1-6.07-1.21-6.07-1.21l-6.16-4.08-4.11-3.62-2.35-3.13-1.57-4.11Z" class="st0"/><path d="M102.7 215.75s-3.65 4.3-3.91 4.83-.65 2.48-.78 3.39 0 2.74-.13 4.17.13 1.3 0 3.13-.13 3.78 0 4.57.78 1.43 1.3 2.48 1.17 1.57 1.96 2.35 1.72.99 3.26 1.66 3.39-.03 4.3 0 2.61-.23 3.52-.62 1.96-1.43 2.35-2.48.78-2.48 1.04-3.52.51-4.16.51-4.16.05-2.84 0-3.33-.34-2.35-.44-2.93-.78-3.23-.93-3.67-.98-1.96-1.32-2.4-2.64-2.84-2.64-2.84l-1.66-.64h-6.42Z" class="st1"/><path d="m140.38 219.16 11.22 6.39 3.13-7.57 3.26-3 2.87-.91h4.04l1.83.78 1.7 3.91s.26 4.43 0 5.09-.52 3.65-.65 4.43-1.3 3.13-1.3 3.13-3 1.57-3.39 1.83-1.7.52-2.74 1.04-3.26.78-3.65.91-3.13.78-3.13.78H152l1.3 12.39h12.26l2.09 2.35s1.3 1.57 1.7 2.22 1.04 1.43 1.43 2.09.91 2.22.91 2.61.26 1.7.13 2.87 0 1.57-.65 3-.78 1.7-1.3 2.35-1.17 1.57-2.22 2.61-1.57 1.3-2.09 1.3h-7.83l-3.52-2.87-1.17-2.22-.26-4.04-15 3.39 6 12.91s3.65 2.61 3.91 3.13 4.04 1.57 4.83 1.83 5.09.52 5.87.65 4.7-.13 5.22 0 3 .08 4.3.04 3.91-.56 4.83-.82 2.48-1.17 3.78-1.96 2.35-1.7 2.74-2.35 1.3-1.57 2.09-2.74 3.52-6 3.78-6.78 1.17-4.04 1.43-4.96 0-7.96 0-7.96l-2.48-9.13-3.13-3.28-5.35-2.72 6.13-4.96 1.7-5.09s.39-4.7.26-5.61-.52-8.74-.65-9.39-1.57-4.3-1.83-4.83-5.87-6.13-5.87-6.13l-10.83-1.96h-9.78s-7.17 3.26-7.57 3.39-4.04 3.78-4.04 3.78l-1.83 3.65-.91 6.39Zm64.11 43.76-14.22 3.78 2.48 10.7 6.26 3.39s5.61 1.04 6 1.3 9.26.54 9.26.54h6.91l5.22-2.89 7.04-7.83 4.43-13.96 2.35-9.65v-21.65l-4.43-16.57-3.91-3.52-4.83-3.26s-5.48.26-5.87 0-14.87 0-14.87 0l-7.04 4.3-6.39 9.26s-1.04 4.96-1.3 5.87-.52 5.22-.65 6.39 1.3 12.26 1.3 12.26l7.17 9.91 6.26 3.52 5.74.78 5.48-.39 4.3-1.83 3-1.96 1.83-1.43s-.39 6.42-.39 6.99-1.57 5.53-1.57 5.53l-1.7 3.91-2.74 2.48-4.37.65-5.41-.26s-2.87-.91-3-1.3-1.7-3.39-1.7-3.39l-.65-1.7Z" class="st0"/><path d="m211.4 215.05-3.26 4.04-.92 2.35v14.09l2.09 4.17 4.7 2.59h3.26l4.3-1.94 2.22-2.21 1.43-3v-12.65l-1.56-4.05-2.61-3.39z" class="st1"/><path d="M245.67 239.64h42.52v13.89h-42.52zm44.35-25.57 2.05 14.19 11.64-9.69-.39 64.06h15.46V203.2H304.4zm50.97 48.22-14.22 3.78 2.48 10.7 6.26 3.39s5.61 1.04 6 1.3 9.26.54 9.26.54h6.91l5.22-2.89 7.04-7.83 4.43-13.96 2.35-9.65v-21.65l-4.43-16.57-3.91-3.52-4.83-3.26s-5.48.26-5.87 0-14.87 0-14.87 0l-7.04 4.3-6.39 9.26s-1.04 4.96-1.3 5.87-.52 5.22-.65 6.39 1.3 12.26 1.3 12.26l7.17 9.91 6.26 3.52 5.74.78 5.48-.39 4.3-1.83 3-1.96 1.83-1.43s-.39 6.42-.39 6.99-1.57 5.53-1.57 5.53l-1.7 3.91-2.74 2.48-4.37.65-5.41-.26s-2.87-.91-3-1.3-1.7-3.39-1.7-3.39l-.65-1.7Z" class="st0"/><path d="m346.92 215.05-3.26 4.04-.91 2.35v14.09l2.08 4.17 4.7 2.59h3.26l4.3-1.94 2.22-2.21 1.44-3v-12.65l-1.57-4.05-2.61-3.39z" class="st1"/><path d="m403.17 202.57-25.34 53.78v11.95h32.58v14.33h12.91V268.3l8.81.1v-13.01h-9.59l-.29-52.82z" class="st0"/><path d="m409.72 218.21-16.33 36.88h16.33z" class="st1"/><path d="M440.64 203.7h40.7v12.26h-28.3l-.39 17.87 3.13-2.74 6.13-1.43 5.48.13 5.35.91 5.22 3.65s2.87 3.65 3.39 4.04 2.22 5.74 2.22 5.74.78 6 .91 7.04-.13 8.61 0 9.39-1.7 7.57-1.96 8.61-3.13 4.96-3.91 5.74-8.22 6.13-8.22 6.13-7.01 1.96-7.81 2.09-11.11 0-11.11 0l-6.78-3.39-4.83-4.43-2.74-3.65c-.39-.52-1.7-4.3-1.7-4.3l-.65-1.83 13.7-5.35 4.17 6.78 2.87 2.35s2.35.39 2.74.52 3.78 0 4.17-.13 3.78-1.43 3.78-1.43 1.3-1.3 1.43-1.7 1.04-2.09 1.3-3.13.39-3 .52-3.78.39-3.78.26-4.57-.78-4.43-.78-4.43l-1.17-3.65-3.13-4.41-3.65-.94-4.04.63-2.87 1.98-2.09 4.04-1.3 2.61-.78 1.3-12.78-3.26zm40.37 104.74-6.26 3.33-1.96 4.3v6.26l2.74 5.48 4.3 1.76h4.67l5.12-4.89 1.76-5.67v-5.48l-3.53-5.09zm16.63-1.56 2.15 3.13 1.37 4.3v4.7l-.98 3.72-.78 3.13v1.37h9.2l51.26-6.85 2.2-2.95.98-3.18.39-2.05v-3.86c0-.15-.59-2.25-.64-2.45s-2.74-1.91-2.74-1.91l-3.08-1.32zm59.82-177.18h-14.09s1.11-24.33 1.21-25.5 3.72-23.77 3.72-24.26 1.57-5.18 2.45-7.43 4.7-11.35 4.7-11.35l4.01-6.07 5.22-5.74s4.04-3.26 4.7-3.78 3.52-1.7 5.09-2.35 5.09-1.83 7.04-2.48 4.04-1.3 6.13-1.96 6.65-1.57 9.39-1.96 6.65-.91 8.74-1.04 4.57-.26 7.7-.52 7.57-.65 9.78-.78 43.83 0 43.83 0l14.48 2.22 13.57 3.26 9.13 4.3s3.78 2.09 4.57 2.61 4.7 3.39 5.61 4.04 3.78 2.61 4.96 3.91 3.26 4.04 3.91 4.96 5.09 7.57 5.35 7.96 2.09 4.43 2.48 5.48 1.96 5.87 2.22 6.78 1.3 4.57 1.57 6.13 1.04 6.65 1.17 7.83.65 4.43.65 5.48v30.27h-13.7s-.78-28.18-.65-28.83-3-22.3-3.13-22.83-2.87-5.22-3.26-6.26-1.83-2.87-3.13-4.3-2.61-2.74-3.91-3.78-1.3-.91-4.43-2.74-4.57-2.48-5.74-3.26-1.83-1.96-5.48-3.39-4.57-1.83-7.43-2.22-2.87-.39-8.09-1.04-5.35-1.04-10.96-1.04-6.13-.13-12.26-.13-6.13-.26-11.87 0-6.26.13-11.48.26-4.17 0-9.65 0-26.22 2.61-26.22 2.61-14.22 5.09-15.26 5.48-4.96 3.65-5.35 4.04-6 7.43-6 7.43-3.26 6.78-3.52 7.43-1.43 3.91-1.7 5.61-.52 2.35-1.04 4.57-.91 3.78-1.3 6.39-.39 3.13-.78 5.35-.39 2.48-.65 4.96-.39 2.61-.65 4.83-.52 2.61-.65 4.3-.26 2.74-.26 4.17.13 3 0 4.96-.68 7.44-.68 7.44Zm-45.3 10.29h-7.04c-.39 0-2.87.26-4.04.91s-1.83 2.48-2.48 3.78-1.04 1.57-.78 3.13.39 2.48 1.04 4.04 1.17 2.22 3.13 3.65 2.35 1.57 5.74 3.13 4.96 2.22 8.35 3.13 3.65.78 6.78 1.7 3.65.78 9 1.96 6.39 1.43 10.96 2.22 4.96 1.04 10.57 1.96 7.17.78 11.61 1.43 35.74 4.43 35.74 4.43h9c.52 0 5.74.13 10.3 0s40.96.06 40.96.06 11.09-1.62 12.52-1.88 4.83-.39 8.22-.91 6.91-.65 9.91-1.43 4.83-1.04 7.7-1.57 5.35-.91 7.57-1.3 3.39-.52 5.22-.91 3.13-.78 3.13-.78l30.39-6.26s9.13-1.04 10.17-1.3 4.43-.65 5.87-.78 6.78.13 6.78.13l4.83 1.3s1.96 1.83 2.09 2.35-.52 2.09 0 2.48.91 1.7.91 1.7.91.78 1.7.91 2.35.26 3-.13 1.3-.91 2.09-1.43 1.3-.91 1.7-1.7.39-.78.65-2.48-.39-2.68 0-3.75-.13-3.03.06-4.46-.85-2.48-1.24-3.39-5.74-6-5.74-6-3.78-1.83-4.3-1.96-24.26 1.3-24.26 1.3-15.91 1.83-19.83 2.48-12.13 2.74-15.65 3.39-9.39 1.7-16.04 2.74-21 3.91-23.35 4.04-9.78.78-14.09 1.04-10.3.81-10.3.81-50.35-.23-50.74 0-24-1.72-25.7-1.99-13.83-1.96-15.13-2.22-17.35-2.22-17.35-2.22-10.96-2.74-11.35-2.74-8.22-2.09-8.22-2.09l-5.22-1.7-3.13-2.35-1.7-2.48Z" class="st0"/><path d="M536.49 181.86v108.98s18.59.2 19.17 0 10.96.09 10.96.09 6.07 1.48 7.04 2.26 6.65 6.46 6.65 6.46l1.76 2.15h45.39l4.96.86s2.22.71 2.74 1.36 2.48 1.43 3 2.09 1.7 1.16 2.48 2.34 1.57 1.83 2.09 2.88 1.17 1.96 1.3 2.74.65 1.7.65 2.87.13 1.16 0 2.08-.78 1.96-1.43 2.23-1.17.39-2.61.39-1.57 1.04-3.13 0-1.7-1.71-3.39-2.62-2.09-1.95-3.13-2.86-2.35-1.7-2.74-1.96-1.83-1.04-3.39-1.57-.65-.65-3.26-.65-3.91-.13-7.83-.39-4.17-.52-7.3-.52-3.13-.13-7.96-.39-3.91-.26-8.22-.39-5.22-.26-7.17-.26h-2.87s-1.17 6.91-1.57 7.7 0 .26-.91 2.09-1.7 3.13-2.87 4.43-2.22 1.96-4.17 2.87-1.17.78-4.04 1.7-2.22.65-4.7 1.43-2.35.91-4.7 1.7-2.61.52-3.65 1.43-1.57 1.3-1.57 1.3 9.65 8.48 10.04 9 2.35 1.17 3.65 2.35 2.87 2.22 5.35 3.65 4.3 1.7 7.04 2.61 2.87.65 6.78 1.83 4.3 1.04 8.48 1.83 3.65.78 8.22 1.3 5.74.39 10.96.52 4.83.26 9.39 0 3.65.26 8.22-.52 3-.52 8.48-1.3 6.26-1.04 10.17-1.83 3.91-1.17 6.91-1.7 3.91-1.43 6.13-1.96 14.09-4.57 14.09-4.57 12.13-7.17 12.78-7.57 6.39-4.43 7.83-5.74 8.09-6.26 8.87-7.43 4.57-5.09 5.74-6.78 4.43-5.74 5.48-7.7 4.96-11.22 5.22-12.26 2.74-7.7 2.74-8.09.78-2.09.78-5.09.39-5.61 0-7.7-.78-3.91-1.04-5.61-.52-2.35-.26-4.04.61-3.13 1.48-3.52.87-1.3 2.7-.52 3.52 2.48 3.52 2.48 1.3.52 1.83.78 3 .91 3.52 1.04 1.96.26 3.26.26 3.39 0 4.17-.39 1.96-.65 2.74-1.17 1.04-.78 2.87-2.09 2.48-1.57 4.04-2.87 7.43-11.22 7.7-12 1.3-2.74 1.83-4.96.78-3.52 1.7-5.87 1.17-2.74 1.83-5.61.91-3.65 1.57-6.52.65-2.22 1.17-5.48.65-3.39 1.04-6 .39-3.52.39-4.96v-4.43c0-1.43-6.91-8.35-6.91-8.35s-.26-.39-1.43-.65-.91-.65-2.74-.65h-4.83c-.78 0-1.43-.13-2.61.13s-1.57 0-2.74.65-1.3.39-2.35 1.43-2.48 1.7-3.13 2.35-1.57 1.3-2.48 1.83-.78.78-1.96.78-2.22 0-2.35-.65-.39-.78-.39-2.48-1.3-24-1.3-24-16.7 3.26-17.35 3.26 2.09-.39-3.91.78-8.87 1.43-13.57 2.22-3 .78-9.78 1.96-7.43 1.17-13.17 1.96-6.13.91-11.74 1.43-7.17.78-13.43 1.17-8.35.26-14.22.26-6.91-.39-12.39-.39-40.04-.91-40.04-.91-7.7-.65-9.26-.91-4.57-.26-7.7-.91-2.48-.91-6.52-1.3-5.48-.78-8.35-1.04-3.78-.52-5.48-.65-12.85-1.5-12.85-1.5Z" class="st0"/><path d="m731.82 311.06 4.96 2.09 2.87 1.79s1.83.55 2.35 1.86-1.04 2.61 0 4.17 1 2.09.11 4.43-1.94 3.65-3.5 6-1.83 2.61-3.65 5.74-2.87 4.96-4.7 8.09-1.57 3.39-4.7 7.83-2.87 4.43-5.74 8.61-3.13 4.7-5.74 7.83-2.87 2.87-5.48 7.04-3.13 5.48-5.22 8.09-3.39 4.17-6.78 8.35-26.61 32.87-28.17 33.91-2.61 1.83-6 5.48-3.13 3.91-7.04 7.57-22.96 19.83-23.74 20.35-1.3.78-3.91 2.61-3.13 2.61-5.22 3.65-2.09.78-4.7 2.61-3.65 2.35-6 3.91-1.3 1.3-4.17 2.87-3.39 1.57-4.17 2.09-1.57.52-2.87 1.04-2.35 0-2.35 0-10.43-13.3-11.48-13.83-6.26-9.65-6.52-10.43-1.3-3.13-2.09-4.17-.78-.52-2.35-3.91-1.57-3.39-2.35-5.22-.52-2.09-1.57-4.17-.52-1.04-1.83-3.91-1.3-3.13-2.09-5.22-2.87-8.35-2.87-8.35l-1.99-11.51s-.59-.98-.59-3.82 0-5.48-.2-8.32-.2-3.03-.29-4.89-.2-1.86-.2-4.89-.1-2.54.2-7.14.59-5.28.59-8.71 0-3.91.2-5.97.59-3.33.59-3.33l.59-.88s.1-.88 1.86 0 2.84 1.27 3.91 2.05 2.45 1.08 4.21 1.76 2.93.88 4.79 1.27 2.74.1 4.01.49.59-.78 2.45.78 2.64 1.66 4.4 3.72 2.05 2.05 3.13 3.82 1.57 1.86 1.96 3.42.59 2.25.39 2.84-1.76.88-5.09 1.66-3.03.29-4.79 1.08-1.47-.1-3.62 2.05-2.25 1.47-3.62 3.72-1.57 2.74-2.15 4.7-.78 1.86-1.08 4.7-.88 2.54-.2 5.67.78 2.74 1.47 5.48.49 2.84 1.37 5.09.88 2.54 1.76 3.72 1.17 1.76 2.84 2.54 1.96.88 3.82 1.37 2.35.98 4.01.49 2.05-.98 3.62-1.96 9.98-7.34 10.76-7.83 2.35-1.17 3.91-2.15 2.93-1.96 4.7-2.05 2.45-.39 5.09-.29 9.1-.2 9.1-.2 1.37.49 2.15.88 9 7.83 9.39 8.61 1.57 2.15 2.05 2.64.78.98 2.45 1.96 5.18 1.96 5.48 2.05 1.37.29 2.74.29 2.35-.1 3.42-.1 1.66.2 2.64-.29 1.17-.29 2.35-1.47 1.17-1.37 2.45-3.13.88-1.27 2.25-3.52 1.17-2.05 1.96-4.21.68-1.57 1.17-3.82.59-2.15.78-4.01.2-2.05.29-3.13.1-1.08.1-4.11.2-2.05-.1-4.3-.29-1.76-.59-3.52-.1-1.66-.78-3.03-.49-1.37-1.27-2.25-.49-1.08-1.86-1.57-1.17-.68-3.23-.88-2.74-.2-5.58-.2-3.52-.2-5.58 0-3.23.39-4.7.49-2.25.39-2.64.1-.78.88-.39-1.47 5.38-7.04 5.67-7.34 3.91-3.33 4.21-3.52 1.99-.98 2.12-1.17.62-.49 1.89-.68 1.57-.29 3.82-.68 2.05-.29 4.21-.78 1.96-.39 3.82-1.17 22.11-9.59 22.11-9.59 1.76-.39 3.33-1.76 2.25-1.66 4.21-3.03 2.25-1.47 4.11-2.93 1.47-.98 3.91-3.13 1.96-1.57 4.7-4.21 3.52-3.52 5.18-5.38 1.66-1.86 3.42-3.82 2.05-2.35 3.62-4.21 7.14-9.68 7.14-9.68 1.27-2.84 1.57-3.33.82-2.87.82-2.87Z" class="st0"/><path d="M564.37 220.01s-1.53.78-2.72.98-1.97.59-2.56.98-1.96 2.15-2.35 3.52-.98 3.52-.98 3.52v3.33l1.37 3.33s2.15 1.17 2.93 1.57 5.87.98 5.87.98l5.09-2.35 3.13-3.13v-5.28l-2.35-4.89-4.11-2.54h-3.33Zm89.02 0s-1.53.78-2.72.98-1.97.59-2.56.98-1.96 2.15-2.35 3.52-.98 3.52-.98 3.52v3.33l1.37 3.33s2.15 1.17 2.93 1.57 5.87.98 5.87.98l5.09-2.35 3.13-3.13v-5.28l-2.35-4.89-4.11-2.54h-3.33Zm-21.58-21.55-3.72.98-1.96 1.76-2.15 2.5v4.35l3.91 2.93h37.96l4.63.72s1.17.13 2.22.33 2.15.07 3.39.2 2.41.07 3.85-.2 2.22-.52 3.07-1.04 1.63-.78 1.7-2.22.13-1.24-.26-3.2-.33-1.7-.85-2.93-.46-1.24-1.57-2.15-1.7-1.04-3.26-1.63-1.11-.78-4.11-.91-3.52-.13-6.07-.33-2.54-.2-5.74-.33-2.74 0-6.72-.13-2.87-.13-5.8-.13-15.2 1.04-15.2 1.04l-3.33.39Z" class="st1"/><path d="M553.77 199.6s-2.64 1.37-3.13 1.86-1.86 2.18-2.35 3.2-.68 2.18-.78 2.87 1.66 2.25 2.15 2.84 1.76.98 3.33 1.27 2.54.72 4.99.65 3.13.07 5.87 0 3.03.07 6.46 0 3.72-.16 5.87.03 2.93.1 4.89.49 2.84.29 3.23.68.78.78 1.08 2.05-1.37 16.04-1.47 16.83-.49 3.23-1.08 5.77-.59 2.93-1.66 5.87-1.17 3.03-1.86 4.89-.98 2.74-1.57 4.6-1.08 3.18-1.17 3.5-3.33 7.66-3.42 8.44-.29 2.64-.2 3.42.55 1.27 1.21 3.52.95 2.93 1.92 4.4.88 1.76 2.35 3.13 1.66 1.47 4.4 2.64 3.33 1.76 6.26 2.05 1.86.39 6.95-.1 5.87-.39 10.27-1.17 4.99-.59 8.9-2.15 4.7-2.45 6.46-3.23 2.15-1.47 3.72-1.96 1.57-.88 2.84-.78 1.57-.1 2.35.2 6.07 3.23 6.36 3.72 1.86 1.27 2.45 2.35.98 1.57 1.17 3.23.1 1.66.68 3.42.68 1.86 1.27 2.84 1.08 1.08 3.23 1.66 2.64 1.37 4.11.68 2.05-.1 2.84-3.13.88-3.13.88-5.58.2-3.72 0-5.48-.29-2.84-.68-3.82-3.91-5.09-3.91-5.09-7.14-6.16-7.83-6.46-3.03-2.93-3.52-3.62-1.66-1.76-2.15-2.35-.59-1.27-1.57-2.25-1.17-1.37-1.66-1.57-2.25-.49-3.42-.49-2.64-.39-3.23 0-1.27-.88-.88 2.45-1.96 9.78-2.35 10.08-1.76 1.86-2.84 2.45-1.86 1.27-4.01 1.76-1.96.49-4.4.98-2.74.59-5.09.68-1.86 0-3.91 0-1.66-.1-3.82-.2-2.54 0-3.72-.59-.98-.39-2.25-1.37-4.21-4.11-4.6-4.89-.68-1.47-.88-3.13-.39-1.76-.29-3.52-.39-.1.78-3.03 6.07-14.18 6.36-15.55.49-1.37 1.08-4.5.39-3.13 1.17-5.28 1.27-1.27 1.57-4.79.29-4.21.39-5.97.68-8.8.68-9.59.2-1.17-.68-2.54-.68-.85-2.64-2.28-2.05-1.34-3.82-2.22-1.76-.78-3.82-1.57-.78-.59-4.5-1.27-3.82-.78-7.14-.78-2.45-.1-6.55 0-6.16-.28-9.59-.04-6.07.83-6.07.83Z" class="st1"/></svg>