<svg xmlns="http://www.w3.org/2000/svg" id="main" viewBox="0 0 872 514"><defs><style>.st0{fill:#768244}.st1{fill:#fff}</style></defs><rect width="872" height="514" class="st0" rx="125" ry="125"/><path d="M90.78 114.21h18v43.24h36.39v-44.03h18.19v107.22h-18.39l-.19-44.41h-36l.39 44.41H90.78zm108.26 27.75-8.51 3.72s-6.85 5.28-6.95 5.77-4.4 8.71-4.5 9-2.45 7.92-2.45 8.61-1.57 9.68-1.47 10.08 0 14.09 0 14.09l3.23 11.93s3.91 5.67 4.11 6.07 3.91 3.91 3.91 3.91l6.95 5.51 6.75 1.43 8.9.59 9.68-1.08 9.59-4.7 5.09-6.55 3.72-7.63 2.05-7.43.88-8.41V176.7l-1.37-10.66-4.01-10.47-3.33-4.5-10.86-7.34-5.97-1.76-7.92-.59-7.53.59Z" class="st1"/><path d="m204.97 158.13-5.28 1.63s-3.91 4.24-4.04 4.43-2.61 5.41-2.74 5.67-1.04 5.61-1.04 5.8.13 8.54 0 8.8.46 7.11.46 7.11l1.89 5.09 3.07 4.37 3.72 2.87 3.59 1.04h4.43l5.28-1.11 3.07-3.2 3.13-5.48s1.5-5.74 1.57-6 .33-6.85.33-6.85l-.33-9.39-3-8.02-3.78-4.37-5.35-2.41h-4.96Z" class="st0"/><path d="m383.08 141.96-8.51 3.72s-6.85 5.28-6.95 5.77-4.4 8.71-4.5 9-2.45 7.92-2.45 8.61-1.57 9.68-1.47 10.08 0 14.09 0 14.09l3.23 11.93s3.91 5.67 4.11 6.07 3.91 3.91 3.91 3.91l6.95 5.51 6.75 1.43 8.9.59 9.68-1.08 9.59-4.7 5.09-6.55 3.72-7.63 2.05-7.43.88-8.41V176.7l-1.37-10.66-4.01-10.47-3.33-4.5-10.86-7.34-5.97-1.76-7.92-.59-7.53.59Z" class="st1"/><path d="m389.5 158.13-5.28 1.63s-3.91 4.24-4.04 4.43-2.61 5.41-2.74 5.67-1.04 5.61-1.04 5.8.13 8.54 0 8.8.46 7.11.46 7.11l1.89 5.09 3.07 4.37 3.72 2.87 3.59 1.04h4.43l5.28-1.11 3.07-3.2 3.13-5.48s1.5-5.74 1.57-6 .33-6.85.33-6.85l-.33-9.39-3-8.02-3.78-4.37-5.35-2.41h-4.96Z" class="st0"/><path d="M250.43 143.72h15.95v6.75l4.3-3.91 4.3-2.84 4.99-1.86 8.22-.49 7.24 1.37 4.99 3.18s2.25 4.65 2.35 4.55 1.17 3.52 1.17 3.52l5.77-7.14 6.36-3.91 6.26-1.57h8.32l8.41 1.96 4.3 2.45 3.72 4.99.78 5.87v63.78h-18.29v-56.74l-1.76-4.3-3.33-2.64-2.84-.29-4.99 1.24-2.45 1.4-2.54 3.42s-1.86 2.05-2.15 2.74-1.57 3.91-1.57 3.91l.1 51.26h-17.51l-.29-56.84-2.05-4.21-3.33-2.45-3.33-.59-4.89 1.34-1.96 1.11s-2.45 2.74-2.74 3.03-1.86 2.15-1.86 2.15l-1.27 3.33-.1 53.12h-18.29v-76.7ZM104.5 289.87l-8.47 6.91-9-6.91-3.26-1.17-6.14-.66-5.08 1.83-2.35 3.65v4.31l3 4.3 6.91 2.74 7.24 1.7 9.33 3.91 5.09 3.52 3.39 4.96 1.82 8.74-.65 8.08-4.56 7.44-5.09 5.87-6.52 2.87-6.26 1.43h-7.31l-8.87-.52-4.95-1.7-4.96-3.26-4.83-5.21-3.26-4.57 11.61-8.48 5.48 4.7 6.52 3.39 6 .26 5.22-.65 3.65-2.87.39-4.44-.91-3.52L83.5 323l-15.13-4.43-5.21-3.53-7.18-6.78-2.08-7.04.26-11.61 3.39-5.35 7.82-7.82 7.31-2.61H88.2l7.17 4.17 3.53 3.91zm374.35 0-8.48 6.91-9-6.91-3.26-1.17-6.13-.66-5.08 1.83-2.35 3.65v4.31l3 4.3 6.91 2.74 7.24 1.7 9.33 3.91 5.08 3.52 3.39 4.96 1.83 8.74-.65 8.08-4.57 7.44-5.08 5.87-6.53 2.87-6.26 1.43h-7.3l-8.87-.52-4.96-1.7-4.95-3.26-4.83-5.21-3.26-4.57 11.61-8.48 5.48 4.7 6.52 3.39 6 .26 5.22-.65 3.65-2.87.39-4.44-.91-3.52-4.18-3.52-15.13-4.43-5.22-3.53-7.17-6.78-2.09-7.04.26-11.61 3.4-5.35 7.82-7.82 7.31-2.61h15.52l7.17 4.17 3.52 3.91zM374.77 276.5h-16.51v74.22h17.72v-51.36l6.87-5.94 4.54-2.02 2.33-.56 4.98.11 2.22.67 2.99 2.13 1.77 2.58 1 1.12v53.27h16.95v-58.31l-2.99-8.4-4.76-5.15-4.98-2.35h-17.95l-5.54 3.7-4.21 3.58s-1.33 1.23-2.1 1.68-2.33 1.9-2.33 1.9zm-47.95-1.34h-16.01l-9.78 5.14s-5.34 5.96-5.63 6.3-1.98 3.9-2.57 4.81-1.98 4.36-2.37 5.62-1.38 7.11-1.58 7.79-.59 2.18-.59 2.18v17.31s.79 2.98.79 3.55 0 .92.49 2.41.49 1.49.99 2.75.79 1.72 1.38 2.75.99 1.72 1.78 2.98.59.92 1.58 2.06 1.28 1.15 2.27 2.41 1.38 1.49 2.57 2.41 1.58 1.26 3.06 2.18 1.28.92 2.87 1.6 1.38.57 3.36 1.15 1.48-.11 3.75.52 1.58.29 3.95.63 1.98-.34 4.74 0 2.57-.03 4.54.1 1.68.43 4.05.05 2.47-.49 4.64-.78 2.37-.4 3.95-.63 1.98-.69 3.85-.92 2.67-.8 2.67-.8v-12.95l-5.34-.34s-1.48 0-2.27.11-1.88.46-3.06 1.03-2.77 1.26-4.15 1.49-1.68.11-3.36.34-2.27.34-3.75 0-.99-.34-2.77-.8-2.17-.69-3.36-1.03-.89-.23-2.27-.8-1.98-.8-3.16-1.6-.99-.69-1.88-1.83-1.28-1.15-2.07-2.87-.89-1.72-1.38-3.09-.79-2.18-.99-2.87 0-2.52 0-2.52l42.09-.23v-25.79l-2.27-5.5-3.56-4.81-3.85-4.01-5.83-3.78-5.53-1.7Z" class="st1"/><path d="M305.04 305.23h26.07v-8.81l-2.78-4.28s-1.96-2.14-2.47-2.52-1.65-1.13-2.06-1.26-1.85-.5-2.68-.5-2.37-.25-3.5 0-2.68.38-3.19.63-1.13.38-1.96 1.13-1.13 1.38-1.85 2.14-.93 1.26-1.85 2.14-1.13 1.4-1.85 2.59-1.03 2.7-1.24 3.58-.62 5.16-.62 5.16Z" class="st0"/><path d="M201.07 274h-16.12v103.16h17.21v-26.49l21.57-.23 6.97-3.02 4.58-3.02 3.27-3.02 2.61-3.02 7.63-10.75s1.63-9.18 1.63-9.64V295.9s-2.07-5.69-2.29-6.27-1.53-3.37-2.18-3.95-8.17-9.06-8.5-9.29-2.72-1.39-3.38-1.63-3.05-.46-3.49-.76-2.51.41-3.7 0-1.85.29-3.27 0-3.05.17-3.92 0-2.29-.29-3.38 0-1.85.17-2.4.41-.87.12-1.85.7-.87.35-2.18 1.28-1.85.81-2.29 1.39-.44.58-1.96 1.63-1.85 1.16-2.29 1.74-2.07 2.79-2.07 2.79l-.22-9.93Z" class="st1"/><path d="M202.22 297.98v34.8s3.16 1.65 3.51 1.76 6.32.94 6.32.94h5.91s2.28-.71 2.75-.94 1.64-.59 2.34-1.06 5.5-4.82 5.5-4.82l3.39-7.06s1.05-5.41 1.17-6.11 0-13.52 0-13.52l-1.87-6.11-3.39-5.06-3.39-2.35-4.56-.71s-4.1.59-4.68.82-3.98 1.53-4.33 1.88-3.16 2.12-3.16 2.12l-3.16 2.7-2.34 2.7Z" class="st0"/><path d="m115.17 291.99 10.17 5.87 6.78-7.17 6.13-2.93h7.04l3.65 2.41 1.57 2.64 1.43 3.75v7.96l-10.3-.65-8.09.65s-5.87 2.35-6.26 2.48-4.96 3.26-4.96 3.26l-3.26 3.36-2.87 5.12s-1.96 4.3-2.22 4.96-.78 5.22-.78 5.61.65 8.22.65 8.22l1.83 4.3 4.83 6.13 5.22 3.26 6.85 2.18h7.89l6.52-1.53 4.96-4.04 1.7-1.96 4.3 4.83 4.57 1.83 6 .88 5.35-2.18 3.65-2.09-2.35-12.65h-5.35l-.13-40.57-3.13-10.17-3.52-5.35-4.7-3.91-9-2.64h-14.61l-6.78 2.25-5.09 3.52-4.17 4.83-3.52 7.57Z" class="st1"/><path d="M151.69 317.75v11.41l-2.41 4.76-3.66 2.87-4.04 1.37-4.63-.71-3.46-2.09-2.21-3.59-.98-4.17 1.24-4.18 2.67-3.39 3.46-1.69 2.93-.92z" class="st0"/><path d="M259.2 275.16H277v75.55h-17.8zm9.72-29.9-4.17.33s-3.42 1.86-3.49 1.96-1.89 2.54-1.96 2.64-.98 3.42-1.04 3.62 0 4.92 0 4.92l1.63 3.1 2.41 1.86 2.74.98 3.88.1 3.82-.59 2.77-1.89 2.09-2.61.91-2.67-.13-4.79-1.11-2.74-2.9-2.9-2.51-1.11-2.93-.2ZM579.84 84.24l-2.64 6.75-4.6 5.48-8.41 6.36s-11.15 8.12-11.45 8.32-5.97 5.97-5.97 5.97l-2.05 4.21s-.78 3.52-.88 3.82-3.33 0-3.33 0l-6.85-4.11-2.64-5.18v-7.43l4.89-7.83 9.2-7.92 12.62-7.34 4.5-1.08h17.61Zm-46.96 5.67 11.35-5.67 8.32-7.83 6.85-9.2 6.75-11.84 2.93-5.38-2.05-7.73-6.55 5.58s-7.34 6.85-7.63 7.14-6.95 8.32-7.14 8.61-4.89 9.1-5.09 9.39-3.62 7.43-3.62 7.43l-2.54 5.48-1.57 4.01Zm30.1-14.47 15.17-4.6 18.39-9.39 12.03-8.22 8.8-12.42-2.83-3.33-4.5-.69h-5.58l-7.63 4.99-16.24 11.35-7.92 8.12-7.73 10.57zm181.18 11.44h-12.53l-11.83-2.84-16.34-3.91-13.11-3.91-11.15-8.12-5.97-8.61h7.05l8.6 1.76 8.52 1.57 5.57 1.46 4.4 2.16 6.07 4.4 7.43 5.18 4.9 3.23 3.71 1.76 4.5.78 3.72 1.08 3.42 1.27 1.86.78zm-39.62-51.36v7.44l4.99 9.19 6.94 7.34 8.12 6.26 5.09 3.72 5.09 3.32 6.65 3.43 6.16 3.42 4.4 3.13h2.25l-3.13-7.53-5.57-10.57-6.56-8.21-7.82-7.34-9.2-6.36-9.49-4.89-4.4-2.35zm68.8 60.65 7.7 7.43 4.96 4.5h3.52l.98-4.5-.33-9.13-2.93-6.13-3.39-5.22-7.17-7.43-17.87-16.55-3 .34s-1.04 2.51-1.04 2.71v4.7s2.61 6.26 3.07 7.04 5.48 8.87 5.67 9.39 4.04 6.33 4.17 6.59 3.91 4.7 3.91 4.7l1.76 1.57Zm-18.59 26.22 34.11 1.17 1.17-1.86-2.05-3.33-5.77-1.86-6.95-4.89s-4.11-3.62-4.5-4.11-3.72-4.21-3.72-4.21l-3.72-3.23-3.03-1.27s-5.18-.49-6.07-.49-8.02.49-8.61.49-5.58.39-6.26.49-4.4.49-4.89.68-3.91.98-4.21 1.27-1.37 1.37-1.47 1.76 2.05 2.64 2.35 3.13 3.82 2.54 4.6 3.23 6.65 5.38 6.65 5.38l3.42 2.64 3.72 2.15 3.03 1.86 2.18.98Z" class="st1"/><path d="m697.17 53.69-10.57-3.13-10.37-.98h-9.98l-3.91 2.05s-1.17 3.39-1.17 4.48 2.93 7.94 2.93 7.94 6.07 7.24 6.46 7.83 4.7 5.09 5.28 5.67 8.61 6.07 8.61 6.07 7.63 1.82 9.59 3.25 12.13 2.09 13.89 3.03 9.2 1.53 12.72 2.32 7.24 1.37 7.24 1.37v1.76c0 .78-4.7 3.13-5.48 4.11s-.78 1.57-1.76 3.13-1.57 2.15-1.57 3.13 1.57 4.5 3.72 6.46 1.76 2.35 5.09 5.09 3.33 2.74 7.24 5.28 4.11 1.76 6.65 3.91 2.93 2.35 5.87 3.72 4.43 1.57 7.11 1.96 2.09-1.37 6.59 0 5.87.98 8.22 1.37 3.13-.39 6.07 0 4.89-.56 7.43.11 4.5-.87 5.28 0 1.04-.31 1.7 1.06-.26 11.15 0 12.13.24 1.96.24 1.96l-3.11-.42-7.04-1.17-3.42-.29s-3.36-.1-4.08-.1-4.24.88-4.73 1.08-3.03.88-4.11 1.37-2.74 1.17-3.91 1.76-1.76.78-2.25 1.76-.78 1.86-1.37 3.23-1.08 1.57-1.27 3.23-.26 1.86-.23 2.93-.07 1.17.42 2.05.68 1.17 1.66 1.66 1.73.2 2.57 0 1.44-.49 2.51-1.17 2.15-1.57 2.84-2.45.98-1.47 2.05-2.45 1.57-1.57 2.64-2.15 1.37-.78 2.15-1.08 2.64-.39 3.82-.39 1.47-.39 3.42.1 2.54.29 3.72 1.27 1.57 1.17 2.45 2.25 1.37 1.37 2.35 2.93 1.17 1.47 1.86 3.13.74 1.47 1.06 3.42.12 2.25.22 3.72-.04 1.66-.22 3.23-1.94 9.78-2.13 10.27-.39 1.76-.98 3.23-.98 2.45-1.37 3.91-.59 1.86-1.47 4.3-1.08 2.84-1.86 4.89-.98 2.54-1.86 4.5-.49 1.66-1.66 3.72-.98 1.86-2.25 3.52-.59 1.17-2.05 2.45-1.37 1.37-3.03 2.45-1.27.98-3.42 1.96-2.74 1.08-4.6 1.76-3.03.49-4.01.98-1.17.1-2.54 1.27-1.76.98-2.35 1.96-1.66 2.54-1.66 2.54-.68 1.76-.88 3.82-.2 2.35-.29 4.4-.29 2.54-.1 5.58.29 1.47.29 4.79-.2 4.01-.2 5.48-.2 2.38 0 3 .59 4.34.2 5.71-.29 3.52-.88 5.58-.88 3.33-1.57 5.18-.78 2.35-2.05 4.79-1.57 3.03-3.33 4.99-7.63 16.63-7.83 17.12-1.66 6.55-2.05 8.22-.98 3.82-1.57 5.67-.78 2.74-1.27 4.3-.78 2.15-1.27 4.21 0 1.08-.98 3.03-3.62 8.02-4.3 8.51-1.27 1.27-2.05 1.86-1.27.68-2.74 1.66-1.76.98-3.23 1.96-1.57 1.17-3.13 1.86-2.25.98-3.03 1.17l-.78.2s-.98-1.17-1.27-2.05-.2-1.57-.29-2.64-.2-1.27-.39-2.54-.29-1.96-.59-3.23-.2-1.47-.59-2.64-.29-1.76-.98-2.35-1.47-1.27-1.47-1.27-.1-.59-1.27-.2-1.27.1-1.96.88-.78.2-1.08 1.96-.29 1.66-.49 3.62-.2 2.05-.29 3.72-1.47 10.37-1.47 10.37l-6.65 10.57s-3.39 4.83-3.91 5.35-1.96 1.43-2.74 2.09-1.3.78-2.61 1.7-1.43 1.17-3.13 1.83-2.35 1.04-3.78 1.43-2.09.65-3.91 1.17-1.57.39-3 .91-1.04.39-2.74 1.04-1.37.26-4.21 1.57-2.32 1.17-4.53 2.35-1.83.78-3.52 1.96-1.17.65-2.74 2.09-1.7 1.57-2.35 2.22-7.43 8.09-8.09 8.61-3.26 2.74-4.3 3.26-1.3.78-2.61 1.57.91 0-3.13 1.96-4.43 2.22-5.74 3-.91.78-2.09 1.3-1.57.65-2.09.65-1.57-.78-1.96-1.17-.26-1.57-.52-1.96-.39-1.04-1.04-1.83-.39-.78-1.7-2.48-2.09-2.74-2.09-2.74-.39-.52-1.43-1.17-2.48-1.43-2.48-1.43l-7.3-7.43-5.87-3.52-6.13-4.3s-5.35-3.13-6.13-3.52-4.96-3.13-5.35-3.26-2.09-1.57-3.13-2.61-1.96-1.96-2.87-3.39-1.7-2.35-2.48-3.65-1.3-1.7-2.09-3.52-1.3-3-2.09-4.7-1.43-3-1.96-4.17-8.22-17.61-8.22-17.61-1.04-5.35-1.83-7.04-1.04-1.96-1.17-3.39.26-2.09 0-4.43-.32-3.13-.03-4.57.29-1.7.55-3.65.39-2.48.39-4.57.13-3.13.13-5.35.26-1.83-.13-2.87-1.49-3.91-1.13-4.3-6.43-13.17-6.43-13.17-.52-2.48-.65-3.65.26-1.96 0-3.78.21-1.43-.03-4.04.29-3.39.81-5.35.52-2.09 1.17-3.65.91-1.96 1.96-4.04 1.17-2.48 2.35-4.57 1.43-2.35 2.48-4.17 1.43-2.87 2.61-4.96 1.3-2.35 1.7-4.17-.13-14.74-.13-14.74 0-1.7-.39-3-1.7-11.48-1.7-11.48.13-2.09.26-3 .13-1.04.39-2.87.39-2.35.91-4.3.65-2.22 1.17-4.7.26-4.04.26-6.26-.91-25.7-.91-25.7l1.17-2.74s.39-.65.78-.78 2.35-.52 3.13-.78 2.35-.39 3.52-.39 2.22-.13 3.26-.13h8.48c1.83 0 2.22.13 5.09.26s3.65-.26 5.09.13 1.83.39 3 .91 1.17.13 1.83 1.43.91.91 1.04 2.87 1.17 6.78 1.3 9 .13 2.74.13 5.09.52.52 0 4.7-.91 5.61-1.3 7.83-.13 1.83-.91 5.09-.78 2.48-1.17 5.61-.39 2.22-.52 5.22-.13 2.74-.39 5.87-.39 2.61-.39 5.48-.26 2.74.13 6.78.78 4.83 1.04 6.39.39 3 .39 3l-.13 2.48s.39.39-1.7 1.57-3.65 1.3-4.96 2.22-1.17.65-3.13 2.48-1.96 1.83-3.13 3.26-1.43 1.43-2.74 3-1.3 1.7-3 3.26-2.22 1.04-3.78 2.87-1.3.26-2.09 3.13-.91 2.09-1.04 3.85-1.3 6.59-1.3 6.59.26.65.39 1.17.39 1.04.78 1.57-.52-.39.39.52 1.43 1.04 2.22 1.04 1.7 0 2.22-.65 1.3-1.3 2.09-2.22 1.57-1.3 2.61-2.74 1.7-2.28 3-4.21 1.7-2.18 2.35-3.49 1.04-1.7 2.35-3.65 1.83-2.87 3.39-4.7 2.22-2.35 3.39-3.39 2.09-1.43 3.65-2.87 2.09-1.96 2.87-3.13 1.17-1.57 1.7-2.09 1.17-1.04 1.7-1.04 1.7.13 3 1.17 2.22 1.43 3.26 2.09 1.7.91 4.04 1.57 2.35.52 4.43.65.65-.13 4.43-.26 4.17-.13 6.39-.52 2.22-.91 4.04-1.17 4.57-1.17 6.26-1.96 2.09-1.43 2.87-1.7l1.96-.65s.78-.78 1.57.52.78 2.09 1.57 3.13.91 1.04 2.74 2.35.91 1.17 3.52 2.74 3 1.57 4.7 2.48 1.57.78 3.65 1.96 2.74 1.17 4.7 2.35 2.2.78 3.97 2.09 2.03 1.17 3.47 2.61 1.57.78 2.61 3 1.17 3.39 1.96 5.22.26 1.3 1.43 3.65 1.04 2.48 1.83 3.91.52 1.96 1.7 2.48 1.57.39 2.48.52 1.7-.13 2.09-.26 1.17-.39 1.83-2.09 1.04-1.96 1.04-3.65.26-2.48-.26-4.17-.39-1.76-1.3-3.69-.78-2.44-1.96-4.53-.91-2.48-3-4.57-2.48-2.22-3.52-3.13.26-.39-3.65-3.13-4.72-3.26-6.73-3.78-.97-.13-3.84-1.3-4.04-1.43-6.13-2.35-2.35-.91-3.52-1.83-2.22-1.43-3.39-2.61-.78-.39-1.57-2.35-.91-3-1.3-4.43.13-1.04-.39-2.74-.39-2.22-1.04-3.39-.78-1.3-1.17-1.83-2.09-1.83-2.09-1.83-.65-.52-1.17-.52-3.52.26-4.17 1.17-.78 2.09-1.17 3.39-.52 2.48-1.17 3.78-1.04 2.48-2.09 3.13-.78.78-3.39 1.7-2.87 1.17-4.7 1.3-5.74.52-7.96.78-2.74.26-3.91.13-1.83-1.5-4.57-1.66-2.87-.29-3.52-.95-.78-.91-1.83-2.61-1.04-1.57-1.7-4.04-1.17-3.13-.78-4.43.39-7.17.39-7.57 0-1.43.13-3.13.26-1.96.52-3.65.26-.78.78-4.04.52-4.57 1.04-7.3 1.43-6.13 1.57-7.04.39-16.04.26-16.57-.13-1.43-.13-3.91-.13-3.91-.26-5.09-.52-2.09-.52-2.09l-3.52-6.39s-.39-.52-2.74-1.96-3.78-2.48-4.96-2.61-2.87-.39-3.91-.39-2.09-.26-3.91-.26-2.87-.26-5.35-.26-2.87-.13-5.22 0-2.48.13-4.7.78-2.87.65-5.87 1.17-3.91.39-5.48.78-2.58.26-3.77.39-2.36-3.26-2.36-3.65-.26-1.17-.26-2.35 0-1.17-.13-3-.39-2.48-.39-5.22-.13-3.26 0-4.83 5.61-7.96 5.61-7.96 1.57-1.7 2.22-2.35 1.57-1.17 3.52-2.48 2.74-1.57 4.57-2.87 1.96-1.43 4.04-3 2.74-2.22 4.96-3.65 3.65-2.61 5.09-3.78 1.7-1.3 3.39-3.52 1.96-1.96 2.61-4.17 0-15.39 0-15.39.13 0 .52-.65.13-1.3 1.37-1.96 1.63-1.17 3.2-2.09 3.52-1.57 4.7-2.22 1.96-1.04 3.13-1.7 1.3-.78 2.74-1.7 1.17-.91 4.17-2.48 3.65-1.83 4.83-2.87.78-.16 2.87-2.23 5.61-7.16 5.61-7.16.13-.78.39-1.3.78-1.04 1.43-2.22 1.04-2.09 1.7-3.52.78-1.43 1.57-2.67 1.3-2.02 2.61-2.41 3-.65 4.7-1.17 2.74-.78 5.48-1.43 3.78-.78 5.09-1.17 7.17-.91 8.48-1.17 7.57-1.04 8.61-1.04 3.26-.65 4.57 0 3.39.26 3.39.26.78 0 1.57.13 1.96.39 2.87.52.65.72 1.96.75 2.09.16 3.13.55 1.43-.26 2.35.72 2.09 1.24 2.61 1.63 1.04.39 1.83.91 1.17.91 2.22 1.57.91.39 2.09 1.37 1.83 1.24 2.61 2.02.78.52 1.57 1.3 1.17 1.3 1.7 1.96.39.65.78 1.3.52.78.78 1.43.78 1.3 1.04 1.83.26 1.7.26 1.7l-1.6-.13Z" class="st1"/><path d="m465.61 462.14 89.74 1.17 90.39-47.74-1.96-2.09s-4.04.52-4.57 0-1.17-.91-2.35-.91-2.74.39-4.96 0-2.87-.52-5.61-.65-4.17-.39-6.13-.52-1.3.91-3.91 0-3.52-1.04-4.83-1.7-39.26-23.22-39.26-23.22l-10.7-16.96-4.04-13.7-17.22 4.3s-1.04.39-2.61.91-2.87 1.04-4.83 1.83-2.35.52-5.48 1.7-3.91 1.43-6 2.48-1.3 1.17-4.83 3-3.65 1.83-6.13 3.52-1.3.78-4.17 3.13-2.22 1.57-4.83 4.3-2.48 3-4.57 4.96-2.48 2.09-3.91 3.52-1.83 1.57-3.65 3.91-1.57 2.35-3.78 5.61-4.04 5.35-4.96 7.17-5.87 16.83-6.39 17.74-.91 1.83-1.57 3.39-.65 1.3-1.43 4.04-.91 3-1.43 5.22-.52 2.48-1.17 4.83-.91 4.04-1.3 5.74-.39 1.43-.65 4.04-.26 4.96-.39 5.74-.52 5.22-.52 5.22Z" class="st1"/><path d="m582.74 463.32 34.57-17.35 37.57-21.26 45-31.3 28.3-27.78 14.22-17.61 9.91-13.96 7.04-12.91 3.13-5.48v-.91h2.74s1.04.26 1.43.65.78.26 1.96 1.04 1.43.91 2.61 1.43 2.22.91 2.87 1.3 1.17.52 1.57.91 1.04.65 1.57 1.04.65-.13.91 1.04-.26.91 0 2.61.28 2.09.08 3.39-.6 2.48-.99 4.17-.52 2.22-1.17 4.3-1.17 3-1.7 4.7-.39 1.17-1.43 4.3-19.17 38.35-19.17 38.35-12.52 16.57-13.17 17.61-11.35 13.04-12 13.96-20.09 19.3-20.09 19.3l-10.96 9.13-25.43 19.3h-89.35Z" class="st1"/><path d="m694.79 463.32 71.22-1.17 21.52-20.35 5.74-8.09 10.17-16.96 6-13.5s4.3-10.5 4.3-10.89 4.43-14.87 4.43-14.87l1.3-8.74 1.43-12.91v-19.57l-29.09-10.7s-4.57 15.52-4.83 16.17-2.35 7.04-2.74 8.74-1.7 4.83-2.61 7.17-3.78 8.74-4.96 10.96-3.39 5.87-4.43 8.22-1.96 4.43-3.26 6.91-2.48 4.83-3.78 6.78-1.96 2.61-3.65 5.35-1.96 3.13-3 4.7-2.22 2.48-3.65 4.83-26.74 28.83-26.74 28.83l-9.13 8.48-7.3 6.39-5.61 4.7-7.04 6.13-4.3 3.39Z" class="st1"/><path d="M575.44 166.45h-4.5s-1.96.98-2.25 1.17-1.96 1.08-2.15 1.37-1.57 1.66-1.96 2.54-.49 3.13-.49 3.82 1.76 2.35 2.05 2.74 2.25 1.27 2.54 1.47 3.42.49 3.42.49h3.33c.49 0 5.58.1 5.87 0s2.93-.68 2.93-.68l3.72-.98 1.76-2.25s.78-1.57.78-1.86v-2.64l-3.33-3.33-2.84-1.86h-8.9Zm79.83-1.37h-4.5s-1.96.98-2.25 1.17-1.96 1.08-2.15 1.37-1.57 1.66-1.96 2.54-.49 3.13-.49 3.82 1.76 2.35 2.05 2.74 2.25 1.27 2.54 1.47 3.42.49 3.42.49h3.33c.49 0 5.58.1 5.87 0s2.93-.68 2.93-.68l3.72-.98 1.76-2.25s.78-1.57.78-1.86v-2.64l-3.33-3.33-2.84-1.86h-8.9Zm-27.36-11.48 8.87-.52s5.61-1.7 6-1.83 5.22-.91 6.78-1.3 3.52-.65 4.04-.78 4.7 0 5.61 0 3.91-.25 4.57-.06 5.48.97 5.48.97l6.65 3 5.22 2.22 3 1.3 2.22.78 2.48.52h1.96l1.17-.78s-.26-3.26 0-3.65-1.43-2.22-1.43-2.22-1.57-2.21-1.96-2.22-2.74-1.57-3.13-1.83-3.52-1.96-3.52-1.96l-5.87-2.22-5.71-1.43-7.21-1.3s-6.78.13-7.7.26-8.35.52-8.35.52l-4.43.65s-2.22.78-3.26 1.04-4.83 1.3-4.83 1.3-2.48.65-3 .91-3.65 1.7-3.65 1.7l-2.09 2.41v2.8l2.09 1.7Zm144.32 15.39-3 2.09-3.78 6s-3.65 10.17-3.78 10.57-3.39 11.87-3.39 11.87-.91 4.57-.91 4.96 1.96 4.04 1.96 4.04l1.96.52 3.52-2.35 1.57-3.52 9.13-24.45 1.83-6.82-1.83-2.91h-3.26ZM740.8 132.6s2.48 5.22 2.48 5.74.78 16.04.78 16.04l.78 22.17v9.91s-1.3 10.43-1.3 10.83-3 6.65-2.74 7.43-3.39 9.26-3.39 9.26-4.04 5.74-4.57 6.52-3.13 4.04-4.04 4.83-1.7 1.7-2.87 3.26-2.22 2.48-3.13 3.91-3 5.87-3.52 6.91-.91 1.57-1.43 3.39-.65 1.43-1.04 3.78-1.04 4.43-1.43 6.65-.52 1.43-.52 2.67-1.17 10.24-1.17 10.24l-1.3 2.48-2.48 1.43s-1.7.26-2.35 0-2.74-1.57-2.74-1.57l-.78-4.17.52-7.34 1.7-10.27 2.74-9.91 2.87-8.09 3.52-6s3.52-4.2 3.65-4.32 3.26-2.46 3.78-2.99 6-8.61 6-8.61l2.74-5.42 1.83-5.41 1.17-5.74-.52-30.65-.13-16.17.91-5.22 1.43-3.52 1.57-2.09h3ZM609.71 285.08l4.5 1.37h12.52l5.29-.69 2.34-1.66v-2.94l-2.93-2.15-4.7-1.76h-11.54l-3.91 2.15-2.35 2.45z" class="st0"/><path d="m583.69 285.73 3.39-.91 3.13-2.97s1.04-3.42 1.04-3.82 1.43-4.04 1.7-4.57 3.26-3.28 3.26-3.28l5.48-2.07 5.48-1.3 7.43-1.3h5.87l9.91 1.04s5.09.65 5.48.78 5.74 1.7 5.74 1.7 3.26 1.43 4.04 1.96 2.87 2.61 3.52 3.26 2.35 2.35 2.74 3 2.48 4.37 2.74 4.6 1.43 3.49 1.83 3.88.78.78 1.3 1.43.26.65 1.43 1.04 2.09.13 2.74 0 1.96-1.7 2.09-1.76.65-1.5.65-2.02-.26-2.15 0-2.58-.39-2.38-.65-3.03-1.43-3.39-1.43-3.39l-2.35-3.91-2.48-2.48-5.87-5.22-7.43-3.52-6.91-2.22-13.34-2.15-15.29.59-9.33 2.09-9 3.52-3.78 3.52-3.13 3.91-1.83 3.52-1.57 4.17-.65 2.74.91 3.78 1.17 1.57 1.96.39Zm13.89 23.8-2.09 4.7-2.35 3.65s-2.35 3.13-2.61 3.65-1.3 2.48-1.57 3.26-.91 2.61-1.04 3.26-1.04 5.48-1.04 5.48v4.57l.65 4.17.26 2.87-.91 2.87-1.96 1.57h-3.13l-2.15-1.3-2.02-3.13-1.04-4.04-.65-5.61.65-7.83 1.3-5.09 3.13-7.04 4.96-5.09 4.57-3.65 3.13-1.17h2.74l1.17 1.57v2.35Zm23.48 18.07-4.04 2.8-2.48 4.96-1.7 4.83s-1.04 5.09-1.04 5.61v4.7c0 .39-.26 4.04 0 4.7s-.62 4.83-.12 5.48 1.29 3.26 1.42 4.17 1.04 3.39 1.57 4.3.77 2.48 1.62 3 2.29 1.43 2.29 1.43l2.48.65h1.43l1.3-2.22s.65-2.48.65-3v-3.39s-.91-3.13-1.17-3.78-.26-2.61-.39-3.26-.39-4.83-.39-6-.13-3.26 0-4.57.39-3.39.52-4.43.26-2.22.39-3.39.39-2.09.52-3 .26-1.3.52-2.35-.39-2.48 0-3.26.26-2.09.06-2.61-1.37-1.37-1.37-1.37h-2.09Zm32.74-15.33-3.39 2.48v3.13s-.52 3.39 0 3.78 2.61 3.65 2.74 3.91 1.3 2.22 1.83 2.87 1.17 1.57 1.57 2.48 1.04 1.83 1.17 3.13-.26 2.22 0 3.91.05 2.74.03 4.3-.42 2.87-.68 4.04-.52 2.09-.78 3.26-.39 1.04-.39 2.09-.39 1.17 0 2.22.91 2.09 1.57 1.96 1.57 0 1.96 0 1.17.78 1.7 0 2.09-1.96 2.09-1.96l1.56-1.17s.79-1.63 1.05-1.79.78-.16 1.17-1.34.67-7.7.67-7.7v-11.09l-1.2-3.2-1.7-3.07-1.3-3.26-2.48-3.78-2.06-2.74-2.5-2.48h-2.61Z" class="st0"/></svg>