<?xml version="1.0" encoding="UTF-8"?>
<svg id="_Слой_1" data-name="Слой_1" xmlns="http://www.w3.org/2000/svg" version="1.1" viewBox="0 0 872 514">
  <!-- Generator: Adobe Illustrator 29.8.1, SVG Export Plug-In . SVG Version: 2.1.1 Build 2)  -->
  <defs>
    <style>
      .st0 {
        fill: #fff;
      }

      .st1 {
        fill: #28a737;
      }
    </style>
  </defs>
  <rect class="st1" x=".06" y="-.13" width="871.88" height="514.27" rx="125.11" ry="125.11"/>
  <path class="st0" d="M108.55,178.53h75.39l.23,106.76h12v44.58h-22.43c.65,0-.26-24.88-.26-24.88l-72,.13v24.75h-21.65v-44.32h11.35s23.09-80.41,17.38-107.02Z"/>
  <path class="st1" d="M132.06,199.66h27.39v85.57h-40.96s12.23-52.09,13.57-85.57Z"/>
  <polygon class="st0" points="212.93 178.53 239.8 178.53 239.8 230.9 282.58 230.9 282.58 178.53 308.15 178.53 308.15 307.07 282.85 307.07 282.58 251.24 239.54 251.5 239.28 307.07 212.93 307.07 212.93 178.53"/>
  <polygon class="st0" points="327.98 178.53 353.41 178.53 353.41 231.16 360.06 231.16 395.67 178.53 422.28 178.53 381.98 238.4 427.37 303.74 396.45 303.74 361.04 252.48 353.41 252.29 353.41 304.92 327.98 304.92 327.98 178.53"/>
  <path class="st0" d="M542.22,126.29s24.98,2.74,47.15,2.74,60.48-1.45,76.3-2.74,79.04-6.46,79.04-6.46c0,0,.75-12.75-2.35-27.85-1.4-2.58-.16-8.77-10.04-22.17s-4.34-6.82-14.22-15.39-14.22-10.57-28.04-15.52-26.35-5.48-33-5.74-26.61-1.04-37.17,1.04-20.87,5.48-30.39,10.43-16.34,10.92-26.35,21.91-10.4,15.52-15,27.39-4.83,11.32-5.93,20.74,0,11.61,0,11.61Z"/>
  <path class="st0" d="M490.73,126.19c-5.15,0-9.33,4.5-9.91,6s.07,5.54.78,7.7,8.22,7.28,10.43,8.09,31.08,12,34.17,12.52,42.78,9.1,54.39,9.39,134.67-8.15,141.78-8.35,21,2.61,21,2.61c0,0-8.07-1.06.3.12s20.57,8.48,20.57,8.48c0,0,10.27,8.09,12.26,10.17s8.22,12,8.22,12l4.7,7.17s3.75-1.97,8.22-4.57,9.64-8.56,11.87-12.91,3.91-8.87,3.91-13.83-1.7-7.7-1.7-7.7c0,0-5.18-7.5-10.7-11.48s-16.47-8.48-20.74-9.91-27.36-2.22-31.83-2.35-115.43,6.52-115.43,6.52l-66.39-.39-11.61-1.43s-59.15-17.87-64.3-17.87Z"/>
  <polygon class="st0" points="532.86 174.61 525.81 181.26 521.51 189.87 521.51 203.18 523.86 215.9 525.62 226.85 525.03 238.79 525.23 248.96 528.36 260.7 529.92 270.68 528.55 277.13 515.9 302.57 512.64 318.35 512.12 332.18 513.42 340.62 514.4 348.97 512.44 355.36 506.12 366.48 501.94 380.57 501.94 388.92 507.94 401.44 514.47 410.31 516.29 415.53 516.29 425.96 519.94 436.66 528.03 443.44 539.25 449.7 551.51 449.7 561.68 449.7 568.2 455.7 579.16 463.26 588.55 465.87 600.81 465.87 614.9 460.13 624.55 452.57 631.86 445.26 634.73 444.22 649.33 444.74 667.07 437.44 677.25 429.09 684.81 418.13 686.38 404.31 691.6 399.87 699.16 396.74 707.77 389.18 710.9 380.05 710.9 371.18 712.2 359.96 715.33 356.57 726.55 344.05 730.47 334.4 732.81 320.24 731.51 310.4 729.16 299.96 723.94 290.05 723.68 282.48 737.25 280.13 747.42 273.09 758.38 258.74 764.64 241.72 766.99 228.22 764.9 214.4 758.12 202.1 747.68 192.74 731.77 183.35 714.55 178.53 532.86 174.61"/>
  <ellipse class="st1" cx="554.15" cy="223.74" rx="8.71" ry="10.39"/>
  <ellipse class="st1" cx="632.9" cy="227.6" rx="9" ry="10.83"/>
  <polyline class="st1" points="729.39 254.96 733.24 254.96 737.74 250.46 741.58 242.76 743.67 234.16 743.28 225.29 740.67 219.42 737.35 221.83 734.48 227.7 732.45 233.18 730.95 239.96 729.39 248.31"/>
  <polygon class="st1" points="554.35 318.61 551.87 323.24 552.45 327.22 555.39 328.98 559.3 328.98 570.85 327.16 595.56 327.03 598.11 327.74 603 328.66 606.78 329.5 611.41 330.55 615.26 329.24 617.15 326.7 617.15 325.07 615.91 322.79 614.41 320.57 611.48 318.61 607.43 317.11 604.24 316.2 593.74 315.87 584.51 315.61 565.69 315.61 559.82 316.92 555.26 318.16 554.35 318.61"/>
  <polygon class="st1" points="534.32 314.31 537.85 314.31 543.72 308.24 551.87 298.85 559.17 291.42 565.24 287.9 571.5 290.05 581.67 291.81 593.41 291.81 601.04 290.44 607.89 285.94 612.98 280.66 617.15 283.98 622.37 289.85 627.06 297.48 630.58 307.26 634.47 311.18 637.63 310.79 640.37 307.26 640.37 301.79 636.65 291.42 630.78 280.66 622.56 273.22 614.93 269.11 607.5 269.11 600.65 275.96 597.32 278.5 594.19 280.26 579.13 280.46 574.24 279.29 568.56 276.74 565.43 273.03 563.87 269.11 569.74 257 577.95 239.96 582.65 223.74 584.51 216.78 583.63 208.66 580.89 202.1 573.85 195.94 565.43 192.03 557.8 190.85 549 192.81 539.22 196.53 532.37 201.03 534.91 206.11 537.26 207.29 541.76 207.87 547.43 206.11 556.82 203.37 562.86 203.57 567.39 205.53 571.11 209.83 572.28 214.72 572.08 223.74 569.54 231.74 561.91 250.13 557.22 259.72 554.15 265.79 553.11 271.66 554.15 276.55 555.45 278.31 556.24 280.26 555.65 282.42 551.87 283.2 548.22 285.74 543.52 290.63 537.65 297.48 534.32 302.18 532.37 307.85 532.37 312.94 534.32 314.31"/>
  <polygon class="st1" points="608.48 206.24 612.78 207.81 620.8 206.24 629.41 202.92 635.48 205.36 647 209.96 656.41 213.35 662.28 212.31 664.24 208.13 649.95 198.03 636.36 192.35 631.56 190.85 622.37 190.85 613.37 194.5 608.48 197.63 606.13 202.1 606.13 205.46 608.48 206.24"/>
</svg>