<?xml version="1.0" encoding="UTF-8"?>
<svg id="main" xmlns="http://www.w3.org/2000/svg" version="1.1" viewBox="0 0 872 514">
  <!-- Generator: Adobe Illustrator 29.8.1, SVG Export Plug-In . SVG Version: 2.1.1 Build 2)  -->
  <defs>
    <style>
      .st0 {
        fill: #0f6fc7;
      }

      .st1 {
        fill: #fff;
      }

      .st2 {
        fill: #4ebcf4;
      }
    </style>
  </defs>
  <rect class="st0" width="872" height="514" rx="125" ry="125"/>
  <path class="st1" d="M79.45,166.67h-9.65v57.91h10.3v-14.87l12.91-.13,4.17-1.7,2.74-1.7,1.96-1.7,1.57-1.7,4.57-6.03s.98-5.15.98-5.41v-12.39s-1.24-3.2-1.37-3.52-.91-1.89-1.3-2.22-4.89-5.09-5.09-5.22-1.63-.78-2.02-.91-1.83-.26-2.09-.42-1.5.23-2.22,0-1.11.16-1.96,0-1.83.1-2.35,0-1.37-.16-2.02,0-1.11.1-1.43.23-.52.07-1.11.39-.52.2-1.3.72-1.11.46-1.37.78-.26.33-1.17.91-1.11.65-1.37.98-1.24,1.57-1.24,1.57l-.13-5.58Z"/>
  <path class="st0" d="M80.62,180.43v19.3s1.76.91,1.96.98,3.52.52,3.52.52h3.29s1.27-.39,1.53-.52.91-.33,1.3-.59,3.07-2.67,3.07-2.67l1.89-3.91s.59-3,.65-3.39,0-7.5,0-7.5l-1.04-3.39-1.89-2.8-1.89-1.3-2.54-.39s-2.28.33-2.61.46-2.22.85-2.41,1.04-1.76,1.17-1.76,1.17l-1.76,1.5-1.3,1.5Z"/>
  <path class="st1" d="M118.51,166.57v43.34h10.76v-27.78l3.62-4.6,2.25-1.86,1.86-.39,1.86-.52,2.05.52.98.49,1.17.78s.68.88.88,1.27.98,2.25.98,2.25l.88,2.54v.88h10.27v-4.6l-.98-2.74-2.35-4.3-2.45-2.35s-.98-.98-1.27-1.17-2.45-1.37-2.45-1.37c0,0-1.08-.3-1.57-.39s-2.64.39-3.03,0-1.47.36-1.86-.01-1.27-.22-1.86-.1-1.08.41-1.76.51-.78.1-1.37.39-1.17.39-1.76.88-.59.49-1.37,1.17-1.37.88-1.86,1.47-.88.88-1.17,1.27l-.29.39-.29-5.97h-9.88Z"/>
  <polygon class="st1" points="163.71 167.51 163.71 174.75 177.5 174.75 177.5 201.23 162.05 201.23 162.05 209.9 201.08 209.9 201.08 201.23 187.58 201.23 187.29 167.51 163.71 167.51"/>
  <circle class="st1" cx="182.13" cy="155.73" r="6.9"/>
  <path class="st1" d="M216.91,166.7h-9.72v43.21h10.43v-29.9l4.04-3.46,2.67-1.17,1.37-.33,2.93.07,1.3.39,1.76,1.24,1.04,1.5.59.65v31.01h9.98v-33.95l-1.76-4.89-2.8-3-2.93-1.37h-10.57l-3.26,2.15-2.48,2.09s-.78.72-1.24.98-1.37,1.11-1.37,1.11v-6.33Z"/>
  <path class="st1" d="M262.11,154.57h10.66v12.95h18.59v8.77h-18.68v19.76l.39,1.96.98,1.17,1.66,1.27,2.25.68h7.43l1.86-.78,2.25-.29,1.86.2v7.53l-5.38,2.12h-15.65l-4.21-2.02-1.57-1.37-.98-1.37s-.49-1.27-.68-1.57-.49-1.47-.78-2.25,0-25.14,0-25.14l-10.17-.29v-8.38h10.08l.1-12.95Z"/>
  <path class="st1" d="M328.95,157.24l-7.57-7.3-9.26,11.35-6.52,14.09-1.7,12.93.78,9.37s1.7,6.91,1.96,7.43,3.91,7.57,3.91,7.57l5.87,7.43,5.35,6.52,7.17-6.91-7.17-9.82-4.04-6.88-3.26-8.22-.91-9.91,1.04-7.96,3.65-7.7,10.7-12Z"/>
  <path class="st1" d="M386.99,333.66l7.1-7.3,8.7,11.35,6.12,14.09,1.59,12.93-.73,9.37s-1.59,6.91-1.84,7.43-3.67,7.57-3.67,7.57l-5.51,7.43-5.02,6.52-6.74-6.91,6.74-9.82,3.8-6.88,3.06-8.22.86-9.91-.98-7.96-3.43-7.7-10.04-12Z"/>
  <rect class="st1" x="74.28" y="243.85" width="9.65" height="21.13"/>
  <rect class="st1" x="93.04" y="243.85" width="9.65" height="21.13"/>
  <rect class="st1" x="346" y="329.61" width="9.65" height="21.13"/>
  <rect class="st1" x="364.76" y="329.61" width="9.65" height="21.13"/>
  <polygon class="st1" points="113.74 244.99 124.56 244.99 124.56 266.12 143.02 266.12 143.02 244.99 153 244.99 153 300.2 143.02 300.2 143.02 274.67 124.43 274.67 124.24 300.2 113.74 300.2 113.74 244.99"/>
  <path class="st1" d="M185.35,257h-10.57l-6.46,2.93s-3.52,3.39-3.72,3.59-1.3,2.22-1.7,2.74-1.3,2.48-1.57,3.2-.91,4.04-1.04,4.43-.39,1.24-.39,1.24v9.85s.52,1.7.52,2.02,0,.52.33,1.37.33.85.65,1.57.52.98.91,1.57.65.98,1.17,1.7.39.52,1.04,1.17.85.65,1.5,1.37.91.85,1.7,1.37,1.04.72,2.02,1.24.85.52,1.89.91.91.33,2.22.65.98-.07,2.48.29,1.04.16,2.61.36,1.3-.2,3.13,0,1.7-.02,3,.06,1.11.24,2.67.03,1.63-.28,3.07-.44,1.57-.23,2.61-.36,1.3-.39,2.54-.52,1.76-.46,1.76-.46v-7.37l-3.52-.2s-.98,0-1.5.07-1.24.26-2.02.59-1.83.72-2.74.85-1.11.07-2.22.2-1.5.2-2.48,0-.65-.2-1.83-.46-1.43-.39-2.22-.59-.59-.13-1.5-.46-1.3-.46-2.09-.91-.65-.39-1.24-1.04-.85-.65-1.37-1.63-.59-.98-.91-1.76-.52-1.24-.65-1.63,0-1.43,0-1.43l27.78-.13v-14.67l-1.5-3.13-2.35-2.74-2.54-2.28-3.85-2.15-3.65-.97Z"/>
  <path class="st0" d="M171.13,274.6h16.5v-4.57l-1.76-2.22s-1.24-1.11-1.57-1.3-1.04-.59-1.3-.65-1.17-.26-1.7-.26-1.5-.13-2.22,0-1.7.2-2.02.33-.72.2-1.24.59-.72.72-1.17,1.11-.59.65-1.17,1.11-.72.72-1.17,1.34-.65,1.4-.78,1.86-.39,2.67-.39,2.67Z"/>
  <polygon class="st1" points="207 241.31 207 249.72 219.58 249.72 219.78 291.46 207 291.46 207 300 242.28 300 242.28 291.65 229.56 291.59 229.5 241.31 207 241.31"/>
  <polygon class="st1" points="251.93 241.31 251.93 249.72 264.52 249.72 264.71 291.46 251.93 291.46 251.93 300 287.21 300 287.21 291.65 274.5 291.59 274.43 241.31 251.93 241.31"/>
  <path class="st1" d="M319.5,257h-11.05l-4.79,1.98s-4.3,2.45-4.4,2.74-1.37,1.86-1.66,2.35-2.54,4.3-2.84,5.18-.98,3.33-1.08,4.3,0,12.42,0,12.42l.88,3.13s2.05,3.91,2.25,4.3.88,1.08,1.66,2.05,1.86,1.76,2.54,2.15,1.17.68,2.35,1.08,2.11.39,3.21.78,2.86.52,2.86.52h11.35l3.23-1.5s2.45-1.47,2.84-1.96,2.25-2.05,2.74-2.45.88-.88,1.47-1.76.88-1.47,1.27-2.15,1.08-2.25,1.37-2.84,1.08-2.64,1.08-2.64v-13.5l-1.37-4.4-3.42-4.89-2.35-2.05-2.15-1.17-2.45-.98-3.52-.71Z"/>
  <path class="st0" d="M310.2,265.88l-3.47,2.98-1.81,4.79s-.49,2.1-.54,2.89-.15,2.49,0,3.57.34,2.59.49,3.57.39,2.01.73,2.64,1.47,2.01,1.91,2.45,2.01,1.47,2.45,1.81,1.96.78,2.54.88,1.52-.15,2.1,0,2.4-.1,2.84-.2,2.59-1.12,2.84-1.32,1.12-1.27,1.47-1.91.98-1.96,1.22-2.54.73-1.91.73-2.89.2-3.37.2-4.3-.15-2.93-.24-3.67-.39-2.79-.44-2.98-.93-2.01-1.08-2.25-1.13-1.47-1.61-1.91-1.91-1.13-2.49-1.61-2.84-.93-3.23-.98-2.93.29-2.93.29l-1.66.68Z"/>
  <path class="st1" d="M139.61,343.21h-11.05l-4.79,1.98s-4.3,2.45-4.4,2.74-1.37,1.86-1.66,2.35-2.54,4.3-2.84,5.18-.98,3.33-1.08,4.3,0,12.42,0,12.42l.88,3.13s2.05,3.91,2.25,4.3.88,1.08,1.66,2.05,1.86,1.76,2.54,2.15,1.17.68,2.35,1.08,2.11.39,3.21.78,2.86.52,2.86.52h11.35l3.23-1.5s2.45-1.47,2.84-1.96,2.25-2.05,2.74-2.45.88-.88,1.47-1.76.88-1.47,1.27-2.15,1.08-2.25,1.37-2.84,1.08-2.64,1.08-2.64v-13.5l-1.37-4.4-3.42-4.89-2.35-2.05-2.15-1.17-2.45-.98-3.52-.71Z"/>
  <path class="st0" d="M131.28,352.38l-3.47,2.98-1.81,4.79s-.49,2.1-.54,2.89-.15,2.49,0,3.57.34,2.59.49,3.57.39,2.01.73,2.64,1.47,2.01,1.91,2.45,2.01,1.47,2.45,1.81,1.96.78,2.54.88,1.52-.15,2.1,0,2.4-.1,2.84-.2,2.59-1.12,2.84-1.32,1.12-1.27,1.47-1.91.98-1.96,1.22-2.54.73-1.91.73-2.89.2-3.37.2-4.3-.15-2.93-.24-3.67-.39-2.79-.44-2.98-.93-2.01-1.08-2.25-1.13-1.47-1.61-1.91-1.91-1.13-2.49-1.61-2.84-.93-3.23-.98-2.93.29-2.93.29l-1.66.68Z"/>
  <path class="st1" d="M163.35,343.16v43.34h10.76v-27.78l3.62-4.6,2.25-1.86,1.86-.39,1.86-.52,2.05.52.98.49,1.17.78s.68.88.88,1.27.98,2.25.98,2.25l.88,2.54v.88h10.27v-4.6l-.98-2.74-2.35-4.3-2.45-2.35s-.98-.98-1.27-1.17-2.45-1.37-2.45-1.37c0,0-1.08-.3-1.57-.39s-2.64.39-3.03,0-1.47.36-1.86-.01-1.27-.22-1.86-.1-1.08.41-1.76.51-.78.1-1.37.39-1.17.39-1.76.88-.59.49-1.37,1.17-1.37.88-1.86,1.47-.88.88-1.17,1.27l-.29.39-.29-5.97h-9.88Z"/>
  <polygon class="st1" points="207.62 326.36 207.62 334.77 220.2 334.77 220.4 376.51 207.62 376.51 207.62 385.05 242.9 385.05 242.9 376.71 230.18 376.64 230.12 326.36 207.62 326.36"/>
  <polygon class="st1" points="66.27 343.21 76.32 343.21 79.71 373.78 86.62 352.13 93.14 352 99.41 372.87 104.75 343.21 112.71 343.21 106.58 386.21 94.58 386.21 89.49 367.13 83.75 386.21 72.8 386.21 66.27 343.21"/>
  <path class="st1" d="M288.21,327.15h-10.7v16.57l-3.13-.8h-9l-5.61,2.11-5.09,4.7s-1.7,2.09-2.35,3.13-1.7,4.17-1.96,5.22-1.04,4.3-1.04,5.48-.13,5.35,0,6.39.78,5.09,1.17,6.78,2.61,4.43,3.13,5.09,4.7,3.52,5.35,3.91,4.04.79,4.96.79,6.91,0,6.91,0l3.52-1.45,2.87-2.86,1.3-1.43v5.74h9.65v-59.35Z"/>
  <path class="st0" d="M266.95,351.93l-3.26,1.96-1.96,2.94s-.52,2.15-.78,2.8-.65,3.9-.65,5.08-.26,3.27,0,4.31,1.04,4.04,1.17,4.7.93,2.22,2.09,2.74,5.15,1.04,5.18,1.17,3.29-.78,3.68-.91,3.13-3.13,3.13-3.13l1.57-3v-18l-2.09-.65-3.78-.65-4.3.65Z"/>
  <polygon class="st1" points="310.24 327.87 311.12 368.07 321.39 368.07 322.17 327.87 310.24 327.87"/>
  <path class="st1" d="M314.9,373.67l-4.01,1.96s-1.03,1.59-1.22,2.02-.34,1.01-.39,2.04.15,2.25.39,3.18.49,1.76,1.17,2.45,1.37.92,2.2,1.19,1.08.37,2.54.37,1.91.14,3.03-.37,1.52-.66,2.35-1.44,1.81-1.37,2.01-2.64.29-1.57-.1-3.08,0-2.05-.98-3.03-.98-1.08-2.2-1.66-1.91-.88-2.59-.98-2.45,0-2.45,0"/>
  <path class="st2" d="M518.35,182.84h9.2l1.37-.65v-1.89s-7.3-.33-7.7-.39-6.98-.46-7.76-.59-4.7-.98-5.61-1.24-6.2-1.43-7.11-1.7-9.78-2.93-10.63-3.2-6.59-2.67-7.17-3.07-5.48-4.24-6.07-4.89-1.89-4.24-1.89-4.24c0,0-.07-5.74,0-6.07s3.07-5.74,3.07-5.74c0,0,4.7-4.37,5.09-4.76s5.15-3.26,5.87-3.78,6.78-2.54,7.76-3,4.24-1.7,5.61-2.02,4.96-1.11,6.13-1.5,10.04-1.63,10.57-1.63,6.98-.39,8.87-.39,4.04-.2,6.46-.2,4.76-.13,6.78.2,3.91.46,6.65.98,4.76.85,6.85,1.43,3.33.72,5.41,1.3,15.72,3.33,16.37,3.52,12.26,3.85,13.04,4.17,15.46,5.41,15.46,5.41l6.2,2.74,34.04,15.07s37.7,14.35,38.74,14.74,24.91,4.17,26.35,4.3,26.35-.26,27.52-.26,5.61.29,5.61.29l36.67,24.74,1.27-2.15s.88-5.77.98-6.26,2.15-11.54,2.25-12.23.59-4.4.78-6.07,1.37-6.85,1.47-8.32.59-6.26.78-7.92.68-4.79.68-6.26-.2-5.18,0-5.58.59-14.74.59-14.74c0,0-1.66-15.26-1.76-15.95s-2.25-7.92-2.74-8.71-3.72-6.85-3.72-6.85l-6.32-12.41-7.83-9-19.7-14.87-23.22-12.39-39-13.83-28.57-7.17h-35.87l-37.51,12.46s-18.49,15.75-19.17,16.24-9.78,15.36-9.98,15.65-5.67,13.21-5.87,13.5-4.6,17.84-4.6,17.84l-18,.13-19.83,2.87s-9.78,3.78-12,4.57-13.57,5.87-14.09,6.39-7.57,7.17-7.57,7.17c0,0-4.57,5.48-4.96,6s-2.09,4.3-2.35,5.22-.78,3.52-1.04,5.09.26,2.48,0,3.78.65,5.35.65,5.35l1.7,3.39s4.17,4.04,4.3,4.43,4.04,2.74,4.96,3.52,3.39,2.48,4.96,3.13,3.39,1.3,5.09,1.83,3,.78,4.96,1.17,2.48,0,3.52.52,3.91,1.3,5.87,1.57,4.57.39,6.91.78,4.83.26,6.13.39,6.09,0,6.09,0Z"/>
  <polygon class="st1" points="678.36 74.68 664.28 129.07 662.51 131.32 659.78 131.81 633.07 114.49 632.38 113.02 633.17 111.36 655.37 89.45 626.01 108.72 624.36 109.11 621.92 108.23 601.76 98.84 601.08 97.96 601.67 96.88 671.71 73.5 673.96 73.01 676.21 73.01 677.48 73.6 678.36 74.68"/>
  <path class="st1" d="M541.86,162.92l-3.13,12.52-3.13,22.7-.98,20.54v19.76s-1.96,13.3-1.96,14.28v20.35l4.6,22.7,11.84,33.98,9.78,27.59s9.39,21.72,9.59,22.5,11.54,8.41,11.54,8.41c0,0,12.33,2.74,12.91,2.93s19.37,0,19.37,0l19.37-1.17,13.7-3.91,22.5-9.78,14.09-8.8,15.65-12.33,13.3-12.91s-3.52,7.83-4.5,9-5.87,8.8-6.65,9.98-5.09,6.26-5.67,6.85-5.48,5.09-6.07,5.48-8.61,7.24-8.61,7.24c0,0-7.24,6.46-8.02,6.65s-18.59,10.37-18.59,10.37c0,0-12.52,4.3-13.11,4.5s-12.91,2.74-12.91,2.74c0,0-7.83-.78-8.41,0s-7.24,0-7.24,0l-6.65.35-4.7-2.3-5.87-1.96.39,21.91,6.07,7.43,6.26,3.72s6.07,2.35,7.83,3.13,5.67,1.76,7.34,2.15,6.95.78,8.9,1.17,9.78.78,11.35.98,13.3.39,14.67,0,18.78-4.5,18.78-4.5l15.26-6.26,14.48-8.61,13.3-10.37,12.33-12.52,5.87-11.93v-81.39l1.57-2.54,3.52-.2,10.57-.93,7.04-1.81,6.46-4.3,5.48-4.5,4.7-5.48s5.67-7.43,5.87-8.02,3.72-6.07,3.72-6.07l3.24-5.28,2.44-7.43,1.17-8.61v-15.65l-3.61-8.41-4.41-5.87-4.7-3.52-7.24-2.15s-5.87.2-6.46.39-4.3,1.76-5.09,2.15-3.52,2.35-4.5,3.33l-3.72,3.72c-.98.98-1.76,1.96-3.52,3.91s-3.91,4.89-4.5,6.46-2.35,4.7-2.93,6.26-1.76,5.28-1.96,6.07-1.57,2.35-1.57,2.35l-6.26-.2-3.13-.98-3.13-2.35-1.76-10.17s-2.93-11.54-3.13-12.13-9.98-31.3-9.98-31.3h-10.57s-9.2-.98-9.2-.98l-8.41-1.96-8.22-2.54-10.17-3.72-15.07-7.24-16.83-8.61-7.63-.59-7.63.78-7.04,1.17s-5.48.98-6.26,1.17-7.63,1.57-8.8,1.96-5.87,1.17-6.85,1.37-5.09.78-6.46.98-5.87.78-6.65.98-2.54.2-4.3.2-5.87-.2-7.04-.39-5.67-1.17-5.67-1.17c0,0-3.13-1.57-4.3-1.96s-4.7-2.54-4.7-2.54l-4.11-3.13-3.13-3.65Z"/>
  <path class="st0" d="M564.56,228.52l-3.52,1.04s-1.17,1.24-1.7,1.89-1.7,1.57-1.96,2.74-.39,2.74-.39,3.91-.13,3,0,4.43.65,4.7.78,4.96.98,1.24,1.76,2.02,2.48,2.09,2.87,2.35,2.28.65,2.61.72,1.89,0,2.67,0,3-.26,3.59-.52,2.35-2.54,2.61-3,1.76-2.35,1.96-3.07.72-3.72.72-4.5.2-4.3,0-4.96-1.43-3.13-1.63-3.52-1.76-2.54-2.02-2.74-2.74-1.17-3.33-1.5-5.02-.26-5.02-.26Z"/>
  <path class="st0" d="M648.98,228.52l-3.52,1.04s-1.17,1.24-1.7,1.89-1.7,1.57-1.96,2.74-.39,2.74-.39,3.91-.13,3,0,4.43.65,4.7.78,4.96.98,1.24,1.76,2.02,2.48,2.09,2.87,2.35,2.28.65,2.61.72,1.89,0,2.67,0,3-.26,3.59-.52,2.35-2.54,2.61-3,1.76-2.35,1.96-3.07.72-3.72.72-4.5.2-4.3,0-4.96-1.43-3.13-1.63-3.52-1.76-2.54-2.02-2.74-2.74-1.17-3.33-1.5-5.02-.26-5.02-.26Z"/>
  <path class="st0" d="M609.56,348h-8.09l-5.87-.65h-2.22l-2.09,3.52,1.04,4.04,4.83,1.83,7.3.65s6.91.26,7.57,0,7.04-.91,7.04-.91l3.13-2.48v-4.43l-3-2.22-9.65.65Z"/>
  <path class="st0" d="M582.07,321.13s-3.13.68-3.52,1.08-.88,2.15-1.08,2.84.2,1.27.49,2.35,4.79,4.11,4.79,4.11c0,0,5.97,2.15,6.95,2.45s5.38.88,6.85,1.17,6.55.2,8.41.29,7.73.1,9.49,0,6.07-1.17,7.14-1.27,6.95-1.47,8.02-1.66,4.79-2.15,5.18-2.25,5.09-2.15,5.77-2.35,4.79-2.84,4.79-2.84c0,0,1.27-2.45,1.27-2.74v-3.23s-3.03-.98-3.33-.98-4.01-.2-4.4,0-2.54,2.25-2.54,2.25c0,0-3.91,1.66-4.5,1.96s-5.67,2.25-7.73,2.74-6.95,1.17-7.63,1.17-5.18.77-5.97.53-8.61.14-9.2,0-5.77-.53-6.65-.53-5.38-1.27-5.97-1.47-3.82-1.96-4.21-2.15-2.45-1.47-2.45-1.47Z"/>
  <path class="st0" d="M651.21,205.76l-12.24.65s-7.04,1.17-7.57,1.3-3.26,1.17-3.78,1.57-2.35,2.48-2.35,3,1.08,3.39.73,4.04,1.22,1.57,1.61,1.7,4.7.52,5.74,0,6.52-1.96,7.3-2.09,9.26-.39,9.91-.39,5.87,0,6.91.26,4.83.26,6.26.78,4.83,1.05,5.48,1.7,3.91,2.08,4.7,2.48,3.52.91,3.91,1.04,3.39-.52,3.39-.52l1.83-3v-3.39s-2.87-2.35-3.39-2.61-9.13-3.39-9.13-3.39l-9.47-1.83-9.86-1.3Z"/>
  <path class="st0" d="M541.01,210.54l-2.09,2.66,1.04,4.57,7.43.65,6.91-2.61,10.43-.13,8.61.39s4.83,1.3,5.22,1.43,4.7,3,4.7,3c0,0,1.57,2.35,1.83,3.13s1.04,3.51,1.17,4.89-.91,11.16-.91,11.16c0,0-1.3,6.39-1.57,7.17s-1.83,6.39-2.22,7.43-1.7,4.3-2.22,5.61-1.17,3.26-2.09,5.48-2.09,5.61-2.74,7.7-.91,3.39-1.17,4.83-.52,3.91-.52,4.43-.13,9.52-.13,9.91.91,3.65.91,4.17,2.39,3.26,3.02,3.91,3.63,1.4,4.67,2.07,3,.67,4.43,1.06,6.52.91,6.52.91l8.61-.91,6.13-1.06,8.87-3.77,1.96-1.83v-4.7l-2.09-1.57s-1.57-.13-1.96-.13-3.39.13-4.04.39-2.35.78-3,1.04-3,.78-3.78,1.04-3.78,1.17-4.43,1.17-2.74.13-3.91.26-1.7,0-3,.13-3.78-.13-4.43-.13-1.43-.26-1.96-.52-1.04-.91-1.7-1.3-1.17-.78-1.57-1.96,0-.78-.39-2.22-.13-5.22-.13-5.22l1.57-5.61s2.09-6.52,2.09-6.91,2.22-5.48,2.22-5.48l4.7-12.49,1.83-7.33,1.43-7.7.13-7.17-.39-6.13-1.96-5.74-3.13-4.75-5.22-4.12-8.87-2.87-5.48-1.04h-15.91l-6.13,1.57-3.39,1.17-3.91,2.04Z"/>
  <path class="st0" d="M777.36,238.89s-4.7,2.48-5.09,2.48-2.61.65-4.04,1.17-2.48,1.17-3.26,1.83-1.04.91-1.43,1.83.13,1.17,0,2.22.39,1.43,1.17,2.61,1.7,1.43,2.22,2.35.65,1.89,1.17,2.77.91,1.14.91,2.84.13,1.7,0,2.87-.13,1.57-.52,3.65-.13,1.96-.78,3.39-.26,1.3-1.7,3.13-.82,1.83-2.63,3.39-2.07,1.96-2.85,2.35,0,.13-2.35,1.17-2.48,1.17-3.65,1.7-1.57.52-2.61.78-1.57.39-2.87,0-2.35-.52-2.48-1.43-.52-1.57-.26-2.61.26-1.7,1.04-2.61,1.57-1.3,3.13-2.22,2.74-1.17,3.91-1.83,1.57-.52,2.48-1.83,1.3-1.7,1.7-2.61.52-2.35.52-3.78v-4.17s-.39-.44-.78-1.33-.91-1.67-1.3-2.32-.39-.52-.91-1.43-.52-.52-1.04-2.09-.39-1.83-.65-2.87-.26-.78-.26-2.22-.13-1.57.26-2.87.65-1.87,1.04-2.63.65-.24,1.7-1.67,1.04-1.7,2.48-2.48,1.43-.91,3.26-1.43,1.96-.52,3.39-1.04,1.43-.78,2.61-.91,1.04.13,3.13,0,2.09-.86,3.26-.04,1.43.56,1.43.56l1.3,1.7v2.35l-.65,1.3Z"/>
</svg>