<?xml version="1.0" encoding="UTF-8"?>
<svg id="main" xmlns="http://www.w3.org/2000/svg" version="1.1" viewBox="0 0 872 514">
  <!-- Generator: Adobe Illustrator 29.8.1, SVG Export Plug-In . SVG Version: 2.1.1 Build 2)  -->
  <defs>
    <style>
      .st0 {
        fill: #fff;
      }

      .st1 {
        fill: none;
        stroke: #fff;
        stroke-miterlimit: 10;
        stroke-width: 15px;
      }

      .st2 {
        fill: #003352;
      }
    </style>
  </defs>
  <rect class="st2" width="872" height="514" rx="125" ry="125"/>
  <polygon class="st0" points="23.03 226.13 37.64 226.13 43.64 257.7 50.94 226.13 61.38 226.13 67.64 257.7 74.81 226.13 89.03 226.13 77.03 279.87 60.98 279.87 56.03 255.35 50.94 279.87 36.07 279.87 23.03 226.13"/>
  <polygon class="st0" points="224.09 47.18 224.09 100.39 238.18 100.39 238.18 70.26 256.96 100.39 272.22 100.39 272.22 47.18 258.14 47.18 258.14 76.52 238.57 47.18 224.09 47.18"/>
  <path class="st0" d="M240.92,446.83h-13.89v3.82l1.17,3.82s1.47,2.54,1.57,2.84,1.96,1.86,2.35,2.25,2.64,1.96,2.93,2.15,2.84,1.66,3.33,1.76,3.91.98,3.91.98h14.67l2.45-.68,3.13-1.86,2.05-1.57,2.05-2.05,1.66-1.96s.78-1.76.88-2.25.68-5.09.68-5.09c0,0,.2-1.86,0-2.15s-.49-3.13-.49-3.13l-.29-2.54-1.96-3.13s-4.6-3.33-4.99-3.52-5.87-2.45-6.26-2.64-4.11-1.66-4.7-1.96-3.33-1.08-4.01-1.37-1.96-.68-2.25-.98-1.17-.88-1.66-1.37-.68-1.96-.68-2.25.39-.88.68-1.37.98-.98,1.47-1.17,1.47-.68,1.86-.68,2.05.1,2.45,0,2.54,0,2.84,0,1.76.59,1.76.59l1.17,1.37.49,1.08.2.59-.2.59,14.09.2.58-2.54-.97-1.9-.68-1.52-1.76-2.93-2.74-2.84s-4.01-2.64-4.6-3.23-4.99-1.66-4.99-1.66c0,0-4.79-.49-5.28-.59s-4.99.2-5.87.49-3.82,1.08-4.4,1.27-4.01,2.35-4.3,2.64-2.64,3.42-3.03,4.01-1.96,3.52-2.05,4.01-.68,3.82-.49,4.89.39,3.91.49,4.79.98,3.33,1.17,3.62,2.93,2.23,3.33,2.53,3.52,1.48,3.91,1.77,2.35,1.57,2.74,1.86,2.25,1.08,2.84,1.37,2.45.78,3.33,1.08,2.25.49,2.64.78,2.05.78,2.54,1.08.78.49,1.17.78,1.08.78,1.27,1.37l.49,1.47c.1.29.2.98.1,1.47s-.1.88-.39,1.47-1.37,1.08-1.76,1.17-.88,0-1.66.1-1.28.2-2.5.29-2,0-2.29-.1-.39-.2-1.08-.29-.68-.2-1.27-.49-1.27-.98-1.27-.98l-.59-.68-.68-1.17-.1-.88-.29-.78Z"/>
  <polygon class="st0" points="409.96 226.07 447.72 226.07 447.72 239.37 424.25 239.37 424.25 247.39 444.01 247.39 444.01 257 424.44 257 424.25 267.54 447.72 267.54 447.72 280.65 409.96 280.65 409.96 226.07"/>
  <polygon class="st0" points="135.07 255.02 210.4 241.52 196.31 264.81 135.07 255.02"/>
  <polygon class="st0" points="231.14 220.78 256.18 206.5 247.18 150.74 231.14 220.78"/>
  <polygon class="st0" points="263.22 292.2 246.79 362.63 237.4 306.68 263.22 292.2"/>
  <polygon class="st0" points="299.42 246.22 285.72 269.31 357.33 256.52 299.42 246.22"/>
  <polygon class="st0" points="172.73 327.41 265.77 276.15 323.09 180.68 226.83 235.65 172.73 327.41"/>
  <circle class="st2" cx="245.13" cy="256.52" r="8.9"/>
  <circle class="st1" cx="249.5" cy="254.13" r="138.69"/>
  <path class="st0" d="M505.44,180.02v4.89l-15.07-3.72-13.7-8.02-9.98-10.96-1.76-11.74,2.54-8.61,8.02-8.02,11.54-10.57,33.26-37.17,17.61-23.28,11.93-12.52h9l7.63,5.67s3.72,4.3,3.91,4.89,5.67,2.15,5.67,2.15l7.04-.39,8.22-5.09,6.85-7.24,9.59-4.11h11.54l8.61,2.35s9.2,4.3,9.78,4.7,9.78,4.3,9.78,4.3l70.04,33.46,54.59,35.22,30.91,24.65,10.57,9,8.22,10.96,1.57,7.63-1.96,6.46-5.67,5.87-9,5.28-7.43,2.93-6.65,1.96-4.5,1.37-1.76-2.35,5.09-3.13,4.11-1.96,4.89-3.13,3.33-2.74,1.76-2.93.98-3.13-.2-5.28-3.13-3.91-3.72-4.7-2.54-3.91-4.89-4.7-3.91-4.7-4.5-3.33-6.07-3.91-59.09-38.35-53.61-27.2-43.24-18.39-9.2-1.37-6.65.39-3.33,2.93s-4.7,4.11-5.48,4.5-4.3,2.35-5.28,2.74-5.87,2.74-6.65,3.13-6.26,2.93-6.26,2.93l-4.5.78-7.63-.39-4.7-1.57-4.3-4.11-1.17-3.72-1.17-3.13-24.85,30.13-22.11,26.41-19.57,18.98-4.5,8.8-.78,6.07,2.15,6.07,2.74,3.33,2.93,2.54,2.74,2.74,2.74,2.35,4.11,3.13,2.15.98,2.35.78Z"/>
  <path class="st0" d="M523.64,162.28l-6.85,25.04,3.42,1.17,5.77-2.15,8.41-.39,11.35.2,9,.98,6.46,2.93,4.89,3.91,1.76,5.87,1.57,7.04v5.28l-.98,6.26-2.54,15.26-4.11,9.59s-4.3,6.46-4.89,7.24-3.72,4.89-3.72,4.89l-2.35,4.3s.39,3.72.59,4.7,3.91,4.11,3.91,4.11l5.87,2.15,5.48.98,4.3-.98,6.46-2.15,4.11.59,3.91,1.17,3.91-.59,3.91-3.52,1.17-3.52,4.89,1.37,2.74,2.35v12.52s10.37,3.52,11.15,3.91,4.7,1.57,5.48,2.15,2.15.78,4.5,1.96,4.3,1.76,5.28,2.35,3.72,1.96,4.5,2.35,2.15.98,3.13,1.96,2.54,1.76,3.13,2.35,2.74,1.96,3.52,2.93,1.76,1.37,3.13,2.93,1.76,1.37,2.54,2.35,2.74,2.74,3.13,3.33,2.35,3.13,2.35,3.13l7.83-8.22s5.67-7.43,6.07-8.02,5.48-7.04,5.87-7.63,4.89-7.83,5.48-9,4.11-8.8,4.5-9.39,4.11-8.8,4.11-8.8c0,0,4.89-9.98,5.09-10.76s3.91-10.76,4.11-12.33,2.15-8.61,2.35-9.2,1.96-13.3,1.96-13.3v-14.09l-1.17-8.8-1.76-8.8-1.76-8.61-4.7-4.7s-4.5-1.96-6.65-2.74-5.87-2.15-8.41-2.93-6.85-1.57-8.8-2.15-6.46-.98-10.57-1.96-9-2.35-12.33-2.93-4.89-.78-8.02-1.17-9-1.17-12.91-1.57-6.46-1.17-9.98-1.17-7.04.2-11.93,0-7.04-.39-10.96-.39-7.63,0-10.96.2-6.46-.98-9.2-.2-5.67.98-9.2,1.17-7.83.59-9.39.59-2.93-.2-5.67.59-8.02,1.96-9.39,2.35-2.74.98-4.89,1.76-4.7,1.17-5.28,1.57-3.72,2.35-3.72,2.35Z"/>
  <path class="st0" d="M515.22,199.85l2.35,15.39v10.83s-2.61,8.74-2.35,9.26-.91,6.91-1.04,8.35,1.83,7.04,1.7,7.83,2.35,7.96,2.35,7.96l1.7,10.7v26.87l3.39-3.65s2.35-1.96,2.74-2.61,3.39-2.61,4.04-3.26,3.13-2.09,3.91-2.61,4.96-2.22,4.96-2.22c0,0,2.35-1.04,3-1.3s2.74-1.3,2.74-1.3c0,0,1.04-.91,1.17-1.57s.26-3.13,0-4.04-.52-2.22-.78-2.87-1.17-1.96-1.57-2.74-1.83-1.83-1.96-2.35l-.78-3.13s-.65-3.52-.65-4.7-.13-1.96.13-3.26.26-1.96.65-3,1.83-2.74,2.74-3.98,1.48-2.15,2.37-2.93,1.55-1.57,2.33-2.35,1.83-1.96,2.09-2.48,4.04-7.04,4.04-7.04c0,0,1.96-4.96,2.22-6.26s.39-3.39.52-4.04.78-16.57.78-16.57v-5.22l-10.17-2.87-10.57-.78s-9.39.52-10.7.65-11.35,1.3-11.35,1.3Z"/>
  <path class="st0" d="M546.79,322.65s8.87-.13,10.04,0,10.96-1.17,10.96-1.17c0,0,9.39-1.17,9.91-.91s7.83,1.43,9.65,1.96,9.78,2.48,11.61,2.87,6.26.65,7.04.65,5.09-1.04,5.48-1.57,2.22-3.95,2.22-3.95c0,0-4.17-2.44-6-3.35s-4.83-2.87-8.22-4.17-5.61-2.22-11.22-3.26-9.39-1.83-14.87-1.43-7.83.65-11.87,1.04-6,.26-8.35,1.24-6.13,1.76-6.39,2.15-1.96,3-2.22,3.78-.65,4.3,0,4.96,2.22,1.17,2.22,1.17Z"/>
  <path class="st0" d="M513.07,348.02s-7.57,15.78-7.83,16.96-2.09,9.26-2.09,10.3-.78,7.17-.65,8.48.26,5.61.65,7.04,1.57,5.87,2.22,7.04,3.13,4.83,3.65,5.74,3.13,4.96,4.04,5.48,4.17,2.87,5.09,3.65,4.57,2.74,5.09,3,1.7.78,2.09,1.3,2.35,3,2.74,3.65,1.43,2.22,2.09,2.87,1.96,1.43,2.35,1.7,1.57,0,1.57,0l-.78-5.35s-.39-3.26-.39-3.65-2.35-3.78-2.35-3.78c0,0-3.39-2.74-4.17-3.65s-2.48-3.52-3.26-4.7-2.35-3.91-3.13-5.35-2.61-3.78-3-4.7-1.3-2.74-1.57-3.65-.65-2.49-1.04-3.72-.78-3.84-1.04-4.75-.65-5.48-.65-5.48c0,0-.13-3.39-.13-4.3s.13-3.39.26-3.78,1.17-2.74,1.17-2.74c0,0,1.3-1.96,1.57-2.74s1.83-2.87,1.83-2.87l.91-2.35-5.21-9.65Z"/>
  <path class="st0" d="M737.09,208.07l-11.48,5.22s-5.48,11.48-6,12.26-2.87,12.52-3.13,13.83-2.09,14.09-2.09,15.13v12.78l4.7,7.83h8.35l9.65-4.96,7.3-8.09s4.96-8.35,5.22-9.39,2.87-8.61,3.13-11.09,1.3-11.09,1.3-12.91-.26-10.7,0-12-4.17-6.78-4.96-7.57-10.17-1.04-10.17-1.04h-1.83Z"/>
  <path class="st0" d="M606.66,441.28l20.93-19.17h12.52l10.37-1.17,6.46-2.93,5.67-3.52,4.89-5.28,2.35-4.5,2.15-6.65v-6.46l9.2-6.07,13.3-12.33,7.43-10.17,3.72-9.2,3.72-25.63,1.17-43.83,5.28-1.57,4.3,2.93,1.37,6.07,1.17,12.33,1.96,26.61v11.15l1.76.2v-1.76l2.54-1.76,3.13-.59,3.72.59,2.93,1.57s1.96,2.15,2.15,3.13,1.17,4.04,1.57,4.76-1.57,8.74-1.57,8.74c0,0-3.91,7.24-4.11,7.83s-17.61,21.13-17.61,21.13l-27.98,29.54-12.91,10.09-14.67,7.51-14.28,5.87-11.35,2.54-11.93,2.15-17.8-.98-1.57-1.17Z"/>
  <path class="st2" d="M623.65,207.06l-6.72,3.72s-1.24,4.3-1.43,5.09-.26,3.98,0,4.76,1.37,3.46,1.63,3.98,2.36,2.67,2.36,2.67l3.71,2.41,3.59.39,2.54-.72,2.93-1.76s1.7-2.61,1.76-2.8,1.04-2.22,1.11-2.61.59-2.67.59-3-.26-2.93-.33-3.33-.65-2.54-.78-3-1.17-2.09-1.37-2.35-1.5-1.63-2.02-2.02-2.67-1.11-2.93-1.17-4.63-.26-4.63-.26Z"/>
  <path class="st2" d="M602.19,186.19l-3.72,2.15s-1.17,3.07-1.3,3.33.46,2.74.52,3.07,1.5,2.41,1.5,2.41l2.61.59s2.15-.07,2.54,0,5.15-.39,5.41-.39,4.43-.91,4.83-.98,4.11-.33,4.76-.33,5.22-.13,6.2-.13,5.09-.07,5.74,0,4.83.2,5.15.39,4.7.85,5.28,1.17,2.67.72,3.33.98,3.78,1.04,4.5,1.24,3.46.52,4.04.65,3.33.26,3.98.26,3.13-.07,3.39-.26,1.63-1.7,1.63-2.15-.52-3-.78-3.33-1.76-1.11-2.22-1.47-1.5-1.08-2.09-1.47-1.89-1.11-2.8-1.7-2.35-1.57-3.46-2.15-3.07-1.5-4.3-1.89-3.07-.65-4.76-.91-4.04-.72-5.54-1.04-2.28-.52-4.04-.59-2.8-.33-5.93-.2-6.91.46-8.54.59-2.87.59-4.43.78-4.11.65-5.22.72-3.65.39-4.43.39-1.83.26-1.83.26Z"/>
  <path class="st2" d="M533.66,210.1l-2.49,3.57s-.34,2.05-.34,2.64.15,3.42.2,4.01.73,2.84.98,3.23,1.57,2.3,1.86,2.84,2.02,1.91,2.23,2.25,2.37,1.76,2.37,1.76c0,0,1.76.34,1.91.44s2.89-.1,3.08,0,1.76-.39,1.76-.39c0,0,1.66-2.01,1.71-2.15s.54-1.52.59-2.05.54-2.2.54-2.64-.24-3.38-.29-3.77-.1-2.59-.24-2.93-1.27-3.13-1.42-3.33-1.76-1.76-1.76-1.76l-2.1-1.32-3.47-.78-2.1-.39-2.98.78Z"/>
</svg>