<svg xmlns="http://www.w3.org/2000/svg" id="_Слой_1" data-name="Слой_1" viewBox="0 0 872 514"><defs><style>.st0{fill:#fff}.st1{fill:#28a737}</style></defs><rect width="871.88" height="514.27" x=".06" y="-.13" class="st1" rx="125.11" ry="125.11"/><path d="M108.55 178.53h75.39l.23 106.76h12v44.58h-22.43c.65 0-.26-24.88-.26-24.88l-72 .13v24.75H79.83v-44.32h11.35s23.09-80.41 17.38-107.02Z" class="st0"/><path d="M132.06 199.66h27.39v85.57h-40.96s12.23-52.09 13.57-85.57" class="st1"/><path d="M212.93 178.53h26.87v52.37h42.78v-52.37h25.57v128.54h-25.3l-.27-55.83-43.04.26-.26 55.57h-26.35zm115.05 0h25.43v52.63h6.65l35.61-52.63h26.61l-40.3 59.87 45.39 65.34h-30.92l-35.41-51.26-7.63-.19v52.63h-25.43zm214.24-52.24s24.98 2.74 47.15 2.74 60.48-1.45 76.3-2.74 79.04-6.46 79.04-6.46.75-12.75-2.35-27.85c-1.4-2.58-.16-8.77-10.04-22.17s-4.34-6.82-14.22-15.39-14.22-10.57-28.04-15.52-26.35-5.48-33-5.74-26.61-1.04-37.17 1.04-20.87 5.48-30.39 10.43-16.34 10.92-26.35 21.91-10.4 15.52-15 27.39-4.83 11.32-5.93 20.74 0 11.61 0 11.61Zm-51.49-.1c-5.15 0-9.33 4.5-9.91 6s.07 5.54.78 7.7 8.22 7.28 10.43 8.09 31.08 12 34.17 12.52 42.78 9.1 54.39 9.39 134.67-8.15 141.78-8.35 21 2.61 21 2.61-8.07-1.06.3.12 20.57 8.48 20.57 8.48 10.27 8.09 12.26 10.17 8.22 12 8.22 12l4.7 7.17s3.75-1.97 8.22-4.57 9.64-8.56 11.87-12.91 3.91-8.87 3.91-13.83-1.7-7.7-1.7-7.7-5.18-7.5-10.7-11.48-16.47-8.48-20.74-9.91-27.36-2.22-31.83-2.35-115.43 6.52-115.43 6.52l-66.39-.39-11.61-1.43s-59.15-17.87-64.3-17.87Z" class="st0"/><path d="m532.86 174.61-7.05 6.65-4.3 8.61v13.31l2.35 12.72 1.76 10.95-.59 11.94.2 10.17 3.13 11.74 1.56 9.98-1.37 6.45-12.65 25.44-3.26 15.78-.52 13.83 1.3 8.44.98 8.35-1.96 6.39-6.32 11.12-4.18 14.09v8.35l6 12.52 6.53 8.87 1.82 5.22v10.43l3.65 10.7 8.09 6.78 11.22 6.26h22.43l6.52 6 10.96 7.56 9.39 2.61h12.26l14.09-5.74 9.65-7.56 7.31-7.31 2.87-1.04 14.6.52 17.74-7.3 10.18-8.35 7.56-10.96 1.57-13.82 5.22-4.44 7.56-3.13 8.61-7.56 3.13-9.13v-8.87l1.3-11.22 3.13-3.39 11.22-12.52 3.92-9.65 2.34-14.16-1.3-9.84-2.35-10.44-5.22-9.91-.26-7.57 13.57-2.35 10.17-7.04 10.96-14.35 6.26-17.02 2.35-13.5-2.09-13.82-6.78-12.3-10.44-9.36-15.91-9.39-17.22-4.82z" class="st0"/><ellipse cx="554.15" cy="223.74" class="st1" rx="8.71" ry="10.39"/><ellipse cx="632.9" cy="227.6" class="st1" rx="9" ry="10.83"/><path d="M729.39 254.96h3.85l4.5-4.5 3.84-7.7 2.09-8.6-.39-8.87-2.61-5.87-3.32 2.41-2.87 5.87-2.03 5.48-1.5 6.78-1.56 8.35m-175.04 70.3-2.48 4.63.58 3.98 2.94 1.76h3.91l11.55-1.82 24.71-.13 2.55.71 4.89.92 3.78.84 4.63 1.05 3.85-1.31 1.89-2.54v-1.63l-1.24-2.28-1.5-2.22-2.93-1.96-4.05-1.5-3.19-.91-10.5-.33-9.23-.26h-18.82l-5.87 1.31-4.56 1.24zm-20.03-4.3h3.53l5.87-6.07 8.15-9.39 7.3-7.43 6.07-3.52 6.26 2.15 10.17 1.76h11.74l7.63-1.37 6.85-4.5 5.09-5.28 4.17 3.32 5.22 5.87 4.69 7.63 3.52 9.78 3.89 3.92 3.16-.39 2.74-3.53v-5.47l-3.72-10.37-5.87-10.76-8.22-7.44-7.63-4.11h-7.43l-6.85 6.85-3.33 2.54-3.13 1.76-15.06.2-4.89-1.17-5.68-2.55-3.13-3.71-1.56-3.92 5.87-12.11 8.21-17.04 4.7-16.22 1.86-6.96-.88-8.12-2.74-6.56-7.04-6.16-8.42-3.91-7.63-1.18-8.8 1.96-9.78 3.72-6.85 4.5 2.54 5.08 2.35 1.18 4.5.58 5.67-1.76 9.39-2.74 6.04.2 4.53 1.96 3.72 4.3 1.17 4.89-.2 9.02-2.54 8-7.63 18.39-4.69 9.59-3.07 6.07-1.04 5.87 1.04 4.89 1.3 1.76.79 1.95-.59 2.16-3.78.78-3.65 2.54-4.7 4.89-5.87 6.85-3.33 4.7-1.95 5.67v5.09zm74.16-108.07 4.3 1.57 8.02-1.57 8.61-3.32 6.07 2.44 11.52 4.6 9.41 3.39 5.87-1.04 1.96-4.18-14.29-10.1-13.59-5.68-4.8-1.5h-9.19l-9 3.65-4.89 3.13-2.35 4.47v3.36z" class="st1"/></svg>