<?xml version="1.0" encoding="UTF-8"?>
<svg id="main" xmlns="http://www.w3.org/2000/svg" version="1.1" viewBox="0 0 872 514">
  <!-- Generator: Adobe Illustrator 29.8.1, SVG Export Plug-In . SVG Version: 2.1.1 Build 2)  -->
  <defs>
    <style>
      .st0, .st1 {
        fill: #ce3a3a;
      }

      .st2 {
        fill: #ff6a6a;
      }

      .st3 {
        fill: #fff;
      }

      .st4 {
        fill: #cc3738;
      }

      .st5 {
        fill: #ce3a3b;
      }

      .st1 {
        stroke: #000;
        stroke-miterlimit: 10;
      }

      .st6 {
        fill: #a43a3b;
      }
    </style>
  </defs>
  <rect class="st1" y=".16" width="872" height="514" rx="125" ry="125"/>
  <polygon class="st6" points="458.93 141.8 453.72 150.54 452.28 157.32 455.61 165.54 463.63 171.02 476.02 174.41 497.93 175.71 506.15 176.36 506.15 200.62 507.78 204.41 507.78 222.54 507.26 240.58 508.82 247.97 514.3 262.84 517.43 276.41 517.43 297.02 520.82 320.49 525.52 331.45 534.13 342.93 532.04 347.89 499.69 361.45 467.09 369.54 428.22 381.02 420.91 389.89 417.75 396.93 420.39 404.23 418.82 411.54 399 445.97 399.52 454.45 403.69 459.93 409.17 463.58 408.13 472.19 402.52 489.02 402.26 495.67 401.77 499.16 804.73 499.43 822.98 488.42 837.28 475.61 853.24 455.05 862.25 437.64 869.55 413.91 870.34 409.56 863.97 397.84 857.97 390.02 852.5 377.49 845.45 368.62 828.24 360.28 752.84 331.58 734.32 281.76 737.71 272.62 743.71 266.1 749.97 261.93 757.28 253.06 763.02 243.93 768.24 232.71 771.89 223.58 773.97 211.32 772.93 202.45 799.28 201.41 819.37 198.8 832.67 195.41 841.8 189.67 844.15 183.15 843.89 176.89 841.28 169.84 833.19 160.71 811.28 136.97 794.06 116.36 776.32 91.32 762.5 74.89 740.32 55.06 720.24 39.93 706.67 31.84 677.15 20.36 652.24 15.93 628.15 14.36 600.5 14.36 573.1 18.28 543.37 28.39 521.97 44.1 505.54 67.06 496.15 84.54 482.84 106.71 472.41 122.62 458.93 141.8"/>
  <polygon class="st6" points="401.77 499.16 401.77 514 756.72 514 773.74 511.28 789.97 506.58 804.73 499.43 401.77 499.16"/>
  <path class="st3" d="M51.22,154.44l-.78,93.52h37.96s18.98-3.33,18.78-27.98-25.43-19.76-14.09-20.54c0,0,12.33-4.89,10.96-24.85s-17.8-20.15-17.8-20.15h-35.02Z"/>
  <path class="st4" d="M68.7,233.29h12.42s5.97-2.93,6.55-6.85.29-8.32,0-12.03-6.55-6.36-6.55-6.36h-12.42v25.24Z"/>
  <path class="st4" d="M68.7,193.67h9s5.87-1.47,7.04-8.12.49-8.9,0-11.93-4.6-5.18-4.6-5.18h-11.45v25.24Z"/>
  <ellipse class="st3" cx="141.45" cy="215.49" rx="27.07" ry="33.26"/>
  <path class="st4" d="M141.45,195.14s-9.33.13-9.33,20.35,8.74,20.22,8.74,20.22c0,0,8.61.13,8.61-20.22s-8.02-20.35-8.02-20.35Z"/>
  <path class="st3" d="M176.73,184.18h16.17v4.43s6-3.65,10.43-4.43,8.54-1.23,10.7-.78,4.96,2.61,4.96,2.61c0,0,2.49,2.77,2.74,3.26s2.35,3.79,2.35,4.57v54.13h-15.65l-.26-46.76s-2.32-6.24-7.76-5.41-6.72,6-6.72,6v46.17h-16.96v-63.78Z"/>
  <path class="st3" d="M236.77,184.24h16.63v67.3s-.93,6.71-1.76,9.2-1.43,5.41-4.11,8.02-5.28,4.5-5.28,4.5c0,0-3.91,2.93-6.85,3.33s-9.39,0-9.39,0v-11.74s3.33-.07,5.48-1.76,2.81-3.11,3.52-4.11,1.37-1.17,1.57-4.5l.2-3.33v-66.91Z"/>
  <path class="st3" d="M239.71,172.11h10.76s2.82-.77,2.93-3.68.26-1.59,0-6.5-4.11-4.89-4.11-4.89h-9.59s-2.93-.49-3.52,3.52-.52,4.19,0,7.87,3.52,3.68,3.52,3.68Z"/>
  <ellipse class="st3" cx="290.02" cy="215.42" rx="27.07" ry="33.26"/>
  <path class="st4" d="M290.67,195.31s-9.33.13-9.33,20.35,8.74,20.22,8.74,20.22c0,0,8.61.13,8.61-20.22s-8.02-20.35-8.02-20.35Z"/>
  <path class="st3" d="M325.69,184.24h16.7s-.91,42.53,0,46.26,4.57,6.24,8.61,5.38,6-5.38,6-5.38v-46.26h16.83v64.44h-15l-.91-5.19s-.83-.59-1.83.13-3.26,3.26-6.33,4.57-13.89.5-13.89.5c0,0-4.7-2.98-6.91-5.98s-2.48-6.83-2.48-6.83l-.78-51.64Z"/>
  <path class="st3" d="M384.68,184.24h16.63v5.05s.88.95,1.57,0,.52-1.76,2.74-3.91,3.91-2.15,3.91-2.15h8.22v14.09s-7.04-.2-8.61,0-2.48,1.43-4.7,3.91-2.15,3.91-2.15,3.91l-.2,43.54-17.41.25v-64.69Z"/>
  <polygon class="st3" points="426.46 164.36 428.67 220.45 442.24 220.45 444.46 166.71 426.46 164.36"/>
  <path class="st3" d="M429.32,232.32h12.65s3.65-1.48,3.65,7.57-4.3,9.04-4.3,9.04h-11.48s-4.3-.65-4.3-8.3,3.78-8.3,3.78-8.3Z"/>
  <polygon class="st3" points="469.63 151.32 486.16 135.47 496.82 119.82 508.34 101.3 522.55 69.86 537.42 50.56 553.47 41.04 569.38 35.17 589.21 30.34 616.6 28.39 641.25 29.56 661.86 32.95 681.94 36.99 693.55 41.69 706.07 48.99 715.07 55.78 724.86 65.04 739.47 84.86 759.81 112.52 773.64 129.73 794.77 150.21 816.55 166.91 825.16 172.12 829.6 175.91 829.6 179.04 828.16 180.86 825.68 182.04 821.12 182.04 805.86 172.65 780.81 152.95 765.42 137.56 748.73 116.95 734.25 97.65 718.21 75.34 708.68 65.17 693.68 53.69 685.21 49.12 674.12 45.47 655.73 42.34 630.42 39.73 608.38 38.69 583.34 40.91 568.21 45.73 551.9 52.91 542.51 60.99 534.94 69.47 528.55 83.56 521.12 98.82 514.34 112.26 505.73 125.56 499.73 134.56 494.9 140.56 487.6 148.39 479.93 155.04 477.26 156.86 475.37 157.35 472.73 157.42 471.03 156.05 469.63 154.61 469.63 151.32"/>
  <polygon class="st3" points="662.93 66.67 654.19 76.58 652.24 83.89 652.89 93.15 656.15 99.8 662.93 106.84 669.32 109.19 679.5 110.23 689.54 108.15 697.76 102.67 702.19 95.62 702.98 88.45 702.98 79.97 698.8 71.89 692.28 66.67 684.59 63.02 671.8 63.02 662.93 66.67"/>
  <polygon class="st6" points="675.19 72.41 669.46 73.19 664.37 77.23 661.89 82.45 661.24 88.45 662.54 93.28 666.59 98.23 672.32 100.84 680.28 101.76 687.06 99.67 690.46 95.76 693.06 91.45 693.06 85.32 691.89 79.97 688.76 75.8 684.59 73.32 679.11 71.89 675.19 72.41"/>
  <path class="st3" d="M523.67,169.84l27.39-5.48h32.09l66.46,5.48,43.45,6.26,8.26,3.52,3.52,4.61v8.17l3.91,20.87,4.7,5.09,8.22-7.04,5.09-11.35,6.26-4.66,7.96-1.01,7.14,1.57,4.6,3.62s2.64,5.67,2.93,6.26,1.08,8.32,1.08,9.2-1.08,8.8-1.37,9.49-4.3,10.86-4.6,11.35-8.61,13.01-8.61,13.01c0,0-9.39,8.8-9.68,9s-5.77,3.03-5.77,3.03l-5.58-.78-5.67-1.86s-3.82.2-4.3.39-2.64,2.54-2.93,2.93-2.05,3.82-2.05,3.82l-.85,20.67-5.74,17.48-8.35,11.74-12.52,13.3-21.39,12.26-24.26,8.35-20.87,4.43-28.7,1.04-20.09-4.17-13.3-10.43-11.48-17.48-4.17-18.26-1.3-26.87-1.57-15.39-7.89-14.87-2.02-19.43,2.22-16.43.52-10.57-4.83-9.26v-15l4.11-6.59Z"/>
  <path class="st5" d="M531.1,190.78h47.22l3.39,5.87-1.43,12.26-7.57,36.91-2.74,17.74,3.13,3.78,7.96.91,10.04-4.43,10.04-3.65h6.26l1.57,2.09v4.43l-1.04,3.39-5.22,2.22-20.22,6.91h-13.96l-7.83-5.87-2.22-4.04-2.35-7.83,1.17-8.74,3.13-15,3.52-16.43,1.83-9.26,1.17-6-2.61-.65.13,3.52-.65,3.26-1.7,3-3.52,2.09-3.39,1.04-4.57-.13-4.3-.39-1.57-1.04-2.35-2.48-.78-3s-.26-3.52-.39-3.91.13-2.61.13-2.61l1.04-2.74-9.52-.78-3.65-1.3-2.09-2.87s-.13-2.48,0-2.87,1.3-2.48,1.3-2.48l2.61-.91Z"/>
  <path class="st5" d="M594.82,198.8l7.24,4.5,10.57,1.76,5.48,1.37,2.35,5.67,1.37,4.3,5.09,3.33,7.76,1.57s4.17-2.15,4.76-2.35,3.72-4.89,3.72-4.89l1.17-6.65-1.37-3.33-2.35-1.96-2.46-1.57,6.18-.2,9.78.78,6.26.39,4.89-.2v-3.52l-2.93-2.74-4.89-2.35-5.09-1.96-6.07-.98h-8.14l-6.73.98-6.85,1.96-6.07.59-7.83-.2s-5.28-.39-6.85-.39-5.28-.39-5.28-.39l-3.72,1.17-1.17,2.93,1.17,2.35Z"/>
  <path class="st0" d="M558.04,308.56h5.87l6.65-5.28,5.67-2.93h22.11l7.83,2.15,4.89,1.96,3.33,4.11,3.72,1.57h4.11l1.96-2.93v-4.7l-1.76-2.15-6.65-4.7-10.37-2.15h-5.67l-7.04-3.13s-6.07-.78-7.24-.78h-6.85c-1.17,0-9.59,1.76-9.59,1.76l-4.7,2.54-3.72,2.35-2.54,2.35-2.54,3.72v2.74l1.37,3.33,1.17.2Z"/>
  <polygon class="st0" points="577.47 323.07 588.72 324.64 597.14 324.64 600.66 323.07 600.66 319.26 597.63 316.81 591.85 315.24 583.64 315.24 579.63 315.24 576.4 317.4 575.71 319.94 575.71 322.58 577.47 323.07"/>
  <path class="st0" d="M739.28,208.61l-4.3,6.65-1.7,6.03-2.48,7.14-3.78,6.55s-1.04,4.4-1.17,4.79.52,2.87,1.17,3.65,3.13,1.3,3.78,1.17,3.26-1.57,3.26-1.57l2.74-4.3s2.87-5.22,3.65-6.65,3.52-7.17,3.65-7.96,1.17-4.43,1.3-4.96-.52-4.57,0-4.96.02-4.04.02-4.04l-2.89-2.35-3.26.78Z"/>
  <path class="st3" d="M495.24,376.09l-58.78,15.26-1.91,3.78v2.54l1.11,1.63,2.28,1.43h3.13s2.93-.2,3.2-.26,9-2.54,9-2.54l46.11-12.78,1.7-2.41v-3.07l-.85-2.09-2.74-1.5h-2.25Z"/>
  <polygon class="st3" points="747.56 354.6 816.69 384.6 826.87 386.43 834.69 388.42 838.34 386.69 835.74 381.99 832.08 377.3 800 366.34 760.87 349.12 752.52 349.12 747.56 349.12 746.26 353.04 747.56 354.6"/>
  <polygon class="st3" points="764.52 371.82 761.91 371.82 760.6 376.09 762.56 429.21 767.39 432.86 772.08 432.86 775.21 432.86 776.52 428.69 776.52 420.6 773.13 376.09 769.47 371.82 764.52 371.82"/>
  <polygon class="st3" points="785.65 381.99 792.3 439.91 797.39 441.99 800.78 440.95 803.13 438.6 796.34 383.04 792.3 380.69 789.3 380.69 785.65 381.99"/>
  <polygon class="st3" points="815.91 393.47 812 393.47 810.69 402.34 818.26 443.04 822.95 444.34 827.13 444.34 829.47 443.3 829.47 437.56 822.17 395.82 820.08 393.47 815.91 393.47"/>
  <polygon class="st3" points="843.3 400.78 838.34 400.78 837.04 409.12 838.34 418.91 840.17 436.52 841.74 441.99 848.26 445.39 851.39 444.34 853.74 441.99 850.08 403.65 847.21 400.78 843.3 400.78"/>
  <polygon class="st2" points="433.34 415.71 428.65 415.71 421.8 427.26 413.19 446.43 414.76 450.93 421.41 450.93 424.74 445.45 436.46 420.21 436 416.49 433.34 415.71"/>
  <path class="st2" d="M475.93,514l7.04-20.78,8.02-41.58,1.57-28.69-2.93-25.8,1.17-4.89,4.11-1.33h3.72l2.45,3.34v8.67l1.27,24.24v19.79c0,.67-.98,12.9-1.27,13.57s-3.82,16.23-3.82,16.23l-4.11,18.24-4.01,12.9-1.86,6.1h-11.35Z"/>
  <path class="st2" d="M591.95,369.18s-3.42,13.7-3.52,13.99-3.91,11.84-3.91,11.84l-3.33,4.89-5.38-.49-4.7-7.14s-6.55-6.26-7.24-7.04-8.71-9.39-9-9.78-4.4-5.28-4.79-5.67-1.96-4.89-1.96-5.18,1.37-6.65,1.37-7.73.78-2.84.78-2.84h2.64l3.91,2.35,2.54,3.13.68,1.66,3.03,2.54s1.86.68,2.15,1.08,4.79,1.57,4.79,1.57l3.23.68,4.89.59,5.87.1,5.09.1,2.84.59v.78Z"/>
  <path class="st2" d="M592.67,401.56l5.35.78,5.74-.78,5.22-8.87,4.57-6.78,2.87-3.13,13.7-4.3s13.43-4.17,14.48-4.43,11.22-4.57,12.91-5.35,7.83-3.78,9.13-4.3,6.65-3.13,8.22-4.17,9-5.61,9-5.61l18.57-14.92,7.14-7.92,5.77-9.98,2.35-6.54.78-15.39s-10.47,18.51-10.57,18.8-5.97,8.41-5.97,8.41l-4.3,4.5-7.73,6.95-8.02,6.55-9.39,4.79-14.38,6.55-31.89,10.96-6.85,1.27-7.34,1.17-3.52.1-2.35,1.27-7.83,16.9s-3.03,5.14-3.13,5.43-2.4,3.82-2.4,3.82l-.85,2.57.72,1.66Z"/>
  <path class="st2" d="M551.93,514l10.17-25.48,10.17-26.37,11.74-38.91,16.65-4.76,20.92-1.81,14.87-5.54,11.74-4.4,14.09-9.8,18.39-10.01,20.35-19.02,7.43-7.35h2.35v25.51l3.13,5.29,4.53,5.58,7.37,8.03,4.92,4.44,4.98,4.76v7.34l-2.25,8.14-7.66,5.7-9.16,7.35s-6.65,7.04-7.83,7.85-9.39,9-9.78,9.87-7.04,9.09-7.04,9.09l-7.43,9.08s-.78,1.3-2.35,5.19-4.3,11.67-5.09,13.4-1.96,4.76-1.96,6.05-.39,7.78-.39,7.78l-.39,3h-122.48Z"/>
  <polygon class="st5" points="646.36 472.33 638.01 477.02 636.19 487.2 639.84 492.94 647.93 495.29 655.21 493.2 659.93 486.94 659.93 479.63 656.27 473.63 650.53 472.33 646.36 472.33"/>
</svg>