<svg xmlns="http://www.w3.org/2000/svg" id="_Слой_1" data-name="Слой_1" viewBox="0 0 872 514"><defs><style>.st2{fill:#16a46f}.st31{fill:#28bb88}.st56{fill:#fbfdfd}.st62{fill:#fafdfc}.st82{fill:#17a36d}.st100{fill:#fdfefe}</style></defs><path d="M156.34.01h561.99c42.77-.04 76.59 6.08 110.59 34.11.92.7 1.84 1.39 2.79 2.11.73.62 1.46 1.25 2.21 1.89v2h2c3.26 3.44 6.11 7.24 9 10.99.74.95 1.48 1.9 2.24 2.89 6.42 8.73 16.76 22.99 16.76 34.09l2 1q.59 1.84 1.07 4.22c.17.87.35 1.73.53 2.63.17.91.35 1.83.53 2.77q.27 1.34.55 2.7c.98 4.98 1.53 9.59 1.32 14.67l2 1c.13 62.56.05 125.11-.24 187.67-.04 9.59-.08 19.17-.11 28.76-.02 8.27-.06 16.54-.1 24.81-.02 4.27-.04 8.54-.05 12.81 0 3.96-.03 7.92-.06 11.87 0 1.43-.01 2.85-.01 4.28.01 13.86-1.77 27.62-6.56 40.69l-.91 2.52c-6.51 17.35-17.55 33.59-30.97 46.39h-2v2c-21.16 20.68-52.32 33.05-81.54 34.54-.82.04-1.65.08-2.5.13-10.11.47-20.23.46-30.35.44H305.9q-108.09.02-153.71-.41c-3.48-.03-6.96-.06-10.44-.08-3.94-.02-7.89-.06-11.83-.11-2.05-.02-4.1-.03-6.16-.04-33.32-.52-60.89-16.53-84.43-38.91-.8-.85-1.61-1.69-2.44-2.56-.65-.67-1.31-1.34-1.98-2.03C5.54 438.67 1.55 399.22 1.76 358.37c0-2.61.01-5.22.01-7.83.01-6.31.03-12.61.06-18.92.02-5.13.04-10.26.05-15.4v-2.23c0-1.49 0-2.99.01-4.48.04-13.96.1-27.91.16-41.87.05-12.72.09-25.45.12-38.17.03-13.12.07-26.24.13-39.36.03-7.34.06-14.69.07-22.03.01-6.91.04-13.81.08-20.72.01-2.52.02-5.04.02-7.56.01-17.86.61-35.44 6.65-52.45l.91-2.64c11.26-31.38 34.58-55.49 63.91-70.58 1.08-.57 2.16-1.13 3.27-1.71 9.42-4.65 21.97-10.01 32.73-9.28l1-2C126.08.21 141.17 0 156.34.01" style="fill:#1fb883"/><path d="M607.94 164.05c2.48 1.36 4.83 2.88 7.21 4.4 8.84 5.05 18.39 6.77 28.42 6.72.8 0 1.6 0 2.43.01 4.46 0 8.61-.35 13.01-1.14 3.18-.35 4.41-.36 7.07 1.47 1.46 1.4 2.9 2.83 4.33 4.26 10.22 9.13 24.5 11.13 37.54 13.26-.02.58-.03 1.17-.05 1.77-.06 2.7-.1 5.4-.14 8.1-.03.92-.05 1.83-.08 2.78-.1 9.91 2.23 18.37 8.26 26.33.57.47 1.13.93 1.72 1.41q1.28 1.59 1.1 3.91c-.87 2.86-1.87 5.67-2.88 8.48-3.27 10.53-3.8 23.03 1.06 33.17 1.81 2.86 3.67 5.63 5.67 8.35 1.72 3.41 1.38 5.01.33 8.64-4.47 10.17-11.81 16.94-22 20.99.22.93.43 1.86.66 2.82 4.41 20.19 1.74 37.31-8.66 55.15-.97 1.35-1.96 2.7-3 4 .35.52.7 1.03 1.06 1.56 1.34 3.49.75 5.81-.06 9.43-9.79 13.86-28.07 21.68-44.19 25.36-19.43 2.82-36.9.78-52.99-10.96-8.73-7-12.92-17.35-17.73-27.18q-2.055-4.185-4.23-8.31c-9.78-18.64-13.41-37.24-9.04-58.03 2.69-13.14 3.64-25.79 3.54-39.19 0-.83-.01-1.67-.02-2.52-.05-5.99-.16-11.98-.27-17.97-.11-6.05-.19-12.1-.25-18.15-.03-2.37-.08-4.74-.14-7.11-.29-18.66 5.08-36.05 18.12-49.82 6.27-6.29 14.78-13.41 24.2-11.99" class="st100"/><path d="M692.94 89.09c3.87 3.34 7.16 6.74 10 10.99v3c.68-.2 1.35-.41 2.05-.62l2.7-.82c.88-.27 1.76-.53 2.67-.81 12.25-3.58 25.16-1.76 36.65 3.7 2.4 1.41 4.67 2.91 6.93 4.54.89.58 1.77 1.15 2.69 1.75 6.79 6.6 12.06 14.51 12.48 24.07.04 3.73-.04 7.44-.17 11.16 1.06.13 2.13.26 3.22.39 9.55 1.53 17.93 6.82 24.03 14.29 6.49 9.39 7.95 19.04 6.75 30.3-.86 3.59-1.89 7.01-3.12 10.48q-.98 2.38-.88 4.51c1.17 1.16 2.39 2.28 3.62 3.37 8.55 8.33 12.34 19.17 12.69 30.86-.28 15.01-5.73 26.27-16.31 36.73l-2 1c.29.87.58 1.73.88 2.62.37 1.11.74 2.23 1.12 3.37.36.92.71 1.84 1.08 2.78 2.22 7.74.92 17.06-2.8 24.18-5.15 8.17-11.22 12.52-20.27 16.01h-3l-.12 2.5c-1.8 7.21-7.64 13.55-13.88 17.49q-11.54 5.41-18 5l-2-4c2.42-2.69 5.07-4.3 8.19-6.12 9.66-6.11 15.78-13.74 18.81-24.86 1.12-7.85.21-15.18-4-21.99-3.92-4.49-8.06-7.83-14-9-.85-.02-1.7-.03-2.57-.05q-7.39-.2-10.59-2.51c-7.06-7.69-9.2-16.92-9.13-27.12.55-6.34 2.47-12.61 6.05-17.9q1.54-2.3.61-4.51c-1.33-1.83-2.7-3.49-4.24-5.14-6.54-7.44-8.32-14.78-8.31-24.55v-2.17c.04-3.62.19-6.97 1.19-10.45 1.21-4.29 1.18-8.13 1-12.56-4.46-.83-8.58-1-13.12-.87-13.85.08-25.83-4.11-36.18-13.27-1.94-2.11-3.29-4.34-4.69-6.84-.99.22-1.99.43-3.01.66-17.09 3.57-32.01 3.65-47.62-5.06q-2.38-1.6-4.33-3.8-1.93-2.05-4.72-2.03c-17.74 2.79-31.64 12.26-42.45 26.45-11.28 16.65-15.08 35.39-15.06 55.18v3.15c.06 9.23.9 18.26 2.19 27.4-7.22-.67-10.07-3-15-8l-2.75-2.69c-6.62-8.57-7.37-19.89-6.51-30.3 1.05-8.02 4.54-13.48 10.2-19.05q3.29-3.27 4.2-7.61c-.39-1.86-.84-3.71-1.36-5.54-3.08-10.98.57-22.38 5.91-32.07 3.92-6.13 9.29-10.67 15.31-14.68q.4-2.88.38-6.25c.76-14.26 6.23-24.94 16.56-34.54 3.72-3.11 7.57-5.38 12.06-7.18l2.58-1.09c4.71-1.26 9.19-1.25 14.05-1.23h2.96c7.2.1 13.59.89 20.42 3.31l1-3c17.42-13.03 41.08-13.63 59-1Z" class="st100"/><path d="M226.94 267.99c10.15 7.84 15.69 20.39 17.59 32.82 1.89 17.05.65 34.73-9.59 49.14-6.52 8.13-14.57 13.44-25 14.99-12.45.82-23.13-.09-33.16-8.31-12.2-11.16-16.07-24.89-16.97-40.96-.37-15.11 2.51-31.31 13.13-42.68 14.65-15.08 36.43-15.8 54-5" class="st56"/><path d="M82.04 262.85q1.31 0 2.64-.02h2.88c.98 0 1.95 0 2.96-.01h6.22c3.15 0 6.3-.02 9.45-.04h6.05l2.83-.02c10.09.03 18.03 1.62 25.85 8.25 7.2 7.31 9.13 15.44 9.38 25.49-.26 11.51-3.16 19.58-11.5 27.67-4.61 3.99-8.98 5.58-14.88 6.81-.6.17-1.2.35-1.82.52-2.52.55-4.81.59-7.39.57h-2.97c-1.02 0-2.03-.02-3.08-.03q-1.55 0-3.12-.01c-2.54-.01-5.08-.03-7.62-.05q0 1.35.02 2.74c.02 3.34.03 6.68.04 10.02 0 1.45.01 2.89.02 4.34.01 2.08.02 4.15.02 6.23q0 1.88.02 3.79-.11 2.87-1.11 3.87c-2.99.13-5.95.19-8.94.19l-2.54.04h-2.43c-.74 0-1.47 0-2.23.01q-1.86-.24-3.86-2.24c-.19-3.07-.26-6.04-.24-9.11V349c0-3.13 0-6.26.02-9.4v-6.5c0-4.55 0-9.1.02-13.64.02-5.84.02-11.69.02-17.53 0-4.48 0-8.96.01-13.43v-6.47c0-3.01.01-6.01.02-9.02v-2.73q.04-7.37 5.25-7.4Zm262.12.01h2.57q1.3 0 2.71.01c.89 0 1.79 0 2.71-.01h4.95q1.84.13 2.84 1.13c.09 2.29.11 4.58.1 6.88v2.08c0 2.2-.02 4.4-.03 6.6 0 1.49 0 2.98-.01 4.46-.01 3.65-.03 7.31-.05 10.96l1.94-.06q26.21-.75 36.44 7.18c5.46 5.18 9.38 12.77 9.83 20.31.22 11.74-.63 21.66-9.14 30.58-4.96 4.75-9.35 7.48-16.06 8.96-.69.17-1.39.34-2.1.52-3.81.63-7.56.64-11.41.65-.81 0-1.62 0-2.45.01h-5.11c-2.61 0-5.23.02-7.84.04h-4.97c-.78 0-1.57.01-2.37.02q-5.51-.02-7.74-2.25c-.19-3.07-.26-6.04-.24-9.11v-2.86c0-3.13 0-6.26.02-9.4v-6.5c0-4.55 0-9.1.02-13.64.02-5.84.02-11.69.02-17.53 0-4.48 0-8.96.01-13.43v-6.47c0-3.01.01-6.01.02-9.02v-2.73q.04-7.38 5.37-7.39Z" style="fill:#fcfefd"/><path d="M312.44 266.87c6.47 5.47 9.71 11.15 10.82 19.57.29 6.41-.97 12.03-4.32 17.54-2.47 2.63-5.09 4.87-8 7 .59.39 1.18.78 1.79 1.18 6.13 4.33 10.13 8.48 12.21 15.81 1.22 9.46.35 18.28-5.54 26.01-7.22 7.81-16.69 10.85-27.14 11.27-1.58.02-3.17.02-4.75.01-.83 0-1.66 0-2.52-.01-10.23-.2-19.47-2.64-26.83-10.11-3.83-4.64-4.99-8.18-5.21-14.17 2.86-2.31 5.59-3.83 9-5.18.85-.34 1.69-.69 2.56-1.04q2.44-.77 6.44-.77l.73 1.64q2.56 5.57 7.27 9.35c5.25 1.75 10.71 1.79 15.88-.31 2.72-1.47 4.22-2.35 6.12-4.68 1.23-4.14 1.45-7.84-.12-11.87-2.97-3.37-5.61-4.96-10.1-5.53-2.27-.06-4.54-.13-6.81-.19q-2.96-.41-4.84-1.63c-1.48-2.35-1.49-3.94-1.43-6.71 0-.85 0-1.71.01-2.59.33-2.72.61-4.3 2.3-6.47q2.64-.54 5.81-.62c4.18-.13 7.45-.42 11.19-2.37 2.93-4.78 3.45-8.45 2.57-13.98-.85-2.99-2.01-4.28-4.57-6.01-4.42-1.96-8.2-2.58-13-2-6.16 2.59-9.19 6.04-12 11.99-4.03-.61-7.16-1.89-10.75-3.81-.96-.5-1.93-1-2.92-1.52q-2.33-1.67-3.31-3.59c-.04-4.97 4.41-9.37 7.63-12.84 12.9-11.86 37.49-13.59 51.86-3.35Zm-4.28-81.08c6.33 4.42 9.23 10.84 10.78 18.24 1.14 11.65 1.36 23.92-6.25 33.42-4.41 4.57-8.84 6.64-15.19 7-6.48-.26-11.38-2.89-15.88-7.5-4.28-5.38-5.69-12.18-5.69-18.93h-7v24.99h-10q-1-1-1.12-3.32v-6.63c0-1.26.01-2.53.02-3.83v-3.89c0-3.42.01-6.85.02-10.27.01-3.49.01-6.98.02-10.47.01-6.85.03-13.7.05-20.56 1.65-.03 3.29-.05 4.94-.06.92-.01 1.83-.02 2.78-.04q2.29.1 3.29 1.1c.09 1.71.11 3.42.1 5.13v3.13c0 1.09-.02 2.18-.03 3.3 0 1.09 0 2.18-.01 3.31-.01 2.71-.03 5.41-.05 8.12h7c.03-.56.05-1.11.08-1.69.61-8.21 3.23-14.49 9.36-20.11 6.65-5.07 15.83-4.42 22.78-.43Z" class="st56"/><path d="M211.38 281.67c6.47 5.83 9.88 12.66 10.93 21.38.13 3.17.13 6.31.07 9.48 0 1.06.01 2.12.02 3.21-.09 10.77-2.23 19.36-9.52 27.53-4.06 3.53-8.88 3.02-13.99 2.96-4.08-.37-6.02-1.41-8.95-4.27-8.64-10.55-9.06-23.97-8-36.98 1.24-8.17 3.43-16.6 9.56-22.43 5.94-3.8 13.62-3.94 19.88-.87Z" style="fill:#19ac77"/><path d="M506.94 268.99c5.86 6.21 7.49 12.56 7.3 20.87-1.21 12.51-10.18 20.34-18.89 28.54-3.4 3.79-3.76 7.63-4.41 12.56-2.05 2.05-6.13 1.23-8.94 1.25l-2.25.06q-2.15.02-5.81-.31c-2.5-3.74-2.61-6.66-2-10.99 2.09-5.27 5.47-8.54 9.5-12.43 5.48-5.3 9.49-9.91 10-17.74-.57-4.37-1.1-6.01-4.5-8.81-3.8-1.28-6.88-1.36-10.69-.12-2.92 2.69-4.39 5.61-6.1 9.16q-1.21 1.96-4.21 2.96-3.1-1.18-6.62-2.87c-1.17-.55-2.34-1.11-3.54-1.68q-2.84-1.44-3.84-2.44c.14-6.57 2.81-11.02 7-15.99 13.76-12.83 33.17-13.35 48-2Z" class="st56"/><path d="m89.56 183.79 3.28-.06c6.87-.03 12.46.11 17.84 4.84 3.67 4.94 4.67 7.22 4.26 13.46-.97 3.54-2.01 6.35-5.19 8.43-.6.19-1.2.37-1.81.56v2q.87.09 1.75.19c3.18 1.15 4.36 3.07 6.25 5.81 1.53 4.6 1.9 9.34.32 14-2.48 4.77-6 7.91-11.14 9.58-2.7.5-5.25.54-8 .54h-3.37q-1.73 0-3.5-.01c-1.17 0-2.33 0-3.53.01h-6.43q-2.34-.13-3.34-1.13c-.1-1.77-.13-3.55-.13-5.33v-49.37c.31-5.64 8.44-3.51 12.75-3.53Z" class="st62"/><path d="M420.89 262.88c.83 0 1.67.01 2.52.02h2.72q1.42.01 2.87.03a1662 1662 0 0 1 9.94.06c.02 12.88.04 25.77.05 38.65 0 5.98.01 11.96.02 17.95.01 5.77.02 11.53.02 17.3 0 2.21 0 4.41.01 6.62v9.23c0 .92 0 1.84.01 2.79q-.01 6.29-1.12 7.4c-2.99.13-5.95.19-8.94.19l-2.54.04h-2.43c-.74 0-1.47 0-2.23.01q-1.86-.24-3.86-2.24c-.19-3.07-.26-6.04-.24-9.11v-2.86c0-3.13 0-6.26.02-9.4v-6.5c0-4.55 0-9.1.02-13.64.02-5.84.02-11.69.02-17.53 0-4.48 0-8.96.01-13.43v-6.47c0-3.01.01-6.01.02-9.02v-2.73q.04-7.19 3.1-7.37Z" style="fill:#f9fcfc"/><path d="M331.17 183.92c1.43 0 2.87 0 4.3.02h2.28c2.41 0 4.83.02 7.24.03 1.63 0 3.27 0 4.9.01 4.01.01 8.02.03 12.04.05v10.99h-23v12.99c1.16-.05 2.32-.09 3.51-.14 1.54-.04 3.08-.07 4.62-.11.76-.03 1.52-.07 2.3-.1 5.38-.09 8.28.83 12.57 4.35 4.01 4.01 4.33 7.53 4.5 12.99-.17 5.46-.49 8.99-4.5 12.99-5.31 4.09-9.02 5.12-15.61 5.13h-3.23c-1.11 0-2.21 0-3.35-.01-1.12 0-2.24 0-3.39.01h-6.17q-2.25-.13-3.25-1.13c-.1-1.77-.13-3.55-.13-5.33v-49.37c.2-3.6.65-3.26 4.36-3.39Zm42.77.12h11l1 36.98q3.35-7.68 6.7-15.37c3.21-7.32 6.65-14.5 10.3-21.61q10.06-.1 13 0c1.72 1.72 1.13 3.98 1.13 6.33v49.37q-.13 2.28-1.13 3.28h-10q-.5-19.29-1-38.98l-4 9.43c-3.05 7.15-6.19 14.26-9.5 21.3-.34.72-.68 1.44-1.02 2.18q-2.34 4.93-3.48 6.07h-13v-58.97Z" class="st62"/><path d="M612.88 265.68q3.06.31 5 1.31c1.72 3.24.77 6.53.06 9.99-.87 2.71-1.97 5.29-3.12 7.89l-.93 2.16c-.97 2.25-1.96 4.5-2.94 6.75-.98 2.27-1.96 4.54-2.94 6.8-.61 1.4-1.22 2.81-1.83 4.21-2.34 5.36-3.63 9.25-3.22 15.16 2.07 4.69 5.43 7.71 10 9.99 6.87.77 11.42.13 17-4 4.27-3.9 5.4-8.84 6.97-14.25 1.02-2.72 1.67-4.08 4.03-5.74q3.56.12 7 1c2.69 4.03 2.65 7.34 2 11.99-2.78 9.83-7.81 16.88-16.44 22.36-8.56 3.9-17.05 4.95-26.06 2.06-7.95-3.14-13.31-7.8-16.81-15.63-3.92-10.19-1.73-20.17 2.47-29.91 2.44-5.41 5.13-10.69 7.86-15.96.94-1.83 1.85-3.66 2.76-5.51.53-1.08 1.05-2.15 1.6-3.26.46-.95.92-1.89 1.4-2.87 1.75-3.22 2.44-4.17 6.16-4.57Z" class="st2"/><path d="M217.52 183.9h24.84q5.46.02 6.58 1.14c.1 1.77.13 3.55.13 5.33v49.37q-.13 2.28-1.13 3.28c-1.66.1-3.33.13-5 .12h-2.75q-2.25-.13-3.25-1.13c-.09-1.47-.12-2.95-.11-4.43v-2.85c0-1.02.01-2.04.02-3.1v-3.16c0-3.34.02-6.68.03-10.02 0-2.26 0-4.52.01-6.78.01-5.55.03-11.1.05-16.65h-14c.02 1.15.03 2.3.05 3.48q.075 6.42.12 12.84l.06 5.55c.04 2.66.05 5.33.07 7.99.02.82.03 1.64.05 2.49 0 4.96-.61 8.31-3.34 12.62-4.45 4.04-9.31 3.23-15 3V232q2.48-.49 5-1 .02-.86.03-1.74c.11-5.95.22-11.9.34-17.85.04-2.22.09-4.45.12-6.67.06-3.19.12-6.38.19-9.56q.03-1.5.05-3.03l.06-2.79c.02-.81.03-1.63.05-2.47.34-4.07 3.33-2.99 6.73-3Z" style="fill:#f6fbf9"/><path d="M124.94 184.04h11v18.99c2.33-.08 4.66-.16 7.06-.25 6.12-.07 10.21.15 14.94 4.25 4.14 4.67 4.37 8.95 4.44 15.05l.03 2.07c-.1 5.55-1.41 9.58-5.15 13.72l-1.75 1.45q-.86.74-1.75 1.49c-7.71 5.09-22.63 2.2-28.82 2.2z" class="st56"/><path d="M469.94 184.04h34v9.99q-1 1-3.13 1.11c-.92 0-1.83-.01-2.78-.02h-3c-1.04 0-2.08-.02-3.15-.03-1.04 0-2.09 0-3.17-.01-2.59-.01-5.18-.03-7.77-.05v12.99h20v9.99l-19 1-1 12.99h23v9.99q-1 1-4.14 1.11c-1.39 0-2.78 0-4.17-.02h-1.96c-2.43 0-4.86-.02-7.28-.03l-16.44-.06v-58.97Z" class="st100"/><path d="M428.27 183.92c1.48 0 2.95 0 4.43.02h2.35c2.49 0 4.97.02 7.46.03 1.68 0 3.36 0 5.04.01 4.13.01 8.26.03 12.39.05v10.99h-11q0 2.13.02 4.3c.02 5.24.03 10.48.04 15.72 0 2.27.01 4.54.02 6.81.01 3.26.02 6.51.02 9.77 0 1.02.01 2.04.02 3.1v5.37q-.12 1.9-1.12 2.9c-1.66.1-3.33.13-5 .12h-2.75q-2.25-.13-3.25-1.13c-.09-1.47-.12-2.95-.11-4.43v-2.85c0-1.02.01-2.04.02-3.1v-3.16c0-3.34.02-6.68.03-10.02 0-2.26 0-4.52.01-6.78.01-5.55.03-11.1.05-16.65-.85.01-1.71.02-2.59.04-1.1 0-2.21.02-3.35.03-1.1.01-2.2.02-3.34.04q-2.72-.1-3.72-1.1c-.1-1.5-.13-3-.12-4.5v-2.47c.23-3.45.89-3.02 4.46-3.14Z" style="fill:#f9fcfb"/><path d="M661.94 347.95q2 2 2.44 4.75c-.58 4.32-2.14 6.56-5.44 9.24-14.99 9.45-33.98 11.68-51.28 8.27-6.48-1.7-11.68-3.82-16.72-8.27-1.37-2.73-1.13-4.98-1-8q1-1 3.44-1.31c4.19.37 7.37 1.67 11.2 3.34 11.64 4.78 29.1 3.57 40.74-.74 3.48-1.71 6.59-3.72 9.63-6.11 2.53-1.48 4.12-1.53 7-1.17Z" style="fill:#16a46e"/><path d="m107.63 280.73 2.44-.06c5.06-.03 8.5.51 12.88 3.31 4.31 4.66 5.36 8.39 5.28 14.57-.46 3.99-1.93 7.18-4.28 10.41-5.35 4.15-10.62 4.16-17.19 4.12-.74 0-1.47 0-2.23.01q-5.45-.01-6.58-1.14c-.1-2.21-.13-4.41-.13-6.62v-20.52c.26-5.83 5.13-4.07 9.82-4.1Z" style="fill:#19ad79"/><path d="M359.94 312.97q16.77 0 22 3c4.1 4.91 4.58 9.09 4.32 15.41-.6 4.92-2.1 7.57-5.88 10.72-4.36 2.35-7.48 2.32-12.31 2.1-2.68-.08-5.36-.16-8.12-.25v-30.98Z" style="fill:#17a972"/><path d="M168.94 184.04h11v58.97h-11c-1.72-1.72-1.13-3.98-1.13-6.33v-49.37q.13-2.28 1.13-3.28Z" class="st56"/><path d="M300.94 194.03c3.03 2.45 4.77 5.3 6 9 .25 3.24.23 6.49.25 9.74l.06 2.67c.04 6.88-.78 11.9-5.69 17.07q-2.62 1.5-5.19 1.5c-3.04-1.25-4.44-2.38-6.44-5-1.91-5.39-2.34-10.24-2.31-15.93-.02-.76-.03-1.52-.05-2.3 0-5.55 1-9.71 3.36-14.75 3.76-2.51 5.54-2.61 10-2Z" style="fill:#16a772"/><path d="M741.19 298.72c5.13.07 7.77 1.47 11.56 4.87 2.17 4.34 1.96 8.89.53 13.48-3.71 8.22-11.27 14.98-19.34 18.87q-2.77.16-5 0-1-3-.07-5.16c.46-.81.92-1.62 1.39-2.46 4.35-8.36 4.95-16.16 5.44-25.52.38-4.34 1.48-4.01 5.5-4.09Z" style="fill:#f8fcfb"/><path d="M127.32 181.84c.9.02 1.81.05 2.74.07q1.37.03 2.76.05c.7.02 1.4.05 2.12.07l1 2h-11V243q16.88.81 31.74-5.5c3.01-3.99 4.39-6.75 4.36-11.72v-2.43c0-.83-.02-1.67-.03-2.52 0-.84 0-1.69-.01-2.56-.01-2.08-.03-4.17-.05-6.25h3c1.94-3.27 2.27-5.79 2.34-9.57l.09-3.21c.04-2.23.09-4.47.13-6.7l.09-3.21.06-2.94q.29-2.37 2.29-4.36 2.53-.3 5.5-.31c.98-.02 1.96-.03 2.97-.05q1.25.18 2.53.36c2.24 3.36 2.25 4.48 2.26 8.41 0 1.11.01 2.21.02 3.36 0 1.2 0 2.39-.01 3.62v3.72c0 3.27 0 6.53-.02 9.8 0 3.32 0 6.63.02 9.95v7.57c0 1.19 0 2.39.01 3.62 0 1.11-.01 2.22-.02 3.37v2.96q-.25 2.59-2.25 6.58h-11v-2h11v-58.97l-11 1-1 57.97h-1V231c-4.86 2.91-6.08 4.47-9 9h-2q-.28.96-.56 1.94-1.44 2.06-4.36 2.68c-4.93.57-9.87.57-14.83.57l-2.86.04h-2.75q-1.23 0-2.48.01-2.16-.24-5.16-2.24-.37-2.47-.37-5.61c0-1.17-.01-2.35-.02-3.56 0-1.27.02-2.55.03-3.86v-3.94c0-2.76.01-5.51.03-8.27.02-3.54.02-7.07.02-10.61 0-3.37 0-6.73.02-10.1v-3.86c0-1.17.02-2.35.03-3.56 0-1.04 0-2.07.01-3.14.36-3.39 1.22-4.38 4.64-4.66Z" style="fill:#15a063"/><path d="M681.94 223.02q3.19 2.19 5 5 0 3.69-1 7c-7.35 4.9-21.5 2.14-30 1-3.09-1.01-4.69-1.69-7-4-.37-3.37-.37-5.34 1.31-8.31 5.85-5.84 24.46-3.44 31.69-.69" class="st2"/><path d="M486.94 340.95c3.64 2.12 5.42 4.14 7 8 .33 4.71-.39 8.77-3.38 12.49-3.65 3.48-6.57 3.85-11.56 3.78-4.1-.57-6.94-2.85-9.44-6.03-1.45-5.21-1.33-8.89 1.12-13.62 4.51-5.26 9.62-5.5 16.25-4.62Z" class="st62"/><path d="M605.06 221.45q2.85 2.38 3.25 5.87-.38 3.69-2.11 5.89c-5.12 2.82-10.15 2.33-15.89 2.23l-3.47.02q-8.35-.06-10.73-1.77c-1.97-2.84-1.53-5.36-1.17-8.69 1.7-2.44 2.85-2.96 5.75-3.73q18.39-2.58 24.38.17Z" class="st82"/><path d="M667.94 261.99c3.32 2.8 5.83 4.95 6.2 9.39.09 5.6.11 9.82-3.2 14.6-3.51 2.34-4.86 2.49-9 2-3.27-1.93-4.7-3.37-6.31-6.81-1.35-6.27-1.18-10.69 2.31-16.18 3.1-3.21 5.61-3.71 10-3" style="fill:#15a36f"/><path d="M590.81 258.56c3.45.08 3.92.24 6.56 2.75 2.98 5.12 3.44 10.22 2 15.91-1.31 3.75-2.06 5.52-5.43 7.77-3.86.42-6.08.64-9.31-1.62-3.58-5.03-4.02-9.29-3.17-15.25 1.26-5.48 3.75-8.92 9.36-9.55Z" style="fill:#15a36e"/><path d="M604.94 382.93c2.11.24 4.21.49 6.32.75 5.66.53 11.36.25 17.04.13l2.86-.03q1.27-.03 2.57-.05 2.22.21 5.22 2.21.5 2.87 0 6c-4.51 4.51-8.36 5.18-14.56 5.31-7.92-.07-14.23-1.33-20.12-6.81q-1.31-2.5-1.12-4.75.81-1.75 1.81-2.75Z" style="fill:#17a66f"/><path d="M135.94 213.02q10 0 13.12 2c2.41 3.85 2.71 6.57 1.88 10.99-1.64 3.58-2.69 4.79-6 7h-9z" style="fill:#14a36c"/><path d="M87.94 217.02q9.94-.48 14.19 1.44c2.3 3.25 2.6 5.49 2.35 9.43q-.54 2.13-2.91 4.69c-4.83 1.92-8.45 1.72-13.62 1.44v-16.99Z" style="fill:#16a773"/><path d="M338.94 217.02q10.14-.48 13.69 1.5c1.87 3.57 2.21 6.56 1.31 10.49q-1.88 2.5-5 4c-3.41.31-6.56.18-10 0z" style="fill:#12a26a"/><path d="M87.94 194.03q10.62-.25 14 2 .43 2.06.44 4.44l.06 2.37q-.5 2.19-2.2 3.96c-2.74 1.46-4.46 1.54-7.55 1.41-1.57-.06-3.13-.12-4.75-.19z" style="fill:#14aa76"/><path d="M268.94 218.02h7c.22 1 .44 2 .66 3.03q2.38 10.75 9.34 18.95c5.23 3.05 10.07 3.91 16 3 5.85-1.86 9.51-4.91 13-9.99 1.15-2.3 2.08-4.58 3-7q.67 1.72 1 4-1.11 2.22-2.75 4.5l-1.61 2.28c-.54.73-1.08 1.46-1.64 2.22q-.72 1.07-1.45 2.16c-2.66 3.17-4.77 3.75-8.87 4.21-8.01.14-15.3.11-21.68-5.37-4.42-5.92-5.97-12.79-7-19.99l-3-1 .03 2.17c.04 3.23.07 6.47.09 9.7.02 1.13.03 2.25.05 3.42 0 1.08.01 2.15.02 3.26l.03 3.01q-.23 2.43-2.23 4.43-2.38.2-5.12.12-1.37-.03-2.76-.05c-.7-.02-1.4-.05-2.12-.07v-2h10v-24.99Z" style="fill:#0c995c"/><path d="m107.63 280.73 2.44-.06c5.06-.03 8.5.51 12.88 3.31 3.8 4.11 5.14 7.12 5.06 12.68 0 .81-.02 1.62-.03 2.45-.01.61-.02 1.23-.04 1.86l-2 1c-.04-.74-.07-1.47-.11-2.23q-.34-7.43-3.89-13.76c-2.83-1.69-5.05-2.27-8.33-2.41-.72-.04-1.44-.07-2.18-.11l-2.74-.1c-2.89-.12-5.78-.25-8.75-.37v27.98h17q-2 2-5.66 2.23c-1.47 0-2.94-.02-4.4-.04h-2.26q-5.54-.05-6.68-1.18c-.1-2.21-.13-4.41-.13-6.62v-20.52c.26-5.83 5.13-4.07 9.82-4.1Z" style="fill:#18a168"/><path d="M416.94 185.04h1c.02 7.67.04 15.34.05 23.01 0 3.56.01 7.12.02 10.69.01 4.09.02 8.18.02 12.27 0 1.28.01 2.57.02 3.89v6.75q-.12 2.36-1.12 3.36c-1.81.1-3.62.13-5.44.12h-3q-2.57-.13-4.57-1.13c-.19-5.19-.37-10.39-.54-15.58-.06-1.77-.12-3.53-.19-5.3-.09-2.54-.17-5.08-.25-7.62-.03-.79-.06-1.58-.1-2.39-.11-3.87-.15-6.82 2.07-10.09h1V243q4.95-.49 10-1l1-56.97Z" style="fill:#1c9958"/><path d="M371.94 185.04h1c1.01 12.67 1.12 25.27 1.06 37.98 0 1.95 0 3.9-.01 5.85-.01 4.71-.03 9.43-.05 14.14 2.1-.04 4.2-.12 6.29-.21l3.54-.12q3.28-.37 5.18-2.84c1.22-2.24 2.19-4.4 2.99-6.82l1 2q-1 2.38-2.44 5.12c-.47.91-.95 1.82-1.43 2.76-.37.7-.75 1.4-1.13 2.12-2.29.08-4.58.14-6.88.19q-1.91.05-3.87.11c-1.08-.1-2.15-.19-3.26-.29-2.27-3.4-2.24-4.58-2.23-8.57V233l.03-3.73v-3.82c0-3.35.03-6.69.05-10.04.02-3.42.03-6.83.04-10.25.02-6.7.06-13.4.1-20.1Z" style="fill:#069b5b"/><path d="M222.94 195.03h14V243h-1c-1.05-15.33-1.1-30.61-1-45.97h-11v37.98h-1z" style="fill:#04944f"/><path d="M165.94 208.02h1c.14 3.77.23 7.54.31 11.31q.06 1.61.13 3.25c.02 1.03.03 2.05.05 3.11.03.95.05 1.89.08 2.87q-.57 2.45-2.96 4.08c-.86.45-1.72.9-2.61 1.37-1.36 1.98-2.7 3.98-4 6h-2l-2 4-1-2q.74-.92 1.5-1.86c.64-.81 1.28-1.62 1.94-2.45.64-.8 1.28-1.6 1.93-2.42 2.3-3.19 2.75-5.66 2.73-9.49v-2.43c0-.83-.02-1.67-.03-2.52 0-.84 0-1.69-.01-2.56-.01-2.08-.03-4.17-.05-6.25h3l2-4Z" style="fill:#11a670"/><path d="M338.94 195.03h23l-1 2h-21v9c.99-.06 1.98-.12 3-.18q13.09-.54 18.36 3.48c4.45 4.58 7.4 9.74 9.64 15.68h-2v5l-2-1c-.83-3.21-1.41-6.44-2.02-9.7-1.26-4.26-3.12-6.91-6.68-9.57-3.63-1.15-7.27-1.2-11.05-1.35l-2.4-.12c-1.95-.09-3.9-.18-5.85-.26v-12.99Z" style="fill:#0e995a"/><path d="m664.94 173.04 5 5h3q.49 1.48 1 3c4.79 3.36 10.36 4.79 16 6v2c.71-.01 1.42-.02 2.15-.04.92 0 1.84-.02 2.79-.03l2.78-.04q2.29.1 3.29 1.1c2.33.37 4.66.7 7 1v1c-14.13.92-26.18-3.29-38-10.99q-1.76-1.82-3.12-3.5-2.54-2.72-5.25-2.65c-1.87.19-3.73.43-5.59.71-5 .71-10 .51-15.04.43v-1q4.875-.795 9.75-1.56c.92-.15 1.84-.3 2.79-.46q1.33-.21 2.7-.42c.82-.13 1.63-.26 2.48-.4 2.42-.17 4.02 0 6.29.84Z" style="fill:#0b9456"/><path d="M565.94 208.02h1l-1 48.97h-1c-.23-2.05-.46-4.1-.68-6.15q-.14-1.86-1.32-2.85c-.09-2.29-.11-4.58-.1-6.88v-2.08c0-2.2.02-4.4.03-6.6 0-1.49 0-2.98.01-4.46.01-3.65.03-7.31.05-10.96h2l-.06-3.37q.06-3.62 1.06-5.62Z" style="fill:#1a9f65"/><path d="m285.94 184.04 2 1c-.46.38-.92.75-1.39 1.14-6.72 6.03-9 13.13-10.61 21.84h-7v-22.99h2v20.99h4c-.07-.83-.14-1.65-.22-2.51.28-4.41 1.76-7.46 3.72-11.36.33-.69.67-1.38 1.01-2.08q1.23-2.52 2.49-5.04h3l1-1Z" style="fill:#109b60"/><path d="M480.94 219.02h19v1h-17v10.99l5-2c6.05-.4 11.13.53 17 2V242h-1v-9.99h-23z" style="fill:#0e9859"/><path d="M277.94 261.99c-.77.28-1.55.56-2.34.85-8.5 3.27-15.26 6.99-20.22 14.83q-1.61 3.02-1.31 5.34c1.22 2.74 2.79 3.37 5.44 4.71.83.43 1.65.86 2.5 1.3.64.31 1.28.63 1.93.95l-2 1q-2.13-.96-4.56-2.37c-.81-.46-1.61-.92-2.44-1.4q-2-1.23-3-2.23c.09-2.02.25-4.04.44-6.06.1-1.1.2-2.21.31-3.35.08-.85.17-1.71.25-2.59q.92-.17 1.86-.35c3.17-.97 4.31-2.98 6.14-5.65v-2c.85-.1 1.69-.21 2.56-.31q3.55-.58 7.06-2.31c3.48-1.42 4.05-1.46 7.38-.37Z" style="fill:#099353"/><path d="M385.94 185.04h1l1 23.99c3.16-3.16 4.38-5.64 6.19-9.68.53-1.18 1.06-2.36 1.61-3.57.4-.9.8-1.81 1.21-2.74 1.3 3.89.4 5.02-1.24 8.72-.49 1.11-.98 2.23-1.49 3.37-.52 1.16-1.05 2.32-1.59 3.52-.51 1.17-1.02 2.34-1.55 3.54q-3.87 8.69-6.13 9.82l1-36.98Z" style="fill:#098e48"/><path d="m587.94 170.04 2 1c-.56.5-1.11 1-1.69 1.51-10.42 9.79-16.12 21.03-20.31 34.47h-1q-.12-7.75 1-9.99h2c.18-.78.36-1.56.55-2.37.25-1.01.5-2.02.76-3.06.24-1.01.49-2.02.74-3.06.31-.83.63-1.65.95-2.5l3-1c.31-1.13.62-2.27.94-3.44q1.06-3.56 3.06-4.75c.66-.27 1.32-.54 2-.81l1-2c1.26-2.51 2.37-3.1 5-4" style="fill:#10985b"/><path d="M87.94 217.02h11l1 2h-10v12.99q5.45-.49 11-1-3 3-5.48 3.29c-.89-.03-1.79-.07-2.71-.11-1.59-.06-3.18-.12-4.81-.19v-16.99Z" style="fill:#2fa36d"/><path d="M310.94 309.97h2v2l4-2q.56 1.17 1.12 2.37c1.93 3.9 4.26 7.56 6.57 11.25 2.3 4.17 2.46 7.75 2.49 12.49.01 1.05.03 2.11.04 3.19q-.23 2.68-2.23 4.68c-.01-1.04-.03-2.08-.04-3.15-.23-8.32-.47-16.1-5.96-22.84-2.83-2.35-5.76-4.26-9-6l1-2Z" style="fill:#0d985c"/><path d="M551.94 213.02c2.4 3.69 2.18 7.16 1.98 11.38-.03.7-.05 1.41-.08 2.13-.08 2.24-.18 4.48-.28 6.72-.06 1.52-.12 3.05-.17 4.57-.14 3.73-.29 7.45-.45 11.17h-1c-1.15-6.38-1.15-12.65-1.12-19.11 0-1.07 0-2.14-.01-3.24v-5.96c.13-2.65.54-5.08 1.13-7.66" style="fill:#069454"/><path d="M87.94 194.03h9v1h-7v10.99q5.32-.06 10-2c.37-2.33.7-4.66 1-7h1q.39 5.95 0 8c-2.16 2.24-3.47 2.94-6.58 3.29-.88-.03-1.76-.07-2.67-.11-1.57-.06-3.13-.12-4.75-.19v-13.99Z" style="fill:#19975b"/><path d="M727.94 270.99c1.53 2.03 3.05 4.07 4.57 6.1.51.69 1.03 1.37 1.55 2.08.52.69 1.04 1.39 1.57 2.1q1.19 1.64 2.3 2.71c2.71.29 5.42.45 8.14.62 2.91.39 5.19 1.18 7.86 2.38v1c-6.08 1.14-10.72 1.56-16.18-1.62-4.32-3.26-7.7-7.38-9.82-12.37v-3Z" style="fill:#079252"/><path d="M500.94 261.99q4.58 4.16 6 7c-1.95-.97-3.89-1.94-5.8-3-7.34-3.76-15.11-4.24-23.2-5v-1c7.83-1.04 15.78-1.9 23 2" style="fill:#0f9c5e"/><path d="M161.94 217.02h1l1 9 2-1-1 6-3 1-.94 2.94q-1.06 3.06-3.06 4.19c-.66.29-1.32.58-2 .87q-1.27 2.03-2 4l-1-2q.74-.92 1.5-1.86c.64-.81 1.28-1.62 1.94-2.45.64-.8 1.28-1.6 1.93-2.42 2.76-3.83 2.87-7.34 3.19-11.94.08-1.18.17-2.36.25-3.57.06-.9.12-1.81.18-2.74Z" style="fill:#29aa77"/><path d="M738.81 296.71c.7 0 1.4.01 2.12.02.7 0 1.4-.01 2.12-.02q1.88.27 3.88 2.26l-10 1-.15 2.81q-.74 12.27-2.85 18.17h-2v-4h2c.05-1.28.1-2.55.15-3.87.08-1.67.15-3.34.23-5.01l.09-2.55.12-2.44.1-2.25c.46-2.69 1.47-3.76 4.19-4.14Z" style="fill:#079555"/><path d="M160.94 293.98c1.09 3.43.97 6.29.66 9.85-.09 1.11-.19 2.23-.28 3.38-.1 1.16-.21 2.32-.31 3.51q-.15 1.76-.3 3.56c-.25 2.9-.5 5.79-.76 8.69h-1c-.06-.88-.12-1.76-.18-2.67-.08-1.16-.17-2.32-.25-3.52-.08-1.15-.16-2.3-.25-3.48q-.25-3.27-.91-6.19c-.13-.7-.27-1.41-.4-2.14l1-1c.23-1.35.41-2.7.56-4.06.14-1.3.29-2.6.44-3.94h2v-2Z" style="fill:#0f9a5d"/><path d="M529.94 237.01c2.62 1.31 2.66 2.36 3.69 5.06 3.44 8.02 9.11 13.22 16.31 17.93l-2 1c-7.15-3.02-11.69-7.04-15-13.99-.32-.65-.63-1.29-.96-1.96-1.31-2.84-2.04-4.89-2.04-8.03Z" style="fill:#169b60"/><path d="m707.94 97.08 22 1v1q-1.16.06-2.35.11c-8.49.52-16.39 1.92-24.65 3.88l1-3 3-1 1-2Z" style="fill:#0ea163"/><path d="M225.94 264.99c3.9 1.3 3.94 2.47 6 6 1.14 1.42 2.28 2.84 3.44 4.25 3.3 4.19 6.14 8.55 7.56 13.74l-1 3c-.41-.91-.82-1.81-1.25-2.74-3.66-7.8-7.54-14.13-13.75-20.24-.57-.57-1.14-1.15-1.73-1.74-.42-.42-.84-.83-1.27-1.26l2-1Z" style="fill:#0a9556"/><path d="m240.94 337.95 1 2c-3.17 7.19-7.42 15.74-14.19 19.99-.93.33-1.86.66-2.81 1l-2-1 1.98-1.62c6.15-5.24 10.23-10.28 14.02-17.37z" style="fill:#129a5d"/><path d="m683.94 186.04 6 1v2c.71-.01 1.42-.02 2.15-.04.92 0 1.84-.02 2.79-.03.92-.01 1.83-.02 2.78-.04q2.29.1 3.29 1.1c2.33.37 4.66.7 7 1v1c-9.09.59-16.45-.91-25-4l1-2Z" style="fill:#169c61"/><path d="m204.94 225.01 5 1 1 5-6 2-1 9h-1c-.22-6.09-.01-11.21 2-16.99Z" style="fill:#0ea269"/><path d="m604.94 149.06 1 2c-3.62 1.32-6.1 2-10 2-2.06.93-4.07 1.93-6.06 3q-5.62 3-8.94 3 15.35-10.88 24-9.99Z" style="fill:#0d9759"/><path d="M529.94 214.02c.98 2.93 1.06 4.44.88 7.45-.05.85-.1 1.69-.15 2.57-.06.88-.11 1.76-.17 2.67-.05.89-.1 1.78-.16 2.7-.13 2.2-.26 4.4-.4 6.6-2.9-2.9-2.5-6.04-2.69-9.93-.05-.73-.09-1.46-.14-2.21-.18-3.27-.22-5.71.83-8.85z" style="fill:#1ba066"/><path d="m509.94 301.97 1 2c-2.13 4.58-5.47 7.53-9.19 10.81q-.84.75-1.69 1.52c-1.37 1.23-2.74 2.45-4.12 3.66l-2-1c.9-.89 1.81-1.78 2.74-2.7l3.57-3.54c.59-.59 1.19-1.17 1.8-1.78 2.87-2.85 5.59-5.62 7.88-8.97Z" style="fill:#0b985a"/><path d="m290.94 197.03 2 1c-.66 3.3-1.32 6.6-2 9.99h-1l-1 11.99h-1c-.08-2.52-.14-5.04-.19-7.56-.03-.7-.05-1.41-.08-2.13-.07-5.18.94-8.66 3.26-13.3Z" style="fill:#0f9558"/><path d="M798.94 305.97q1 3 .29 4.93c-.36.68-.73 1.36-1.11 2.06-.36.68-.71 1.36-1.08 2.06-2.8 4.91-5.14 6.45-10.11 8.93l-2-1c.59-.47 1.18-.95 1.79-1.43 5.54-4.64 9.18-8.99 12.21-15.56Z" style="fill:#0fa063"/><path d="m396.94 353.94 2 1-3 3 1 3-1.72.18c-4.78.52-9.53 1.11-14.28 1.82 2.76-2.76 5.87-3.57 9.49-4.9 2.5-1.09 4.4-2.38 6.51-4.1" style="fill:#119e62"/><path d="m712.94 255 2 1q.74 2.62 1.31 5.87.3 1.6.61 3.24.07 2.88-1.38 4.76c-.51.37-1.02.74-1.54 1.12-1.5-3-1.09-5.79-1.06-9.12 0-1.28.02-2.56.03-3.88.01-.99.02-1.97.04-2.99Z" style="fill:#119c64"/><path d="M783.94 323.96v2h-2l-1 3c-.97.29-1.94.58-2.94.87q-3.27.81-4.44 3.75c-.21.78-.41 1.57-.62 2.37q-1-3-.56-6c1.99-3.82 3.72-4.28 7.69-5.55q1.88-.45 3.88-.45Z" style="fill:#14a167"/><path d="M406.94 337.95c1.06 3.62.8 4.68-1 8-.7 2.32-1.37 4.65-2 7h-4c.28-.54.55-1.08.84-1.64 1.32-2.68 2.56-5.39 3.79-8.1.45-.98.89-1.97 1.35-2.98.34-.75.68-1.49 1.02-2.26Z" style="fill:#0d9a5f"/><path d="M451.94 287.98c1.58.45 3.17.91 4.75 1.37.88.26 1.76.51 2.67.77q2.58.85 4.73 1.94c2.36 1.16 4.25 1.05 6.84.91v2q-5.29 1.35-8.38-.19c-.87-.6-1.73-1.2-2.62-1.81-1.43-.75-2.87-1.48-4.31-2.19-.7-.34-1.39-.69-2.11-1.04-.52-.25-1.04-.51-1.57-.77v-1Z" style="fill:#109d61"/><path d="M270.94 185.04h1v15.99h2l1 5h-4z" style="fill:#1eae7c"/><path d="M275.94 222.02h1c.16.71.32 1.42.48 2.16 1.55 6.36 3.35 10.77 7.52 15.83l-2 1c-3.95-1.97-5.48-7.03-7-10.99-.38-2.83-.27-5.13 0-8" style="fill:#1f9f67"/><path d="m270.94 219.02 4 1-3 11.99h-1z" style="fill:#17aa78"/><path d="M610.83 147.21c2.68 1.08 4.61 2.59 6.86 4.41q1.2.96 2.42 1.94.9.74 1.83 1.5-3 1-5.56-.25-2.44-1.75-4.44-4.75-3.07-.73-6-1 3-2 4.89-1.85" style="fill:#16975c"/><path d="m718.94 237.01 1 2c-.63 1.68-1.3 3.34-2 5-.33 1.2-.66 2.39-1 3.62q-1 3.37-3 6.37c.31-6.62 1.74-11.22 5-16.99" style="fill:#0c9658"/><path d="M551.94 213.02c1.78 3.06 2.23 5.22 2.12 8.75-.02.8-.04 1.6-.05 2.42-.02.6-.05 1.21-.07 1.83l-3-1c-.08-4.16.02-7.94 1-11.99Z" style="fill:#149e64"/><path d="m407.88 241.91 3.62.04q1.83.02 3.63.03c.93.01 1.85.02 2.81.04l-1 3c-1.79.05-3.58.09-5.38.12-1 .02-2 .05-3.02.07q-2.6-.2-4.6-2.19 1-1 3.94-1.1Z" style="fill:#0aa267"/><path d="m567.94 172.04 1 3-1 2h-2v3h-2c-.29.8-.58 1.61-.88 2.44q-1.12 2.56-3.12 3.56c1.42-5.68 4.39-9.53 8-13.99Z" style="fill:#0e9658"/><path d="m751.94 285.98 2 2c-1.58.25-3.16.47-4.75.69q-1.32.19-2.67.39c-3.13-.09-4.3-1-6.58-3.07 4.32-.92 7.7-1.07 12 0Z" style="fill:#13a069"/><path d="M366.94 219.02c2.78 1.39 2.98 3.15 4 6h-2v5l-2-1q-1.29-7.41 0-9.99Z" style="fill:#12a56d"/><path d="m639.94 306.97 3 1q-1.75 4.87-4 6l-2 3q.75-7.75 3-9.99Z" style="fill:#0f975e"/><path d="m552.94 250 3 2q.69 3.62 1 7h-2l-1 2-1-10.99Z" style="fill:#0c9b5f"/><path d="m554.94 203.03 2 1c-.66 3.63-1.32 7.26-2 10.99-2.68-4.02-2.16-6.24-2-10.99z" style="fill:#15a16b"/><path d="M541.94 184.04c1.98 2.92 1.99 4.12 1.62 7.75-.21 1.07-.41 2.14-.62 3.25h-2c-.03-1.64-.05-3.29-.06-4.93-.01-.92-.02-1.83-.04-2.78q.1-2.28 1.1-3.28Z" style="fill:#1ba571"/><path d="M719.94 215.02h2l3 9-3-1q-1.69-3.56-3-7z" style="fill:#119c61"/><path d="m633.94 90.09-1 3c-2.34-.26-4.68-.59-7-1l-1-2c3.48-1.16 5.46-.71 9 0" style="fill:#18a46b"/><path d="m589.94 171.04-9 9c0-3.65.89-5.06 3-8q3.43-2.28 6-1" style="fill:#0a9656"/><path d="M669.94 158.05q1.19 2.56 2 5l-3-2v-2h-3v2h-4v-2q4.62-2.12 8-1" style="fill:#0d9358"/><path d="m674.94 402.92 1 2c-2.77 3.81-6.63 4.07-11 5 2.78-3.27 6.28-4.96 10-7" style="fill:#0ea162"/><path d="m733.94 308.97 2 2q-.24 2.38-.88 5.12c-.2.91-.41 1.82-.62 2.76-.17.7-.34 1.4-.51 2.12h-2v-4h2v-8Z" style="fill:#0f9b60"/><path d="m650.94 223.02 2 1c-.37 1.09-.74 2.19-1.12 3.31l-.88 3.69q.99 1.48 2 3l-4-2q-.25-5.62 2-9" style="fill:#098e4d"/><path d="m633.94 173.04 13 1v1q-5.94.49-12 1z" style="fill:#20aa76"/><path d="M322.94 345.95h2c-1.33 3.59-2.83 6.83-5 9.99h-2z" style="fill:#139c60"/><path d="m722.94 294.98 2 4q-2.97 2.47-6 5c1.06-3.4 2.01-6.01 4-9" style="fill:#129b5f"/><path d="m714.94 251 2 1q.12 2.87 0 6l-2 2-2-7z" style="fill:#17a978"/><path d="m252.94 272.99 4 2-3 6h-1z" style="fill:#15a168"/><path d="m101.94 196.03-1 2h-2v-2h-9v-1c4.72-.92 7.67-1.23 12 1" class="st82"/><path d="m285.94 184.04 2 1-7 6 1-6h3z" style="fill:#15a066"/><path d="M722.94 181.04h1v7l-3 1q.88-6.87 2-8" style="fill:#119a5f"/><path d="M.94 305.97h1v7q-2-3-1.62-5.18c.21-.6.41-1.2.62-1.81Z" class="st31"/><path d="M.94 358.94h1v7h-1z" style="fill:#28ba87"/><path d="M.94 276.99h1v7h-1z" style="fill:#29bc87"/><path d="M.94 268.99h1v7h-1z" style="fill:#29bc89"/><path d="M.94 351.94h1v6h-1z" style="fill:#29bb87"/><path d="M.94 314.96h1v6h-1zm0-79.95h1v5h-1z" style="fill:#28bc88"/><path d="M.94 221.02h1v5h-1z" class="st31"/><path d="m.94 340.95 1 4z" style="fill:#29bc88"/><path d="m.94 260.99 1 4z" style="fill:#28bb89"/><path d="m.94 192.03 1 4z" style="fill:#27b987"/><path d="m.94 144.06 1 4z" style="fill:#29b786"/><path d="m60.94 494.87 2 1z" style="fill:#25a87c"/><path d="m28.94 469.88 2 1z" style="fill:#24a57a"/><path d="m762.94 1.14 2 1z" style="fill:#22aa7d"/></svg>