<svg xmlns="http://www.w3.org/2000/svg" id="main" viewBox="0 0 872 514"><defs><style>.st1{fill:#482b61}.st2{fill:#fff}.st3{fill:#502d69}</style></defs><rect width="872" height="514" class="st3" rx="125" ry="125"/><path d="m90.99 62.93 1.66 5.18 1.47 3.13 4.3.68 4.11-.49 2.64-1.96.88-3.91v-5.09l-4.4-4.89-5.18-1.86-8.61 1.17-5.87 2.54-4.89 4.21s-5.48 8.71-5.77 9.49S68.2 82.18 68 82.87s-2.05 9.39-2.25 10.08-3.36 21.68-3.36 21.68L60.3 131.2l-2.61 23.61-2.93 26.48-3.39 28.57-3.78 41.22-2.87 16.17-2.48 5.61-2.48 3.52-1.83 1.57-2.61-.52-1.3-1.96v-2.87l-.65-1.96-2.09-1.83-2.48-.52-3.78.13-4.04 2.35-.78 3.78v4.57l1.17 3.39 2.61 3.52 4.3 1.43h6.91l6.52-2.22 4.7-3.65 5.22-6 4.43-11.22 4.43-24.65 3.91-27.26 3.39-29.74 4.57-37.7 2.48-25.04 5.22-41.87 1.7-6.13 2.09-4.3 1.83-2.48 2.09-1.83 1.57-.78 1.66.33Zm30.49 134.15 9.91-2.47 9.53-3.79 6-4.56 3.65-5.35 1.17-6.39-.78-6.13-4.7-6-6-2.09h-7.82l-8.09 1.83-6.13 5.21-6.65 8.22-4.7 9.26-.81 6.52v9.53l1.99 6.91 3.52 4.56 5.48 3.4 5.61 1.95h6.24l7.58-.91 5.48-3 5.35-3.78 4.43-4.57-8.21-3.52-4.83 4.43-4.17 1.83-5.09.26-4.57-1.3-2.34-2.87-2.22-4.44zm88.05-26.47h39.78v9h-39.78zm0 18.39h39.78v9h-39.78zm72.4 8.08 9.92-2.47 9.52-3.79 6-4.56 3.65-5.35 1.17-6.39-.78-6.13-4.69-6-6-2.09h-7.83l-8.09 1.83-6.13 5.21-6.65 8.22-4.7 9.26-.81 6.52v9.53l1.99 6.91 3.52 4.56 5.48 3.4 5.61 1.95h6.24l7.58-.91 5.48-3 5.35-3.78 4.43-4.57-8.21-3.52-4.83 4.43-4.17 1.83-5.09.26-4.57-1.3-2.34-2.87-2.22-4.44zM171.47 132l-3.52 3.82-2.74 2.35h-3.13l-2.25-2.05v-2.93l4.3-3.91 4.7-3.91 3.33-1.66h3.13l3.13 1.86 1.37 3.33.68 2.84.49 3.13v.98l5.87-5.97 3.82-4.11 2.35-2.05h2.64l2.15 1.96 1.08 2.05v2.05l-2.84 2.84-6.65 5.58-4.11 4.7-1.37 1.96s-.39 2.54-.39 3.03.39 3.82.39 3.82l.78 3.13c.1.39.78 1.57 1.08 2.05s1.57.78 1.57.78h2.45l2.05-1.66s2.15-.39 2.45-.29 1.08.29 1.37.59.59.98.88 1.37.49 1.37.39 1.96-.39 1.08-.68 1.47-2.15 2.45-2.15 2.45-2.84 1.27-3.13 1.47-4.4.68-4.4.68h-3.42l-3.77-2.25-1.71-3.72-.88-4.3-.49-1.76-7.34 7.43-3.13 3.03-2.54.98-3.42-.2-2.05-.88-1.66-1.57-.49-2.12v-2.58l1.47-1.27 2.35-.49 2.93-.1 2.25-.1 3.03-1.86 1.86-1.86 1.66-2.35 1.08-1.57.39-1.17.68-3.91-.1-2.74-.39-2.35s-.29-2.15-.39-2.64-.2-2.35-.2-2.35l-.78-.98Zm153.52 5.24-2.84 3.02-2.21 1.86h-2.53l-1.82-1.63v-2.32l3.47-3.1 3.79-3.1 2.69-1.32h2.53l2.53 1.47 1.11 2.63.55 2.25.39 2.48v.77l4.74-4.72 3.08-3.25 1.9-1.63h2.13l1.74 1.55.87 1.63v1.63l-2.29 2.25-5.37 4.41-3.32 3.72-1.11 1.55s-.32 2.01-.32 2.4.32 3.02.32 3.02l.63 2.48c.08.31.63 1.24.87 1.63s1.26.62 1.26.62h1.97l1.66-1.32s1.74-.31 1.97-.23.87.23 1.11.46.47.77.71 1.08.39 1.08.32 1.55-.32.85-.55 1.16-1.74 1.94-1.74 1.94-2.29 1.01-2.53 1.16-3.55.54-3.55.54h-2.76l-3.04-1.78-1.38-2.94-.71-3.41-.39-1.39-5.92 5.89-2.53 2.4-2.05.77-2.76-.15-1.66-.7-1.34-1.24-.39-1.68v-2.04l1.18-1.01 1.9-.39 2.37-.08 1.82-.08 2.45-1.47 1.5-1.47 1.34-1.86.87-1.24.32-.93.55-3.1-.08-2.17-.32-1.86s-.24-1.7-.32-2.09-.16-1.86-.16-1.86l-.63-.77Zm44.02 19.31v22.79h-20.15v7.44h20.15v19.96h9.1v-20.16h19.27v-7.53l-19.76.1-.09-22.6z" class="st2"/><path d="m129.86 169.46-3.13 3.46-3.13 5.15s-1.5 3.98-1.57 4.17-1.11 3.33-1.11 3.52v2.48l5.54-1.3 4.5-1.89 4.3-2.41 2.15-2.28 1.43-2.87v-7.63l-2.28-1.76-2.74-.33-2.54.78-1.43.91Zm160.53 0-3.13 3.46-3.13 5.15s-1.5 3.98-1.57 4.17-1.11 3.33-1.11 3.52v2.48l5.54-1.3 4.5-1.89 4.3-2.41 2.15-2.28 1.43-2.87v-7.63l-2.28-1.76-2.74-.33-2.54.78-1.43.91Z" class="st3"/><path d="m448.19 167.57 12-3-2.22-8.61-4.56-6.39-9-4.69-9.66-.79-10.69 3.18-7.31 5.95-6 10.05-3.13 12.39v11.74l1.83 11.09 5.48 9.26 7.82 6.52 8.35 3.13 8.35.65 7.17-1.69 6.66-3.92 4.56-4.56 3.78-4.96-6.91-6.26-6.78 6.91-6.65 3.17-6.14-.56-3.39-1.3-3.26-4.7-2.48-5.35-1.43-5.87-.52-7.32.78-9.5 1.7-7.05 3.78-6.52 3.26-2.02 5.61-1.11 4.3 1.11 2.09 2.81 1.43 3.91z" class="st2"/><path d="m313.51 514 52.7-85.3 38.09-46.43-7.04-12.52 1.3-12.78-10.17-15.91-5.22-18.26-4.17-20.61-1.3-16.43 2.35-11.22 6.52-4.43 7.04 1.3 10.7 7.04 11.48 10.96 15.65 15.13 15.39 19.3L457 337.93l37.3-16.7-1.57-12 1.57-9.65 5.74-11.22v-19.83l9.39-22.96 2.35-7.3-6-22.96-.26-14.35 2.87-16.7 1.04-11.74-3.65-12.23-1.3-11.51 2.61-8.61 2.09-5.48 2.61-22.96 4.17-12 7.3-13.57 7.3-10.43 7.3-7.3 7.3-16.7 13.3-12.26 19.04-12 18.52-6.78 21.13-3.91 27.65-1.83 20.09 3.13 17.48 4.43 18.52 7.04 25.57 13.83 12.52 10.17 10.96 12.52 6.52 14.87 6.52 18.78 1.04 2.74 7.43 4.5 6.26 8.22 5.67 7.43 1.96 9.78v12.52l-5.09 9.78 9.39 10.17 3.13 7.63 1.96 10.96-1.17 17.22-3.33 10.76-5.48 8.41-6.85 5.87-5.09 3.52-2.93 2.54-.78 11.54 9.98 8.61 2.93 5.04 2.35 7.48.39 4.9-.2 6.65-1.57 5.28-3.72 4.3-3.72 3.33-1.76 1.37.78 8.22-.59 6.07s-4.11 3.52-4.7 3.91-5.87 4.11-6.46 4.5-6.26.98-6.26.98h-5.67l2.74 2.15 8.22 3.72 8.22 3.72 7.43 3.13s3.13 1.37 4.3 2.15 26.8 12.13 26.8 12.13l21.33 11.35 15.85 10.96 16.63 13.89 8.22 10.17 1.33 1.64-.37 9.7-1.47 11.79-3.9 16.09-7.9 19.28-15.78 23.71-17.01 16.66-16.96 11.56-18.46 8.57-17.84 5.08-20.79 2.56h-438Z" class="st1"/><path d="m757.64 281.25-1.7 2.22 2.02 3.46 3.39 3.2 1.63 3-.46 4.17-1.7 4.04-4.89 2.67s-3.72 1.89-4.43 1.96-3.72-.13-4.24 0-4.04-1.04-4.57-1.11-3.39-2.48-3.78-2.74-2.87-3.46-3.2-3.85-1.37-2.28-1.7-2.8-1.24-2.67-1.37-3.26.07-2.02.13-2.54 1.11-1.63 1.17-2.15.91-1.17.98-2.09.26-2.35.2-3.72-1.5-2.35-1.76-3.39-.65-1.7-.78-2.48 2.48-1.83 2.8-1.96 4.11-.33 4.5-.52 4.57-.91 5.41-1.3 2.02-.39 2.8-.78 8.48-6.79 8.48-6.79 3.46-3 3.65-3.19 2.8-3.46 3-3.78 1.96-2.02 2.09-2.28 2.15.33 2.15.33 2.15 2.61 2.22 2.8 1.04 2.02 1.43 2.67 1.37 2.54 1.57 3.07.59 3.91.59 4.43.07 3.13 0 4.24-.2 2.67-.52 3.46-1.89 3.2-2.09 3.46-2.35.98-3 1.24-3.33.46-3.98.52-2.87-.07-3.13-.07-2.93-.13-2.93-.13ZM580.87 509.74h19.37l128.35-51.07V448.5z" style="fill:#8a6491"/><path d="m409.03 364.17 8.21 1.3 5.09-1.3v-4.04l-4.57-4.57-10.82-6-4.18-5.09-3.65-9-7.17-20.86-1.7-11.74-1.3-19.7 10.43 7.04 13.05 11.35 12 14.35L436.38 330l15.69 21.78 7.3 12.52 6.13 13.04 1.83 6 1.3 3.27h3.92l3.26-1.7-1.31-4.57 1.31-5.73 1.3-.92 1.96 3.13 2.35 4.44 2.21 8.08-.65 10.96-1.69 18.13-1.44 3-6.26-7.96-6.78-11.08-5.48-13.05-6.26-9.65-18.78-29.48-12.53-18.39-2.6-1.04-3.4.39-1.3 1.7.78 4.17 6.79 12.91 18.39 29.48 10.82 17.74 8.35 15.52-4.96-.39-7.17-2.61-7.83-4.04-5.63-3.91-7.15-6.53-9.26-10.95-6.39-8.87-3.91-7.7zm-5.61 127.3 43.24-10.17-.59-2.18-5.28-3.3-4.79-1.37-3.82-1.56.78-6.65h11.54l6.07 3.32 4.11 3.52 5.08 2.74 1.77 1.76 26.02-.78v-2.74l-3.92-3.52-6.84-6.26-8.22-5.67-8.02-4.31-6.85-2.54-3.52-1.76-2.15-1.5.19-4.37.98-1.96 5.28-.98 5.09 1.57 5.28 2.54 9.39 6.46 13.31 11.35 13.3 14.28 12.33-.2-3.13-9.58-3.92-7.24-5.47-7.24-8.42-8.42-10.76-9.39-10.37-6.85-8.8-3.13-10.76-3.91-8.81-1.37-6.74 1.37-8.91 9.39-10.17 11.55-8.03 10.37-5.47 10.17-1.76 9.98v18.58zm116.41-20.6 5.87-6.13v-5.35l-2.94-4.18-5.41-3.39-4.17-1.3-3.26.91z" class="st2"/><path d="M388.94 509.74h141.19l4.44 3.13 6.8.57 5.41.29 4.7-.68 3.78-1.63 4.66-3.92 3.46-2.48 12.91-4.32 63.2-27.39 87.26-34.24v-2.74l-1.57-1.37h-68.67l-15.85 2.74-15.85 3.52-14.28 4.11-11.93 5.19-10.18 6.16-11.74 7.83-8.41 8.02-10.43 10.96-8.94 7.98-4.7 5.52h-4.5l-5.67-2.94-9.78-2.58-11.07-2.51-11.43-.58-31.89.98-10.96.97-14.48 2.74-14.87 3.13-16.43 3.92-14.28 4.69-6.66 2.94z" class="st2"/><path d="m563.05 380.83-2.15 11.35-1.37 14.87v20.15l1.76 17.02 2.74 11.54 1.76 3.91 9.59-7.04 9.59-6.07 6.85-10.17 7.04-9.59 8.61-11.35 10.37-11.93 10.37-10.37 10.57-7.83 15.96-13.5 13.78-11.74s12.13-11.93 12.52-12.52 6.46-8.22 7.24-9.78 4.89-7.43 4.89-7.43l12.52-18.98 1.96-7.43 1.37-6.07-2.15-5.48-3.13.98-1.96 6.46s-6.26 11.93-6.65 12.72-6.85 10.96-7.24 11.54S673.02 337 673.02 337l-10.76 4.5-6.85 7.43s-5.87 5.67-6.26 6.26-5.48 4.5-6.26 5.28-8.61 5.48-8.61 5.48l-9 4.5-4.7 1.17h-7.04c-.59 0-2.93.2-3.91.2s-3.72.59-3.72.59-3.72 2.93-4.7 3.62-9.78 4.01-9.78 4.01l-6.07 1.96s-6.46.78-7.63 1.17-2.54.39-3.72.39-5.09-.78-5.09-.78l-4.3-.59-1.57-1.37Z" class="st2"/><path d="m512.18 329.83 2.48-7.3 4.04-8.09 3.52-1.04 2.22 2.35s-.78 3.91-.78 4.43-2.09 6.52-2.35 7.57-.39 5.48-.39 7.43.39 4.83 1.17 6.91 3.26 6.65 3.91 7.83 1.7 2.61 4.04 4.43 5.09 3.65 7.3 4.7 4.83 1.96 5.61 2.61 2.48-.52 2.48-1.04v-6.65s.65-3.39 1.04-3.52 1.7-1.57 2.61-1.43 1.96.39 2.61.65 1.3.26 1.57 1.04.78 2.35.78 3.78 0 2.87.39 4.7.39 1.83.78 3.39.91 2.48 1.57 3.65.13.91 1.96 2.48 1.17 1.3 3.65 2.22 2.35.78 5.48 1.3 3 .65 6.26.26 3.13-.52 6.52-1.17 2.48-.65 5.61-1.3 3.78-1.57 5.87-2.35 2.09-1.3 3.91-2.48 1.96-1.83 3.26-2.74 2.09-1.83 3.26-2.74 1.57-1.7 3.13-3.13 2.74-3.13 3.13-3.65 3.26-6.65 3.26-6.65l.52-4.96 1.96-2.48 4.3-.26 3.13 4.48s-.26 3.34 0 4.13-.52 3-.91 4.43-.26 1.57-.78 2.74-.78 1.96-1.17 3l-.39 1.04s.65 1.04 1.17 1.17 3-.13 3.65-.52 1.57-.65 2.48-1.3 2.35-1.7 3.26-2.09 1.96-1.17 3.65-2.22 2.87-1.57 3.78-2.35 1.3-.91 2.35-1.83 1.17-1.04 2.35-2.35 1.96-2.09 2.48-2.61 7.17-9.13 7.17-9.13l1.96-8.87 1.96-10.7.52-3.91 2.35-1.43h2.48l1.96.78 1.04 2.48v13.43l.65.78 1.83-.13 2.87-1.43 4.96-5.09 7.17-7.83 10.3-18.26 4.17-11.87 3.26-11.48 1.83-11.22.52-22.43 1.7-1.3 2.61.91 2.35 1.57 2.09 1.04c.78.39 3 .39 3 .39s1.83.26 2.22.13 4.3-1.83 4.3-1.83 2.48-2.35 2.87-2.22 2.74-1.96 3.13-2.35 1.83-2.35 2.48-3.13 2.09-2.61 2.35-3.13 1.43-2.09 1.96-3 1.43-2.48 1.7-3.26 1.04-2.74 1.3-3.39.65-1.7.78-2.22-.52-1.7-.52-1.7l-2.63-1.04s-1.02-.65-1.54-.91-1.7-.65-1.7-.65-.78.13-1.17 0-.52-1.43-1.3 0-1.96 3.26-2.35 4.17-.39.78-1.04 1.83-1.04 1.43-1.57 1.96-.91.65-1.57 1.04-.91.26-1.7.65-1.3.39-2.09.39-1.83-.78-1.83-.78-.52-.78-.78-1.43-.39-1.3-.39-2.09v-5.22c0-1.43.26-1.96.26-3.13v-5.35c0-.52 0-.78-.65-1.17s-.78 0-1.57-.91-1.43-1.3-1.96-1.7-.65-.52-1.3-1.04-1.43-1.17-1.96-1.57-.78-.52-1.3-.91-1.3-.91-1.3-.91l-.91-.65h-.65s-1.3.91-1.57 1.43-.26.78-.39 2.09.26.13-.39 2.09-1.04 2.61-1.43 4.04-.39 1.57-.91 3.13-.39 1.3-.91 2.74-.65 1.17-1.3 3.13-.78 1.83-1.43 3.52-.52 1.7-1.43 3.39-1.17 2.09-1.96 3.52-.52.91-1.7 2.87-1.43 1.83-2.48 3.52-.65 1.17-1.96 3.13-1.17 2.09-2.48 3.26-2.35 2.35-2.74 2.74.26-.26-1.3 1.57-.52.91-2.09 2.48-1.57 1.83-2.35 2.61-3.39 3.39-4.17 4.3-.91.65-1.57 1.83-.78.91-1.17 1.83-.39 1.17-.65 1.83-.52 1.43-.65 2.35.13-.26-.13.91-.26 1.3-.52 2.35-.39 2.34-.52 2.74-.13.4-.26.92.26.78-.91 1.04-2.35.39-2.35.39-.52.13-1.17.13-.91-.26-1.7-.39-1.3-.26-1.43-.65-.26-.92-.39-1.44-.39-3.39-.39-3.39l-.13-3.39s.52-2.48.52-2.55.26-.45.52-1.37.78-1.43 1.04-2.22.78-1.7 1.04-2.22.39-.52.78-1.3.65-1.17 1.17-1.83.39-.65.91-1.3.78-.39 1.7-1.57 1.04-1.3 1.7-2.09 1.04-1.04 1.7-1.96 1.7-1.3 2.09-1.96.26-.65.91-1.43 1.17-1.04 1.83-1.7 1.04-.91 1.83-1.96 1.17-1.3 1.83-2.35.65-1.3 1.43-2.61.91-1.43 1.43-2.48.39-.91 1.3-2.48 1.17-2.35 1.83-3.65.65-1.83 1.43-3.39.91-1.96 1.43-3.26.65-1.7 1.04-2.74.39-1.17.78-2.35.65-1.7 1.04-2.87.52-1.83.91-3 .52-.65 1.04-2.87.39-2.48.91-4.17.52-1.96.78-3 .13-.65.52-2.22.78-2.74.78-3.39.13-.26.13-1.43-.26-1.3-.26-1.83-1.3-3.26-1.3-3.26-1.7-2.87-1.83-3.26-1.17-3.39-1.17-3.91-.26-1.17-.26-2.09-.13-1.3-.39-3.13-.26-1.96-.39-3.39-.13-1.43-.13-3.26v-3.78c0-1.7 0-1.57.13-3.65s.26-2.48.39-4.3.39-2.35.52-3.91.26-2.35.52-4.04.39-1.7.52-4.3.13-2.35.13-4.43.26-1.96.26-4.43v-4.7c0-1.43-.13-1.04-.39-3.13s-.13-1.7-.52-4.43-.39-3.13-.78-3.78-2.87-7.43-2.87-7.43l-4.57-6.65-4.96-5.74-7.3-5.35-6.91-3.65-9-1.83-8.61-.78s-6 .39-7.57.52-9.26.52-9.78.65-4.17.26-5.74.52-2.74 0-5.22.39-7.7.91-9.26 1.04-2.74.13-4.96.13-3.78 0-7.04-.13-3.78 0-6.78-.26-2.48-.52-4.17-.52-1.04-.13-3.78-.39-1.04.13-5.48-.91-5.35-1.3-6.91-1.7-13.17-3.65-13.17-3.65-4.43.39-4.96.91-2.61 1.43-3.26 2.09-2.09 1.83-2.48 2.48-6.26 7.17-6.26 7.17-3.91 6.13-4.57 7.04-2.09 2.09-2.74 3.26-1.83 3.91-2.35 5.22-1.17 3.13-1.57 4.83-.78 2.74-1.3 4.96-.78 3.52-1.04 5.22-.39 3-.65 4.7-.39 2.87-.52 4.43.13 1.7-.39 3.91-.78 2.48-1.04 3.91-.39 2.22-.78 4.17l-.39 1.96s.26.52.65.52 1.7-.39 2.61-.39 2.87-.52 3.26-.52 1.3-.39 2.74-.39 3.91-.39 4.7-.39 3.65-.39 4.3-.39.78-.13 3.65.52 2.74.26 4.96 1.04 1.96.13 3.78.91 1.96.26 3.65 1.17 5.35 3.39 5.35 3.39l4.83 3.91s1.83 2.48 1.83 2.87.26.78.39 2.35.13 1.96.13 3.65.26 1.83 0 3.65.13 1.3-.65 4.04-1.04 2.87-1.43 4.96-.78 2.48-1.17 4.17-5.35 15.78-5.48 16.17-.13 1.04-.26 2.09.26.91-.65 3-.91 2.22-1.7 3.91-.78.91-1.96 3.78-3.39 13.83-3.52 14.61-.13 1.57-.26 2.74-.26 1.96-.39 4.04-.39 2.87 0 4.3 1.3 2.61 1.83 3.13.78 1.04 2.87 1.43 2.61.52 4.7.52 3.26 0 4.96-.39 2.35-.52 5.35-.78 3.13-.39 5.74-.78 3-.65 4.7-.78 2.09-.39 3.78-.78 2.48-.52 2.74-1.04.39-1.57.52-2.09.13-1.7-.39-2.48-.78-1.04-1.17-1.83-.78-.52-.91-2.09-.52-1.7.13-2.61.78-1.57 1.7-1.7 1.43-.78 2.87-.13 2.61 1.17 3.78 2.22 1.7 2.31 2.48 2.92 0 .21 1.7 2.3 1.57 1.96 2.74 3.26.78 1.3 2.09 2.09.65.52 3.52 1.83 3.39 1.17 5.61 2.48 6.52 5.48 6.52 5.48 2.61 2.35 3.52 3.39 1.96 2.22 2.87 3.13 1.06 1.43 2.1 2.48 1.56 1.57 2.47 2.74 1.17 1.57 2.22 3 .78.65 2.22 3.52 2.09 3.91 2.48 4.82.13 1.05.78 2.48.91 2.48 1.57 3.91.91 3.91.91 3.91.26 1.7.26 2.48.26 1.83.13 2.87-.39 1.83-.78 2.35-1.7 1.04-1.96 1.17-3-.49-3-.49l-2.61-3.03s0-.65-.26-1.96-.39-1.96-.91-3.39-.65-1.7-1.04-2.61-.39-1.3-1.04-2.35-.5-1.04-1.43-2.22-5.88-8.09-5.88-8.09l-5.09-6.52-7.7-7.3-7.17-4.17-5.38-1.04-7.92.52-6.91 2.74-7.17 1.57-6.52.65-8.74.26-7.17-.91-4.17-2.61-4.17-3.52-2.74-.91-4.17-.78s-2.22 1.04-3.39 1.43-4.83 2.74-5.09 3.13-3 4.43-3.52 5.35-3.39 7.04-3.52 7.7-3.91 9.39-3.91 9.39l-1.43 5.22s-1.04 5.74-1.04 6.26-.13 4.04 0 5.74-.12 3.26-.06 4.57.59 1.83 0 3-.46 2.09-.99 3.13-1.04 2.48-1.17 3.39-3.13 7.96-3.13 7.96l-1.17 4.3v6l.78 4.3s.91 2.87 1.04 3.39 1.3 2.87 1.3 2.87 1.04 1.83 1.3 2.22 1.57 2.09 1.57 2.09l1.7 1.43-.13-.52Z" class="st2"/><path d="m537.94 181.07 2.28-1.17 5.75-4.17 1.49-.66h2.09s-.26.26 0 .65-.78 4.83-1.04 5.35 0 .39-.91 2.61-1.57 4.17-2.09 5.48-1.52 2.35-1.74 4.3-.35 2.74-.87 4.17-.39 1.43-.91 3.78-.26 2.35-.91 4.83-.78 2.74-1.17 4.3-.39 1.3-1.04 3 0 1.7-.91 3.52-1.57 3.78-1.57 3.78l-3.39 3.78s-1.57 2.74-2.22 3.39-2.61 1.04-3.39 1.43-2.35.78-2.87 1.04-2.22 0-2.22 0 .52-1.3 0-2.48-.78-2.9-1.17-4.06-.26-1.29-1.04-3.24-1.17-3.39-1.57-4.96-.26-2.09-.65-3.91-.39-1.3-.52-3.78.13-3.28 0-5.22-.73-1.82-.04-4.3.82-2.87.95-4.7 1.43-12 1.43-12 .39-.65.65-2.87.13-2.61.26-3.91.13-.91.13-3 .13-1.43-.13-3.39-.65-2.09-1.17-4.04-.78-2.22-1.04-3.26-.13-.65-.39-2.35-.39-2.74-.39-2.74-.39-.65 0-1.43 1.17-1.17 1.17-1.17 2.48-.78 3.13-1.04 1.96-.39 2.74-.65 2.22-.91 4.3-1.04 3.33.13 4.34 0 3.23.06 3.75-.04.65-.71 3-.01 2.09.44 3.78 1.22 1.57.65 3.13 1.3.47.78 2.65 1.43 2.96.78 3.61 1.3l.65.52s.78.78.65 2.74 0 1.7-.52 3-1.57 2.87-1.57 2.87l-.78.91s-1.83.65-2.74.26-2.48-1.7-3.13-1.83-2.48-.65-3-.78-4.04-.39-4.43-.39-1.17-.26-1.83-.26-1.04-.26-1.83 0-1.3.13-1.96.39-1.17.26-1.7.65-.39-.13-.91.91-.39 1.17-.52 2.22-.39 1.04 0 2.22 1.43 1.96 1.7 2.35.65-.78.52.91-.39 2.09-.52 3.13-.65.91 0 2.22.26 1.43 1.43 2.09.82.78 3.02.78m212.73 34.46-4.17 9.13-3.65 9.26-4.87 7.57s-5.17 3.52-5.56 3.78-6.26 4.57-6.78 4.96-4.57 2.09-4.83 2.61-1.17 2.35-1.04 3.52 2.35 4.43 2.87 5.48 1.7 1.17 2.61 1.83 3.52 1.3 4.57.84 4.55-1.1 5.41-1.24 3.2-.65 4.12-.91 2.74-.78 4.17-1.17 3.26-1.17 4.7-1.96 2.74-1.02 3.52-2.2 1.57-1.97 2.61-3.14 1.57-1.57 2.35-3 1.17-1.96 1.96-4.17 1.17-3.39 1.17-4.96-.52-3 0-4.96.65-3 .91-4.7.52-2.87.78-4.83.13-1.73.78-3.28.78-1.68 2.22-3.24 2.09-2.09 3-2.48 2.48-.65 3.78-1.7 2.48-1.7 3.26-2.22 7.96-7.96 7.96-7.96l2.48-7.04s.78-5.22.78-5.74-.26-2.61 0-4.17-.26-2.87 0-4.3-.13-3.52 0-4.43-4.3-10.57-4.3-10.57-5.22-6.26-5.48-6.78-1.17-2.61-1.96-3.13-2.48-1.3-3-1.7-2.35-1.17-2.74-1.43-18.65-9.13-18.65-9.13l-7.04-.78s-3.75-.78-4.61-1.04-2.82-.91-3.6-1.3-2.48-1.04-3.13-1.43-1.43-.65-2.22-1.57-1.43-1.3-1.7-2.09-.26-1.3-.13-2.22.13-1.04.52-1.57 3.13-1.04 3.13-1.04.39-.39 1.57 0 1.57.65 3.65 1.17 3.13.78 4.57 1.04 1.43.13 4.7.91 4.96 1.17 5.61 1.43 1.96.65 3.13 1.04 3.13.78 4.57 1.43 1.3.65 3.52 1.57 4.17 1.17 5.35 1.83 2.61.78 3 1.04 2.61.39 2.61.39 1.57.39 2.22-2.09.91-5.09 1.04-6.13-.91-10.83-.91-10.83l-4.17-7.43-3.13-2.87-4.17-3.26-2.61-2.09-6.13-5.35-1.57-4.7-1.7-6s-.65-2.48-1.04-3.52-1.3-3.78-1.83-4.83-.39-1.43-.91-2.74-7.57-14.22-7.57-14.22l-4.7-6s-6.13-5.74-6.39-6.13-18.78-13.7-18.78-13.7l-17.87-7.04-16.57-6.13-22.83-4.3-17.61-.91-19.43 1.96-15.91 3.39-21.52 9.39-10.04 7.17s-3.13 6.13-3.26 6.65-.65 4.96-.65 4.96l.91 3s1.04 1.43 1.57 1.96l2.35 2.35 2.09 1.04 1.83 1.04 2.48.39 1.04.13.78-.26.52-1.96v-2.87c0-.52-.13-1.04-.13-1.83v-1.83c0-.91 0-1.43.13-2.09s.13-.52.39-1.57.65-1.57.91-2.48.13-1.17.52-1.96l.91-1.83c.26-.52.65-.91 1.04-1.57s.78-.91 1.04-1.3.78-.65.78-.65l1.3-.65 1.3-.26 1.04-.13s.65-.26 1.04 0 .65.65.78 1.3.39 1.04.39 2.09 0 1.17-.13 1.83 0 .78-.26 1.7-.13 1.17-.39 2.09-.39.65-.39 1.83v5.09c0 1.04-.13 1.04 0 2.22s.26 1.7.39 2.61.13 1.04.26 1.57l.13.52s.65.65 1.57 1.3 1.57 1.17 2.61 1.43 2.35.52 2.87.52h2.48c1.17 0 2.61-.26 3.52-.26s3.78-.39 4.96-.39 1.7-.26 3.13-.26 1.3-.13 3.13-.26 3.13-.26 4.43-.39 1.57-.26 3.13-.39 2.61-.39 3.65-.39 2.61-.26 3.39-.26 1.17 0 3.26-.13 3.39-.26 5.74-.39 2.35-.26 4.57-.39 2.09-.13 4.7-.39 4.57-1.04 5.22-1.17-.26 0 2.87-.78 2.09-.52 5.48-1.43 4.04-1.43 5.87-1.7 1.83-.52 4.43-.91 2.96-.65 4.74-.91 1-.52 3.61-.52 4.7-.13 5.09-.13h2.74c1.83 0 1.96-.26 5.09.26s2.48.13 4.7.78 2.09.39 4.7 1.43 3.65 1.04 5.35 1.83 1.17.39 4.17 1.83 3.52 1.83 4.3 2.61.91 1.3 1.3 1.83.91.78 1.04 1.7 0 1.04-.65 1.63-1.17.59-2.09.85-1.43.52-2.74 0-2.35-.91-2.87-1.43-1.17-.91-2.09-1.43-1.83-1.17-3.91-1.57-1.96-.52-3.39-.65-1.7-.39-3.13-.52-3.91-.78-3.91-.78l-4.17-.39h-5.35l-6 .39-4.43 1.17-3.39 1.43v1.43l3.13 1.5 3.91 2.8s1.3.91 1.96 1.57 1.83 1.17 3.13 2.22.91 1.17 2.22 2.09 1.04.91 2.35 2.22 1.43 1.57 2.48 2.74.91.91 2.35 2.48 5.48 8.09 5.48 8.09l2.74 6.91 3 9.78.65 7.17-.78 17.48s-1.43 8.74-1.43 9.13.26 6.65.26 7.17 1.17 9.91 1.3 10.43 1.3 5.09 1.57 5.48 4.96 8.22 4.96 8.22l4.04 5.09 6 5.22 5.09 3.65 4.7 3.39s4.04 1.7 5.09 2.35 4.34 1.43 4.39 1.7 3.05 2.09 3.7 2.48 6.26 4.7 6.26 4.7l2.48 2.35.26 3.39Z" class="st2"/><path d="m549.03 288.42 4.3 2.87 3.78 1.7 5.74.39h3l6.13-.46 2.61-1.7s1.37-1.76 1.43-2.02.39-1.43.39-1.63.13-1.24 0-1.43-.26-.78-.59-1.17-.91-.72-1.11-.78-.85-.2-1.37-.26-.91.07-1.57 0-1.83.13-2.74.33-.85.2-1.63.33-1.17.2-2.28.26-1.37.13-2.54 0-1.63-.07-2.61-.39-.2-.13-2.48-.85-1.7-.78-3.13-.98-1.37.26-2.22 0-.72-.23-1.76-.05-.78-.01-1.37.44-.65.59-.72 1.3.2.85 0 1.43.11 1.3-.01 1.57.73 1.11.73 1.11Z" class="st1"/><path d="m530.44 278.77 9-7.04 4.43-3.78 3.39-.65 5.35 2.48s2.09.52 3.65.52h5.48c1.57 0 3.39-.13 4.96-.13s4.83 0 5.87.13 2.59 0 3.91.26 2.22 0 3.92.65 1.83.91 3.65 1.83 2.35 1.3 4.43 2.61 3.32 1.96 4.27 3.13.82 1.43 2.38 2.48 1.96 1.57 3.13 2.48 1.04.78 3 2.09 2.61 2.09 3.26 2.09 1.96.39 2.61 0 1.17-.79 1.57-1.31.78-.78.78-1.83-.65-2.22-1.43-3.52-1.3-1.43-2.09-2.74-2.22-1.96-3.91-3.65-1.96-1.7-4.04-3.13-2.61-1.3-4.3-2.48-2.35-1.7-4.04-2.61-1.7-.88-3.91-2-2.35-1.52-3.52-1.78-1.43-.65-4.04-.78-3.91-.13-5.61-.13h-10.21c-2.31 0-4.14.65-5.31 0s-2.35-.78-4.3-1.57-1.96-1.17-3.91-1.17-1.7-.39-4.17-.13-1.83-.52-3.13.52-1.57.78-3.26 2.35-.91 1.08-3.26 2.69-2.74 1.48-4.57 3.05-1.96 1.57-3 2.87-1.17 1.65-1.96 2.98-1.17.67-.78 2.5.91 2.22 1.43 2.74 1.3.65 1.3.65h1.83l1.17-.65Zm73.63-102.59h-3.13l-3.52-1.57v-3.52l1.96-1.96 4.7-.98h21.33s3.91 1.96 4.5 2.35 1.76.98 2.93 1.66 2.93 2.05 2.93 2.05l1.76 1.96 1.17 2.54s1.17.98 0 1.57-2.74.78-2.74.78-1.57.78-2.15.98-3.13 0-3.13 0-1.76-.59-2.15-.98l-1.76-1.76s-.59-.78-1.17-.98-1.17-.59-1.76-.59-1.57.59-1.57.59-.59.78-.78 1.76.39.37-.39 2.04.54 2.07-.9 2.65-1.83 1.17-2.81 1.76-1.96.98-2.74.98h-2.74c-1.57 0-1.5.2-2.41 0s-2.09-1.17-2.09-1.17-.78-.98-.98-1.76-.39-1.17-.59-1.96-.59-1.57-.59-2.35.2-2.26 0-2.4-1.17-1.71-1.17-1.71Zm46.05-23.02 5.48 4.17 2.74 2.87s.26 3.13 0 3.78-2.09 1.7-2.35 2.09-2.61.91-3.26.91-3.78-1.17-4.57-1.7-3.13-2.22-4.17-3-2.22-1.7-3.13-2.22-.91-.65-3-1.3-1.7-1.43-4.96-1.7-4.04-.52-5.87-.65-1.96-.26-4.83-.52-3.26-.26-5.87-.26-1.96.13-4.04.26-1.43.13-4.04.39-3.65.39-6.13.65-1.43.52-4.7.78-1.63.39-4.66.65-2.51.26-4.2.39-1.83.26-2.48 0-2.74-.91-2.87-1.43-1.43-3.39-1.43-3.39l.65-3.38 3.78-1.58 7.57-2.22 8.74-1.83 7.57-.65h12.13l10.7 1.28 7.83 2.63 5.87 2.36 3.52 2.6ZM611.48 64.5l13.11-9.78 8.32-5.18 9.29-2.35 5.48-1.76 3.82-1.57v-3.33l-6.55-.98s-5.67 1.17-6.26 1.47-9.49 3.03-10.08 3.33-11.64 6.55-11.64 6.55-3.52 4.3-4.11 4.79-4.3 3.33-4.5 3.62-.98 2.74-.78 3.23 3.91 1.96 3.91 1.96Zm143.8 129.62 1.08 4.5v3.42l2.74 1.47 3.03-.88 1.76-2.35v-6.16l-1.17-5.09-4.5-7.14-8.12-7.14-9-4.6-6.75-1.99-4.3.42-1.37 2.74v3.13l3.42 2.05 4.6 1.38 4.6 1.55 3.13 1.37s2.45 1.57 2.74 1.96 1.96 1.57 2.25 1.96 2.05 2.89 2.05 2.89 1.27 1.9 1.37 2.2 1.47 2.74 1.47 2.74l.98 1.57Z" class="st1"/></svg>