<svg xmlns="http://www.w3.org/2000/svg" id="main" viewBox="0 0 872 514"><defs><style>.st0{fill:#fff}.st1{fill:#19395a}</style></defs><rect width="872" height="514" x="-.46" class="st1" rx="125" ry="125"/><path d="m151.91 139.88-4.5-13.11-11.35-11.35-16.24-4.7-17.22 1.57-15.85 8.02s-9.2 14.09-9.78 14.67-5.28 17.02-5.48 18-2.15 25.43-2.15 25.43l2.93 18 7.43 15.65 8.41 7.83 10.96 5.28 11.54 1.76h10.37l8.22-4.89 5.87-4.11 4.3-4.89 1.96 11.15 13.11.2v-58.3l-36.2-.39-.39 18 17.22-.2.59 6.26-.78 6.65s-1.37 2.93-1.76 3.72-4.3 4.7-5.09 5.28-4.5 2.15-5.28 2.35-5.87.98-6.46.98-6.85-.2-6.85-.2l-4.7-2.15-2.74-2.93s-1.96-2.54-2.74-3.33-1.76-2.74-2.35-3.72-1.17-3.13-1.57-4.3-1.17-2.93-1.57-4.7-.39-4.3-.59-5.48-.39-3.91-.59-6.26-.39-5.67-.39-6.85.39-2.93.39-4.11-.2-2.35 0-3.72.39-2.35.39-3.52 1.96-9.59 1.96-9.59l1.57-5.67s2.15-3.13 2.35-3.91 3.13-4.7 3.13-4.7l5.28-2.93s4.3-.98 4.6-.98 5.77-.39 5.77-.39l6.85 1.37 3.33 2.54 2.54 4.5 1.76 4.11s1.96 3.33 2.15 4.11 1.37 2.54 1.37 2.54h3.13l3.33-1.57 2.54-1.37 1.76-1.57 2.54-1.57 1.96-1.17.98-1.37Zm14.41 5.81h20.22v55.96l2.09 4.7 1.57 1.96 3 .78h10.04l1.7-.91 1.7-2.22s.65-1.3 1.04-1.83.91-1.17 1.04-1.57.65-1.3.65-1.3v-55.57h19.7v79.57H209.5l.13-9.52-.78.26-.78 2.61s-1.3 1.17-1.57 1.57-2.35 1.57-3 2.09-2.22 1.83-2.74 2.09-.39.52-3.07.91-3.33.52-4.89.78-2.35 1.3-4.17.91-3 .65-4.7 0-2.35-.91-3.26-1.04-3-.91-3.78-1.17-1.7-1.04-2.22-1.57-.91-1.43-1.7-2.35-1.7-2.35-2.35-3.13-1.04-1.43-1.43-1.96-1.17-2.74-1.43-3.65-.39-1.96-.65-2.74-.91-1.96-.78-2.48-.02-3-.02-3l.02-58.17Zm85.3-20.28h19.7v20.28h14.74v16.11h-14.48v42.52l.78 2.87 1.96 1.57 2.61.65h2.35l1.83-1.17 1.17-.65 1.7 3.91 1.04 2.22 1.04 3.13 1.83 2.87.65 1.96-3.26 2.61s-5.87.78-6.39.91-4.17.65-5.35.78-4.43-.13-6.13 0-4.57-1.04-5.87-1.17-2.87-1.43-3.39-1.83-2.74-2.74-2.74-2.74-1.3-2.22-1.57-2.61-1.43-2.74-1.7-3.26-.13-2.35-.52-3-1.04-3.65-1.04-3.65v-46.43l-10.7.13V145.7h10.83l-.13-20.28h1.04Zm94.99 74.49 11.35 9-7.24 9.98-5.67 3.72s-5.48 1.17-6.26 1.57-7.43 2.13-8.02 1.85-10.96.03-10.96.03l-6.07-1.1-3.72-2.93-5.09-3.72-2.74-2.54-3.13-4.11s-1.76-2.35-1.96-2.93-2.54-5.87-2.54-5.87-.98-3.91-1.37-5.28-.98-5.48-1.17-6.07.39-3.13 0-3.91-.04-7.24-.04-7.24l-.14-5.48 2.53-7.24 4.3-8.22s1.76-2.35 2.15-2.93l2.74-4.11c.39-.59 4.89-3.33 4.89-3.33l5.67-2.54 5.09-2.15 5.68-1.37h5.86l5.09.98 3.91.78 5.28 2.93 3.33 2.74 4.89 5.28 1.96 3.72 2.74 4.7.98 4.3.78 3.33.98 3.98v15.49l-47.93-.29.59 4.5 1.08 4.21 1.08 2.15 2.05 2.54 2.05 1.86 2.05 1.37 3.03.78 3.23.59 2.15.1 2.74-.39 3.42-.59 2.15-.98 1.47-1.08 2.64-1.96 1.96-1.66 1.37-1.27.78-1.17Z" class="st0"/><path d="m313.16 176.23 1.17-4.79s.78-1.76.88-2.15 1.47-3.03 1.57-3.52 1.66-1.96 1.96-2.45 3.72-2.64 3.72-2.64l2.74-1.08h3.33c.39 0 4.21.68 4.5.88s1.86.98 2.15 1.27 1.76 1.86 2.25 2.74 1.17 2.45 1.27 2.74.49 1.96.68 2.64.68 2.25.68 2.74.49 3.1.49 3.1v1.2h-27.39z" class="st1"/><path d="M369.31 145.74h20.87v8.61l3.13-3.13 3.65-3.26 4.57-2.22 3.26-.65c.65-.13 5.35-.65 5.35-.65h4.96l5.61 1.04 2.74 1.3s3 1.96 3.26 2.61 2.35 2.74 2.35 2.74l2.61 3.91 1.3 3.55.65 5.58v60h-20.87l-.26-58.3-1.3-3.91s-2.09-1.3-2.48-1.96-2.48-1.4-2.48-1.4h-5.35s-3.52.62-3.91.75-2.22 1.57-2.35 1.96-.91 1.96-1.43 2.74-1.43 1.99-2.09 3.21-.91 2.66-.91 2.66v54.26h-20.87v-79.43ZM125 259.8h72.68v18.39h-26.31l-.19 91.76h-22.31l.39-91.95-24.26-.2zm69.66 43.11 12.78 9.39 6.78-6.13 4.04-1.83 3.39-.26h5.09l3 .91 2.61 3.26s-.26 2.22 0 3 0 10.04 0 10.04h-20.09l-11.74 4.43-5.87 6.13-3.52 5.74s-.78 3.39-.91 4.43 0 5.09 0 5.87.01 3.91-.06 4.43 1.1 4.96 1.1 4.96 1.3 1.83 1.57 2.35 2.74 3.91 2.74 3.91l2.74 2.61s2.22.91 2.48 1.3 4.3 1.96 4.3 1.96l4.04 1.17h13.3l2.74-1.57 2.74-1.83 2.09-1.96 1.57-1.43 1.83-1.96.91-.65 1.83 3.91.91 1.57 1.7 1.83 2.35 1.43 3.39.65h8.61l2.61-.65 3-.52 1.7-.52 1.43-1.7v-9.91l-2.09-1.04-2.61-.52-1.17-.26-1.7-.52-1.04-1.04-.13-.78.26-39.39-.91-6.26-1.83-4.57-1.17-2.35-3.13-3.91-3-2.74-4.83-3.13-6.13-2.09-7.04-1.04h-8.09l-5.74 1.43-4.83 1.96-4.7 3.13-3.13 3-2.74 3.13-1.43 2.61Z" class="st0"/><path d="m216.8 335.58-4.3 3.82s-1.76 3.52-1.76 3.91v5.67s1.66 3.62 1.86 3.91 2.93 1.66 2.93 1.66l5.38.88 5.09-1.08 2.83-2.25 2.35-3.03 1.37-2.93v-12.23h-12.82l-2.93 1.66Z" class="st1"/><path d="m314.2 298.18-5.09-6.26-5.35-2.35-6.78-1.3s-6.65.65-7.57.78-7.96 2.35-8.35 2.74-3.26 3.39-4.17 4.17-4.04 4.7-4.57 5.87-3.65 7.7-3.65 7.7-1.7 7.83-1.83 8.48.39 6 0 6.39-.65 9.78-.65 10.3 1.3 10.04 1.43 9.98 1.7 3.72 2.09 5.15 3.65 5.87 4.17 6.65 3 3.78 3.52 4.3 5.22 3.26 6.52 3.91 5.22 1.7 5.61 1.83 5.09 0 5.09 0l6.26-.78 5.22-1.04 4.3-3.39 2.48-3.13 1.3-2.22v10.62l-1.7 5.29-1.17 3.65-2.35 3.52c-.26.39-3.52 1.96-4.04 2.35s-4.96 1.04-5.61 1.04-2.87.13-4.3 0-3.78-.78-4.83-1.04-2.35-1.43-3.26-1.83-1.43-1.7-2.35-2.48-2.09-1.83-2.48-2.09-2.22-1.43-2.61-1.7-11.22 10.96-11.22 10.96l5.61 5.74 3.91 2.74 6.91 3.39s2.48.52 3.13.65 7.17 1.17 7.96 1.3 4.17-.13 5.22-.13 5.87-.52 5.87-.52 5.48-.52 6.26-.78 3.65-1.83 4.7-2.48 3.65-2.22 3.65-2.22l2.35-2.09s2.48-2.35 3-3 1.57-2.61 1.96-3.13 1.43-1.83 1.7-2.61.78-2.22 1.17-3.26 1.3-3 1.43-3.78.78-3.52.91-4.7 0-3.26 0-3.26l.06-74.48H314.7v7.3l-.52-.78Z" class="st0"/><path d="m298.22 304.96-6 4.17s-2.61 4.17-2.87 4.57-1.57 4.83-1.57 5.22v18.39l1.96 5.09 1.17 3 2.09 2.22 3.78 2.09 3.36.52h3.56l3.13-1.04 2.09-1.17 2.35-2.48 1.43-3 1.04-2.09.65-2.35v-19.3l-1.3-4.43-1.83-4.04s-1.96-1.83-2.48-2.87-2.09-1.7-2.09-1.7-2.87-.78-3.26-.78h-5.22Z" class="st1"/><path d="m350.98 259.38 5.09 77.48h13.95l4.83-77.48zm8.74 86.74-5.09 2.22-2.48 3.13-1.17 2.87s-.65 2.87-.65 3.26.78 2.22.65 2.87.65 2.61.78 3.13 2.09 2.35 2.61 2.74 3.39 1.57 3.39 1.57 3.65.65 4.04.65 3 .26 3.91 0 3.91-1.17 3.91-1.17 2.09-1.17 2.61-1.57 1.96-2.35 2.61-3.52.78-2.09 1.04-2.74-.26-1.32 0-2.16-1.04-3.84-1.04-4.36-.52-.91-1.04-1.7-1.57-1.17-2.35-2.09-1.17-1.43-2.48-2.09-2.61-.65-3.52-1.04-3.52 0-3.52 0h-2.22Zm162.65-126.33v5.38l-3.78 2.58-3.78 1.7-4.43.52s-3.39 1.17-3.91 1.43-1.7 3.26-1.57 3.65 2.22 3.39 2.48 3.78 3.39 3 3.78 3.52 4.3 1.57 4.83 1.7 7.04.65 7.04.65l7.43-.65s3.78-1.3 4.3-1.83 4.83-4.57 4.83-4.57 2.61-3.26 2.87-3.78 1.7-3.91 1.7-4.3v-12.65l-1.83-7.83s-.65-4.83-.78-5.87-.78-4.57-.91-5.61-.39-3.26-.52-4.43-.26-3.91-.52-5.48-.39-1.96-.52-3.91-.13-4.04-.26-4.96.13-20.35.13-20.35v-8.35l4.43-7.57 2.48-5.22.78-3.39-.78-2.48s-3.13-1.7-3.52-2.22-2.09-1.17-2.48-1.57-1.83-1.17-2.09-1.7-.26-4.7-.26-4.7l2.48-2.35h2.35s4.57 1.57 4.96 2.22 2.48 1.96 2.87 2.09 2.74.78 3.91.78 4.17 0 5.22-.13 3.78-.39 4.83-.39 3.26-.26 3.65-.26 7.7-5.74 7.7-5.74l3.65-2.74 3.26-1.3.65-1.83s-.52-1.57-.78-2.22-2.09-2.09-2.09-2.09l-2.74-.91s-1.17-.13-1.7-.91-1.3-1.43-1.43-1.96-.26-1.7-.26-1.7 1.04-.91 2.09-.91 3.65-.26 5.61 0 4.3.39 6.13.65 3.26-.39 4.83.26 3 1.04 4.3 1.7 1.57 1.17 3 2.22 2.61 1.57 3.39 2.61 1.43 1.83 1.43 2.48-.65 1.3-1.7 2.22-2.48 1.83-3.91 2.74-3 1.3-4.7 2.61-2.35 1.57-4.04 2.87-2.09 1.96-3.78 3.13-1.57 1.96-4.04 3.39-2.61 1.96-5.35 3-3.39 1.43-4.96 1.83-1.3.65-3.91 1.04-3.26.13-5.09.65-1.83.26-4.17 2.74-1.58 2.09-4.31 5.48-2.6 3.39-3.39 6.13-.78 3.26-1.04 5.87-.26 2.74-.65 5.35-.26 2.74-.52 5.48-.52 4.17-.65 6.13-.26 1.57-.13 5.22 0 4.83.39 6.39.78 3.26.91 3.65 1.3 2.22 1.3 2.22l2.74-1.7 4.3-2.51s2.48.29 3.39.82 2.61 1.96 3.91 2.48 3.39.78 5.22 1.43 3.13 1.43 5.48 1.96 4.04.78 5.87 1.43 2.61 1.04 3.91 1.3 3.13.26 4.3.26 2.74 0 4.3-.13 3.13-.39 3.91-.39.65-1.04 1.43.13 1.83 3.65 1.83 3.65l3.13 5.87s.39 2.22.65 2.87-.39 3 0 4.3-.13 2.74.06 4.43.32 4.04 0 5.87-.72 4.04-.85 5.74-.13 3.26-.78 5.35-.78 3.13-1.57 4.7-.78 2.22-1.96 4.7-1.7 3.39-2.22 4.83-.65 1.7-.78 3.39-.91 1.43-.13 3.26 1.04 1.7 2.61 3.39 1.57 2.22 4.3 3.13 3.39.91 5.61 1.3 2.74-.39 4.96 0 4.83-.26 5.61-.65 7.17-4.26 7.17-4.26 1.43-1.09 1.96-1.74 2.35-1.83 2.87-2.74.52-1.3.65-2.35.26-2.74.26-3.78v-2.61s3.52 0 3.78.39 1.96 1.7 2.48 2.74 1.43 2.61 1.57 4.3.13 2.87 0 4.3-1.3 3-2.48 4.17-.65.91-4.7 3.65-4.7 3.52-6.39 4.17-2.74.91-5.09 1.43-2.09.65-4.96.78-3.39.13-6.91-.13-5.35-.52-7.3-.91-2.22-.39-4.96-1.43-4.17-1.7-5.87-2.74-2.35-1.04-3.26-2.48-1.43-2.64-1.7-5.04-.26-3.05-.26-6.05 0-4.3.52-6.52 1.57-3 2.22-5.35 1.57-3.39 2.35-5.61 1.17-2.22 1.7-4.83.65-1.57.78-4.96.39-4.57.52-7.3.13-2.87-.13-3.39 0-1.3-1.96-3.65-1.3-2.48-3.13-2.87-2.74-.26-5.22-.65-3.65.65-5.74-.78-2.87-2.35-6-3.39-3.26-.91-7.3-1.43-6.52-.91-8.22-1.04-2.74-.78-3.26.13-.52.78-.91 2.87-.39 2.74-.26 5.48.13 4.57.13 7.3-.26 3-.52 6.78-.26 4.57 0 7.7.13 3.91.78 7.43.39 2.48 1.57 7.3 1.04 5.35 2.35 9.26 9.07 16.39 9.07 16.39l2.87 8.1s1.3 1.57 1.83 3.91.74 3.91 1.8 7.3 1.06 5.74 2.37 8.87 2.09 5.22 2.87 6.78.78.52 2.61 4.43 2.09 4.43 3.91 7.04 1.57 3.39 3.91 5.74 1.83 2.09 4.96 4.43 3.65 2.61 8.09 5.48 5.74 3.39 9.13 4.7 3.39 1.57 8.35 2.09 6 .26 11.22.52 5.22 0 9.39 0 4.43 1.04 8.87 0 4.7-.78 8.09-2.09 2.61-1.57 6.26-3.65 4.17-2.09 7.83-4.17 2.87-1.3 7.83-4.96 6.26-4.43 9.13-7.83 1.83-2.87 5.22-6.26 2.61-2.61 5.48-5.74 2.87-2.35 5.74-5.74 3.39-3.91 6.52-7.83 2.35-2.87 4.7-7.04 2.35-3.39 4.43-8.87 1.57-4.17 3.13-9.13 1.83-5.05 2.87-8.92 1.3-4.12 1.83-6.73 1.04-4.43 1.04-4.43-.26-1.57 1.3-1.83 5.48-.26 6.26-.26 3.91-.26 5.22-.52 2.61-.52 4.43-1.3 3.13-1.04 4.96-3.13 2.35-1.83 3.13-3.39 1.57-2.35 2.09-3.65.85-5.67.85-5.67-1.04-4.71-1.57-5.29-1.17-1.76-1.7-3.06-1.43-2.35-1.83-3.91-.39-3.13-.39-4.3.13-1.7-.78-2.61-1.04-1.04-2.48-2.09-2.74-1.04-5.09-2.35-3.78-2.09-5.48-3.52-2.87-1.96-5.35-3.78-3.52-2.35-5.61-3.78-2.22-1.43-4.7-3.39-2.74-1.57-4.7-4.04-2.22-2.35-3.26-4.96-1.43-3.78-2.09-5.74-.52-1.57-1.17-4.17-.78-3.52-1.04-4.57-1.57-7.43-1.57-7.43-.78-1.04-2.48-2.48-2.87-2.22-4.43-3.78-3.65-2.61-4.57-4.17-1.17-2.87-1.83-4.96-1.3-2.74-1.83-4.7-1.43-5.48-1.43-5.48-3.26-12.65-3.39-13.04-.39-.52-1.04-1.7-1.96-2.87-3-4.04-1.83-2.09-2.74-3.26-1.04-1.57-2.09-1.83-1.96-.65-3.91 0-1.83.65-4.57 1.57-2.87 1.3-6.13 1.83-3.91.39-6.26.91-1.96.65-4.57 1.17-1.83.78-4.96.78-3.65-.13-6.65-.91-4.96-1.17-7.96-2.35-2.61-1.57-7.04-2.74-3.52-.91-7.83-1.57-4.04-.52-6.65-1.7-2.48.36-6-2.76-3.52-3.5-6.39-5.85-3.39-2.09-4.17-4.3-.78-2.74-1.7-4.96-1.3-3.65-1.57-4.04-.65-13.96-.65-13.96.13-.91.26-2.87 1.3-4.17 2.09-6.78 1.04-3.13 1.83-4.83 1.43-2.87 3.52-5.22 2.22-2.61 3.78-3.91 1.17-.91 3.91-2.48 7.3-3.78 7.3-3.78l10.3-4.3s1.04-1.3 1.04-2.09.13-1.57 0-2.09-1.04-1.17-1.7-1.57-6.52-.52-7.3-.26-1.57.39-3.78.91-3.52.65-6.78 1.43-4.43.91-6.91 1.7-3.26 1.17-5.48 2.87-2.35 1.43-5.22 4.04-3.13 2.48-6.52 5.74-10.17 10.96-10.17 10.96-1.83.26-2.35.26-1.43-.26-1.7-.78-.13-.26-.39-2.22-.52-2.61-.52-4.3.26-2.35 0-3.26.39-1.43-1.17-1.83-1.7-.65-2.61-.39-2.09.26-2.61 1.3-.65.91-1.04 2.61-.52 2.48-.65 4.57.13 3.91.13 6.26-.13 2.74-.13 4.43v5.09c0 2.87 0 4.04.26 6.13s.78 2.87.91 3.26 0-.39.52 1.43.78 2.09.65 3.13-1.17 1.83-1.96 2.09-1.3.26-2.35 0-1.57-.26-2.48-1.7-2.48-6.52-2.48-6.52 0-.26-1.3-1.3-1.83-1.7-2.48-1.96-1.57-1.04-3.13-.13-1.83 1.43-4.04 3.13-2.22 1.83-4.3 4.04-1.83 1.57-3.39 4.3-1.96 2.87-2.74 5.09-1.04 2.48-1.04 4.17-1.43 5.74-1.43 5.74 0 1.7-1.04 3-1.3 1.43-2.48 2.61-.91 1.04-2.61 2.48-2.09 1.43-4.04 3.52-3.52 3.65-4.7 5.61-1.96 2.87-2.61 5.35-.91 3-1.3 5.48-.65 2.74-.52 6-.13 4.3.52 7.57.91 5.22 2.22 7.04 1.96 2.48 2.22 2.87 5.35 9.26 5.35 9.26-.13.78 0 1.96.26 1.3.26 3-.39 2.61-.91 4.43-.39 2.35-1.43 3.65-1.17 2.09-3 3.52-1.96 1.7-3.52 3.13-1.43 1.3-3 2.87-1.83 1.57-2.74 2.74-1.04.91-1.17 2.35-.13 1.7 1.57 2.09 3.13.39 4.83.13 2.22-.39 4.7-.65 4.43-.78 5.48-1.04 1.57-.65 2.74-.65 1.96-.13 2.22.65.65 1.96 0 3-1.7 1.96-2.35 3-.65 1.17-2.22 2.35-.78 1.43-3.91 1.96-1.83.78-6.52.52-5.48-.39-8.35-.78-3 0-4.7-.91-3.26-1.96-4.3-2.48-1.7-1.57-2.48-.39-.26.26-1.57 3.52-1.57 2.35-1.83 6-.65 3.91.13 6.26.39 1.7 2.48 4.43 2.22 3.13 4.57 5.09 2.09 2.35 3.65 2.87 3.65.39 5.09.13 7.17 0 7.17 0 3.52-.39 4.43-.39 3.26-.39 4.04-.52 3.26-.68 3.26-.68Z" class="st0"/><path d="M558.18 209.75s-.59 2.35-.59 2.93 0 1.47.29 2.45.59 1.37 1.17 1.76 4.21.29 4.21.29.2-.27 1.08.01 1.08-.01 2.25.97 1.47.68 2.35 2.45 1.08 2.45 1.37 3.13.29.68 1.76.98 1.47.2 3.42.49 1.66.68 3.62.29 1.66.49 3.13-.78 1.66-1.27 3.13-2.45 1.37-.78 2.15-2.25.98-1.17.98-3.03-.1-1.17-.98-3.42-1.27-1.66-2.54-3.13-.78-1.47-2.64-2.25-.49-.88-4.01-1.17-4.11.29-6.65 0-2.05-.98-4.4 0-2.15.98-4.11 1.17-3.13.2-3.42.2-.98.2-1.27.78l-.29.59Zm85.3-4.89s-2.74 1.72-3.13 1.64-.65-.47-.91 1.09 0 1.83 0 3.39.13 2.35.13 3.91-1.14 2.22-.25 2.87 3.38 1.3 4.16 1.57 2.74-.52 3.13 0-.13.65 1.7 1.3 2.74.65 3.91.78 1.3.65 3.13 0 2.09 0 3-1.3 1.43-1.7 1.83-2.87.26-2.35.65-2.61 1.04-.65 2.61-.65h3.91c1.96 0 2.61-.07 3.91-.69s1.96-1.01 1.96-1.92 0-1.43-.65-2.48-1.43-2.06-2.22-2.4-1.17-.6-2.87-1.12-2.09-.65-4.04-1.04-1.83-.52-3.91-.65-3.13-.52-6-.26-2.87.26-4.7.78-3.52.65-4.04.78-1.3-.13-1.3-.13Zm-25.82-13.57s-.13 1.43 0 2.35.52 2.48.52 2.48.26.91 1.04 2.09 1.36 1.57 2.9 3 2.32 1.13 3.88 2.13 1.96 1 3.65 1.13 2.09 1.3 4.17 0 2.99-1.7 5.15-2.74 2.81-.91 5.55-2.09 3.39-1.43 6-2.74 3.06-1.83 5.57-2.74 2.51-1.17 4.21-1.43.91-.39 3.91-.39 3.52-.13 6.13 0 3.65 0 6.39.65 3.65 1.57 5.61 1.83 2.35.91 3.65.13 2.09-.91 2.22-1.96-.13-1.96-1.04-3.26-1.57-2.35-3.26-3.52-2.22-1.43-4.17-2.35-2.22-1.17-5.35-1.57-3.78-.52-6.91-.39-4.57.2-8.87 1.14-5.09 2.25-8.09 3.42-3.39 1.43-6.26 3.13-8.35 4.7-9.91 4.96-2.22.78-4.57.26-2.09-.74-4.04-1.35-3.91-.61-5.22-1.13-2.87-1.04-2.87-1.04Zm-29.06 98.77c0 .78-.29 2.05 0 2.74s.2.78.88 1.27.78.88 2.84 1.17 3.42.29 5.18.2 2.74-.29 4.21-.68 1.96-1.08 3.42-1.66 1.27-.88 3.33-1.27 2.74-.68 5.38-.88 2.74-.1 5.28-.39 2.74-.29 5.48-.49 2.45-.39 5.38-.49 3.91-.29 6.36-.2 1.96-.1 4.3.98 2.84 1.57 5.28 1.76 1.86.35 5.09.13 3.91-.32 6.07-.71 2.35.2 2.74-1.08.98-1.86.2-3.82-.49-2.05-1.66-2.84-1.08-1.08-4.01-1.86-1.17-.98-5.38-1.47-5.18-.78-8.51-.98-3.52-.68-6.07-.29-2.64.29-5.58 1.47-2.93 1.47-4.99 1.96-2.15.78-4.79.59-2.84-.1-5.67-.78-3.52-.88-5.87-1.17-1.57-1.17-4.6-.29-3.52.88-5.28 2.15-1.17 1.27-4.21 2.93-4.79 3.23-4.79 4.01Zm23.38 13.11c-.39.49-.49.68-1.08 2.35s-.2 2.25 0 2.84 1.76 1.17 3.13 1.27 1.96 1.37 3.82 0 2.05-1.86 3.03-2.45.39-.59 2.25-.78 2.93.24 4.3.32 1.96.08 3.33.66 1.86 1.08 3.42 1.17 1.47.78 2.93-.59 1.96-1.57 1.27-2.93-1.08-1.66-2.15-2.64-1.57-1.47-2.93-2.15-2.45-1.17-3.33-1.47-1.37-.59-2.84-.68-2.74-.29-4.11-.1-2.05.59-3.33.78-.98-.29-3.03 1.27-4.7 3.13-4.7 3.13Z" class="st1"/><path d="M608 53.85s-4.3 7.83-4.43 8.35-1.04 11.09-1.04 11.09 1.04 2.61 1.04 3.52.39 2.22.52 3.26.78 1.83 1.17 3.26 1.17 2.35 2.09 3.52 1.04 1.17 2.22 2.35.91 1.17 2.87 2.35 1.83 1.17 3.78 2.09 1.83.91 4.17 1.7 2.22.65 3.78.91 2.35.39 3.13 0 1.04.39 1.57-2.09.26-2.61.52-4.83.13-1.96.52-3.65 0-1.43.78-3.13.91-2.09 1.96-3.52.91-1.3 2.74-3 2.87-2.74 4.17-3.65 1.43-1.04 2.48-1.43 2.09-.65 2.87-.78 1.7-.78 2.22 0 1.04.65.65 2.48-.52 2.35-1.57 4.3-1.7 2.48-2.87 4.57-1.7 1.96-2.48 3.91-1.04.91-1.3 3.52-.52 2.48 0 4.7-.13 3.13 1.17 3.52 2.35 1.3 3.52-.52.52-1.04 2.48-3.65 2.87-3.91 4.83-6.26 2.61-3.13 4.3-5.09 2.09-2.61 3.65-3.91 1.83-1.96 4.57-3.26 3.26-1.83 5.74-2.74 4.57-1.57 6-1.7 2.22-.26 4.43-.26 2.35-.39 4.83 0 3.52.13 3.65 1.17 1.04 2.61-1.57 3.91-3.65 1.43-7.43 3.52-5.22 3.13-8.09 4.96-3.91 2.35-6.78 4.7-3.39 2.48-4.96 4.57-2.35 2.87-3 4.7-1.04 2.09-.65 2.61 1.17.65 4.3 0 6.65-2.22 10.7-2.74 8.74-1.3 10.04-1.3 1.57-.39 4.3.39 3 .26 5.87 2.22 3.65 1.83 5.61 4.17 2.09 1.04 2.22 4.83-.13 4.04-.13 8.09 1.3 13.83 1.3 13.83.78.52.91 2.09.91 2.48 1.7 4.3 1.7 2.22 2.87 3.52 2.09 2.22 3.39 3.13 1.96 1.17 3.91 2.48 3 1.7 4.43 2.35 1.7.39 2.87 1.3 1.83 1.7 2.09 2.48.65 1.04-.13 2.48-1.83 1.96-2.22 3.39-.52.52-.39 3.13 0 3.13.78 5.35.13.78 1.7 4.57 2.09 4.57 3.26 6.65.52 2.61 2.87 4.3 3.65 2.74 7.57 3.91 6.26 1.3 6.78 1.7 6.91 4.04 6.91 4.04 1.96 0 3.26.78 3.13 1.54 3.98 2.14 1.24.99 2.28 2.82 1.17 1.7 1.96 3.91 1.04 1.94 1.7 4.88.65 4.38 1.57 6.21 1.3 2.74 2.22 3 1.83 1.3 3-.91 1.3-2.61 3-5.61 2.35-3.65 3.13-5.87 1.3-3.39.78-6-.52-3.78-1.43-5.61-1.43-2.35-2.74-3.78-1.3-1.47-3.52-4.65-2.48-3.7-3.78-5.01-1.43-.26-2.61-2.22-1.7-2.35-1.43-3 .13-1.3 3.13-.78 3-.13 5.74 1.04 4.17 1.7 5.35 3 1.7 1.17 3.13 3.13 1.83 2.48 3.39 5.02 2.35 3.59 3 5.8 1.3 3.26 1.3 5.61.13 2.22 0 5.35-.13 3.39-.65 5.74-1.7 6.82-2.22 9.21-1.04 4.48-1.17 5.79-.13 1.57.13 2.22 1.57.39 2.74 0 3-1.04 4.7-2.35 2.48-2.09 4.3-3.78 2.35-2.31 3.65-4.09 1.7-1.26 2.48-3.87.91-1.81 1.04-5.34-.13-4.05.13-7.31 0-3.39.52-6.13.52-4.17 1.3-5.22 1.7-1.82 2.22-1.63.65-.72 2.09 1.63 1.3 2.35 3.26 5.48 2.61 4.3 3.52 6.52.65 2.87 1.7 3.26 2.22 1.17 3.78-.91 2.48-2.63 3.13-5.56 1.3-3.7 1.3-6.97.52-3.52 0-6.65.52-2.22-1.04-5.48-1.83-3.78-3.13-5.61-17.74-16.04-18.26-16.7-.13-.91-1.7-2.35-2.22-1.83-3.13-3-1.04-1.43-1.3-2.22-.91-1.83-.91-2.22-.26-1.17 1.3-1.7 1.43-1.17 4.17-.65 2.74.26 4.7 1.43 2.74.78 4.17 2.22 2.35 1.83 3.39 3 1.57 1.57 2.61 2.09 1.57 1.17 2.61.65 2.09-1.04 1.83-2.35-.39-2.48-1.17-3.91-.91-1.57-1.7-2.74-.65-.13-2.48-2.74-16.96-10.57-16.96-10.57.78 0-1.17-.52-3.39-1.04-4.7-1.57-2.35-.65-3.65-1.3l-3.13-1.57c-1.3-.65-2.35-1.04-3.78-2.35s-1.7-1.43-3.13-3-2.35-1.7-3.26-3.13-1.43-1.96-2.35-3-1.17-1.7-1.83-2.87-.52-.78-1.17-2.74-.91-3.26-.91-3.26l-8.61-24.91-6.13-10.04s-.52.13-1.7-1.17-2.09-2.48-3.39-3.52-1.7-1.7-2.74-2.61-1.83-1.83-3.52-3.13-1.57-1.43-3.39-2.48-2.61-1.57-3.78-2.22-1.3-.91-3.13-1.57-2.48-1.04-4.96-1.43-2.48-.52-5.09-.78-3.91-.39-5.61-.52-2.61-.39-5.22-.39-3.65-.26-6.13 0-4.04.26-6.26.78-1.57.52-4.04 1.17-3.65 1.04-5.22 1.17-2.22.39-4.43.39-3.39.91-3.39-.39.26-1.14 1.43-3.25 6.78-4.97 6.78-4.97 1.04-.39 1.57-.65 2.74-.65 3.13-.91 2.48-.65 2.87-.91 1.43-.65 1.96-1.17 1.3-.78 1.3-1.3.52-.78-.78-1.43-1.3-.91-3.52-1.04-2.35.39-4.96 0-4.17-.52-6.65-.52-19.57 4.57-19.57 4.57-.39-.13-1.43.26-1.17.78-2.35 1.04-2.22.52-3.26.65-1.7.13-2.74.13-2.09.13-2.22-.26-.26-1.04.65-1.83 1.83-.91 2.48-1.43 2.22-1.17 2.48-1.57.39-.91.39-1.57-.39-.78-1.83-1.83-1.3-1.43-2.74-1.57-1.57-.52-3.91.52-2.74 1.3-4.57 2.09-19.7 8.74-19.7 8.74-1.43.39-2.48 1.04-2.87 1.43-3.78 1.96-1.43.39-2.35 1.17-1.17.91-2.74 2.09-1.3 1.3-2.35 1.96-1.57 1.3-1.96 1.7-2.48 2.09-2.48 2.09Z" class="st0"/><path d="m728.66 110.78-3.91 3.52s-1.57 4.57-1.83 5.22 0 9.78 0 9.78l1.04 1.7s1.45 1.17 1.77 1.7 2.28 2.74 2.28 2.74.26.52.65 1.17.65 1.04.91 2.09-.78 1.3 0 2.09.65.78 1.57 1.57.78.65 2.61 1.83 1.83 1.3 3.91 2.35 2.87 1.17 4.43 1.83 2.48.65 3.52 1.04 1.04.52 3 .65 3.13-.39 4.83 0 2.61.04 3.59.02 1.89-.54 2.02-1.2.52-1.04 0-2.48-.65-1.57-1.43-2.48-1.04-1.3-2.22-1.83-1.43-.65-3.13-1.17-1.83-.26-3.78-1.17-1.17-.13-3.26-1.43-2.35-1.3-3.91-2.09-1.57-.65-2.87-1.43-1.57-.52-2.35-1.43-1.3-.78-1.96-2.09-.65-1.17-1.04-3-.39-.91-.52-3.39-.13-2.09-.13-4.43v-4.04c0-1.43.52-1.57-.13-2.61s-1.7-2.48-1.7-2.48l-1.96-.52Zm-3.92-32.35 2.87 4.3s3.39 3.52 3.91 4.57 1.43 3 2.35 4.7 3.13 4.57 4.04 6.65 1.71 4.96 3.14 7.3 2.99 5.74 3.77 7.57 1.43 2.74 2.74 5.09 3.78 4.43 5.22 5.74 3.4 2.61 6.52 4.57 6.13 3.65 8.35 4.83 4.96 1.3 6.26 1.43 3.65.52 4.04 0 1.57-1.83.26-3.65-.78-1.83-3.26-3.78-3.26-2.35-5.48-4.04-4.04-2.48-6.26-3.52-2.34-1.17-3.91-2.61-1.96-1.96-3.39-4.57-1.7-3.78-2.48-6.06-1.23-1.5-1.66-4.5.09-3.26-2.39-6.65-2.48-3.65-4.83-6.26-3.26-3.13-4.83-4.83-1.43-1.96-3.52-3.26-3.39-1.83-4.57-2.48-1.7-1.3-2.74-1.7-2.48-.65-3.26-.52-.91 1.7-.91 1.7Z" class="st1"/><path d="m607.74 358.87-9.26-2.74s-6.26-3.78-7.04-4.3-4.96-4.43-5.87-5.09-3.78-2.87-5.09-3.78-2.35-1.57-3.39-2.22-2.48-1.68-3.65-2.08-1.83-.53-3.78-.92-3.13-.78-6.78-1.04-5.61-.52-9.65-.39-5.22.13-8.22.26-3.78.26-6 .26-3.39-.72-5.87-.56-3.78.88-6.78 0-4.04-.88-6.26-1.14-3.13 0-3.13 0 .52-1.96.91-4.3 2.35-3.78 3.13-6.13 1.3-2.87 2.61-5.35 2.35-3 4.57-5.48 2.61-2.09 4.57-5.35 2.35-3.78 3.65-5.87 8.76-7.15 8.76-7.15 3.33-3.99 4.11-4.97 1.76-2.6 2.54-3.26 1.76-1.24 2.54-2.22 2.15-1.57 2.15-1.57.98-1.17 1.76 0 .98.78 1.76 2.93 1.34 2.74 2.33 6.26 1.58 4.3 2.36 7.83 1.17 4.5 1.96 7.43.39 2.93 2.15 6.26 1.57 2.85 4.3 6.71 2.74 4.44 8.02 9.14 8.02 6.26 12.52 9.39 5.67 3.72 9.2 6.65 5.28 3.72 6.46 6.07-1.58 6.7-1.58 6.7Zm9.67-10.29.88 11.45s2.96 1.08 3.83 1.08 2.92.88 4.49 0 2.45-.88 4.7-1.37 3.42-.98 5.18-1.66 2.35-.88 3.72-1.76 1.76-1.08 3.23-2.35 1.86-1.08 2.25-2.54.29-1.96 0-2.84 1.37-1.27-1.86-1.37-2.93.2-6.55 0-3.52.49-7.43 0-3.52.1-6.26 0-6.16 1.37-6.16 1.37Zm-23.38 17.61-20.35 11.25s-2.93-7.04-2.93-7.53v-3.72c0-1.08.39-2.25.68-3.33s.88-3.1 1.27-3.99.88-2.27.98-2.66.49-1.37.49-1.37zM633 415.92s-1.57 4.79-1.66 5.28-.29 2.64 0 4.11 1.27 2.45 2.05 4.3 1.08 2.93 2.05 4.21 2.05 2.15 3.42 3.13 1.86 1.27 3.72 2.05 2.93 1.08 4.11 1.27 2.45 0 3.62-1.27 1.76-1.57 2.84-3.72 1.86-3.33 2.64-5.09.68-1.86 2.05-3.82 1.27-1.66 3.33-4.11 2.84-2.93 4.4-5.18 2.45-3.03 3.13-4.3l.68-1.27s-3.42-.29-5.97 1.47-3.33 2.45-4.99 3.23-1.96 1.27-3.82 1.37-2.35.2-5.58.1-3.91-.1-6.55-.29-3.23.1-5.58-.49l-3.91-.98Zm-10.96 18.88s2.35 3.62 2.74 4.79 1.08 1.96 2.74 3.72 2.45 2.25 4.5 3.42 1.76 1.08 4.5 2.45 3.03 1.37 4.6 2.05 3.33 1.08 3.33 1.08l-10.57 18.98s-4.11-1.17-4.6-1.66-.98-.78-2.35-2.25-2.35-2.25-3.72-4.3-1.66-2.35-2.35-4.11-.59-1.37-.88-4.3-.49-2.25-.39-5.28.29-3.72.78-6.55.29-2.84.88-4.5.78-3.52.78-3.52Zm37.47-52.44s-6.26 4.17-6.91 4.83-.78.78-2.87 3.13-2.87 3.52-4.43 5.61-1.7 3.13-2.48 4.96-1.04 2.22-1.04 3.13-2.09 1.57 1.7 1.96 5.22.39 8.09.13 19.96-6.78 19.96-6.78 1.3-.13 3.39-1.57 3.91-1.77 5.87-3.43 2.48-2.05 5.22-4.13 3.13-2.09 5.87-4.83 5.09-4.43 7.83-7.3 3.91-4.17 6.13-6.52 2.87-2.22 6.13-6.13 2.48-3.52 5.22-6.39 3.39-3.65 5.48-6.13 2.61-3.13 4.04-5.09 1.7-2.48 1.7-2.48-1.83-1.83-3-1.3-1.83.91-4.7 1.83-3.91 1.04-6.65 1.83-2.74.65-6.78 1.96-5.35 1.7-7.83 3.26-3 1.7-5.61 3.65-2.09 1.7-5.61 5.09-4.17 4.43-7.57 6.91-3.91 3.13-7.04 5.35-3.91 3-6.39 4.17-2.09.65-4.57 1.83-3.13 2.48-3.13 2.48Z" class="st0"/><path d="m613.3 470.5-41.58.78-9.1-8.61s-.88-1.37-1.76-3.91-1.27-3.91-2.05-5.72-1.37-2.89-2.15-4.94-.98-2.54-1.27-4.3-.2-1.76-.49-4.01-.2-2.74-.39-4.99 0-3.23 0-3.23l2.15-13.01s0 .2.98-2.25 1.96-3.46 2.64-4.81.29-.57 1.76-2.92 6.16-7.83 6.36-8.41.49-1.08 1.57-2.54 1.96-2.93 3.52-4.4 1.86-1.66 3.33-2.84 17.22-12.33 17.22-12.33-.49.33.68-.62 2.15-1.77 4.5-2.34 3.23-.47 5.67-1.35 7.24-2.54 7.24-2.54 3.33-.1 4.6-.1 2.15.39 5.77.1 4.79-.49 7.63-.29 10.27-2.64 10.27-2.64 2.54-.78 3.62-1.57 2.64-1.57 3.82-2.35 1.76-1.08 3.23-2.15 2.15-1.17 3.82-2.45 1.57-.98 3.52-2.45 2.45-1.83 3.82-3.07 1.47-1.53 2.64-2.8 1.17-1.17 2.74-2.84 1.76-1.76 3.52-3.91 1.66-2.25 3.33-4.21 1.86-2.15 3.03-3.62 1.27-1.86 2.15-3.03 14.09-12.92 14.09-12.92 1.17-1.07 2.84-3.02 2.93-3.03 4.21-4.21 1.86-1.47 3.33-2.84 2.64-2.15 4.01-3.72 2.25-2.68 2.54-3.05 15.75-20.33 15.75-20.33 1.17-1.08 1.86-2.64 1.37-2.84 2.15-4.99.98-2.35 1.76-4.89.88-3.13 1.57-5.18.98-2.54 1.86-4.6 1.17-2.64 1.86-3.82.59-1.17 1.47-2.45 1.47-1.66 1.86-1.86 2.84-.59 3.72-.59 2.54-.2 3.52 0 2.05.59 3.13 1.08 1.96 1.66 2.45 2.15.88.2 1.57 2.25 3.82 8.61 3.82 8.61.2 1.47.39 2.54.78 2.35 1.47 3.91 1.27 2.74 1.96 4.21 1.37 2.45 2.15 4.4.98 2.54 1.66 4.79.68 2.25 1.47 4.7.98 2.84 1.57 4.99.59 2.64.88 3.62 1.66 6.65 1.86 7.04.68 2.15 1.08 3.91.49 2.45.98 4.79.49 3.13.68 4.5-.29.88 0 3.13-.39 4.01 0 5.58-.14 2.74.08 3.03-50.46 2.45-53.2 2.45-8.8.98-13.79 1.37-11.15 2.86-11.15 2.86-7.14 3.6-7.53 3.79-4.16 3.52-4.72 3.91-4.38 3.33-4.38 3.33l-25.53 21.33s-1.37.88-3.42 1.86-3.82 1.47-5.38 3.13-2.64 2.84-3.72 4.4-.88 1.47-2.74 3.82-2.64 2.93-4.01 4.99-.88 1.66-2.35 3.91-1.66 2.74-2.84 4.99-1.66 2.54-2.54 4.21-11.45 22.5-11.84 22.89-.49.68-1.27 1.96-.88 1.86-2.35 4.01-2.25 3.33-3.03 4.79-.88 1.96-1.66 3.52-1.27 2.05-1.76 3.72-.68 1.37-.78 3.72-.2 2.93-.1 4.6.1 2.64.39 3.13 7.83 15.85 7.83 15.85Z" class="st0"/></svg>