<?xml version="1.0" encoding="UTF-8"?>
<svg id="_Слой_2" data-name="Слой_2" xmlns="http://www.w3.org/2000/svg" version="1.1" viewBox="0 0 872 514">
  <!-- Generator: Adobe Illustrator 29.8.1, SVG Export Plug-In . SVG Version: 2.1.1 Build 2)  -->
  <defs>
    <style>
      .st0 {
        fill: #fff;
      }

      .st1 {
        fill: #ec6526;
      }
    </style>
  </defs>
  <rect class="st1" width="872" height="514" rx="125" ry="125"/>
  <polygon class="st0" points="76.66 170.16 102.49 170.16 102.49 222.86 143.97 222.86 143.97 170.16 170.84 170.16 171.88 300.08 144.49 300.08 143.97 246.08 103.27 245.82 103.01 300.08 76.66 300.08 76.66 170.16"/>
  <rect class="st0" x="284.64" y="170.16" width="25.04" height="129.91"/>
  <polygon class="st0" points="421.6 170.16 425.25 254.1 443.51 254.1 447.16 170.16 421.6 170.16"/>
  <polygon class="st0" points="431.48 271.19 426.98 272.95 423.46 276.66 420.42 280.48 420.42 286.25 421.11 293.1 424.14 297.01 428.45 299.65 432.26 300.53 437.54 300.53 442.73 298.19 445.66 295.55 447.16 293 448.7 289.68 448.7 285.47 448.7 281.65 447.16 278.52 443.71 274.02 439.89 271.77 435.59 271.19 431.48 271.19"/>
  <polygon class="st0" points="208.21 208.19 201.56 212.62 193.6 220.97 188.64 229.97 185.77 241.32 184.99 251.75 185.64 264.66 188.51 275.88 194.25 286.06 201.82 293.49 208.21 297.4 215.12 300.08 225.16 301.84 233.9 301.84 244.08 299.36 251.25 295.97 257.12 291.53 261.42 286.06 265.73 279.27 267.95 273.27 269.38 266.75 270.29 259.32 270.29 251.1 270.29 243.01 268.73 235.12 265.6 225.53 261.29 218.49 252.03 210.14 242.25 205.19 229.21 203.36 220.73 204.53 214.08 205.97 208.21 208.19"/>
  <polygon class="st1" points="217.34 227.95 213.56 235.12 211.47 245.03 211.47 255.93 212.64 264.86 215.12 272.16 219.29 278.03 224.51 281.56 230.77 281.56 238.08 278.69 240.69 274.12 243.03 267.99 244.21 261.73 244.99 254.75 244.47 243.86 243.16 237.21 240.42 230.69 236.12 225.21 228.23 222.86 222.56 224.16 217.34 227.95"/>
  <path class="st0" d="M328.53,218.1l10.7,12.26,12.13-6.13,14.87-1.96,6.65,3.39,2.35,4.7,1.3,7.43v7.43h-18.65l-9.39,2.22-9.13,3.26-6.52,3.39-5.09,6.13s-3.26,6-3.39,6.52-.91,6.39-.91,6.91,1.3,9.39,1.3,9.39c0,0,3.26,5.35,3.39,5.87s5.22,6.52,5.22,6.52l6.52,3.52,8.61,2.35h9l8.48-1.24,7.83-2.54,3.78-3.26,3.78-4.04,1.96,6.26,4.3,3.59,6,1.24,8.74-.78,6.26-1.57,1.57-1.7v-15.26l-8.35-.52.39-17.87-.26-30.39-2.09-8.87-3.52-7.3-5.09-5.74-7.17-4.43-6.78-1.96-10.5-.52-12.33,1.04-8.35,1.96-8.61,4.73-6.39,4.01-2.61,1.96Z"/>
  <polygon class="st1" points="375.88 258.14 366.82 258.14 356.97 260.62 351.88 264.27 349.79 269.23 350.32 277.45 353.58 282.53 358.53 283.84 365.45 283.19 371.06 280.58 373.53 277.45 375.88 273.4 375.88 258.14"/>
  <path class="st0" d="M424.08,381.27l-19.17,16.24-11.93,16.04-9.39,17.61-2.74,11.54-2.35,14.09,2.54,13.11,11.54,13.11,11.93,7.43,13.11,5.09,18.91,3.13h51.13l29.35-3.91,17.8-5.28,22.11-9.39,11.93-7.43,13.24-10.43,8.35-9,5.35-8.35,2.35-9.52-1.83-8.22-5.74-5.09-6.26-.65-20.61-.13-10.04-.78-6.39-2.09-6.91-5.35-1.17-6.26,1.96-5.48,2.35-6.52-.13-7.7-.91-9.26-1.7-4.17-7.3-10.3-6.52-3.26-10.83-2.22-9.26-.91h-13.7l-15.52,1.57-12.65,3s-9.13,3.52-9.65,3.65-12,5.09-12,5.09l-11.48,6-7.76,5.02Z"/>
  <polygon class="st1" points="407.12 446.1 402.95 450.66 402.95 456.93 405.03 464.36 410.51 467.49 416.51 468.27 424.34 468.27 429.03 466.45 433.73 462.66 436.53 458.62 438.16 453.01 437.38 446.88 434.64 442.71 429.29 439.97 421.73 439.97 414.29 441.14 409.6 443.75 407.12 446.1"/>
  <polygon class="st1" points="441.36 425.56 453.1 424.38 460.34 420.18 463.96 414.31 465.23 408.44 464.74 403.45 461.81 399.34 456.13 397.09 450.07 396.5 444.69 396.5 438.16 398.85 433.83 402.37 430.89 405.89 429.23 410.3 429.23 416.56 430.89 421.15 434.9 423.89 437.54 425.07 441.36 425.56"/>
  <path class="st1" d="M485.58,382.32l-3.13,5.09-.49,6.55,2.45,4.11,4.6,2.64,6.55.88h6.36l8.41-2.05,4.4-1.96,5.38-3.42,3.23-3.62,1.08-4.5v-4.11l-2.45-3.23-3.23-2.93-4.6-1.47-4.79-.59s-6.95-.39-7.34,0-4.5,1.27-4.99,1.37-4.01,1.57-4.01,1.57l-4.3,2.35-3.13,3.33Z"/>
  <path class="st1" d="M533.66,439.2l-7.48,4.3s-2.05,2.64-2.3,3.03-1.47,2.98-1.71,3.33-.59,2.54-.59,2.89.88,2.93,1.12,3.33,2.1,2.54,2.45,2.98,2.15,1.32,2.47,1.61,3.4,1.22,3.64,1.37,3.57.59,3.86.64,3.47-.05,3.72,0,4.4-.34,4.94-.34,3.67-.73,4.45-.83,3.23-1.42,3.52-1.52,3.28-1.86,3.57-1.96,2.45-2.01,2.74-2.2,1.86-2.25,2.05-2.59,1.08-1.99,1.22-2.29,1.03-2.21,1.12-2.5.24-2.25.24-2.4-.49-2.25-.49-2.25l-.83-1.81-1.81-1.76-4.94-2.98-2.84-.68-5.23-.64-5.04.49-4.99,1.27-2.89,1.52Z"/>
  <polygon class="st0" points="614.33 429.88 612.77 439.97 609.25 449.31 606.9 454.12 623.33 454.12 656.2 454.12 691.42 454.12 795.51 454.12 803.72 447.49 808.42 439.97 811.55 429.88 811.55 425.56 619.03 425.56 614.33 429.88"/>
  <polygon class="st0" points="562.71 384.32 559.75 387.56 559.75 392.67 556.62 397.76 554.79 401.59 554.27 404.41 563.53 405.84 575.53 406.76 584.27 405.97 591.83 406.76 595.75 409.1 598.14 410.8 599.01 411.84 811.55 411.84 811.55 403.37 809.79 393.97 807.7 387.56 806.66 385.63 562.71 384.32"/>
  <path class="st0" d="M554.27,342.84l-4.57,2.35-1.83,4.96v5.74l4.96,5.22,3.39,4.17,1.83,2.09v2.87h242.61l-16.43-27.39-84,2.35-3.65-2.35.26-4.7,5.22-3.39,4.7-2.09,7.04-1.04h58.96l-1.3-3.65-6-3.39-7.83-4.7-5.74-3.13-7.57-4.96-6.78-3.13-5.74-4.43s-4.7-2.87-5.48-3.39-3.91-2.87-3.91-2.87l-3.65-2.35-3.13-1.57-6.39,8.61-7.7,11.74-10.17,11.22-14.35,9.13-15.65,7.57-19.83,5.48-11.48,1.04-17.48.78h-16.43l-12.78-.52-9.65-1.04-8.35-2.61-6-2.09-5.09-.52Z"/>
  <path class="st0" d="M522.57,68.54l-4.96,7.83-4.17,10.43v11.74l1.83,11.22,5.22,4.96,11.48-3.91,12-4.17,21.65-1.3,19.3-1.04,19.83,1.57,21.13,2.09,15.13,3.13,21.91,7.04,13.83,4.7,18.26,9.65,11.74,6,14.87,7.83,9.91,4.7s5.74,4.17,7.04,5.48,8.61,3.65,8.61,3.65h7.57l5.22-3.33,4.57-4.96.78-5.87,1.17-10.43-1.7-6.13-6.13-10.83-8.74-10.43-16.3-17.09-13.11-10.96-20.54-11.54-12.52-7.43-10.76-4.11,5.51-2.93,4.5-3.23,3.23-3.33,1.57-2.74v-2.93l-2.35-1.96-3.62-.78-4.21.59s-3.33,1.96-3.62,2.05-2.93,1.66-3.42,2.05-4.7,4.21-4.7,4.21c0,0-2.54,1.96-3.03,2.35s-1.76,2.25-1.76,2.25l-17.41-5.28-24.65-2.74-18.49-1.47-16.5-.2-16.04,1.76-17.8,4.89-11.35,5.28-11.35,6.65-8.61,7.04Z"/>
  <polygon class="st0" points="714.83 248.93 710.53 268.1 698.4 294.06 676.09 315.45 653.01 328.37 626.79 335.02 602.14 335.02 572.79 332.15 550.48 323.28 536.79 311.54 528.96 297.84 524.41 285.86 519.96 271.19 517.62 254.1 513.44 237.97 513.44 221.54 513.44 202.37 513.44 189.45 513.44 182.41 513.44 170.16 513.44 156.58 519.18 140.93 524.41 132.71 532.48 128.02 549.7 123.32 571.62 119.8 586.48 119.8 615.44 119.8 629.14 122.54 643.62 127.24 660.05 132.32 674.27 139.37 692.14 147.58 705.44 155.8 718.75 164.8 725.79 170.16 721.09 173.41 718.75 178.89 719.14 185.15 722.27 189.06 727.75 188.28 733.22 182.02 740.27 178.1 746.92 176.93 753.18 176.93 760.62 180.45 762.05 184.37 762.7 187.89 763.35 194.41 763.35 200.02 762.31 206.28 760.35 212.28 757.22 219.45 753.05 228.71 746.66 236.15 741.96 241.63 737.01 245.28 732.57 247.1 728.14 248.41 723.05 248.8 719.01 248.8 716.79 248.28 714.83 248.93"/>
  <polygon class="st1" points="554.79 189.22 550.29 185.8 544.81 184.63 538.35 186 534.93 190.99 533.27 197.44 535.42 202.24 540.21 205.66 545.59 205.66 549.12 203.51 553.62 199.69 555.57 195.14 555.57 191.77 554.79 189.22"/>
  <path class="st1" d="M630.67,184.24l-3.98,1.5-2.74,3.65-1.11,3.91s-.07,4.04,0,4.7,1.04,3.52,1.17,3.78,3.52,2.74,3.52,2.74c0,0,4.04.85,4.3.85s4.17-.91,4.37-.98,4.04-2.15,4.17-2.35,1.7-2.48,1.83-2.8.91-3.33,1.04-3.85.33-5.02.33-5.35-.78-2.35-.85-2.54-3.13-2.54-3.13-2.54l-4.5-1.37-4.43.65Z"/>
  <path class="st1" d="M556.81,279.42l-1.24,2.15-.91,5.09,2.15,3.52,8.02,2.74,7.04,1.14,12.13,1.01h13.89l7.83-1.01,8.8-2.71,7.24-2.54,3.91-2.95v-4.87l-3.72-2.93h-4.3l-6.85,2.35-9.2,1.17s-7.43.98-8.02,1.17-11.74.39-11.74.39h-6.26l-7.04-1.57-6.07-1.17-3.13-1.37-2.54.39Z"/>
  <path class="st1" d="M617.95,154.89l-4.01,1.27-3.82,3.33s1.57,4.4,1.57,5.28,3.33,3.52,3.33,3.52c0,0,5.09.39,5.58,0s8.41-.98,8.8-.98,5.09-.2,5.87-.1,5.87.29,6.46.29,3.72.29,4.5.49,4.89,1.08,6.16,1.47,3.52,1.17,4.5,1.57,2.35.68,3.03.78,3.13-.88,3.13-.88c0,0,.68-2.05.49-2.84s-.29-3.13-.68-3.82-.78-2.45-1.27-3.23-8.41-4.21-8.41-4.21c0,0-6.16-1.47-6.55-1.47s-11.05-1.47-11.35-1.47h-11.35l-5.97.98Z"/>
  <path class="st1" d="M533.27,156.09l-4.08,3.26v4.17l1.17,4.96h7.17l7.83-1.04,5.35-.13s5.87.52,6.78,1.17,3.39,1.7,4.17,2.35,2.74,2.22,3.26,3,1.3,2.87,1.43,3.52-.26,1.57,0,3.52.65,5.48,0,7.7-1.17,3.65-1.57,5.22-1.04,2.74-1.43,4.57-4.96,16.43-4.96,16.43c0,0-1.7,6.52-2.09,7.17s-2.87,8.61-3.13,9-1.96,7.7-2.48,9.26,0,5.09.13,6,4.73,6.26,4.73,6.26l7.66,3.44s4.83,1.26,5.74,1.65,5.35-.13,5.74,0,8.22-.09,9,.15,10.17-.72,10.17-.72l6-1.07,4.83-3.18,4.83-5.74,3.78-4.96,1.7-3.91-2.74-2.61-4.04-1.83-4.17,1.7-3.26,3.26-3.91,3.26s-3.91.91-4.96.91-8.22.52-9.26.52-2.48-.26-4.43-.39-7.3-1.3-7.83-1.43-1.7-1.04-2.61-1.7-1.7-1.43-1.83-2.09.78-6.91.78-7.3,1.7-4.96,1.83-5.87,1.96-5.35,2.22-6.26.78-4.17,1.3-4.96,3.91-11.35,3.91-11.35l1.43-6.86s.91-3.44.91-3.83,2.48-9.52,2.48-9.52l.26-4.7s-1.43-4.04-1.57-4.43-3-4.17-3-4.17l-7.43-8.38-4.57-3.36-5.87-1.57s-7.17-1.76-7.57-1.27-11.22,0-11.22,0l-6.62,2.18Z"/>
</svg>