<?xml version="1.0" encoding="UTF-8"?>
<svg id="main" xmlns="http://www.w3.org/2000/svg" version="1.1" viewBox="0 0 872 514">
  <!-- Generator: Adobe Illustrator 29.8.1, SVG Export Plug-In . SVG Version: 2.1.1 Build 2)  -->
  <defs>
    <style>
      .st0 {
        fill: #8a6491;
      }

      .st1 {
        fill: #482b61;
      }

      .st2 {
        fill: #fff;
      }

      .st3 {
        fill: #502d69;
      }
    </style>
  </defs>
  <rect class="st3" width="872" height="514" rx="125" ry="125"/>
  <path class="st2" d="M90.99,62.93l1.66,5.18,1.47,3.13,4.3.68,4.11-.49,2.64-1.96.88-3.91v-5.09l-4.4-4.89-5.18-1.86-8.61,1.17-5.87,2.54-4.89,4.21s-5.48,8.71-5.77,9.49-3.13,11.05-3.33,11.74-2.05,9.39-2.25,10.08-3.36,21.68-3.36,21.68l-2.09,16.57-2.61,23.61-2.93,26.48-3.39,28.57-3.78,41.22-2.87,16.17-2.48,5.61-2.48,3.52-1.83,1.57-2.61-.52-1.3-1.96v-2.87l-.65-1.96-2.09-1.83-2.48-.52-3.78.13-4.04,2.35-.78,3.78v4.57l1.17,3.39,2.61,3.52,4.3,1.43h6.91l6.52-2.22,4.7-3.65,5.22-6,4.43-11.22,4.43-24.65,3.91-27.26,3.39-29.74,4.57-37.7,2.48-25.04,5.22-41.87,1.7-6.13,2.09-4.3,1.83-2.48,2.09-1.83,1.57-.78,1.66.33Z"/>
  <polygon class="st2" points="121.48 197.08 131.39 194.61 140.92 190.82 146.92 186.26 150.57 180.91 151.74 174.52 150.96 168.39 146.26 162.39 140.26 160.3 132.44 160.3 124.35 162.13 118.22 167.34 111.57 175.56 106.87 184.82 106.06 191.34 106.06 200.87 108.05 207.78 111.57 212.34 117.05 215.74 122.66 217.69 128.9 217.69 136.48 216.78 141.96 213.78 147.31 210 151.74 205.43 143.53 201.91 138.7 206.34 134.53 208.17 129.44 208.43 124.87 207.13 122.53 204.26 120.31 199.82 121.48 197.08"/>
  <rect class="st2" x="209.53" y="170.61" width="39.78" height="9"/>
  <rect class="st2" x="209.53" y="189" width="39.78" height="9"/>
  <polygon class="st2" points="281.93 197.08 291.85 194.61 301.37 190.82 307.37 186.26 311.02 180.91 312.19 174.52 311.41 168.39 306.72 162.39 300.72 160.3 292.89 160.3 284.8 162.13 278.67 167.34 272.02 175.56 267.32 184.82 266.51 191.34 266.51 200.87 268.5 207.78 272.02 212.34 277.5 215.74 283.11 217.69 289.35 217.69 296.93 216.78 302.41 213.78 307.76 210 312.19 205.43 303.98 201.91 299.15 206.34 294.98 208.17 289.89 208.43 285.32 207.13 282.98 204.26 280.76 199.82 281.93 197.08"/>
  <path class="st2" d="M171.47,132l-3.52,3.82-2.74,2.35h-3.13l-2.25-2.05v-2.93l4.3-3.91,4.7-3.91,3.33-1.66h3.13l3.13,1.86,1.37,3.33.68,2.84.49,3.13v.98l5.87-5.97,3.82-4.11,2.35-2.05h2.64l2.15,1.96,1.08,2.05v2.05l-2.84,2.84-6.65,5.58-4.11,4.7-1.37,1.96s-.39,2.54-.39,3.03.39,3.82.39,3.82l.78,3.13c.1.39.78,1.57,1.08,2.05s1.57.78,1.57.78h2.45l2.05-1.66s2.15-.39,2.45-.29,1.08.29,1.37.59.59.98.88,1.37.49,1.37.39,1.96-.39,1.08-.68,1.47-2.15,2.45-2.15,2.45c0,0-2.84,1.27-3.13,1.47s-4.4.68-4.4.68h-3.42l-3.77-2.25-1.71-3.72-.88-4.3-.49-1.76-7.34,7.43-3.13,3.03-2.54.98-3.42-.2-2.05-.88-1.66-1.57-.49-2.12v-2.58l1.47-1.27,2.35-.49,2.93-.1,2.25-.1,3.03-1.86,1.86-1.86,1.66-2.35,1.08-1.57.39-1.17.68-3.91-.1-2.74-.39-2.35s-.29-2.15-.39-2.64-.2-2.35-.2-2.35l-.78-.98Z"/>
  <path class="st2" d="M324.99,137.24l-2.84,3.02-2.21,1.86h-2.53l-1.82-1.63v-2.32l3.47-3.1,3.79-3.1,2.69-1.32h2.53l2.53,1.47,1.11,2.63.55,2.25.39,2.48v.77l4.74-4.72,3.08-3.25,1.9-1.63h2.13l1.74,1.55.87,1.63v1.63l-2.29,2.25-5.37,4.41-3.32,3.72-1.11,1.55s-.32,2.01-.32,2.4.32,3.02.32,3.02l.63,2.48c.08.31.63,1.24.87,1.63s1.26.62,1.26.62h1.97l1.66-1.32s1.74-.31,1.97-.23.87.23,1.11.46.47.77.71,1.08.39,1.08.32,1.55-.32.85-.55,1.16-1.74,1.94-1.74,1.94c0,0-2.29,1.01-2.53,1.16s-3.55.54-3.55.54h-2.76l-3.04-1.78-1.38-2.94-.71-3.41-.39-1.39-5.92,5.89-2.53,2.4-2.05.77-2.76-.15-1.66-.7-1.34-1.24-.39-1.68v-2.04l1.18-1.01,1.9-.39,2.37-.08,1.82-.08,2.45-1.47,1.5-1.47,1.34-1.86.87-1.24.32-.93.55-3.1-.08-2.17-.32-1.86s-.24-1.7-.32-2.09-.16-1.86-.16-1.86l-.63-.77Z"/>
  <polygon class="st2" points="369.01 156.55 369.01 179.34 348.86 179.34 348.86 186.78 369.01 186.78 369.01 206.74 378.11 206.74 378.11 186.58 397.38 186.58 397.38 179.05 377.62 179.15 377.53 156.55 369.01 156.55"/>
  <path class="st3" d="M129.86,169.46l-3.13,3.46-3.13,5.15s-1.5,3.98-1.57,4.17-1.11,3.33-1.11,3.52v2.48l5.54-1.3,4.5-1.89,4.3-2.41,2.15-2.28,1.43-2.87v-7.63l-2.28-1.76-2.74-.33-2.54.78-1.43.91Z"/>
  <path class="st3" d="M290.39,169.46l-3.13,3.46-3.13,5.15s-1.5,3.98-1.57,4.17-1.11,3.33-1.11,3.52v2.48l5.54-1.3,4.5-1.89,4.3-2.41,2.15-2.28,1.43-2.87v-7.63l-2.28-1.76-2.74-.33-2.54.78-1.43.91Z"/>
  <polygon class="st2" points="448.19 167.57 460.19 164.57 457.97 155.96 453.41 149.57 444.41 144.88 434.75 144.09 424.06 147.27 416.75 153.22 410.75 163.27 407.62 175.66 407.62 187.4 409.45 198.49 414.93 207.75 422.75 214.27 431.1 217.4 439.45 218.05 446.62 216.36 453.28 212.44 457.84 207.88 461.62 202.92 454.71 196.66 447.93 203.57 441.28 206.74 435.14 206.18 431.75 204.88 428.49 200.18 426.01 194.83 424.58 188.96 424.06 181.64 424.84 172.14 426.54 165.09 430.32 158.57 433.58 156.55 439.19 155.44 443.49 156.55 445.58 159.36 447.01 163.27 448.19 167.57"/>
  <path class="st1" d="M313.51,514l52.7-85.3,38.09-46.43-7.04-12.52,1.3-12.78-10.17-15.91-5.22-18.26-4.17-20.61-1.3-16.43,2.35-11.22,6.52-4.43,7.04,1.3,10.7,7.04,11.48,10.96,15.65,15.13,15.39,19.3,10.17,14.09,37.3-16.7-1.57-12,1.57-9.65,5.74-11.22v-19.83l9.39-22.96,2.35-7.3-6-22.96-.26-14.35,2.87-16.7,1.04-11.74-3.65-12.23-1.3-11.51,2.61-8.61,2.09-5.48,2.61-22.96,4.17-12,7.3-13.57,7.3-10.43,7.3-7.3,7.3-16.7,13.3-12.26,19.04-12,18.52-6.78,21.13-3.91,27.65-1.83,20.09,3.13,17.48,4.43,18.52,7.04,25.57,13.83,12.52,10.17,10.96,12.52,6.52,14.87,6.52,18.78,1.04,2.74,7.43,4.5,6.26,8.22,5.67,7.43,1.96,9.78v12.52l-5.09,9.78,9.39,10.17,3.13,7.63,1.96,10.96-1.17,17.22-3.33,10.76-5.48,8.41-6.85,5.87-5.09,3.52-2.93,2.54-.78,11.54,9.98,8.61,2.93,5.04,2.35,7.48.39,4.9-.2,6.65-1.57,5.28-3.72,4.3-3.72,3.33-1.76,1.37.78,8.22-.59,6.07s-4.11,3.52-4.7,3.91-5.87,4.11-6.46,4.5-6.26.98-6.26.98h-5.67l2.74,2.15,8.22,3.72,8.22,3.72,7.43,3.13s3.13,1.37,4.3,2.15,26.8,12.13,26.8,12.13l21.33,11.35,15.85,10.96,16.63,13.89,8.22,10.17,1.33,1.64-.37,9.7-1.47,11.79-3.9,16.09-7.9,19.28-15.78,23.71-17.01,16.66-16.96,11.56-18.46,8.57-17.84,5.08-20.79,2.56h-438Z"/>
  <path class="st0" d="M757.64,281.25l-1.7,2.22,2.02,3.46,3.39,3.2,1.63,3-.46,4.17-1.7,4.04-4.89,2.67s-3.72,1.89-4.43,1.96-3.72-.13-4.24,0-4.04-1.04-4.57-1.11-3.39-2.48-3.78-2.74-2.87-3.46-3.2-3.85-1.37-2.28-1.7-2.8-1.24-2.67-1.37-3.26.07-2.02.13-2.54,1.11-1.63,1.17-2.15.91-1.17.98-2.09.26-2.35.2-3.72-1.5-2.35-1.76-3.39-.65-1.7-.78-2.48,2.48-1.83,2.8-1.96,4.11-.33,4.5-.52,4.57-.91,5.41-1.3,2.02-.39,2.8-.78,8.48-6.79,8.48-6.79c0,0,3.46-3,3.65-3.19s2.8-3.46,3-3.78,1.96-2.02,2.09-2.28,2.15.33,2.15.33c0,0,2.15,2.61,2.22,2.8s1.04,2.02,1.43,2.67,1.37,2.54,1.57,3.07.59,3.91.59,4.43.07,3.13,0,4.24-.2,2.67-.52,3.46-1.89,3.2-2.09,3.46-2.35.98-3,1.24-3.33.46-3.98.52-2.87-.07-3.13-.07-2.93-.13-2.93-.13Z"/>
  <polygon class="st0" points="580.87 509.74 600.24 509.74 728.59 458.67 728.59 448.5 580.87 509.74"/>
  <polygon class="st2" points="409.03 364.17 417.24 365.47 422.33 364.17 422.33 360.13 417.76 355.56 406.94 349.56 402.76 344.47 399.11 335.47 391.94 314.61 390.24 302.87 388.94 283.17 399.37 290.21 412.42 301.56 424.42 315.91 436.38 330 452.07 351.78 459.37 364.3 465.5 377.34 467.33 383.34 468.63 386.61 472.55 386.61 475.81 384.91 474.5 380.34 475.81 374.61 477.11 373.69 479.07 376.82 481.42 381.26 483.63 389.34 482.98 400.3 481.29 418.43 479.85 421.43 473.59 413.47 466.81 402.39 461.33 389.34 455.07 379.69 436.29 350.21 423.76 331.82 421.16 330.78 417.76 331.17 416.46 332.87 417.24 337.04 424.03 349.95 442.42 379.43 453.24 397.17 461.59 412.69 456.63 412.3 449.46 409.69 441.63 405.65 436 401.74 428.85 395.21 419.59 384.26 413.2 375.39 409.29 367.69 409.03 364.17"/>
  <polygon class="st2" points="403.42 491.47 446.66 481.3 446.07 479.12 440.79 475.82 436 474.45 432.18 472.89 432.96 466.24 437.46 466.24 444.5 466.24 450.57 469.56 454.68 473.08 459.76 475.82 461.53 477.58 487.55 476.8 487.55 474.06 483.63 470.54 476.79 464.28 468.57 458.61 460.55 454.3 453.7 451.76 450.18 450 448.03 448.5 448.22 444.13 449.2 442.17 454.48 441.19 459.57 442.76 464.85 445.3 474.24 451.76 487.55 463.11 500.85 477.39 513.18 477.19 510.05 467.61 506.13 460.37 500.66 453.13 492.24 444.71 481.48 435.32 471.11 428.47 462.31 425.34 451.55 421.43 442.74 420.06 436 421.43 427.09 430.82 416.92 442.37 408.89 452.74 403.42 462.91 401.66 472.89 401.66 491.47 403.42 491.47"/>
  <polygon class="st2" points="519.83 470.87 525.7 464.74 525.7 459.39 522.76 455.21 517.35 451.82 513.18 450.52 509.92 451.43 519.83 470.87"/>
  <polygon class="st2" points="388.94 509.74 530.13 509.74 534.57 512.87 541.37 513.44 546.78 513.73 551.48 513.05 555.26 511.42 559.92 507.5 563.38 505.02 576.29 500.7 639.49 473.31 726.75 439.07 726.75 436.33 725.18 434.96 656.51 434.96 640.66 437.7 624.81 441.22 610.53 445.33 598.6 450.52 588.42 456.68 576.68 464.51 568.27 472.53 557.84 483.49 548.9 491.47 544.2 496.99 539.7 496.99 534.03 494.05 524.25 491.47 513.18 488.96 501.75 488.38 469.86 489.36 458.9 490.33 444.42 493.07 429.55 496.2 413.12 500.12 398.84 504.81 392.18 507.75 388.94 509.74"/>
  <path class="st2" d="M563.05,380.83l-2.15,11.35-1.37,14.87v20.15l1.76,17.02,2.74,11.54,1.76,3.91,9.59-7.04,9.59-6.07,6.85-10.17,7.04-9.59,8.61-11.35,10.37-11.93,10.37-10.37,10.57-7.83,15.96-13.5,13.78-11.74s12.13-11.93,12.52-12.52,6.46-8.22,7.24-9.78,4.89-7.43,4.89-7.43l12.52-18.98,1.96-7.43,1.37-6.07-2.15-5.48-3.13.98-1.96,6.46s-6.26,11.93-6.65,12.72-6.85,10.96-7.24,11.54-14.87,12.91-14.87,12.91l-10.76,4.5-6.85,7.43s-5.87,5.67-6.26,6.26-5.48,4.5-6.26,5.28-8.61,5.48-8.61,5.48l-9,4.5-4.7,1.17h-7.04c-.59,0-2.93.2-3.91.2s-3.72.59-3.72.59c0,0-3.72,2.93-4.7,3.62s-9.78,4.01-9.78,4.01l-6.07,1.96s-6.46.78-7.63,1.17-2.54.39-3.72.39-5.09-.78-5.09-.78l-4.3-.59-1.57-1.37Z"/>
  <path class="st2" d="M512.18,329.83l2.48-7.3,4.04-8.09,3.52-1.04,2.22,2.35s-.78,3.91-.78,4.43-2.09,6.52-2.35,7.57-.39,5.48-.39,7.43.39,4.83,1.17,6.91,3.26,6.65,3.91,7.83,1.7,2.61,4.04,4.43,5.09,3.65,7.3,4.7,4.83,1.96,5.61,2.61,2.48-.52,2.48-1.04v-6.65s.65-3.39,1.04-3.52,1.7-1.57,2.61-1.43,1.96.39,2.61.65,1.3.26,1.57,1.04.78,2.35.78,3.78,0,2.87.39,4.7.39,1.83.78,3.39.91,2.48,1.57,3.65.13.91,1.96,2.48,1.17,1.3,3.65,2.22,2.35.78,5.48,1.3,3,.65,6.26.26,3.13-.52,6.52-1.17,2.48-.65,5.61-1.3,3.78-1.57,5.87-2.35,2.09-1.3,3.91-2.48,1.96-1.83,3.26-2.74,2.09-1.83,3.26-2.74,1.57-1.7,3.13-3.13,2.74-3.13,3.13-3.65,3.26-6.65,3.26-6.65l.52-4.96,1.96-2.48,4.3-.26,3.13,4.48s-.26,3.34,0,4.13-.52,3-.91,4.43-.26,1.57-.78,2.74-.78,1.96-1.17,3l-.39,1.04s.65,1.04,1.17,1.17,3-.13,3.65-.52,1.57-.65,2.48-1.3,2.35-1.7,3.26-2.09,1.96-1.17,3.65-2.22,2.87-1.57,3.78-2.35,1.3-.91,2.35-1.83,1.17-1.04,2.35-2.35,1.96-2.09,2.48-2.61,7.17-9.13,7.17-9.13l1.96-8.87,1.96-10.7.52-3.91,2.35-1.43h2.48l1.96.78,1.04,2.48v13.43l.65.78,1.83-.13,2.87-1.43,4.96-5.09,7.17-7.83,10.3-18.26,4.17-11.87,3.26-11.48,1.83-11.22.52-22.43,1.7-1.3,2.61.91,2.35,1.57,2.09,1.04c.78.39,3,.39,3,.39,0,0,1.83.26,2.22.13s4.3-1.83,4.3-1.83c0,0,2.48-2.35,2.87-2.22s2.74-1.96,3.13-2.35,1.83-2.35,2.48-3.13,2.09-2.61,2.35-3.13,1.43-2.09,1.96-3,1.43-2.48,1.7-3.26,1.04-2.74,1.3-3.39.65-1.7.78-2.22-.52-1.7-.52-1.7l-2.63-1.04s-1.02-.65-1.54-.91-1.7-.65-1.7-.65c0,0-.78.13-1.17,0s-.52-1.43-1.3,0-1.96,3.26-2.35,4.17-.39.78-1.04,1.83-1.04,1.43-1.57,1.96-.91.65-1.57,1.04-.91.26-1.7.65-1.3.39-2.09.39-1.83-.78-1.83-.78c0,0-.52-.78-.78-1.43s-.39-1.3-.39-2.09v-5.22c0-1.43.26-1.96.26-3.13v-5.35c0-.52,0-.78-.65-1.17s-.78,0-1.57-.91-1.43-1.3-1.96-1.7-.65-.52-1.3-1.04-1.43-1.17-1.96-1.57-.78-.52-1.3-.91-1.3-.91-1.3-.91l-.91-.65h-.65s-1.3.91-1.57,1.43-.26.78-.39,2.09.26.13-.39,2.09-1.04,2.61-1.43,4.04-.39,1.57-.91,3.13-.39,1.3-.91,2.74-.65,1.17-1.3,3.13-.78,1.83-1.43,3.52-.52,1.7-1.43,3.39-1.17,2.09-1.96,3.52-.52.91-1.7,2.87-1.43,1.83-2.48,3.52-.65,1.17-1.96,3.13-1.17,2.09-2.48,3.26-2.35,2.35-2.74,2.74.26-.26-1.3,1.57-.52.91-2.09,2.48-1.57,1.83-2.35,2.61-3.39,3.39-4.17,4.3-.91.65-1.57,1.83-.78.91-1.17,1.83-.39,1.17-.65,1.83-.52,1.43-.65,2.35.13-.26-.13.91-.26,1.3-.52,2.35-.39,2.34-.52,2.74-.13.4-.26.92.26.78-.91,1.04-2.35.39-2.35.39c0,0-.52.13-1.17.13s-.91-.26-1.7-.39-1.3-.26-1.43-.65-.26-.92-.39-1.44-.39-3.39-.39-3.39l-.13-3.39s.52-2.48.52-2.55.26-.45.52-1.37.78-1.43,1.04-2.22.78-1.7,1.04-2.22.39-.52.78-1.3.65-1.17,1.17-1.83.39-.65.91-1.3.78-.39,1.7-1.57,1.04-1.3,1.7-2.09,1.04-1.04,1.7-1.96,1.7-1.3,2.09-1.96.26-.65.91-1.43,1.17-1.04,1.83-1.7,1.04-.91,1.83-1.96,1.17-1.3,1.83-2.35.65-1.3,1.43-2.61.91-1.43,1.43-2.48.39-.91,1.3-2.48,1.17-2.35,1.83-3.65.65-1.83,1.43-3.39.91-1.96,1.43-3.26.65-1.7,1.04-2.74.39-1.17.78-2.35.65-1.7,1.04-2.87.52-1.83.91-3,.52-.65,1.04-2.87.39-2.48.91-4.17.52-1.96.78-3,.13-.65.52-2.22.78-2.74.78-3.39.13-.26.13-1.43-.26-1.3-.26-1.83-1.3-3.26-1.3-3.26c0,0-1.7-2.87-1.83-3.26s-1.17-3.39-1.17-3.91-.26-1.17-.26-2.09-.13-1.3-.39-3.13-.26-1.96-.39-3.39-.13-1.43-.13-3.26v-3.78c0-1.7,0-1.57.13-3.65s.26-2.48.39-4.3.39-2.35.52-3.91.26-2.35.52-4.04.39-1.7.52-4.3.13-2.35.13-4.43.26-1.96.26-4.43v-4.7c0-1.43-.13-1.04-.39-3.13s-.13-1.7-.52-4.43-.39-3.13-.78-3.78-2.87-7.43-2.87-7.43l-4.57-6.65-4.96-5.74-7.3-5.35-6.91-3.65-9-1.83-8.61-.78s-6,.39-7.57.52-9.26.52-9.78.65-4.17.26-5.74.52-2.74,0-5.22.39-7.7.91-9.26,1.04-2.74.13-4.96.13-3.78,0-7.04-.13-3.78,0-6.78-.26-2.48-.52-4.17-.52-1.04-.13-3.78-.39-1.04.13-5.48-.91-5.35-1.3-6.91-1.7-13.17-3.65-13.17-3.65c0,0-4.43.39-4.96.91s-2.61,1.43-3.26,2.09-2.09,1.83-2.48,2.48-6.26,7.17-6.26,7.17c0,0-3.91,6.13-4.57,7.04s-2.09,2.09-2.74,3.26-1.83,3.91-2.35,5.22-1.17,3.13-1.57,4.83-.78,2.74-1.3,4.96-.78,3.52-1.04,5.22-.39,3-.65,4.7-.39,2.87-.52,4.43.13,1.7-.39,3.91-.78,2.48-1.04,3.91-.39,2.22-.78,4.17l-.39,1.96s.26.52.65.52,1.7-.39,2.61-.39,2.87-.52,3.26-.52,1.3-.39,2.74-.39,3.91-.39,4.7-.39,3.65-.39,4.3-.39.78-.13,3.65.52,2.74.26,4.96,1.04,1.96.13,3.78.91,1.96.26,3.65,1.17,5.35,3.39,5.35,3.39l4.83,3.91s1.83,2.48,1.83,2.87.26.78.39,2.35.13,1.96.13,3.65.26,1.83,0,3.65.13,1.3-.65,4.04-1.04,2.87-1.43,4.96-.78,2.48-1.17,4.17-5.35,15.78-5.48,16.17-.13,1.04-.26,2.09.26.91-.65,3-.91,2.22-1.7,3.91-.78.91-1.96,3.78-3.39,13.83-3.52,14.61-.13,1.57-.26,2.74-.26,1.96-.39,4.04-.39,2.87,0,4.3,1.3,2.61,1.83,3.13.78,1.04,2.87,1.43,2.61.52,4.7.52,3.26,0,4.96-.39,2.35-.52,5.35-.78,3.13-.39,5.74-.78,3-.65,4.7-.78,2.09-.39,3.78-.78,2.48-.52,2.74-1.04.39-1.57.52-2.09.13-1.7-.39-2.48-.78-1.04-1.17-1.83-.78-.52-.91-2.09-.52-1.7.13-2.61.78-1.57,1.7-1.7,1.43-.78,2.87-.13,2.61,1.17,3.78,2.22,1.7,2.31,2.48,2.92,0,.21,1.7,2.3,1.57,1.96,2.74,3.26.78,1.3,2.09,2.09.65.52,3.52,1.83,3.39,1.17,5.61,2.48,6.52,5.48,6.52,5.48c0,0,2.61,2.35,3.52,3.39s1.96,2.22,2.87,3.13,1.06,1.43,2.1,2.48,1.56,1.57,2.47,2.74,1.17,1.57,2.22,3,.78.65,2.22,3.52,2.09,3.91,2.48,4.82.13,1.05.78,2.48.91,2.48,1.57,3.91.91,3.91.91,3.91c0,0,.26,1.7.26,2.48s.26,1.83.13,2.87-.39,1.83-.78,2.35-1.7,1.04-1.96,1.17-3-.49-3-.49l-2.61-3.03s0-.65-.26-1.96-.39-1.96-.91-3.39-.65-1.7-1.04-2.61-.39-1.3-1.04-2.35-.5-1.04-1.43-2.22-5.88-8.09-5.88-8.09l-5.09-6.52-7.7-7.3-7.17-4.17-5.38-1.04-7.92.52-6.91,2.74-7.17,1.57-6.52.65-8.74.26-7.17-.91-4.17-2.61-4.17-3.52-2.74-.91-4.17-.78s-2.22,1.04-3.39,1.43-4.83,2.74-5.09,3.13-3,4.43-3.52,5.35-3.39,7.04-3.52,7.7-3.91,9.39-3.91,9.39l-1.43,5.22s-1.04,5.74-1.04,6.26-.13,4.04,0,5.74-.12,3.26-.06,4.57.59,1.83,0,3-.46,2.09-.99,3.13-1.04,2.48-1.17,3.39-3.13,7.96-3.13,7.96l-1.17,4.3v6l.78,4.3s.91,2.87,1.04,3.39,1.3,2.87,1.3,2.87c0,0,1.04,1.83,1.3,2.22s1.57,2.09,1.57,2.09l1.7,1.43-.13-.52Z"/>
  <path class="st2" d="M537.94,181.07l2.28-1.17,5.75-4.17,1.49-.66h2.09s-.26.26,0,.65-.78,4.83-1.04,5.35,0,.39-.91,2.61-1.57,4.17-2.09,5.48-1.52,2.35-1.74,4.3-.35,2.74-.87,4.17-.39,1.43-.91,3.78-.26,2.35-.91,4.83-.78,2.74-1.17,4.3-.39,1.3-1.04,3,0,1.7-.91,3.52-1.57,3.78-1.57,3.78l-3.39,3.78s-1.57,2.74-2.22,3.39-2.61,1.04-3.39,1.43-2.35.78-2.87,1.04-2.22,0-2.22,0c0,0,.52-1.3,0-2.48s-.78-2.9-1.17-4.06-.26-1.29-1.04-3.24-1.17-3.39-1.57-4.96-.26-2.09-.65-3.91-.39-1.3-.52-3.78.13-3.28,0-5.22-.73-1.82-.04-4.3.82-2.87.95-4.7,1.43-12,1.43-12c0,0,.39-.65.65-2.87s.13-2.61.26-3.91.13-.91.13-3,.13-1.43-.13-3.39-.65-2.09-1.17-4.04-.78-2.22-1.04-3.26-.13-.65-.39-2.35-.39-2.74-.39-2.74c0,0-.39-.65,0-1.43s1.17-1.17,1.17-1.17c0,0,2.48-.78,3.13-1.04s1.96-.39,2.74-.65,2.22-.91,4.3-1.04,3.33.13,4.34,0,3.23.06,3.75-.04.65-.71,3-.01,2.09.44,3.78,1.22,1.57.65,3.13,1.3.47.78,2.65,1.43,2.96.78,3.61,1.3l.65.52s.78.78.65,2.74,0,1.7-.52,3-1.57,2.87-1.57,2.87l-.78.91s-1.83.65-2.74.26-2.48-1.7-3.13-1.83-2.48-.65-3-.78-4.04-.39-4.43-.39-1.17-.26-1.83-.26-1.04-.26-1.83,0-1.3.13-1.96.39-1.17.26-1.7.65-.39-.13-.91.91-.39,1.17-.52,2.22-.39,1.04,0,2.22,1.43,1.96,1.7,2.35.65-.78.52.91-.39,2.09-.52,3.13-.65.91,0,2.22.26,1.43,1.43,2.09.82.78,3.02.78"/>
  <path class="st2" d="M748.47,215.51l-4.17,9.13-3.65,9.26-4.87,7.57s-5.17,3.52-5.56,3.78-6.26,4.57-6.78,4.96-4.57,2.09-4.83,2.61-1.17,2.35-1.04,3.52,2.35,4.43,2.87,5.48,1.7,1.17,2.61,1.83,3.52,1.3,4.57.84,4.55-1.1,5.41-1.24,3.2-.65,4.12-.91,2.74-.78,4.17-1.17,3.26-1.17,4.7-1.96,2.74-1.02,3.52-2.2,1.57-1.97,2.61-3.14,1.57-1.57,2.35-3,1.17-1.96,1.96-4.17,1.17-3.39,1.17-4.96-.52-3,0-4.96.65-3,.91-4.7.52-2.87.78-4.83.13-1.73.78-3.28.78-1.68,2.22-3.24,2.09-2.09,3-2.48,2.48-.65,3.78-1.7,2.48-1.7,3.26-2.22,7.96-7.96,7.96-7.96l2.48-7.04s.78-5.22.78-5.74-.26-2.61,0-4.17-.26-2.87,0-4.3-.13-3.52,0-4.43-4.3-10.57-4.3-10.57c0,0-5.22-6.26-5.48-6.78s-1.17-2.61-1.96-3.13-2.48-1.3-3-1.7-2.35-1.17-2.74-1.43-18.65-9.13-18.65-9.13l-7.04-.78s-3.75-.78-4.61-1.04-2.82-.91-3.6-1.3-2.48-1.04-3.13-1.43-1.43-.65-2.22-1.57-1.43-1.3-1.7-2.09-.26-1.3-.13-2.22.13-1.04.52-1.57,3.13-1.04,3.13-1.04c0,0,.39-.39,1.57,0s1.57.65,3.65,1.17,3.13.78,4.57,1.04,1.43.13,4.7.91,4.96,1.17,5.61,1.43,1.96.65,3.13,1.04,3.13.78,4.57,1.43,1.3.65,3.52,1.57,4.17,1.17,5.35,1.83,2.61.78,3,1.04,2.61.39,2.61.39c0,0,1.57.39,2.22-2.09s.91-5.09,1.04-6.13-.91-10.83-.91-10.83l-4.17-7.43-3.13-2.87-4.17-3.26-2.61-2.09-6.13-5.35-1.57-4.7-1.7-6s-.65-2.48-1.04-3.52-1.3-3.78-1.83-4.83-.39-1.43-.91-2.74-7.57-14.22-7.57-14.22l-4.7-6s-6.13-5.74-6.39-6.13-18.78-13.7-18.78-13.7l-17.87-7.04-16.57-6.13-22.83-4.3-17.61-.91-19.43,1.96-15.91,3.39-21.52,9.39-10.04,7.17s-3.13,6.13-3.26,6.65-.65,4.96-.65,4.96l.91,3s1.04,1.43,1.57,1.96l2.35,2.35,2.09,1.04,1.83,1.04,2.48.39,1.04.13.78-.26.52-1.96v-2.87c0-.52-.13-1.04-.13-1.83v-1.83c0-.91,0-1.43.13-2.09s.13-.52.39-1.57.65-1.57.91-2.48.13-1.17.52-1.96l.91-1.83c.26-.52.65-.91,1.04-1.57s.78-.91,1.04-1.3.78-.65.78-.65l1.3-.65,1.3-.26,1.04-.13s.65-.26,1.04,0,.65.65.78,1.3.39,1.04.39,2.09,0,1.17-.13,1.83,0,.78-.26,1.7-.13,1.17-.39,2.09-.39.65-.39,1.83v5.09c0,1.04-.13,1.04,0,2.22s.26,1.7.39,2.61.13,1.04.26,1.57l.13.52s.65.65,1.57,1.3,1.57,1.17,2.61,1.43,2.35.52,2.87.52h2.48c1.17,0,2.61-.26,3.52-.26s3.78-.39,4.96-.39,1.7-.26,3.13-.26,1.3-.13,3.13-.26,3.13-.26,4.43-.39,1.57-.26,3.13-.39,2.61-.39,3.65-.39,2.61-.26,3.39-.26,1.17,0,3.26-.13,3.39-.26,5.74-.39,2.35-.26,4.57-.39,2.09-.13,4.7-.39,4.57-1.04,5.22-1.17-.26,0,2.87-.78,2.09-.52,5.48-1.43,4.04-1.43,5.87-1.7,1.83-.52,4.43-.91,2.96-.65,4.74-.91,1-.52,3.61-.52,4.7-.13,5.09-.13h2.74c1.83,0,1.96-.26,5.09.26s2.48.13,4.7.78,2.09.39,4.7,1.43,3.65,1.04,5.35,1.83,1.17.39,4.17,1.83,3.52,1.83,4.3,2.61.91,1.3,1.3,1.83.91.78,1.04,1.7,0,1.04-.65,1.63-1.17.59-2.09.85-1.43.52-2.74,0-2.35-.91-2.87-1.43-1.17-.91-2.09-1.43-1.83-1.17-3.91-1.57-1.96-.52-3.39-.65-1.7-.39-3.13-.52-3.91-.78-3.91-.78l-4.17-.39h-5.35l-6,.39-4.43,1.17-3.39,1.43v1.43l3.13,1.5,3.91,2.8s1.3.91,1.96,1.57,1.83,1.17,3.13,2.22.91,1.17,2.22,2.09,1.04.91,2.35,2.22,1.43,1.57,2.48,2.74.91.91,2.35,2.48,5.48,8.09,5.48,8.09l2.74,6.91,3,9.78.65,7.17-.78,17.48s-1.43,8.74-1.43,9.13.26,6.65.26,7.17,1.17,9.91,1.3,10.43,1.3,5.09,1.57,5.48,4.96,8.22,4.96,8.22l4.04,5.09,6,5.22,5.09,3.65,4.7,3.39s4.04,1.7,5.09,2.35,4.34,1.43,4.39,1.7,3.05,2.09,3.7,2.48,6.26,4.7,6.26,4.7l2.48,2.35.26,3.39Z"/>
  <path class="st1" d="M549.03,288.42l4.3,2.87,3.78,1.7,5.74.39h3l6.13-.46,2.61-1.7s1.37-1.76,1.43-2.02.39-1.43.39-1.63.13-1.24,0-1.43-.26-.78-.59-1.17-.91-.72-1.11-.78-.85-.2-1.37-.26-.91.07-1.57,0-1.83.13-2.74.33-.85.2-1.63.33-1.17.2-2.28.26-1.37.13-2.54,0-1.63-.07-2.61-.39-.2-.13-2.48-.85-1.7-.78-3.13-.98-1.37.26-2.22,0-.72-.23-1.76-.05-.78-.01-1.37.44-.65.59-.72,1.3.2.85,0,1.43.11,1.3-.01,1.57.73,1.11.73,1.11Z"/>
  <path class="st1" d="M530.44,278.77l9-7.04,4.43-3.78,3.39-.65,5.35,2.48s2.09.52,3.65.52h5.48c1.57,0,3.39-.13,4.96-.13s4.83,0,5.87.13,2.59,0,3.91.26,2.22,0,3.92.65,1.83.91,3.65,1.83,2.35,1.3,4.43,2.61,3.32,1.96,4.27,3.13.82,1.43,2.38,2.48,1.96,1.57,3.13,2.48,1.04.78,3,2.09,2.61,2.09,3.26,2.09,1.96.39,2.61,0,1.17-.79,1.57-1.31.78-.78.78-1.83-.65-2.22-1.43-3.52-1.3-1.43-2.09-2.74-2.22-1.96-3.91-3.65-1.96-1.7-4.04-3.13-2.61-1.3-4.3-2.48-2.35-1.7-4.04-2.61-1.7-.88-3.91-2-2.35-1.52-3.52-1.78-1.43-.65-4.04-.78-3.91-.13-5.61-.13h-10.21c-2.31,0-4.14.65-5.31,0s-2.35-.78-4.3-1.57-1.96-1.17-3.91-1.17-1.7-.39-4.17-.13-1.83-.52-3.13.52-1.57.78-3.26,2.35-.91,1.08-3.26,2.69-2.74,1.48-4.57,3.05-1.96,1.57-3,2.87-1.17,1.65-1.96,2.98-1.17.67-.78,2.5.91,2.22,1.43,2.74,1.3.65,1.3.65h1.83l1.17-.65Z"/>
  <path class="st1" d="M604.07,176.18h-3.13l-3.52-1.57v-3.52l1.96-1.96,4.7-.98h21.33s3.91,1.96,4.5,2.35,1.76.98,2.93,1.66,2.93,2.05,2.93,2.05l1.76,1.96,1.17,2.54s1.17.98,0,1.57-2.74.78-2.74.78c0,0-1.57.78-2.15.98s-3.13,0-3.13,0c0,0-1.76-.59-2.15-.98l-1.76-1.76s-.59-.78-1.17-.98-1.17-.59-1.76-.59-1.57.59-1.57.59c0,0-.59.78-.78,1.76s.39.37-.39,2.04.54,2.07-.9,2.65-1.83,1.17-2.81,1.76-1.96.98-2.74.98h-2.74c-1.57,0-1.5.2-2.41,0s-2.09-1.17-2.09-1.17c0,0-.78-.98-.98-1.76s-.39-1.17-.59-1.96-.59-1.57-.59-2.35.2-2.26,0-2.4-1.17-1.71-1.17-1.71Z"/>
  <path class="st1" d="M650.12,153.16l5.48,4.17,2.74,2.87s.26,3.13,0,3.78-2.09,1.7-2.35,2.09-2.61.91-3.26.91-3.78-1.17-4.57-1.7-3.13-2.22-4.17-3-2.22-1.7-3.13-2.22-.91-.65-3-1.3-1.7-1.43-4.96-1.7-4.04-.52-5.87-.65-1.96-.26-4.83-.52-3.26-.26-5.87-.26-1.96.13-4.04.26-1.43.13-4.04.39-3.65.39-6.13.65-1.43.52-4.7.78-1.63.39-4.66.65-2.51.26-4.2.39-1.83.26-2.48,0-2.74-.91-2.87-1.43-1.43-3.39-1.43-3.39l.65-3.38,3.78-1.58,7.57-2.22,8.74-1.83,7.57-.65h12.13l10.7,1.28,7.83,2.63,5.87,2.36,3.52,2.6Z"/>
  <path class="st1" d="M611.48,64.5l13.11-9.78,8.32-5.18,9.29-2.35,5.48-1.76,3.82-1.57v-3.33l-6.55-.98s-5.67,1.17-6.26,1.47-9.49,3.03-10.08,3.33-11.64,6.55-11.64,6.55c0,0-3.52,4.3-4.11,4.79s-4.3,3.33-4.5,3.62-.98,2.74-.78,3.23,3.91,1.96,3.91,1.96Z"/>
  <path class="st1" d="M755.28,194.12l1.08,4.5v3.42l2.74,1.47,3.03-.88,1.76-2.35v-6.16l-1.17-5.09-4.5-7.14-8.12-7.14-9-4.6-6.75-1.99-4.3.42-1.37,2.74v3.13l3.42,2.05,4.6,1.38,4.6,1.55,3.13,1.37s2.45,1.57,2.74,1.96,1.96,1.57,2.25,1.96,2.05,2.89,2.05,2.89c0,0,1.27,1.9,1.37,2.2s1.47,2.74,1.47,2.74l.98,1.57Z"/>
</svg>