<svg xmlns="http://www.w3.org/2000/svg" id="main" viewBox="0 0 872 514"><defs><style>.st0{fill:#fff}.st1{fill:#2c1e6c}</style></defs><rect width="872" height="514" class="st1" rx="125" ry="125"/><path d="m51.29 241.25 11.09 6 6.65-8.09 5.09-2.35s5.22-1.04 5.61-1.04 4.83 1.3 4.83 1.3l3.78 3.78v12.78l-10.7-.78s-6.26.39-7.83.78-4.43 1.3-5.87 1.83-4.43 1.3-5.61 2.09-2.74 1.7-3.52 2.74-2.87 3.26-2.87 3.26l-2.61 3.52s-1.04 3.13-1.04 3.78.26 2.35 0 3.78.13 3.26 0 4.3 1.43 6 1.43 6 2.09 3 2.61 3.91 3.39 2.87 4.04 3.26 4.17 2.61 4.17 2.61l6 1.7h6.13l6.13-.78 4.17-2.09 5.35-3.65 4.43-4.96v10.04l13.7.13v-55.17l-3.39-8.22-4.04-3.39-4.96-3.26-6.26-1.7H72.02l-6.52 2.48-4.7 3-4.57 4.43-4.96 7.96Z" class="st0"/><path d="m89.7 263.88-.33 8.74-2.74 4.37-3.91 3.91-4.04 2.28s-4.96.26-5.15.26-4.17-.98-4.17-.98l-3.65-4.17-.46-6 1.5-3.07 3.26-2.41 3.46-1.96 2.61-.98h13.63Z" class="st1"/><path d="M146.08 225.27v9.88h-32.77v-8.02l18.3-20.64 1.36-3.23.2-2.54-1.08-2.06-2.39-1.08h-2.89l-3.72.98-2.73 2.84-2.16 2.05-7.04-3.91 4.21-6.26 3.42-3.03 3.72-2.06 3.32-.88h4.41l4.1.79 3.13 1.66 1.96 1.96 2.35 3.52.88 3.13.29 3.81-.29 3.43-3.42 5.62-11.35 13.45-.3.49zm183.57 0v9.88h-32.77v-8.02l18.3-20.64 1.37-3.23.19-2.54-1.08-2.06-2.39-1.08h-2.89l-3.72.98-2.73 2.84-2.16 2.05-7.04-3.91 4.21-6.26 3.42-3.03 3.72-2.06 3.32-.88h4.41l4.1.79 3.14 1.66 1.95 1.96 2.35 3.52.88 3.13.29 3.81-.29 3.43-3.42 5.62-11.35 13.45-.3.49zm156.92 0v9.88H453.8v-8.02l18.29-20.64 1.37-3.23.19-2.54-1.07-2.06-2.4-1.08h-2.88l-3.72.98-2.74 2.84-2.15 2.05-7.05-3.91 4.21-6.26 3.42-3.03 3.72-2.06 3.33-.88h4.4l4.11.79 3.13 1.66 1.95 1.96 2.35 3.52.88 3.13.3 3.81-.3 3.43-3.42 5.62-11.35 13.45-.29.49zm-305.27.36v22.3H159v12.92h22.3v21.32h13.5V259.9h22.11v-11.97l-22.3-.39-.2-21.91zm158.61 9.52h42.85v9.39h-42.85zm0 23.48h42.85v9.39h-42.85zm-102.85-68.55h16.7l-2.09 45.07 7.7-7.43 8.6-4.11 8.22-.2 7.83 2.22 5.28 5.61 4.11 7.24 2.54 8.6v19.37l-4.5 13.31-6.65 7.82-10.56 7.64-9.98 1.56-6.26-.98-6.07-4.11-3.32-3.52-3.14 4.7-1.95 1.76h-11.55z" class="st0"/><path d="m251.74 250.02-1.37 25.04 2.93 4.7 5.48 2.41h7.83l4.89-3.39 4.5-7.04 1.76-5.64v-16.08l-1.18-5.48-2.93-4.69-5.09-1.77h-5.67l-5.09 3.72-3.91 4.5z" class="st1"/><path d="m451.64 239.52-13.25 7.7-3.92-6.79-4.95-2.74h-4.7l-4.56 1.05-5.09 5.48-2.22 5.21-1.04 7.24v9.46l.91 6.39 2.35 4.17 4.44 4.31 5.86 1.3h4.44l5.48-3.13 3-4.69 1.3-2.09 11.95 4.04-.73 4.96-3 4.83-4.83 4.3-5.61 4.04-6.91 1.7h-11.09l-6.91-2.35-6.13-3.78-5.22-4.57-4.3-6.65-2.87-10.04v-15.79l1.83-7.3 3.78-7.43 3.78-4.96 6.78-5.87 8.22-3.52h15.78l5.09 1.3 4.04 3.13 4.57 4.96zM537 104.85l-12.66 11.87-7.04 7.82-7.04 11.48-5.48-4.96-1.57-14.34 5.22-22.18zm-31.83-42.27h19.44l13.56 3.66 12.26 4.95 6 5.22 6.13 9.13 7.83 12.13h-12.26l-16.96-1.56-10.56-3.92-11.48-6.52-7.83-7.3-4.96-8.74z" class="st0"/><path d="m540.71 119.13 14.22 3.65 18 3.13s18-.91 18.39-.91 22.3-5.22 22.3-5.22l12.65-6.52 2.48-2.74-3-9.91-8.22-12.78-12.52-12.39-14.74-9.13-10.3-4.43-10.17-1.57h-4.17l2.35 7.17 7.43 12.65 7.57 9 7.57 6.26 6.39 5.48 2.09 4.3-15.26.78-9.65.26-11.35 2.61-9 2.61s-6.39 3-6.78 3.26-4.04 2.22-4.04 2.22l-2.22 2.22Z" class="st0"/><path d="m664.3 125.91-12.91-1.76h-19.18l-9.65 2.61-6.39 3.52 4.17 3.39 15.53 5.35 11.47 2.87 14.22 2.09 15.52-.79 9.92-2.61 6.65-2.6 1.17-2.09-.65-9-1.96-9.52-4.95-8.22-8.22-10.17-12.52-11.35-8.48-4.96-9.65-4.3-7.05-2.61h-4.04l.52 8.48 2.48 7.82 3.78 7.44 5.35 6.52 4.83 4.96 5.61 6.26 2.74 3.13 1.69 2.61z" class="st0"/><path d="m685.95 150.24 8.87 13.17 10.31 10.17 8.61 5.48 10.04 3.13 13.69 1.7 15.4 2.09.91-8.48-.65-14.48-2.09-8.48-3-9.26-5.61-11.09-7.56-11.87-5.22-5.08-9.78-7.37-4.05-1.63-4.43-1.18h-2.09l-1.17 7.96.78 12.91 3.78 10.18 5.48 9.39 3.39 4.95 1.18 2.87-6.4-1.04-8.34-2.22-5.87-1.43-6.13-.91-5.22.26z" class="st0"/><path d="m757.89 142.93-.98-11.45-4.7-17.32-10.66-21.33-6.75-8.02-22.89-21.91-18.39-12.62-19.73-9.95-24.26-6.26-17.74-2.09h-25.96l-21.1 3.13-16.21 3.65-13.3 5.09-10.17 3.91-9.13 5.09-4.04 2.09 18.13.39.65-7.57 9.65-1.17 10.08 1.04 9.75 2.61 12 4.7 8.61 5.35 9.91 6.39 8.09 6.78 5.74 6.65 2.74 3.65.65-23.48 7.96.52 11.87 3.52 10.3 5.09 9.39 6.33 9.91 7.11s6.26 5.74 6.52 6.13 4.43 3.78 5.87 5.54 4.3 4.63 4.57 5.15 3 3.13 3.13 3.52 2.09-.13 2.09-.13l5.87-14.22 9.91 3.52 10.04 7.04s8.35 7.7 8.35 7.63 6.65 6.85 6.91 7.24 4.96 7.3 4.96 7.3l8.25 16.04 2.05 4.17 2.05 1.11ZM521.31 388.61l-15.91 12.52-18 16.17-13.04 18.26-7.04 10.17-11.22 23.74 168.26-1.04 22.7-10.96 17.74-14.87 15.65-15.91 26.35-31.04L729.5 362l4.43-8.61 1.3-10.43-2.35-4.96-3.65-3.39-4.17-3.13-4.17-3.39-2.87-3.91-3.65-6.52-1.04-7.3-2.35-4.96-5.48 18.26s-6.52 16.17-7.04 17.22-9.91 14.09-9.91 14.09l-15.91 17.48-10.96 9.13-16.43 9.65-18 7.3-20.35 5.74-17.22 2.87-21.91.26-14.09-1.83-14.09-4.96-10.43-6.26-7.83-5.74Zm229.7-44.87s-7.3 18.52-8.09 19.04S730.14 386 730.14 386l-19.04 24.78-12 14.61-15.13 15.13-12.78 11.74-19.57 16.17 61.83 1.04 14.35-19.04 11.74-21.91 9.65-19.57 6.52-10.17 2.35-1.3 2.61.52 2.35 1.57V404l-12.26 32.61-9.91 19.04-9.91 13.83h38.09l6.52-4.17 2.87-4.7 3.13-8.35 3.13-8.35 3.13-9.91 2.87-9.91 2.35-8.09 1.83-9.39v-26.74l-2.22-5.09-4.04-5.22-17.22-14.09-13.3-8.87-5.61-2.87h-1.43ZM529.86 127.93l15.07 4.3 17.8 2.74s18.59.59 19.17 0 18.59-.78 18.59-.78l13.3 8.74 11.93 6.13 16.63 4.11 11.54 1.37 11.74.78h8.8s6.46 14.87 6.46 15.46.78 9.39.98 10.37.39 8.8 0 11.54.23 12.13.23 12.13-2.38 13.89-2.77 15.07-7.04 25.43-7.04 25.43l-6.85 14.8-5.28 7.7-6.46 9.2-8.82 9-4.29-3.52-9.2-9.39-9-6.46-10.96-6.52-7.43-6.78-5.48-3.72-4.11-2.93-2.74-1.37-2.15.2v3.52l.2 6.26-4.99 2.54-9.68 1.37-12.33-.39-7.04-1.82-3.52-2.48-.2-7.04-.39-14.09 2.93-12.91 3.33-14.48 4.3-18.68.78-10.86-.78-4.7-2.93-2.35-3.52-1.37-3.52-.78h-6.85l-31.3.39V156.7l2.74-10.17 1.96-5.87 3.13-5.48 2.93-3.13 2.35-2.35 2.74-1.76Z" class="st0"/><path d="m540.94 179.98-19.57.65-6.39 5.35-1.83 9.65.85 11.35s2.15 11.48 2.41 12.65 1.7 10.04 1.7 11.48.52 8.74.65 9.13.91 18.65.91 18.65-.39 6.26-.78 7.3-2.35 7.57-3 9.26-2.35 8.22-2.87 9.65-5.87 21.13-5.87 21.13-1.04 8.74-1.17 9.13-1.04 7.43-1.04 8.09 1.57 23.87 1.57 23.87 2.61 6.39 2.61 6.78 3.39 6.13 3.78 6.78 2.74 3.78 3 4.17 8.87 9.39 9.39 10.04 13.3 9.26 13.7 9.52 10.96 3.65 10.96 3.65l16.43 3.26h11.22l28.17-.91 8.61-1.83 13.7-4.43 13.04-5.22 10.5-6.13 7.63-5.48 9.91-8.74 6.78-7.7 5.35-7.96 5.48-10.17 3.65-7.96 6.39-13.17 4.3-11.61 3.39-12.65 1.04-6.78-.91-30.26 3-2.22 2.35-.39 3.78 3 2.74 2.35 4.83 1.83 5.09-.26 4.43-2.09 3.78-3.78 2.61-2.09 7.43-11.09 4.7-9.91 2.09-7.7v-11.22l-3.39-4.3-4.83-1.83-4.17.65-5.74 3s-6 6.78-6.52 7.17-4.96 5.87-5.22 6.52-1.17 2.22-1.17 2.22l-3.39-.26-1.3-.65-.78-3.65s.65-3.91.65-4.7 1.17-5.87 1.17-5.87l4.3-5.09 7.17-4.57 3.39-1.83 2.22-.78-1.83-1.3-7.57.26s-6.39-1.3-6.78-1.43-7.83-2.35-7.83-2.35l-4.7-2.22-6.52-2.61-3.13-.65s.52 14.87.52 15.26-.13 12.26-.26 12.65-1.7 11.22-1.83 12.13-4.83 17.48-4.83 17.48-5.48 13.17-5.87 13.96-5.61 10.96-6 11.61-7.83 12.78-8.35 13.17-4.17 5.22-4.43 5.61-4.17 4.57-4.57 5.22-3.26 2.87-3.78 3.39-3.65 3-4.17 3.39-5.74 5.22-5.74 5.22l-4.04 2.35-1.83 1.24-8.09-13.37-4.57-6-6-6.52-8.61-7.04-7.57-5.87-4.3-4.17-5.54 4.3-5.15 1.83s-3.91.65-4.3.78-3.39.26-4.43.39-4.43.39-4.96.39-4.83-.13-5.61-.13-5.35-.39-6.26-.39-3.91-.13-5.09 0-4.17 0-4.17 0-1.96-.65-2.61-.78-3.91-1.83-4.3-1.83-2.74-1.17-2.74-1.17-1.83-1.17-2.35-1.57-1.3-1.43-3-3-2.22-3.59-2.87-4.86-.91-9.1-.91-9.1l5.09-22.43 2.87-13.7 2.61-11.74s2.09-7.17 2.22-8.09.52-4.96.52-5.35-.91-2.61-.91-2.61l-3.65-2.87-4.7-.52Z" class="st0"/><path d="M523.2 190.74h17.61l.91 3.13s-.65 3.91-.65 4.3-.65 3.65-.91 4.17-1.17 2.09-1.57 2.87-1.7 2.09-2.22 2.87-1.57 2.35-1.96 2.48-3.26.67-3.26.67-3 .41-3.39 0-1.83-.8-1.83-.8l-1.17-3.46s-.39-2.54-.65-3.33-.65-4.83-.91-5.35 0-7.57 0-7.57Zm101.55 3.06v4.5l-1.27 5.97s-2.35 2.48-2.45 2.71-4.4 3.36-4.4 3.36-1.96 1.37-2.54 1.57-2.05.88-2.45 1.17-1.76 0-1.76 0l-2.25-5.28-1.17-5.09s-.88-3.23-1.08-3.82-.78-3.23-.88-3.72 0-2.54 0-2.54l.68-1.17h17.02l2.54 2.35Zm-40.01-23.08s-.39 5.58 0 6.07.88 4.21 1.17 4.6 3.72.59 3.72.59 2.93-.88 3.42-1.08 2.64-.46 3.13-.91 2.84-1.14 3.62-1.14 2.25-.1 3.03-.1 2.45-.1 3.91 0 2.35.2 3.91.29 2.5.2 3.94.29 2.52 0 4.37.2 2.54.42 4.5.46 5.18.72 6.65 1.11 1.37.59 2.84.88 1.76.1 3.42.88 1.66.68 3.23 1.57 1.66 1.57 2.64 1.57h2.93c1.56 0 1.76 0 2.93-.49s1.47-.59 2.15-1.37.88-.88.98-2.45 0-2.64-.39-3.33-1.08-1.57-1.66-2.15-.68-.78-1.66-1.66-2.05-1.86-3.03-2.45-2.54-1.57-3.72-1.96-2.54-.88-4.11-1.27-2.74-.78-4.3-.88-2.87-.39-4.17-.29-1.11 0-4.34.1-4.21.39-6.36.68-3.52 0-4.79.39-1.96.39-3.23.59-1.86.2-3.82.29-1.47.29-4.5.1-4.7-.49-6.65-.59-2.84-.39-4.79-.29-3.03-.1-3.82.29-1.17 1.47-1.17 1.47Zm-28.93 142.66h19.96l2.61 2.48s-.26 1.3 0 2.09 0 2.74 0 2.74-.13 1.04-.65 1.83-.91 1.04-1.43 1.43-1.43.52-2.22.78-1.83-.52-3.13 0-.91.52-3.13.52-3.26-1.04-4.3-.52-2.22.52-2.87.52-1.04.26-1.7 0-1.83-.65-2.48-1.3-.91-1.17-1.43-1.83-1.04-1.17-1.04-2.22-.91-2.35 0-3.52 1.83-3 1.83-3Zm-21.39-4.96 12.52-8.22 6.64-3.65s6.14-.52 6.8-.52 5.35-.13 6.52 0 5.87-.39 7.3 0 3.78.39 5.87.65 3.91.13 5.22.52 1.43 0 3.78 1.3 2.74 1.17 4.96 2.61 3.39 2.09 4.7 2.74 2.09 1.24 3 1.53 1.43 1.4 2.22 0 1.04-2.58 1.04-4.27.52-1.96 0-3.52-.65-2.22-1.43-3.65-.39-1.17-1.57-2.48-1.43-1.43-3-2.61-2.48-2.28-4.83-3.1-2.87-1.21-4.17-1.6-1.7-.65-4.3-.78-4.83-.39-10.83-.52-9.13-.39-12.52 0-4.43.39-7.57.52-4.83-.13-6.65.26-1.96.65-4.3 1.57-8.22 7.96-8.22 7.96-2.61 5.09-2.61 5.48-1.04 3.91-1.04 3.91v3.78l2.48 2.09Z" class="st1"/></svg>