<?xml version="1.0" encoding="UTF-8"?>
<svg id="_Слой_1" data-name="Слой_1" xmlns="http://www.w3.org/2000/svg" version="1.1" viewBox="0 0 872 514">
  <!-- Generator: Adobe Illustrator 29.8.1, SVG Export Plug-In . SVG Version: 2.1.1 Build 2)  -->
  <defs>
    <style>
      .st0 {
        fill: #e6171c;
      }

      .st1 {
        fill: #d42a35;
      }

      .st2 {
        fill: #d22d37;
      }

      .st3 {
        fill: #fefafb;
      }

      .st4 {
        fill: #d62d35;
      }

      .st5 {
        fill: #cf2b35;
      }

      .st6 {
        fill: #ea333d;
      }

      .st7 {
        fill: #d22b35;
      }

      .st8 {
        fill: #e9252e;
      }

      .st9 {
        fill: #d12c35;
      }

      .st10 {
        fill: #e61116;
      }

      .st11 {
        fill: #d42d36;
      }

      .st12 {
        fill: #d02b34;
      }

      .st13 {
        fill: #e9242c;
      }

      .st14 {
        fill: #cd2c36;
      }

      .st15 {
        fill: #d83139;
      }

      .st16 {
        fill: #eb3541;
      }

      .st17 {
        fill: #e91a21;
      }

      .st18 {
        fill: #d42d35;
      }

      .st19 {
        fill: #da2f38;
      }

      .st20 {
        fill: #d82f38;
      }

      .st21 {
        fill: #e71217;
      }

      .st22 {
        fill: #ea1e24;
      }

      .st23 {
        fill: #fefafa;
      }

      .st24 {
        fill: #eb3642;
      }

      .st25 {
        fill: #d22c36;
      }

      .st26 {
        fill: #d32d35;
      }

      .st27 {
        fill: #d52d34;
      }

      .st28 {
        fill: #e81f27;
      }

      .st29 {
        fill: #e91217;
      }

      .st30 {
        fill: #d02a35;
      }

      .st31 {
        fill: #ec2b35;
      }

      .st32 {
        fill: #cd2d36;
      }

      .st33 {
        fill: #d22e37;
      }

      .st34 {
        fill: #cd2b35;
      }

      .st35 {
        fill: #e9222a;
      }

      .st36 {
        fill: #ea2730;
      }

      .st37 {
        fill: #fefcfc;
      }

      .st38 {
        fill: #e71d26;
      }

      .st39 {
        fill: #eb2c35;
      }

      .st40 {
        fill: #d52d35;
      }

      .st41 {
        fill: #d9313b;
      }

      .st42 {
        fill: #d32c35;
      }

      .st43 {
        fill: #d62f38;
      }

      .st44 {
        fill: #ea232d;
      }

      .st45 {
        fill: #fefdfd;
      }

      .st46 {
        fill: #d42e34;
      }

      .st47 {
        fill: #d02935;
      }

      .st48 {
        fill: #d52c35;
      }

      .st49 {
        fill: #d12c36;
      }

      .st50 {
        fill: #d42c36;
      }

      .st51 {
        fill: #fefbfb;
      }

      .st52 {
        fill: #d22c37;
      }

      .st53 {
        fill: #ea232c;
      }

      .st54 {
        fill: #e8181e;
      }

      .st55 {
        fill: #cd2b32;
      }

      .st56 {
        fill: #d32e37;
      }

      .st57 {
        fill: #d92a35;
      }

      .st58 {
        fill: #d72d36;
      }

      .st59 {
        fill: #e71e26;
      }

      .st60 {
        fill: #e60f14;
      }

      .st61 {
        fill: #ce2e35;
      }

      .st62 {
        fill: #e6090f;
      }

      .st63 {
        fill: #e71a21;
      }

      .st64 {
        fill: #d22d35;
      }

      .st65 {
        fill: #d42e36;
      }

      .st66 {
        fill: #e9232c;
      }

      .st67 {
        fill: #d42c34;
      }

      .st68 {
        fill: #d42d34;
      }

      .st69 {
        fill: #eb353c;
      }

      .st70 {
        fill: #e61319;
      }

      .st71 {
        fill: #e91e26;
      }

      .st72 {
        fill: #eb2731;
      }

      .st73 {
        fill: #db313b;
      }

      .st74 {
        fill: #e71c23;
      }

      .st75 {
        fill: #e9222b;
      }

      .st76 {
        fill: #d52c36;
      }

      .st77 {
        fill: #fdfafa;
      }

      .st78 {
        fill: #cf2c34;
      }
    </style>
  </defs>
  <path class="st31" d="M171.73.08q1.52.02,3.07.04c7.34.09,14.68.21,22.02.34,50.76.88,101.53.74,152.3.69,13.39-.01,26.79-.02,40.18-.03,23.9-.01,47.8-.02,71.7-.04q1.06,0,2.15,0c16.6-.01,33.2-.02,49.8-.04.72,0,1.44,0,2.17,0,2.9,0,5.8,0,8.69,0,1.45,0,2.89,0,4.34,0,1.45,0,2.89,0,4.34,0,24.6-.02,49.21-.03,73.81-.04,14.66,0,29.32-.02,43.98-.03,10.02-.01,20.04-.02,30.07-.02,5.77,0,11.53,0,17.3-.02,5.29-.01,10.58-.01,15.87,0,1.9,0,3.8,0,5.69,0,10.02-.03,19.92.23,29.9.96.9.06,1.8.13,2.73.19,9.69.79,18.9,2.87,28.2,5.13,1.2.28,2.4.57,3.64.86,2.36.56,4.71,1.15,7.05,1.74v1.73c.91.22,1.82.44,2.76.67,16.9,4.91,32.29,15.64,44.29,26.22v1.73h2.14q1.28,1.21,2.71,2.93c.53.63,1.06,1.27,1.6,1.92q.84,1.04,1.7,2.09c.57.71,1.15,1.42,1.74,2.15,18.81,23.58,22.5,47.35,22.18,75.06.71.29,1.41.57,2.14.87h-2.14c-.1,11.09-.19,22.16.6,33.23.66,9.49.15,18.88-.6,28.35.71.29,1.41.57,2.14.87h-2.14c.19.47.37.93.56,1.42.62,2.51.35,4.6.04,7.15-.67,6.12-.7,12.19-.6,18.32.71.29,1.41.57,2.14.87h-3.21c.27,2.03.63,4.06,1.07,6.07.71.29,1.41.57,2.14.87h-2.14c-.02,13.04-.04,26.09-.06,39.13,0,6.06-.01,12.11-.03,18.17-.01,5.84-.02,11.69-.02,17.53,0,2.23,0,4.46-.01,6.69,0,3.12,0,6.24,0,9.36,0,.93,0,1.85-.01,2.8,0,.85,0,1.71,0,2.58,0,.74,0,1.48,0,2.24q.07,2.15.7,4.41c.59,2.4.09,4-.57,6.37-.31,5.03-.03,9.79,1.07,14.75-.35.57-.71,1.15-1.07,1.73-.09,1.7-.1,3.4-.09,5.1,0,1.07.01,2.15.02,3.25q0,.86.02,1.75c.02,1.82.03,3.64.04,5.46.03,5.18.06,10.35.11,15.53q.34,37.44-4.98,51.76-.35,1.02-.72,2.06c-.43,1.23-.86,2.46-1.31,3.68-.39,1.11-.74,2.23-1.06,3.36-5.35,15.87-21.51,31.37-35.88,42.52h-2.14v1.73c-2.28,1.55-4.55,2.98-6.95,4.39-.72.42-1.44.85-2.18,1.28-21.05,12.15-45.1,20.28-71.03,21.87q-2.24.11-4.3,1.08c-2.63.08-5.22.11-7.85.1q-1.23,0-2.49,0c-2.79,0-5.57,0-8.36-.02-2,0-4,0-6,0-26.1-.05-52.21-.27-78.31-.47-6.86-.05-13.73-.11-20.59-.16-13.33-.1-26.67-.2-40-.31v1.73c-.71-.29-1.41-.57-2.14-.87-2.36-.08-4.72-.11-7.08-.11-.74,0-1.48,0-2.24,0-2.5,0-5.01,0-7.51,0-1.8,0-3.61,0-5.41,0-4.98,0-9.95,0-14.93,0-5.36,0-10.72,0-16.08-.01-9.3-.01-18.6-.02-27.9-.02-14.71,0-29.42-.03-44.14-.05-5.03,0-10.07-.01-15.1-.02-1.26,0-2.52,0-3.81,0-14.33-.02-28.67-.03-43-.05-1.31,0-2.62,0-3.97,0-21.2-.02-42.4-.04-63.6-.05-21.77-.02-43.55-.04-65.32-.07-13.42-.02-26.84-.03-40.27-.03-9.22,0-18.43-.01-27.65-.03-5.31-.01-10.62-.02-15.93-.01-44.19.04-86.14-3.06-119.81-28.94-2.11-1.62-4.29-3.08-6.55-4.55-18.45-13.1-30.89-33.23-36.65-52.29-.28-.72-.56-1.45-.84-2.19-.71-.29-1.41-.57-2.14-.87q-.67-1.79-1.07-3.47h2.14c-.14-.62-.28-1.23-.43-1.86-3.77-18.42-2.88-37.37-2.91-55.98,0-.98,0-1.97,0-2.98-.02-10.7.03-21.33,1.21-31.99H.53l1.07-1.73c.13-1.71.19-3.42.22-5.13q.03-1.61.06-3.26c.02-1.18.04-2.36.05-3.54.02-1.2.04-2.41.07-3.61.06-3.17.11-6.34.16-9.51.05-3.23.11-6.47.17-9.7.12-6.34.22-12.69.33-19.03-.71-.29-1.41-.57-2.14-.87h2.14c-.03-.98-.06-1.97-.1-2.98-.12-3.65-.24-7.3-.36-10.96-.05-1.58-.1-3.16-.16-4.74-.07-2.27-.15-4.54-.22-6.81-.02-.71-.05-1.42-.07-2.14-.15-4.54-.07-8.65.91-13.13-.71-.29-1.41-.57-2.14-.87h2.14q-.01-.84-.02-1.69c-.18-13.64-.35-27.29-.51-40.93-.08-6.6-.15-13.2-.24-19.8-.08-5.76-.15-11.52-.21-17.28-.03-3.04-.07-6.08-.11-9.13-.19-12.73-.19-25.22,2.17-37.83l-2.14-.87h2.14c.03-.65.06-1.31.08-1.98,1.5-22.84,13.71-43.37,31.99-60.48.92-.94,1.83-1.88,2.74-2.82,13.89-12.71,33.26-22.69,52.86-28.41,1.23-.36,2.45-.73,3.71-1.1C119.74.12,146.02-.24,171.73.08Z"/>
  <path class="st45" d="M573.14,200.85c5.61.39,11.14,1.05,16.71,1.73,15.36,1.78,30.76,1.94,46.25,1.95,1.01,0,2.02,0,3.06,0,15.15,0,29.88-.56,44.86-2.51,3.67-.47,7.34-.82,11.03-1.18q.04,1.52.08,3.08c.45,11.49,2.32,20.63,12.01,29.56q2.81,2.24,6.75,3.39c2.53,1.15,3.44,1.66,4.25,3.95.19,2.29.18,4.52.1,6.82.09,7.52,1.01,13.85,4.61,20.87.4.78.8,1.56,1.21,2.37,4.7,8.32,11.78,14.54,21.85,18.72,3.34.77,5.55.98,9.02.6,1.41-.68,2.79-1.41,4.14-2.17,4.62-2.52,7.44-2.84,12.97-2.17,2.6,1.62,3.89,2.85,5.35,5.2,1.11,11.55-1.4,20.73-9.62,30.36q-5.08-.76-7.48-1.73c-1.47-.06-2.94-.07-4.41-.05q-2.05.03-4.14.05c-2.46,3.32-3.1,6.94-4.01,10.68-4.33,16.61-13.76,31.74-27,44.84-.76.76-1.52,1.52-2.3,2.3-8.28,7.88-17.66,13.56-29.25,17.76-.73.27-1.46.53-2.21.81-2.98,1.02-5.19,1.75-8.45,1.41-.54-.19-1.08-.39-1.64-.59.57-.37,1.14-.74,1.72-1.11,4.98-3.36,8.47-6.2,11.11-11.03q.36-2.42,0-4.34c-3.56.5-5.02,1.26-7.35,3.47-13.01,10.96-31.95,16.89-50.39,18.22-18.21.23-33.4-3.58-46.81-13.64q-6.66-5.53-6.66-8.05c-.6-.13-1.19-.25-1.8-.39-11.85-2.83-19.99-9.04-26.07-17.72-11.31-17.26-16.77-36.46-9.55-55.63,1.68-3.79,3.54-7.52,5.49-11.23.36-.69.73-1.39,1.1-2.1.33-.61.65-1.22.99-1.84,2.41-5.36,3.37-10.09,3.37-15.79.01-1.27.03-2.53.04-3.8,0-.65.01-1.31.02-1.98.14-12.57,1.34-24.08,6.1-36.12.25-.66.5-1.32.76-2,1.74-4.58,3.66-9.11,5.66-13.62.33-.75.66-1.49,1-2.26q6.18-13.97,7.56-15.09Z"/>
  <path class="st45" d="M640.98,143.39c2.69,0,5.39-.04,8.08-.06,16.11-.09,31.96,1.41,47.45,5.15.92.22,1.83.44,2.78.66,16.52,4.1,31.99,9.67,46.01,17.88.62.36,1.24.72,1.87,1.09q16.87,9.89,20.58,17.13v3.47l2.14-.87c12.63-.84,22.34.71,32.27,7.21,7.11,5.37,10.99,11.26,11.9,19.1.37,8.97-1.71,15.4-8.89,22.27q-.38,2.61,1.65,3.94c.74.47,1.47.94,2.23,1.43,8.78,6.03,13.58,12.27,14.6,21.68.37,10.73-3.09,18.71-11.83,26.76-6.5,5.47-14.05,11.61-22.69,14.73.05-.83.1-1.66.15-2.51.27-7.77.41-15.54-6.27-21.75-5.54-4.03-10.22-4.65-17.55-4.62-4.52.38-7.82,1.8-11.62,3.73-.71.29-1.41.57-2.14.87-11.83-5.35-17.71-12.97-21.39-23.42-2.37-7.86-2.19-16.1,2.14-23.42-.93-.21-1.85-.43-2.81-.65-7.81-2.35-14.63-6.73-18.93-12.55-4.07-7.19-4.5-15.14-1.12-22.58,1.7-2.94,3.66-5.6,5.91-8.28.57-.69,1.15-1.37,1.73-2.08.43-.52.87-1.03,1.31-1.56-.61.14-1.21.29-1.84.44-13.91,3.27-27.63,5.89-42,7.37q-1.03.11-2.07.23c-7.06.73-14.07.78-21.19.78q-1.94,0-3.93,0c-2.74,0-5.47,0-8.21,0-4.13,0-8.26.02-12.39.03-17.25.03-34.11-.2-50.93-3.66-.75-.14-1.5-.29-2.27-.43-3.64-.72-6.97-1.51-10.23-3.04q-.31,1.19-.63,2.4c-1.99,7.11-4.59,13.85-7.85,20.65-.37.78-.75,1.55-1.13,2.35-.73,1.53-1.47,3.05-2.2,4.58-7.1,14.92-10.44,29.55-11.17,45.5-.27,5.83-.73,11.56-1.6,17.35-9.85-.67-16.27-4.25-23.75-9.31-2.15-1.42-4.28-2.76-6.52-4.07-9.11-5.38-15.83-10.52-18.91-19.58-1.03-8.74-.48-16.42,6.04-23.63,3.33-3.21,6.88-5.99,11.07-8.46-.82-.86-1.63-1.72-2.47-2.6-6.32-7.29-7.37-14.35-5.62-23.14,2.49-8.05,9.33-14.71,17.71-19.37,5.22-2.31,8.52-2.66,14.44-2.33,10.1.5,15.05-1.73,23.03-6.52,24.67-14.68,57.35-18.2,87.05-18.25Z"/>
  <path class="st3" d="M642.64,68.13c3.78,1.43,5.14,2.36,7.48,5.2q.09,1.68-.2,3.47c-.08.59-.16,1.18-.25,1.79q-.62,1.68-2.28,2.98t-1.82,3c.86,6.08,3.17,11.23,8.75,15.51,7.23,4.57,13.34,6.22,22.53,5.35,7.73-1.61,12.57-5.19,17.11-10.41q1.81-2.38,1.8-5.04c-.24-.63-.49-1.25-.74-1.9-1.26-3.96-1.51-5.43,1-9.05q3.78-2.57,7.62-2.66,5.85.6,8.49,2.17c2.67,3.25,2.71,4.82,2.14,8.67-.88.68-1.76,1.36-2.67,2.06-2.86,2.44-3.1,2.8-3.21,5.96.55,6.93,3.14,12.3,9.07,17.37,5.55,3.87,11.69,5.58,18.99,5.24,8.12-.9,12.78-2.85,18.12-7.96,2.43-3.21,2.61-5.55,1.8-9.22q-.4-3.04.87-5.48c2.09-2.04,3.07-2.92,6.22-3.63,4.43.06,6.71.35,10.16,2.66,1.88,2.99,1.99,4.64,1.27,7.89-1.14,2.47-3.54,3.51-6.08,5.07-3.31,6.13-3.51,13.94-.87,20.28,2.37,4.32,5.45,7.4,10.43,9.98,5.18,1.54,8.13,1.56,13.17-.33,3.44-2.54,3.73-3.9,4.58-7.45.8-2.63,1.98-3.69,4.78-5.12,4.27-.68,7.44-.52,11.23,1.25,2.38,3.3,2.45,6.3,1.6,10.03-1.97,2.28-3.07,3.28-6.47,3.81-.69.18-1.38.35-2.09.53-1.27,2.26-2.22,4.34-3.11,6.7-.27.68-.54,1.36-.82,2.05-.87,2.17-1.71,4.35-2.55,6.53-.85,2.16-1.7,4.32-2.56,6.48-.53,1.34-1.06,2.69-1.58,4.03-1.54,3.95-3.33,7.72-5.42,11.5q-2.74.38-6.42,0-1.53-1.02-3.14-2.44c-28.58-25.1-77.69-39-118.76-40.93-5.48-.14-10.96-.17-16.44-.16q-1.14,0-2.29,0c-35.22.1-70.18,5.74-99.96,21.85h-3.21c-2.8-8.21-4.95-16.43-6.68-24.83-.19-.89-.37-1.79-.57-2.71-.84-4.16-1.55-8.13-1.3-12.36q-1.46-.08-2.94-.16-3.48-.7-6.08-2.55c-2.22-3.32-1.89-4.98-.6-8.57q1.67-2.11,4.28-3.47c5.26-.61,7.3-.73,11.63,1.79,2.54,2.85,3.3,5.25,4.41,8.62,2.47,3.01,4.46,4.7,8.55,6.07,4.95.63,8.68.39,13.17-1.46,7.92-5.53,11.6-12.72,12.5-21.09-1.06-.29-2.12-.57-3.21-.87-2.44-2.81-2.65-5.31-2.14-8.67,2.23-3.25,3.52-4.16,7.95-5.2,4.21,0,5.9.5,9.16,2.6,2,3.24,1.5,7.38.36,10.82-.59,3.55,1.57,5.39,4.05,8.18,4.24,3.85,8.56,5.08,14.77,5.72,7.3-.37,13.12-2.82,18.04-7.16,5.6-5.69,8.28-11.3,9.82-18.43l-3.21-.87c-1.73-2.8-1.69-5.65-1.07-8.67,3.63-4.29,6.56-5.06,12.83-4.34Z"/>
  <path class="st37" d="M410.4,222.37c8.47,3.73,13.12,9.33,15.98,16.7,5.87,16.63,5.4,38.86-4.81,54.27-4.52,5.47-10.74,9.35-18.57,11.19-10.82,1.44-23.51,1.92-33.02-3.06-8.86-5.35-12.76-12.9-14.56-21.51-.78-5.24-.72-10.46-.68-15.73,0-1.11-.02-2.22-.03-3.37.03-12.66,1.58-25.43,13.12-34.86,12.41-7.22,28.37-8.69,42.56-3.64Z"/>
  <path class="st37" d="M67.36,220.8c2.92-.24,5.57-.32,8.49-.27.78,0,1.56,0,2.36,0,4.06.03,6.02.15,9.47,2.01,1.26,3.36,1.27,6.77,1.41,10.26.04,1.12.09,2.24.14,3.4.04,1.18.09,2.35.13,3.53.05,1.19.09,2.38.14,3.58.11,2.91.22,5.82.33,8.73,8.12.29,16.23.57,24.59.87.05-2.17.1-4.34.16-6.58.06-2.1.12-4.2.18-6.3.04-1.46.08-2.92.11-4.38.05-2.1.11-4.19.18-6.29q.02-.98.04-1.99.16-4.63,2.54-6.56c2.7-.2,5.25-.28,7.95-.27.73-.01,1.46-.03,2.21-.04q5.36,0,7.69,1.43c2.43,2.59,1.82,5.79,1.78,8.92,0,.76,0,1.52,0,2.3,0,2.51-.02,5.02-.04,7.54,0,1.74,0,3.48,0,5.23,0,3.65-.02,7.31-.04,10.96-.03,4.69-.04,9.38-.05,14.07,0,3.6-.01,7.2-.03,10.79,0,1.73-.01,3.46-.02,5.19,0,2.41-.02,4.83-.04,7.24,0,.72,0,1.44,0,2.18q-.05,4.94-1.24,6.88c-3.75,1.01-6.81,1.01-10.76,1.03-1.34.01-2.67.02-4.05.04q-3.37-.2-5.51-1.93c-.26-2.36-.4-4.64-.44-7-.02-.69-.04-1.38-.06-2.09-.06-2.21-.11-4.42-.16-6.63-.04-1.5-.08-2.99-.13-4.49-.1-3.67-.19-7.34-.28-11.02h-25.66c-.05,2.17-.1,4.34-.16,6.58-.06,2.1-.12,4.2-.18,6.3-.04,1.46-.08,2.92-.11,4.38-.05,2.1-.11,4.19-.18,6.29q-.02.98-.04,1.99-.16,4.63-2.54,6.56c-3.07.17-6.02.24-9.09.22q-1.26.01-2.54.02-6.27-.02-8.68-1.97c-.21-2.47-.29-4.85-.28-7.32q0-1.14-.01-2.3c0-2.51,0-5.03,0-7.54,0-1.74,0-3.48,0-5.22,0-3.65,0-7.31.01-10.96.01-4.69,0-9.38,0-14.07,0-3.6,0-7.2,0-10.79,0-1.73,0-3.46,0-5.19,0-2.42,0-4.83.01-7.25,0-.72,0-1.44-.01-2.18.03-3.36.08-5,2.43-7.86Z"/>
  <path class="st44" d="M597.93,296.43q1.94.7,3.01,1.57c.5,4.53.01,7.95-2.14,12.14q-.1,2.33,1.07,4.34c7.11,3.06,16.87,2.59,24.55,1.14,5.39-1.61,9.3-3.76,13.23-7.15q1.78-.93,4.24-.86c3.64,1,6.67,2.5,9.84,4.21q.98.52,1.97,1.05c14.45,7.81,29.62,16.53,35.99,30.23q.38,4.59-1.07,6.94-2.41-.05-5.35-.87c-2.23-2.31-4.28-4.8-4.28-7.81q-3.18.51-6.42,1.73-1.47,2.19-2.14,4.83c-3.57,9.87-11.16,17.4-22.21,22.59-12.56,4.86-25.29,6.25-38.74,2.94-10.92-3.77-18.45-9.41-23.47-18.14-1.62-3.86-1.72-7.33-1.13-11.35-.62-.15-1.24-.3-1.88-.45-5.34-1.34-9.91-2.62-14.16-5.62q-.47-2.33,0-4.34.53-.43,1.07-.87c4.24.29,7.94.96,11.96,2.06,15.27,3.72,30.69,4.28,46.51,4.34.78,0,1.56.01,2.37.02,10.35.07,20.11-.66,30.27-2.31,3.85-.61,7.66-1.09,11.54-1.51-6.06-8.71-14.5-13.44-25.66-17.35-1.01.79-2.03,1.57-3.07,2.39-10.31,7.19-23.45,7.78-36.45,7.32-7.69-.56-13.93-3.62-19.28-7.97-2.73-3.72-2.94-7.04-2.14-11.28q5.63-12.42,11.96-11.98Z"/>
  <path class="st45" d="M161.42,220.48c1.08,0,2.16-.01,3.27-.02,1.16,0,2.33.02,3.52.02,1.2,0,2.39,0,3.62,0,2.53,0,5.06.01,7.59.02,3.87.02,7.75.02,11.62.01,2.46,0,4.91.01,7.37.02,1.16,0,2.32,0,3.52,0,1.08,0,2.16.02,3.28.03.95,0,1.9,0,2.88.01,2.77.24,4.5.75,6.84,1.96,1.3,2.12,1.28,3.6,1.34,5.96.03.75.06,1.5.08,2.27-.45,2.76-1.06,3.72-3.56,5.65-2.97.37-5.53.52-8.5.53-.83.01-1.65.03-2.5.04-2.64.04-5.27.06-7.91.08-1.79.02-3.58.05-5.37.08-4.38.07-8.76.1-13.15.14v15.61c2.21.04,4.43.08,6.71.13,2.14.05,4.28.1,6.42.15,1.49.03,2.98.06,4.47.09,2.14.04,4.28.09,6.42.14,1.29.03,2.58.05,3.9.08q3.09.28,5.23,2.01.28,2.35.27,5.15,0,1.38.02,2.79-.28,2.47-2.42,5.07-3.09.38-6.99.44c-1.39.03-2.78.06-4.22.09-1.48.02-2.95.04-4.43.06-1.48.03-2.97.06-4.45.09-3.64.07-7.28.13-10.92.18v18.22c2.75.04,5.51.08,8.35.13,2.66.05,5.32.1,7.98.15,1.85.03,3.7.06,5.56.09,2.66.04,5.32.09,7.98.14.83.01,1.66.02,2.52.03q5.87.13,8.25,2.06.32,2.32.33,5.1c.02.91.04,1.82.05,2.76-.44,2.92-1.09,3.94-3.6,6.02q-2.52.43-5.52.42-1.69,0-3.41.02t-3.68-.04c-1.25,0-2.49,0-3.77,0-2.64,0-5.27-.02-7.91-.04-4.04-.03-8.08-.04-12.12-.04-2.56,0-5.12-.02-7.67-.03-1.21,0-2.43,0-3.68,0-1.12-.01-2.25-.02-3.41-.03q-1.48,0-3-.02-2.52-.23-5.72-1.97c-.32-2.53-.44-4.87-.42-7.4,0-.77-.01-1.53-.02-2.32-.01-2.54,0-5.08,0-7.62,0-1.76,0-3.52,0-5.28,0-3.7,0-7.39.02-11.08.02-4.74,0-9.48-.01-14.22-.01-3.64,0-7.28,0-10.91,0-1.75,0-3.5,0-5.24,0-2.44,0-4.88.02-7.33,0-.73-.01-1.45-.02-2.2q.07-4.94,1.91-6.8c2.39-1.54,4-1.44,7.03-1.44Z"/>
  <path class="st3" d="M296.19,220.8c2.93-.26,5.56-.36,8.49-.33.78-.01,1.56-.02,2.36-.03q5.61.03,8.09,1.29c2.07,2.52,1.8,5.02,1.74,7.94q0,.95,0,1.92c0,2.1-.03,4.2-.05,6.29,0,1.45-.01,2.91-.01,4.36-.01,3.83-.04,7.66-.08,11.49-.03,3.91-.05,7.81-.06,11.72-.03,7.67-.09,15.33-.16,23,.92-.02,1.85-.05,2.8-.07,3.43-.07,6.85-.13,10.28-.17,1.48-.02,2.96-.05,4.45-.09,2.13-.05,4.26-.07,6.39-.1,1.28-.02,2.56-.05,3.89-.07q3.21.49,5.23,2.56c1.19,2.27,1.62,3.78,1.59,6.23q.01.97.03,1.96c-.55,2.44-1.56,3.56-3.63,5.36q-2.31.45-5.02.46-1.53.02-3.08.04c-1.1,0-2.19,0-3.32-.01-1.13,0-2.25.01-3.42.02-2.38,0-4.77,0-7.15,0-3.65-.01-7.31.02-10.96.05-2.31,0-4.63,0-6.94,0-1.1.01-2.19.02-3.32.03q-7.44-.08-10.4-2.32c-1.18-3.38-1.33-6.55-1.26-10.03,0-.74,0-1.48,0-2.24,0-2.43.04-4.87.08-7.3.01-1.69.03-3.39.04-5.08.05-5.37.14-10.75.23-16.12.03-1.83.06-3.66.08-5.49.07-4.43.16-8.85.26-13.28.04-1.69.07-3.38.11-5.07.05-2.36.11-4.71.18-7.07.01-.7.02-1.4.04-2.12.11-3.3.23-4.93,2.54-7.74Z"/>
  <path class="st51" d="M240.19,220.48q1.09,0,2.21,0,5.38.08,7.82,2.06c.2,2.12.27,4.13.24,6.25,0,.64,0,1.29,0,1.95,0,2.13-.02,4.26-.03,6.39,0,1.48,0,2.95,0,4.43,0,3.89-.03,7.77-.05,11.66-.02,3.97-.03,7.93-.04,11.9-.02,7.78-.06,15.57-.1,23.35.93,0,1.86-.02,2.81-.03,3.44-.03,6.88-.05,10.32-.07,1.49,0,2.98-.02,4.47-.04,2.14-.02,4.28-.03,6.42-.04q1.93-.01,3.9-.03,3.09.2,5.23,1.93.32,2.54.33,5.58c.02,1,.04,2,.05,3.03q-.39,2.66-1.71,4.11c-2.4,1.47-3.72,1.48-6.71,1.48-.97,0-1.95.01-2.95.02-1.05,0-2.1-.02-3.18-.02-1.08,0-2.16,0-3.27,0-2.28,0-4.57-.01-6.85-.02-3.5-.02-7-.02-10.5-.01-2.22,0-4.43-.01-6.65-.02-1.05,0-2.1,0-3.18,0q-1.46-.01-2.95-.03-1.29,0-2.6-.01-2.23-.23-5.44-1.96c-.33-2.5-.45-4.81-.43-7.31,0-.76-.01-1.51-.02-2.29-.02-2.51-.02-5.02,0-7.53,0-1.74-.01-3.48-.02-5.22,0-3.65,0-7.3,0-10.95.01-4.68,0-9.36-.04-14.04-.02-3.59-.02-7.19-.01-10.78,0-1.73,0-3.45-.02-5.18-.02-2.41,0-4.83.01-7.24-.01-.71-.02-1.43-.03-2.17.05-3.11.23-4.99,2.5-7.55,3.38-1.86,6.56-1.73,10.5-1.61Z"/>
  <path class="st72" d="M399.04,236.42c4.99,2.88,6.79,6.57,7.92,11.37,1.52,11.73,2.96,27.28-4.77,37.81-3.54,3.12-6.04,4.39-11.23,5.1-5.38-.68-7.98-2.3-11.36-5.69-3.7-6.48-3.7-13.27-3.61-20.28-.01-.99-.02-1.98-.04-3,.04-8.46.81-17.79,7.92-24.43,4.55-2.8,9.97-2.19,15.17-.87Z"/>
  <path class="st51" d="M444.82,220.8c2.94-.22,5.62-.28,8.55-.22q1.18,0,2.39.01,5.83.07,8.3,1.07.2,35.54-.4,46.79c-.03.72-.07,1.43-.1,2.17q-.3,4.61-2.71,6.56-2.87.26-6.28.27c-1.12.01-2.24.03-3.4.04-3.63-.36-4.87-.82-7.43-2.92q-.58-2.47-.65-5.5c-.03-1.13-.07-2.25-.11-3.41-.02-1.22-.03-2.44-.05-3.67-.03-1.25-.06-2.49-.09-3.74-.07-3.19-.12-6.38-.15-9.57-.02-1.81-.05-3.62-.09-5.43-.06-3.24-.1-6.48-.13-9.72-.01-.99-.03-1.97-.04-2.99,0-.91,0-1.81,0-2.75,0-.79,0-1.58-.01-2.4q.26-2,2.4-4.61Z"/>
  <path class="st53" d="M597.93,296.43q1.94.7,3.01,1.57c.5,4.53.01,7.95-2.14,12.14q-.1,2.33,1.07,4.34c7.11,3.06,16.87,2.59,24.55,1.14,5.39-1.61,9.3-3.76,13.23-7.15q1.78-.93,4.22-.87c3.74,1.03,6.86,2.61,10.13,4.38.65.35,1.31.7,1.98,1.07,1.31.71,2.62,1.43,3.93,2.15,1.64.9,3.3,1.79,4.95,2.67,2.43,1.37,4.55,2.62,6.51,4.42q.4,3.25,0,6.07,1.45,1.69,3.21,2.6-.53.86-1.07,1.73c-.7-.63-1.4-1.26-2.12-1.9-6.76-5.87-13.18-9.73-22.47-12.84-1.01.79-2.03,1.57-3.07,2.39-10.31,7.19-23.45,7.78-36.45,7.32-7.69-.56-13.93-3.62-19.28-7.97-2.73-3.72-2.94-7.04-2.14-11.28q5.63-12.42,11.96-11.98Z"/>
  <path class="st23" d="M595.59,345.71c.83.12,1.67.23,2.52.35,20.8,2.66,40.71,2.15,61.63.52-2.23,6.3-6.55,10.84-13.37,14.41-9.76,4.09-19.48,6.16-30.37,4.07-8.32-2.22-14.51-5.26-18.75-11.6-1.61-2.68-1.83-4.78-1.67-7.75Z"/>
  <path class="st57" d="M122.97,510.53h628.74v.87c-.75.05-1.49.11-2.26.16-.97.07-1.95.15-2.95.22q-1.45.11-2.93.21-2.56.16-4.69,1.14c-2.63.08-5.22.11-7.85.1q-1.23,0-2.49,0c-2.79,0-5.57,0-8.36-.02-2,0-4,0-6,0-26.1-.05-52.21-.27-78.31-.47-6.86-.05-13.73-.11-20.59-.16-13.33-.1-26.67-.2-40-.31v1.73c-.71-.29-1.41-.57-2.14-.87-2.37-.09-4.74-.11-7.12-.12q-1.12,0-2.25,0c-2.52,0-5.03,0-7.55,0-1.81,0-3.62,0-5.44-.01-5-.01-10-.01-15-.02-5.38,0-10.77-.02-16.15-.02-9.34-.02-18.68-.03-28.01-.04-13.51-.02-27.02-.04-40.53-.06-21.93-.04-43.87-.07-65.8-.1-1.31,0-2.63,0-3.98,0-9.32-.01-18.65-.03-27.97-.04-10.64-.02-21.27-.03-31.91-.05q-1.96,0-3.97,0c-21.84-.03-43.68-.07-65.52-.1-13.48-.02-26.95-.04-40.43-.06-9.24-.01-18.47-.02-27.71-.04-5.33,0-10.66-.02-15.99-.02-4.88,0-9.76-.01-14.65-.02-1.76,0-3.53,0-5.29,0-8.36,0-16.6-.04-24.89-1v-.87Z"/>
  <path class="st77" d="M761.33,335.09q3.21.22,5.35,1.95c.68,2.32,1.25,4.59,1.74,6.94.14.67.27,1.33.42,2.02q2.49,12.65-1.08,17.18c-4.43,2.25-6.59,2.16-11.76,1.63-3.46-1.51-4.09-2.14-5.35-5.2-.97-8.4.28-15.14,5.35-22.55q2.14-1.73,5.35-1.95Z"/>
  <path class="st8" d="M669.37,267.64c3.79,2.41,6.12,5.05,6.74,8.96.03,4.92-.41,8.45-3.53,12.72-2.91,1.98-4.82,2.53-8.55,3.04-4.35-.59-5.8-2.04-8.55-4.77-3.26-4.27-2.79-9.03-2.14-13.88,1.3-2.84,3.28-4.56,6.22-6.45,3.59-.75,6.25-.34,9.82.38Z"/>
  <path class="st36" d="M585.97,265.04c3.79,2.66,6.22,4.42,6.71,8.53q.33,9-2.83,12.08c-2.97,2.07-4.07,2.72-7.89,3.14-4.73-.44-6.6-1.93-9.89-4.66-2.78-3.69-2.88-7.94-2.14-12.14,3.52-5.71,8.06-9.1,16.04-6.94Z"/>
  <path class="st37" d="M461.19,285.26q2.87,1.46,5.01,4.07c.74,4.49.9,8.32-2,12.25-4.22,3.02-7.81,2.78-13.28,2.74-3.87-.34-5.73-1.34-8.24-3.72-1.45-3.53-1.77-6.72-1.07-10.41,4.23-6.41,11.54-7.52,19.58-4.93Z"/>
  <path class="st66" d="M684.47,247.53c2.74,2.6,3,4.6,3.07,7.97-.71.57-1.41,1.15-2.14,1.73-4.02-.35-7.59-1.51-11.36-2.66-8.23-2.26-15.48-2.03-23.99-1.14q-2.08.16-4.21.33-2.14-1.73-2.47-3.85c.4-2.68,1.02-3.15,3.54-4.83,12.89-4.74,25.6-3.19,37.56,2.44Z"/>
  <path class="st75" d="M595.59,242.49q2.81,1.57,4.28,3.47.27,2.82,0,5.2c-1.35.02-2.69.04-4.08.05-.76.01-1.51.02-2.29.03q-2.18-.08-5.39-.95c-8.54-.6-15.35-.03-23.16,2.88q-2.5.59-4.97-.18-.9-.48-1.81-.97,0-2.77,1.07-6.07c10.15-7.58,24.22-7.66,36.36-3.47Z"/>
  <path class="st66" d="M700.38,108.03c2.89,1.56,4.86,2.68,6.42,5.2.57,4.27.8,7.61-2,11.33-2.94,2.18-3.93,2.51-7.95,2.82-4.56-.31-6.1-1.16-9.29-3.74-1.72-2.79-1.58-5.65-1.07-8.67,3.41-5.15,6.48-7.66,13.9-6.94Z"/>
  <path class="st75" d="M638.43,102.29q4.21.54,6.82,2.11c3.12,3.54,3.31,7.22,2.74,11.44-1.72,3.14-3.66,5.39-7.48,6.94-4.32,0-6.65-.35-10.09-2.49-2.51-4.08-2.58-7.78-1.67-12.25,1.89-3.69,4.75-5.5,9.69-5.75Z"/>
  <path class="st69" d="M151.84,222.54h1.07v80.67c-1.06-.57-2.12-1.15-3.21-1.73-.31-2.49-.4-4.79-.36-7.28,0-.75,0-1.51,0-2.28,0-2.5.03-4.99.05-7.49,0-1.73.01-3.46.01-5.19.01-4.55.04-9.11.08-13.66.03-4.65.05-9.29.06-13.94.03-9.12.09-18.24.16-27.36h2.14v-1.73Z"/>
  <path class="st35" d="M586.57,111.39c4.42,1.17,5.77,1.99,7.95,5.31.89,3.69.47,6.2-1.67,9.54q-2.61,1.73-6.35,2.22c-4.24-.55-5.45-1.24-8.02-3.96-1.73-2.8-1.69-5.65-1.07-8.67,2.81-3.39,4.08-4.3,9.16-4.45Z"/>
  <path class="st75" d="M757.05,126.25q2.14,1.3,3.21,3.47c.29,4.05-.16,6.9-3.34,10.08-4.05,1.57-6.28,1.29-10.56.33q-2.07-.92-3.21-2.6c-.57-4.13-.76-5.97,2-9.49,4.05-3.19,6.47-2.79,11.9-1.79Z"/>
  <path class="st28" d="M669.37,114.97q2,1.03,3.21,2.6c.46,2.48.43,3.77-1.2,5.91-2.94,1.51-5.02,1.38-8.42,1.03q-2-1.03-3.21-2.6c-.46-2.48-.43-3.77,1.2-5.91,2.94-1.51,5.02-1.38,8.42-1.03Z"/>
  <path class="st39" d="M721.63,124.35q3.34.16,6.55,1.9.4,3.04,0,6.07-3.21,1.73-6.48,1.52-3.14-.65-5.28-2.39.74-6.87,5.21-7.1Z"/>
  <path class="st13" d="M542.13,130.59q3.01-.27,6.42,0,2.07,1.79,3.21,4.34-.33,3.31-1.07,6.07-1.8.7-4.28.87-3.01-1.68-5.35-4.34c-.14-2.51.39-4.45,1.07-6.94Z"/>
  <path class="st71" d="M611.63,117.36q3.21.22,5.35,1.95-.62,5.71-2.14,6.94-3.68.22-7.48,0-2.14-2.6-1.87-4.83c1.19-3.14,2.08-3.79,6.15-4.07Z"/>
  <path class="st17" d="M657.61,316.22c4.84,1.27,8.24,3.09,11.76,6.07q.2,3.14,0,6.07,1.45,1.69,3.21,2.6l-1.07,1.73c-.75-.64-1.5-1.28-2.27-1.93-5.63-4.73-10.87-8.76-18.04-11.94l2.14-.87c2.17.81,4.31,1.68,6.42,2.6-.71-1.43-1.41-2.86-2.14-4.34Z"/>
  <path class="st59" d="M786.06,153.36q2,.65,3.07,1.52c.33,3.01.41,4.67-1.6,7.26-.53.47-1.06.93-1.6,1.41q-5.21-.76-6.42-1.73.49-5.35,2.47-7.81,1.8-.87,4.08-.65Z"/>
  <path class="st38" d="M772.02,145.33l2.14,1.73q-.2,2.6-1.07,5.2-3.21,1.73-6.01,1.46-2.54-.6-3.61-1.46c-.32-2.44-.41-3.83,1.27-5.91,2.59-1.38,4.24-1.35,7.28-1.03Z"/>
  <path class="st28" d="M567.25,126.9q2.67.22,4.81,1.95.27,2.17,0,4.34c-.71.57-1.41,1.15-2.14,1.73q-5.95-.49-7.48-1.73-.2-2.11,0-4.34,2.14-1.73,4.81-1.95Z"/>
  <path class="st21" d="M718.56,186.1q-1.87,4.23-4.28,5.2c.35-.86.71-1.72,1.07-2.6-4.69.83-9.36,1.68-14.01,2.62-.78.16-1.57.31-2.37.48-1.56.31-3.13.63-4.69.96-5.22,1.04-9.9,1.29-15.28,1.15v-.87c.69-.12,1.39-.24,2.1-.36,3.2-.54,6.39-1.1,9.59-1.65,1.09-.19,2.18-.37,3.31-.56,5.9-1.02,11.57-2.19,17.24-3.87,2.49-.64,4.73-.71,7.32-.5Z"/>
  <path class="st74" d="M684.34,337.04c3.64,2.69,5.25,4.74,5.55,8.78q-.2,2.49-1.27,4.23-2.47-.11-5.35-.87-2-2.55-3.21-5.2l1.07-1.73c.49.84.97,1.68,1.47,2.55q1.37,2.72,3.88,3.52v-1.73h-2.14c-.35-.86-.71-1.72-1.07-2.6.35-.55.71-1.11,1.07-1.68q1.31-1.76.67-3.74c-.22-.5-.44-1-.67-1.52Z"/>
  <path class="st60" d="M688.94,379.74c.6.22,1.2.45,1.82.67-.46,4.71-1.74,7.55-5.35,11.28l-2.14.87c.35-2.29.71-4.58,1.07-6.94h3.21c.35-1.43.71-2.86,1.07-4.34-.58.44-1.16.88-1.76,1.33-.76.56-1.53,1.13-2.32,1.71q-1.14.85-2.29,1.71-2.18,1.33-5.39,1.33c1.5-1.33,3.02-2.65,4.54-3.96q1.27-1.1,2.56-2.23,2.52-1.62,4.98-1.43Z"/>
  <path class="st70" d="M575.27,265.91h2.14c-.35,1.15-.71,2.29-1.07,3.47h-3.21c-.12,1.93-.2,3.87-.27,5.8-.05,1.08-.1,2.15-.15,3.26.59,4.36,3.15,6.16,6.83,9.15-3.35-.29-4.28-.87-6.62-2.93-3.42-4.02-3.77-7.94-3.01-12.69,1.32-2.35,3.08-4.23,5.35-6.07Z"/>
  <path class="st54" d="M720.7,124.51q6.28.76,7.48,1.73.27,2.98,0,6.07-3.21,1.73-6.48,1.52-3.14-.65-5.28-2.39-.13-2.28,0-4.34c.71-.29,1.41-.57,2.14-.87.35,1.72.71,3.44,1.07,5.2h5.35c.35-1.43.71-2.86,1.07-4.34q-3.18-.43-6.42-.87l1.07-1.73Z"/>
  <path class="st10" d="M428.78,270.25c2.04,2.75,2.31,4.43,1.74,7.59-.12.69-.24,1.39-.36,2.1-.1.52-.2,1.05-.31,1.59h-2.14c-.11.93-.22,1.86-.33,2.82-.71,3.13-1.35,4.44-3.94,6.72.29-1.02.57-2.04.87-3.09,1.62-5.89,3.04-11.81,4.48-17.73Z"/>
  <path class="st0" d="M563.51,187.84l9.62,2.6q-4.28.87-6.42,0c-.35.86-.71,1.72-1.07,2.6-.71.57-1.41,1.15-2.14,1.73-.64,1.46-1.22,2.95-1.74,4.45-.28.79-.56,1.58-.84,2.39-.21.61-.41,1.21-.63,1.84h-1.07c.63-5.5,2.2-10.35,4.28-15.61Z"/>
  <path class="st62" d="M463,271.11h1.07c.05,2.02.04,4.05,0,6.07-2.12,1.72-6.13,1.03-9.02,1.03q-1.11.02-2.25.03c-1.95,0-3.89-.09-5.84-.19-.71-.57-1.41-1.15-2.14-1.73h16.04c.71-1.72,1.41-3.44,2.14-5.2Z"/>
  <path class="st16" d="M387.08,304.94q2-.32,4.28-.27c.75,0,1.5,0,2.27.01q2,.26,4.14,2-1.07.87-3.75.95-1.62-.02-3.27-.03c-1.08,0-2.16-.02-3.28-.02-.84-.01-1.67-.02-2.54-.03.71-.86,1.41-1.72,2.14-2.6Z"/>
  <path class="st22" d="M428.78,270.25c2.04,2.75,2.31,4.43,1.74,7.59-.12.69-.24,1.39-.36,2.1-.1.52-.2,1.05-.31,1.59-2.04-2.75-2.31-4.43-1.74-7.59.12-.69.24-1.39.36-2.1.1-.52.2-1.05.31-1.59Z"/>
  <path class="st29" d="M668.3,391.69l2.14.87c-3.29,3.19-5.61,3.96-10.69,4.34,2.53-2.27,5.2-3.81,8.55-5.2Z"/>
  <path class="st6" d="M543.2,252.9q.21,5.25,0,6.94c-.71.57-1.41,1.15-2.14,1.73-.35-2.58-.71-5.15-1.07-7.81q2.14-.87,3.21-.87Z"/>
  <path class="st63" d="M685.41,384.75q2.14,2.6,1.94,4.39-.87,1.68-4.08,3.42.94-6.83,2.14-7.81Z"/>
  <path class="st24" d="M764.54,283.26q3.61-.16,7.48,0c.71.86,1.41,1.72,2.14,2.6-2.91,1.18-4.41.75-7.48,0-.71-.86-1.41-1.72-2.14-2.6Z"/>
  <path class="st73" d="M0,252.9h1.07v5.2H0v-5.2Z"/>
  <path class="st34" d="M698.24,513.13h5.35v.87h-5.35v-.87Z"/>
  <path class="st42" d="M527.16,513.13h5.35v.87h-5.35v-.87Z"/>
  <path class="st18" d="M514.32,513.13h5.35v.87h-5.35v-.87Z"/>
  <path class="st18" d="M427.71,513.13h5.35v.87h-5.35v-.87Z"/>
  <path class="st58" d="M355,513.13h5.35v.87h-5.35v-.87Z"/>
  <path class="st50" d="M320.78,513.13h5.35v.87h-5.35v-.87Z"/>
  <path class="st43" d="M0,396.89h1.07v4.34H0v-4.34Z"/>
  <path class="st41" d="M0,239.02h1.07v4.34H0v-4.34Z"/>
  <path class="st15" d="M0,183.5h1.07v4.34H0v-4.34Z"/>
  <path class="st26" d="M590.24,513.13l4.28.87-4.28-.87Z"/>
  <path class="st67" d="M337.89,513.13l4.28.87-4.28-.87Z"/>
  <path class="st19" d="M869.33,304.94l2.14.87c-.71.57-1.41,1.15-2.14,1.73v-2.6Z"/>
  <path class="st49" d="M746.36,512.27l3.21.87-3.21-.87Z"/>
  <path class="st20" d="M869.33,317.96l2.14,1.73h-2.14v-1.73Z"/>
  <path class="st33" d="M0,103.7h2.14c-.35.57-.71,1.15-1.07,1.73l-1.07-1.73Z"/>
  <path class="st61" d="M770.95,3.07l1.07,1.73c-.71-.29-1.41-.57-2.14-.87l1.07-.87Z"/>
  <path class="st55" d="M724.97,513.13l2.14.87-2.14-.87Z"/>
  <path class="st12" d="M715.35,513.13l2.14.87-2.14-.87Z"/>
  <path class="st47" d="M706.8,513.13l2.14.87-2.14-.87Z"/>
  <path class="st64" d="M689.69,513.13l2.14.87-2.14-.87Z"/>
  <path class="st40" d="M637.29,513.13l2.14.87-2.14-.87Z"/>
  <path class="st68" d="M619.11,513.13l2.14.87-2.14-.87Z"/>
  <path class="st1" d="M613.77,513.13l2.14.87-2.14-.87Z"/>
  <path class="st46" d="M607.35,513.13l2.14.87-2.14-.87Z"/>
  <path class="st9" d="M569.93,513.13l2.14.87-2.14-.87Z"/>
  <path class="st67" d="M547.47,513.13l2.14.87-2.14-.87Z"/>
  <path class="st67" d="M542.13,513.13l2.14.87-2.14-.87Z"/>
  <path class="st25" d="M538.92,513.13l2.14.87-2.14-.87Z"/>
  <path class="st76" d="M511.12,513.13l2.14.87-2.14-.87Z"/>
  <path class="st4" d="M504.7,513.13l2.14.87-2.14-.87Z"/>
  <path class="st4" d="M487.59,513.13l2.14.87-2.14-.87Z"/>
  <path class="st56" d="M441.61,513.13l2.14.87-2.14-.87Z"/>
  <path class="st64" d="M410.6,513.13l2.14.87-2.14-.87Z"/>
  <path class="st50" d="M405.26,513.13l2.14.87-2.14-.87Z"/>
  <path class="st65" d="M402.05,513.13l2.14.87-2.14-.87Z"/>
  <path class="st48" d="M397.77,513.13l2.14.87-2.14-.87Z"/>
  <path class="st58" d="M390.29,513.13l2.14.87-2.14-.87Z"/>
  <path class="st27" d="M384.94,513.13l2.14.87-2.14-.87Z"/>
  <path class="st52" d="M347.52,513.13l2.14.87-2.14-.87Z"/>
  <path class="st11" d="M282.29,513.13l2.14.87-2.14-.87Z"/>
  <path class="st78" d="M218.13,513.13l2.14.87-2.14-.87Z"/>
  <path class="st2" d="M171.09,513.13l2.14.87-2.14-.87Z"/>
  <path class="st7" d="M119.76,511.4l2.14.87-2.14-.87Z"/>
  <path class="st5" d="M34.22,477.57l2.14.87-2.14-.87Z"/>
  <path class="st14" d="M861.84,439.4l2.14.87-2.14-.87Z"/>
  <path class="st32" d="M803.03,15.22l2.14.87-2.14-.87Z"/>
  <path class="st30" d="M782.71,7.41l2.14.87-2.14-.87Z"/>
</svg>