<svg xmlns="http://www.w3.org/2000/svg" id="main" viewBox="0 0 872 514"><defs><style>.st3{fill:#fff}.st4{fill:#cc3738}.st5{fill:#ce3a3b}.st6{fill:#a43a3b}</style></defs><rect width="872" height="514" y=".16" rx="125" ry="125" style="fill:#ce3a3a;stroke:#000;stroke-miterlimit:10"/><path d="m458.93 141.8-5.21 8.74-1.44 6.78 3.33 8.22 8.02 5.48 12.39 3.39 21.91 1.3 8.22.65v24.26l1.63 3.79v18.13l-.52 18.04 1.56 7.39 5.48 14.87 3.13 13.57v20.61l3.39 23.47 4.7 10.96 8.61 11.48-2.09 4.96-32.35 13.56-32.6 8.09-38.87 11.48-7.31 8.87-3.16 7.04 2.64 7.3-1.57 7.31L399 445.97l.52 8.48 4.17 5.48 5.48 3.65-1.04 8.61-5.61 16.83-.26 6.65-.49 3.49 402.96.27 18.25-11.01 14.3-12.81 15.96-20.56 9.01-17.41 7.3-23.73.79-4.35-6.37-11.72-6-7.82-5.47-12.53-7.05-8.87-17.21-8.34-75.4-28.7-18.52-49.82 3.39-9.14 6-6.52 6.26-4.17 7.31-8.87 5.74-9.13 5.22-11.22 3.65-9.13 2.08-12.26-1.04-8.87 26.35-1.04 20.09-2.61 13.3-3.39 9.13-5.74 2.35-6.52-.26-6.26-2.61-7.05-8.09-9.13-21.91-23.74-17.22-20.61-17.74-25.04-13.82-16.43-22.18-19.83-20.08-15.13-13.57-8.09-29.52-11.48-24.91-4.43-24.09-1.57H600.5l-27.4 3.92-29.73 10.11-21.4 15.71-16.43 22.96-9.39 17.48-13.31 22.17-10.43 15.91z" class="st6"/><path d="M401.77 499.16V514h354.95l17.02-2.72 16.23-4.7 14.76-7.15z" class="st6"/><path d="m51.22 154.44-.78 93.52H88.4s18.98-3.33 18.78-27.98-25.43-19.76-14.09-20.54c0 0 12.33-4.89 10.96-24.85s-17.8-20.15-17.8-20.15H51.23Z" class="st3"/><path d="M68.7 233.29h12.42s5.97-2.93 6.55-6.85.29-8.32 0-12.03-6.55-6.36-6.55-6.36H68.7zm0-39.62h9s5.87-1.47 7.04-8.12.49-8.9 0-11.93-4.6-5.18-4.6-5.18H68.69v25.24Z" class="st4"/><ellipse cx="141.45" cy="215.49" class="st3" rx="27.07" ry="33.26"/><path d="M141.45 195.14s-9.33.13-9.33 20.35 8.74 20.22 8.74 20.22 8.61.13 8.61-20.22-8.02-20.35-8.02-20.35" class="st4"/><path d="M176.73 184.18h16.17v4.43s6-3.65 10.43-4.43 8.54-1.23 10.7-.78 4.96 2.61 4.96 2.61 2.49 2.77 2.74 3.26 2.35 3.79 2.35 4.57v54.13h-15.65l-.26-46.76s-2.32-6.24-7.76-5.41-6.72 6-6.72 6v46.17h-16.96v-63.78Zm60.04.06h16.63v67.3s-.93 6.71-1.76 9.2-1.43 5.41-4.11 8.02-5.28 4.5-5.28 4.5-3.91 2.93-6.85 3.33-9.39 0-9.39 0v-11.74s3.33-.07 5.48-1.76 2.81-3.11 3.52-4.11 1.37-1.17 1.57-4.5l.2-3.33v-66.91Zm2.94-12.13h10.76s2.82-.77 2.93-3.68.26-1.59 0-6.5-4.11-4.89-4.11-4.89h-9.59s-2.93-.49-3.52 3.52-.52 4.19 0 7.87 3.52 3.68 3.52 3.68Z" class="st3"/><ellipse cx="290.02" cy="215.42" class="st3" rx="27.07" ry="33.26"/><path d="M290.67 195.31s-9.33.13-9.33 20.35 8.74 20.22 8.74 20.22 8.61.13 8.61-20.22-8.02-20.35-8.02-20.35" class="st4"/><path d="M325.69 184.24h16.7s-.91 42.53 0 46.26 4.57 6.24 8.61 5.38 6-5.38 6-5.38v-46.26h16.83v64.44h-15l-.91-5.19s-.83-.59-1.83.13-3.26 3.26-6.33 4.57-13.89.5-13.89.5-4.7-2.98-6.91-5.98-2.48-6.83-2.48-6.83l-.78-51.64Zm58.99 0h16.63v5.05s.88.95 1.57 0 .52-1.76 2.74-3.91 3.91-2.15 3.91-2.15h8.22v14.09s-7.04-.2-8.61 0-2.48 1.43-4.7 3.91-2.15 3.91-2.15 3.91l-.2 43.54-17.41.25zm41.78-19.88 2.21 56.09h13.57l2.22-53.74zm2.86 67.96h12.65s3.65-1.48 3.65 7.57-4.3 9.04-4.3 9.04h-11.48s-4.3-.65-4.3-8.3 3.78-8.3 3.78-8.3Zm40.31-81 16.53-15.85 10.66-15.65 11.52-18.52 14.21-31.44 14.87-19.3 16.05-9.52 15.91-5.87 19.83-4.83 27.39-1.95 24.65 1.17 20.61 3.39 20.08 4.04 11.61 4.7 12.52 7.3 9 6.79 9.79 9.26 14.61 19.82 20.34 27.66 13.83 17.21 21.13 20.48 21.78 16.7 8.61 5.21 4.44 3.79v3.13l-1.44 1.82-2.48 1.18h-4.56l-15.26-9.39-25.05-19.7-15.39-15.39-16.69-20.61-14.48-19.3-16.04-22.31-9.53-10.17-15-11.48-8.47-4.57-11.09-3.65-18.39-3.13-25.31-2.61-22.04-1.04-25.04 2.22-15.13 4.82-16.31 7.18-9.39 8.08-7.57 8.48-6.39 14.09-7.43 15.26-6.78 13.44-8.61 13.3-6 9-4.83 6-7.3 7.83-7.67 6.65-2.67 1.82-1.89.49-2.64.07-1.7-1.37-1.4-1.44z" class="st3"/><path d="m662.93 66.67-8.74 9.91-1.95 7.31.65 9.26 3.26 6.65 6.78 7.04 6.39 2.35 10.18 1.04 10.04-2.08 8.22-5.48 4.43-7.05.79-7.17v-8.48l-4.18-8.08-6.52-5.22-7.69-3.65H671.8z" class="st3"/><path d="m675.19 72.41-5.73.78-5.09 4.04-2.48 5.22-.65 6 1.3 4.83 4.05 4.95 5.73 2.61 7.96.92 6.78-2.09 3.4-3.91 2.6-4.31v-6.13l-1.17-5.35-3.13-4.17-4.17-2.48-5.48-1.43z" class="st6"/><path d="m523.67 169.84 27.39-5.48h32.09l66.46 5.48 43.45 6.26 8.26 3.52 3.52 4.61v8.17l3.91 20.87 4.7 5.09 8.22-7.04 5.09-11.35 6.26-4.66 7.96-1.01 7.14 1.57 4.6 3.62s2.64 5.67 2.93 6.26 1.08 8.32 1.08 9.2-1.08 8.8-1.37 9.49-4.3 10.86-4.6 11.35-8.61 13.01-8.61 13.01-9.39 8.8-9.68 9-5.77 3.03-5.77 3.03l-5.58-.78-5.67-1.86s-3.82.2-4.3.39-2.64 2.54-2.93 2.93-2.05 3.82-2.05 3.82l-.85 20.67-5.74 17.48-8.35 11.74-12.52 13.3-21.39 12.26-24.26 8.35-20.87 4.43-28.7 1.04-20.09-4.17L550.1 340l-11.48-17.48-4.17-18.26-1.3-26.87-1.57-15.39-7.89-14.87-2.02-19.43 2.22-16.43.52-10.57-4.83-9.26v-15l4.11-6.59Z" class="st3"/><path d="M531.1 190.78h47.22l3.39 5.87-1.43 12.26-7.57 36.91-2.74 17.74 3.13 3.78 7.96.91 10.04-4.43 10.04-3.65h6.26l1.57 2.09v4.43l-1.04 3.39-5.22 2.22-20.22 6.91h-13.96l-7.83-5.87-2.22-4.04-2.35-7.83 1.17-8.74 3.13-15 3.52-16.43 1.83-9.26 1.17-6-2.61-.65.13 3.52-.65 3.26-1.7 3-3.52 2.09-3.39 1.04-4.57-.13-4.3-.39-1.57-1.04-2.35-2.48-.78-3s-.26-3.52-.39-3.91.13-2.61.13-2.61l1.04-2.74-9.52-.78-3.65-1.3-2.09-2.87s-.13-2.48 0-2.87 1.3-2.48 1.3-2.48l2.61-.91Zm63.72 8.02 7.24 4.5 10.57 1.76 5.48 1.37 2.35 5.67 1.37 4.3 5.09 3.33 7.76 1.57s4.17-2.15 4.76-2.35 3.72-4.89 3.72-4.89l1.17-6.65-1.37-3.33-2.35-1.96-2.46-1.57 6.18-.2 9.78.78 6.26.39 4.89-.2v-3.52l-2.93-2.74-4.89-2.35-5.09-1.96-6.07-.98h-8.14l-6.73.98-6.85 1.96-6.07.59-7.83-.2s-5.28-.39-6.85-.39-5.28-.39-5.28-.39l-3.72 1.17-1.17 2.93 1.17 2.35Z" class="st5"/><path d="M558.04 308.56h5.87l6.65-5.28 5.67-2.93h22.11l7.83 2.15 4.89 1.96 3.33 4.11 3.72 1.57h4.11l1.96-2.93v-4.7l-1.76-2.15-6.65-4.7-10.37-2.15h-5.67l-7.04-3.13s-6.07-.78-7.24-.78h-6.85c-1.17 0-9.59 1.76-9.59 1.76l-4.7 2.54-3.72 2.35-2.54 2.35-2.54 3.72v2.74l1.37 3.33 1.17.2Zm19.43 14.51 11.25 1.57h8.42l3.52-1.57v-3.81l-3.03-2.45-5.78-1.57h-12.22l-3.23 2.16-.69 2.54v2.64zm161.81-114.46-4.3 6.65-1.7 6.03-2.48 7.14-3.78 6.55s-1.04 4.4-1.17 4.79.52 2.87 1.17 3.65 3.13 1.3 3.78 1.17 3.26-1.57 3.26-1.57l2.74-4.3s2.87-5.22 3.65-6.65 3.52-7.17 3.65-7.96 1.17-4.43 1.3-4.96-.52-4.57 0-4.96.02-4.04.02-4.04l-2.89-2.35-3.26.78Z" style="fill:#ce3a3a"/><path d="m495.24 376.09-58.78 15.26-1.91 3.78v2.54l1.11 1.63 2.28 1.43h3.13s2.93-.2 3.2-.26 9-2.54 9-2.54l46.11-12.78 1.7-2.41v-3.07l-.85-2.09-2.74-1.5h-2.25Zm252.32-21.49 69.13 30 10.18 1.83 7.82 1.99 3.65-1.73-2.6-4.7-3.66-4.69L800 366.34l-39.13-17.22h-13.31l-1.3 3.92zm16.96 17.22h-2.61l-1.31 4.27 1.96 53.12 4.83 3.65h7.82l1.31-4.17v-8.09l-3.39-44.51-3.66-4.27zm21.13 10.17 6.65 57.92 5.09 2.08 3.39-1.04 2.35-2.35-6.79-55.56-4.04-2.35h-3zm30.26 11.48H812l-1.31 8.87 7.57 40.7 4.69 1.3h4.18l2.34-1.04v-5.74l-7.3-41.74-2.09-2.35zm27.39 7.31h-4.96l-1.3 8.34 1.3 9.79 1.83 17.61 1.57 5.47 6.52 3.4 3.13-1.05 2.35-2.35-3.66-38.34-2.87-2.87z" class="st3"/><path d="M433.34 415.71h-4.69l-6.85 11.55-8.61 19.17 1.57 4.5h6.65l3.33-5.48 11.72-25.24-.46-3.72zM475.93 514l7.04-20.78 8.02-41.58 1.57-28.69-2.93-25.8 1.17-4.89 4.11-1.33h3.72l2.45 3.34v8.67l1.27 24.24v19.79c0 .67-.98 12.9-1.27 13.57s-3.82 16.23-3.82 16.23l-4.11 18.24-4.01 12.9-1.86 6.1h-11.35Zm116.02-144.82s-3.42 13.7-3.52 13.99-3.91 11.84-3.91 11.84l-3.33 4.89-5.38-.49-4.7-7.14s-6.55-6.26-7.24-7.04-8.71-9.39-9-9.78-4.4-5.28-4.79-5.67-1.96-4.89-1.96-5.18 1.37-6.65 1.37-7.73.78-2.84.78-2.84h2.64l3.91 2.35 2.54 3.13.68 1.66 3.03 2.54s1.86.68 2.15 1.08 4.79 1.57 4.79 1.57l3.23.68 4.89.59 5.87.1 5.09.1 2.84.59v.78Zm.72 32.38 5.35.78 5.74-.78 5.22-8.87 4.57-6.78 2.87-3.13 13.7-4.3s13.43-4.17 14.48-4.43 11.22-4.57 12.91-5.35 7.83-3.78 9.13-4.3 6.65-3.13 8.22-4.17 9-5.61 9-5.61l18.57-14.92 7.14-7.92 5.77-9.98 2.35-6.54.78-15.39s-10.47 18.51-10.57 18.8-5.97 8.41-5.97 8.41l-4.3 4.5-7.73 6.95-8.02 6.55-9.39 4.79-14.38 6.55-31.89 10.96-6.85 1.27-7.34 1.17-3.52.1-2.35 1.27-7.83 16.9s-3.03 5.14-3.13 5.43-2.4 3.82-2.4 3.82l-.85 2.57.72 1.66ZM551.93 514l10.17-25.48 10.17-26.37 11.74-38.91 16.65-4.76 20.92-1.81 14.87-5.54 11.74-4.4 14.09-9.8 18.39-10.01 20.35-19.02 7.43-7.35h2.35v25.51l3.13 5.29 4.53 5.58 7.37 8.03 4.92 4.44 4.98 4.76v7.34l-2.25 8.14-7.66 5.7-9.16 7.35s-6.65 7.04-7.83 7.85-9.39 9-9.78 9.87-7.04 9.09-7.04 9.09l-7.43 9.08s-.78 1.3-2.35 5.19-4.3 11.67-5.09 13.4-1.96 4.76-1.96 6.05-.39 7.78-.39 7.78l-.39 3H551.92Z" style="fill:#ff6a6a"/><path d="m646.36 472.33-8.35 4.69-1.82 10.18 3.65 5.74 8.09 2.35 7.28-2.09 4.72-6.26v-7.31l-3.66-6-5.74-1.3z" class="st5"/></svg>