<?xml version="1.0" encoding="UTF-8"?>
<svg version="1.1" xmlns="http://www.w3.org/2000/svg" width="1024" height="1024">
<path d="M0 0 C1.41996258 0.0207507 1.41996258 0.0207507 2.86861128 0.0419206 C9.73524994 0.146618 16.60071279 0.28774433 23.46646118 0.43887329 C70.93913863 1.45414236 118.41345121 1.29009073 165.89439597 1.23058173 C178.42011279 1.21531587 190.94583114 1.20791279 203.47155506 1.20128781 C225.82239367 1.18944723 248.17322898 1.17455261 270.52406311 1.15614319 C271.5191991 1.15532658 271.5191991 1.15532658 272.53443885 1.15449348 C288.05873256 1.1417317 303.58302449 1.12767596 319.10731506 1.11152649 C319.77854722 1.1108293 320.44977938 1.11013211 321.14135191 1.1094138 C323.85141952 1.1065979 326.56148711 1.10377724 329.27155471 1.10095586 C330.62491854 1.09954693 331.97828237 1.09813846 333.3316462 1.09673045 C334.68346904 1.09532375 336.03529187 1.09391548 337.38711471 1.09250565 C360.39677217 1.06855269 383.40642816 1.05231175 406.41609675 1.04306036 C420.1272068 1.03723654 433.83828015 1.02494854 447.54937572 1.00408757 C456.92180241 0.99033586 466.29421636 0.98388422 475.66665303 0.98307746 C481.05892909 0.98237724 486.45115047 0.97847027 491.8434124 0.96561432 C496.79202315 0.95387775 501.74054949 0.95166361 506.6891709 0.95655651 C508.46432395 0.95670593 510.23948158 0.9535553 512.01462054 0.94647943 C521.3816351 0.91111309 530.64766867 1.2062963 539.98001957 2.05283451 C540.8211973 2.12673453 541.66237502 2.20063454 542.52904299 2.27677396 C551.58706144 3.18187366 560.20541458 5.57970555 568.89979553 8.19056702 C570.02385803 8.51798889 571.14792053 8.84541077 572.30604553 9.18275452 C574.5097475 9.83272279 576.70618592 10.50731157 578.89979553 11.19056702 C578.89979553 11.85056702 578.89979553 12.51056702 578.89979553 13.19056702 C579.75057678 13.44580139 580.60135803 13.70103577 581.47792053 13.96400452 C597.28445724 19.6298179 611.6765903 31.99365904 622.89979553 44.19056702 C622.89979553 44.85056702 622.89979553 45.51056702 622.89979553 46.19056702 C623.55979553 46.19056702 624.21979553 46.19056702 624.89979553 46.19056702 C626.10145569 47.58900452 626.10145569 47.58900452 627.43885803 49.56556702 C627.93313293 50.29525696 628.42740784 51.0249469 628.93666077 51.77674866 C629.72278748 52.97158875 629.72278748 52.97158875 630.52479553 54.19056702 C631.06241516 55.00710754 631.60003479 55.82364807 632.15394592 56.66493225 C649.74938515 83.84353129 653.19423577 111.2505957 652.89979553 143.19056702 C653.55979553 143.52056702 654.21979553 143.85056702 654.89979553 144.19056702 C654.23979553 144.19056702 653.57979553 144.19056702 652.89979553 144.19056702 C652.80450225 156.97745988 652.72314795 169.73341253 653.46229553 182.50306702 C654.08390693 193.44099792 653.60391913 204.266273 652.89979553 215.19056702 C653.55979553 215.52056702 654.21979553 215.85056702 654.89979553 216.19056702 C654.23979553 216.19056702 653.57979553 216.19056702 652.89979553 216.19056702 C653.07381897 216.72939514 653.24784241 217.26822327 653.42713928 217.82337952 C654.0049759 220.71733809 653.75884431 223.12936801 653.46229553 226.06556702 C652.83767961 233.12052373 652.80429458 240.11288535 652.89979553 247.19056702 C653.55979553 247.52056702 654.21979553 247.85056702 654.89979553 248.19056702 C653.90979553 248.19056702 652.91979553 248.19056702 651.89979553 248.19056702 C652.15540877 250.53368832 652.49250326 252.86900105 652.89979553 255.19056702 C653.55979553 255.52056702 654.21979553 255.85056702 654.89979553 256.19056702 C654.23979553 256.19056702 653.57979553 256.19056702 652.89979553 256.19056702 C652.87642818 271.22873099 652.85879749 286.26689356 652.84798336 301.30507183 C652.84282856 308.28766169 652.8358014 315.27024026 652.82435608 322.25282288 C652.81331898 328.98957284 652.80751336 335.72630864 652.80491829 342.46306801 C652.80306857 345.03511045 652.79945661 347.60715223 652.79406548 350.17918968 C652.78682192 353.7776415 652.785806 357.37604465 652.78627014 360.97450256 C652.78267487 362.04121185 652.77907959 363.10792114 652.77537537 364.20695496 C652.77675003 365.18987015 652.77812469 366.17278534 652.77954102 367.18548584 C652.77861922 368.03630076 652.77769743 368.88711569 652.7767477 369.76371288 C652.84286296 372.24484407 652.84286296 372.24484407 653.43416691 374.84884357 C653.98415168 377.61480806 653.51690645 379.45583576 652.89979553 382.19056702 C652.61292671 387.98700475 652.874187 393.47646233 653.89979553 399.19056702 C653.56979553 399.85056702 653.23979553 400.51056702 652.89979553 401.19056702 C652.81857196 403.14789379 652.8031754 405.1080767 652.81800842 407.06703186 C652.82453934 408.30367584 652.83107025 409.54031982 652.83779907 410.81443787 C652.84641055 411.81137728 652.84641055 411.81137728 652.855196 412.82845688 C652.87265589 414.92602502 652.88291314 417.02351591 652.89111328 419.12113953 C652.9154629 425.08771608 652.95027004 431.05419226 652.9957428 437.02064514 C653.31281998 480.18422776 653.31281998 480.18422776 648.33729553 496.69056702 C648.0056842 497.86425842 648.0056842 497.86425842 647.66737366 499.06166077 C647.26615067 500.479881 646.8584357 501.89630243 646.44056702 503.30970764 C646.07284477 504.58868379 645.74405981 505.87935903 645.45057678 507.17738342 C640.44417853 525.47647917 625.33591699 543.34032294 611.89979553 556.19056702 C611.23979553 556.19056702 610.57979553 556.19056702 609.89979553 556.19056702 C609.89979553 556.85056702 609.89979553 557.51056702 609.89979553 558.19056702 C607.77188936 559.97910884 605.6481299 561.6269603 603.39979553 563.25306702 C602.72561584 563.7418634 602.05143616 564.23065979 601.35682678 564.73426819 C581.66890782 578.73825583 559.17463787 588.1174618 534.92445374 589.95106506 C532.83362053 590.08238551 532.83362053 590.08238551 530.89979553 591.19056702 C528.44367925 591.28496826 526.01665171 591.31791921 523.56044006 591.30580139 C522.40546335 591.30576363 522.40546335 591.30576363 521.22715378 591.3057251 C518.62060173 591.30387969 516.01414096 591.29427266 513.40760803 591.28431702 C511.53668758 591.28051085 509.66576674 591.27689446 507.79484558 591.27345276 C483.38275982 591.21426214 458.97136588 590.96362532 434.5605011 590.727005 C428.14236283 590.66522945 421.72420329 590.60574642 415.30604553 590.54603577 C402.83727446 590.42971337 390.3685278 590.31097333 377.89979553 590.19056702 C377.89979553 590.85056702 377.89979553 591.51056702 377.89979553 592.19056702 C377.23979553 591.86056702 376.57979553 591.53056702 375.89979553 591.19056702 C373.69334208 591.09271013 371.48383104 591.06211965 369.27520943 591.06028175 C368.58328371 591.05833833 367.89135799 591.0563949 367.17846483 591.05439258 C364.83654396 591.04903582 362.49468137 591.05084032 360.15275574 591.05253601 C358.46586505 591.05011965 356.77897496 591.04725791 355.09208572 591.04398668 C350.43776529 591.03620774 345.78345959 591.03461288 341.12913346 591.03393555 C336.11578307 591.03210021 331.10244138 591.02449542 326.08909607 591.01745605 C317.39237196 591.00591276 308.6956498 590.99767726 299.99892044 590.99133682 C286.24043244 590.98101681 272.48196865 590.96045225 258.72349548 590.93821716 C254.01636704 590.93073651 249.30923849 590.92332282 244.60210991 590.91592979 C243.42552821 590.91407923 242.24894652 590.91222866 241.03671084 590.91032202 C227.63186253 590.88937918 214.22701152 590.87056135 200.82215881 590.85267639 C199.59640274 590.85103821 198.37064666 590.84940003 197.10774647 590.8477122 C177.2820857 590.82147595 157.45642307 590.8028074 137.63075234 590.78608449 C117.2677472 590.76863143 96.90477839 590.73974734 76.54180229 590.70119512 C63.98922115 590.67785355 51.43669926 590.6638058 38.88409625 590.66186748 C30.26565003 590.65974952 21.64726253 590.64674877 13.0288427 590.62538816 C8.06441358 590.61342264 3.10010098 590.60616499 -1.86434174 590.6121006 C-43.1895859 590.65486173 -82.42333603 587.08510027 -113.91270447 557.25306702 C-115.88774259 555.39088822 -117.92644433 553.70569616 -120.03770447 552.00306702 C-137.29598207 536.90643226 -148.92261493 513.70007947 -154.31114197 491.71791077 C-154.57153259 490.88388733 -154.83192322 490.04986389 -155.10020447 489.19056702 C-155.76020447 488.86056702 -156.42020447 488.53056702 -157.10020447 488.19056702 C-157.72520447 486.12806702 -157.72520447 486.12806702 -158.10020447 484.19056702 C-157.44020447 484.19056702 -156.78020447 484.19056702 -156.10020447 484.19056702 C-156.23297791 483.48158264 -156.36575134 482.77259827 -156.50254822 482.04212952 C-160.02502506 460.80442241 -159.19643264 438.957506 -159.22520447 417.50306702 C-159.2278833 416.36818848 -159.23056213 415.23330994 -159.23332214 414.06404114 C-159.2553539 401.73359954 -159.20171715 389.47908261 -158.10020447 377.19056702 C-158.76020447 377.19056702 -159.42020447 377.19056702 -160.10020447 377.19056702 C-159.77020447 376.53056702 -159.44020447 375.87056702 -159.10020447 375.19056702 C-158.98003774 373.22022214 -158.92285114 371.24591766 -158.8948822 369.27210999 C-158.86496437 367.41040665 -158.86496437 367.41040665 -158.83444214 365.51109314 C-158.81745786 364.15164821 -158.80057905 362.79220197 -158.78379822 361.43275452 C-158.76322866 360.04555134 -158.74223218 358.65835444 -158.7208252 357.27116394 C-158.66560466 353.61829196 -158.61619536 349.96536342 -158.56797791 346.31239319 C-158.51776272 342.58553528 -158.46207675 338.85875961 -158.40684509 335.13197327 C-158.29926376 327.81824081 -158.19781878 320.50444001 -158.10020447 313.19056702 C-158.76020447 312.86056702 -159.42020447 312.53056702 -160.10020447 312.19056702 C-159.44020447 312.19056702 -158.78020447 312.19056702 -158.10020447 312.19056702 C-158.13049744 311.05514465 -158.16079041 309.91972229 -158.19200134 308.74989319 C-158.30421777 304.53994283 -158.41591315 300.32997878 -158.52745056 296.12001038 C-158.57581075 294.29741545 -158.62431251 292.47482427 -158.67295837 290.65223694 C-158.74282904 288.03351294 -158.81219167 285.4147759 -158.88145447 282.79603577 C-158.90332825 281.98031601 -158.92520203 281.16459625 -158.94773865 280.32415771 C-159.08549693 275.09090228 -159.01714411 270.34835248 -158.10020447 265.19056702 C-158.76020447 264.86056702 -159.42020447 264.53056702 -160.10020447 264.19056702 C-159.44020447 264.19056702 -158.78020447 264.19056702 -158.10020447 264.19056702 C-158.11070045 263.22593883 -158.11070045 263.22593883 -158.12140846 262.2418232 C-158.29179261 246.51325738 -158.44997664 230.78462159 -158.59498024 215.0558033 C-158.66539296 207.44912232 -158.73976687 199.84252049 -158.82383728 192.23597717 C-158.89719771 185.59750779 -158.9627479 178.95901235 -159.0193485 172.32037818 C-159.04951282 168.81309345 -159.08329549 165.30593688 -159.12646866 161.79878616 C-159.30469678 147.12036127 -159.30424734 132.72914765 -157.10020447 118.19056702 C-157.76020447 117.86056702 -158.42020447 117.53056702 -159.10020447 117.19056702 C-158.44020447 117.19056702 -157.78020447 117.19056702 -157.10020447 117.19056702 C-157.07442322 116.43775452 -157.04864197 115.68494202 -157.02207947 114.90931702 C-155.61599851 88.57725544 -144.19785662 64.9082916 -127.10020447 45.19056702 C-126.2439631 44.10887273 -125.38940305 43.02584179 -124.53770447 41.94056702 C-111.54767934 27.28515405 -93.43115515 15.78701683 -75.10020447 9.19056702 C-73.95422791 8.77033264 -72.80825134 8.35009827 -71.62754822 7.91712952 C-48.61970427 0.04790049 -24.03957365 -0.36423971 0 0 Z " fill="#EC2B35" transform="translate(264.10020446777344,199.80943298339844)"/>
<path d="M0 0 C5.24680622 0.44464459 10.41974164 1.21418915 15.625 2 C29.99387976 4.05355953 44.38787105 4.23494836 58.875 4.25 C59.81799957 4.25200409 60.76099915 4.25400818 61.73257446 4.256073 C75.89960353 4.26342891 89.67633052 3.61605173 103.68896484 1.36376953 C107.11651485 0.82425448 110.55515598 0.41306046 114 0 C114.03867187 1.75763672 114.03867187 1.75763672 114.078125 3.55078125 C114.50272039 16.79364332 116.24513398 27.33231424 125.3125 37.625 C127.94040518 40.20204316 127.94040518 40.20204316 131.625 41.52734375 C133.98736316 42.85484043 134.84010629 43.44236824 135.59643555 46.08007812 C135.7745746 48.71769391 135.76272762 51.2950138 135.6875 53.9375 C135.76759785 62.60957517 136.63259485 69.90462195 140 78 C140.37253906 78.89976562 140.74507812 79.79953125 141.12890625 80.7265625 C145.52122238 90.32297597 152.14399085 97.48838556 161.5625 102.3125 C164.69050732 103.19475847 166.74991525 103.44609006 170 103 C171.32003326 102.21237101 172.61027235 101.37367683 173.875 100.5 C178.19934392 97.5922515 180.83728133 97.2255922 186 98 C188.43119623 99.87015094 189.64069173 101.28138345 191 104 C192.03882089 117.3173432 189.68713916 127.89635455 182 139 C177.25 138.125 177.25 138.125 175 137 C173.62657169 136.9310528 172.24997898 136.91532292 170.875 136.9375 C168.956875 136.9684375 168.956875 136.9684375 167 137 C164.69868026 140.82543939 164.10042143 144.9982885 163.25 149.3125 C159.1995207 168.45583671 150.38040848 185.89675254 138 201 C137.29101562 201.87398437 136.58203125 202.74796875 135.8515625 203.6484375 C128.10779922 212.73408034 119.33666612 219.27491162 108.5 224.125 C107.81736084 224.43268311 107.13472168 224.74036621 106.43139648 225.05737305 C103.64073429 226.23105496 101.57455358 227.07454651 98.53125 226.6796875 C98.0259375 226.45539063 97.520625 226.23109375 97 226 C97.53109375 225.57589844 98.0621875 225.15179687 98.609375 224.71484375 C103.27114842 220.84421071 106.52657112 217.56521497 109 212 C109.3384885 209.20526411 109.3384885 209.20526411 109 207 C105.66981874 207.57170494 104.30361189 208.45632342 102.125 211 C89.96061184 223.63224924 72.2414051 230.46854041 55 232 C37.96986946 232.26845526 23.76062525 227.87627874 11.2265625 216.28125 C5 209.90175439 5 209.90175439 5 207 C4.443125 206.85304688 3.88625 206.70609375 3.3125 206.5546875 C-7.76823615 203.29784951 -15.37777249 196.13766477 -21.06445312 186.12597656 C-31.64348482 166.22549316 -36.75013393 144.09044564 -30 122 C-28.4267419 117.62783591 -26.6887635 113.32752286 -24.86914062 109.05249023 C-24.52947266 108.25270752 -24.18980469 107.4529248 -23.83984375 106.62890625 C-23.53425537 105.92838135 -23.22866699 105.22785645 -22.91381836 104.50610352 C-20.66084573 98.32743291 -19.75966821 92.87113085 -19.76171875 86.30078125 C-19.75044829 84.83975139 -19.73778219 83.37873177 -19.72387695 81.91772461 C-19.71893219 81.16538544 -19.71398743 80.41304626 -19.70889282 79.63790894 C-19.57562367 65.15149501 -18.45808307 51.87656844 -14 38 C-13.76619629 37.24058105 -13.53239258 36.48116211 -13.29150391 35.69873047 C-11.65961756 30.4167198 -9.87021919 25.20185453 -8 20 C-7.6920752 19.13906738 -7.38415039 18.27813477 -7.06689453 17.39111328 C-1.2842833 1.2842833 -1.2842833 1.2842833 0 0 Z " fill="#FEFDFD" transform="translate(640,431)"/>
<path d="M0 0 C2.51873644 -0.0096411 5.03663185 -0.04072839 7.55517578 -0.07226562 C22.62540056 -0.17110548 37.44215653 1.55267833 51.92626953 5.86523438 C52.78293213 6.11684326 53.63959473 6.36845215 54.5222168 6.62768555 C69.96890168 11.34902955 84.4399144 17.77269032 97.55126953 27.24023438 C98.12876953 27.65450684 98.70626953 28.0687793 99.30126953 28.49560547 C115.07916637 39.90084504 115.07916637 39.90084504 118.55126953 48.24023438 C118.55126953 49.56023437 118.55126953 50.88023437 118.55126953 52.24023438 C119.21126953 51.91023438 119.87126953 51.58023438 120.55126953 51.24023438 C132.35837594 50.27217861 141.4484028 52.06337816 150.73486328 59.54882812 C157.38132963 65.73790324 161.00887605 72.52836225 161.86767578 81.57226562 C162.21483047 91.90851648 160.26907323 99.32282288 153.55126953 107.24023438 C153.19816453 110.24945432 153.19816453 110.24945432 155.09033203 111.78320312 C155.77869141 112.32589844 156.46705078 112.86859375 157.17626953 113.42773438 C165.38680293 120.37399095 169.87214756 127.57181543 170.83251953 138.41601562 C171.18135306 150.78507111 167.94277871 159.97970421 159.77001953 169.26367188 C153.68696324 175.57110319 146.63133448 182.65328965 138.55126953 186.24023438 C138.59767578 185.28503906 138.64408203 184.32984375 138.69189453 183.34570312 C138.94196233 174.38791722 139.07524138 165.43252025 132.83251953 158.26757812 C127.64882048 153.62201733 123.27606587 152.90697949 116.41845703 152.94335938 C112.19427874 153.38074023 109.10619965 155.02174415 105.55126953 157.24023438 C104.89126953 157.57023438 104.23126953 157.90023437 103.55126953 158.24023438 C92.48535673 152.06741227 86.99213205 143.28325318 83.55126953 131.24023438 C81.33687753 122.17598978 81.50068249 112.67895739 85.55126953 104.24023438 C84.68501953 103.99273437 83.81876953 103.74523437 82.92626953 103.49023438 C75.62439473 100.7858363 69.24608198 95.72895423 65.21923828 89.02148438 C61.4103302 80.73071625 61.00639013 71.56755511 64.17626953 62.99023438 C65.7668904 59.60461118 67.60063289 56.53733716 69.69970703 53.44335938 C70.23515137 52.6509082 70.7705957 51.85845703 71.32226562 51.04199219 C71.72783691 50.44741211 72.1334082 49.85283203 72.55126953 49.24023438 C71.98432373 49.40628174 71.41737793 49.5723291 70.83325195 49.7434082 C57.82119257 53.51780877 44.99454394 56.53239281 31.55126953 58.24023438 C30.59260735 58.3718396 30.59260735 58.3718396 29.61457825 58.50610352 C23.00832477 59.34316043 16.45367341 59.40174907 9.80126953 59.40820312 C7.98308716 59.41319572 7.98308716 59.41319572 6.12817383 59.41828918 C3.56982805 59.42333379 1.01147575 59.42569828 -1.546875 59.42553711 C-5.40880551 59.42771189 -9.27044457 59.44586221 -13.13232422 59.46484375 C-29.26394005 59.50249016 -45.03287959 59.23077731 -60.76123047 55.24023438 C-61.46183594 55.07523437 -62.16244141 54.91023438 -62.88427734 54.74023438 C-66.29275674 53.91000533 -69.39927478 52.99621914 -72.44873047 51.24023438 C-72.74263672 52.60728516 -72.74263672 52.60728516 -73.04248047 54.00195312 C-74.89999874 62.194609 -77.33368821 69.97397008 -80.38623047 77.80273438 C-80.73516357 78.69774658 -81.08409668 79.59275879 -81.44360352 80.51489258 C-82.13043558 82.27412691 -82.81736322 84.03332394 -83.50439453 85.79248047 C-90.14166188 102.99652452 -93.26338765 119.86289367 -93.94873047 138.24023438 C-94.19916039 144.95546622 -94.62845129 151.5686304 -95.44873047 158.24023438 C-104.66457407 157.47224741 -110.65987052 153.34438123 -117.66357422 147.50976562 C-119.67140225 145.8736533 -121.67024817 144.32886667 -123.76513672 142.81445312 C-132.28891164 136.61556448 -138.56663258 130.6926427 -141.44873047 120.24023438 C-142.41154411 110.16427768 -141.90097491 101.30668118 -135.80029297 92.99414062 C-132.68921546 89.29209425 -129.37045147 86.0923951 -125.44873047 83.24023438 C-126.21185547 82.25023437 -126.97498047 81.26023437 -127.76123047 80.24023438 C-133.66762635 71.83368797 -134.65770674 63.7010339 -133.01513672 53.56445312 C-130.69011268 44.27879813 -124.28560379 36.6023056 -116.44873047 31.24023438 C-111.57115298 28.57973757 -108.48424423 28.16816297 -102.94140625 28.55249023 C-93.49806963 29.12797511 -88.86424175 26.56370695 -81.40576172 21.04101562 C-58.33281396 4.11619626 -27.77037454 0.06390115 0 0 Z " fill="#FEFDFD" transform="translate(703.44873046875,364.759765625)"/>
<path d="M0 0 C3.5386994 1.65139305 4.81070153 2.71605229 7 6 C7.08203125 7.9375 7.08203125 7.9375 6.8125 10 C6.73644531 10.680625 6.66039062 11.36125 6.58203125 12.0625 C6 14 6 14 4.44921875 15.4921875 C2.81791105 16.88996187 2.81791105 16.88996187 2.75 18.9453125 C3.55382498 25.95366152 5.71613285 31.89525288 10.93359375 36.828125 C17.6970299 42.0956783 23.4093556 43.9986144 32 43 C39.23007042 41.14251849 43.75716305 37.0175416 48 31 C49.68978583 28.25071595 49.68978583 28.25071595 49.6875 25.1875 C49.460625 24.465625 49.23375 23.74375 49 23 C47.81776854 18.43996438 47.58566538 16.7351098 49.9375 12.5625 C53.47719942 9.60071069 53.47719942 9.60071069 57.0625 9.5 C62.52881699 10.19413549 62.52881699 10.19413549 65 12 C67.50031654 15.75047482 67.53603554 17.55856266 67 22 C66.175 22.78375 65.35 23.5675 64.5 24.375 C61.82290404 27.18595076 61.60092217 27.60418669 61.5 31.25 C62.01684469 39.24121401 64.43818702 45.43205188 69.984375 51.26953125 C75.17448931 55.7253852 80.91910403 57.70086162 87.7421875 57.30859375 C95.33901424 56.27027314 99.69823973 54.02291143 104.6875 48.1328125 C106.96306502 44.43501934 107.13151255 41.7364703 106.375 37.5 C106 34 106 34 107.1875 31.1875 C109.14019112 28.83080382 110.05975434 27.81673491 113 27 C117.14469235 27.07401236 119.27768325 27.40408868 122.5 30.0625 C124.26169045 33.51247713 124.35881319 35.40808469 123.6875 39.15625 C122.62601337 42.00296415 120.37768554 43.20223776 118 45 C114.90869647 52.06583664 114.72069286 61.07269021 117.1875 68.375 C119.40340663 73.35561257 122.28827212 76.90740774 126.9375 79.875 C131.77785389 81.65308918 134.54326965 81.67233708 139.25 79.5 C142.46866944 76.57393687 142.7371966 74.99867908 143.53125 70.90625 C144.27573778 67.87866635 145.38316373 66.65273869 148 65 C151.99154238 64.21154718 154.9558257 64.39959978 158.5 66.4375 C160.7260593 70.24035131 160.79015404 73.70156203 160 78 C158.15649561 80.63357769 157.129573 81.7863505 153.95362854 82.38705444 C153.30893112 82.58932648 152.6642337 82.79159851 152 83 C150.81099576 85.60745531 149.92207293 88.00412609 149.08984375 90.7265625 C148.83626602 91.50760345 148.58268829 92.28864441 148.32142639 93.09335327 C147.51111841 95.59918463 146.72365994 98.11149934 145.9375 100.625 C145.14329179 103.11543243 144.34442749 105.60430313 143.54286194 108.09237671 C143.04557504 109.64116337 142.55328921 111.19156792 142.06687927 112.74380493 C140.62450331 117.29738039 138.94967782 121.63843471 137 126 C134.4375 126.4375 134.4375 126.4375 131 126 C129.5703125 124.828125 129.5703125 124.828125 128.0625 123.1875 C101.33012715 94.24680069 55.409114 78.22359566 17 76 C11.87484223 75.84243101 6.75222162 75.8030616 1.625 75.8125 C0.56286789 75.81440338 0.56286789 75.81440338 -0.52072144 75.81634521 C-33.45702888 75.92861806 -66.15227429 82.43484953 -94 101 C-94.99 101 -95.98 101 -97 101 C-99.61701369 91.53420579 -101.62599581 82.06007763 -103.25 72.375 C-103.42499023 71.34439453 -103.59998047 70.31378906 -103.78027344 69.25195312 C-104.56157037 64.45727374 -105.23302717 59.87692583 -105 55 C-106.36125 54.9071875 -106.36125 54.9071875 -107.75 54.8125 C-111 54 -111 54 -113.4375 51.875 C-115.51584245 48.05084989 -115.20334424 46.13649584 -114 42 C-112.4375 39.5625 -112.4375 39.5625 -110 38 C-105.08438209 37.29776887 -103.17402037 37.157768 -99.125 40.0625 C-96.75076828 43.3445262 -96.04123484 46.11272326 -95 50 C-92.68708876 53.46936687 -90.82982902 55.41355623 -87 57 C-82.36801952 57.72427331 -78.88288353 57.44977085 -74.6875 55.3125 C-67.28059247 48.93911445 -63.83903218 40.64887004 -63 31 C-63.99 30.67 -64.98 30.34 -66 30 C-68.27976338 26.76033624 -68.47496359 23.87886935 -68 20 C-65.91786087 16.25214957 -64.7052961 15.20517705 -60.5625 14 C-56.62891627 14 -55.04574825 14.58131756 -52 17 C-50.13119895 20.73760209 -50.60170106 25.50578977 -51.66015625 29.4765625 C-52.21089971 33.56599097 -50.19283648 35.68905453 -47.87109375 38.90625 C-43.90963629 43.33911262 -39.86944257 44.76261047 -34.0625 45.5 C-27.23354893 45.0715168 -21.79013138 42.24601868 -17.1875 37.25 C-11.94868554 30.68935504 -9.44725126 24.22648084 -8 16 C-8.99 15.67 -9.98 15.34 -11 15 C-12.61469184 11.77061633 -12.58079278 8.49143247 -12 5 C-8.60369897 0.05992578 -5.86842367 -0.83834624 0 0 Z " fill="#FEFAFB" transform="translate(705,278)"/>
<path d="M0 0 C7.92384344 4.30030649 12.27189353 10.75579184 14.9453125 19.25390625 C20.43135933 38.42317455 19.99087085 64.05540834 10.4453125 81.81640625 C6.21424217 88.12589709 0.40580502 92.58940234 -6.92578125 94.71875 C-17.04007974 96.37930647 -28.91546666 96.93023273 -37.8046875 91.19140625 C-46.08915844 85.01898423 -49.73451608 76.32410047 -51.41870117 66.38916016 C-52.14723657 60.35351395 -52.09124401 54.32533309 -52.0546875 48.25390625 C-52.06242187 46.97322266 -52.07015625 45.69253906 -52.078125 44.37304688 C-52.04838001 29.77569368 -50.60019536 15.05538456 -39.8046875 4.19140625 C-28.20042403 -4.13614632 -13.27266594 -5.82454912 0 0 Z " fill="#FEFCFC" transform="translate(487.8046875,455.80859375)"/>
<path d="M0 0 C2.73496028 -0.27676965 5.20866105 -0.37250086 7.9375 -0.3125 C8.66646484 -0.31572266 9.39542969 -0.31894531 10.14648438 -0.32226562 C13.94536286 -0.28396346 15.77250526 -0.15166316 19 2 C20.17626545 5.87199923 20.19228497 9.80695556 20.31640625 13.83203125 C20.35830078 15.12431641 20.40019531 16.41660156 20.44335938 17.74804688 C20.48316352 19.10286192 20.52287591 20.45767967 20.5625 21.8125 C20.60573723 23.18686105 20.64935312 24.56121024 20.69335938 25.93554688 C20.79929734 29.29024904 20.90013948 32.64511143 21 36 C28.59 36.33 36.18 36.66 44 37 C44.04898438 34.49664062 44.09796875 31.99328125 44.1484375 29.4140625 C44.20241761 26.99472982 44.25973667 24.57549777 44.31738281 22.15625 C44.35571104 20.47240671 44.39055712 18.78848045 44.421875 17.10449219 C44.46744287 14.68654694 44.52544923 12.26917472 44.5859375 9.8515625 C44.60326431 8.71867294 44.60326431 8.71867294 44.62094116 7.56289673 C44.77225659 2.22774341 44.77225659 2.22774341 47 0 C49.52792663 -0.22555081 51.91055576 -0.32438591 54.4375 -0.3125 C55.11876953 -0.32861328 55.80003906 -0.34472656 56.50195312 -0.36132812 C61.51753265 -0.36624054 61.51753265 -0.36624054 63.69602585 1.28745174 C65.97077466 4.2749474 65.39660999 7.96310994 65.35644531 11.57055664 C65.35848969 12.44560349 65.36053406 13.32065033 65.36264038 14.22221375 C65.36565173 17.11840623 65.34716162 20.01403131 65.328125 22.91015625 C65.32506807 24.9188981 65.32319145 26.92764207 65.32244873 28.93638611 C65.31784354 33.14720769 65.30340847 37.35783825 65.28125 41.56860352 C65.25294934 46.97494522 65.24203692 52.38113647 65.2375679 57.7875452 C65.23341766 61.93527237 65.22360379 66.0829689 65.21169281 70.23068047 C65.20598288 72.22465201 65.20122657 74.21862652 65.19742584 76.21260262 C65.19057577 78.99473408 65.17694973 81.77674479 65.16113281 84.55883789 C65.16001495 85.38850067 65.15889709 86.21816345 65.15774536 87.07296753 C65.11469268 92.77061465 65.11469268 92.77061465 64 95 C60.49288381 96.16903873 57.63217614 96.16839619 53.9375 96.1875 C52.68839844 96.20167969 51.43929687 96.21585938 50.15234375 96.23046875 C47 96 47 96 45 94 C44.75443629 91.27999643 44.62643514 88.65425743 44.5859375 85.9296875 C44.56657135 85.13345978 44.5472052 84.33723206 44.5272522 83.51687622 C44.46739526 80.96969366 44.42104721 78.42246605 44.375 75.875 C44.33682579 74.1497197 44.29777439 72.42445857 44.2578125 70.69921875 C44.16003447 66.46624468 44.08051661 62.23347877 44 58 C36.08 58 28.16 58 20 58 C19.95101562 60.50335937 19.90203125 63.00671875 19.8515625 65.5859375 C19.79758239 68.00527018 19.74026333 70.42450223 19.68261719 72.84375 C19.64428896 74.52759329 19.60944288 76.21151955 19.578125 77.89550781 C19.53255713 80.31345306 19.47455077 82.73082528 19.4140625 85.1484375 C19.39673569 86.28132706 19.39673569 86.28132706 19.37905884 87.43710327 C19.22774341 92.77225659 19.22774341 92.77225659 17 95 C14.12657939 95.19856972 11.37138012 95.27828946 8.5 95.25 C7.32244141 95.26160156 7.32244141 95.26160156 6.12109375 95.2734375 C0.25330787 95.25330787 0.25330787 95.25330787 -2 93 C-2.19871297 90.15422832 -2.27268102 87.40575594 -2.25878906 84.55883789 C-2.26404602 83.2488961 -2.26404602 83.2488961 -2.26940918 81.91249084 C-2.2782363 79.01579926 -2.27237339 76.11935047 -2.265625 73.22265625 C-2.26697149 71.21487888 -2.26891189 69.20710182 -2.27142334 67.19932556 C-2.27437603 62.98677473 -2.27007274 58.77430859 -2.26074219 54.56176758 C-2.24935492 49.15657581 -2.25590164 43.7515828 -2.26788712 38.34639835 C-2.27510804 34.19862872 -2.27281658 30.05090634 -2.26763153 25.9031353 C-2.2662953 23.90998753 -2.26794182 21.9168355 -2.27259064 19.9236927 C-2.27765884 17.13919816 -2.26994111 14.35502704 -2.25878906 11.57055664 C-2.26283752 10.74291809 -2.26688599 9.91527954 -2.27105713 9.06256104 C-2.24223606 5.18625615 -2.20040701 3.30061052 0 0 Z " fill="#FEFCFC" transform="translate(167,454)"/>
<path d="M0 0 C1.8125 0.8125 1.8125 0.8125 2.8125 1.8125 C3.27606303 7.0302792 2.82624902 10.97950235 0.8125 15.8125 C0.71633904 18.50055807 0.71633904 18.50055807 1.8125 20.8125 C8.45957383 24.34529665 17.58761486 23.79477184 24.76953125 22.125 C29.80704081 20.26785362 33.46501306 17.79325092 37.14453125 13.88671875 C38.8125 12.8125 38.8125 12.8125 41.10546875 12.8984375 C44.50856181 14.04753386 47.34250745 15.77596797 50.3125 17.75 C51.224552 18.34953491 51.224552 18.34953491 52.1550293 18.96118164 C65.66929253 27.96311749 79.85494562 38.01914016 85.8125 53.8125 C86.16733871 59.10282258 86.16733871 59.10282258 84.8125 61.8125 C82.5625 61.75 82.5625 61.75 79.8125 60.8125 C77.7226187 58.15507905 75.8125 55.27699449 75.8125 51.8125 C72.83553979 52.39578106 72.83553979 52.39578106 69.8125 53.8125 C68.43914792 56.33299918 68.43914792 56.33299918 67.8125 59.375 C64.47322408 70.75025699 57.37643086 79.43394284 47.0390625 85.41796875 C35.29751932 91.02562453 23.38936102 92.62126548 10.8125 88.8125 C0.59751912 84.46858787 -6.43856323 77.96326178 -11.1328125 67.90234375 C-12.65247664 63.45029066 -12.7416082 59.45059086 -12.1875 54.8125 C-12.76757812 54.64234375 -13.34765625 54.4721875 -13.9453125 54.296875 C-18.94070913 52.74714799 -23.21354897 51.27697013 -27.1875 47.8125 C-27.625 45.125 -27.625 45.125 -27.1875 42.8125 C-26.6925 42.3175 -26.6925 42.3175 -26.1875 41.8125 C-22.22641876 42.1496133 -18.76026865 42.92074283 -15 44.1875 C-0.71677527 48.47669323 13.7009951 49.11606236 28.5 49.1875 C29.23000214 49.19526459 29.96000427 49.20302917 30.71212769 49.21102905 C40.39143696 49.29213261 49.52237529 48.44446357 59.01879883 46.55322266 C62.61537669 45.85098846 66.18250178 45.29964134 69.8125 44.8125 C64.14765609 34.77107887 56.24744987 29.31488954 45.8125 24.8125 C44.86375 25.72 43.915 26.6275 42.9375 27.5625 C33.29206099 35.85522501 21.00944451 36.5323278 8.84765625 35.99609375 C1.65331173 35.34708378 -4.17735473 31.82264527 -9.1875 26.8125 C-11.73864446 22.52234011 -11.93863574 18.6910887 -11.1875 13.8125 C-5.92482663 -0.50784228 -5.92482663 -0.50784228 0 0 Z " fill="#EA232D" transform="translate(663.1875,541.1875)"/>
<path d="M0 0 C1.00792099 -0.00622879 2.01584198 -0.01245758 3.05430603 -0.01887512 C4.1418367 -0.00966537 5.22936737 -0.00045563 6.34985352 0.0090332 C7.46812027 0.0085347 8.58638702 0.00803619 9.73854065 0.00752258 C12.10484594 0.00986439 14.47115366 0.01959909 16.83740234 0.03613281 C20.46091998 0.05969843 24.08370075 0.05669759 27.70727539 0.05004883 C30.00480582 0.0556264 32.30233315 0.06273678 34.59985352 0.0715332 C35.68535995 0.0706218 36.77086639 0.06971039 37.88926697 0.06877136 C38.90034012 0.07830338 39.91141327 0.08783539 40.953125 0.09765625 C41.84120346 0.10226364 42.72928192 0.10687103 43.64427185 0.11161804 C46.23242361 0.39310543 47.85086514 0.98131127 50.04125977 2.37231445 C51.26103305 4.81186103 51.2427979 6.52537294 51.29125977 9.24731445 C51.31704102 10.11098633 51.34282227 10.9746582 51.36938477 11.86450195 C50.95287854 15.04779956 50.37563105 16.15011987 48.04125977 18.37231445 C45.26710276 18.79849206 42.87117887 18.97713731 40.09204102 18.98168945 C39.31942429 18.99822571 38.54680756 19.01476196 37.7507782 19.03179932 C35.28502515 19.08035304 32.81988904 19.10166533 30.35375977 19.12231445 C28.68120256 19.15046817 27.00867419 19.18039476 25.33618164 19.2121582 C21.23758865 19.28945177 17.14095586 19.32989649 13.04125977 19.37231445 C13.04125977 25.31231445 13.04125977 31.25231445 13.04125977 37.37231445 C15.11149414 37.42129883 17.18172852 37.4702832 19.31469727 37.52075195 C21.31699536 37.57637134 23.31929223 37.63205843 25.3215332 37.68969727 C26.71434549 37.72800772 28.10725741 37.76285704 29.50024414 37.79418945 C31.50112284 37.83979353 33.50168123 37.89883068 35.50219727 37.95825195 C36.70666504 37.98967285 37.91113281 38.02109375 39.15209961 38.0534668 C42.04125977 38.37231445 42.04125977 38.37231445 44.04125977 40.37231445 C44.30688477 43.0871582 44.30688477 43.0871582 44.29125977 46.30981445 C44.29899414 47.90116211 44.29899414 47.90116211 44.30688477 49.5246582 C44.04125977 52.37231445 44.04125977 52.37231445 42.04125977 55.37231445 C39.15209961 55.8046875 39.15209961 55.8046875 35.50219727 55.8840332 C34.20024414 55.91948242 32.89829102 55.95493164 31.55688477 55.99145508 C30.17668167 56.01455677 28.7964732 56.03733909 27.41625977 56.05981445 C26.02820625 56.0929789 24.6401837 56.12746776 23.25219727 56.16333008 C19.84884377 56.24605048 16.44506351 56.310851 13.04125977 56.37231445 C13.04125977 63.30231445 13.04125977 70.23231445 13.04125977 77.37231445 C15.61680664 77.42129883 18.19235352 77.4702832 20.84594727 77.52075195 C23.33477696 77.5747305 25.82350875 77.63205019 28.31225586 77.68969727 C30.04460383 77.72802786 31.77703251 77.76287352 33.50952148 77.79418945 C35.99695725 77.8397521 38.48383543 77.89775948 40.97094727 77.95825195 C41.74808075 77.96980316 42.52521423 77.98135437 43.32589722 77.99325562 C48.81351635 78.14457104 48.81351635 78.14457104 51.04125977 80.37231445 C51.34204102 83.05200195 51.34204102 83.05200195 51.35375977 86.24731445 C51.37051758 87.29661133 51.38727539 88.3459082 51.40454102 89.42700195 C50.98939581 92.79280285 50.38658321 93.96626204 48.04125977 96.37231445 C45.68859863 96.86679077 45.68859863 96.86679077 42.88305664 96.8581543 C41.30627136 96.86738419 41.30627136 96.86738419 39.69763184 96.87680054 C37.99600891 96.85524399 37.99600891 96.85524399 36.26000977 96.83325195 C35.09497925 96.83233551 33.92994873 96.83141907 32.72961426 96.83047485 C30.26493255 96.82442931 27.80025852 96.80865504 25.33569336 96.78393555 C21.55628483 96.74745946 17.77785705 96.74291588 13.99829102 96.7434082 C11.60635543 96.7335763 9.21442651 96.72191899 6.82250977 96.70825195 C5.68809448 96.70602631 4.5536792 96.70380066 3.3848877 96.70150757 C2.33369751 96.68874786 1.28250732 96.67598816 0.19946289 96.6628418 C-1.1892804 96.6514064 -1.1892804 96.6514064 -2.6060791 96.63973999 C-4.95874023 96.37231445 -4.95874023 96.37231445 -7.95874023 94.37231445 C-8.26079517 91.45839049 -8.36803557 88.75618896 -8.34692383 85.83935547 C-8.35218079 84.95630737 -8.35743774 84.07325928 -8.362854 83.16345215 C-8.37609555 80.2341969 -8.36730052 77.30548182 -8.35717773 74.3762207 C-8.35919746 72.34602249 -8.36210804 70.31582499 -8.36587524 68.28562927 C-8.37030438 64.02596139 -8.36384925 59.76648195 -8.34985352 55.50683594 C-8.33277222 50.04102586 -8.3425925 44.57565802 -8.36057091 39.10986423 C-8.37140209 34.91575274 -8.36796526 30.72174639 -8.36018753 26.52763176 C-8.35818312 24.512155 -8.36065322 22.49666877 -8.36762619 20.48120308 C-8.37522847 17.66543358 -8.36365314 14.85038375 -8.34692383 12.03466797 C-8.35299652 11.19767868 -8.35906921 10.36068939 -8.36532593 9.49833679 C-8.3024563 3.79868127 -8.3024563 3.79868127 -6.57680607 1.65807724 C-4.3387383 -0.12035735 -2.8378263 -0.00201311 0 0 Z " fill="#FEFDFD" transform="translate(254.958740234375,453.627685546875)"/>
<path d="M0 0 C2.7390485 -0.30400756 5.20263633 -0.41829599 7.9375 -0.375 C8.66646484 -0.38660156 9.39542969 -0.39820313 10.14648438 -0.41015625 C15.39201335 -0.38130824 15.39201335 -0.38130824 17.71138 1.07331848 C19.65095618 3.97327781 19.3931975 6.85647112 19.34057617 10.2253418 C19.34123329 11.3232756 19.34123329 11.3232756 19.34190369 12.44338989 C19.33981398 14.86227105 19.31647515 17.28045871 19.29296875 19.69921875 C19.28737342 21.37644573 19.28310303 23.05367762 19.28010559 24.73091125 C19.26865178 29.14512675 19.23918011 33.55904605 19.20599365 37.97314453 C19.17530425 42.4774983 19.16160268 46.98189994 19.14648438 51.48632812 C19.11431083 60.32434887 19.06310808 69.16214981 19 78 C19.86278564 77.97381592 20.72557129 77.94763184 21.61450195 77.9206543 C24.8180525 77.83540182 28.02102496 77.77273732 31.2253418 77.7253418 C32.61160304 77.70020781 33.99773187 77.66609408 35.38354492 77.62280273 C37.37621037 77.56211604 39.36984533 77.53645121 41.36328125 77.51171875 C42.56251221 77.48553467 43.76174316 77.45935059 44.99731445 77.43237305 C48 78 48 78 49.88989258 80.38574219 C51.00102576 83.00241562 51.40445161 84.74005439 51.375 87.5625 C51.38660156 88.67818359 51.38660156 88.67818359 51.3984375 89.81640625 C50.88578986 92.62591636 49.94313158 93.91617912 48 96 C45.8371582 96.5146637 45.8371582 96.5146637 43.30078125 96.53344727 C41.87415161 96.55720177 41.87415161 96.55720177 40.41870117 96.58143616 C39.39365479 96.57647629 38.3686084 96.57151642 37.3125 96.56640625 C36.25844971 96.57260483 35.20439941 96.57880341 34.1184082 96.58518982 C31.88916956 96.59229594 29.65987794 96.58910025 27.43066406 96.57641602 C24.01268247 96.56255144 20.59743762 96.5966101 17.1796875 96.63476562 C15.01562433 96.63571678 12.85155772 96.63385821 10.6875 96.62890625 C9.66245361 96.64216446 8.63740723 96.65542267 7.58129883 96.66908264 C0.61869017 96.57733162 0.61869017 96.57733162 -2.14746094 93.99609375 C-3.25521972 90.10307661 -3.39000822 86.44480218 -3.328125 82.43359375 C-3.32670502 81.58249023 -3.32528503 80.73138672 -3.32382202 79.85449219 C-3.31462756 77.04850711 -3.28301881 74.24329842 -3.25 71.4375 C-3.23667844 69.48511265 -3.22415733 67.53271968 -3.21240234 65.58032227 C-3.16762964 59.38648108 -3.08538156 53.19339216 -3 47 C-2.97357589 44.88932363 -2.9472086 42.77864654 -2.92089844 40.66796875 C-2.85439045 35.56563327 -2.77291378 30.46374273 -2.67858887 25.36184692 C-2.64291896 23.4153384 -2.60978915 21.46878164 -2.57922363 19.52218628 C-2.53429959 16.80483573 -2.47626413 14.0880968 -2.4140625 11.37109375 C-2.40249115 10.56373779 -2.3909198 9.75638184 -2.3789978 8.92456055 C-2.27683428 5.11460219 -2.16222719 3.24334078 0 0 Z " fill="#FEFAFB" transform="translate(381,454)"/>
<path d="M0 0 C1.0209375 0.00193359 1.0209375 0.00193359 2.0625 0.00390625 C7.09338846 0.09338846 7.09338846 0.09338846 9.375 2.375 C9.56269518 4.81437054 9.62698605 7.13914728 9.60205078 9.57861328 C9.60234283 10.3201767 9.60263489 11.06174011 9.60293579 11.82577515 C9.60153994 14.28240571 9.58596698 16.73873478 9.5703125 19.1953125 C9.56658327 20.89639114 9.56373587 22.59747192 9.56173706 24.29855347 C9.55409349 28.78010976 9.53443884 33.26153683 9.5123291 37.74304199 C9.49188622 42.31435396 9.48273868 46.88568677 9.47265625 51.45703125 C9.45119359 60.42974434 9.41704896 69.40236143 9.375 78.375 C10.24302246 78.36452637 11.11104492 78.35405273 12.00537109 78.34326172 C15.22199528 78.30920284 18.43852767 78.28411233 21.65527344 78.26513672 C23.04820781 78.25507123 24.44112102 78.24141766 25.83398438 78.22412109 C27.8345436 78.1998978 29.83525615 78.18959186 31.8359375 78.1796875 C33.64263916 78.16397705 33.64263916 78.16397705 35.48583984 78.14794922 C38.375 78.375 38.375 78.375 40.375 80.375 C40.67578125 83.30859375 40.67578125 83.30859375 40.6875 86.8125 C40.70425781 87.96621094 40.72101563 89.11992188 40.73828125 90.30859375 C40.375 93.375 40.375 93.375 39.13452148 95.04338074 C36.89446596 96.73867182 35.65095089 96.74950677 32.859375 96.74731445 C31.94833008 96.75354324 31.03728516 96.75977203 30.09863281 96.76618958 C29.11733398 96.75697983 28.13603516 96.74777008 27.125 96.73828125 C26.1153418 96.73877975 25.10568359 96.73927826 24.06542969 96.73979187 C21.93031853 96.73745092 19.79520463 96.7277212 17.66015625 96.71118164 C14.38777041 96.68759206 11.11619923 96.69062031 7.84375 96.69726562 C5.77082846 96.69168884 3.69791037 96.68457896 1.625 96.67578125 C0.64370117 96.67669266 -0.33759766 96.67760406 -1.34863281 96.67854309 C-2.7152002 96.66424507 -2.7152002 96.66424507 -4.109375 96.6496582 C-5.31158691 96.64274712 -5.31158691 96.64274712 -6.53808594 96.63569641 C-8.625 96.375 -8.625 96.375 -11.625 94.375 C-11.93239043 91.49651312 -12.0447198 88.8317114 -12.02905273 85.94970703 C-12.03591599 85.0780188 -12.04277924 84.20633057 -12.04985046 83.30822754 C-12.06820572 80.41625848 -12.06426808 77.52482751 -12.05859375 74.6328125 C-12.06315192 72.62742942 -12.0684564 70.62204792 -12.07447815 68.6166687 C-12.08342681 64.40828111 -12.08096685 60.20008308 -12.07104492 55.99169922 C-12.05956299 50.59539566 -12.07974604 45.1997472 -12.10896206 39.80352974 C-12.12730056 35.65998161 -12.12703611 31.51659106 -12.12132454 27.37301254 C-12.12117098 25.38347328 -12.12724354 23.39392356 -12.13961601 21.40442276 C-12.1544769 18.62222391 -12.14388459 15.84124251 -12.12670898 13.05908203 C-12.13637695 12.23503876 -12.14604492 11.41099548 -12.15600586 10.5619812 C-12.10966468 6.98120569 -11.93632302 4.80829852 -9.81874084 1.86105347 C-6.65448437 -0.28243322 -3.68088266 -0.13397849 0 0 Z " fill="#FEFBFB" transform="translate(328.625,453.625)"/>
<path d="M0 0 C4.66654009 3.31842851 6.35088264 7.56963045 7.40234375 13.10546875 C8.82609174 26.62429494 10.16804386 44.5484162 2.9375 56.6875 C-0.37247634 60.28953308 -2.70873096 61.75353849 -7.5625 62.5625 C-12.59321037 61.78187253 -15.02909772 59.91456544 -18.1875 56 C-21.64915033 48.53466156 -21.64397546 40.70012345 -21.5625 32.625 C-21.57410156 31.48289062 -21.58570313 30.34078125 -21.59765625 29.1640625 C-21.56441063 19.41201376 -20.83743985 8.65750649 -14.1875 1 C-9.92813498 -2.23124243 -4.86190001 -1.52530196 0 0 Z " fill="#EB2731" transform="translate(477.1875,472)"/>
<path d="M0 0 C2.75141192 -0.24905022 5.25669812 -0.32673572 8 -0.25 C9.10601563 -0.24226563 9.10601563 -0.24226563 10.234375 -0.234375 C15.69055451 -0.15472274 15.69055451 -0.15472274 18 1 C18.18952806 41.97013468 18.18952806 41.97013468 17.625 54.9375 C17.59414307 55.76209717 17.56328613 56.58669434 17.53149414 57.4362793 C17.24990957 62.75009043 17.24990957 62.75009043 15 65 C12.3203125 65.30078125 12.3203125 65.30078125 9.125 65.3125 C8.07570313 65.32925781 7.02640625 65.34601563 5.9453125 65.36328125 C2.54649505 64.94406371 1.39274256 64.41826431 -1 62 C-1.54589844 59.15039062 -1.54589844 59.15039062 -1.609375 55.65625 C-1.64184326 54.35905029 -1.67431152 53.06185059 -1.70776367 51.7253418 C-1.72263959 50.31690273 -1.73670073 48.90845484 -1.75 47.5 C-1.77643277 46.06353309 -1.80419601 44.62709008 -1.83325195 43.19067383 C-1.90169541 39.51312744 -1.94386702 35.83578452 -1.97784424 32.15777588 C-1.99927753 30.07036189 -2.02897251 27.98325567 -2.06201172 25.89599609 C-2.11838773 22.15980421 -2.15776393 18.42399054 -2.1875 14.6875 C-2.20071289 13.55054688 -2.21392578 12.41359375 -2.22753906 11.2421875 C-2.22850586 10.19675781 -2.22947266 9.15132813 -2.23046875 8.07421875 C-2.23457764 7.16244873 -2.23868652 6.25067871 -2.24291992 5.3112793 C-2 3 -2 3 0 0 Z " fill="#FEFBFB" transform="translate(520,454)"/>
<path d="M0 0 C1.8125 0.8125 1.8125 0.8125 2.8125 1.8125 C3.27606303 7.0302792 2.82624902 10.97950235 0.8125 15.8125 C0.71633904 18.50055807 0.71633904 18.50055807 1.8125 20.8125 C8.45957383 24.34529665 17.58761486 23.79477184 24.76953125 22.125 C29.80704081 20.26785362 33.46501306 17.79325092 37.14453125 13.88671875 C38.8125 12.8125 38.8125 12.8125 41.08984375 12.88671875 C44.59041762 14.07701431 47.50887938 15.8998067 50.5625 17.9375 C51.17432129 18.34274902 51.78614258 18.74799805 52.41650391 19.16552734 C53.64543038 19.98664282 54.87092801 20.81291557 56.09277344 21.64453125 C57.62617145 22.68595318 59.17536728 23.70402712 60.7265625 24.71875 C62.99463989 26.30280405 64.97917727 27.74046337 66.8125 29.8125 C67.1875 33.5625 67.1875 33.5625 66.8125 36.8125 C68.16679841 38.75619738 68.16679841 38.75619738 69.8125 39.8125 C69.3175 40.8025 69.3175 40.8025 68.8125 41.8125 C68.15765625 41.08804688 67.5028125 40.36359375 66.828125 39.6171875 C60.50774309 32.84760576 54.49782895 28.40486119 45.8125 24.8125 C44.86375 25.72 43.915 26.6275 42.9375 27.5625 C33.29206099 35.85522501 21.00944451 36.5323278 8.84765625 35.99609375 C1.65331173 35.34708378 -4.17735473 31.82264527 -9.1875 26.8125 C-11.73864446 22.52234011 -11.93863574 18.6910887 -11.1875 13.8125 C-5.92482663 -0.50784228 -5.92482663 -0.50784228 0 0 Z " fill="#EA232C" transform="translate(663.1875,541.1875)"/>
<path d="M0 0 C0.77859375 0.13277344 1.5571875 0.26554688 2.359375 0.40234375 C21.80786892 3.47197931 40.43456276 2.88590871 60 1 C57.91140115 8.25788101 53.87219816 13.4990795 47.49609375 17.6171875 C38.36472638 22.32925189 29.28209791 24.72264682 19.09375 22.3125 C11.31444676 19.74789454 5.52721959 16.24745175 1.5625 8.9375 C0.05253946 5.84808284 -0.14849911 3.42735935 0 0 Z " fill="#FEFAFA" transform="translate(661,598)"/>
<path d="M0 0 C194.04 0 388.08 0 588 0 C588 0.33 588 0.66 588 1 C587.30132813 1.06058594 586.60265625 1.12117187 585.8828125 1.18359375 C584.97273437 1.26738281 584.06265625 1.35117187 583.125 1.4375 C581.76761719 1.55931641 581.76761719 1.55931641 580.3828125 1.68359375 C577.98889139 1.86989285 577.98889139 1.86989285 576 3 C573.54388372 3.09440124 571.11685618 3.12735219 568.66064453 3.11523438 C567.50566782 3.11519661 567.50566782 3.11519661 566.32735825 3.11515808 C563.7208062 3.11331267 561.11434542 3.10370564 558.5078125 3.09375 C556.63689205 3.08994383 554.76597121 3.08632744 552.89505005 3.08288574 C528.48296429 3.02369512 504.07157035 2.7730583 479.66070557 2.53643799 C473.2425673 2.47466244 466.82440775 2.4151794 460.40625 2.35546875 C447.93747892 2.23914635 435.46873226 2.12040632 423 2 C423 2.66 423 3.32 423 4 C422.34 3.67 421.68 3.34 421 3 C418.78333892 2.90035109 416.56358404 2.86789651 414.34468746 2.86412811 C413.30185554 2.86031418 413.30185554 2.86031418 412.23795632 2.8564232 C409.88493709 2.84904542 407.53196985 2.84882681 405.17893982 2.84851074 C403.48420917 2.84466356 401.78947947 2.84037661 400.09475094 2.83568525 C395.4191974 2.82400834 390.74365362 2.81855238 386.06808841 2.81405044 C381.03245053 2.8081154 375.99682574 2.79644406 370.9611969 2.78541565 C362.22843711 2.76703955 353.49567703 2.75220442 344.76290703 2.73963928 C332.126859 2.72136692 319.4908296 2.69670086 306.8547963 2.67026538 C286.3425753 2.62743561 265.83034915 2.58833242 245.31811523 2.55224609 C244.08947375 2.55008329 242.86083226 2.54792049 241.59495921 2.54569215 C232.8758063 2.5303673 224.15665317 2.51517274 215.4375 2.5 C205.4898273 2.48268301 195.54215473 2.4652953 185.59448242 2.44775391 C183.75694027 2.4445156 183.75694027 2.4445156 181.88227605 2.44121188 C161.45718782 2.40509683 141.03210883 2.36513944 120.60703331 2.32245111 C108.00376583 2.29629823 95.40050115 2.2736382 82.79721958 2.25546753 C74.15831632 2.24279452 65.519424 2.22666605 56.88053202 2.20781839 C51.89522184 2.19706762 46.90992224 2.18794512 41.92460251 2.18312263 C37.35920232 2.17868137 32.79383405 2.16971437 28.22844911 2.15717942 C26.57829538 2.15345116 24.92813688 2.15138316 23.27797895 2.15115923 C15.45930497 2.14926685 7.75537915 2.10088835 0 1 C0 0.67 0 0.34 0 0 Z " fill="#D92A35" transform="translate(219,788)"/>
<path d="M0 0 C3 0.25 3 0.25 5 2.25 C5.64016974 4.92814128 6.17345912 7.53959692 6.625 10.25 C6.75326172 11.01731445 6.88152344 11.78462891 7.01367188 12.57519531 C9.33862058 27.15840534 9.33862058 27.15840534 6 32.375 C1.85757508 34.96401558 -0.16200259 34.86434888 -5 34.25 C-8.23613354 32.50746655 -8.82395315 31.77814056 -10 28.25 C-10.90280512 18.56419074 -9.7351464 10.80196137 -5 2.25 C-3 0.25 -3 0.25 0 0 Z " fill="#FDFAFA" transform="translate(816,585.75)"/>
<path d="M0 0 C3.54181128 2.77601425 5.71949785 5.82519761 6.30078125 10.33203125 C6.32758425 16.00533255 5.91594021 20.07306655 3 25 C0.27900424 27.27975321 -1.50900662 27.91816777 -5 28.5 C-9.06783222 27.82202796 -10.42565866 26.14641719 -13 23 C-16.04648541 18.07875434 -15.6129361 12.59117322 -15 7 C-13.78795224 3.72622152 -11.9309058 1.7383046 -9.1875 -0.4375 C-5.8298416 -1.30089787 -3.34038557 -0.83509639 0 0 Z " fill="#E9252E" transform="translate(730,508)"/>
<path d="M0 0 C3.54005678 3.06804921 5.81640335 5.10108607 6.2734375 9.828125 C6.58134921 20.20238095 6.58134921 20.20238095 3.625 23.75 C0.84329864 26.13431545 -0.17669712 26.88773143 -3.75 27.375 C-8.17217638 26.86474888 -9.92476216 25.14512961 -13 22 C-15.59805648 17.74863485 -15.69252178 12.84765247 -15 8 C-11.70638855 1.41277711 -7.46090792 -2.48696931 0 0 Z " fill="#EA2730" transform="translate(652,505)"/>
<path d="M0 0 C2.6875 1.6875 2.6875 1.6875 4.6875 4.6875 C5.37619056 9.86068721 5.52963522 14.28394131 2.8125 18.8125 C-1.13558528 22.29610466 -4.49591877 22.01674245 -9.60546875 21.9765625 C-13.22500576 21.59006071 -14.95989102 20.43221048 -17.3125 17.6875 C-18.66978648 13.61564056 -18.9718499 9.94066911 -18.3125 5.6875 C-14.35259763 -1.6971828 -7.5198986 -2.97958246 0 0 Z " fill="#FEFCFC" transform="translate(535.3125,528.3125)"/>
<path d="M0 0 C2.56445174 2.99186037 2.80301927 5.30054053 2.875 9.1875 C2.215 9.8475 1.555 10.5075 0.875 11.1875 C-2.88589689 10.78039261 -6.22690171 9.44972294 -9.75 8.125 C-17.44990147 5.51742601 -24.22617844 5.78236095 -32.1875 6.8125 C-34.1365625 6.998125 -34.1365625 6.998125 -36.125 7.1875 C-38.125 5.1875 -38.125 5.1875 -38.4375 2.75 C-38.06130299 -0.33481549 -37.48115147 -0.87951542 -35.125 -2.8125 C-23.07258032 -8.2765634 -11.18798721 -6.48903258 0 0 Z " fill="#E9232C" transform="translate(744.125,484.8125)"/>
<path d="M0 0 C2.625 1.8125 2.625 1.8125 4 4 C4.25 7.25 4.25 7.25 4 10 C2.741875 10.020625 1.48375 10.04125 0.1875 10.0625 C-0.52019531 10.07410156 -1.22789062 10.08570313 -1.95703125 10.09765625 C-4 10 -4 10 -7 9 C-14.98509244 8.30810989 -21.3581803 8.96030552 -28.66015625 12.3203125 C-31 13 -31 13 -33.30859375 12.1171875 C-34.14583984 11.56417969 -34.14583984 11.56417969 -35 11 C-35 7.8125 -35 7.8125 -34 4 C-24.51162748 -4.74107827 -11.35367644 -4.82738433 0 0 Z " fill="#E9222B" transform="translate(661,479)"/>
<path d="M0 0 C2.69990662 1.79993774 4.5418865 3.083773 6 6 C6.53118252 10.91996928 6.75105553 14.77327597 4.125 19.0625 C1.37440779 21.5703929 0.44867818 21.95767187 -3.3125 22.3125 C-7.57536111 21.95124058 -9.01992054 20.98007946 -12 18 C-13.60632723 14.78734554 -13.47931944 11.48478188 -13 8 C-9.81014091 2.06026239 -6.93763215 -0.83251586 0 0 Z " fill="#E9232C" transform="translate(759,324)"/>
<path d="M0 0 C3.9375 0.625 3.9375 0.625 6.375 2.4375 C9.29301651 6.52272312 9.47115587 10.75539015 8.9375 15.625 C7.33107553 19.23945505 5.51156313 21.83796843 1.9375 23.625 C-2.10113328 23.625 -4.28276689 23.2247947 -7.5 20.75 C-9.85123042 16.04753917 -9.91351566 11.77628061 -9.0625 6.625 C-7.29939045 2.3675373 -4.62191992 0.28509039 0 0 Z " fill="#E9222B" transform="translate(701.0625,317.375)"/>
<path d="M0 0 C0.33 0 0.66 0 1 0 C1 30.69 1 61.38 1 93 C0.01 92.34 -0.98 91.68 -2 91 C-2.2861598 88.12915505 -2.37812186 85.47495711 -2.34057617 82.60302734 C-2.34101425 81.73466751 -2.34145233 80.86630768 -2.34190369 79.97163391 C-2.33980867 77.09284206 -2.3164442 74.21462798 -2.29296875 71.3359375 C-2.28737533 69.3433972 -2.28310403 67.35085278 -2.28010559 65.35830688 C-2.26863684 60.10730653 -2.23915221 54.85655408 -2.20599365 49.60565186 C-2.17533647 44.25015619 -2.16160957 38.89462057 -2.14648438 33.5390625 C-2.11428445 23.02593259 -2.06306362 12.51298689 -2 2 C-1.34 2 -0.68 2 0 2 C0 1.34 0 0.68 0 0 Z " fill="#EB353C" transform="translate(246,456)"/>
<path d="M0 0 C4.13799994 1.35425453 5.3971146 2.28907545 7.4375 6.125 C8.2705779 10.37627383 7.87889882 13.27751426 5.875 17.125 C3.4375 19.125 3.4375 19.125 -0.0625 19.6875 C-4.02795673 19.05019445 -5.16313397 18.2626325 -7.5625 15.125 C-9.17749021 11.89501957 -9.14226204 8.61690008 -8.5625 5.125 C-5.93097286 1.21758091 -4.7476689 0.16658487 0 0 Z " fill="#E9222A" transform="translate(652.5625,327.875)"/>
<path d="M0 0 C2 1.5 2 1.5 3 4 C3.27441675 8.66508475 2.84999052 11.95001171 -0.125 15.625 C-3.91272161 17.43651903 -5.99418142 17.11272738 -10 16 C-11.9375 14.9375 -11.9375 14.9375 -13 13 C-13.5375463 8.2388756 -13.71502323 6.12020305 -11.125 2.0625 C-7.33781898 -1.61329334 -5.07330461 -1.15706947 0 0 Z " fill="#E9222B" transform="translate(812,345)"/>
<path d="M0 0 C1.875 1.1875 1.875 1.1875 3 3 C3.42822025 5.85480169 3.40659584 7.34492892 1.875 9.8125 C-0.87155972 11.55198782 -2.81846974 11.39769128 -6 11 C-7.875 9.8125 -7.875 9.8125 -9 8 C-9.42822025 5.14519831 -9.40659584 3.65507108 -7.875 1.1875 C-5.12844028 -0.55198782 -3.18153026 -0.39769128 0 0 Z " fill="#E81F27" transform="translate(730,332)"/>
<path d="M0 0 C3.125 0.1875 3.125 0.1875 6.125 2.1875 C6.5 5.6875 6.5 5.6875 6.125 9.1875 C3.125 11.1875 3.125 11.1875 0.0625 10.9375 C-2.875 10.1875 -2.875 10.1875 -4.875 8.1875 C-4.18071538 0.27265535 -4.18071538 0.27265535 0 0 Z " fill="#EB2C35" transform="translate(778.875,342.8125)"/>
<path d="M0 0 C2.8125 -0.3125 2.8125 -0.3125 6 0 C7.9375 2.0625 7.9375 2.0625 9 5 C8.6875 8.8125 8.6875 8.8125 8 12 C6.3125 12.8125 6.3125 12.8125 4 13 C1.1875 11.0625 1.1875 11.0625 -1 8 C-1.12797349 5.10993203 -0.63119729 2.86466462 0 0 Z " fill="#E9242C" transform="translate(611,350)"/>
<path d="M0 0 C3 0.25 3 0.25 5 2.25 C4.42307692 8.82692308 4.42307692 8.82692308 3 10.25 C-0.4375 10.5 -0.4375 10.5 -4 10.25 C-6 7.25 -6 7.25 -5.75 4.6875 C-4.63523671 1.06451932 -3.80176857 0.31681405 0 0 Z " fill="#E91E26" transform="translate(676,334.75)"/>
<path d="M0 0 C4.52405271 1.46366411 7.71041402 3.55741002 11 7 C11.1875 10.625 11.1875 10.625 11 14 C12.35429841 15.94369738 12.35429841 15.94369738 14 17 C13.67 17.66 13.34 18.32 13 19 C12.29875 18.26394531 11.5975 17.52789063 10.875 16.76953125 C5.60664292 11.322428 0.71037657 6.67171548 -6 3 C-5.34 2.67 -4.68 2.34 -4 2 C-1.96855359 2.93446535 0.03533587 3.93224776 2 5 C1.34 3.35 0.68 1.7 0 0 Z " fill="#E91A21" transform="translate(719,564)"/>
<path d="M0 0 C1.875 0.75 1.875 0.75 2.875 1.75 C3.18367281 5.22256915 3.26201339 7.1372288 1.375 10.125 C0.88 10.66125 0.385 11.1975 -0.125 11.75 C-5 10.875 -5 10.875 -6.125 9.75 C-5.66774354 3.57703777 -5.66774354 3.57703777 -3.8125 0.75 C-2.125 -0.25 -2.125 -0.25 0 0 Z " fill="#E71E26" transform="translate(839.125,376.25)"/>
<path d="M0 0 C0.66 0.66 1.32 1.32 2 2 C1.8125 5 1.8125 5 1 8 C-2 10 -2 10 -4.625 9.6875 C-7 9 -7 9 -8 8 C-8.29573841 5.19048514 -8.38243085 3.58371024 -6.8125 1.1875 C-4.3864306 -0.40199375 -2.84602594 -0.36487512 0 0 Z " fill="#E71D26" transform="translate(826,367)"/>
<path d="M0 0 C2.5 0.25 2.5 0.25 4.5 2.25 C4.75 4.75 4.75 4.75 4.5 7.25 C3.84 7.91 3.18 8.57 2.5 9.25 C-3.06818182 8.68181818 -3.06818182 8.68181818 -4.5 7.25 C-4.6875 4.8125 -4.6875 4.8125 -4.5 2.25 C-2.5 0.25 -2.5 0.25 0 0 Z " fill="#E81F27" transform="translate(634.5,345.75)"/>
<path d="M0 0 C-1.75 4.875 -1.75 4.875 -4 6 C-3.67 5.01 -3.34 4.02 -3 3 C-7.38173011 3.95601384 -11.75159309 4.93146987 -16.1015625 6.0234375 C-16.8344751 6.20422852 -17.5673877 6.38501953 -18.32250977 6.57128906 C-19.78579147 6.93300273 -21.2473351 7.30184231 -22.70678711 7.67871094 C-27.59264598 8.87515549 -31.96942487 9.16976069 -37 9 C-37 8.67 -37 8.34 -37 8 C-36.35039307 7.86424561 -35.70078613 7.72849121 -35.03149414 7.58862305 C-32.04065673 6.96035842 -29.0515988 6.32398291 -26.0625 5.6875 C-25.04091797 5.47416016 -24.01933594 5.26082031 -22.96679688 5.04101562 C-17.45320374 3.86078962 -12.14394721 2.51326573 -6.84375 0.58007812 C-4.51510897 -0.15255576 -2.42199094 -0.23438622 0 0 Z " fill="#E71217" transform="translate(776,414)"/>
<path d="M0 0 C3.40510274 3.09554795 4.90814344 5.46905739 5.1875 10.125 C5 13 5 13 4 15 C1.6875 14.875 1.6875 14.875 -1 14 C-2.875 11.0625 -2.875 11.0625 -4 8 C-3.67 7.34 -3.34 6.68 -3 6 C-2.54625 6.969375 -2.0925 7.93875 -1.625 8.9375 C-0.34213779 12.07079582 -0.34213779 12.07079582 2 13 C2 12.34 2 11.68 2 11 C1.34 11 0.68 11 0 11 C-0.33 10.01 -0.66 9.02 -1 8 C-0.67 7.360625 -0.34 6.72125 0 6.0625 C1.22866351 4.03474079 1.22866351 4.03474079 0.625 1.75 C0.41875 1.1725 0.2125 0.595 0 0 Z " fill="#E71C23" transform="translate(744,588)"/>
<path d="M0 0 C0.56203125 0.25652344 1.1240625 0.51304687 1.703125 0.77734375 C1.26881135 6.2062644 0.07543661 9.48531079 -3.296875 13.77734375 C-4.286875 14.27234375 -4.286875 14.27234375 -5.296875 14.77734375 C-4.966875 12.13734375 -4.636875 9.49734375 -4.296875 6.77734375 C-3.306875 6.77734375 -2.316875 6.77734375 -1.296875 6.77734375 C-0.966875 5.12734375 -0.636875 3.47734375 -0.296875 1.77734375 C-0.83957031 2.28265625 -1.38226562 2.78796875 -1.94140625 3.30859375 C-2.65683594 3.95828125 -3.37226562 4.60796875 -4.109375 5.27734375 C-5.17091797 6.251875 -5.17091797 6.251875 -6.25390625 7.24609375 C-8.296875 8.77734375 -8.296875 8.77734375 -11.296875 8.77734375 C-9.89609102 7.241869 -8.47566597 5.72429227 -7.046875 4.21484375 C-5.86351562 2.94447266 -5.86351562 2.94447266 -4.65625 1.6484375 C-2.296875 -0.22265625 -2.296875 -0.22265625 0 0 Z " fill="#E60F14" transform="translate(748.296875,637.22265625)"/>
<path d="M0 0 C0.66 0 1.32 0 2 0 C1.67 1.32 1.34 2.64 1 4 C0.01 4 -0.98 4 -2 4 C-2.10853983 6.22808159 -2.18583307 8.45769932 -2.25 10.6875 C-2.29640625 11.92886719 -2.3428125 13.17023437 -2.390625 14.44921875 C-1.83768736 19.47542187 0.55202826 21.55202826 4 25 C0.87018088 24.66466224 -0.00061159 23.99933599 -2.1875 21.625 C-5.38444501 16.99494171 -5.7086056 12.4730459 -5 7 C-3.76460232 4.28774055 -2.11878904 2.11878904 0 0 Z " fill="#E61319" transform="translate(642,506)"/>
<path d="M0 0 C5.875 0.875 5.875 0.875 7 2 C7.25 5.4375 7.25 5.4375 7 9 C4 11 4 11 0.9375 10.75 C-2 10 -2 10 -4 8 C-4.125 5.375 -4.125 5.375 -4 3 C-3.34 2.67 -2.68 2.34 -2 2 C-1.67 3.98 -1.34 5.96 -1 8 C0.65 8 2.3 8 4 8 C4.33 6.35 4.66 4.7 5 3 C2.03 2.505 2.03 2.505 -1 2 C-0.67 1.34 -0.34 0.68 0 0 Z " fill="#E8181E" transform="translate(778,343)"/>
<path d="M0 0 C1.9078584 3.1749094 2.1609041 5.10585211 1.625 8.75 C1.51414062 9.54921875 1.40328125 10.3484375 1.2890625 11.171875 C1.19367188 11.77515625 1.09828125 12.3784375 1 13 C0.34 13 -0.32 13 -1 13 C-1.103125 14.0725 -1.20625 15.145 -1.3125 16.25 C-1.97400493 19.85820872 -2.57483421 21.36395023 -5 24 C-4.731875 22.824375 -4.46375 21.64875 -4.1875 20.4375 C-2.67532085 13.64901229 -1.34831971 6.82249772 0 0 Z " fill="#E61116" transform="translate(505,511)"/>
<path d="M0 0 C2.97 0.99 5.94 1.98 9 3 C5 4 5 4 3 3 C2.67 3.99 2.34 4.98 2 6 C1.34 6.66 0.68 7.32 0 8 C-0.60311615 9.68761858 -1.13850237 11.40014476 -1.625 13.125 C-1.88539063 14.03507812 -2.14578125 14.94515625 -2.4140625 15.8828125 C-2.60742188 16.58148438 -2.80078125 17.28015625 -3 18 C-3.33 18 -3.66 18 -4 18 C-3.41312597 11.66176048 -1.93804094 6.06691078 0 0 Z " fill="#E6171C" transform="translate(631,416)"/>
<path d="M0 0 C0.33 0 0.66 0 1 0 C1.04241723 2.33294775 1.04092937 4.66702567 1 7 C-0.98119355 8.98119355 -4.73445064 8.18500411 -7.4375 8.1875 C-8.47874023 8.20586914 -8.47874023 8.20586914 -9.54101562 8.22460938 C-11.36220901 8.22989842 -13.1828692 8.12169207 -15 8 C-15.66 7.34 -16.32 6.68 -17 6 C-12.05 6 -7.1 6 -2 6 C-1.34 4.02 -0.68 2.04 0 0 Z " fill="#E6090F" transform="translate(537,512)"/>
<path d="M0 0 C1.875 -0.36328125 1.875 -0.36328125 4 -0.3125 C4.70125 -0.30863281 5.4025 -0.30476562 6.125 -0.30078125 C8 0 8 0 10 2 C9 3 9 3 6.49609375 3.09765625 C4.98208984 3.08025391 4.98208984 3.08025391 3.4375 3.0625 C2.42558594 3.05347656 1.41367187 3.04445313 0.37109375 3.03515625 C-0.41136719 3.02355469 -1.19382812 3.01195312 -2 3 C-1.34 2.01 -0.68 1.02 0 0 Z " fill="#EB3541" transform="translate(466,551)"/>
<path d="M0 0 C1.9078584 3.1749094 2.1609041 5.10585211 1.625 8.75 C1.51414062 9.54921875 1.40328125 10.3484375 1.2890625 11.171875 C1.19367188 11.77515625 1.09828125 12.3784375 1 13 C-0.9078584 9.8250906 -1.1609041 7.89414789 -0.625 4.25 C-0.51414062 3.45078125 -0.40328125 2.6515625 -0.2890625 1.828125 C-0.19367188 1.22484375 -0.09828125 0.6215625 0 0 Z " fill="#EA1E24" transform="translate(505,511)"/>
<path d="M0 0 C0.66 0.33 1.32 0.66 2 1 C-1.07999946 4.67230705 -3.2482602 5.56802365 -8 6 C-5.63404067 3.38499232 -3.13950774 1.61000397 0 0 Z " fill="#E91217" transform="translate(729,651)"/>
<path d="M0 0 C0.1953125 6.0546875 0.1953125 6.0546875 0 8 C-0.66 8.66 -1.32 9.32 -2 10 C-2.33 7.03 -2.66 4.06 -3 1 C-1 0 -1 0 0 0 Z " fill="#EA333D" transform="translate(612,491)"/>
<path d="M0 0 C2 3 2 3 1.8125 5.0625 C1 7 1 7 -2 9 C-1.125 1.125 -1.125 1.125 0 0 Z " fill="#E71A21" transform="translate(745,643)"/>
<path d="M0 0 C3.375 -0.1875 3.375 -0.1875 7 0 C7.66 0.99 8.32 1.98 9 3 C6.27584084 4.36207958 4.87220643 3.86166193 2 3 C1.34 2.01 0.68 1.02 0 0 Z " fill="#EB3642" transform="translate(819,526)"/>
<path d="M0 0 C0.33 0 0.66 0 1 0 C1 1.98 1 3.96 1 6 C0.67 6 0.34 6 0 6 C0 4.02 0 2.04 0 0 Z " fill="#DB313B" transform="translate(104,491)"/>
<path d="M0 0 C1.65 0 3.3 0 5 0 C5 0.33 5 0.66 5 1 C3.35 1 1.7 1 0 1 C0 0.67 0 0.34 0 0 Z " fill="#CD2B35" transform="translate(757,791)"/>
<path d="M0 0 C1.65 0 3.3 0 5 0 C5 0.33 5 0.66 5 1 C3.35 1 1.7 1 0 1 C0 0.67 0 0.34 0 0 Z " fill="#D32C35" transform="translate(597,791)"/>
<path d="M0 0 C1.65 0 3.3 0 5 0 C5 0.33 5 0.66 5 1 C3.35 1 1.7 1 0 1 C0 0.67 0 0.34 0 0 Z " fill="#D42D35" transform="translate(585,791)"/>
<path d="M0 0 C1.65 0 3.3 0 5 0 C5 0.33 5 0.66 5 1 C3.35 1 1.7 1 0 1 C0 0.67 0 0.34 0 0 Z " fill="#D42D35" transform="translate(504,791)"/>
<path d="M0 0 C1.65 0 3.3 0 5 0 C5 0.33 5 0.66 5 1 C3.35 1 1.7 1 0 1 C0 0.67 0 0.34 0 0 Z " fill="#D72D36" transform="translate(436,791)"/>
<path d="M0 0 C1.65 0 3.3 0 5 0 C5 0.33 5 0.66 5 1 C3.35 1 1.7 1 0 1 C0 0.67 0 0.34 0 0 Z " fill="#D42C36" transform="translate(404,791)"/>
<path d="M0 0 C0.33 0 0.66 0 1 0 C1 1.65 1 3.3 1 5 C0.67 5 0.34 5 0 5 C0 3.35 0 1.7 0 0 Z " fill="#D62F38" transform="translate(104,657)"/>
<path d="M0 0 C0.33 0 0.66 0 1 0 C1 1.65 1 3.3 1 5 C0.67 5 0.34 5 0 5 C0 3.35 0 1.7 0 0 Z " fill="#D9313B" transform="translate(104,475)"/>
<path d="M0 0 C0.33 0 0.66 0 1 0 C1 1.65 1 3.3 1 5 C0.67 5 0.34 5 0 5 C0 3.35 0 1.7 0 0 Z " fill="#D83139" transform="translate(104,411)"/>
<path d="M0 0 C4 1 4 1 4 1 Z " fill="#D32D35" transform="translate(656,791)"/>
<path d="M0 0 C4 1 4 1 4 1 Z " fill="#D42C34" transform="translate(420,791)"/>
<path d="M0 0 C0.99 0.495 0.99 0.495 2 1 C1.34 1.66 0.68 2.32 0 3 C0 2.01 0 1.02 0 0 Z " fill="#DA2F38" transform="translate(917,551)"/>
<path d="M0 0 C3 1 3 1 3 1 Z " fill="#D12C36" transform="translate(802,790)"/>
<path d="M0 0 C0.66 0.66 1.32 1.32 2 2 C1.34 2 0.68 2 0 2 C0 1.34 0 0.68 0 0 Z " fill="#D82F38" transform="translate(917,566)"/>
<path d="" fill="#DC303A" transform="translate(0,0)"/>
<path d="" fill="#DB3139" transform="translate(0,0)"/>
<path d="" fill="#DE303A" transform="translate(0,0)"/>
<path d="M0 0 C0.66 0 1.32 0 2 0 C1.67 0.66 1.34 1.32 1 2 C0.67 1.34 0.34 0.68 0 0 Z " fill="#D22E37" transform="translate(104,319)"/>
<path d="" fill="#D83037" transform="translate(0,0)"/>
<path d="M0 0 C0.33 0.66 0.66 1.32 1 2 C0.34 1.67 -0.32 1.34 -1 1 C-0.67 0.67 -0.34 0.34 0 0 Z " fill="#CE2E35" transform="translate(825,203)"/>
<path d="M0 0 C2 1 2 1 2 1 Z " fill="#CD2B32" transform="translate(782,791)"/>
<path d="M0 0 C2 1 2 1 2 1 Z " fill="#D02B34" transform="translate(773,791)"/>
<path d="M0 0 C2 1 2 1 2 1 Z " fill="#D02935" transform="translate(765,791)"/>
<path d="M0 0 C2 1 2 1 2 1 Z " fill="#D22D35" transform="translate(749,791)"/>
<path d="M0 0 C2 1 2 1 2 1 Z " fill="#D52D35" transform="translate(700,791)"/>
<path d="M0 0 C2 1 2 1 2 1 Z " fill="#D42D34" transform="translate(683,791)"/>
<path d="M0 0 C2 1 2 1 2 1 Z " fill="#D42A35" transform="translate(678,791)"/>
<path d="M0 0 C2 1 2 1 2 1 Z " fill="#D42E34" transform="translate(672,791)"/>
<path d="M0 0 C2 1 2 1 2 1 Z " fill="#D12C35" transform="translate(637,791)"/>
<path d="M0 0 C2 1 2 1 2 1 Z " fill="#D42C34" transform="translate(616,791)"/>
<path d="M0 0 C2 1 2 1 2 1 Z " fill="#D42C34" transform="translate(611,791)"/>
<path d="M0 0 C2 1 2 1 2 1 Z " fill="#D22C36" transform="translate(608,791)"/>
<path d="M0 0 C2 1 2 1 2 1 Z " fill="#D52C36" transform="translate(582,791)"/>
<path d="M0 0 C2 1 2 1 2 1 Z " fill="#D62D35" transform="translate(576,791)"/>
<path d="M0 0 C2 1 2 1 2 1 Z " fill="#D62D35" transform="translate(560,791)"/>
<path d="M0 0 C2 1 2 1 2 1 Z " fill="#D32E37" transform="translate(517,791)"/>
<path d="M0 0 C2 1 2 1 2 1 Z " fill="#D22D35" transform="translate(488,791)"/>
<path d="M0 0 C2 1 2 1 2 1 Z " fill="#D42C36" transform="translate(483,791)"/>
<path d="M0 0 C2 1 2 1 2 1 Z " fill="#D42E36" transform="translate(480,791)"/>
<path d="M0 0 C2 1 2 1 2 1 Z " fill="#D52C35" transform="translate(476,791)"/>
<path d="M0 0 C2 1 2 1 2 1 Z " fill="#D72D36" transform="translate(469,791)"/>
<path d="M0 0 C2 1 2 1 2 1 Z " fill="#D52D34" transform="translate(464,791)"/>
<path d="M0 0 C2 1 2 1 2 1 Z " fill="#D22C37" transform="translate(429,791)"/>
<path d="M0 0 C2 1 2 1 2 1 Z " fill="#D42D36" transform="translate(368,791)"/>
<path d="M0 0 C2 1 2 1 2 1 Z " fill="#CF2C34" transform="translate(308,791)"/>
<path d="M0 0 C2 1 2 1 2 1 Z " fill="#D22D37" transform="translate(264,791)"/>
<path d="" fill="#CE2E35" transform="translate(0,0)"/>
<path d="M0 0 C2 1 2 1 2 1 Z " fill="#D22B35" transform="translate(216,789)"/>
<path d="" fill="#D02A35" transform="translate(0,0)"/>
<path d="M0 0 C2 1 2 1 2 1 Z " fill="#CF2B35" transform="translate(136,750)"/>
<path d="" fill="#CB2B34" transform="translate(0,0)"/>
<path d="" fill="#D23038" transform="translate(0,0)"/>
<path d="M0 0 C2 1 2 1 2 1 Z " fill="#CD2C36" transform="translate(910,706)"/>
<path d="" fill="#D22E38" transform="translate(0,0)"/>
<path d="" fill="#D32D38" transform="translate(0,0)"/>
<path d="" fill="#D82F39" transform="translate(0,0)"/>
<path d="" fill="#D83039" transform="translate(0,0)"/>
<path d="" fill="#D93039" transform="translate(0,0)"/>
<path d="" fill="#DB2F3A" transform="translate(0,0)"/>
<path d="" fill="#DA313A" transform="translate(0,0)"/>
<path d="" fill="#DA3139" transform="translate(0,0)"/>
<path d="" fill="#DB303B" transform="translate(0,0)"/>
<path d="" fill="#DA3039" transform="translate(0,0)"/>
<path d="" fill="#DB313A" transform="translate(0,0)"/>
<path d="" fill="#DD313B" transform="translate(0,0)"/>
<path d="" fill="#DB313B" transform="translate(0,0)"/>
<path d="" fill="#D92F39" transform="translate(0,0)"/>
<path d="" fill="#D93039" transform="translate(0,0)"/>
<path d="" fill="#DB2F3B" transform="translate(0,0)"/>
<path d="" fill="#D62F38" transform="translate(0,0)"/>
<path d="" fill="#D82F3A" transform="translate(0,0)"/>
<path d="" fill="#DB323B" transform="translate(0,0)"/>
<path d="" fill="#D62E39" transform="translate(0,0)"/>
<path d="M0 0 C2 1 2 1 2 1 Z " fill="#CD2D36" transform="translate(855,217)"/>
<path d="M0 0 C2 1 2 1 2 1 Z " fill="#D02A35" transform="translate(836,208)"/>
<path d="" fill="#000000" transform="translate(0,0)"/>
<path d="" fill="#090000" transform="translate(0,0)"/>
<path d="" fill="#0D0101" transform="translate(0,0)"/>
<path d="" fill="#0F0200" transform="translate(0,0)"/>
<path d="" fill="#130102" transform="translate(0,0)"/>
<path d="" fill="#090000" transform="translate(0,0)"/>
<path d="" fill="#0B0000" transform="translate(0,0)"/>
<path d="" fill="#000000" transform="translate(0,0)"/>
<path d="" fill="#3F0C0F" transform="translate(0,0)"/>
<path d="" fill="#1F0306" transform="translate(0,0)"/>
<path d="" fill="#581114" transform="translate(0,0)"/>
<path d="" fill="#310807" transform="translate(0,0)"/>
<path d="" fill="#821C1F" transform="translate(0,0)"/>
<path d="" fill="#AA2526" transform="translate(0,0)"/>
<path d="" fill="#971F26" transform="translate(0,0)"/>
<path d="" fill="#250203" transform="translate(0,0)"/>
<path d="" fill="#CD2D35" transform="translate(0,0)"/>
<path d="" fill="#CF2B35" transform="translate(0,0)"/>
<path d="" fill="#CC2C34" transform="translate(0,0)"/>
<path d="" fill="#CE2B33" transform="translate(0,0)"/>
<path d="" fill="#CF2D34" transform="translate(0,0)"/>
<path d="" fill="#D32C35" transform="translate(0,0)"/>
<path d="" fill="#D42E35" transform="translate(0,0)"/>
<path d="" fill="#D22C34" transform="translate(0,0)"/>
<path d="" fill="#D22F35" transform="translate(0,0)"/>
<path d="" fill="#D32D36" transform="translate(0,0)"/>
<path d="" fill="#D42D36" transform="translate(0,0)"/>
<path d="" fill="#D42D37" transform="translate(0,0)"/>
<path d="" fill="#D52C34" transform="translate(0,0)"/>
<path d="" fill="#D72D35" transform="translate(0,0)"/>
<path d="" fill="#D82D35" transform="translate(0,0)"/>
<path d="" fill="#D42B33" transform="translate(0,0)"/>
<path d="" fill="#D62D36" transform="translate(0,0)"/>
<path d="" fill="#D62E35" transform="translate(0,0)"/>
<path d="" fill="#D62D37" transform="translate(0,0)"/>
<path d="" fill="#D42D36" transform="translate(0,0)"/>
<path d="" fill="#D22D35" transform="translate(0,0)"/>
<path d="" fill="#D12C35" transform="translate(0,0)"/>
<path d="" fill="#D52D36" transform="translate(0,0)"/>
<path d="" fill="#D42E35" transform="translate(0,0)"/>
<path d="" fill="#D12E37" transform="translate(0,0)"/>
<path d="" fill="#D62E37" transform="translate(0,0)"/>
<path d="" fill="#D52C36" transform="translate(0,0)"/>
<path d="" fill="#D72D36" transform="translate(0,0)"/>
<path d="" fill="#D52D36" transform="translate(0,0)"/>
<path d="" fill="#D72F36" transform="translate(0,0)"/>
<path d="" fill="#D72D37" transform="translate(0,0)"/>
<path d="" fill="#D33037" transform="translate(0,0)"/>
<path d="" fill="#D22D35" transform="translate(0,0)"/>
<path d="" fill="#CE2A36" transform="translate(0,0)"/>
<path d="" fill="#D02C33" transform="translate(0,0)"/>
<path d="" fill="#D52D37" transform="translate(0,0)"/>
<path d="" fill="#D73037" transform="translate(0,0)"/>
<path d="" fill="#D62D37" transform="translate(0,0)"/>
<path d="" fill="#D52B35" transform="translate(0,0)"/>
<path d="" fill="#D52D37" transform="translate(0,0)"/>
<path d="" fill="#D12B35" transform="translate(0,0)"/>
<path d="" fill="#D22E36" transform="translate(0,0)"/>
<path d="" fill="#D22F37" transform="translate(0,0)"/>
<path d="" fill="#D32D37" transform="translate(0,0)"/>
<path d="" fill="#D32C36" transform="translate(0,0)"/>
<path d="" fill="#D62E38" transform="translate(0,0)"/>
<path d="" fill="#D92D38" transform="translate(0,0)"/>
<path d="" fill="#D82E39" transform="translate(0,0)"/>
<path d="" fill="#D32B36" transform="translate(0,0)"/>
<path d="" fill="#D42B35" transform="translate(0,0)"/>
<path d="" fill="#D32C35" transform="translate(0,0)"/>
<path d="" fill="#D42C38" transform="translate(0,0)"/>
<path d="" fill="#D32D36" transform="translate(0,0)"/>
<path d="" fill="#D52C35" transform="translate(0,0)"/>
<path d="" fill="#D52C37" transform="translate(0,0)"/>
<path d="" fill="#D32C36" transform="translate(0,0)"/>
<path d="" fill="#D52D36" transform="translate(0,0)"/>
<path d="" fill="#D32A37" transform="translate(0,0)"/>
<path d="" fill="#D22C35" transform="translate(0,0)"/>
<path d="" fill="#CF2B34" transform="translate(0,0)"/>
<path d="" fill="#D12E35" transform="translate(0,0)"/>
<path d="" fill="#D12E35" transform="translate(0,0)"/>
<path d="" fill="#D42D36" transform="translate(0,0)"/>
<path d="" fill="#CE2F38" transform="translate(0,0)"/>
<path d="" fill="#D62E3A" transform="translate(0,0)"/>
<path d="" fill="#CE3036" transform="translate(0,0)"/>
<path d="" fill="#CD2932" transform="translate(0,0)"/>
<path d="" fill="#D13036" transform="translate(0,0)"/>
<path d="" fill="#D12E36" transform="translate(0,0)"/>
<path d="" fill="#D42B37" transform="translate(0,0)"/>
<path d="" fill="#CC2E34" transform="translate(0,0)"/>
<path d="" fill="#CE3136" transform="translate(0,0)"/>
<path d="" fill="#D22B34" transform="translate(0,0)"/>
<path d="" fill="#CA2A35" transform="translate(0,0)"/>
<path d="" fill="#992226" transform="translate(0,0)"/>
<path d="" fill="#D02C37" transform="translate(0,0)"/>
<path d="" fill="#D12C33" transform="translate(0,0)"/>
<path d="" fill="#D12C37" transform="translate(0,0)"/>
<path d="" fill="#D22A34" transform="translate(0,0)"/>
<path d="" fill="#D12B37" transform="translate(0,0)"/>
<path d="" fill="#D22F38" transform="translate(0,0)"/>
<path d="" fill="#D12F36" transform="translate(0,0)"/>
<path d="" fill="#D02E38" transform="translate(0,0)"/>
<path d="" fill="#D02A34" transform="translate(0,0)"/>
<path d="" fill="#C82932" transform="translate(0,0)"/>
<path d="" fill="#CE2D37" transform="translate(0,0)"/>
<path d="" fill="#CD2D36" transform="translate(0,0)"/>
<path d="" fill="#D22C35" transform="translate(0,0)"/>
<path d="" fill="#D32C38" transform="translate(0,0)"/>
<path d="" fill="#D12B32" transform="translate(0,0)"/>
<path d="" fill="#D12F37" transform="translate(0,0)"/>
<path d="" fill="#D43038" transform="translate(0,0)"/>
<path d="" fill="#D32F37" transform="translate(0,0)"/>
<path d="" fill="#D02E36" transform="translate(0,0)"/>
<path d="" fill="#D22E37" transform="translate(0,0)"/>
<path d="" fill="#D52F36" transform="translate(0,0)"/>
<path d="" fill="#D22F36" transform="translate(0,0)"/>
<path d="" fill="#D42F38" transform="translate(0,0)"/>
<path d="" fill="#D52E3A" transform="translate(0,0)"/>
<path d="" fill="#D83138" transform="translate(0,0)"/>
<path d="" fill="#D92F38" transform="translate(0,0)"/>
<path d="" fill="#D73037" transform="translate(0,0)"/>
<path d="" fill="#D32F37" transform="translate(0,0)"/>
<path d="" fill="#D12E36" transform="translate(0,0)"/>
<path d="" fill="#D62E3B" transform="translate(0,0)"/>
<path d="" fill="#D82D3B" transform="translate(0,0)"/>
<path d="" fill="#D42E38" transform="translate(0,0)"/>
<path d="" fill="#D93039" transform="translate(0,0)"/>
<path d="" fill="#D82D37" transform="translate(0,0)"/>
<path d="" fill="#BE2B32" transform="translate(0,0)"/>
<path d="" fill="#D72E3A" transform="translate(0,0)"/>
<path d="" fill="#D62F39" transform="translate(0,0)"/>
<path d="" fill="#D62E38" transform="translate(0,0)"/>
<path d="" fill="#D92F37" transform="translate(0,0)"/>
<path d="" fill="#D72F39" transform="translate(0,0)"/>
<path d="" fill="#D9313B" transform="translate(0,0)"/>
<path d="" fill="#D82F39" transform="translate(0,0)"/>
<path d="" fill="#DB3039" transform="translate(0,0)"/>
<path d="" fill="#D92F39" transform="translate(0,0)"/>
<path d="" fill="#D92F3A" transform="translate(0,0)"/>
<path d="" fill="#DA3039" transform="translate(0,0)"/>
<path d="" fill="#D92F3A" transform="translate(0,0)"/>
<path d="" fill="#D82F37" transform="translate(0,0)"/>
<path d="" fill="#DB303B" transform="translate(0,0)"/>
<path d="" fill="#DA3038" transform="translate(0,0)"/>
<path d="" fill="#D72D38" transform="translate(0,0)"/>
<path d="" fill="#DA3038" transform="translate(0,0)"/>
<path d="" fill="#DB303A" transform="translate(0,0)"/>
<path d="" fill="#DC313A" transform="translate(0,0)"/>
<path d="" fill="#DD303C" transform="translate(0,0)"/>
<path d="" fill="#D82E3A" transform="translate(0,0)"/>
<path d="" fill="#95232B" transform="translate(0,0)"/>
<path d="" fill="#DB2F39" transform="translate(0,0)"/>
<path d="" fill="#DD2F39" transform="translate(0,0)"/>
<path d="" fill="#D83039" transform="translate(0,0)"/>
<path d="" fill="#DD313A" transform="translate(0,0)"/>
<path d="" fill="#DC313A" transform="translate(0,0)"/>
<path d="" fill="#DA2F39" transform="translate(0,0)"/>
<path d="" fill="#DA2F39" transform="translate(0,0)"/>
<path d="" fill="#DC2F3A" transform="translate(0,0)"/>
<path d="" fill="#DA2F3B" transform="translate(0,0)"/>
<path d="" fill="#DB303A" transform="translate(0,0)"/>
<path d="" fill="#DF313B" transform="translate(0,0)"/>
<path d="" fill="#C02A31" transform="translate(0,0)"/>
<path d="" fill="#DB2F3A" transform="translate(0,0)"/>
<path d="" fill="#DA3038" transform="translate(0,0)"/>
<path d="" fill="#DA2F38" transform="translate(0,0)"/>
<path d="" fill="#D92E38" transform="translate(0,0)"/>
<path d="" fill="#DA303A" transform="translate(0,0)"/>
<path d="" fill="#DA2F3A" transform="translate(0,0)"/>
<path d="" fill="#DC3039" transform="translate(0,0)"/>
<path d="" fill="#DD303A" transform="translate(0,0)"/>
<path d="" fill="#D92E38" transform="translate(0,0)"/>
<path d="" fill="#DB313C" transform="translate(0,0)"/>
<path d="" fill="#DC303A" transform="translate(0,0)"/>
<path d="" fill="#DB313A" transform="translate(0,0)"/>
<path d="" fill="#CF2F35" transform="translate(0,0)"/>
<path d="" fill="#DD2E39" transform="translate(0,0)"/>
<path d="" fill="#D92F38" transform="translate(0,0)"/>
<path d="" fill="#D73139" transform="translate(0,0)"/>
<path d="" fill="#D93138" transform="translate(0,0)"/>
<path d="" fill="#D62F3B" transform="translate(0,0)"/>
<path d="" fill="#D83039" transform="translate(0,0)"/>
<path d="" fill="#DB3239" transform="translate(0,0)"/>
<path d="" fill="#DB2E39" transform="translate(0,0)"/>
<path d="" fill="#DB2F37" transform="translate(0,0)"/>
<path d="" fill="#DE2F38" transform="translate(0,0)"/>
<path d="" fill="#D92F39" transform="translate(0,0)"/>
<path d="" fill="#DA3138" transform="translate(0,0)"/>
<path d="" fill="#D82E3A" transform="translate(0,0)"/>
<path d="" fill="#DB313A" transform="translate(0,0)"/>
<path d="" fill="#D9303A" transform="translate(0,0)"/>
<path d="" fill="#D53039" transform="translate(0,0)"/>
<path d="" fill="#DB303B" transform="translate(0,0)"/>
<path d="" fill="#D22D39" transform="translate(0,0)"/>
<path d="" fill="#D23037" transform="translate(0,0)"/>
<path d="" fill="#D43038" transform="translate(0,0)"/>
<path d="" fill="#D63039" transform="translate(0,0)"/>
<path d="" fill="#D3313A" transform="translate(0,0)"/>
<path d="" fill="#D5303B" transform="translate(0,0)"/>
<path d="" fill="#D33139" transform="translate(0,0)"/>
<path d="" fill="#CE2E38" transform="translate(0,0)"/>
<path d="" fill="#D4313B" transform="translate(0,0)"/>
<path d="" fill="#D53036" transform="translate(0,0)"/>
<path d="" fill="#CD2D39" transform="translate(0,0)"/>
<path d="" fill="#D63038" transform="translate(0,0)"/>
<path d="" fill="#CF3036" transform="translate(0,0)"/>
<path d="" fill="#D73138" transform="translate(0,0)"/>
<path d="" fill="#CB2E35" transform="translate(0,0)"/>
<path d="" fill="#D4323A" transform="translate(0,0)"/>
<path d="" fill="#D02D36" transform="translate(0,0)"/>
<path d="" fill="#CF3038" transform="translate(0,0)"/>
<path d="" fill="#CE2D37" transform="translate(0,0)"/>
<path d="" fill="#D13038" transform="translate(0,0)"/>
<path d="" fill="#D13037" transform="translate(0,0)"/>
<path d="" fill="#D32D3A" transform="translate(0,0)"/>
<path d="" fill="#CF2D37" transform="translate(0,0)"/>
<path d="" fill="#CF2F34" transform="translate(0,0)"/>
<path d="" fill="#CC3035" transform="translate(0,0)"/>
<path d="" fill="#D02F38" transform="translate(0,0)"/>
<path d="" fill="#CE2C35" transform="translate(0,0)"/>
<path d="" fill="#CC2C39" transform="translate(0,0)"/>
<path d="" fill="#A9272A" transform="translate(0,0)"/>
<path d="" fill="#CE3035" transform="translate(0,0)"/>
<path d="" fill="#D12E36" transform="translate(0,0)"/>
<path d="" fill="#D02E34" transform="translate(0,0)"/>
<path d="" fill="#CD2D37" transform="translate(0,0)"/>
<path d="" fill="#D12F37" transform="translate(0,0)"/>
<path d="" fill="#CF3036" transform="translate(0,0)"/>
<path d="" fill="#D13036" transform="translate(0,0)"/>
<path d="" fill="#D22F37" transform="translate(0,0)"/>
<path d="" fill="#D02D36" transform="translate(0,0)"/>
<path d="" fill="#D42F37" transform="translate(0,0)"/>
<path d="" fill="#CD2C35" transform="translate(0,0)"/>
<path d="" fill="#CF2A35" transform="translate(0,0)"/>
<path d="" fill="#D12E35" transform="translate(0,0)"/>
<path d="" fill="#D02D34" transform="translate(0,0)"/>
<path d="" fill="#D22D35" transform="translate(0,0)"/>
<path d="" fill="#D02E33" transform="translate(0,0)"/>
<path d="" fill="#D12C36" transform="translate(0,0)"/>
<path d="" fill="#D32F37" transform="translate(0,0)"/>
<path d="" fill="#D12C34" transform="translate(0,0)"/>
<path d="" fill="#D32D34" transform="translate(0,0)"/>
<path d="" fill="#D22E34" transform="translate(0,0)"/>
<path d="" fill="#D12D36" transform="translate(0,0)"/>
<path d="" fill="#CE2C34" transform="translate(0,0)"/>
<path d="" fill="#D02C33" transform="translate(0,0)"/>
<path d="" fill="#CF2E36" transform="translate(0,0)"/>
<path d="" fill="#CE2E34" transform="translate(0,0)"/>
<path d="" fill="#B12930" transform="translate(0,0)"/>
<path d="" fill="#080100" transform="translate(0,0)"/>
<path d="" fill="#310A09" transform="translate(0,0)"/>
<path d="" fill="#0D0000" transform="translate(0,0)"/>
<path d="" fill="#090000" transform="translate(0,0)"/>
<path d="" fill="#0C0000" transform="translate(0,0)"/>
<path d="" fill="#090000" transform="translate(0,0)"/>
</svg>
