<?xml version="1.0" encoding="UTF-8"?>
<svg version="1.1" xmlns="http://www.w3.org/2000/svg" width="1024" height="1024">
<path d="M0 0 C2.45512662 -0.00115434 4.91025307 -0.00274397 7.36537915 -0.00472724 C12.67121071 -0.00801446 17.97702883 -0.00824631 23.2828598 -0.00568008 C31.17308702 -0.00187438 39.06330575 -0.00384329 46.95353292 -0.00688839 C61.05024893 -0.01213687 75.14696038 -0.0117047 89.24367681 -0.00880948 C101.5784705 -0.00628871 113.91326252 -0.00563965 126.24805641 -0.00683212 C127.06791835 -0.00690851 127.88778029 -0.00698489 128.73248653 -0.00706359 C132.06097839 -0.00737496 135.38947026 -0.00769336 138.71796213 -0.00802336 C169.90497778 -0.01107845 201.09199055 -0.00831494 232.27900576 -0.00292646 C259.96093316 0.00182005 287.64285596 0.00139295 315.32478333 -0.00338745 C346.46120233 -0.0087465 377.59761878 -0.01086307 408.73403817 -0.00777519 C412.05535114 -0.00745449 415.3766641 -0.00714165 418.69797707 -0.00683212 C419.92457073 -0.00671351 419.92457073 -0.00671351 421.17594407 -0.00659249 C433.50228807 -0.00545698 445.82863023 -0.00678162 458.15497398 -0.00931168 C472.17394388 -0.01217489 486.19290854 -0.01144759 500.21187779 -0.00603093 C508.04929381 -0.00310227 515.88669847 -0.00289194 523.72411418 -0.00667711 C529.5859451 -0.00919501 535.44776608 -0.00644929 541.30959586 -0.00170253 C543.67336139 -0.00058958 546.03712845 -0.00114452 548.400893 -0.00357832 C593.22396218 -0.04617344 632.61901645 8.44241114 665.58479309 41.12698364 C670.27229309 45.83454427 670.27229309 45.83454427 670.27229309 48.12698364 C670.93229309 48.12698364 671.59229309 48.12698364 672.27229309 48.12698364 C674.0779624 50.29743463 675.74964797 52.46516584 677.39729309 54.75198364 C677.8893927 55.43349487 678.38149231 56.1150061 678.88850403 56.81716919 C690.07839484 72.55181559 697.29411436 89.26299997 701.54573059 108.06448364 C702.12371983 111.02039386 702.12371983 111.02039386 703.27229309 113.12698364 C704.34137536 123.20846559 704.41995104 133.34213021 704.41273499 143.46994019 C704.41532689 144.95427376 704.4183423 146.43860664 704.42173839 147.92293859 C704.42971421 151.95693682 704.43159261 155.99091718 704.43233585 160.02492237 C704.43420293 164.39316587 704.44175808 168.76140044 704.44847107 173.12963867 C704.46198529 182.65864661 704.46806758 192.1876503 704.47248173 201.71666622 C704.47525455 207.67638932 704.47949361 213.63611081 704.4839859 219.59583282 C704.49616698 236.12689995 704.50647023 252.65796581 704.50986099 269.18903732 C704.51008056 270.24457088 704.51030012 271.30010444 704.51052634 272.38762386 C704.51074462 273.44552991 704.5109629 274.50343596 704.51118779 275.59339976 C704.51163124 277.73675585 704.51207781 279.88011193 704.51252747 282.02346802 C704.5127489 283.08662291 704.51297033 284.14977781 704.51319847 285.24514952 C704.51714639 302.47113924 704.53460547 319.69708665 704.55788699 336.92306003 C704.58164772 354.64787283 704.5940649 372.37266444 704.59522891 390.09749341 C704.59614274 400.03370553 704.60182169 409.96986244 704.62004852 419.90605927 C704.63551306 428.36548655 704.64053251 436.82484152 704.63231042 445.28428027 C704.628427 449.59250975 704.62921954 453.90059387 704.64336777 458.20880508 C704.78394916 503.69597249 696.21629115 541.61806267 663.70979309 575.12698364 C641.88730703 596.94354531 612.70657845 608.81596827 582.43635559 612.60745239 C579.39245135 612.92995439 579.39245135 612.92995439 577.40210736 614.13965809 C574.80772314 615.34234598 572.88656926 615.40364275 570.03120232 615.44372368 C568.97184558 615.46316497 567.91248884 615.48260625 566.82103038 615.50263667 C565.66661425 615.51377096 564.51219812 615.52490526 563.32279968 615.53637695 C562.1084006 615.55542564 560.89400153 615.57447432 559.64280248 615.59410024 C556.31926123 615.64365382 552.99585474 615.68421902 549.67215386 615.72012225 C546.8645748 615.75180475 544.05710487 615.79034788 541.24960955 615.82864662 C514.18905243 616.19512934 487.12815359 616.27534221 460.06534934 616.26120806 C454.13111995 616.25899456 448.1968922 616.2613241 442.26266303 616.26318972 C428.73899471 616.26715148 415.21533476 616.26374362 401.69166774 616.25754869 C392.03251754 616.25315748 382.37336882 616.25064928 372.7142177 616.24956027 C295.76508771 616.24062321 218.81681087 616.10793222 -11.17560357 615.15315664 C-14.45164072 615.13482201 -14.45164072 615.13482201 -17.72770691 615.12698364 C-25.39437358 615.12698364 -33.06104024 615.12698364 -40.72770691 615.12698364 C-41.05770691 614.46698364 -41.38770691 613.80698364 -41.72770691 613.12698364 C-44.48286195 612.65248472 -47.20534241 612.27837074 -49.97770691 611.93948364 C-78.2620443 607.89847993 -102.12351097 594.54247597 -122.72770691 575.12698364 C-123.34130066 574.56624146 -123.95489441 574.00549927 -124.58708191 573.42776489 C-138.22566178 560.5086514 -148.22096095 542.61778628 -154.72770691 525.12698364 C-154.72770691 524.13698364 -154.72770691 523.14698364 -154.72770691 522.12698364 C-155.38770691 521.79698364 -156.04770691 521.46698364 -156.72770691 521.12698364 C-157.50601169 518.30866907 -158.14969083 515.55021166 -158.72770691 512.68948364 C-158.89270691 511.93860474 -159.05770691 511.18772583 -159.22770691 510.41409302 C-163.24984083 491.04186207 -163.02488503 471.56816507 -163.00381529 451.8955071 C-163.0013251 447.53138252 -163.01039032 443.16727844 -163.01785278 438.80316162 C-163.03053814 430.27643132 -163.03240126 421.74973261 -163.03005252 413.22299446 C-163.02826247 406.28613984 -163.03003364 399.34929474 -163.03427696 392.41244125 C-163.03487215 391.42152448 -163.03546734 390.43060771 -163.03608057 389.40966316 C-163.03729243 387.3960054 -163.03850657 385.38234764 -163.03972294 383.36868988 C-163.05057447 364.52690989 -163.04844717 345.68514784 -163.0423381 326.84336685 C-163.03716957 309.64410646 -163.04842698 292.44490271 -163.06743632 275.24565352 C-163.08685383 257.53994746 -163.09506396 239.83426814 -163.09131306 222.12855136 C-163.08940714 212.20632936 -163.09182901 202.28415556 -163.1060276 192.36194229 C-163.11799231 183.91615222 -163.1192895 175.47044005 -163.10723744 167.0246488 C-163.10138462 162.72437953 -163.10014845 158.42425238 -163.11223984 154.12399292 C-163.17825545 128.8736686 -162.92187646 103.95240776 -151.42692566 80.82620239 C-150.53743894 78.97084355 -150.53743894 78.97084355 -150.72770691 76.12698364 C-150.06770691 76.12698364 -149.40770691 76.12698364 -148.72770691 76.12698364 C-148.72770691 74.80698364 -148.72770691 73.48698364 -148.72770691 72.12698364 C-147.45817566 70.72463989 -147.45817566 70.72463989 -145.72770691 69.12698364 C-144.46871812 67.29293567 -143.24304559 65.43583712 -142.04020691 63.56448364 C-121.25175204 32.0207587 -91.43530819 10.73353341 -54.43815613 2.66213989 C-48.06205857 1.54235692 -41.70848333 0.8929964 -35.24975109 0.56460762 C-34.02892377 0.50225427 -34.02892377 0.50225427 -32.78343327 0.43864126 C-21.86018731 -0.06576835 -10.93232428 -0.01129109 0 0 Z M2.27229309 613.12698364 C6.27229309 614.12698364 6.27229309 614.12698364 6.27229309 614.12698364 Z M23.27229309 613.12698364 C23.27229309 613.45698364 23.27229309 613.78698364 23.27229309 614.12698364 C25.58229309 614.12698364 27.89229309 614.12698364 30.27229309 614.12698364 C30.27229309 613.79698364 30.27229309 613.46698364 30.27229309 613.12698364 C27.96229309 613.12698364 25.65229309 613.12698364 23.27229309 613.12698364 Z M34.27229309 613.12698364 C34.27229309 613.45698364 34.27229309 613.78698364 34.27229309 614.12698364 C36.25229309 614.12698364 38.23229309 614.12698364 40.27229309 614.12698364 C40.27229309 613.79698364 40.27229309 613.46698364 40.27229309 613.12698364 C38.29229309 613.12698364 36.31229309 613.12698364 34.27229309 613.12698364 Z M42.27229309 613.12698364 C46.27229309 614.12698364 46.27229309 614.12698364 46.27229309 614.12698364 Z M49.27229309 613.12698364 C49.27229309 613.45698364 49.27229309 613.78698364 49.27229309 614.12698364 C50.92229309 614.12698364 52.57229309 614.12698364 54.27229309 614.12698364 C54.27229309 613.79698364 54.27229309 613.46698364 54.27229309 613.12698364 C52.62229309 613.12698364 50.97229309 613.12698364 49.27229309 613.12698364 Z M66.27229309 613.12698364 C70.27229309 614.12698364 70.27229309 614.12698364 70.27229309 614.12698364 Z M74.27229309 613.12698364 C78.27229309 614.12698364 78.27229309 614.12698364 78.27229309 614.12698364 Z M91.27229309 613.12698364 C95.27229309 614.12698364 95.27229309 614.12698364 95.27229309 614.12698364 Z M113.27229309 613.12698364 C113.27229309 613.45698364 113.27229309 613.78698364 113.27229309 614.12698364 C115.91229309 614.12698364 118.55229309 614.12698364 121.27229309 614.12698364 C121.27229309 613.79698364 121.27229309 613.46698364 121.27229309 613.12698364 C118.63229309 613.12698364 115.99229309 613.12698364 113.27229309 613.12698364 Z M122.27229309 613.12698364 C126.27229309 614.12698364 126.27229309 614.12698364 126.27229309 614.12698364 Z M155.27229309 613.12698364 C155.27229309 613.45698364 155.27229309 613.78698364 155.27229309 614.12698364 C156.92229309 614.12698364 158.57229309 614.12698364 160.27229309 614.12698364 C160.27229309 613.79698364 160.27229309 613.46698364 160.27229309 613.12698364 C158.62229309 613.12698364 156.97229309 613.12698364 155.27229309 613.12698364 Z M186.27229309 613.12698364 C190.27229309 614.12698364 190.27229309 614.12698364 190.27229309 614.12698364 Z M266.27229309 613.12698364 C266.27229309 613.45698364 266.27229309 613.78698364 266.27229309 614.12698364 C267.92229309 614.12698364 269.57229309 614.12698364 271.27229309 614.12698364 C271.27229309 613.79698364 271.27229309 613.46698364 271.27229309 613.12698364 C269.62229309 613.12698364 267.97229309 613.12698364 266.27229309 613.12698364 Z M346.27229309 613.12698364 C350.27229309 614.12698364 350.27229309 614.12698364 350.27229309 614.12698364 Z M379.27229309 613.12698364 C383.27229309 614.12698364 383.27229309 614.12698364 383.27229309 614.12698364 Z M402.27229309 613.12698364 C406.27229309 614.12698364 406.27229309 614.12698364 406.27229309 614.12698364 Z M411.27229309 613.12698364 C411.27229309 613.45698364 411.27229309 613.78698364 411.27229309 614.12698364 C413.58229309 614.12698364 415.89229309 614.12698364 418.27229309 614.12698364 C418.27229309 613.79698364 418.27229309 613.46698364 418.27229309 613.12698364 C415.96229309 613.12698364 413.65229309 613.12698364 411.27229309 613.12698364 Z M459.27229309 613.12698364 C459.27229309 613.45698364 459.27229309 613.78698364 459.27229309 614.12698364 C460.92229309 614.12698364 462.57229309 614.12698364 464.27229309 614.12698364 C464.27229309 613.79698364 464.27229309 613.46698364 464.27229309 613.12698364 C462.62229309 613.12698364 460.97229309 613.12698364 459.27229309 613.12698364 Z M491.27229309 613.12698364 C491.27229309 613.45698364 491.27229309 613.78698364 491.27229309 614.12698364 C492.92229309 614.12698364 494.57229309 614.12698364 496.27229309 614.12698364 C496.27229309 613.79698364 496.27229309 613.46698364 496.27229309 613.12698364 C494.62229309 613.12698364 492.97229309 613.12698364 491.27229309 613.12698364 Z M499.27229309 613.12698364 C499.27229309 613.45698364 499.27229309 613.78698364 499.27229309 614.12698364 C500.92229309 614.12698364 502.57229309 614.12698364 504.27229309 614.12698364 C504.27229309 613.79698364 504.27229309 613.46698364 504.27229309 613.12698364 C502.62229309 613.12698364 500.97229309 613.12698364 499.27229309 613.12698364 Z M521.27229309 613.12698364 C521.27229309 613.45698364 521.27229309 613.78698364 521.27229309 614.12698364 C522.92229309 614.12698364 524.57229309 614.12698364 526.27229309 614.12698364 C526.27229309 613.79698364 526.27229309 613.46698364 526.27229309 613.12698364 C524.62229309 613.12698364 522.97229309 613.12698364 521.27229309 613.12698364 Z M539.27229309 613.12698364 C539.27229309 613.45698364 539.27229309 613.78698364 539.27229309 614.12698364 C540.92229309 614.12698364 542.57229309 614.12698364 544.27229309 614.12698364 C544.27229309 613.79698364 544.27229309 613.46698364 544.27229309 613.12698364 C542.62229309 613.12698364 540.97229309 613.12698364 539.27229309 613.12698364 Z M547.27229309 613.12698364 C547.27229309 613.45698364 547.27229309 613.78698364 547.27229309 614.12698364 C548.92229309 614.12698364 550.57229309 614.12698364 552.27229309 614.12698364 C552.27229309 613.79698364 552.27229309 613.46698364 552.27229309 613.12698364 C550.62229309 613.12698364 548.97229309 613.12698364 547.27229309 613.12698364 Z M563.27229309 613.12698364 C563.27229309 613.45698364 563.27229309 613.78698364 563.27229309 614.12698364 C566.90229309 614.12698364 570.53229309 614.12698364 574.27229309 614.12698364 C574.27229309 613.79698364 574.27229309 613.46698364 574.27229309 613.12698364 C570.64229309 613.12698364 567.01229309 613.12698364 563.27229309 613.12698364 Z " fill="#9652FE" transform="translate(240.7277069091797,183.87301635742188)"/>
<path d="M0 0 C1.56365355 1.40672124 3.11567963 2.82503015 4.66381836 4.2487793 C5.34831055 4.86237305 6.03280273 5.4759668 6.73803711 6.1081543 C22.64200598 21.08531845 33.39745989 42.25965622 39.35131836 62.9987793 C39.54177734 63.65217285 39.73223633 64.30556641 39.9284668 64.97875977 C44.03380986 80.14273637 45.12970264 94.99738728 45 110.64355469 C44.97637072 113.67955186 44.97947266 116.714666 44.98608398 119.75073242 C44.96426307 135.87017724 44.23057912 151.87895772 40.22631836 167.5612793 C40.02200195 168.42688477 39.81768555 169.29249023 39.60717773 170.18432617 C38.23696615 175.76334966 36.83310647 181.07949118 32.66381836 185.2487793 C29.66381836 185.2487793 29.66381836 185.2487793 28.01538086 183.6394043 C27.44561523 182.93299805 26.87584961 182.2265918 26.28881836 181.4987793 C19.83267182 173.874889 12.56146427 169.89594144 2.66381836 168.2487793 C0.45375534 168.14415445 -1.75897659 168.09049292 -3.97143555 168.07177734 C-4.94089111 168.06192055 -4.94089111 168.06192055 -5.92993164 168.05186462 C-8.05753727 168.03224314 -10.18507255 168.02049165 -12.31274414 168.01049805 C-13.04464336 168.00642252 -13.77654259 168.00234699 -14.53062057 167.99814796 C-18.4076992 167.97733067 -22.28474293 167.96301251 -26.16186523 167.95361328 C-30.13933123 167.94258163 -34.11623277 167.90820749 -38.09350014 167.86844158 C-41.17529238 167.84212346 -44.25695342 167.83390792 -47.33884811 167.8303318 C-48.80348887 167.82550185 -50.26812521 167.81399212 -51.73265457 167.79529381 C-60.31304867 167.69258638 -68.71753927 167.78593772 -76.33618164 172.2487793 C-78.18273297 174.30555885 -78.18273297 174.30555885 -79.61743164 176.47143555 C-81.85995863 179.3500126 -82.84181042 180.14985894 -86.47680664 180.87719727 C-90.29181429 181.00050961 -94.02518993 180.8971567 -97.83618164 180.6862793 C-100.40896843 180.59778364 -102.98188714 180.5130286 -105.55493164 180.43237305 C-106.68866211 180.37621826 -107.82239258 180.32006348 -108.99047852 180.26220703 C-112.53276753 180.24799031 -115.84592374 180.66845467 -119.33618164 181.2487793 C-119.89305664 180.3412793 -120.44993164 179.4337793 -121.02368164 178.4987793 C-125.37629638 172.38159101 -130.14373183 169.84517924 -137.33618164 168.2487793 C-142.39613672 167.82020958 -147.445503 167.8254453 -152.51977539 167.8503418 C-153.98511398 167.84831601 -155.45045157 167.84540038 -156.91578674 167.84164429 C-159.97439248 167.83724324 -163.03273382 167.84357875 -166.09130859 167.85766602 C-169.98576428 167.87474161 -173.87959877 167.86491329 -177.77403164 167.84694862 C-180.79662134 167.83603725 -183.8190671 167.83959079 -186.84166145 167.847332 C-188.27638894 167.84931456 -189.71113007 167.84694417 -191.1458416 167.83989334 C-203.78102814 167.79141527 -214.07329728 169.52163264 -224.33618164 177.2487793 C-226.87601859 179.7704421 -229.15980261 182.40939738 -231.33618164 185.2487793 C-233.71616381 184.87018168 -235.02294133 184.57109824 -236.72607422 182.81860352 C-240.43473624 176.93851722 -241.80317135 171.16837268 -243.02368164 164.3737793 C-243.2228418 163.36831055 -243.42200195 162.3628418 -243.62719727 161.3269043 C-246.639216 145.48664841 -247.7511784 129.72547034 -247.71118164 113.6237793 C-247.71030548 112.75337006 -247.70942932 111.88296082 -247.70852661 110.98617554 C-247.61555205 82.85734846 -242.21389093 56.92659499 -228.33618164 32.2487793 C-227.79477539 31.2794043 -227.25336914 30.3100293 -226.69555664 29.3112793 C-208.82852226 -0.52493345 -177.25964269 -21.9606399 -143.87084961 -30.37231445 C-94.96166923 -42.03051052 -38.51560389 -33.95628946 0 0 Z " fill="#FEFEFE" transform="translate(393.336181640625,278.751220703125)"/>
<path d="M0 0 C5.14451818 5.00547714 6.23785957 10.83200725 7.3125 17.6875 C8.33536276 23.71385497 9.86648873 28.71645439 12.9140625 34.08203125 C14 36 14 36 15 39 C16.96672915 40.1500831 16.96672915 40.1500831 19 41 C20.90994204 42.90994204 20.20660311 45.73468084 20.29003906 48.28540039 C20.86575215 65.83306904 24.92394027 79.61102387 38 92 C52.78899341 104.22164555 70.57274807 106.12282115 89 105 C104.52825794 103.19247791 118.01733199 95.4899926 128.02734375 83.58984375 C135.86800415 73.1301044 137.96787499 62.24516766 138.62109375 49.47265625 C139.0774448 45.29022238 139.78453667 41.53254072 142.4375 38.1875 C146.71089706 34.93971824 152.28671521 35.81593803 157.375 35.8125 C158.32117188 35.80025391 159.26734375 35.78800781 160.2421875 35.77539062 C169.66866848 35.75553147 169.66866848 35.75553147 173 38 C175.75186348 42.19102184 176.33920737 45.55067698 176.4375 50.5 C177.29817105 66.20724671 182.73432022 79.86507745 194.234375 90.7109375 C210.19799966 103.92376808 228.96917102 106.4246941 249 105 C253.5667952 104.2978127 257.76378526 102.82726277 262 101 C262.73992187 100.69964844 263.47984375 100.39929688 264.2421875 100.08984375 C277.3256738 94.20991119 285.57846537 83.97639501 291 71 C293.37625899 64.21200435 294.10319291 57.80721145 294.3125 50.6875 C294.58597682 42.52497657 294.58597682 42.52497657 297.8125 39 C298.58750854 38.31164062 298.58750854 38.31164062 299.37817383 37.609375 C305.62301083 31.4124812 306.82306123 21.42442361 308.7109375 13.22460938 C310.99537679 3.83507264 310.99537679 3.83507264 315 0 C317.84083641 -1.42041821 319.85477278 -1.31452272 323 -1 C325.84780619 1.23206431 326.84997666 2.54992999 328 6 C328.93311728 20.67865257 326.74575863 34.19799523 321.97998047 48.06420898 C319.67013926 55.24053991 318.60796139 62.63238845 317.4375 70.0625 C312.05100807 104.04274487 312.05100807 104.04274487 302.8125 112 C299.23847998 114.54152535 297.67816511 115.12397379 293.375 115.0625 C292.55773437 115.05347656 291.74046875 115.04445313 290.8984375 115.03515625 C290.27195312 115.02355469 289.64546875 115.01195312 289 115 C288.91363281 116.08152344 288.82726562 117.16304687 288.73828125 118.27734375 C285.59199295 154.00510753 276.74763824 194.34167359 251 221 C248.04445363 218.04445363 248.29496904 214.6057842 247.88671875 210.6171875 C247.68851904 208.87365604 247.48993794 207.13016791 247.29101562 205.38671875 C246.98930222 202.65406423 246.69236556 199.92106176 246.40356445 197.18701172 C244.25240563 177.0713686 240.61493847 156.44414869 224 143 C217.63814291 138.69170679 211.20285657 135.58215613 204 133 C202.65483447 130.30966894 202.59382638 127.80035122 202.25 124.8125 C201.35790047 118.80081438 200.19775873 115.39765201 196 111 C193.91084702 110.30240301 193.91084702 110.30240301 192 110 C192.02320313 111.10859375 192.04640625 112.2171875 192.0703125 113.359375 C192.08907577 114.82290992 192.10727537 116.28645214 192.125 117.75 C192.14175781 118.47960937 192.15851563 119.20921875 192.17578125 119.9609375 C192.24083574 127.11693097 192.24083574 127.11693097 190 130 C174.52929238 139.6732635 153.70149946 137.79994366 136.76953125 134.33984375 C131.68043412 133.08302219 127.74868279 131.87363888 124 128 C122.46733418 124.93466836 122.89723529 121.73245728 122.9375 118.375 C122.94201172 117.66859375 122.94652344 116.9621875 122.95117188 116.234375 C122.96296125 114.48954725 122.98089676 112.744763 123 111 C119.72572414 111.56453032 118.10079613 112.41347066 116 115 C113.73565353 119.86857012 113.73565353 119.86857012 112.98901367 125.10449219 C112.93861401 127.599146 112.7672036 129.62048687 112 132 C109.51835083 134.34940538 106.65430182 135.60005475 103.5625 137 C101.90545408 137.83974339 100.25305068 138.6887119 98.60546875 139.546875 C97.80802246 139.96001953 97.01057617 140.37316406 96.18896484 140.79882812 C84.35020546 147.2952252 77.61251251 159.20061189 73.63208008 171.72753906 C72.65399004 175.24397865 72.07173218 178.76462815 71.5625 182.375 C71.44543701 183.15721924 71.32837402 183.93943848 71.20776367 184.74536133 C70.94675883 186.49686326 70.68956406 188.24893586 70.43554688 190.00146484 C69.93971046 193.41506509 69.43126953 196.82667841 68.921875 200.23828125 C67.93986355 206.82434486 66.96714531 213.41173818 66 220 C52.64755388 213.86763637 45.35319667 191.81044356 40.4375 179.09375 C33.37572672 159.49926921 26.53581626 136.00431424 27 115 C26.41992188 115.04640625 25.83984375 115.0928125 25.2421875 115.140625 C19.56544073 115.40291693 16.40989416 114.91990592 12 111 C0.88298944 99.15857271 -0.41868432 81.55719874 -2.7421875 66.16796875 C-3.84823021 58.89681928 -5.11891458 52.01615974 -7.5625 45.0625 C-11.06104307 35.05160867 -12.18469647 26.20009847 -12.3125 15.625 C-12.33030518 14.66070068 -12.34811035 13.69640137 -12.36645508 12.70288086 C-12.35651546 3.96901829 -12.35651546 3.96901829 -9 0 C-5.77839187 -1.61080407 -3.42436421 -0.82657067 0 0 Z " fill="#FEFDFE" transform="translate(135,435)"/>
<path d="M0 0 C16.94266141 4.40410597 35.63888794 3.75919388 52.11132812 -2.2890625 C59.26623826 -4.81748939 65.39516092 -1.95344357 72.04882812 0.94921875 C83.61061392 6.77527488 90.91604887 16.31441783 95.04882812 28.4609375 C96.39472021 34.08592146 97.24394014 39.73728964 98.04882812 45.4609375 C98.18562988 46.37101563 98.32243164 47.28109375 98.46337891 48.21875 C101.86864742 71.00755936 105.38837431 94.67558614 91.04882812 114.4609375 C78.76544352 130.82189926 59.39125785 139.4336241 39.60351562 142.76953125 C15.34290888 146.19471248 -12.2433323 143.52328128 -32.95117188 129.4609375 C-44.84488902 119.96393918 -54.26306187 108.84173539 -56.95117188 93.4609375 C-58.52515077 70.74787926 -59.38257638 32.59946743 -43.58789062 14.21875 C-43.04777344 13.63867188 -42.50765625 13.05859375 -41.95117188 12.4609375 C-41.40074219 11.79835938 -40.8503125 11.13578125 -40.28320312 10.453125 C-28.86200935 -2.35614563 -15.76153292 -4.21938224 0 0 Z " fill="#FEFDFE" transform="translate(270.951171875,580.5390625)"/>
<path d="M0 0 C17.17499686 -0.51760265 33.37736166 3.86736207 47.2265625 14.1640625 C48.2371875 14.8859375 49.2478125 15.6078125 50.2890625 16.3515625 C63.81914212 28.15758766 70.14910199 47.39063706 71.9765625 64.7890625 C72.09484646 66.91240382 72.17199056 69.03812945 72.2265625 71.1640625 C72.24702637 71.94523437 72.26749023 72.72640625 72.28857422 73.53125 C72.87782873 99.78959969 71.64023111 127.82514642 52.56640625 147.8828125 C39.17030978 160.94344746 22.55296857 166.78771924 3.9765625 166.6015625 C2.88754639 166.59253906 1.79853027 166.58351563 0.67651367 166.57421875 C-17.58936069 166.18474871 -33.18115084 160.47562346 -46.52734375 147.69921875 C-62.3455458 129.84528287 -65.34004911 106.85656174 -65.16455078 83.9675293 C-65.14837394 81.46673671 -65.16456554 78.96754321 -65.18359375 76.46679688 C-65.21165219 55.32346016 -60.94417465 33.84172056 -46.0234375 17.9140625 C-32.75784833 5.39257795 -17.66915773 1.04521778 0 0 Z " fill="#FEFDFE" transform="translate(811.7734375,407.8359375)"/>
<path d="M0 0 C1.08166443 -0.00430527 1.08166443 -0.00430527 2.18518066 -0.00869751 C3.70825995 -0.01073702 5.2313655 -0.00521497 6.75439453 0.00732422 C9.08555678 0.02338107 11.41498542 0.0074734 13.74609375 -0.01171875 C15.22656633 -0.0097363 16.70703782 -0.00589257 18.1875 0 C18.8844397 -0.00607269 19.58137939 -0.01214539 20.29943848 -0.0184021 C25.07592214 0.05100549 25.07592214 0.05100549 27.27800274 1.52847195 C29.20211359 4.26305565 28.96845564 6.3820097 28.9679718 9.70606995 C28.97194621 10.34833981 28.97592061 10.99060967 28.98001546 11.65234226 C28.98965352 13.80824709 28.97781201 15.96349816 28.96606445 18.11938477 C28.96849191 19.66336309 28.97221078 21.20733985 28.97712708 22.75131226 C28.9865453 26.94749974 28.97710332 31.14345437 28.96379495 35.33962369 C28.95249479 39.72559735 28.95658679 44.11155931 28.95854187 48.49754333 C28.95942521 55.86257746 28.94833538 63.2275196 28.92993164 70.5925293 C28.90875555 79.11598867 28.90525556 87.63931334 28.9114936 96.1627937 C28.91718144 104.35285512 28.91154897 112.54286895 28.90032005 120.73292351 C28.89566716 124.22292902 28.89480318 127.7129055 28.8969059 131.20291328 C28.89878483 135.30935714 28.89071553 139.41566322 28.8748455 143.52207565 C28.87059083 145.03219851 28.86976 146.54233532 28.87253571 148.05246162 C28.87574097 150.10757699 28.86548136 152.16270045 28.85444641 154.2177887 C28.85136711 155.94583662 28.85136711 155.94583662 28.84822559 157.70879459 C28.59375 160.3984375 28.59375 160.3984375 26.59375 162.3984375 C23.96434804 162.59809123 21.44254837 162.6782786 18.8125 162.6640625 C18.04321167 162.66597595 17.27392334 162.6678894 16.48132324 162.66986084 C14.8539192 162.67122258 13.2265043 162.66752689 11.59912109 162.65917969 C9.10359369 162.64847971 6.60878618 162.65907501 4.11328125 162.671875 C2.53385257 162.6705534 0.95442434 162.667991 -0.625 162.6640625 C-1.3739856 162.66811096 -2.12297119 162.67215942 -2.89465332 162.67633057 C-8.17632757 162.62835993 -8.17632757 162.62835993 -10.40625 160.3984375 C-10.6847229 157.84213257 -10.6847229 157.84213257 -10.72509766 154.57177734 C-10.74496735 153.35066254 -10.76483704 152.12954773 -10.78530884 150.87142944 C-10.79718608 149.53407981 -10.80884889 148.19672825 -10.8203125 146.859375 C-10.83901749 145.49458638 -10.8585904 144.12980939 -10.8789978 142.76504517 C-10.93039605 139.17137507 -10.96998027 135.57766745 -11.00714111 131.98382568 C-11.04713279 128.3172471 -11.0982471 124.65082565 -11.1484375 120.984375 C-11.24528773 113.78917018 -11.32966307 106.59388955 -11.40625 99.3984375 C-18.20549392 99.32255385 -25.00462922 99.26990824 -31.80419922 99.23364258 C-34.11869385 99.21852897 -36.43315974 99.19803754 -38.74755859 99.17211914 C-42.06875696 99.13584909 -45.38957768 99.11873706 -48.7109375 99.10546875 C-49.75055634 99.08998489 -50.79017517 99.07450104 -51.86129761 99.05854797 C-52.82214264 99.05832138 -53.78298767 99.05809479 -54.77294922 99.05786133 C-55.62122284 99.05119949 -56.46949646 99.04453766 -57.34347534 99.03767395 C-58.02419098 99.15672592 -58.70490662 99.27577789 -59.40625 99.3984375 C-61.67542297 102.80219695 -61.66471581 104.03359998 -61.69335938 108.03149414 C-61.71348083 109.7632766 -61.71348083 109.7632766 -61.73400879 111.53004456 C-61.73928589 112.77696579 -61.74456299 114.02388702 -61.75 115.30859375 C-61.7646228 116.58697617 -61.77924561 117.86535858 -61.79431152 119.18247986 C-61.84883532 123.97138327 -61.88596587 128.76030707 -61.92193604 133.54937744 C-61.95808938 138.24010242 -62.00880671 142.9305299 -62.0625 147.62109375 C-62.0677771 148.87003922 -62.0730542 150.11898468 -62.07849121 151.40577698 C-62.09861267 153.13283119 -62.09861267 153.13283119 -62.11914062 154.89477539 C-62.12643188 155.91164932 -62.13372314 156.92852325 -62.14123535 157.97621155 C-62.40625 160.3984375 -62.40625 160.3984375 -64.40625 162.3984375 C-67.03565196 162.59809123 -69.55745163 162.6782786 -72.1875 162.6640625 C-72.95678833 162.66597595 -73.72607666 162.6678894 -74.51867676 162.66986084 C-76.1460808 162.67122258 -77.7734957 162.66752689 -79.40087891 162.65917969 C-81.89640631 162.64847971 -84.39121382 162.65907501 -86.88671875 162.671875 C-88.46614743 162.6705534 -90.04557566 162.667991 -91.625 162.6640625 C-92.3739856 162.66811096 -93.12297119 162.67215942 -93.89465332 162.67633057 C-99.17632757 162.62835993 -99.17632757 162.62835993 -101.40625 160.3984375 C-101.65513897 157.6875906 -101.65513897 157.6875906 -101.65348816 154.16636658 C-101.65590257 153.52016202 -101.65831699 152.87395746 -101.66080457 152.20817095 C-101.66646057 150.03312909 -101.6577644 147.85837847 -101.64916992 145.68334961 C-101.65024233 144.12804586 -101.65218038 142.5727425 -101.65492249 141.0174408 C-101.65978026 136.78618281 -101.65210387 132.55502987 -101.64196944 128.32378459 C-101.63320545 123.90397299 -101.63494606 119.48416483 -101.6353302 115.06434631 C-101.63439289 107.64208206 -101.62569947 100.21985863 -101.61206055 92.79760742 C-101.59632854 84.20430789 -101.5910626 75.61105308 -101.5917961 67.01774019 C-101.59240549 58.76521871 -101.58730859 50.51271187 -101.57900429 42.26019478 C-101.5754648 38.74145964 -101.57364009 35.22272968 -101.57311058 31.70399284 C-101.57210936 27.56477395 -101.56603092 23.42559291 -101.55594444 19.28638649 C-101.55301252 17.76294054 -101.55179546 16.23949023 -101.55237198 14.71604156 C-101.55285928 12.6451618 -101.54724067 10.57438962 -101.53996277 8.50352478 C-101.53828692 7.34189788 -101.53661108 6.18027098 -101.53488445 4.98344326 C-101.40625 2.3984375 -101.40625 2.3984375 -100.40625 1.3984375 C-97.69072723 1.27263944 -95.00200573 1.20978344 -92.28515625 1.1953125 C-91.47006088 1.18961243 -90.65496552 1.18391235 -89.81517029 1.17803955 C-88.08764958 1.16857623 -86.36011071 1.1620503 -84.63256836 1.15820312 C-81.98324274 1.14849063 -79.33469042 1.11747786 -76.68554688 1.0859375 C-75.01042129 1.07940847 -73.33529014 1.07415761 -71.66015625 1.0703125 C-70.86428604 1.0579657 -70.06841583 1.0456189 -69.24842834 1.03289795 C-67.01391602 1.04199219 -67.01391602 1.04199219 -63.40625 1.3984375 C-61.12459526 4.82091962 -61.13895131 6.12561812 -61.08740234 10.1550293 C-61.06753265 11.33602707 -61.04766296 12.51702484 -61.02719116 13.73381042 C-61.01563995 15.00887955 -61.00408875 16.28394867 -60.9921875 17.59765625 C-60.97282135 18.90297806 -60.9534552 20.20829987 -60.9335022 21.55317688 C-60.88217366 25.02024272 -60.84255207 28.48734739 -60.80535889 31.95458984 C-60.76532359 35.49391247 -60.71433593 39.03307606 -60.6640625 42.57226562 C-60.5662592 49.51426267 -60.48675278 56.4561318 -60.40625 63.3984375 C-44.56625 63.3984375 -28.72625 63.3984375 -12.40625 63.3984375 C-11.09720512 60.78034774 -11.26726381 58.82668092 -11.24853516 55.89477539 C-11.23314194 54.16772118 -11.23314194 54.16772118 -11.21743774 52.40577698 C-11.21013641 51.15683151 -11.20283508 49.90788605 -11.1953125 48.62109375 C-11.16725071 45.99804056 -11.1385863 43.37499376 -11.109375 40.75195312 C-11.06687997 36.59972488 -11.0301137 32.44753658 -11.00488281 28.29516602 C-10.97994897 24.29942599 -10.93150557 20.30411655 -10.8828125 16.30859375 C-10.87955963 15.06167252 -10.87630676 13.81475128 -10.87295532 12.53004456 C-10.84810562 10.7982621 -10.84810562 10.7982621 -10.82275391 9.03149414 C-10.81466705 8.01382462 -10.8065802 6.99615509 -10.79824829 5.94764709 C-10.40625 3.3984375 -10.40625 3.3984375 -9.08786011 1.57063293 C-6.31992943 -0.35880106 -3.25341048 -0.02834817 0 0 Z " fill="#FEFDFE" transform="translate(608.40625,408.6015625)"/>
<path d="M0 0 C6.31606833 5.32075271 11.62700245 11.73226948 13.15234375 20.046875 C14.19543726 34.12008739 12.05968173 46.43148498 2.59130859 57.44970703 C-5.53834841 66.47315734 -14.11184259 74.77498521 -23.84765625 82.046875 C-22.83864258 82.0562207 -21.82962891 82.06556641 -20.79003906 82.07519531 C-17.03991849 82.1151227 -13.29061596 82.18088781 -9.54101562 82.25439453 C-7.91937788 82.28258847 -6.29760312 82.30381094 -4.67578125 82.31787109 C-2.3417352 82.33932372 -0.00933364 82.38598075 2.32421875 82.4375 C3.0472821 82.43872864 3.77034546 82.43995728 4.51531982 82.44122314 C7.91485223 82.53974427 9.84545171 82.81999007 12.6105957 84.86425781 C14.88313249 88.08143578 14.64728684 90.65606315 14.58984375 94.546875 C14.58855469 95.8565625 14.58726562 97.16625 14.5859375 98.515625 C14.1253635 102.26660605 13.8269201 103.47420917 11.15234375 106.046875 C8.23022461 106.54135132 8.23022461 106.54135132 4.6171875 106.53271484 C3.9583255 106.53651154 3.2994635 106.54030823 2.62063599 106.54421997 C0.44322058 106.55162819 -1.7328595 106.53024188 -3.91015625 106.5078125 C-5.42325687 106.50542808 -6.93636048 106.50452275 -8.44946289 106.5050354 C-11.62046852 106.50190696 -14.79102214 106.48533919 -17.96191406 106.45849609 C-22.02753367 106.42451589 -26.09265652 106.41686748 -30.15840149 106.41838646 C-33.28280382 106.41784271 -36.40709744 106.40687489 -39.53146362 106.39238358 C-41.03058042 106.38601706 -42.52970953 106.38207702 -44.02883911 106.38059616 C-46.12360631 106.37626146 -48.21784608 106.35875774 -50.3125 106.33740234 C-52.10095337 106.32596695 -52.10095337 106.32596695 -53.92553711 106.31430054 C-56.84765625 106.046875 -56.84765625 106.046875 -59.84765625 104.046875 C-61.85496461 98.55318898 -61.85126593 91.54614892 -59.53515625 86.171875 C-54.37213886 77.11362741 -45.73615076 69.66893809 -37.84765625 63.046875 C-22.25831578 50.97210178 -22.25831578 50.97210178 -13.4453125 34.3828125 C-13.18677444 29.70390419 -13.18797243 26.15894855 -16.22265625 22.421875 C-19.45075164 19.50121727 -20.92703484 18.88224888 -25.16015625 18.796875 C-25.91941406 18.77109375 -26.67867187 18.7453125 -27.4609375 18.71875 C-30.64319216 19.15624491 -32.29420385 20.08330242 -34.84765625 22.046875 C-36.38721521 24.2494152 -37.73092385 26.34307017 -39.03515625 28.671875 C-42.61690153 34.93149764 -42.61690153 34.93149764 -44.84765625 36.046875 C-52.01354835 36.11853392 -56.38930265 34.05898943 -61.78515625 29.359375 C-63.80695976 24.95897914 -62.67771862 20.36591523 -61.08984375 15.9296875 C-56.78416188 6.63086195 -49.85948541 0.35387244 -40.64453125 -3.9921875 C-28.16903593 -8.53258886 -11.01163336 -7.5525606 0 0 Z " fill="#FDFCFE" transform="translate(718.84765625,519.953125)"/>
<path d="M0 0 C8.7018949 8.01614774 10.7335871 20.53926868 11.19813538 31.86088562 C11.26319791 34.62512227 11.2756082 37.38647146 11.25854492 40.15136719 C11.25003038 42.2425399 11.27894813 44.33096886 11.31054688 46.421875 C11.37770191 59.32933745 9.93305853 73.98892697 0.8125 83.875 C-4.58515736 89.00594958 -10.29720794 90.51478777 -17.5625 91.1875 C-26.5271345 90.41468668 -33.20885526 87.7552965 -39.1875 80.875 C-46.4973971 70.50254662 -46.65268139 57.31425749 -46.52368164 45.13818359 C-46.49996757 42.74672914 -46.50315915 40.35638722 -46.50976562 37.96484375 C-46.48378422 23.61323624 -45.33136927 10.39957521 -35.01171875 -0.4609375 C-25.58883907 -9.0565408 -9.84985521 -6.56657014 0 0 Z " fill="#944EFE" transform="translate(833.1875,449.125)"/>
<path d="M0 0 C1.34086234 -0.0038938 2.68172345 -0.00822986 4.02258301 -0.01298523 C6.82320162 -0.02041715 9.62369409 -0.02017776 12.42431641 -0.01489258 C15.99850474 -0.00909379 19.57217556 -0.02605293 23.14627838 -0.04923725 C25.91224137 -0.06402472 28.67808102 -0.06483967 31.44407654 -0.06172752 C33.39767746 -0.06248457 35.35125937 -0.07631059 37.30480957 -0.09040833 C43.67354392 -0.05729917 48.67277727 0.01741446 54.21875 3.30078125 C56.78125 6.17578125 56.78125 6.17578125 58.21875 9.30078125 C57.41944305 13.2085041 56.58030289 14.05974599 53.21875 16.30078125 C50.51768494 16.55906677 50.51768494 16.55906677 47.21850586 16.57202148 C45.36659889 16.58730141 45.36659889 16.58730141 43.47727966 16.60289001 C42.81835661 16.60383101 42.15943356 16.604772 41.48054314 16.6057415 C39.41705615 16.60940436 37.35405013 16.62612593 35.29066467 16.64649963 C29.42523111 16.70193364 23.55972782 16.73265533 17.6940918 16.75708008 C14.10487826 16.77292669 10.51600894 16.8031096 6.92697334 16.84184456 C5.55823981 16.85351572 4.18944483 16.85942509 2.82066154 16.85952568 C0.91025959 16.85971704 -1.00011049 16.87945472 -2.91040039 16.90014648 C-3.99833389 16.90521713 -5.0862674 16.91028778 -6.20716858 16.91551208 C-7.05661545 17.04265091 -7.90606232 17.16978973 -8.78125 17.30078125 C-11.15852232 20.20517114 -11.15852232 20.20517114 -10.53125 23.92578125 C-10.28375 25.03953125 -10.03625 26.15328125 -9.78125 27.30078125 C-7.48778724 28.44751263 -6.08620297 28.45325894 -3.53515625 28.51171875 C-2.69791016 28.54007812 -1.86066406 28.5684375 -0.99804688 28.59765625 C0.76736851 28.64961844 2.53302628 28.69392592 4.29882812 28.73046875 C5.13736328 28.76140625 5.97589844 28.79234375 6.83984375 28.82421875 C7.6073999 28.84403809 8.37495605 28.86385742 9.16577148 28.88427734 C11.71970555 29.40241404 12.61705274 30.28302657 14.21875 32.30078125 C14.80859375 34.23828125 14.80859375 34.23828125 15.15625 36.30078125 C15.78290612 39.08991466 16.09721526 40.1624831 18.03125 42.36328125 C20.21488135 43.45939602 20.21488135 43.45939602 22.78125 43.36328125 C26.29541163 41.83146721 26.81115307 39.78625937 28.21875 36.30078125 C28.569375 35.39328125 28.92 34.48578125 29.28125 33.55078125 C30.21875 31.30078125 30.21875 31.30078125 32.21875 29.30078125 C34.44946289 29.05786133 34.44946289 29.05786133 37.19140625 29.0703125 C38.17302734 29.07224609 39.15464844 29.07417969 40.16601562 29.07617188 C41.19404297 29.08841797 42.22207031 29.10066406 43.28125 29.11328125 C44.31314453 29.11392578 45.34503906 29.11457031 46.40820312 29.11523438 C54.07859003 29.16062128 54.07859003 29.16062128 55.21875 30.30078125 C56.0885173 39.69426806 52.84218341 48.18838049 46.9140625 55.45703125 C38.15502199 64.98299236 27.24184864 71.07150702 14.10546875 71.734375 C12.37255261 71.75772169 10.63920451 71.75858176 8.90625 71.73828125 C7.53484863 71.72692139 7.53484863 71.72692139 6.13574219 71.71533203 C-8.56440572 71.35964142 -19.86319569 66.0767981 -29.9921875 55.50390625 C-36.16001702 47.90858781 -39.31284653 38.41372735 -39.02734375 28.65625 C-38.0893664 19.67846682 -34.66347918 12.30260845 -27.63671875 6.54296875 C-18.66293613 0.21392956 -10.74561773 -0.00767399 0 0 Z " fill="#FDFCFE" transform="translate(205.78125,457.69921875)"/>
<path d="M0 0 C1.21178421 -0.00953201 2.42356842 -0.01906403 3.67207336 -0.02888489 C5.61753304 -0.02751778 5.61753304 -0.02751778 7.60229492 -0.02612305 C8.96221547 -0.03001624 10.32213481 -0.03435219 11.68205261 -0.03910828 C14.52733303 -0.04655027 17.37248934 -0.04629464 20.21777344 -0.04101562 C23.84223678 -0.03523336 27.46618704 -0.05213114 31.09056568 -0.0753603 C33.89864513 -0.09018271 36.70660355 -0.09095771 39.51471519 -0.08785057 C41.49370454 -0.08860547 43.47267525 -0.10241291 45.45161438 -0.11653137 C56.37968708 -0.06079406 63.78874444 1.47149076 71.82104492 9.08325195 C78.03270081 16.06669674 79.13945531 23.60598534 79.04760742 32.6887207 C78.10002782 44.94052454 73.13796086 53.32367719 64.39526367 61.5246582 C55.50520436 69.11918123 46.01069653 71.66784981 34.45776367 71.5871582 C33.62253174 71.58224365 32.7872998 71.5773291 31.92675781 71.57226562 C19.02138308 71.32805912 7.11564903 67.12902875 -2.41333008 58.21606445 C-8.9483551 51.23131728 -13.28111096 42.92493888 -13.47973633 33.2121582 C-13.22973633 30.2746582 -13.22973633 30.2746582 -12.22973633 29.2746582 C-8.61316947 28.96770304 -4.9827328 28.9962987 -1.35473633 28.9621582 C-0.33508789 28.9331543 0.68456055 28.90415039 1.73510742 28.87426758 C2.71350586 28.86588867 3.6919043 28.85750977 4.69995117 28.84887695 C5.59955566 28.83429443 6.49916016 28.81971191 7.42602539 28.8046875 C9.77026367 29.2746582 9.77026367 29.2746582 11.54150391 31.15380859 C12.88234971 33.46811963 13.45674346 35.40393711 13.95776367 38.0246582 C14.11631836 38.82387695 14.27487305 39.6230957 14.43823242 40.4465332 C14.60258789 41.35145508 14.60258789 41.35145508 14.77026367 42.2746582 C19.61559734 43.5187341 19.61559734 43.5187341 24.08276367 41.8371582 C26.34215362 38.40623273 26.8655318 35.28132791 27.77026367 31.2746582 C30.20754909 28.83737279 30.89172678 29.01704992 34.23510742 28.96606445 C35.1174707 28.94092773 35.99983398 28.91579102 36.90893555 28.88989258 C38.77084647 28.85481121 40.63283328 28.82354471 42.49487305 28.79614258 C43.37852539 28.7697168 44.26217773 28.74329102 45.17260742 28.71606445 C46.38678345 28.69588257 46.38678345 28.69588257 47.62548828 28.67529297 C50.27787204 28.17983916 51.1771129 27.42590103 52.77026367 25.2746582 C53.18701887 22.2325439 53.18701887 22.2325439 52.77026367 19.2746582 C50.07650952 16.58090406 48.6980515 17.0183026 44.93115234 17.00341797 C43.09365669 16.98813805 43.09365669 16.98813805 41.21903992 16.97254944 C40.56248602 16.97160845 39.90593212 16.97066746 39.22948265 16.96969795 C37.17365175 16.9660385 35.11830515 16.94932299 33.06257629 16.92893982 C27.21742779 16.87349633 21.37220667 16.84288645 15.52685547 16.81835938 C11.95175012 16.80245329 8.37698568 16.77219837 4.80205727 16.73359489 C3.44138532 16.72196671 2.08065228 16.71601473 0.71993065 16.71591377 C-1.18757475 16.71572099 -3.09504734 16.69590314 -5.00244141 16.67529297 C-6.62887321 16.667687 -6.62887321 16.667687 -8.28816223 16.65992737 C-11.6529252 16.21923154 -13.53711011 15.317359 -16.22973633 13.2746582 C-17.35473633 10.3996582 -17.35473633 10.3996582 -17.22973633 7.2746582 C-12.71481984 1.25476956 -7.24203025 0.03144988 0 0 Z " fill="#FDFCFE" transform="translate(338.229736328125,457.725341796875)"/>
<path d="M0 0 C1.78544255 -0.00082972 3.57088502 -0.00329301 5.35632324 -0.00730896 C9.08853291 -0.01015939 12.82013997 0.00445996 16.55224609 0.03198242 C21.320316 0.06606404 26.08730913 0.06003987 30.8554306 0.04131985 C34.53937652 0.03071777 38.22307475 0.0397167 41.90699768 0.05470467 C43.66434492 0.05986343 45.42171827 0.05943287 47.17906189 0.05315971 C49.64141866 0.04766841 52.10226843 0.06820527 54.56445312 0.09545898 C55.28053238 0.08893311 55.99661163 0.08240723 56.73439026 0.07568359 C63.1941597 0.19638722 68.50263536 2.35029161 73.09375 6.94140625 C77.59808592 14.11497826 78.99801562 20.12281323 77.78125 28.62890625 C76.23323664 32.52965421 74.44712017 35.63918339 70.7890625 37.8125 C67.86043813 39.00332197 65.92152201 39.06854433 62.78125 38.62890625 C59.42097924 36.43180614 57.30710511 34.65557575 55.46875 31.06640625 C54.61531391 26.79922581 54.3410631 22.58114966 54.125 18.23828125 C54.02985549 15.47171447 54.02985549 15.47171447 51.78125 13.62890625 C49.2544266 13.31509218 49.2544266 13.31509218 46.27758789 13.35424805 C44.55053368 13.33995003 44.55053368 13.33995003 42.78858948 13.32536316 C41.53964401 13.32627457 40.29069855 13.32718597 39.00390625 13.328125 C37.72648056 13.32383987 36.44905487 13.31955475 35.13291931 13.31513977 C32.42677122 13.30938713 29.72100338 13.30797184 27.01489258 13.31323242 C23.54665507 13.31902586 20.07895181 13.30210217 16.61080265 13.27888775 C13.30434099 13.26061382 9.99790935 13.26433563 6.69140625 13.265625 C4.8210244 13.25181038 4.8210244 13.25181038 2.91285706 13.23771667 C1.75833542 13.24394547 0.60381378 13.25017426 -0.58569336 13.2565918 C-2.11219765 13.25564766 -2.11219765 13.25564766 -3.66954041 13.25468445 C-6.24615256 13.4297037 -6.24615256 13.4297037 -8.04542542 14.96931458 C-9.84911108 17.52051119 -9.6334466 19.85982091 -9.71875 22.94140625 C-10.05983039 28.95378407 -10.73279564 33.05722933 -15.03125 37.50390625 C-18.04297174 39.05279172 -19.86416648 39.09854794 -23.21875 38.62890625 C-26.64592356 36.88171973 -28.75047113 35.23766878 -31.09375 32.19140625 C-33.12872102 25.74733135 -33.51781177 19.15017257 -31.15234375 12.73828125 C-23.91881656 -0.42792084 -13.44512444 -0.11307245 0 0 Z " fill="#8F47FD" transform="translate(270.21875,620.37109375)"/>
<path d="M0 0 C1.80984375 0.01256836 1.80984375 0.01256836 3.65625 0.02539062 C4.91179687 0.05439453 6.16734375 0.08339844 7.4609375 0.11328125 C9.26304687 0.1277832 9.26304687 0.1277832 11.1015625 0.14257812 C17.10697586 0.21527523 23.0809384 0.42668954 29.07348633 0.80003357 C42.45444309 1.61871389 55.83951378 1.57807822 69.23974609 1.55615234 C72.73859509 1.55048881 76.23736739 1.55381755 79.73621368 1.55960083 C94.94875869 1.58080259 110.12005408 1.34902269 125.31982422 0.66162109 C132.90881932 0.32190811 140.49019405 0.20604318 148.0859375 0.17578125 C148.77042969 0.16546875 149.45492187 0.15515625 150.16015625 0.14453125 C152.18212429 0.11418276 154.20438227 0.10558637 156.2265625 0.09765625 C157.9595459 0.0836377 157.9595459 0.0836377 159.72753906 0.06933594 C163.18230531 0.46549983 165.09174673 1.31595184 167.8359375 3.42578125 C167.8359375 4.08578125 167.8359375 4.74578125 167.8359375 5.42578125 C164.4124147 7.13754265 160.49217264 7.02726961 156.71875 7.36328125 C155.79238739 7.44827881 154.86602478 7.53327637 153.91159058 7.62084961 C151.93619602 7.80098922 149.9606126 7.97906748 147.98486328 8.15527344 C145.03490282 8.41916462 142.08581238 8.69145735 139.13671875 8.96484375 C118.203208 10.8770612 97.41794205 11.63216687 76.3984375 11.61328125 C75.25397156 11.61300934 74.10950562 11.61273743 72.93035889 11.61245728 C55.46339904 11.59341548 38.22882382 11.10175531 20.8359375 9.42578125 C18.77480866 9.24241269 16.71334287 9.06315407 14.65185547 8.88386536 C11.83259666 8.63638311 9.01440491 8.37823826 6.19647217 8.11611938 C4.19715917 7.93030929 2.19745978 7.74867173 0.19775391 7.56713867 C-0.9980127 7.44830322 -2.1937793 7.32946777 -3.42578125 7.20703125 C-4.48756592 7.10455078 -5.54935059 7.00207031 -6.64331055 6.89648438 C-9.1640625 6.42578125 -9.1640625 6.42578125 -11.1640625 4.42578125 C-7.38235791 0.89685973 -5.15678756 -0.0704224 0 0 Z " fill="#8E43FC" transform="translate(214.1640625,412.57421875)"/>
<path d="M0 0 C0.33 0.66 0.66 1.32 1 2 C0.16822128 4.25638883 -0.7245589 6.42526403 -1.6875 8.625 C-8.94753015 26.02883533 -11.31856574 44.10882883 -11.25396729 62.871521 C-11.25627875 64.30478105 -11.25945982 65.73803992 -11.26342177 67.17129636 C-11.27168562 71.06446184 -11.26768318 74.95752787 -11.26144934 78.85069346 C-11.25689049 83.06776105 -11.26392583 87.28481253 -11.26940918 91.50187683 C-11.27827122 99.7486254 -11.27639463 107.99533743 -11.2705839 116.24208739 C-11.26605114 122.95584093 -11.26546147 129.66958429 -11.26763153 136.38333893 C-11.267938 137.34211213 -11.26824446 138.30088534 -11.26856022 139.28871228 C-11.26919974 141.23712753 -11.26984817 143.18554277 -11.2705054 145.13395801 C-11.27620032 163.38029966 -11.26966589 181.62662118 -11.25890467 199.87295952 C-11.24998711 215.47472402 -11.25150799 231.07645871 -11.26074219 246.67822266 C-11.27148942 264.84454152 -11.27563307 283.01084271 -11.26951766 301.17716432 C-11.26888065 303.1217335 -11.26825191 305.06630269 -11.26763153 307.01087189 C-11.2671687 308.44554755 -11.2671687 308.44554755 -11.26669653 309.90920655 C-11.2649816 316.59627218 -11.26785887 323.28332645 -11.27259064 329.97039032 C-11.27824995 338.14741371 -11.27657923 346.3243988 -11.26602915 354.50141791 C-11.26083674 358.66073571 -11.25860284 362.8199901 -11.26532745 366.97930717 C-11.3223818 405.60963561 -11.24575095 445.67233206 13 478 C13 478.66 13 479.32 13 480 C8.9224365 478.64081217 7.81704271 475.97594434 5.75 472.4375 C5.3588501 471.7765332 4.9677002 471.11556641 4.56469727 470.43457031 C1.7159746 465.50473446 -0.77164642 460.46079234 -3.0625 455.25 C-3.36124023 454.57122803 -3.65998047 453.89245605 -3.96777344 453.19311523 C-5.19636773 450.29593724 -6 448.17944689 -6 445 C-6.66 444.67 -7.32 444.34 -8 444 C-8.77830478 441.18168543 -9.42198392 438.42322801 -10 435.5625 C-10.165 434.81162109 -10.33 434.06074219 -10.5 433.28710938 C-14.52213392 413.91487843 -14.29717813 394.44118142 -14.27610838 374.76852345 C-14.27361819 370.40439888 -14.28268341 366.04029479 -14.29014587 361.67617798 C-14.30283123 353.14944768 -14.30469435 344.62274897 -14.30234561 336.09601082 C-14.30055556 329.1591562 -14.30232673 322.2223111 -14.30657005 315.28545761 C-14.30716524 314.29454084 -14.30776043 313.30362407 -14.30837366 312.28267952 C-14.30958553 310.26902176 -14.31079966 308.255364 -14.31201603 306.24170624 C-14.32286756 287.39992624 -14.32074026 268.55816419 -14.31463119 249.7163832 C-14.30946266 232.51712281 -14.32072007 215.31791907 -14.33972941 198.11866988 C-14.35914692 180.41296382 -14.36735705 162.7072845 -14.36360615 145.00156772 C-14.36170023 135.07934571 -14.3641221 125.15717191 -14.37832069 115.23495865 C-14.3902854 106.78916858 -14.39158259 98.3434564 -14.37953053 89.89766516 C-14.37367771 85.59739588 -14.37244154 81.29726874 -14.38453293 76.99700928 C-14.5232747 23.9375544 -14.5232747 23.9375544 -1 1 C-0.67 0.67 -0.34 0.34 0 0 Z " fill="#A058FB" transform="translate(92,261)"/>
<path d="M0 0 C0.54140625 0.2475 1.0828125 0.495 1.640625 0.75 C0.97675781 1.20890625 0.31289062 1.6678125 -0.37109375 2.140625 C-5.9672441 6.02683356 -5.9672441 6.02683356 -11.359375 10.1875 C-13.359375 11.75 -13.359375 11.75 -15.359375 11.75 C-15.359375 12.41 -15.359375 13.07 -15.359375 13.75 C-16.71205636 14.86691991 -18.11847057 15.91920843 -19.546875 16.9375 C-23.83242089 20.14492114 -26.39126061 23.34279985 -29.359375 27.75 C-30.019375 27.75 -30.679375 27.75 -31.359375 27.75 C-31.66875 28.74 -31.66875 28.74 -31.984375 29.75 C-33.51364362 33.08658609 -35.45909785 35.60438208 -37.70703125 38.484375 C-40.0825317 41.74156237 -42.01248114 45.22323559 -43.96484375 48.74609375 C-45.359375 50.75 -45.359375 50.75 -48.359375 51.75 C-48.689375 51.09 -49.019375 50.43 -49.359375 49.75 C-48.94042969 49.36972656 -48.52148438 48.98945313 -48.08984375 48.59765625 C-45.94315653 46.30559518 -44.36997559 43.82937252 -42.671875 41.1875 C-34.76355393 29.18767095 -25.5713288 17.81171609 -14.359375 8.75 C-13.3590625 7.9353125 -12.35875 7.120625 -11.328125 6.28125 C-10.25685614 5.43540885 -9.18394244 4.59164663 -8.109375 3.75 C-6.61664063 2.574375 -6.61664063 2.574375 -5.09375 1.375 C-2.359375 -0.25 -2.359375 -0.25 0 0 Z " fill="#9E57F8" transform="translate(141.359375,206.25)"/>
<path d="M0 0 C1.54010742 0.02707031 1.54010742 0.02707031 3.11132812 0.0546875 C5.63767885 0.10168937 8.16210469 0.16737728 10.6875 0.25 C10.6875 0.58 10.6875 0.91 10.6875 1.25 C4.7475 1.58 -1.1925 1.91 -7.3125 2.25 C-7.6425 2.91 -7.9725 3.57 -8.3125 4.25 C-7.6525 4.91 -6.9925 5.57 -6.3125 6.25 C-12.3671875 6.4453125 -12.3671875 6.4453125 -14.3125 6.25 C-14.9725 5.59 -15.6325 4.93 -16.3125 4.25 C-11.58920443 -0.97752538 -6.52989431 -0.21724536 0 0 Z " fill="#7B26FA" transform="translate(219.3125,412.75)"/>
<path d="M0 0 C3.06468185 1.32121479 4.69180612 2.53032083 6.54296875 5.30078125 C6.97673828 5.94853516 7.41050781 6.59628906 7.85742188 7.26367188 C8.29634766 7.93978516 8.73527344 8.61589844 9.1875 9.3125 C9.63802734 9.97701172 10.08855469 10.64152344 10.55273438 11.32617188 C12.87326877 14.84350362 14.57652429 17.70711874 15 22 C12.2828836 19.53812787 10.53184905 16.80662186 8.625 13.6875 C6.59346324 10.42668941 4.5831325 7.33874083 2.0625 4.4375 C0 2 0 2 0 0 Z " fill="#9E57FA" transform="translate(913,235)"/>
<path d="M0 0 C0.66 0.33 1.32 0.66 2 1 C0.5437455 1.67119549 -0.91507867 2.33681807 -2.375 3 C-3.59316406 3.556875 -3.59316406 3.556875 -4.8359375 4.125 C-7 5 -7 5 -9 5 C-9 6.65 -9 8.3 -9 10 C-9.66 9.67 -10.32 9.34 -11 9 C-11 6.69 -11 4.38 -11 2 C-10.06027344 1.90912109 -10.06027344 1.90912109 -9.1015625 1.81640625 C-7.87566406 1.69072266 -7.87566406 1.69072266 -6.625 1.5625 C-5.81289063 1.48128906 -5.00078125 1.40007813 -4.1640625 1.31640625 C-1.95727195 1.10909886 -1.95727195 1.10909886 0 0 Z " fill="#8232FC" transform="translate(435,548)"/>
<path d="M0 0 C0.66 0 1.32 0 2 0 C-1.07517084 10.55808656 -1.07517084 10.55808656 -3 15 C-3.66 15 -4.32 15 -5 15 C-4.37321829 11.33827525 -3.35548154 8.1181005 -1.9375 4.6875 C-1.39416016 3.36298828 -1.39416016 3.36298828 -0.83984375 2.01171875 C-0.56269531 1.34785156 -0.28554688 0.68398438 0 0 Z " fill="#9D57F9" transform="translate(936,704)"/>
<path d="M0 0 C0.43570313 0.37511719 0.87140625 0.75023437 1.3203125 1.13671875 C5.18607599 4.45859777 9.07657648 7.74642927 13 11 C11 12 11 12 9.0625 11.875 C6.14119286 10.63565758 5.52525895 8.73275562 4 6 C3.278125 5.278125 2.55625 4.55625 1.8125 3.8125 C1.214375 3.214375 0.61625 2.61625 0 2 C0 1.34 0 0.68 0 0 Z " fill="#7F30FB" transform="translate(174,511)"/>
<path d="M0 0 C3.3 0.33 6.6 0.66 10 1 C10 1.66 10 2.32 10 3 C12.31 3.66 14.62 4.32 17 5 C13.01754349 6.3274855 10.55210457 4.99907829 6.8125 3.5625 C5.83120117 3.19801758 5.83120117 3.19801758 4.83007812 2.82617188 C3.21696714 2.2256707 1.6080565 1.61390797 0 1 C0 0.67 0 0.34 0 0 Z " fill="#7B26FC" transform="translate(338,249)"/>
<path d="M0 0 C1.23922223 3.71766668 0.57018942 5.43889537 -0.4375 9.1875 C-0.72496094 10.27417969 -1.01242187 11.36085938 -1.30859375 12.48046875 C-1.53675781 13.31191406 -1.76492188 14.14335937 -2 15 C-3.94566951 11.52452927 -4.07637127 9.87493656 -3 6 C-2.34 6 -1.68 6 -1 6 C-0.67 4.02 -0.34 2.04 0 0 Z " fill="#7B29FC" transform="translate(445,440)"/>
<path d="M0 0 C-1.78614318 1.03046722 -3.57910018 2.04913236 -5.375 3.0625 C-6.87160156 3.91521484 -6.87160156 3.91521484 -8.3984375 4.78515625 C-9.25695312 5.18605469 -10.11546875 5.58695313 -11 6 C-11.66 5.67 -12.32 5.34 -13 5 C-9.44809236 0.85610776 -5.36327214 -1.71439369 0 0 Z " fill="#9D57F8" transform="translate(159,198)"/>
<path d="M0 0 C0.33 0 0.66 0 1 0 C1 6.6 1 13.2 1 20 C0.67 20 0.34 20 0 20 C0 13.4 0 6.8 0 0 Z " fill="#9D59FA" transform="translate(76,452)"/>
<path d="M0 0 C3.78611227 0.54087318 5.55400767 2.11722332 8 5 C8 5.66 8 6.32 8 7 C4.2047869 5.50902342 2.38957269 3.24299151 0 0 Z " fill="#9F57F9" transform="translate(898,220)"/>
<path d="M0 0 C0.33 0 0.66 0 1 0 C1 6.27 1 12.54 1 19 C0.67 19 0.34 19 0 19 C0 12.73 0 6.46 0 0 Z " fill="#9C58F7" transform="translate(76,312)"/>
<path d="M0 0 C0.33 0.66 0.66 1.32 1 2 C-0.125 4.625 -0.125 4.625 -2 7 C-4.6875 7.3125 -4.6875 7.3125 -7 7 C-6.21625 6.401875 -5.4325 5.80375 -4.625 5.1875 C-1.85425677 3.08914751 -1.85425677 3.08914751 0 0 Z " fill="#7E2BFC" transform="translate(430,458)"/>
<path d="M0 0 C0.33 0 0.66 0 1 0 C1 4.95 1 9.9 1 15 C0.67 15 0.34 15 0 15 C0 10.05 0 5.1 0 0 Z " fill="#9E59FA" transform="translate(76,604)"/>
<path d="M0 0 C0.33 0 0.66 0 1 0 C1 4.95 1 9.9 1 15 C0.67 15 0.34 15 0 15 C0 10.05 0 5.1 0 0 Z " fill="#9D59F9" transform="translate(76,348)"/>
<path d="M0 0 C0.33 0 0.66 0 1 0 C1 4.95 1 9.9 1 15 C0.67 15 0.34 15 0 15 C0 10.05 0 5.1 0 0 Z " fill="#9C58F8" transform="translate(76,332)"/>
<path d="M0 0 C0.33 0 0.66 0 1 0 C1 4.62 1 9.24 1 14 C0.67 14 0.34 14 0 14 C0 9.38 0 4.76 0 0 Z " fill="#9E59FA" transform="translate(76,516)"/>
<path d="M0 0 C0.33 0 0.66 0 1 0 C1 3.96 1 7.92 1 12 C0.67 12 0.34 12 0 12 C0 8.04 0 4.08 0 0 Z " fill="#9E58FA" transform="translate(76,364)"/>
<path d="M0 0 C0.33 0 0.66 0 1 0 C1 2.31 1 4.62 1 7 C0.67 7 0.34 7 0 7 C0 4.69 0 2.38 0 0 Z " fill="#9C58F9" transform="translate(76,644)"/>
<path d="M0 0 C0.33 0 0.66 0 1 0 C1 2.31 1 4.62 1 7 C0.67 7 0.34 7 0 7 C0 4.69 0 2.38 0 0 Z " fill="#9C58F9" transform="translate(76,636)"/>
<path d="M0 0 C0.33 0 0.66 0 1 0 C1 2.31 1 4.62 1 7 C0.67 7 0.34 7 0 7 C0 4.69 0 2.38 0 0 Z " fill="#9D59FA" transform="translate(76,620)"/>
<path d="M0 0 C0.33 0 0.66 0 1 0 C1 2.31 1 4.62 1 7 C0.67 7 0.34 7 0 7 C0 4.69 0 2.38 0 0 Z " fill="#9E59FB" transform="translate(76,596)"/>
<path d="M0 0 C0.33 0 0.66 0 1 0 C1 2.31 1 4.62 1 7 C0.67 7 0.34 7 0 7 C0 4.69 0 2.38 0 0 Z " fill="#9E59FB" transform="translate(76,532)"/>
<path d="M0 0 C0.33 0 0.66 0 1 0 C1 2.31 1 4.62 1 7 C0.67 7 0.34 7 0 7 C0 4.69 0 2.38 0 0 Z " fill="#9E59FA" transform="translate(76,500)"/>
<path d="M0 0 C0.33 0 0.66 0 1 0 C1 2.31 1 4.62 1 7 C0.67 7 0.34 7 0 7 C0 4.69 0 2.38 0 0 Z " fill="#9E58F9" transform="translate(76,484)"/>
<path d="M0 0 C0.33 0 0.66 0 1 0 C1 2.31 1 4.62 1 7 C0.67 7 0.34 7 0 7 C0 4.69 0 2.38 0 0 Z " fill="#9E59FA" transform="translate(76,420)"/>
<path d="M0 0 C0.33 0 0.66 0 1 0 C1 2.31 1 4.62 1 7 C0.67 7 0.34 7 0 7 C0 4.69 0 2.38 0 0 Z " fill="#9E59FA" transform="translate(76,412)"/>
<path d="M0 0 C0.33 0 0.66 0 1 0 C1 2.31 1 4.62 1 7 C0.67 7 0.34 7 0 7 C0 4.69 0 2.38 0 0 Z " fill="#9E58FA" transform="translate(76,404)"/>
<path d="M0 0 C0.33 0 0.66 0 1 0 C1 2.31 1 4.62 1 7 C0.67 7 0.34 7 0 7 C0 4.69 0 2.38 0 0 Z " fill="#9E59FA" transform="translate(76,393)"/>
<path d="M0 0 C1.65 0 3.3 0 5 0 C3.02 0.99 3.02 0.99 1 2 C0.67 1.34 0.34 0.68 0 0 Z " fill="#9252EE" transform="translate(192,797)"/>
<path d="M0 0 C0.33 0 0.66 0 1 0 C1 1.98 1 3.96 1 6 C0.67 6 0.34 6 0 6 C0 4.02 0 2.04 0 0 Z " fill="#9D59F9" transform="translate(76,628)"/>
<path d="M0 0 C1 4 1 4 1 4 Z " fill="#9E59FA" transform="translate(76,564)"/>
<path d="M0 0 C1 4 1 4 1 4 Z " fill="#9E59FA" transform="translate(76,548)"/>
<path d="M0 0 C1 4 1 4 1 4 Z " fill="#9E5AFB" transform="translate(76,540)"/>
<path d="M0 0 C1 4 1 4 1 4 Z " fill="#9D59FB" transform="translate(76,508)"/>
<path d="M0 0 C1 4 1 4 1 4 Z " fill="#9E59F9" transform="translate(76,492)"/>
<path d="M0 0 C1 4 1 4 1 4 Z " fill="#9E59FB" transform="translate(76,476)"/>
<path d="M0 0 C1 4 1 4 1 4 Z " fill="#9F59FA" transform="translate(76,444)"/>
<path d="M0 0 C1 4 1 4 1 4 Z " fill="#9E58FA" transform="translate(76,436)"/>
<path d="M0 0 C1 4 1 4 1 4 Z " fill="#9E59FB" transform="translate(76,428)"/>
<path d="M0 0 C1 4 1 4 1 4 Z " fill="#9E59FB" transform="translate(76,380)"/>
<path d="M0 0 C4 1 4 1 4 1 Z " fill="#9355F0" transform="translate(192,184)"/>
<path d="M0 0 C3 1 3 1 3 1 Z " fill="#9450ED" transform="translate(823,797)"/>
<path d="M0 0 C3 1 3 1 3 1 Z " fill="#9351EE" transform="translate(185,796)"/>
<path d="" fill="#9E5AFB" transform="translate(0,0)"/>
<path d="" fill="#9352EF" transform="translate(0,0)"/>
<path d="M0 0 C2 1 2 1 2 1 Z " fill="#9350ED" transform="translate(830,796)"/>
<path d="M0 0 C2 1 2 1 2 1 Z " fill="#8F54EF" transform="translate(168,791)"/>
<path d="M0 0 C2 1 2 1 2 1 Z " fill="#9452F0" transform="translate(162,789)"/>
<path d="" fill="#9351EC" transform="translate(0,0)"/>
<path d="" fill="#9655F3" transform="translate(0,0)"/>
<path d="" fill="#9859F6" transform="translate(0,0)"/>
<path d="" fill="#9B57F8" transform="translate(0,0)"/>
<path d="" fill="#9B58F9" transform="translate(0,0)"/>
<path d="" fill="#9F5AFB" transform="translate(0,0)"/>
<path d="" fill="#9E59FB" transform="translate(0,0)"/>
<path d="" fill="#9D5AFA" transform="translate(0,0)"/>
<path d="" fill="#9E5AFA" transform="translate(0,0)"/>
<path d="" fill="#9E59F9" transform="translate(0,0)"/>
<path d="" fill="#9F5AFB" transform="translate(0,0)"/>
<path d="" fill="#9F5AFC" transform="translate(0,0)"/>
<path d="" fill="#9E5AFA" transform="translate(0,0)"/>
<path d="" fill="#9F59FB" transform="translate(0,0)"/>
<path d="" fill="#9E5AFB" transform="translate(0,0)"/>
<path d="" fill="#9D59F9" transform="translate(0,0)"/>
<path d="" fill="#9D5AFB" transform="translate(0,0)"/>
<path d="" fill="#9D5AFC" transform="translate(0,0)"/>
<path d="" fill="#9F59FB" transform="translate(0,0)"/>
<path d="" fill="#9E5AFB" transform="translate(0,0)"/>
<path d="" fill="#9D59FA" transform="translate(0,0)"/>
<path d="" fill="#9F59FC" transform="translate(0,0)"/>
<path d="" fill="#9D59FB" transform="translate(0,0)"/>
<path d="" fill="#9E58FC" transform="translate(0,0)"/>
<path d="" fill="#9E59FA" transform="translate(0,0)"/>
<path d="" fill="#9D57FA" transform="translate(0,0)"/>
<path d="" fill="#9856F3" transform="translate(0,0)"/>
<path d="" fill="#020106" transform="translate(0,0)"/>
<path d="" fill="#000000" transform="translate(0,0)"/>
<path d="" fill="#07020C" transform="translate(0,0)"/>
<path d="" fill="#9251EC" transform="translate(0,0)"/>
<path d="" fill="#9451EE" transform="translate(0,0)"/>
<path d="" fill="#9350ED" transform="translate(0,0)"/>
<path d="" fill="#9251EC" transform="translate(0,0)"/>
<path d="" fill="#9152ED" transform="translate(0,0)"/>
<path d="" fill="#9251EA" transform="translate(0,0)"/>
<path d="" fill="#9251ED" transform="translate(0,0)"/>
<path d="" fill="#9451ED" transform="translate(0,0)"/>
<path d="" fill="#9151E9" transform="translate(0,0)"/>
<path d="" fill="#9252EB" transform="translate(0,0)"/>
<path d="" fill="#9151EE" transform="translate(0,0)"/>
<path d="" fill="#9151EB" transform="translate(0,0)"/>
<path d="" fill="#9250EE" transform="translate(0,0)"/>
<path d="" fill="#9150EA" transform="translate(0,0)"/>
<path d="" fill="#9351EE" transform="translate(0,0)"/>
<path d="" fill="#9250EB" transform="translate(0,0)"/>
<path d="" fill="#9250E9" transform="translate(0,0)"/>
<path d="" fill="#934EE9" transform="translate(0,0)"/>
<path d="" fill="#9551ED" transform="translate(0,0)"/>
<path d="" fill="#9453ED" transform="translate(0,0)"/>
<path d="" fill="#9250EA" transform="translate(0,0)"/>
<path d="" fill="#9251E9" transform="translate(0,0)"/>
<path d="" fill="#9654EF" transform="translate(0,0)"/>
<path d="" fill="#9252EB" transform="translate(0,0)"/>
<path d="" fill="#9451EE" transform="translate(0,0)"/>
<path d="" fill="#9554EE" transform="translate(0,0)"/>
<path d="" fill="#9351EA" transform="translate(0,0)"/>
<path d="" fill="#9453F1" transform="translate(0,0)"/>
<path d="" fill="#9552F0" transform="translate(0,0)"/>
<path d="" fill="#9757F4" transform="translate(0,0)"/>
<path d="" fill="#9555F5" transform="translate(0,0)"/>
<path d="" fill="#9656F5" transform="translate(0,0)"/>
<path d="" fill="#9957F6" transform="translate(0,0)"/>
<path d="" fill="#9B57F6" transform="translate(0,0)"/>
<path d="" fill="#9C58F7" transform="translate(0,0)"/>
<path d="" fill="#9B58F9" transform="translate(0,0)"/>
<path d="" fill="#9E5AFB" transform="translate(0,0)"/>
<path d="" fill="#9F59F9" transform="translate(0,0)"/>
<path d="" fill="#9F5BFD" transform="translate(0,0)"/>
<path d="" fill="#9F5AFC" transform="translate(0,0)"/>
<path d="" fill="#A05AFD" transform="translate(0,0)"/>
<path d="" fill="#9F59FB" transform="translate(0,0)"/>
<path d="" fill="#9F58FC" transform="translate(0,0)"/>
<path d="" fill="#9F5BFD" transform="translate(0,0)"/>
<path d="" fill="#9D5AFB" transform="translate(0,0)"/>
<path d="" fill="#9D5BFC" transform="translate(0,0)"/>
<path d="" fill="#9D5AFC" transform="translate(0,0)"/>
<path d="" fill="#9D59FB" transform="translate(0,0)"/>
<path d="" fill="#A15AFD" transform="translate(0,0)"/>
<path d="" fill="#9F5AF8" transform="translate(0,0)"/>
<path d="" fill="#9F5AFA" transform="translate(0,0)"/>
<path d="" fill="#9F5AFC" transform="translate(0,0)"/>
<path d="" fill="#9F5AFA" transform="translate(0,0)"/>
<path d="" fill="#9F58FA" transform="translate(0,0)"/>
<path d="" fill="#9F59F9" transform="translate(0,0)"/>
<path d="" fill="#A059FD" transform="translate(0,0)"/>
<path d="" fill="#A05AFB" transform="translate(0,0)"/>
<path d="" fill="#9F5AFC" transform="translate(0,0)"/>
<path d="" fill="#9F5AFC" transform="translate(0,0)"/>
<path d="" fill="#A05AFB" transform="translate(0,0)"/>
<path d="" fill="#A05AFC" transform="translate(0,0)"/>
<path d="" fill="#A059FB" transform="translate(0,0)"/>
<path d="" fill="#A15AFD" transform="translate(0,0)"/>
<path d="" fill="#A15AFD" transform="translate(0,0)"/>
<path d="" fill="#A059FC" transform="translate(0,0)"/>
<path d="" fill="#9F59FC" transform="translate(0,0)"/>
<path d="" fill="#A059FC" transform="translate(0,0)"/>
<path d="" fill="#9E59FC" transform="translate(0,0)"/>
<path d="" fill="#9F59FB" transform="translate(0,0)"/>
<path d="" fill="#9E58FB" transform="translate(0,0)"/>
<path d="" fill="#9E5AFC" transform="translate(0,0)"/>
<path d="" fill="#9F5AFB" transform="translate(0,0)"/>
<path d="" fill="#A05AF9" transform="translate(0,0)"/>
<path d="" fill="#A059FB" transform="translate(0,0)"/>
<path d="" fill="#9E5AFA" transform="translate(0,0)"/>
<path d="" fill="#A059FB" transform="translate(0,0)"/>
<path d="" fill="#9D59FA" transform="translate(0,0)"/>
<path d="" fill="#9C59F8" transform="translate(0,0)"/>
<path d="" fill="#9655F2" transform="translate(0,0)"/>
<path d="" fill="#9956F0" transform="translate(0,0)"/>
<path d="" fill="#9655F0" transform="translate(0,0)"/>
<path d="" fill="#9653ED" transform="translate(0,0)"/>
<path d="" fill="#9655EB" transform="translate(0,0)"/>
<path d="" fill="#9252EB" transform="translate(0,0)"/>
<path d="" fill="#9955EF" transform="translate(0,0)"/>
<path d="" fill="#9652EE" transform="translate(0,0)"/>
<path d="" fill="#9252EB" transform="translate(0,0)"/>
<path d="" fill="#9251EB" transform="translate(0,0)"/>
<path d="" fill="#9452EB" transform="translate(0,0)"/>
<path d="" fill="#9251EB" transform="translate(0,0)"/>
<path d="" fill="#9154ED" transform="translate(0,0)"/>
<path d="" fill="#9150EB" transform="translate(0,0)"/>
<path d="" fill="#9452ED" transform="translate(0,0)"/>
<path d="" fill="#9352EC" transform="translate(0,0)"/>
<path d="" fill="#9252ED" transform="translate(0,0)"/>
<path d="" fill="#9152ED" transform="translate(0,0)"/>
<path d="" fill="#9253EE" transform="translate(0,0)"/>
<path d="" fill="#9253EE" transform="translate(0,0)"/>
<path d="" fill="#9453EF" transform="translate(0,0)"/>
<path d="" fill="#8E51E8" transform="translate(0,0)"/>
<path d="" fill="#9151EC" transform="translate(0,0)"/>
</svg>
