<svg xmlns="http://www.w3.org/2000/svg" id="main" viewBox="0 0 872 514"><defs><style>.st0{fill:#99c0d6}.st1{fill:#fff}.st2{fill:#80b0cd}</style></defs><rect width="872" height="514" class="st0" rx="125" ry="125"/><path d="M59.13 149.99v99.39h19.83v-81.66l28.17-.26v81.92h19.3v-99.39zm149.09 29.73v69.66h17.6l20.55-39.92v39.92h17.41v-69.66h-16.43l-21.13 41.09-.59-41.09zm-68.29 0h15.13v7.11l6.26-5.87 6.39-2.61 6.7-.54 6.41.83 6.07 2.59s3.77 3.47 3.96 3.62 3.57 5.43 3.57 5.43l1.96 4.84s1.37 6.51 1.37 6.7v19.48l-1.66 9.49-3.33 8.02-4.7 6.16-6.46 3.62-6.55 1.27-6.21-.51-4.35-1.74-3.23-3.03-3.03-3.03-.2 35.22h-18.1v-97.06Z" class="st1"/><path d="m167.88 193.44-4.7 2.05-3.62 9-1.37 9.49.69 8.02 2.15 6.56 3.43 4.1 5.57 1.28 4.89-2.45 1.96-4.19 1.86-5.1.78-6.36v-7.93l-1.27-7.14-2.25-4.99-4.4-2.34z" class="st0"/><path d="M277.44 179.72v69.66l36.4-.8 4.5-2.15 6.84-4.9 3.53-6.65v-6.06l-1.18-7.83-3.13-5.09-4.11-2.21-6.26-1.5 6.46-2.74 3.13-3.52 2.54-5.48v-5.87l-2.54-8.42-5.48-3.91-6.46-2.53z" class="st1"/><path d="M294.47 192.43v12.71h10.95l2.64-2.05.98-2.54v-3.82l-1.56-2.54-3.33-1.76zm0 27.03v17.02h12.17l2.93-2.75 1.09-3.4v-5.11l-1.74-3.4-3.7-2.36z" class="st0"/><path d="m352.12 180.51-6.52 4.3-5.35 8.48-2.61 6.65-1.17 9.26v10.26l1.82 12.31 3.39 6.78 6.53 7.44 7.95 4.04h11.74l9.39-.65 6.39-3.13 4.31-3.39 3.65-5.09-12.52-8.74-4.44 4.04-4.56 2.61-7.83-.26-3.39-1.7-3.13-4.69-1.43-4.31-.13-5.26h36.26l-.26-17.69-1.57-5.48-4.57-9.39-4.69-4.83-8.09-3.52h-7.24l-6.98.52zm435.66 13.64-7.21 18.73-9.25 16.88-8.38 7.54-12.77 3.01-8.25.17-2.85.6-2.69 11.2-2.5 10.42-2.61 7.56-4.79 10.29-6.82 10.79-7.62 9.86-7 8.11-9.91 9.91-8.6 6.24-9.66 5.85-13.12 5.57-10.35 2.99-10.45 2.3-9.81 1.58h-9.98l-10.39-1.36-10.72-1.97-9.5-3-8.49-3.04-6.95-4.26-4.59-2.81-4.97-5.83-4.27-4.83-4.35-4.9-3.71-5.18-3.12-7.07-2.29-5.22-3.24-7.36-2.32-7.32-3.75-10.65-1.78-10.07-2.18-10.32-1.82-10.63-.88-9.35-.99-10.46-.43-9.3-.43-13.51-.35-8.39-.96-7.29-.8-6.07-1.17-5.26-.68-2.74v-15.84l.13-9.79.65-12.07 2.48-7.96 5.86-17.36 2.61-5.67 4.43-7.88 4.91-7.04 6.64-8.26 9.09-9.34 8.37-6.82 9.48-7.36 17.48-7.4 13.54-3.94 14.42-2.86 8.35-.2h13.3l12.72.47 9.59 1.1 13.98 2.63 8.22 2.15 11.23 3.91 8.47 4.06 8.78 4.21 5.06 4.15-.96 2.25-1.49 1.81-3.26 4.05-2.08 2.87-.53 3.78 1.44 6.26 3.96 9.21 3.91 9.98 2.16 9.78 1.97 7.16.42 4.61 1.27 13.91-.01 14.82-.91 11.94-.16 13.92-.09 4.19 1.57 1.7 5.6 1.82 9.54 1.08 5.15-.59 3.33-1.8 3.69-3.04 2.95-2.95 4.95-5.74 4.67-3.48 4.69-1.2 3.86 1.68 2.17 2.39 1.96 3.74.67 4.79.61 6.17.29 4.43z" class="st1"/><path d="M354.21 206.14h18.45v-2.42l-1.56-5.73-2.61-3.66-4.44-1.82-4.11.91-3.39 2.8-1.37 3.66z" class="st0"/><path d="M411.21 193.58v56.45h17.73v-56.45h17.35v-13.86h-52.04v13.86zm42.58-43.24 2.55 69.07h14.28l2.74-69.07zm6.78 79.73-4.1 1.7-3.26 3.85-.53 4.56 1.11 5.48 2.84 3.33 3.94 1.04 4.77.46 3.97-1.31 3.33-3.06 1.7-3.2.52-3.91-1.05-3.33-2.6-3.85-3.27-1.76z" class="st1"/><path d="m398.75 486.87 2.74 3.65 2.87.52 4.43-2.74 2.35-6.26 3.39-11.35 6.78-22.3 9.52-27.26 12.13-17.48 25.83-14.35 16.04-6.65 31.21-12.36-1.37 3.82-5.58 8.9-8.61 11.25s-2.84 5.28-2.84 5.58.88 3.03 1.27 3.52 7.92 2.84 8.61 3.23 4.89 1.47 5.87 2.05 5.77 1.86 5.77 1.86v1.86l-9.68 5.28-14.87 9.1-3.91 3.33-2.93 4.4s-.49 2.54-.29 3.13.59 3.42.98 4.4 3.03 13.21 3.03 13.21l5.09 14.87 8.32 19.08 2.45 3.91 4.79.68 3.42-.49 1.57-1.96.1-4.3-2.84-5.48-14.97-42.36 24.07-15.85 7.63-4.7 2.74-2.93 1.76-3.33v-4.99l-2.54-2.54-18.2-9.78 19.17-20.93 27.2-24.52 5.38 144.16h19.83l28.7-70.57 15.91.52 10.57 70.04h19.57l54.26-108.75 19.04-40.96 9.13-29.74 9.91 9.13 10.7 14.87 8.87 18.78 5.48 15.39 4.17 19.83-22.17 6-14.09 7.3-2.87 4.17 7.57 7.3 10.96 7.57 7.83 5.74 3.13 2.87-38.87 56.87 1.83 3.62h6.78l3.91-3.62 6.78-8.09 33.91-48.78-1.83-4.96-3.65-4.43-19.04-13.57 22.96-6.28 6.07-4.09 1.57-3.78v-17.48l-1.83-8.74-3.13-11.74-5.48-13.3 12.33 5.74 34.83 18.65 14.09 6.52 4.3.78h2.74l1.17-2.61v-3.13l-2.74-4.04-8.09-5.09-21.91-10.96-38.48-18.39-6.65-3.65-18-20.35-7.04-8.35-5.22-5.74-13.5 5.22 1.08 6.55s-.49 8.51-.68 8.8-3.91 12.42-3.91 12.42l-4.4 11.25-9.29 24.16-6.85 12.62-21.82 41.41-8.22-9.59L649.26 375l-14.67-17.02 24.59-6.46 22.43-9.65 20.09-12.26 20.09-18.26 7.57-10.43-12.78-4.96-11.48 13.3-9.91 9.91-13.3 9.65-13.83 6.78-15.39 4.43-16.96 3.65h-13.83l-17.48-2.61-19.04-6-12.78-7.83-2.35-2.87-19.04 12.78-11.22 9.13-12.78 6.52-17.74 6.78-21.13 7.83-15.13 4.43-14.87 7.3-16.7 9.91-12.52 12.26-8.87 13.83-8.09 18.26-3.91 9.91-5.48 27.13-2.87 10.96-1.08 5.38Z" class="st2"/><path d="m654.99 402.05-9.69 21.23 6.85 55.27 27.39-48.33zm-75.62 81.88 23.48-62.22-6.26-20.54-19.57 19.17zm-4.11-79.82 41.67-47.35-42.84-13.89z" class="st1"/><path d="m626.46 369.57-19.37 20.45 6.45 19.56h22.5l9.26-19.46z" class="st0"/><path d="M730.9 299.5h-1.19l-.41 1.47-12.78-4.96 7.76-11.56 3.86-6.85 3.62-8.51 1.61-4.3 5.69-23.71 5.61-1.17 10.96-.65 7.3-1.96 7.83-6.65 5.61-8.87 5.35-11.35 5.22-12.52 2.22-9.91-.52-7.96-1.04-7.43-2.74-5.22-4.17-2.74-4.83.65-5.61 4.17s-4.43 5.22-4.96 5.74l-5.22 5.22s-5.22 2.87-5.87 3.13-7.83-.13-7.83-.13l-5.74-.91-5.61-1.83-1.57-1.7.39-18.91.78-25.96-1.7-18.52-4.7-18.39-7.3-17.74-1.43-6.26.52-3.78 2.09-2.87 3.26-4.04 2.35-2.09.91-1.3-5.87-4.83-21.78-10.43-22.04-5.74-20.48-2.35H629.1l-19.04 3.78-14.09 4.57-14.35 6.52-18.39 15-10.96 11.74-8.74 12.52-5.61 10.3-6.65 19.7-2.48 7.96-.78 14.61v23.09l1.7 6.78 2.35 17.87-.13 8.35.91 19.57 2.22 23.48 4.96 23.48 6 20.61 10.04 22.83 14.1 15.93-11.33 7.6-8.84-10.42-5.09-6.33-6.39-9.65-5.22-13.7-6.33-22.7-5.22-23.48-1.83-24.26V193.1l-2.61-20.35-1.3-15.65 1.3-30.78 4.17-23.22 9.39-20.61 8.09-12.26 9.13-9.91 13.83-10.7L582 35.79l29.48-9.91 14.61-3.13h51.65l22.17 5.74 22.17 8.61 20.87 15.91 14.61 14.87 11.48 21.13 7.83 22.17 3.91 29.22 1.04 12.78 7.3 3.55 6.75 5.97 3.91 5.58 1.47 4.79.98 5.38v9.68l-1.37 13.01-4.3 9.59-6.75 15.46-7.73 12.33-5.97 4.89-7.63 5.09-6.46 2.35-5.87.98-6.26.1-4.01 14.87-1.79 9.52-.26 5.22-.13 8.09.67 4.68-13.5 5.22Z" class="st2"/><path d="m748.71 172.16 17.02-16.63v-27.39l-3.33-17.02-5.18-16.05-8.51-15.65-9.2-11.15-4.89 6.65 5.87 15.07 4.89 13.69 3.33 16.53.58 17.91z" class="st1"/><path d="M598.25 306.57v6.85l5.87 4.7h21.52l4.3-1.37 1.77-4.41v-4.98l-2.94-.79zm-21.13-33.26h-3.03l-.88 5.68 6.06 6.65 8.61 2.15h59.67l5.48-2.35 4.7-2.35 1.42-1.95 1.32-4.5-2.16-1.57-4.1-1.76-8.03 2.94-9 .78-43.04-.39h-7.43l-5.48-1.76-1.96-1.57zm-13.66-94.95-5.28 3.62s-1.27 4.4-1.37 4.7.1 4.21 0 4.5 1.08 3.82 1.08 3.82l3.72 3.33 4.89.68 5.18-.68 3.91-1.66 2.25-4.3.49-3.67-.88-4.65-2.64-2.84-3.42-2.84-4.4-.97-3.52.97Zm93.91-.97-6.36 2.82-3.13 5.19v5.87l3.23 4.5 3.71 2.25 5.09.59 4.01-1.57 3.23-2.84 1.37-3.52.49-4.3-1.37-3.43-3.33-3.32-3.22-2.24zm111.59 4.58-5.74 7.31-4.44 9.33-1.04 12.32 1.56 10.96 6.43-3.65 5.31-8.09 3.13-11.15 1.83-7.37v-5.48z" class="st2"/><path d="m542.06 159.21-1.57 4.11 3.13 4.89 6.26 1.76 6.88-2.74 7.59-1.17 10.76.2 7.43 2.35 7.24 5.09 2.93 5.09v9.22c0 .57-.78 10.28-1.17 11s-5.28 21.46-5.28 21.46l-4.11 13.7-.59 8.22 1.76 6.65 5.09 5.48 9.98 2.5s12.52-.24 13.11 0 11.15 0 11.15 0l8.22-1.92 5.28-2.93 1.96-3.52v-4.89l-3.91-1.17-5.09.78-6.46.78h-16.04l-5.67-.59-5.28-1.17-2.35-2.93v-5.67l2.15-5.09 1.57-6.65 2.93-9.98 1.96-9.2 1.76-9.39.78-8.58-.78-7.49-1.96-6.83-5.28-7.24-10.76-6.07-9.98-2.15-11.35-1.17h-9.78l-8.22 2.93-4.3 2.35Zm96.07-1.37-5.54 4.18 1.17 4.17 4.37 1.96h7.76l6.78-1.7h7.57l7.17.66 4.44 1.04 5.21 3 5.22 2.48 4.44 1.17h3.26l3.52-2.64.78-4.53-1.17-3.26-3.26-3.79-9.39-2.74-11.45-3.91H655.8l-10.56.78-4.7 1.44z" class="st2"/><path d="m685.02 416.72 27.53-51.94 12.96-32.73 5.78-17.19.55-9.65-.94-5.71h-1.19l-6.74 10.2-7.85 7.72-12.72 11.56-16.04 10.01-19.76 9.37-9.84 3.84-11.46 3-10.76 2.83z" class="st1"/></svg>