<?xml version="1.0" encoding="UTF-8"?>
<svg version="1.1" xmlns="http://www.w3.org/2000/svg" width="1024" height="1024">
<path d="M0 0 C2.51643629 -0.00115445 5.03287241 -0.00274414 7.54930818 -0.00472724 C12.98605184 -0.00801353 18.42278188 -0.00824702 23.85952568 -0.00568008 C31.94450811 -0.0018733 40.02948224 -0.00384385 48.11446463 -0.00688839 C62.5597028 -0.01213614 77.00493653 -0.01170498 91.45017512 -0.00880948 C104.09062804 -0.00628835 116.73107933 -0.00563982 129.37153244 -0.00683212 C130.63197967 -0.0069467 130.63197967 -0.0069467 131.91789047 -0.00706359 C135.32939276 -0.00737496 138.74089504 -0.00769336 142.15239732 -0.00802336 C174.11603821 -0.01107831 206.07967629 -0.00831522 238.04331675 -0.00292646 C266.41017614 0.00181956 294.77703103 0.00139332 323.14389038 -0.00338745 C355.05418859 -0.0087475 386.96448432 -0.01086247 418.87478292 -0.00777519 C422.27924752 -0.00745449 425.68371212 -0.00714165 429.08817673 -0.00683212 C429.92637175 -0.00675305 430.76456677 -0.00667397 431.62816164 -0.00659249 C444.25873712 -0.00545735 456.88931079 -0.00678094 469.51988602 -0.00931168 C483.88681953 -0.01217607 498.25374794 -0.01144513 512.62068082 -0.00603093 C520.65097662 -0.00310413 528.68126134 -0.00288921 536.71155684 -0.00667711 C542.72048094 -0.0091978 548.72939083 -0.0064454 554.73831408 -0.00170253 C557.15928547 -0.00059086 559.58025835 -0.00114159 562.00122876 -0.00357832 C604.77188246 -0.04330561 638.59156516 6.07476621 672.59603882 34.12698364 C673.51514038 34.82307739 674.43424194 35.51917114 675.38119507 36.23635864 C676.11209351 36.86026489 676.84299194 37.48417114 677.59603882 38.12698364 C677.59603882 38.78698364 677.59603882 39.44698364 677.59603882 40.12698364 C678.25603882 40.12698364 678.91603882 40.12698364 679.59603882 40.12698364 C682.85906221 43.56936985 685.70556515 47.37028331 688.59603882 51.12698364 C689.33596069 52.07960083 690.07588257 53.03221802 690.83822632 54.01370239 C697.25424074 62.74724515 707.59603882 77.01577977 707.59603882 88.12698364 C708.25603882 88.45698364 708.91603882 88.78698364 709.59603882 89.12698364 C710.1902771 90.96536255 710.1902771 90.96536255 710.66635132 93.35354614 C710.84037476 94.22108521 711.01439819 95.08862427 711.19369507 95.98245239 C711.36771851 96.89639771 711.54174194 97.81034302 711.72103882 98.75198364 C711.99367554 100.08809692 711.99367554 100.08809692 712.27182007 101.45120239 C713.24838577 106.43682731 713.80473502 111.04870946 713.59603882 116.12698364 C714.25603882 116.45698364 714.91603882 116.78698364 715.59603882 117.12698364 C715.72832377 179.71846256 715.64313589 242.31046763 715.3587141 304.90143585 C715.31524473 314.49384178 715.27621616 324.08621057 715.24987793 333.67868042 C715.22705148 341.95343556 715.19372056 350.22807007 715.14743757 358.50272852 C715.1238151 362.77449209 715.10478579 367.04614127 715.09840775 371.31796837 C715.09231547 375.2782641 715.07218592 379.23825289 715.04175937 383.19843411 C715.033106 384.62617011 715.02923429 386.05394625 715.03103173 387.48170733 C715.04297227 401.34762012 713.25755293 415.11272147 708.47103882 428.18948364 C708.17173462 429.02036499 707.87243042 429.85124634 707.5640564 430.70730591 C701.05883278 448.07062296 690.01513852 464.31521389 676.59603882 477.12698364 C675.93603882 477.12698364 675.27603882 477.12698364 674.59603882 477.12698364 C674.59603882 477.78698364 674.59603882 478.44698364 674.59603882 479.12698364 C653.43125968 499.82117072 622.27327513 512.19554493 593.05762577 513.68154716 C592.23388761 513.72368003 591.41014945 513.76581289 590.56144953 513.80922251 C580.44664976 514.28221416 570.33425804 514.2656724 560.21064758 514.25396729 C558.00879868 514.25512215 555.80694996 514.25671212 553.60510164 514.25869453 C547.60387824 514.26283965 541.6026709 514.26081887 535.60144746 514.25770831 C529.77495688 514.25566809 523.94846961 514.25835015 518.12197949 514.26085568 C505.46458839 514.2661062 492.80720236 514.26566986 480.14981079 514.26277676 C469.03297943 514.26024897 457.91614991 514.25961007 446.79931831 514.26079941 C445.68786876 514.26091399 445.68786876 514.26091399 444.55396569 514.26103088 C441.54452291 514.26134232 438.53508014 514.26166073 435.52563736 514.26199064 C407.29367776 514.26504835 379.06172135 514.26228186 350.82976225 514.25689374 C325.93992237 514.25217932 301.05008763 514.25254666 276.1602478 514.25735474 C248.07099328 514.26276295 219.9817416 514.26480069 191.89248663 514.26174247 C188.86937527 514.2614219 185.84626391 514.26110904 182.82315254 514.26079941 C182.07903087 514.26072033 181.33490921 514.26064125 180.5682384 514.26055978 C170.24476382 514.25951412 159.92129112 514.26040069 149.59781679 514.26278842 C41.51126788 514.28726617 41.51126788 514.28726617 -4.11415565 513.85456824 C-7.59270575 513.8216267 -11.07121219 513.79455731 -14.54985249 513.77323747 C-18.4948246 513.7484265 -22.43939232 513.70936564 -26.38411398 513.65862241 C-28.43591834 513.63523018 -30.48786238 513.62522074 -32.53977907 513.61593318 C-65.86436648 513.09476534 -93.43445505 497.07358704 -116.96646118 474.68948364 C-117.77083618 473.84385864 -118.57521118 472.99823364 -119.40396118 472.12698364 C-120.05751587 471.45667114 -120.71107056 470.78635864 -121.38442993 470.09573364 C-150.80794018 438.89972277 -154.79139826 399.42470825 -154.58682251 358.556427 C-154.58129427 355.94394594 -154.57662967 353.33146292 -154.57275391 350.71897888 C-154.56161648 344.40933346 -154.5393859 338.09977646 -154.51276324 331.79017919 C-154.49123622 326.65495806 -154.47349891 321.51973668 -154.45834923 316.38449287 C-154.45616906 315.6488916 -154.45398888 314.91329032 -154.45174265 314.15539809 C-154.4473163 312.66026168 -154.44289344 311.16512525 -154.43847402 309.66998882 C-154.39666554 295.70680437 -154.34158484 281.74369599 -154.28228381 267.78057647 C-154.22861816 255.04918102 -154.19135975 242.31779972 -154.16188518 229.58632725 C-154.13134861 216.45819892 -154.08984297 203.33014681 -154.03660029 190.20209032 C-154.0069809 182.8537466 -153.98149164 175.50544843 -153.9674778 168.15705681 C-153.9541597 161.24651917 -153.92525183 154.33618869 -153.88627243 147.42574883 C-153.87437323 144.90362913 -153.86736765 142.38148036 -153.86586952 139.85933304 C-153.8510573 121.98883226 -153.25446521 104.39922103 -147.21646118 87.37698364 C-146.91457886 86.50485229 -146.61269653 85.63272095 -146.30166626 84.73416138 C-135.05505522 53.34686213 -111.73778177 29.2240421 -82.40396118 14.12698364 C-81.32501587 13.56108521 -80.24607056 12.99518677 -79.13442993 12.41213989 C-69.71378258 7.75514064 -57.16427925 2.40108917 -46.40396118 3.12698364 C-46.07396118 2.46698364 -45.74396118 1.80698364 -45.40396118 1.12698364 C-30.25900379 0.19491904 -15.17076448 -0.01530029 0 0 Z " fill="#1FB883" transform="translate(231.40396118164063,254.87301635742188)"/>
<path d="M0 0 C2.47549311 1.36395685 4.82656611 2.87899012 7.20703125 4.40234375 C16.04654714 9.4587941 25.60192683 11.17512059 35.625 11.125 C36.42607178 11.12886719 37.22714355 11.13273437 38.05249023 11.13671875 C42.51550985 11.12951525 46.65813111 10.7871638 51.0625 10 C54.2437919 9.65347501 55.47507101 9.6391713 58.13671875 11.46875 C59.59711186 12.87245503 61.03881561 14.29577165 62.46484375 15.734375 C72.68596199 24.86881041 86.96141219 26.86881966 100 29 C99.98428955 29.58378418 99.9685791 30.16756836 99.95239258 30.76904297 C99.88917972 33.47092595 99.85074077 36.17265259 99.8125 38.875 C99.78736328 39.7928125 99.76222656 40.710625 99.73632812 41.65625 C99.63159724 51.57077344 101.9692488 60.03867296 108 68 C108.5671875 68.46535156 109.134375 68.93070312 109.71875 69.41015625 C111 71 111 71 110.81640625 73.32421875 C109.94231767 76.18905454 108.94739979 78.99274396 107.9375 81.8125 C104.66576061 92.34415746 104.13452904 104.85106228 109 115 C110.80629074 117.86094416 112.66527923 120.63497262 114.671875 123.359375 C116.38715909 126.76976337 116.0470593 128.37336732 115 132 C110.53385528 142.17642976 103.18620831 148.95274591 93 153 C93.2165625 153.93199219 93.433125 154.86398437 93.65625 155.82421875 C98.06886976 176.02829721 95.39140602 193.15860683 85 211 C84.0285504 212.35427599 83.0400015 213.6976273 82 215 C82.350625 215.515625 82.70125 216.03125 83.0625 216.5625 C84.40632868 220.05645456 83.81716744 222.37502975 83 226 C73.21291918 239.86503116 54.93031726 247.69676595 38.8125 251.375 C19.38278736 254.19260183 1.91732913 252.15117017 -14.1796875 240.41015625 C-22.90912301 233.41013721 -27.10080529 223.05059641 -31.9140625 213.21875 C-33.28411031 210.42442063 -34.69469364 207.6579323 -36.1484375 204.90625 C-45.92786798 186.25218329 -49.55409294 167.64129641 -45.19163513 146.84512329 C-42.50058442 133.69940957 -41.55579539 121.0366961 -41.65234375 107.6328125 C-41.6582679 106.79927561 -41.66419205 105.96573872 -41.67029572 105.10694313 C-41.72319279 99.11226669 -41.82761785 93.11885334 -41.9375 87.125 C-42.04282123 81.07149031 -42.12936084 75.01831739 -42.18481636 68.96413803 C-42.21382242 66.59136036 -42.26829499 64.22018366 -42.32493591 61.84793091 C-42.61878044 43.1794271 -37.24980677 25.77517351 -24.20239258 11.99780273 C-17.93542656 5.70284477 -9.42050872 -1.42196358 0 0 Z " fill="#FDFEFE" transform="translate(683,419)"/>
<path d="M0 0 C3.86616874 3.34097724 7.16415358 6.74623037 10 11 C10 11.99 10 12.98 10 14 C10.67546875 13.79503906 11.3509375 13.59007812 12.046875 13.37890625 C12.93890625 13.10949219 13.8309375 12.84007812 14.75 12.5625 C15.63171875 12.29566406 16.5134375 12.02882813 17.421875 11.75390625 C29.668032 8.17283307 42.58581225 9.99630252 54.0703125 15.4609375 C56.47338675 16.87408862 58.74110066 18.3685727 61 20 C61.886875 20.5775 62.77375 21.155 63.6875 21.75 C70.47535745 28.35440185 75.74290121 36.26786557 76.171875 45.83203125 C76.21444353 49.55919096 76.13095006 53.27519838 76 57 C77.06347656 57.13019531 78.12695312 57.26039063 79.22265625 57.39453125 C88.77755211 58.92608126 97.15368554 64.21607702 103.25 71.6875 C109.7357863 81.07948563 111.20107539 90.73991819 110 102 C109.13897567 105.58883849 108.10684811 109.0108767 106.875 112.48828125 C105.89034124 114.87148503 105.89034124 114.87148503 106 117 C107.17335138 118.16143918 108.39028622 119.2790181 109.625 120.375 C118.17129566 128.70915357 121.96565874 139.55451268 122.3125 151.25 C122.03435584 166.26978466 116.58499515 177.53183702 106 188 C105.34 188.33 104.68 188.66 104 189 C104.28875 189.86625 104.5775 190.7325 104.875 191.625 C105.24625 192.73875 105.6175 193.8525 106 195 C106.35578125 195.91910156 106.7115625 196.83820313 107.078125 197.78515625 C109.30021782 205.53423418 108.00273204 214.85249089 104.2734375 221.98046875 C99.11974779 230.15365151 93.0541032 234.50543385 84 238 C83.01 238 82.02 238 81 238 C80.95875 238.825 80.9175 239.65 80.875 240.5 C79.07031918 247.71872327 73.23643856 254.05359057 67 258 C55.45624179 263.40801528 55.45624179 263.40801528 49 263 C48.34 261.68 47.68 260.36 47 259 C49.42460402 256.3095756 52.07120261 254.69467153 55.1875 252.875 C64.8482794 246.76203655 70.96904897 239.13211045 74 228 C75.12439903 220.14910763 74.21268691 212.8132562 70 206 C66.07935011 201.50376534 61.94284992 198.16526469 56 197 C55.15179687 196.98453125 54.30359375 196.9690625 53.4296875 196.953125 C46.04200407 196.75182572 46.04200407 196.75182572 42.83984375 194.44140625 C35.77893289 186.75086003 33.63603622 177.50765117 33.7109375 167.30859375 C34.26488596 160.96812957 36.1767078 154.68844637 39.76171875 149.40234375 C41.29760147 147.10520136 41.29760147 147.10520136 40.3671875 144.890625 C39.0408444 143.05648197 37.67208132 141.40128887 36.125 139.75 C29.58926824 132.30342054 27.80336226 124.9660274 27.8125 115.1875 C27.81185547 114.47263428 27.81121094 113.75776855 27.81054688 113.02124023 C27.84690621 109.40224685 28.00501836 106.04846406 29 102.5625 C30.2052657 98.26874093 30.18429601 94.42310419 30 90 C25.53640716 89.16956412 21.41838007 89.0038432 16.875 89.125 C3.02432458 89.20451019 -8.95012057 85.01283691 -19.30859375 75.84375 C-21.24768579 73.73000533 -22.60166905 71.497325 -24 69 C-24.99257813 69.2165625 -25.98515625 69.433125 -27.0078125 69.65625 C-44.09900332 73.22785978 -59.01888614 73.30642514 -74.625 64.59765625 C-77 63 -77 63 -78.953125 60.79296875 C-80.88447631 58.74508207 -80.88447631 58.74508207 -83.671875 58.765625 C-101.4100483 61.55691115 -115.31019689 71.03603967 -126.125 85.23046875 C-137.40092778 101.88595375 -141.20028832 120.64118376 -141.1875 140.4375 C-141.18814453 141.47777344 -141.18878906 142.51804687 -141.18945312 143.58984375 C-141.12719633 152.82648803 -140.29227391 161.86177737 -139 171 C-146.2219694 170.33001007 -149.06621428 167.99623871 -154 163 C-155.36125 161.6696875 -155.36125 161.6696875 -156.75 160.3125 C-163.37414094 151.73479885 -164.12469793 140.41519094 -163.26171875 129.99951172 C-162.21149033 121.97584493 -158.71980276 116.5074987 -153.0625 110.9375 C-149.77524675 107.66672707 -149.77524675 107.66672707 -148.8671875 103.3203125 C-149.25238877 101.45762693 -149.70655631 99.60808634 -150.22265625 97.77734375 C-153.29792646 86.78982054 -149.65308584 75.38683696 -144.3125 65.6875 C-140.38931976 59.55252682 -135.01798908 55.01199272 -129 51 C-128.59923738 48.12214339 -128.59923738 48.12214339 -128.625 44.75 C-127.86380036 30.4775067 -122.3976069 19.79306995 -112.0625 10.1875 C-108.34402517 7.08037984 -104.49310451 4.80236702 -100 3 C-98.72382812 2.46246094 -98.72382812 2.46246094 -97.421875 1.9140625 C-92.70920874 0.65519959 -88.232839 0.66115686 -83.375 0.6875 C-82.39966309 0.68878906 -81.42432617 0.69007813 -80.41943359 0.69140625 C-73.2207737 0.78721274 -66.82465914 1.58113347 -60 4 C-59.67 3.01 -59.34 2.02 -59 1 C-41.58327275 -12.03708239 -17.91793753 -12.64131655 0 0 Z " fill="#FDFEFE" transform="translate(768,344)"/>
<path d="M0 0 C10.15128511 7.84872537 15.68618118 20.39886615 17.5859375 32.8359375 C19.47847286 49.89501289 18.23757639 67.58055648 8 82 C1.4832765 90.1331764 -6.57415069 95.44688676 -17 97 C-29.44538028 97.82339284 -40.12626824 96.9117923 -50.16015625 88.68359375 C-62.36202673 77.51797554 -66.22646457 63.78299498 -67.12890625 47.703125 C-67.49933545 32.58961369 -64.62073988 16.37220732 -54 5 C-39.35057349 -10.0839434 -17.5680916 -10.81113329 0 0 Z " fill="#FBFDFD" transform="translate(302,523)"/>
<path d="M0 0 C1.30771362 -0.00956978 1.30771362 -0.00956978 2.6418457 -0.01933289 C3.592771 -0.02044571 4.54369629 -0.02155853 5.5234375 -0.02270508 C6.49949951 -0.02603348 7.47556152 -0.02936188 8.48120117 -0.03279114 C10.55598478 -0.03786808 12.63077659 -0.04019923 14.70556641 -0.04003906 C17.8572373 -0.04220798 21.0085482 -0.06030649 24.16015625 -0.0793457 C26.17708214 -0.08228311 28.19400969 -0.08426558 30.2109375 -0.08520508 C31.61303467 -0.09598335 31.61303467 -0.09598335 33.04345703 -0.10697937 C43.13048897 -0.07238277 51.06963185 1.51068261 58.8984375 8.14526367 C66.09920966 15.45585153 68.03058808 23.59736891 68.2734375 33.64526367 C68.01771177 45.16454562 65.11576154 53.24012187 56.7734375 61.33276367 C52.16487592 65.32431122 47.79413211 66.91317551 41.8984375 68.14526367 C41.299104 68.31799805 40.69977051 68.49073242 40.08227539 68.66870117 C37.5611958 69.21885739 35.27540764 69.25792048 32.6953125 69.24291992 C31.715625 69.23969727 30.7359375 69.23647461 29.7265625 69.2331543 C28.71078125 69.22477539 27.695 69.21639648 26.6484375 69.20776367 C25.1015625 69.20099609 25.1015625 69.20099609 23.5234375 69.1940918 C20.98171177 69.18232455 18.44010431 69.16588378 15.8984375 69.14526367 C15.90629272 70.50059204 15.90629272 70.50059204 15.91430664 71.88330078 C15.93131436 75.22477857 15.94387083 78.56621059 15.95336914 81.90771484 C15.95840851 83.3559644 15.96524003 84.80420884 15.97387695 86.25244141 C15.98595997 88.33000955 15.99166961 90.40751064 15.99609375 92.48510742 C16.00394897 94.3625061 16.00394897 94.3625061 16.01196289 96.27783203 C15.8984375 99.14526367 15.8984375 99.14526367 14.8984375 100.14526367 C11.90825589 100.27194132 8.95149642 100.33047206 5.9609375 100.33276367 C4.70506836 100.35113281 4.70506836 100.35113281 3.42382812 100.36987305 C2.62267578 100.37180664 1.82152344 100.37374023 0.99609375 100.37573242 C0.25883057 100.37984131 -0.47843262 100.3839502 -1.23803711 100.38818359 C-3.1015625 100.14526367 -3.1015625 100.14526367 -5.1015625 98.14526367 C-5.29527405 95.07685497 -5.36368332 92.09898711 -5.34448242 89.02978516 C-5.34638077 88.08500305 -5.34827911 87.14022095 -5.35023499 86.16680908 C-5.35395006 83.0332417 -5.34322888 79.89990432 -5.33203125 76.76635742 C-5.33083984 74.59684781 -5.3303862 72.42733768 -5.3306427 70.25782776 C-5.32907661 65.70733418 -5.32077683 61.15691914 -5.30737305 56.60644531 C-5.29037295 50.75942846 -5.28655891 44.91249792 -5.28731823 39.06545925 C-5.28704695 34.58493722 -5.28157269 30.10443424 -5.27431679 25.62391853 C-5.271124 23.4672364 -5.2691613 21.31055209 -5.26842308 19.15386772 C-5.26626653 16.14632322 -5.25753751 13.13887223 -5.24682617 10.13134766 C-5.24727936 9.23106339 -5.24773254 8.33077911 -5.24819946 7.4032135 C-5.20957635 0.02578762 -5.20957635 0.02578762 0 0 Z " fill="#FCFEFD" transform="translate(157.1015625,517.854736328125)"/>
<path d="M0 0 C1.27423828 -0.00193359 1.27423828 -0.00193359 2.57421875 -0.00390625 C3.91419922 0.00189453 3.91419922 0.00189453 5.28125 0.0078125 C6.17457031 0.00394531 7.06789063 0.00007812 7.98828125 -0.00390625 C8.83777344 -0.00261719 9.68726563 -0.00132812 10.5625 0 C11.34689453 0.00112793 12.13128906 0.00225586 12.93945312 0.00341797 C14.78125 0.1328125 14.78125 0.1328125 15.78125 1.1328125 C15.86915975 3.42432667 15.88819038 5.71853774 15.87890625 8.01171875 C15.8774913 8.6983812 15.87607635 9.38504364 15.87461853 10.09251404 C15.86900479 12.29349051 15.85645007 14.49436659 15.84375 16.6953125 C15.83873676 18.18424333 15.83417355 19.67317574 15.83007812 21.16210938 C15.81903093 24.81904325 15.80175713 28.47591808 15.78125 32.1328125 C16.4203833 32.11186523 17.0595166 32.09091797 17.71801758 32.06933594 C43.93220473 31.3224526 43.93220473 31.3224526 54.15625 39.2578125 C59.6181636 44.4393404 63.53912556 52.03066566 63.984375 59.57421875 C64.20748767 71.31623818 63.35185831 81.24491123 54.83984375 90.16796875 C49.88276401 94.9181443 45.48592657 97.65240034 38.78125 99.1328125 C38.08765381 99.30409668 37.39405762 99.47538086 36.67944336 99.65185547 C32.87407821 100.28335824 29.11544028 100.29527489 25.26953125 100.30078125 C24.46009567 100.30410965 23.6506601 100.30743805 22.81669617 100.31086731 C21.11307339 100.31591306 19.40944079 100.31827636 17.70581055 100.31811523 C15.09212245 100.32031387 12.47884856 100.3385271 9.86523438 100.35742188 C8.20833478 100.3603538 6.55143318 100.36233994 4.89453125 100.36328125 C4.11120926 100.37046677 3.32788727 100.37765228 2.52082825 100.38505554 C-2.98990931 100.36165319 -2.98990931 100.36165319 -5.21875 98.1328125 C-5.41246155 95.0644038 -5.48087082 92.08653593 -5.46166992 89.01733398 C-5.46356827 88.07255188 -5.46546661 87.12776978 -5.46742249 86.15435791 C-5.47113756 83.02079053 -5.46041638 79.88745315 -5.44921875 76.75390625 C-5.44802734 74.58439664 -5.4475737 72.41488651 -5.4478302 70.24537659 C-5.44626411 65.69488301 -5.43796433 61.14446796 -5.42456055 56.59399414 C-5.40756045 50.74697728 -5.40374641 44.90004675 -5.40450573 39.05300808 C-5.40423445 34.57248605 -5.39876019 30.09198307 -5.39150429 25.61146736 C-5.3883115 23.45478523 -5.3863488 21.29810092 -5.38561058 19.14141655 C-5.38345403 16.13387205 -5.37472501 13.12642106 -5.36401367 10.11889648 C-5.36446686 9.21861221 -5.36492004 8.31832794 -5.36538696 7.39076233 C-5.32673413 0.00765964 -5.32673413 0.00765964 0 0 Z " fill="#FCFEFD" transform="translate(419.21875,517.8671875)"/>
<path d="M0 0 C6.46720085 5.47636676 9.71111789 11.15610887 10.82421875 19.578125 C11.11673423 25.9932921 9.84979918 31.61255574 6.5 37.125 C4.03252702 39.7572851 1.40731005 41.99391351 -1.5 44.125 C-0.90832031 44.51429688 -0.31664062 44.90359375 0.29296875 45.3046875 C6.41871691 49.64167723 10.42515935 53.79323137 12.5 61.125 C13.71733393 70.59194508 12.84811198 79.4119111 6.95703125 87.15234375 C-0.26481976 94.96912986 -9.72930308 98.00529421 -20.18359375 98.42578125 C-21.76811755 98.44499058 -23.35289888 98.44863303 -24.9375 98.4375 C-25.76934814 98.43258545 -26.60119629 98.4276709 -27.45825195 98.42260742 C-37.69062865 98.22735217 -46.92462516 95.78540234 -54.29296875 88.3046875 C-58.12767285 83.65932149 -59.28595878 80.11815416 -59.5 74.125 C-56.63942468 71.81402596 -53.91372871 70.29570609 -50.5 68.9375 C-49.654375 68.59332031 -48.80875 68.24914062 -47.9375 67.89453125 C-45.5 67.125 -45.5 67.125 -41.5 67.125 C-41.13648438 67.93904297 -41.13648438 67.93904297 -40.765625 68.76953125 C-38.20537714 74.3461528 -38.20537714 74.3461528 -33.5 78.125 C-28.24888416 79.87537195 -22.79364558 79.91294959 -17.625 77.8125 C-14.9077617 76.34519132 -13.4016334 75.45832604 -11.5 73.125 C-10.27331053 68.97910015 -10.04640447 65.28418858 -11.625 61.25 C-14.59787869 57.88073749 -17.23268634 56.28456492 -21.7265625 55.71875 C-23.99739188 55.65610643 -26.26822524 55.59360709 -28.5390625 55.53125 C-31.5 55.125 -31.5 55.125 -33.37890625 53.90234375 C-34.86344126 51.54881263 -34.86662336 49.9561179 -34.8125 47.1875 C-34.80863281 46.33285156 -34.80476563 45.47820313 -34.80078125 44.59765625 C-34.47012847 41.87943271 -34.19253101 40.29478539 -32.5 38.125 C-29.85546875 37.5859375 -29.85546875 37.5859375 -26.6875 37.5 C-22.50934287 37.36505331 -19.24086948 37.08387911 -15.5 35.125 C-12.56921359 30.33804887 -12.0456156 26.6707769 -12.9296875 21.140625 C-13.77572544 18.1505183 -14.93817526 16.85596266 -17.5 15.125 C-21.91722749 13.16178778 -25.69699445 12.54532692 -30.5 13.125 C-36.66170861 15.71453607 -39.69459002 19.1635038 -42.5 25.125 C-46.53307272 24.5141514 -49.65760698 23.23006114 -53.25 21.3125 C-54.21421875 20.81105469 -55.1784375 20.30960938 -56.171875 19.79296875 C-58.5 18.125 -58.5 18.125 -59.484375 16.19921875 C-59.52182065 11.22830872 -55.07401835 6.82613622 -51.85546875 3.34765625 C-38.95706261 -8.52371052 -14.36859192 -10.24818688 0 0 Z " fill="#FBFDFD" transform="translate(387.5,521.875)"/>
<path d="M0 0 C6.3264672 4.42575227 9.22779825 10.84631821 10.78125 18.24609375 C11.92578151 29.9037427 12.14033677 42.17651006 4.53125 51.68359375 C0.1177701 56.25403842 -4.3037718 58.32401951 -10.65625 58.68359375 C-17.13814651 58.41902655 -22.03523799 55.79034498 -26.53125 51.18359375 C-30.80742469 45.80050736 -32.21875 38.997058 -32.21875 32.24609375 C-34.52875 32.24609375 -36.83875 32.24609375 -39.21875 32.24609375 C-39.21875 40.49609375 -39.21875 48.74609375 -39.21875 57.24609375 C-42.51875 57.24609375 -45.81875 57.24609375 -49.21875 57.24609375 C-50.21875 56.24609375 -50.21875 56.24609375 -50.33900452 53.92393494 C-50.33678391 52.89579178 -50.33456329 51.86764862 -50.33227539 50.80834961 C-50.33219986 49.64722153 -50.33212433 48.48609344 -50.33204651 47.28977966 C-50.32688522 46.02626175 -50.32172394 44.76274384 -50.31640625 43.4609375 C-50.3149913 42.17498184 -50.31357635 40.88902618 -50.31211853 39.56410217 C-50.30829418 36.13965932 -50.29846462 32.71525866 -50.28741455 29.29083252 C-50.27719864 25.79871186 -50.27262053 22.30658441 -50.26757812 18.81445312 C-50.25684227 11.95831597 -50.23976684 5.10220688 -50.21875 -1.75390625 C-48.57300434 -1.78078776 -46.92713587 -1.80024748 -45.28125 -1.81640625 C-44.36472656 -1.82800781 -43.44820313 -1.83960938 -42.50390625 -1.8515625 C-40.21875 -1.75390625 -40.21875 -1.75390625 -39.21875 -0.75390625 C-39.13161169 0.95381733 -39.11174993 2.66508024 -39.12109375 4.375 C-39.12431641 5.40947266 -39.12753906 6.44394531 -39.13085938 7.50976562 C-39.13923828 8.59837891 -39.14761719 9.68699219 -39.15625 10.80859375 C-39.16076172 11.90107422 -39.16527344 12.99355469 -39.16992188 14.11914062 C-39.18175174 16.8281787 -39.19823457 19.53710974 -39.21875 22.24609375 C-36.90875 22.24609375 -34.59875 22.24609375 -32.21875 22.24609375 C-32.19296875 21.68921875 -32.1671875 21.13234375 -32.140625 20.55859375 C-31.53028068 12.3466883 -28.90715391 6.05895569 -22.77734375 0.43359375 C-16.12543411 -4.63452788 -6.94941975 -3.98488553 0 0 Z " fill="#FBFDFD" transform="translate(383.21875,440.75390625)"/>
<path d="M0 0 C6.46864584 5.83755844 9.88254005 12.67106911 10.93359375 21.39135742 C11.06091998 24.56183036 11.06007351 27.70273087 11 30.875 C11.00708984 31.93396484 11.01417969 32.99292969 11.02148438 34.08398438 C10.93519551 44.85681776 8.78813486 53.45345486 1.5 61.625 C-2.55857423 65.15988724 -7.37602307 64.64983584 -12.4921875 64.58203125 C-16.5703366 64.20883193 -18.50867385 63.16989136 -21.4375 60.3125 C-30.07697203 49.76142065 -30.49772956 36.3317596 -29.4375 23.3125 C-28.19398991 15.13957502 -26.00469313 6.70568371 -19.875 0.875 C-13.93793369 -2.93081174 -6.25248203 -3.06940027 0 0 Z " fill="#19AC77" transform="translate(286.4375,536.6875)"/>
<path d="M0 0 C5.860156 6.21614679 7.49413646 12.56463235 7.30078125 20.87890625 C6.0940511 33.40069054 -2.87732936 41.23209713 -11.58984375 49.4296875 C-14.99172744 53.21793471 -15.34745744 57.05932064 -16 62 C-18.05014613 64.05014613 -22.12884588 63.23057975 -24.9375 63.25 C-25.67935547 63.270625 -26.42121094 63.29125 -27.18554688 63.3125 C-29.33984375 63.328125 -29.33984375 63.328125 -33 63 C-35.49660875 59.25508687 -35.60518241 56.33310608 -35 52 C-32.91152894 46.72909685 -29.53141343 43.45604201 -25.5 39.5625 C-20.02151363 34.25696157 -16.01143728 29.64479662 -15.5 21.8125 C-16.07298725 17.44347219 -16.60319349 15.80236537 -20 13 C-23.79754893 11.72357959 -26.88122259 11.63574689 -30.6875 12.875 C-33.61166394 15.56206957 -35.07516916 18.48474677 -36.7890625 22.0390625 C-38 24 -38 24 -41 25 C-44.1015625 23.8203125 -44.1015625 23.8203125 -47.625 22.125 C-48.79289063 21.57070313 -49.96078125 21.01640625 -51.1640625 20.4453125 C-54 19 -54 19 -55 18 C-54.86298448 11.42325521 -52.18986664 6.9788675 -48 2 C-34.24216375 -10.83879051 -14.83293063 -11.35808325 0 0 Z " fill="#FBFDFD" transform="translate(582,524)"/>
<path d="M0 0 C1.08152344 -0.020625 2.16304687 -0.04125 3.27734375 -0.0625 C10.14976132 -0.09606492 15.73811369 0.04529974 21.1171875 4.78515625 C24.78248093 9.72698292 25.78393479 12.0137445 25.375 18.25 C24.40673755 21.79554928 23.36305251 24.60070835 20.1875 26.6875 C19.589375 26.873125 18.99125 27.05875 18.375 27.25 C18.375 27.91 18.375 28.57 18.375 29.25 C19.24125 29.3428125 19.24125 29.3428125 20.125 29.4375 C23.30853478 30.58710978 24.48085921 32.50676162 26.375 35.25 C27.90877179 39.85131537 28.27974832 44.59779492 26.69140625 49.25390625 C24.20650168 54.02781006 20.68738679 57.17233232 15.55151367 58.84326172 C12.85212531 59.34771276 10.29729186 59.37977552 7.55078125 59.3828125 C6.44025391 59.38410156 5.32972656 59.38539063 4.18554688 59.38671875 C2.45401367 59.38091797 2.45401367 59.38091797 0.6875 59.375 C-0.47845703 59.37886719 -1.64441406 59.38273437 -2.84570312 59.38671875 C-3.95236328 59.38542969 -5.05902344 59.38414062 -6.19921875 59.3828125 C-7.72421997 59.38112061 -7.72421997 59.38112061 -9.2800293 59.37939453 C-11.625 59.25 -11.625 59.25 -12.625 58.25 C-12.72393778 56.47553991 -12.75299092 54.69713749 -12.75439453 52.91992188 C-12.75754669 51.78204224 -12.76069885 50.6441626 -12.76394653 49.47180176 C-12.7619223 48.23329468 -12.75989807 46.9947876 -12.7578125 45.71875 C-12.75876923 44.45736206 -12.75972595 43.19597412 -12.76071167 41.8963623 C-12.76139375 39.22302862 -12.76003529 36.54978563 -12.75537109 33.87646484 C-12.74967381 30.44293309 -12.75295301 27.0094795 -12.75894356 23.57595062 C-12.76341762 20.31104757 -12.76028883 17.04615407 -12.7578125 13.78125 C-12.75983673 12.54274292 -12.76186096 11.30423584 -12.76394653 10.02819824 C-12.76079437 8.8903186 -12.75764221 7.75243896 -12.75439453 6.58007812 C-12.75359894 5.57271606 -12.75280334 4.565354 -12.75198364 3.52746582 C-12.43718522 -2.1184791 -4.30915763 0.02011275 0 0 Z " fill="#FAFDFC" transform="translate(164.625,438.75)"/>
<path d="M0 0 C0.83265381 0.00523682 1.66530762 0.01047363 2.52319336 0.01586914 C3.42231445 0.0190918 4.32143555 0.02231445 5.24780273 0.02563477 C6.66609375 0.03820312 6.66609375 0.03820312 8.11303711 0.05102539 C9.06243164 0.05553711 10.01182617 0.06004883 10.98999023 0.06469727 C13.34356776 0.07652429 15.69702188 0.09300514 18.05053711 0.11352539 C18.07365821 13.00424794 18.091451 25.89496559 18.10234928 38.78570461 C18.10757862 44.77071805 18.11467719 50.75571735 18.12597656 56.74072266 C18.13680364 62.51135968 18.14281356 68.28198307 18.14541435 74.05262947 C18.14726893 76.25955482 18.15089015 78.46647939 18.15626717 80.67339897 C18.16347521 83.7529858 18.16452815 86.83251553 18.1640625 89.91210938 C18.16765778 90.83423721 18.17125305 91.75636505 18.17495728 92.70643616 C18.16458927 98.99947323 18.16458927 98.99947323 17.05053711 100.11352539 C14.0603555 100.24020304 11.10359603 100.29873377 8.11303711 100.30102539 C6.85716797 100.31939453 6.85716797 100.31939453 5.57592773 100.33813477 C4.77477539 100.34006836 3.97362305 100.34200195 3.14819336 100.34399414 C2.41093018 100.34810303 1.67366699 100.35221191 0.9140625 100.35644531 C-0.94946289 100.11352539 -0.94946289 100.11352539 -2.94946289 98.11352539 C-3.14317444 95.04511669 -3.21158371 92.06724882 -3.19238281 88.99804688 C-3.19428116 88.05326477 -3.1961795 87.10848267 -3.19813538 86.1350708 C-3.20185045 83.00150342 -3.19112928 79.86816604 -3.17993164 76.73461914 C-3.17874023 74.56510953 -3.17828659 72.3955994 -3.17854309 70.22608948 C-3.17697701 65.6755959 -3.16867722 61.12518086 -3.15527344 56.57470703 C-3.13827334 50.72769018 -3.13445931 44.88075964 -3.13521862 39.03372097 C-3.13494734 34.55319894 -3.12947308 30.07269596 -3.12221718 25.59218025 C-3.11902439 23.43549812 -3.11706169 21.27881381 -3.11632347 19.12212944 C-3.11416692 16.11458494 -3.1054379 13.10713395 -3.09472656 10.09960938 C-3.09517975 9.1993251 -3.09563293 8.29904083 -3.09609985 7.37147522 C-3.05844033 0.17810579 -3.05844033 0.17810579 0 0 Z " fill="#F9FCFC" transform="translate(495.949462890625,517.886474609375)"/>
<path d="M0 0 C1.43352212 0.00015908 2.86704998 0.00585132 4.30053711 0.01586914 C5.43041298 0.01799156 5.43041298 0.01799156 6.58311462 0.02015686 C8.99807646 0.02577163 11.41294687 0.03832656 13.82788086 0.05102539 C15.46134307 0.05603849 17.09480672 0.06060173 18.72827148 0.06469727 C22.74067671 0.07574585 26.75301326 0.09302033 30.76538086 0.11352539 C30.76538086 3.74352539 30.76538086 7.37352539 30.76538086 11.11352539 C23.17538086 11.11352539 15.58538086 11.11352539 7.76538086 11.11352539 C7.76538086 15.40352539 7.76538086 19.69352539 7.76538086 24.11352539 C8.92295898 24.06711914 10.08053711 24.02071289 11.27319336 23.97290039 C12.81222992 23.93536291 14.35129456 23.89896488 15.89038086 23.86352539 C16.65092773 23.83000977 17.41147461 23.79649414 18.19506836 23.76196289 C23.57032885 23.66928599 26.47785482 24.58793922 30.76538086 28.11352539 C34.77500584 32.12315037 35.09283233 35.64948852 35.26538086 41.11352539 C35.09283233 46.57756227 34.77500584 50.10390041 30.76538086 54.11352539 C25.45511092 58.20685847 21.74433758 59.23874527 15.15991211 59.24633789 C13.56179688 59.24827148 13.56179688 59.24827148 11.93139648 59.25024414 C10.82473633 59.24637695 9.71807617 59.24250977 8.57788086 59.23852539 C7.45961914 59.24239258 6.34135742 59.24625977 5.18920898 59.25024414 C3.59689453 59.24831055 3.59689453 59.24831055 1.97241211 59.24633789 C0.99763916 59.24520996 0.02286621 59.24408203 -0.98144531 59.24291992 C-3.23461914 59.11352539 -3.23461914 59.11352539 -4.23461914 58.11352539 C-4.33355692 56.3390653 -4.36261006 54.56066288 -4.36401367 52.78344727 C-4.36716583 51.64556763 -4.37031799 50.50768799 -4.37356567 49.33532715 C-4.37154144 48.09682007 -4.36951721 46.85831299 -4.36743164 45.58227539 C-4.36838837 44.32088745 -4.36934509 43.05949951 -4.37033081 41.7598877 C-4.37101289 39.08655401 -4.36965443 36.41331102 -4.36499023 33.73999023 C-4.35929295 30.30645848 -4.36257215 26.87300489 -4.3685627 23.43947601 C-4.37303676 20.17457296 -4.36990798 16.90967946 -4.36743164 13.64477539 C-4.36945587 12.40626831 -4.3714801 11.16776123 -4.37356567 9.89172363 C-4.37041351 8.75384399 -4.36726135 7.61596436 -4.36401367 6.44360352 C-4.36321808 5.43624146 -4.36242249 4.42887939 -4.36160278 3.39099121 C-4.16064665 -0.21317941 -3.71204177 0.13028149 0 0 Z " fill="#FAFDFC" transform="translate(406.234619140625,438.886474609375)"/>
<path d="M0 0 C3.63 0 7.26 0 11 0 C11.33 12.21 11.66 24.42 12 37 C15.35341094 29.31453699 15.35341094 29.31453699 18.69970703 21.62597656 C21.91062566 14.29803461 25.35275486 7.12058191 29 0 C39.05859375 -0.09765625 39.05859375 -0.09765625 42 0 C43.7182309 1.7182309 43.12754321 3.98597749 43.12939453 6.33007812 C43.13254669 7.46795776 43.13569885 8.6058374 43.13894653 9.77819824 C43.1369223 11.01670532 43.13489807 12.2552124 43.1328125 13.53125 C43.13376923 14.79263794 43.13472595 16.05402588 43.13571167 17.3536377 C43.13639375 20.02697138 43.13503529 22.70021437 43.13037109 25.37353516 C43.12467381 28.80706691 43.12795301 32.2405205 43.13394356 35.67404938 C43.13841762 38.93895243 43.13528883 42.20384593 43.1328125 45.46875 C43.13483673 46.70725708 43.13686096 47.94576416 43.13894653 49.22180176 C43.13421829 50.92862122 43.13421829 50.92862122 43.12939453 52.66992188 C43.12859894 53.67728394 43.12780334 54.684646 43.12698364 55.72253418 C43 58 43 58 42 59 C38.7 59 35.4 59 32 59 C31.505 39.695 31.505 39.695 31 20 C29.02 24.6715625 29.02 24.6715625 27 29.4375 C23.94583728 36.59555331 20.81294416 43.70769301 17.5 50.75 C17.16226562 51.46986084 16.82453125 52.18972168 16.4765625 52.93139648 C14.132161 57.867839 14.132161 57.867839 13 59 C8.71 59 4.42 59 0 59 C0 39.53 0 20.06 0 0 Z " fill="#FAFDFC" transform="translate(449,439)"/>
<path d="M0 0 C3.0625 0.3125 3.0625 0.3125 5 1.3125 C6.72306192 4.55591067 5.77491421 7.84745839 5.0625 11.3125 C4.19351573 14.02605573 3.09291809 16.60431374 1.9375 19.20703125 C1.47706299 20.27808357 1.47706299 20.27808357 1.00732422 21.37077332 C0.03529817 23.62647478 -0.95060932 25.875768 -1.9375 28.125 C-2.92117559 30.39337322 -3.90199836 32.66296248 -4.88232422 34.93278503 C-5.49069622 36.33847765 -6.10159753 37.74307899 -6.71533203 39.1464386 C-9.05414542 44.50515633 -10.3449539 48.40441841 -9.9375 54.3125 C-7.8641082 59.00491302 -4.51110892 62.02569554 0.0625 64.3125 C6.93452545 65.07885019 11.48663308 64.43864152 17.0625 60.3125 C21.33509051 56.40613153 22.46382867 51.46329146 24.03515625 46.0546875 C25.05400309 43.33517996 25.70032079 41.97178686 28.0625 40.3125 C31.625 40.4375 31.625 40.4375 35.0625 41.3125 C37.75164665 45.34621998 37.71116653 48.65575709 37.0625 53.3125 C34.28652652 63.15106647 29.25566828 70.20071785 20.625 75.6875 C12.06494074 79.59208844 3.57620073 80.64282682 -5.4375 77.75 C-13.39121272 74.60602202 -18.75193955 69.94380145 -22.24609375 62.109375 C-26.16786371 51.91720449 -23.97984356 41.93253929 -19.78076172 32.18212891 C-17.33939945 26.76928808 -14.65522139 21.48441564 -11.91748047 16.21679688 C-10.97673562 14.38874261 -10.06279649 12.55024636 -9.16015625 10.703125 C-8.63292969 9.62546875 -8.10570312 8.5478125 -7.5625 7.4375 C-7.10101562 6.49132812 -6.63953125 5.54515625 -6.1640625 4.5703125 C-4.41568592 1.35196326 -3.72089705 0.39584011 0 0 Z " fill="#16A46F" transform="translate(687.9375,520.6875)"/>
<path d="M0 0 C0.77915771 0.00202423 1.55831543 0.00404846 2.36108398 0.00613403 C3.15635498 0.00517731 3.95162598 0.00422058 4.77099609 0.00323486 C6.45564859 0.0025531 8.1403037 0.00440711 9.82495117 0.00857544 C12.41257595 0.01392378 15.00002714 0.00863034 17.58764648 0.00222778 C19.22045937 0.00288857 20.85327215 0.00416973 22.48608398 0.00613403 C23.2652417 0.0041098 24.04439941 0.00208557 24.84716797 0 C30.30863294 0.02399549 30.30863294 0.02399549 31.42358398 1.13894653 C31.52252176 2.91340663 31.55157491 4.69180904 31.55297852 6.46902466 C31.55613068 7.6069043 31.55928284 8.74478394 31.56253052 9.91714478 C31.56050629 11.15565186 31.55848206 12.39415894 31.55639648 13.67019653 C31.55735321 14.93158447 31.55830994 16.19297241 31.55929565 17.49258423 C31.55997773 20.16591791 31.55861928 22.8391609 31.55395508 25.51248169 C31.54825779 28.94601344 31.55153699 32.37946703 31.55752754 35.81299591 C31.5620016 39.07789896 31.55887282 42.34279246 31.55639648 45.60769653 C31.55842072 46.84620361 31.56044495 48.08471069 31.56253052 49.36074829 C31.55780228 51.06756775 31.55780228 51.06756775 31.55297852 52.80886841 C31.55218292 53.81623047 31.55138733 54.82359253 31.55056763 55.86148071 C31.42358398 58.13894653 31.42358398 58.13894653 30.42358398 59.13894653 C28.75929347 59.2371859 27.09076468 59.26868284 25.42358398 59.26394653 C24.06233398 59.26781372 24.06233398 59.26781372 22.67358398 59.27175903 C20.42358398 59.13894653 20.42358398 59.13894653 19.42358398 58.13894653 C19.3305438 56.66540305 19.30612133 55.18744062 19.31005859 53.71096802 C19.31013412 52.77006821 19.31020966 51.8291684 19.31028748 50.85975647 C19.31544876 49.83685013 19.32061005 48.81394379 19.32592773 47.76004028 C19.32734268 46.71824112 19.32875763 45.67644196 19.33021545 44.60307312 C19.33583319 41.26083559 19.34838868 37.91866397 19.36108398 34.57644653 C19.3660967 32.31668187 19.37066 30.05691617 19.37475586 27.79714966 C19.38580838 22.24438972 19.40308489 16.69167931 19.42358398 11.13894653 C14.80358398 11.13894653 10.18358398 11.13894653 5.42358398 11.13894653 C5.43929443 12.28895142 5.45500488 13.4389563 5.47119141 14.62380981 C5.52565267 18.9064529 5.55999285 23.1890656 5.58837891 27.47195435 C5.60342869 29.32259272 5.62387332 31.17319564 5.64990234 33.02371216 C5.68645378 35.68981698 5.70334853 38.35544861 5.71655273 41.02175903 C5.73203659 41.84386871 5.74752045 42.66597839 5.76347351 43.51300049 C5.76491533 48.47843025 5.15194923 51.82368763 2.42358398 56.13894653 C-2.02660932 60.18457681 -6.88842805 59.36646605 -12.57641602 59.13894653 C-12.57641602 55.50894653 -12.57641602 51.87894653 -12.57641602 48.13894653 C-10.10141602 47.64394653 -10.10141602 47.64394653 -7.57641602 47.13894653 C-7.56095482 46.27784019 -7.56095482 46.27784019 -7.54518127 45.39933777 C-7.43734167 39.44628991 -7.32272625 33.49340038 -7.20410156 27.54055786 C-7.16068014 25.31630757 -7.11901057 23.09202238 -7.07910156 20.8677063 C-7.02157295 17.67806458 -6.95782917 14.48859973 -6.89282227 11.29910278 C-6.86775352 9.79755394 -6.86775352 9.79755394 -6.84217834 8.26567078 C-6.82223312 7.34479172 -6.8022879 6.42391266 -6.78173828 5.47512817 C-6.766194 4.66016373 -6.75064972 3.84519928 -6.7346344 3.00553894 C-6.38984704 -1.06211392 -3.40739888 0.01497074 0 0 Z " fill="#F6FBF9" transform="translate(292.576416015625,438.8610534667969)"/>
<path d="M0 0 C3.63 0 7.26 0 11 0 C11 6.27 11 12.54 11 19 C13.330625 18.9175 15.66125 18.835 18.0625 18.75 C24.1852299 18.68374805 28.27037043 18.90098771 33 23 C37.13977756 27.67051827 37.36609662 31.95924385 37.4375 38.0625 C37.44773193 38.74731445 37.45796387 39.43212891 37.46850586 40.13769531 C37.37258984 45.69411673 36.05584547 49.72473714 32.31640625 53.86328125 C31.73761719 54.34152344 31.15882813 54.81976563 30.5625 55.3125 C29.69818359 56.04919922 29.69818359 56.04919922 28.81640625 56.80078125 C21.1072851 61.89045908 6.1853459 59 0 59 C0 39.53 0 20.06 0 0 Z " fill="#FBFDFD" transform="translate(200,439)"/>
<path d="M0 0 C11.22 0 22.44 0 34 0 C34 3.3 34 6.6 34 10 C33 11 33 11 30.86694336 11.11352539 C29.95050049 11.10828857 29.03405762 11.10305176 28.08984375 11.09765625 C27.10048828 11.09443359 26.11113281 11.09121094 25.09179688 11.08789062 C24.05087891 11.07951172 23.00996094 11.07113281 21.9375 11.0625 C20.89271484 11.05798828 19.84792969 11.05347656 18.77148438 11.04882812 C16.18096546 11.03699927 13.59047578 11.01906319 11 11 C11 15.29 11 19.58 11 24 C17.6 24 24.2 24 31 24 C31 27.3 31 30.6 31 34 C24.73 34.33 18.46 34.66 12 35 C11.67 39.29 11.34 43.58 11 48 C18.59 48 26.18 48 34 48 C34 51.3 34 54.6 34 58 C33 59 33 59 29.85717773 59.11352539 C28.46597304 59.11327441 27.07476209 59.10771709 25.68359375 59.09765625 C25.03588013 59.09664917 24.3881665 59.09564209 23.7208252 59.09460449 C21.29303221 59.08935843 18.86526439 59.07539725 16.4375 59.0625 C8.3009375 59.0315625 8.3009375 59.0315625 0 59 C0 39.53 0 20.06 0 0 Z " fill="#FDFEFE" transform="translate(545,439)"/>
<path d="M0 0 C1.47583955 0.0001591 2.95168467 0.00585225 4.42749023 0.01586914 C5.20293686 0.01728409 5.97838348 0.01869904 6.77732849 0.02015686 C9.26361893 0.02577194 11.74982059 0.03832693 14.23608398 0.05102539 C15.91772331 0.05603845 17.59936405 0.06060169 19.28100586 0.06469727 C23.41189965 0.07574626 27.54272674 0.09302094 31.67358398 0.11352539 C31.67358398 3.74352539 31.67358398 7.37352539 31.67358398 11.11352539 C28.04358398 11.11352539 24.41358398 11.11352539 20.67358398 11.11352539 C20.68143921 13.24132446 20.68143921 13.24132446 20.68945312 15.41210938 C20.70749707 20.65445326 20.71901377 25.89679439 20.72851562 31.13916016 C20.73355724 33.4119513 20.74039036 35.68473919 20.74902344 37.95751953 C20.76109659 41.2165609 20.76681386 44.47555956 20.77124023 47.73461914 C20.77640152 48.75752548 20.78156281 49.78043182 20.78688049 50.83433533 C20.78699379 52.24568504 20.78699379 52.24568504 20.78710938 53.68554688 C20.78932999 54.51827621 20.7915506 55.35100555 20.7938385 56.20896912 C20.67358398 58.11352539 20.67358398 58.11352539 19.67358398 59.11352539 C18.00929347 59.21176476 16.34076468 59.2432617 14.67358398 59.23852539 C13.31233398 59.24239258 13.31233398 59.24239258 11.92358398 59.24633789 C9.67358398 59.11352539 9.67358398 59.11352539 8.67358398 58.11352539 C8.5805438 56.63998191 8.55612133 55.16201948 8.56005859 53.68554688 C8.56013412 52.74464706 8.56020966 51.80374725 8.56028748 50.83433533 C8.56544876 49.81142899 8.57061005 48.78852264 8.57592773 47.73461914 C8.57734268 46.69281998 8.57875763 45.65102081 8.58021545 44.57765198 C8.58583319 41.23541445 8.59838868 37.89324282 8.61108398 34.55102539 C8.6160967 32.29126073 8.62066 30.03149502 8.62475586 27.77172852 C8.63580837 22.21897148 8.65256374 16.66625314 8.67358398 11.11352539 C7.81893555 11.12512695 6.96428711 11.13672852 6.08374023 11.14868164 C4.97901367 11.15770508 3.87428711 11.16672852 2.73608398 11.17602539 C1.63393555 11.18762695 0.53178711 11.19922852 -0.60375977 11.21118164 C-3.32641602 11.11352539 -3.32641602 11.11352539 -4.32641602 10.11352539 C-4.42432171 8.61614415 -4.45616466 7.11409647 -4.45141602 5.61352539 C-4.45399414 4.79883789 -4.45657227 3.98415039 -4.45922852 3.14477539 C-4.23337481 -0.30945776 -3.57113711 0.12187734 0 0 Z " fill="#F9FCFB" transform="translate(503.326416015625,438.886474609375)"/>
<path d="M0 0 C2 2 2 2 2.4375 4.75 C1.85537044 9.07439102 0.30088573 11.31629669 -3 14 C-17.99305741 23.45114509 -36.98232254 25.68507818 -54.28125 22.2734375 C-60.76191961 20.57018459 -65.96369884 18.45068475 -71 14 C-72.36623674 11.26752652 -72.128426 9.01801098 -72 6 C-71 5 -71 5 -68.5625 4.6875 C-64.37438622 5.0548784 -61.19718282 6.36290653 -57.3671875 8.02734375 C-45.72868137 12.80950221 -28.26552825 11.59662697 -16.62890625 7.2890625 C-13.14925205 5.58284276 -10.04089681 3.57133264 -7 1.171875 C-4.47381865 -0.30830939 -2.88259212 -0.36032401 0 0 Z " fill="#16A46E" transform="translate(737,603)"/>
<path d="M0 0 C0.80373047 -0.020625 1.60746094 -0.04125 2.43554688 -0.0625 C7.49247236 -0.09557883 10.93330004 0.44624393 15.3125 3.25 C19.6223948 7.90934573 20.6745129 11.64357408 20.59375 17.83203125 C20.12928185 21.82516718 18.66703839 25.01155723 16.3125 28.25 C10.95892776 32.39901848 5.6956718 32.41004358 -0.875 32.375 C-1.61169922 32.37886719 -2.34839844 32.38273438 -3.10742188 32.38671875 C-8.56081509 32.37668491 -8.56081509 32.37668491 -9.6875 31.25 C-9.78762401 29.04349344 -9.8183118 26.83377614 -9.8203125 24.625 C-9.82126923 23.96290527 -9.82222595 23.30081055 -9.82321167 22.61865234 C-9.82389326 21.21647039 -9.82204042 19.8142853 -9.81787109 18.41210938 C-9.81252246 16.25904287 -9.8178167 14.10618498 -9.82421875 11.953125 C-9.82355796 10.59374954 -9.82227679 9.2343742 -9.8203125 7.875 C-9.81918457 6.62976563 -9.81805664 5.38453125 -9.81689453 4.1015625 C-9.55233561 -1.72871708 -4.68262993 0.02933519 0 0 Z " fill="#19AD79" transform="translate(182.6875,535.75)"/>
<path d="M0 0 C16.77419355 0 16.77419355 0 22 3 C26.09629389 7.91555267 26.58488413 12.09184151 26.31640625 18.4140625 C25.71441133 23.33407036 24.21148547 25.98611963 20.4375 29.14453125 C16.08202026 31.49550043 12.96059232 31.46142269 8.125 31.25 C5.44375 31.1675 2.7625 31.085 0 31 C0 20.77 0 10.54 0 0 Z " fill="#17A972" transform="translate(435,568)"/>
<path d="M0 0 C3.63 0 7.26 0 11 0 C11 19.47 11 38.94 11 59 C7.37 59 3.74 59 0 59 C-1.7182309 57.2817691 -1.12754321 55.01402251 -1.12939453 52.66992188 C-1.13254669 51.53204224 -1.13569885 50.3941626 -1.13894653 49.22180176 C-1.1369223 47.98329468 -1.13489807 46.7447876 -1.1328125 45.46875 C-1.13376923 44.20736206 -1.13472595 42.94597412 -1.13571167 41.6463623 C-1.13639375 38.97302862 -1.13503529 36.29978563 -1.13037109 33.62646484 C-1.12467381 30.19293309 -1.12795301 26.7594795 -1.13394356 23.32595062 C-1.13841762 20.06104757 -1.13528883 16.79615407 -1.1328125 13.53125 C-1.13483673 12.29274292 -1.13686096 11.05423584 -1.13894653 9.77819824 C-1.13579437 8.6403186 -1.13264221 7.50243896 -1.12939453 6.33007812 C-1.12859894 5.32271606 -1.12780334 4.315354 -1.12698364 3.27746582 C-1 1 -1 1 0 0 Z " fill="#FBFDFD" transform="translate(244,439)"/>
<path d="M0 0 C3.02979229 2.45011264 4.76736631 5.30209892 6 9 C6.25319543 12.24550512 6.23129677 15.49563798 6.25 18.75 C6.270625 19.63171875 6.29125 20.5134375 6.3125 21.421875 C6.35345941 28.30305616 5.53402431 33.33260598 0.625 38.5 C-2 40 -2 40 -4.5625 40 C-7.60229973 38.75290268 -8.99970188 37.62108029 -11 35 C-12.90989064 29.60455894 -13.33653744 24.75937266 -13.3125 19.0625 C-13.32861328 18.30259766 -13.34472656 17.54269531 -13.36132812 16.75976562 C-13.3660698 11.20726089 -12.36401786 7.0436072 -10 2 C-6.23500419 -0.5099972 -4.45706394 -0.61476744 0 0 Z " fill="#16A772" transform="translate(376,449)"/>
<path d="M0 0 C5.12940786 0.06513534 7.76666363 1.47183635 11.5625 4.875 C13.73552224 9.22104447 13.51865432 13.77017475 12.09375 18.3671875 C8.37954749 26.59606721 0.82327496 33.35599989 -7.25 37.25 C-10.0234375 37.41015625 -10.0234375 37.41015625 -12.25 37.25 C-13.25 34.25 -13.25 34.25 -12.32421875 32.0859375 C-11.86660156 31.27382813 -11.40898438 30.46171875 -10.9375 29.625 C-6.58560627 21.25875555 -5.98619451 13.45567465 -5.49609375 4.09375 C-5.11992867 -0.25304645 -4.01824858 0.07983275 0 0 Z " fill="#F8FCFB" transform="translate(816.25,553.75)"/>
<path d="M0 0 C0.90492188 0.02320313 1.80984375 0.04640625 2.7421875 0.0703125 C4.10730469 0.09738281 4.10730469 0.09738281 5.5 0.125 C6.19867188 0.14820313 6.89734375 0.17140625 7.6171875 0.1953125 C7.9471875 0.8553125 8.2771875 1.5153125 8.6171875 2.1953125 C4.9871875 2.1953125 1.3571875 2.1953125 -2.3828125 2.1953125 C-2.3828125 21.6653125 -2.3828125 41.1353125 -2.3828125 61.1953125 C14.49302376 62.01027657 14.49302376 62.01027657 29.359375 55.6953125 C32.37357965 51.70408978 33.7501321 48.94050046 33.71484375 43.96484375 C33.71162109 43.16240234 33.70839844 42.35996094 33.70507812 41.53320312 C33.69669922 40.69982422 33.68832031 39.86644531 33.6796875 39.0078125 C33.67517578 38.16283203 33.67066406 37.31785156 33.66601562 36.44726562 C33.65424153 34.36325095 33.6363064 32.27927273 33.6171875 30.1953125 C34.6071875 30.1953125 35.5971875 30.1953125 36.6171875 30.1953125 C38.55562099 26.92299688 38.88824476 24.40439583 38.9609375 20.625 C38.99058594 19.56410156 39.02023438 18.50320313 39.05078125 17.41015625 C39.09520736 15.17578433 39.13947711 12.9414093 39.18359375 10.70703125 C39.21324219 9.64871094 39.24289063 8.59039062 39.2734375 7.5 C39.29212891 6.53046387 39.31082031 5.56092773 39.33007812 4.56201172 C39.6171875 2.1953125 39.6171875 2.1953125 41.6171875 0.1953125 C44.1484375 -0.10546875 44.1484375 -0.10546875 47.1171875 -0.1171875 C48.096875 -0.13394531 49.0765625 -0.15070313 50.0859375 -0.16796875 C51.33890625 0.01185547 51.33890625 0.01185547 52.6171875 0.1953125 C54.85982123 3.55926309 54.86956379 4.67914585 54.87597656 8.61303711 C54.88228088 9.72106186 54.88858521 10.82908661 54.89508057 11.97068787 C54.8910321 13.16758743 54.88698364 14.364487 54.8828125 15.59765625 C54.88568268 17.44152672 54.88568268 17.44152672 54.88861084 19.32264709 C54.89032194 22.59104451 54.88226529 25.8592523 54.87109375 29.12762451 C54.86462847 32.44643537 54.87996221 35.7651911 54.890625 39.08398438 C54.88930323 41.609376 54.88674048 44.13476734 54.8828125 46.66015625 C54.88686096 47.85503159 54.89090942 49.04990692 54.89508057 50.2809906 C54.88877625 51.39216751 54.88247192 52.50334442 54.87597656 53.64819336 C54.87438538 54.62509628 54.87279419 55.60199921 54.87115479 56.60850525 C54.6171875 59.1953125 54.6171875 59.1953125 52.6171875 63.1953125 C48.9871875 63.1953125 45.3571875 63.1953125 41.6171875 63.1953125 C41.6171875 62.5353125 41.6171875 61.8753125 41.6171875 61.1953125 C45.2471875 61.1953125 48.8771875 61.1953125 52.6171875 61.1953125 C52.6171875 41.7253125 52.6171875 22.2553125 52.6171875 2.1953125 C48.9871875 2.5253125 45.3571875 2.8553125 41.6171875 3.1953125 C41.2871875 22.3353125 40.9571875 41.4753125 40.6171875 61.1953125 C40.2871875 61.1953125 39.9571875 61.1953125 39.6171875 61.1953125 C39.6171875 57.2353125 39.6171875 53.2753125 39.6171875 49.1953125 C34.75721352 52.11129689 33.53674165 53.66496986 30.6171875 58.1953125 C29.9571875 58.1953125 29.2971875 58.1953125 28.6171875 58.1953125 C28.33875 59.154375 28.33875 59.154375 28.0546875 60.1328125 C26.6171875 62.1953125 26.6171875 62.1953125 23.69921875 62.8125 C18.76804982 63.38209024 13.82530138 63.37937414 8.8671875 63.3828125 C7.44986328 63.40118164 7.44986328 63.40118164 6.00390625 63.41992188 C5.09769531 63.42185547 4.19148437 63.42378906 3.2578125 63.42578125 C2.02853027 63.43194458 2.02853027 63.43194458 0.77441406 63.43823242 C-1.3828125 63.1953125 -1.3828125 63.1953125 -4.3828125 61.1953125 C-4.7570343 58.72839355 -4.7570343 58.72839355 -4.75512695 55.58398438 C-4.76135574 54.40936646 -4.76758453 53.23474854 -4.77400208 52.02453613 C-4.76479233 50.75057983 -4.75558258 49.47662354 -4.74609375 48.1640625 C-4.74659225 46.86206909 -4.74709076 45.56007568 -4.74760437 44.21862793 C-4.7475146 41.46122684 -4.73707642 38.70411785 -4.71899414 35.94677734 C-4.69630644 32.40902188 -4.69576223 28.87169338 -4.70251179 25.33388519 C-4.70665319 21.9647287 -4.69468228 18.59570427 -4.68359375 15.2265625 C-4.68450516 13.9526062 -4.68541656 12.6786499 -4.68635559 11.36608887 C-4.67682358 10.19147095 -4.66729156 9.01685303 -4.6574707 7.80664062 C-4.65286331 6.7689856 -4.64825592 5.73133057 -4.64350891 4.66223145 C-4.28553344 1.27477988 -3.42257459 0.2805389 0 0 Z " fill="#15A063" transform="translate(202.3828125,436.8046875)"/>
<path d="M0 0 C3.1875 2.1875 3.1875 2.1875 5 5 C5 8.6875 5 8.6875 4 12 C-3.35449122 16.90299415 -17.50151841 14.13742304 -26 13 C-29.08994827 11.98448329 -30.69340339 11.30659661 -33 9 C-33.36599043 5.63288809 -33.37424895 3.65939101 -31.6875 0.6875 C-25.84208329 -5.15791671 -7.22693939 -2.75859317 0 0 Z " fill="#16A46F" transform="translate(757,478)"/>
<path d="M0 0 C3.64393565 2.12562913 5.42334933 4.13968042 7 8 C7.3343175 12.71473402 6.60548767 16.77213928 3.625 20.5 C-0.02606774 23.97720737 -2.9475304 24.34943331 -7.93359375 24.28515625 C-12.03477546 23.71920868 -14.8732799 21.4340074 -17.375 18.25 C-18.82399408 13.03362133 -18.70053657 9.35103481 -16.25 4.625 C-11.73568859 -0.64169665 -6.62772263 -0.88083186 0 0 Z " fill="#FAFDFC" transform="translate(562,596)"/>
<path d="M0 0 C2.85416667 2.37847222 2.85416667 2.37847222 3.25 5.875 C2.875 9.5625 2.875 9.5625 1.140625 11.765625 C-3.98102355 14.58375697 -9.00595519 14.1009441 -14.75 14 C-16.46703125 14.01063477 -16.46703125 14.01063477 -18.21875 14.02148438 C-26.57368244 13.95759372 -26.57368244 13.95759372 -28.95068359 12.25415039 C-30.92208739 9.4142633 -30.48183014 6.89291467 -30.125 3.5625 C-28.4204176 1.12158439 -27.27621911 0.60266758 -24.375 -0.16796875 C-5.9866025 -2.75383715 -5.9866025 -2.75383715 0 0 Z " fill="#17A36D" transform="translate(680.125,476.4375)"/>
<path d="M0 0 C3.32027427 2.80378716 5.82602168 4.95240901 6.203125 9.390625 C6.29505427 14.9983107 6.3092103 19.22002956 3 24 C-0.51253146 26.34168764 -1.86469356 26.49623677 -6 26 C-9.26885225 24.06840549 -10.7046844 22.63281913 -12.3125 19.1875 C-13.665492 12.91453707 -13.49468528 8.49164829 -10 3 C-6.89675595 -0.21025247 -4.38889169 -0.71655375 0 0 Z " fill="#15A36F" transform="translate(743,517)"/>
<path d="M0 0 C3.44707166 0.07507234 3.9153415 0.23859322 6.5625 2.75 C9.53894096 7.86947845 10.00419592 12.97528709 8.55859375 18.66796875 C7.25177413 22.4242199 6.49421955 24.19135363 3.125 26.4375 C-0.73342024 26.85841857 -2.95943264 27.08087166 -6.1875 24.8125 C-9.76630051 19.77566965 -10.20261196 15.51757745 -9.359375 9.5546875 C-8.10384738 4.06681678 -5.6142553 0.63386753 0 0 Z " fill="#15A36E" transform="translate(665.875,513.5625)"/>
<path d="M0 0 C2.10665885 0.2414325 4.21298985 0.48613736 6.31738281 0.74658203 C11.97600031 1.2811329 17.67963517 0.99578771 23.35546875 0.87304688 C24.29777344 0.86208984 25.24007812 0.85113281 26.2109375 0.83984375 C27.48396729 0.81458618 27.48396729 0.81458618 28.78271484 0.78881836 C31 1 31 1 34 3 C34.5 5.875 34.5 5.875 34 9 C29.48988332 13.51011668 25.64244432 14.18308843 19.4375 14.3125 C11.51423353 14.24695074 5.21023031 12.98626076 -0.6875 7.5 C-2 5 -2 5 -1.8125 2.75 C-1 1 -1 1 0 0 Z " fill="#17A66F" transform="translate(680,638)"/>
<path d="M0 0 C10 0 10 0 13.125 2 C15.53239997 5.85183995 15.83322502 8.57405204 15 13 C13.36312815 16.58552881 12.31027417 17.79315055 9 20 C6.03 20 3.06 20 0 20 C0 13.4 0 6.8 0 0 Z " fill="#14A36C" transform="translate(211,468)"/>
<path d="M0 0 C9.93800284 -0.4789399 9.93800284 -0.4789399 14.1875 1.4375 C16.48849725 4.69063404 16.7880255 6.93541075 16.53515625 10.87109375 C16 13 16 13 13.625 15.5625 C8.79234581 17.47889735 5.17881792 17.2799361 0 17 C0 11.39 0 5.78 0 0 Z " fill="#16A773" transform="translate(163,472)"/>
<path d="M0 0 C10.13528336 -0.48263254 10.13528336 -0.48263254 13.6875 1.5 C15.56148435 5.069494 15.89588556 8.06133194 15 12 C13.125 14.5 13.125 14.5 10 16 C6.59045729 16.31232452 3.4387355 16.18339923 0 16 C0 10.72 0 5.44 0 0 Z " fill="#12A26A" transform="translate(414,472)"/>
<path d="M0 0 C10.625 -0.25 10.625 -0.25 14 2 C14.43359375 4.05859375 14.43359375 4.05859375 14.4375 6.4375 C14.45683594 7.21996094 14.47617188 8.00242187 14.49609375 8.80859375 C14 11 14 11 12.30078125 12.7734375 C9.55680556 14.23627004 7.83815016 14.30940066 4.75 14.1875 C3.1825 14.125625 1.615 14.06375 0 14 C0 9.38 0 4.76 0 0 Z " fill="#14AA76" transform="translate(163,449)"/>
<path d="M0 0 C2.31 0 4.62 0 7 0 C7.21914063 1.00160156 7.43828125 2.00320313 7.6640625 3.03515625 C10.0466379 13.79196556 10.0466379 13.79196556 17 22 C22.22544318 25.0563913 27.06926076 25.90849534 33 25 C38.85199997 23.1403878 42.50644056 20.09061518 46 15 C47.15061083 12.69413879 48.08238595 10.41477381 49 8 C49.671875 9.71875 49.671875 9.71875 50 12 C48.890625 14.21875 48.890625 14.21875 47.25 16.5 C46.71890625 17.2528125 46.1878125 18.005625 45.640625 18.78125 C45.09921875 19.5134375 44.5578125 20.245625 44 21 C43.28070313 22.06734375 43.28070313 22.06734375 42.546875 23.15625 C39.88413449 26.33002152 37.78107166 26.91270376 33.6796875 27.37109375 C25.67342918 27.51083337 18.3789921 27.48002217 12 22 C7.57677685 16.07791213 6.02720478 9.20576486 5 2 C4.01 1.67 3.02 1.34 2 1 C2.01047363 1.71655762 2.02094727 2.43311523 2.03173828 3.17138672 C2.07321299 6.40588905 2.09929892 9.64033553 2.125 12.875 C2.14175781 14.00292969 2.15851563 15.13085938 2.17578125 16.29296875 C2.18222656 17.36933594 2.18867188 18.44570313 2.1953125 19.5546875 C2.20578613 20.54968262 2.21625977 21.54467773 2.22705078 22.56982422 C2 25 2 25 0 27 C-2.3828125 27.1953125 -2.3828125 27.1953125 -5.125 27.125 C-6.49011719 27.09792969 -6.49011719 27.09792969 -7.8828125 27.0703125 C-8.58148438 27.04710937 -9.28015625 27.02390625 -10 27 C-10 26.34 -10 25.68 -10 25 C-6.7 25 -3.4 25 0 25 C0 16.75 0 8.5 0 0 Z " fill="#0C995C" transform="translate(344,473)"/>
<path d="M0 0 C0.80373047 -0.020625 1.60746094 -0.04125 2.43554688 -0.0625 C7.49247236 -0.09557883 10.93330004 0.44624393 15.3125 3.25 C19.11714463 7.36312933 20.45558532 10.37711303 20.375 15.9375 C20.36597656 16.74574219 20.35695312 17.55398438 20.34765625 18.38671875 C20.33605469 19.00160156 20.32445312 19.61648438 20.3125 20.25 C19.6525 20.58 18.9925 20.91 18.3125 21.25 C18.27511719 20.51394531 18.23773438 19.77789063 18.19921875 19.01953125 C17.85812425 11.58536689 17.85812425 11.58536689 14.3125 5.25 C11.47973015 3.5592329 9.26410254 2.97649725 5.984375 2.8359375 C5.2634668 2.80032715 4.54255859 2.7647168 3.79980469 2.72802734 C2.44483887 2.67702881 2.44483887 2.67702881 1.0625 2.625 C-1.825 2.50125 -4.7125 2.3775 -7.6875 2.25 C-7.6875 11.49 -7.6875 20.73 -7.6875 30.25 C-2.0775 30.25 3.5325 30.25 9.3125 30.25 C7.3125 32.25 7.3125 32.25 3.65234375 32.48046875 C2.18483136 32.47647733 0.71731791 32.46172158 -0.75 32.4375 C-1.49572266 32.43685547 -2.24144531 32.43621094 -3.00976562 32.43554688 C-8.54721841 32.39028159 -8.54721841 32.39028159 -9.6875 31.25 C-9.78762401 29.04349344 -9.8183118 26.83377614 -9.8203125 24.625 C-9.82126923 23.96290527 -9.82222595 23.30081055 -9.82321167 22.61865234 C-9.82389326 21.21647039 -9.82204042 19.8142853 -9.81787109 18.41210938 C-9.81252246 16.25904287 -9.8178167 14.10618498 -9.82421875 11.953125 C-9.82355796 10.59374954 -9.82227679 9.2343742 -9.8203125 7.875 C-9.81918457 6.62976563 -9.81805664 5.38453125 -9.81689453 4.1015625 C-9.55233561 -1.72871708 -4.68262993 0.02933519 0 0 Z " fill="#18A168" transform="translate(182.6875,535.75)"/>
<path d="M0 0 C0.33 0 0.66 0 1 0 C1.02312821 7.67536627 1.04091753 15.35072896 1.05181217 23.02612209 C1.05703995 26.58977422 1.06413569 30.15340257 1.07543945 33.71704102 C1.08834176 37.81006097 1.09322906 41.9030558 1.09765625 45.99609375 C1.10281754 47.28148544 1.10797882 48.56687714 1.11329651 49.89122009 C1.11337204 51.07236893 1.11344757 52.25351776 1.11352539 53.47045898 C1.115746 54.51636703 1.11796661 55.56227509 1.12025452 56.63987732 C1 59 1 59 0 60 C-1.810285 60.09879565 -3.62452727 60.12971514 -5.4375 60.125 C-6.92056641 60.12886719 -6.92056641 60.12886719 -8.43359375 60.1328125 C-11 60 -11 60 -13 59 C-13.19257595 53.80425528 -13.37124807 48.60828735 -13.53710938 43.41162109 C-13.59547094 41.64423846 -13.65761527 39.8769765 -13.72363281 38.10986328 C-13.81792511 35.56825735 -13.89855832 33.02652655 -13.9765625 30.484375 C-14.00875885 29.69569031 -14.0409552 28.90700562 -14.0741272 28.09442139 C-14.17949032 24.22675823 -14.22720219 21.26859024 -12 18 C-11.67 18 -11.34 18 -11 18 C-11 31.2 -11 44.4 -11 58 C-6.05 57.505 -6.05 57.505 -1 57 C-0.67 38.19 -0.34 19.38 0 0 Z " fill="#1C9958" transform="translate(492,440)"/>
<path d="M0 0 C0.33 0 0.66 0 1 0 C2.00717083 12.68104149 2.12025465 25.28525991 2.0625 38 C2.05746954 39.95051967 2.0529094 41.90104061 2.04882812 43.8515625 C2.03795747 48.56774052 2.02078019 53.28385566 2 58 C4.09839817 57.95510544 6.19610895 57.8771855 8.29296875 57.78515625 C9.46110107 57.74527588 10.6292334 57.70539551 11.83276367 57.66430664 C15.11676568 57.29474855 15.11676568 57.29474855 17.00976562 54.82617188 C18.23153538 52.58595536 19.20241908 50.42210155 20 48 C20.33 48.66 20.66 49.32 21 50 C20.00390625 52.3828125 20.00390625 52.3828125 18.5625 55.125 C18.08941406 56.03507812 17.61632812 56.94515625 17.12890625 57.8828125 C16.75636719 58.58148438 16.38382812 59.28015625 16 60 C13.70890403 60.08075665 11.41700733 60.13907731 9.125 60.1875 C7.21074219 60.23970703 7.21074219 60.23970703 5.2578125 60.29296875 C4.18273437 60.19628906 3.10765625 60.09960938 2 60 C-0.27121709 56.59317436 -0.24468887 55.42202816 -0.22705078 51.42700195 C-0.22689972 50.28604568 -0.22674866 49.14508942 -0.22659302 47.96955872 C-0.21627045 46.73823715 -0.20594788 45.50691559 -0.1953125 44.23828125 C-0.1924826 42.97735153 -0.18965271 41.71642181 -0.18673706 40.4172821 C-0.17743125 37.06839578 -0.15946703 33.71978209 -0.1373291 30.37097168 C-0.11685386 26.95241653 -0.10773176 23.5338332 -0.09765625 20.11523438 C-0.0755818 13.41008081 -0.04209362 6.70505615 0 0 Z " fill="#069B5B" transform="translate(447,440)"/>
<path d="M0 0 C4.62 0 9.24 0 14 0 C14 15.84 14 31.68 14 48 C13.67 48 13.34 48 13 48 C11.95363543 32.65954799 11.89683262 17.37193915 12 2 C8.37 2 4.74 2 1 2 C1 14.54 1 27.08 1 40 C0.67 40 0.34 40 0 40 C0 26.8 0 13.6 0 0 Z " fill="#04944F" transform="translate(298,450)"/>
<path d="M0 0 C0.33 0 0.66 0 1 0 C1.14496508 3.77043032 1.23395607 7.54014742 1.3125 11.3125 C1.3753418 12.9202832 1.3753418 12.9202832 1.43945312 14.56054688 C1.45556641 15.58857422 1.47167969 16.61660156 1.48828125 17.67578125 C1.51446533 18.62364502 1.54064941 19.57150879 1.56762695 20.5480957 C1 23 1 23 -1.39379883 24.63354492 C-2.25384521 25.0844751 -3.1138916 25.53540527 -4 26 C-5.36011609 27.98188345 -6.69791204 29.97951869 -8 32 C-8.66 32 -9.32 32 -10 32 C-10.66 33.32 -11.32 34.64 -12 36 C-12.33 35.34 -12.66 34.68 -13 34 C-12.25943359 33.07767578 -12.25943359 33.07767578 -11.50390625 32.13671875 C-10.86324219 31.32847656 -10.22257813 30.52023437 -9.5625 29.6875 C-8.92441406 28.88699219 -8.28632813 28.08648437 -7.62890625 27.26171875 C-5.3321779 24.07273622 -4.87521545 21.59462191 -4.90234375 17.76953125 C-4.90556641 16.96708984 -4.90878906 16.16464844 -4.91210938 15.33789062 C-4.92048828 14.50451172 -4.92886719 13.67113281 -4.9375 12.8125 C-4.94201172 11.96751953 -4.94652344 11.12253906 -4.95117188 10.25195312 C-4.96294597 8.16793845 -4.9808811 6.08396023 -5 4 C-4.01 4 -3.02 4 -2 4 C-1.34 2.68 -0.68 1.36 0 0 Z " fill="#11A670" transform="translate(241,463)"/>
<path d="M0 0 C7.59 0 15.18 0 23 0 C22.67 0.66 22.34 1.32 22 2 C15.07 2 8.14 2 1 2 C1 4.97 1 7.94 1 11 C1.99 10.94199219 2.98 10.88398438 4 10.82421875 C17.08604687 10.27903584 17.08604687 10.27903584 22.35546875 14.30859375 C26.80702994 18.88704029 29.76038355 24.05559747 32 30 C31.34 30 30.68 30 30 30 C30 31.65 30 33.3 30 35 C29.34 34.67 28.68 34.34 28 34 C27.17442908 30.78843842 26.5884565 27.55539485 25.9765625 24.296875 C24.71470578 20.0368467 22.85575811 17.38756226 19.296875 14.7265625 C15.67181496 13.57985983 12.03128053 13.52549873 8.25 13.375 C7.45722656 13.33632813 6.66445313 13.29765625 5.84765625 13.2578125 C3.89880584 13.163892 1.94943549 13.08087178 0 13 C0 8.71 0 4.42 0 0 Z " fill="#0E995A" transform="translate(414,450)"/>
<path d="M0 0 C1.66666667 1.66666667 3.33333333 3.33333333 5 5 C5.99 5 6.98 5 8 5 C8.495 6.485 8.495 6.485 9 8 C13.79071222 11.35708263 19.35854899 12.79111764 25 14 C25 14.66 25 15.32 25 16 C25.71027344 15.98839844 26.42054688 15.97679687 27.15234375 15.96484375 C28.07144531 15.95582031 28.99054687 15.94679688 29.9375 15.9375 C31.31228516 15.92009766 31.31228516 15.92009766 32.71484375 15.90234375 C35 16 35 16 36 17 C38.32817964 17.36760731 40.6618385 17.70241581 43 18 C43 18.33 43 18.66 43 19 C28.86546864 19.91683447 16.82298558 15.70561019 5 8 C3.23828125 6.1796875 3.23828125 6.1796875 1.875 4.5 C-0.66552783 1.77936535 -0.66552783 1.77936535 -3.375 1.8515625 C-5.24423792 2.03742422 -7.1086765 2.27789607 -8.96484375 2.56640625 C-13.96084801 3.28012114 -18.96399981 3.07909948 -24 3 C-24 2.67 -24 2.34 -24 2 C-20.75198175 1.46626918 -17.50138509 0.95028732 -14.25 0.4375 C-13.32960938 0.28603516 -12.40921875 0.13457031 -11.4609375 -0.02148438 C-10.12675781 -0.2293457 -10.12675781 -0.2293457 -8.765625 -0.44140625 C-7.94868164 -0.57232666 -7.13173828 -0.70324707 -6.29003906 -0.83813477 C-3.87207308 -1.00904217 -2.26669164 -0.84599778 0 0 Z " fill="#0B9456" transform="translate(740,428)"/>
<path d="M0 0 C0.33 0 0.66 0 1 0 C0.67 16.17 0.34 32.34 0 49 C-0.33 49 -0.66 49 -1 49 C-1.22786458 46.94921875 -1.45572917 44.8984375 -1.68359375 42.84765625 C-1.81886614 40.98859771 -1.81886614 40.98859771 -3 40 C-3.08790975 37.70848583 -3.10694038 35.41427476 -3.09765625 33.12109375 C-3.0962413 32.4344313 -3.09482635 31.74776886 -3.09336853 31.04029846 C-3.08775479 28.83932199 -3.07520007 26.63844591 -3.0625 24.4375 C-3.05748676 22.94856917 -3.05292355 21.45963676 -3.04882812 19.97070312 C-3.03778093 16.31376925 -3.02050713 12.65689442 -3 9 C-2.34 9 -1.68 9 -1 9 C-1.020625 7.88625 -1.04125 6.7725 -1.0625 5.625 C-1 2 -1 2 0 0 Z " fill="#1A9F65" transform="translate(641,463)"/>
<path d="M0 0 C0.66 0.33 1.32 0.66 2 1 C1.54109375 1.37769531 1.0821875 1.75539063 0.609375 2.14453125 C-6.11199636 8.17399674 -8.39444226 15.27961778 -10 24 C-12.31 24 -14.62 24 -17 24 C-17 16.41 -17 8.82 -17 1 C-16.34 1 -15.68 1 -15 1 C-15 7.93 -15 14.86 -15 22 C-13.68 22 -12.36 22 -11 22 C-11.0721875 21.17242187 -11.144375 20.34484375 -11.21875 19.4921875 C-10.94240013 15.08045922 -9.4593129 12.02849597 -7.5 8.125 C-7.16613281 7.43664062 -6.83226562 6.74828125 -6.48828125 6.0390625 C-5.66928273 4.35426554 -4.83606409 2.67639381 -4 1 C-3.01 1 -2.02 1 -1 1 C-0.67 0.67 -0.34 0.34 0 0 Z " fill="#109B60" transform="translate(361,439)"/>
<path d="M0 0 C6.27 0 12.54 0 19 0 C19 0.33 19 0.66 19 1 C13.39 1 7.78 1 2 1 C2 4.63 2 8.26 2 12 C3.65 11.34 5.3 10.68 7 10 C13.04955259 9.59669649 18.13000287 10.53250072 24 12 C24 15.63 24 19.26 24 23 C23.67 23 23.34 23 23 23 C23 19.7 23 16.4 23 13 C15.41 13 7.82 13 0 13 C0 8.71 0 4.42 0 0 Z " fill="#0E9859" transform="translate(556,474)"/>
<path d="M0 0 C-0.7734375 0.27972656 -1.546875 0.55945313 -2.34375 0.84765625 C-10.84462861 4.11965284 -17.60406917 7.83805188 -22.5625 15.6875 C-24.17217966 18.71104771 -24.17217966 18.71104771 -23.875 21.03515625 C-22.65270726 23.77985825 -21.08492064 24.40764587 -18.4375 25.75 C-17.61121094 26.17796875 -16.78492188 26.6059375 -15.93359375 27.046875 C-15.29550781 27.36140625 -14.65742188 27.6759375 -14 28 C-14.66 28.33 -15.32 28.66 -16 29 C-18.12890625 28.0390625 -18.12890625 28.0390625 -20.5625 26.625 C-21.36816406 26.16351562 -22.17382812 25.70203125 -23.00390625 25.2265625 C-25 24 -25 24 -26 23 C-25.90997602 20.97591245 -25.75358962 18.95455713 -25.5625 16.9375 C-25.46066406 15.83277344 -25.35882813 14.72804688 -25.25390625 13.58984375 C-25.17011719 12.73519531 -25.08632813 11.88054688 -25 11 C-24.07960938 10.82791016 -24.07960938 10.82791016 -23.140625 10.65234375 C-19.96803399 9.68551401 -18.82678048 7.67492855 -17 5 C-17 4.34 -17 3.68 -17 3 C-16.154375 2.896875 -15.30875 2.79375 -14.4375 2.6875 C-10.88390884 2.10914883 -10.88390884 2.10914883 -7.375 0.375 C-3.89876824 -1.04124257 -3.32717183 -1.0896851 0 0 Z " fill="#099353" transform="translate(353,517)"/>
<path d="M0 0 C0.33 0 0.66 0 1 0 C1.33 7.92 1.66 15.84 2 24 C5.15963139 20.84036861 6.38411753 18.36009177 8.1875 14.3125 C8.71730469 13.13300781 9.24710937 11.95351563 9.79296875 10.73828125 C10.19128906 9.83464844 10.58960938 8.93101562 11 8 C12.2978122 11.89343659 11.39961497 13.02230316 9.76171875 16.7265625 C9.27123047 17.8403125 8.78074219 18.9540625 8.27539062 20.1015625 C7.75138672 21.26429688 7.22738281 22.42703125 6.6875 23.625 C6.17509766 24.79546875 5.66269531 25.9659375 5.13476562 27.171875 C1.26644093 35.86677954 1.26644093 35.86677954 -1 37 C-0.67 24.79 -0.34 12.58 0 0 Z " fill="#098E48" transform="translate(461,440)"/>
<path d="M0 0 C0.66 0.33 1.32 0.66 2 1 C1.443125 1.49886719 0.88625 1.99773437 0.3125 2.51171875 C-10.10274597 12.31119849 -15.80651276 23.55261544 -20 37 C-20.33 37 -20.66 37 -21 37 C-21.125 29.25 -21.125 29.25 -20 27 C-19.34 27 -18.68 27 -18 27 C-17.81824219 26.21753906 -17.63648438 25.43507813 -17.44921875 24.62890625 C-17.19785156 23.61699219 -16.94648437 22.60507812 -16.6875 21.5625 C-16.44386719 20.55316406 -16.20023438 19.54382813 -15.94921875 18.50390625 C-15.63597656 17.67761719 -15.32273437 16.85132813 -15 16 C-14.01 15.67 -13.02 15.34 -12 15 C-11.690625 13.865625 -11.38125 12.73125 -11.0625 11.5625 C-10 8 -10 8 -8 6.8125 C-7.34 6.544375 -6.68 6.27625 -6 6 C-5.67 5.34 -5.34 4.68 -5 4 C-3.74207887 1.48415775 -2.62522541 0.90242123 0 0 Z " fill="#10985B" transform="translate(663,425)"/>
<path d="M0 0 C3.63 0 7.26 0 11 0 C11.33 0.66 11.66 1.32 12 2 C8.7 2 5.4 2 2 2 C2 6.29 2 10.58 2 15 C7.445 14.505 7.445 14.505 13 14 C10 17 10 17 7.51953125 17.29296875 C6.62621094 17.25816406 5.73289063 17.22335937 4.8125 17.1875 C3.224375 17.125625 1.63625 17.06375 0 17 C0 11.39 0 5.78 0 0 Z " fill="#2FA36D" transform="translate(163,472)"/>
<path d="M0 0 C0.66 0 1.32 0 2 0 C2 0.66 2 1.32 2 2 C3.32 1.34 4.64 0.68 6 0 C6.556875 1.175625 6.556875 1.175625 7.125 2.375 C9.05974076 6.28168807 11.38343592 9.9407111 13.6953125 13.6328125 C15.99680051 17.8085662 16.15839012 21.3859112 16.1875 26.125 C16.20167969 27.17945313 16.21585937 28.23390625 16.23046875 29.3203125 C16 32 16 32 14 34 C13.98582031 32.96101562 13.97164063 31.92203125 13.95703125 30.8515625 C13.72531105 22.5316089 13.48237807 14.74754224 8 8 C5.1663083 5.64571008 2.24411958 3.73867847 -1 2 C-0.67 1.34 -0.34 0.68 0 0 Z " fill="#0D985C" transform="translate(386,565)"/>
<path d="M0 0 C2.40142079 3.68818892 2.17711373 7.15916349 1.9765625 11.390625 C1.95153656 12.09523865 1.92651062 12.79985229 1.90072632 13.52581787 C1.81880855 15.7677221 1.72211305 18.00870767 1.625 20.25 C1.56673139 21.77340045 1.50942874 23.29683817 1.453125 24.8203125 C1.31327353 28.54737219 1.16016663 32.27375178 1 36 C0.67 36 0.34 36 0 36 C-1.14535961 29.61871077 -1.14853112 23.34605903 -1.125 16.875 C-1.12886719 15.80378906 -1.13273438 14.73257812 -1.13671875 13.62890625 C-1.13542969 12.59378906 -1.13414062 11.55867188 -1.1328125 10.4921875 C-1.13168457 9.55745605 -1.13055664 8.62272461 -1.12939453 7.65966797 C-1.00063534 5.01305925 -0.58820414 2.58003743 0 0 Z " fill="#069454" transform="translate(627,468)"/>
<path d="M0 0 C2.97 0 5.94 0 9 0 C9 0.33 9 0.66 9 1 C6.69 1 4.38 1 2 1 C2 4.63 2 8.26 2 12 C7.31925322 11.94245508 7.31925322 11.94245508 12 10 C12.36760731 7.67182036 12.70241581 5.3381615 13 3 C13.33 3 13.66 3 14 3 C14.390625 8.95703125 14.390625 8.95703125 14 11 C11.83687649 13.2432392 10.5281544 13.93998245 7.421875 14.29296875 C6.54015625 14.25816406 5.6584375 14.22335937 4.75 14.1875 C3.1825 14.125625 1.615 14.06375 0 14 C0 9.38 0 4.76 0 0 Z " fill="#19975B" transform="translate(163,449)"/>
<path d="M0 0 C1.52605679 2.03321938 3.05043562 4.06762388 4.5703125 6.10546875 C5.08335937 6.79253906 5.59640625 7.47960937 6.125 8.1875 C6.64320313 8.88230469 7.16140625 9.57710937 7.6953125 10.29296875 C8.88992339 11.93406217 8.88992339 11.93406217 10 13 C12.71027491 13.28648879 15.42089608 13.44835421 18.140625 13.62109375 C21.05014395 14.00664476 23.3343367 14.79850578 26 16 C26 16.33 26 16.66 26 17 C19.92395394 18.14548409 15.28051505 18.55827598 9.8203125 15.375 C5.49907424 12.11088869 2.12015901 7.9932717 0 3 C0 2.01 0 1.02 0 0 Z " fill="#079252" transform="translate(803,526)"/>
<path d="M0 0 C4.58333333 4.16666667 4.58333333 4.16666667 6 7 C4.0470509 6.03216682 2.10792719 5.06006383 0.203125 4 C-7.14106572 0.23977435 -14.90708673 -0.24532343 -23 -1 C-23 -1.33 -23 -1.66 -23 -2 C-15.17344722 -3.04247117 -7.22250899 -3.90405891 0 0 Z " fill="#0F9C5E" transform="translate(576,517)"/>
<path d="M0 0 C0.33 0 0.66 0 1 0 C1.33 2.97 1.66 5.94 2 9 C2.66 8.67 3.32 8.34 4 8 C3.67 9.98 3.34 11.96 3 14 C2.01 14.33 1.02 14.66 0 15 C-0.309375 15.969375 -0.61875 16.93875 -0.9375 17.9375 C-2 21 -2 21 -4 22.125 C-4.66 22.41375 -5.32 22.7025 -6 23 C-7.26804566 25.0335948 -7.26804566 25.0335948 -8 27 C-8.33 26.34 -8.66 25.68 -9 25 C-8.25943359 24.07767578 -8.25943359 24.07767578 -7.50390625 23.13671875 C-6.86324219 22.32847656 -6.22257813 21.52023437 -5.5625 20.6875 C-4.92441406 19.88699219 -4.28632813 19.08648437 -3.62890625 18.26171875 C-0.86896567 14.42957103 -0.75672166 10.9184125 -0.4375 6.3125 C-0.35371094 5.13300781 -0.26992187 3.95351563 -0.18359375 2.73828125 C-0.12300781 1.83464844 -0.06242188 0.93101562 0 0 Z " fill="#29AA77" transform="translate(237,472)"/>
<path d="M0 0 C0.70125 0.00515625 1.4025 0.0103125 2.125 0.015625 C2.82625 0.01046875 3.5275 0.0053125 4.25 0 C6.125 0.265625 6.125 0.265625 8.125 2.265625 C4.825 2.595625 1.525 2.925625 -1.875 3.265625 C-1.92398438 4.19503906 -1.97296875 5.12445312 -2.0234375 6.08203125 C-2.76603691 18.36052834 -2.76603691 18.36052834 -4.875 24.265625 C-5.535 24.265625 -6.195 24.265625 -6.875 24.265625 C-6.875 22.945625 -6.875 21.625625 -6.875 20.265625 C-6.215 20.265625 -5.555 20.265625 -4.875 20.265625 C-4.82601562 18.98945312 -4.77703125 17.71328125 -4.7265625 16.3984375 C-4.65153809 14.72914428 -4.57599012 13.05987454 -4.5 11.390625 C-4.4690625 10.54886719 -4.438125 9.70710937 -4.40625 8.83984375 C-4.36757813 8.03417969 -4.32890625 7.22851562 -4.2890625 6.3984375 C-4.24193115 5.28299561 -4.24193115 5.28299561 -4.19384766 4.14501953 C-3.73640722 1.44871287 -2.71949022 0.38526111 0 0 Z " fill="#079555" transform="translate(813.875,551.734375)"/>
<path d="M0 0 C1.09400202 3.42906862 0.96970597 6.29044881 0.66015625 9.859375 C0.56669922 10.97441406 0.47324219 12.08945312 0.37695312 13.23828125 C0.27318359 14.39714844 0.16941406 15.55601562 0.0625 16.75 C-0.08735352 18.51150391 -0.08735352 18.51150391 -0.24023438 20.30859375 C-0.48759865 23.20628956 -0.74107341 26.10331824 -1 29 C-1.33 29 -1.66 29 -2 29 C-2.06058594 28.11957031 -2.12117187 27.23914063 -2.18359375 26.33203125 C-2.26738281 25.17058594 -2.35117188 24.00914062 -2.4375 22.8125 C-2.51871094 21.66394531 -2.59992188 20.51539063 -2.68359375 19.33203125 C-2.93210363 16.06075248 -2.93210363 16.06075248 -3.59765625 13.13671875 C-3.73042969 12.43160156 -3.86320313 11.72648438 -4 11 C-3.67 10.67 -3.34 10.34 -3 10 C-2.76924918 8.65252916 -2.58846937 7.29622435 -2.4375 5.9375 C-2.293125 4.638125 -2.14875 3.33875 -2 2 C-1.34 2 -0.68 2 0 2 C0 1.34 0 0.68 0 0 Z " fill="#0F9A5D" transform="translate(236,549)"/>
<path d="M0 0 C2.61857005 1.30928503 2.66420076 2.36302734 3.6875 5.0625 C7.13176312 13.08635741 12.79451703 18.29437847 20 23 C19.34 23.33 18.68 23.66 18 24 C10.84797563 20.9746304 6.30514571 16.95961576 3 10 C2.68289063 9.35289062 2.36578125 8.70578125 2.0390625 8.0390625 C0.73378595 5.20098414 0 3.15136088 0 0 Z " fill="#169B60" transform="translate(605,492)"/>
<path d="M0 0 C7.26 0.33 14.52 0.66 22 1 C22 1.33 22 1.66 22 2 C20.83597656 2.05607422 20.83597656 2.05607422 19.6484375 2.11328125 C11.16296407 2.62970028 3.26206778 4.03048159 -5 6 C-4.67 5.01 -4.34 4.02 -4 3 C-3.01 2.67 -2.02 2.34 -1 2 C-0.67 1.34 -0.34 0.68 0 0 Z " fill="#0EA163" transform="translate(783,352)"/>
<path d="M0 0 C3.89561 1.29853667 3.94309577 2.47387847 6 6 C7.13519364 7.42520661 8.28223207 8.84101651 9.4375 10.25 C12.73921838 14.44199064 15.58099845 18.80395019 17 24 C16.67 24.99 16.34 25.98 16 27 C15.5875 26.09378906 15.175 25.18757812 14.75 24.25390625 C11.08904157 16.44808192 7.20941343 10.11492236 1 4 C0.42765625 3.42636719 -0.1446875 2.85273437 -0.734375 2.26171875 C-1.15203125 1.84535156 -1.5696875 1.42898438 -2 1 C-1.34 0.67 -0.68 0.34 0 0 Z " fill="#0A9556" transform="translate(301,520)"/>
<path d="M0 0 C0.33 0.66 0.66 1.32 1 2 C-2.17196647 9.19058565 -6.41667549 17.75163952 -13.1875 22 C-14.115625 22.33 -15.04375 22.66 -16 23 C-16.66 22.67 -17.32 22.34 -18 22 C-17.02160156 21.19949219 -17.02160156 21.19949219 -16.0234375 20.3828125 C-9.87463188 15.14091037 -5.79155484 10.09635601 -2 3 C-1.34 2.01 -0.68 1.02 0 0 Z " fill="#129A5D" transform="translate(316,593)"/>
<path d="M0 0 C2.97 0.495 2.97 0.495 6 1 C6 1.66 6 2.32 6 3 C6.71027344 2.98839844 7.42054688 2.97679687 8.15234375 2.96484375 C9.07144531 2.95582031 9.99054687 2.94679688 10.9375 2.9375 C11.85402344 2.92589844 12.77054688 2.91429687 13.71484375 2.90234375 C16 3 16 3 17 4 C19.32817964 4.36760731 21.6618385 4.70241581 24 5 C24 5.33 24 5.66 24 6 C14.90808586 6.58974578 7.54562257 5.08745074 -1 2 C-0.67 1.34 -0.34 0.68 0 0 Z " fill="#169C61" transform="translate(759,441)"/>
<path d="M0 0 C1.65 0.33 3.3 0.66 5 1 C5.33 2.65 5.66 4.3 6 6 C4.02 6.66 2.04 7.32 0 8 C-0.33 10.97 -0.66 13.94 -1 17 C-1.33 17 -1.66 17 -2 17 C-2.22084624 10.90218999 -2.01167675 5.78357065 0 0 Z " fill="#0EA269" transform="translate(280,480)"/>
<path d="M0 0 C0.33 0.66 0.66 1.32 1 2 C-2.61973402 3.31626692 -5.09567131 4 -9 4 C-11.05535365 4.92697829 -13.07467901 5.93588765 -15.0625 7 C-20.68055556 10 -20.68055556 10 -24 10 C-8.64919355 -0.88709677 -8.64919355 -0.88709677 0 0 Z " fill="#0D9759" transform="translate(680,404)"/>
<path d="M0 0 C0.97556564 2.92669691 1.0606341 4.44061321 0.87890625 7.44921875 C0.83056641 8.29677734 0.78222656 9.14433594 0.73242188 10.01757812 C0.67634766 10.89865234 0.62027344 11.77972656 0.5625 12.6875 C0.51029297 13.58017578 0.45808594 14.47285156 0.40429688 15.39257812 C0.2747182 17.5954156 0.13975754 19.79778873 0 22 C-2.9008692 19.0991308 -2.49891028 15.96116375 -2.6875 12.0625 C-2.73455078 11.33353516 -2.78160156 10.60457031 -2.83007812 9.85351562 C-3.01308396 6.58041124 -3.04585857 4.1375757 -2 1 C-1.34 0.67 -0.68 0.34 0 0 Z " fill="#1BA066" transform="translate(605,469)"/>
<path d="M0 0 C0.33 0.66 0.66 1.32 1 2 C-1.12957383 6.58372955 -4.47088899 9.53365236 -8.1875 12.8125 C-9.02571289 13.56563477 -9.02571289 13.56563477 -9.88085938 14.33398438 C-11.24883954 15.56165889 -12.62372916 16.7816269 -14 18 C-14.66 17.67 -15.32 17.34 -16 17 C-15.09636719 16.10796875 -14.19273437 15.2159375 -13.26171875 14.296875 C-12.07017921 13.11471766 -10.87878034 11.93241853 -9.6875 10.75 C-9.09259766 10.16347656 -8.49769531 9.57695313 -7.88476562 8.97265625 C-5.01756332 6.12147184 -2.29613457 3.34887496 0 0 Z " fill="#0B985A" transform="translate(585,557)"/>
<path d="M0 0 C0.66 0.33 1.32 0.66 2 1 C1.34 4.3 0.68 7.6 0 11 C-0.33 11 -0.66 11 -1 11 C-1.33 14.96 -1.66 18.92 -2 23 C-2.33 23 -2.66 23 -3 23 C-3.08172936 20.4784979 -3.14083373 17.95970083 -3.1875 15.4375 C-3.21263672 14.73302734 -3.23777344 14.02855469 -3.26367188 13.30273438 C-3.33532304 8.11996685 -2.32172598 4.63735818 0 0 Z " fill="#0F9558" transform="translate(366,452)"/>
<path d="M0 0 C1 3 1 3 0.29296875 4.9375 C-0.07183594 5.618125 -0.43664062 6.29875 -0.8125 7 C-1.16957031 7.680625 -1.52664063 8.36125 -1.89453125 9.0625 C-4.69757879 13.97526176 -7.0341976 15.5170988 -12 18 C-12.66 17.67 -13.32 17.34 -14 17 C-13.40832031 16.52691406 -12.81664062 16.05382812 -12.20703125 15.56640625 C-6.66426261 10.92784131 -3.02584292 6.56866403 0 0 Z " fill="#0FA063" transform="translate(874,561)"/>
<path d="M0 0 C0.66 0.33 1.32 0.66 2 1 C1.01 1.99 0.02 2.98 -1 4 C-0.67 4.99 -0.34 5.98 0 7 C-0.56847656 7.06058594 -1.13695312 7.12117187 -1.72265625 7.18359375 C-6.49781037 7.70176573 -11.2492305 8.29243859 -16 9 C-13.24075308 6.24075308 -10.12941983 5.43278611 -6.5078125 4.09765625 C-4.00727717 3.00318518 -2.10730224 1.72014671 0 0 Z " fill="#119E62" transform="translate(472,609)"/>
<path d="M0 0 C0.99 0.495 0.99 0.495 2 1 C2.73828125 3.6171875 2.73828125 3.6171875 3.3125 6.875 C3.61607422 8.47988281 3.61607422 8.47988281 3.92578125 10.1171875 C4 13 4 13 2.54296875 14.8828125 C2.03378906 15.25148438 1.52460937 15.62015625 1 16 C-0.50156874 12.99686252 -0.09281204 10.20932478 -0.0625 6.875 C-0.05347656 5.59367188 -0.04445313 4.31234375 -0.03515625 2.9921875 C-0.02355469 2.00476563 -0.01195312 1.01734375 0 0 Z " fill="#119C64" transform="translate(788,510)"/>
<path d="M0 0 C0 0.66 0 1.32 0 2 C-0.66 2 -1.32 2 -2 2 C-2.33 2.99 -2.66 3.98 -3 5 C-3.969375 5.28875 -4.93875 5.5775 -5.9375 5.875 C-9.21128486 6.68861556 -9.21128486 6.68861556 -10.375 9.625 C-10.58125 10.40875 -10.7875 11.1925 -11 12 C-12 9 -12 9 -11.5625 6 C-9.57027182 2.17492189 -7.84041743 1.71366293 -3.875 0.4453125 C-2 0 -2 0 0 0 Z " fill="#14A167" transform="translate(859,579)"/>
<path d="M0 0 C1.05794002 3.62400731 0.80092653 4.68250377 -1 8 C-1.69730806 10.3243602 -2.36912152 12.65673706 -3 15 C-4.32 15 -5.64 15 -7 15 C-6.72414063 14.45859375 -6.44828125 13.9171875 -6.1640625 13.359375 C-4.84259131 10.68095688 -3.60599624 7.97114959 -2.375 5.25 C-1.92898438 4.26515625 -1.48296875 3.2803125 -1.0234375 2.265625 C-0.68570312 1.51796875 -0.34796875 0.7703125 0 0 Z " fill="#0D9A5F" transform="translate(482,593)"/>
<path d="M0 0 C1.58468677 0.45363171 3.16769924 0.91311452 4.75 1.375 C5.63171875 1.63023437 6.5134375 1.88546875 7.421875 2.1484375 C10 3 10 3 12.15625 4.09375 C14.52044067 5.25580982 16.40165653 5.14435241 19 5 C19 5.66 19 6.32 19 7 C13.70769231 8.35384615 13.70769231 8.35384615 10.625 6.8125 C9.75875 6.214375 8.8925 5.61625 8 5 C6.57190309 4.25258479 5.1337368 3.52418068 3.6875 2.8125 C2.99011719 2.46832031 2.29273438 2.12414062 1.57421875 1.76953125 C1.05472656 1.51558594 0.53523437 1.26164063 0 1 C0 0.67 0 0.34 0 0 Z " fill="#109D61" transform="translate(527,543)"/>
<path d="M0 0 C0.33 0 0.66 0 1 0 C1 5.28 1 10.56 1 16 C1.66 16 2.32 16 3 16 C3.33 17.65 3.66 19.3 4 21 C2.68 21 1.36 21 0 21 C0 14.07 0 7.14 0 0 Z " fill="#1EAE7C" transform="translate(346,440)"/>
<path d="M0 0 C0.33 0 0.66 0 1 0 C1.15855469 0.71285156 1.31710937 1.42570312 1.48046875 2.16015625 C3.0311329 8.52558976 4.83531614 12.93484396 9 18 C8.34 18.33 7.68 18.66 7 19 C3.04826843 17.02413421 1.51980774 11.96743819 0 8 C-0.37632782 5.16620619 -0.26559161 2.86838942 0 0 Z " fill="#1F9F67" transform="translate(351,477)"/>
<path d="M0 0 C1.32 0.33 2.64 0.66 4 1 C3.01 4.96 2.02 8.92 1 13 C0.67 13 0.34 13 0 13 C0 8.71 0 4.42 0 0 Z " fill="#17AA78" transform="translate(346,474)"/>
<path d="M0 0 C2.68382198 1.07849883 4.61305947 2.5932834 6.859375 4.41015625 C8.05820312 5.37115234 8.05820312 5.37115234 9.28125 6.3515625 C10.18617188 7.09212891 10.18617188 7.09212891 11.109375 7.84765625 C8.109375 8.84765625 8.109375 8.84765625 5.546875 7.59765625 C3.109375 5.84765625 3.109375 5.84765625 1.109375 2.84765625 C-1.95619098 2.11422197 -1.95619098 2.11422197 -4.890625 1.84765625 C-1.890625 -0.15234375 -1.890625 -0.15234375 0 0 Z " fill="#16975C" transform="translate(685.890625,402.15234375)"/>
<path d="M0 0 C0.33 0.66 0.66 1.32 1 2 C0.37498605 3.68272986 -0.30177383 5.34630643 -1 7 C-1.33 8.19625 -1.66 9.3925 -2 10.625 C-3 14 -3 14 -5 17 C-4.69343615 10.37822074 -3.25711277 5.77874846 0 0 Z " fill="#0C9658" transform="translate(794,492)"/>
<path d="M0 0 C1.78409802 3.06246747 2.22880021 5.22079273 2.125 8.75 C2.10695313 9.54921875 2.08890625 10.3484375 2.0703125 11.171875 C2.04710937 11.77515625 2.02390625 12.3784375 2 13 C1.01 12.67 0.02 12.34 -1 12 C-1.08159574 7.83861737 -0.98248524 4.0527516 0 0 Z " fill="#149E64" transform="translate(627,468)"/>
<path d="M0 0 C1.79244141 0.01740234 1.79244141 0.01740234 3.62109375 0.03515625 C5.41740234 0.04869141 5.41740234 0.04869141 7.25 0.0625 C8.17683594 0.07410156 9.10367187 0.08570313 10.05859375 0.09765625 C9.72859375 1.08765625 9.39859375 2.07765625 9.05859375 3.09765625 C7.26725397 3.15157618 5.47545476 3.19041196 3.68359375 3.22265625 C2.68585938 3.24585938 1.688125 3.2690625 0.66015625 3.29296875 C-1.94140625 3.09765625 -1.94140625 3.09765625 -3.94140625 1.09765625 C-2.94140625 0.09765625 -2.94140625 0.09765625 0 0 Z " fill="#0AA267" transform="translate(482.94140625,496.90234375)"/>
<path d="M0 0 C0.33 0.99 0.66 1.98 1 3 C0.67 3.66 0.34 4.32 0 5 C-0.66 5 -1.32 5 -2 5 C-2 5.99 -2 6.98 -2 8 C-2.66 8 -3.32 8 -4 8 C-4.28875 8.804375 -4.5775 9.60875 -4.875 10.4375 C-6 13 -6 13 -8 14 C-6.58036591 8.32146365 -3.60636039 4.46825784 0 0 Z " fill="#0E9658" transform="translate(643,427)"/>
<path d="M0 0 C0.66 0.66 1.32 1.32 2 2 C0.41986783 2.25028811 -1.16442306 2.47440946 -2.75 2.6875 C-4.07257812 2.87892578 -4.07257812 2.87892578 -5.421875 3.07421875 C-8.55676517 2.98397191 -9.71823587 2.07384637 -12 0 C-7.68178709 -0.92533134 -4.30210575 -1.07552644 0 0 Z " fill="#13A069" transform="translate(827,541)"/>
<path d="M0 0 C2.7839183 1.39195915 2.97898997 3.15575779 4 6 C3.34 6 2.68 6 2 6 C2 7.65 2 9.3 2 11 C1.34 10.67 0.68 10.34 0 10 C-1.29411765 2.58823529 -1.29411765 2.58823529 0 0 Z " fill="#12A56D" transform="translate(442,474)"/>
<path d="M0 0 C0.99 0.33 1.98 0.66 3 1 C1.25 5.875 1.25 5.875 -1 7 C-1.66 7.99 -2.32 8.98 -3 10 C-2.25 2.25 -2.25 2.25 0 0 Z " fill="#0F975E" transform="translate(715,562)"/>
<path d="M0 0 C1.485 0.99 1.485 0.99 3 2 C3.6875 5.625 3.6875 5.625 4 9 C3.34 9 2.68 9 2 9 C1.67 9.66 1.34 10.32 1 11 C0.67 7.37 0.34 3.74 0 0 Z " fill="#0C9B5F" transform="translate(628,505)"/>
<path d="M0 0 C0.66 0.33 1.32 0.66 2 1 C1.34 4.63 0.68 8.26 0 12 C-2.67927341 7.98108988 -2.15601248 5.75838077 -2 1 C-1.34 0.67 -0.68 0.34 0 0 Z " fill="#15A16B" transform="translate(630,458)"/>
<path d="M0 0 C1.98362069 2.91708924 1.9876191 4.12380904 1.625 7.75 C1.41875 8.8225 1.2125 9.895 1 11 C0.34 11 -0.32 11 -1 11 C-1.02688151 9.35425434 -1.04634123 7.70838587 -1.0625 6.0625 C-1.07410156 5.14597656 -1.08570313 4.22945313 -1.09765625 3.28515625 C-1 1 -1 1 0 0 Z " fill="#1BA571" transform="translate(617,439)"/>
<path d="M0 0 C0.66 0 1.32 0 2 0 C2.99 2.97 3.98 5.94 5 9 C4.01 8.67 3.02 8.34 2 8 C0.3125 4.4375 0.3125 4.4375 -1 1 C-0.67 0.67 -0.34 0.34 0 0 Z " fill="#119C61" transform="translate(795,470)"/>
<path d="M0 0 C-0.33 0.99 -0.66 1.98 -1 3 C-3.3431213 2.74438677 -5.67843403 2.40729228 -8 2 C-8.33 1.34 -8.66 0.68 -9 0 C-5.52176885 -1.15941038 -3.54104422 -0.70820884 0 0 Z " fill="#18A46B" transform="translate(709,345)"/>
<path d="M0 0 C-2.97 2.97 -5.94 5.94 -9 9 C-9 5.34648137 -8.11057699 3.93973224 -6 1 C-2.57142857 -1.28571429 -2.57142857 -1.28571429 0 0 Z " fill="#0A9656" transform="translate(665,426)"/>
<path d="M0 0 C1.1875 2.5625 1.1875 2.5625 2 5 C1.01 4.34 0.02 3.68 -1 3 C-1 2.34 -1 1.68 -1 1 C-1.99 1 -2.98 1 -4 1 C-4 1.66 -4 2.32 -4 3 C-5.32 3 -6.64 3 -8 3 C-8 2.34 -8 1.68 -8 1 C-3.375 -1.125 -3.375 -1.125 0 0 Z " fill="#0D9358" transform="translate(745,413)"/>
<path d="M0 0 C0.33 0.66 0.66 1.32 1 2 C-1.77079887 5.80984844 -5.62868145 6.06840752 -10 7 C-7.2180632 3.72713318 -3.72045933 2.03572303 0 0 Z " fill="#0EA162" transform="translate(750,658)"/>
<path d="M0 0 C0.66 0.66 1.32 1.32 2 2 C1.7578125 4.3828125 1.7578125 4.3828125 1.125 7.125 C0.92132812 8.03507813 0.71765625 8.94515625 0.5078125 9.8828125 C0.34023438 10.58148437 0.17265625 11.28015625 0 12 C-0.66 12 -1.32 12 -2 12 C-2 10.68 -2 9.36 -2 8 C-1.34 8 -0.68 8 0 8 C0 5.36 0 2.72 0 0 Z " fill="#0F9B60" transform="translate(809,564)"/>
<path d="M0 0 C0.66 0.33 1.32 0.66 2 1 C1.62875 2.093125 1.2575 3.18625 0.875 4.3125 C0.58625 5.529375 0.2975 6.74625 0 8 C0.99 9.485 0.99 9.485 2 11 C0.68 10.34 -0.64 9.68 -2 9 C-2.25 3.375 -2.25 3.375 0 0 Z " fill="#098E4D" transform="translate(726,478)"/>
<path d="M0 0 C4.29 0.33 8.58 0.66 13 1 C13 1.33 13 1.66 13 2 C7.06 2.495 7.06 2.495 1 3 C0.67 2.01 0.34 1.02 0 0 Z " fill="#20AA76" transform="translate(709,428)"/>
<path d="M0 0 C0.66 0 1.32 0 2 0 C0.66749209 3.5875213 -0.830717 6.8364623 -3 10 C-3.66 10 -4.32 10 -5 10 C-3.33333333 6.66666667 -1.66666667 3.33333333 0 0 Z " fill="#139C60" transform="translate(398,601)"/>
<path d="M0 0 C0.66 1.32 1.32 2.64 2 4 C-0.97 6.475 -0.97 6.475 -4 9 C-2.94124926 5.59687262 -1.99097846 2.98646769 0 0 Z " fill="#129B5F" transform="translate(798,550)"/>
<path d="M0 0 C0.66 0.33 1.32 0.66 2 1 C2.125 3.875 2.125 3.875 2 7 C1.34 7.66 0.68 8.32 0 9 C-0.66 6.69 -1.32 4.38 -2 2 C-1.34 1.34 -0.68 0.68 0 0 Z " fill="#17A978" transform="translate(790,506)"/>
<path d="M0 0 C1.98 0.99 1.98 0.99 4 2 C3.01 3.98 2.02 5.96 1 8 C0.67 8 0.34 8 0 8 C0 5.36 0 2.72 0 0 Z " fill="#15A168" transform="translate(328,528)"/>
<path d="M0 0 C-0.33 0.66 -0.66 1.32 -1 2 C-1.66 2 -2.32 2 -3 2 C-3 1.34 -3 0.68 -3 0 C-5.97 0 -8.94 0 -12 0 C-12 -0.33 -12 -0.66 -12 -1 C-7.28400182 -1.92470553 -4.32734391 -2.22923777 0 0 Z " fill="#17A36D" transform="translate(177,451)"/>
<path d="M0 0 C0.66 0.33 1.32 0.66 2 1 C-1.465 3.97 -1.465 3.97 -5 7 C-4.67 5.02 -4.34 3.04 -4 1 C-3.01 1 -2.02 1 -1 1 C-0.67 0.67 -0.34 0.34 0 0 Z " fill="#15A066" transform="translate(361,439)"/>
<path d="M0 0 C0.33 0 0.66 0 1 0 C1 2.31 1 4.62 1 7 C0.01 7.33 -0.98 7.66 -2 8 C-1.125 1.125 -1.125 1.125 0 0 Z " fill="#119A5F" transform="translate(798,436)"/>
<path d="M0 0 C0.33 0 0.66 0 1 0 C1 2.31 1 4.62 1 7 C-1 4 -1 4 -0.625 1.8125 C-0.41875 1.214375 -0.2125 0.61625 0 0 Z " fill="#28BB88" transform="translate(76,561)"/>
<path d="M0 0 C0.33 0 0.66 0 1 0 C1 2.31 1 4.62 1 7 C0.67 7 0.34 7 0 7 C0 4.69 0 2.38 0 0 Z " fill="#28BA87" transform="translate(76,614)"/>
<path d="M0 0 C0.33 0 0.66 0 1 0 C1 2.31 1 4.62 1 7 C0.67 7 0.34 7 0 7 C0 4.69 0 2.38 0 0 Z " fill="#29BC87" transform="translate(76,532)"/>
<path d="M0 0 C0.33 0 0.66 0 1 0 C1 2.31 1 4.62 1 7 C0.67 7 0.34 7 0 7 C0 4.69 0 2.38 0 0 Z " fill="#29BC89" transform="translate(76,524)"/>
<path d="M0 0 C0.33 0 0.66 0 1 0 C1 1.98 1 3.96 1 6 C0.67 6 0.34 6 0 6 C0 4.02 0 2.04 0 0 Z " fill="#29BB87" transform="translate(76,607)"/>
<path d="M0 0 C0.33 0 0.66 0 1 0 C1 1.98 1 3.96 1 6 C0.67 6 0.34 6 0 6 C0 4.02 0 2.04 0 0 Z " fill="#28BC88" transform="translate(76,570)"/>
<path d="M0 0 C0.33 0 0.66 0 1 0 C1 1.65 1 3.3 1 5 C0.67 5 0.34 5 0 5 C0 3.35 0 1.7 0 0 Z " fill="#28BC88" transform="translate(76,490)"/>
<path d="M0 0 C0.33 0 0.66 0 1 0 C1 1.65 1 3.3 1 5 C0.67 5 0.34 5 0 5 C0 3.35 0 1.7 0 0 Z " fill="#28BB88" transform="translate(76,476)"/>
<path d="M0 0 C1 4 1 4 1 4 Z " fill="#29BC88" transform="translate(76,596)"/>
<path d="M0 0 C1 4 1 4 1 4 Z " fill="#28BB89" transform="translate(76,516)"/>
<path d="M0 0 C1 4 1 4 1 4 Z " fill="#27B987" transform="translate(76,447)"/>
<path d="M0 0 C1 4 1 4 1 4 Z " fill="#29B786" transform="translate(76,399)"/>
<path d="" fill="#29BC86" transform="translate(0,0)"/>
<path d="" fill="#28BB87" transform="translate(0,0)"/>
<path d="" fill="#28BD87" transform="translate(0,0)"/>
<path d="" fill="#2AB987" transform="translate(0,0)"/>
<path d="M0 0 C2 1 2 1 2 1 Z " fill="#25A87C" transform="translate(136,750)"/>
<path d="M0 0 C2 1 2 1 2 1 Z " fill="#24A57A" transform="translate(104,725)"/>
<path d="" fill="#28B483" transform="translate(0,0)"/>
<path d="" fill="#27B886" transform="translate(0,0)"/>
<path d="" fill="#26B987" transform="translate(0,0)"/>
<path d="" fill="#28BB88" transform="translate(0,0)"/>
<path d="" fill="#29BD88" transform="translate(0,0)"/>
<path d="" fill="#29BC88" transform="translate(0,0)"/>
<path d="" fill="#27BB88" transform="translate(0,0)"/>
<path d="" fill="#28BB89" transform="translate(0,0)"/>
<path d="" fill="#28BC89" transform="translate(0,0)"/>
<path d="" fill="#2ABB89" transform="translate(0,0)"/>
<path d="" fill="#29BC87" transform="translate(0,0)"/>
<path d="" fill="#27BD88" transform="translate(0,0)"/>
<path d="" fill="#27B987" transform="translate(0,0)"/>
<path d="" fill="#27B986" transform="translate(0,0)"/>
<path d="" fill="#27B888" transform="translate(0,0)"/>
<path d="" fill="#27B786" transform="translate(0,0)"/>
<path d="" fill="#28B785" transform="translate(0,0)"/>
<path d="" fill="#25B283" transform="translate(0,0)"/>
<path d="" fill="#25A87D" transform="translate(0,0)"/>
<path d="" fill="#23A67A" transform="translate(0,0)"/>
<path d="M0 0 C2 1 2 1 2 1 Z " fill="#22AA7D" transform="translate(838,256)"/>
<path d="" fill="#000000" transform="translate(0,0)"/>
<path d="" fill="#000000" transform="translate(0,0)"/>
<path d="" fill="#000000" transform="translate(0,0)"/>
<path d="" fill="#000000" transform="translate(0,0)"/>
<path d="" fill="#000000" transform="translate(0,0)"/>
<path d="" fill="#000000" transform="translate(0,0)"/>
<path d="" fill="#000000" transform="translate(0,0)"/>
<path d="" fill="#000000" transform="translate(0,0)"/>
<path d="" fill="#000000" transform="translate(0,0)"/>
<path d="" fill="#000200" transform="translate(0,0)"/>
<path d="" fill="#000201" transform="translate(0,0)"/>
<path d="" fill="#000000" transform="translate(0,0)"/>
<path d="" fill="#000303" transform="translate(0,0)"/>
<path d="" fill="#000000" transform="translate(0,0)"/>
<path d="" fill="#000000" transform="translate(0,0)"/>
<path d="" fill="#000000" transform="translate(0,0)"/>
<path d="" fill="#051B15" transform="translate(0,0)"/>
<path d="" fill="#000705" transform="translate(0,0)"/>
<path d="" fill="#041A12" transform="translate(0,0)"/>
<path d="" fill="#27AC7D" transform="translate(0,0)"/>
<path d="" fill="#26AB7D" transform="translate(0,0)"/>
<path d="" fill="#28AD7E" transform="translate(0,0)"/>
<path d="" fill="#25A979" transform="translate(0,0)"/>
<path d="" fill="#22AA7C" transform="translate(0,0)"/>
<path d="" fill="#25A77B" transform="translate(0,0)"/>
<path d="" fill="#25A07A" transform="translate(0,0)"/>
<path d="" fill="#25A478" transform="translate(0,0)"/>
<path d="" fill="#23AA7B" transform="translate(0,0)"/>
<path d="" fill="#26A87C" transform="translate(0,0)"/>
<path d="" fill="#26A57A" transform="translate(0,0)"/>
<path d="" fill="#259C73" transform="translate(0,0)"/>
<path d="" fill="#21A578" transform="translate(0,0)"/>
<path d="" fill="#26A27A" transform="translate(0,0)"/>
<path d="" fill="#28A67C" transform="translate(0,0)"/>
<path d="" fill="#27A67C" transform="translate(0,0)"/>
<path d="" fill="#25A97E" transform="translate(0,0)"/>
<path d="" fill="#29A97E" transform="translate(0,0)"/>
<path d="" fill="#28A778" transform="translate(0,0)"/>
<path d="" fill="#27AB80" transform="translate(0,0)"/>
<path d="" fill="#24AD80" transform="translate(0,0)"/>
<path d="" fill="#24AA7F" transform="translate(0,0)"/>
<path d="" fill="#28AB7D" transform="translate(0,0)"/>
<path d="" fill="#25A97E" transform="translate(0,0)"/>
<path d="" fill="#24AE80" transform="translate(0,0)"/>
<path d="" fill="#25AF80" transform="translate(0,0)"/>
<path d="" fill="#23AE81" transform="translate(0,0)"/>
<path d="" fill="#26B17F" transform="translate(0,0)"/>
<path d="" fill="#2AB081" transform="translate(0,0)"/>
<path d="" fill="#28B183" transform="translate(0,0)"/>
<path d="" fill="#27B283" transform="translate(0,0)"/>
<path d="" fill="#27B784" transform="translate(0,0)"/>
<path d="" fill="#28B984" transform="translate(0,0)"/>
<path d="" fill="#27B887" transform="translate(0,0)"/>
<path d="" fill="#25BB88" transform="translate(0,0)"/>
<path d="" fill="#28BA87" transform="translate(0,0)"/>
<path d="" fill="#28BA86" transform="translate(0,0)"/>
<path d="" fill="#29BD88" transform="translate(0,0)"/>
<path d="" fill="#29BA87" transform="translate(0,0)"/>
<path d="" fill="#2BBC89" transform="translate(0,0)"/>
<path d="" fill="#2BB584" transform="translate(0,0)"/>
<path d="" fill="#29BA86" transform="translate(0,0)"/>
<path d="" fill="#29BC89" transform="translate(0,0)"/>
<path d="" fill="#27BC89" transform="translate(0,0)"/>
<path d="" fill="#29BD89" transform="translate(0,0)"/>
<path d="" fill="#249773" transform="translate(0,0)"/>
<path d="" fill="#2ABD88" transform="translate(0,0)"/>
<path d="" fill="#29B988" transform="translate(0,0)"/>
<path d="" fill="#29B989" transform="translate(0,0)"/>
<path d="" fill="#29BA8A" transform="translate(0,0)"/>
<path d="" fill="#2ABA88" transform="translate(0,0)"/>
<path d="" fill="#2BBB88" transform="translate(0,0)"/>
<path d="" fill="#29B988" transform="translate(0,0)"/>
<path d="" fill="#28BC8A" transform="translate(0,0)"/>
<path d="" fill="#28BC87" transform="translate(0,0)"/>
<path d="" fill="#26BC86" transform="translate(0,0)"/>
<path d="" fill="#2ABA87" transform="translate(0,0)"/>
<path d="" fill="#2BBC87" transform="translate(0,0)"/>
<path d="" fill="#2BBB87" transform="translate(0,0)"/>
<path d="" fill="#29BB87" transform="translate(0,0)"/>
<path d="" fill="#28B985" transform="translate(0,0)"/>
<path d="" fill="#2ABA87" transform="translate(0,0)"/>
<path d="" fill="#2CBA86" transform="translate(0,0)"/>
<path d="" fill="#27B887" transform="translate(0,0)"/>
<path d="" fill="#29BA87" transform="translate(0,0)"/>
<path d="" fill="#28B685" transform="translate(0,0)"/>
<path d="" fill="#26B884" transform="translate(0,0)"/>
<path d="" fill="#25B485" transform="translate(0,0)"/>
<path d="" fill="#28B483" transform="translate(0,0)"/>
<path d="" fill="#28B183" transform="translate(0,0)"/>
<path d="" fill="#27B081" transform="translate(0,0)"/>
<path d="" fill="#25B283" transform="translate(0,0)"/>
<path d="" fill="#24B185" transform="translate(0,0)"/>
<path d="" fill="#25B081" transform="translate(0,0)"/>
<path d="" fill="#23AD82" transform="translate(0,0)"/>
<path d="" fill="#26AC82" transform="translate(0,0)"/>
<path d="" fill="#27AB7D" transform="translate(0,0)"/>
<path d="" fill="#26B181" transform="translate(0,0)"/>
<path d="" fill="#25AC82" transform="translate(0,0)"/>
<path d="" fill="#25AF81" transform="translate(0,0)"/>
<path d="" fill="#24AC80" transform="translate(0,0)"/>
<path d="" fill="#26A87A" transform="translate(0,0)"/>
<path d="" fill="#25AA81" transform="translate(0,0)"/>
<path d="" fill="#26A97F" transform="translate(0,0)"/>
<path d="" fill="#25A981" transform="translate(0,0)"/>
<path d="" fill="#26AA7D" transform="translate(0,0)"/>
<path d="" fill="#24A47A" transform="translate(0,0)"/>
<path d="" fill="#26A97E" transform="translate(0,0)"/>
<path d="" fill="#28AB82" transform="translate(0,0)"/>
<path d="" fill="#22A77B" transform="translate(0,0)"/>
<path d="" fill="#23AA7E" transform="translate(0,0)"/>
<path d="" fill="#24A077" transform="translate(0,0)"/>
<path d="" fill="#27A87F" transform="translate(0,0)"/>
<path d="" fill="#28A97D" transform="translate(0,0)"/>
<path d="" fill="#22AB82" transform="translate(0,0)"/>
<path d="" fill="#25AA7E" transform="translate(0,0)"/>
<path d="" fill="#23AF81" transform="translate(0,0)"/>
<path d="" fill="#24AA7E" transform="translate(0,0)"/>
<path d="" fill="#27AB7E" transform="translate(0,0)"/>
<path d="" fill="#20AD81" transform="translate(0,0)"/>
<path d="" fill="#25AE81" transform="translate(0,0)"/>
<path d="" fill="#27AD80" transform="translate(0,0)"/>
<path d="" fill="#258D6D" transform="translate(0,0)"/>
<path d="" fill="#1B634A" transform="translate(0,0)"/>
<path d="" fill="#000100" transform="translate(0,0)"/>
<path d="" fill="#000E08" transform="translate(0,0)"/>
<path d="" fill="#000001" transform="translate(0,0)"/>
<path d="" fill="#01100B" transform="translate(0,0)"/>
<path d="" fill="#000000" transform="translate(0,0)"/>
<path d="" fill="#000000" transform="translate(0,0)"/>
<path d="" fill="#000000" transform="translate(0,0)"/>
<path d="" fill="#000000" transform="translate(0,0)"/>
<path d="" fill="#000001" transform="translate(0,0)"/>
<path d="" fill="#000000" transform="translate(0,0)"/>
<path d="" fill="#000000" transform="translate(0,0)"/>
<path d="" fill="#000000" transform="translate(0,0)"/>
<path d="" fill="#000000" transform="translate(0,0)"/>
<path d="" fill="#000000" transform="translate(0,0)"/>
</svg>
