<svg xmlns="http://www.w3.org/2000/svg" id="_Слой_2" data-name="Слой_2" viewBox="0 0 872 514"><defs><style>.st0{fill:#fff}.st1{fill:#ec6526}</style></defs><rect width="872" height="514" class="st1" rx="125" ry="125"/><path d="M76.66 170.16h25.83v52.7h41.48v-52.7h26.87l1.04 129.92h-27.39l-.52-54-40.7-.26-.26 54.26H76.66zm207.98 0h25.04v129.91h-25.04zm136.96 0 3.65 83.94h18.26l3.65-83.94zm9.88 101.03-4.5 1.76-3.52 3.71-3.04 3.82v5.77l.69 6.85 3.03 3.91 4.31 2.64 3.81.88h5.28l5.19-2.34 2.93-2.64 1.5-2.55 1.54-3.32v-8.03l-1.54-3.13-3.45-4.5-3.82-2.25-4.3-.58zm-223.27-63-6.65 4.43-7.96 8.35-4.96 9-2.87 11.35-.78 10.43.65 12.91 2.87 11.22 5.74 10.18 7.57 7.43 6.39 3.91 6.91 2.68 10.04 1.76h8.74l10.18-2.48 7.17-3.39 5.87-4.44 4.3-5.47 4.31-6.79 2.22-6 1.43-6.52.91-7.43v-16.31l-1.56-7.89-3.13-9.59-4.31-7.04-9.26-8.35-9.78-4.95-13.04-1.83-8.48 1.17-6.65 1.44z" class="st0"/><path d="m217.34 227.95-3.78 7.17-2.09 9.91v10.9l1.17 8.93 2.48 7.3 4.17 5.87 5.22 3.53h6.26l7.31-2.87 2.61-4.57 2.34-6.13 1.18-6.26.78-6.98-.52-10.89-1.31-6.65-2.74-6.52-4.3-5.48-7.89-2.35-5.67 1.3z" class="st1"/><path d="m328.53 218.1 10.7 12.26 12.13-6.13 14.87-1.96 6.65 3.39 2.35 4.7 1.3 7.43v7.43h-18.65l-9.39 2.22-9.13 3.26-6.52 3.39-5.09 6.13s-3.26 6-3.39 6.52-.91 6.39-.91 6.91 1.3 9.39 1.3 9.39 3.26 5.35 3.39 5.87 5.22 6.52 5.22 6.52l6.52 3.52 8.61 2.35h9l8.48-1.24 7.83-2.54 3.78-3.26 3.78-4.04 1.96 6.26 4.3 3.59 6 1.24 8.74-.78 6.26-1.57 1.57-1.7V282l-8.35-.52.39-17.87-.26-30.39-2.09-8.87-3.52-7.3-5.09-5.74-7.17-4.43-6.78-1.96-10.5-.52-12.33 1.04-8.35 1.96-8.61 4.73-6.39 4.01z" class="st0"/><path d="M375.88 258.14h-9.06l-9.85 2.48-5.09 3.65-2.09 4.96.53 8.22 3.26 5.08 4.95 1.31 6.92-.65 5.61-2.61 2.47-3.13 2.35-4.05z" class="st1"/><path d="m424.08 381.27-19.17 16.24-11.93 16.04-9.39 17.61-2.74 11.54-2.35 14.09 2.54 13.11 11.54 13.11 11.93 7.43 13.11 5.09 18.91 3.13h51.13l29.35-3.91 17.8-5.28 22.11-9.39 11.93-7.43 13.24-10.43 8.35-9 5.35-8.35 2.35-9.52-1.83-8.22-5.74-5.09-6.26-.65-20.61-.13-10.04-.78-6.39-2.09-6.91-5.35-1.17-6.26 1.96-5.48 2.35-6.52-.13-7.7-.91-9.26-1.7-4.17-7.3-10.3-6.52-3.26-10.83-2.22-9.26-.91h-13.7l-15.52 1.57-12.65 3s-9.13 3.52-9.65 3.65-12 5.09-12 5.09l-11.48 6-7.76 5.02Z" class="st0"/><path d="m407.12 446.1-4.17 4.56v6.27l2.08 7.43 5.48 3.13 6 .78h7.83l4.69-1.82 4.7-3.79 2.8-4.04 1.63-5.61-.78-6.13-2.74-4.17-5.35-2.74h-7.56l-7.44 1.17-4.69 2.61zm34.24-20.54 11.74-1.18 7.24-4.2 3.62-5.87 1.27-5.87-.49-4.99-2.93-4.11-5.68-2.25-6.06-.59h-5.38l-6.53 2.35-4.33 3.52-2.94 3.52-1.66 4.41v6.26l1.66 4.59 4.01 2.74 2.64 1.18zm44.22-43.24-3.13 5.09-.49 6.55 2.45 4.11 4.6 2.64 6.55.88h6.36l8.41-2.05 4.4-1.96 5.38-3.42 3.23-3.62 1.08-4.5v-4.11l-2.45-3.23-3.23-2.93-4.6-1.47-4.79-.59s-6.95-.39-7.34 0-4.5 1.27-4.99 1.37-4.01 1.57-4.01 1.57l-4.3 2.35-3.13 3.33Zm48.08 56.88-7.48 4.3s-2.05 2.64-2.3 3.03-1.47 2.98-1.71 3.33-.59 2.54-.59 2.89.88 2.93 1.12 3.33 2.1 2.54 2.45 2.98 2.15 1.32 2.47 1.61 3.4 1.22 3.64 1.37 3.57.59 3.86.64 3.47-.05 3.72 0 4.4-.34 4.94-.34 3.67-.73 4.45-.83 3.23-1.42 3.52-1.52 3.28-1.86 3.57-1.96 2.45-2.01 2.74-2.2 1.86-2.25 2.05-2.59 1.08-1.99 1.22-2.29 1.03-2.21 1.12-2.5.24-2.25.24-2.4-.49-2.25-.49-2.25l-.83-1.81-1.81-1.76-4.94-2.98-2.84-.68-5.23-.64-5.04.49-4.99 1.27-2.89 1.52Z" class="st1"/><path d="m614.33 429.88-1.56 10.09-3.52 9.34-2.35 4.81h188.61l8.21-6.63 4.7-7.52 3.13-10.09v-4.32H619.03zm-51.62-45.56-2.96 3.24v5.11l-3.13 5.09-1.83 3.83-.52 2.82 9.26 1.43 12 .92 8.74-.79 7.56.79 3.92 2.34 2.39 1.7.87 1.04h212.54v-8.47l-1.76-9.4-2.09-6.41-1.04-1.93zm-8.44-41.48-4.57 2.35-1.83 4.96v5.74l4.96 5.22 3.39 4.17 1.83 2.09v2.87h242.61l-16.43-27.39-84 2.35-3.65-2.35.26-4.7 5.22-3.39 4.7-2.09 7.04-1.04h58.96l-1.3-3.65-6-3.39-7.83-4.7-5.74-3.13-7.57-4.96-6.78-3.13-5.74-4.43s-4.7-2.87-5.48-3.39-3.91-2.87-3.91-2.87l-3.65-2.35-3.13-1.57-6.39 8.61-7.7 11.74-10.17 11.22-14.35 9.13-15.65 7.57-19.83 5.48-11.48 1.04-17.48.78h-16.43l-12.78-.52-9.65-1.04-8.35-2.61-6-2.09-5.09-.52Zm-31.7-274.3-4.96 7.83-4.17 10.43v11.74l1.83 11.22 5.22 4.96 11.48-3.91 12-4.17 21.65-1.3 19.3-1.04 19.83 1.57 21.13 2.09 15.13 3.13 21.91 7.04 13.83 4.7 18.26 9.65 11.74 6 14.87 7.83 9.91 4.7s5.74 4.17 7.04 5.48 8.61 3.65 8.61 3.65h7.57l5.22-3.33 4.57-4.96.78-5.87 1.17-10.43-1.7-6.13-6.13-10.83-8.74-10.43-16.3-17.09-13.11-10.96-20.54-11.54-12.52-7.43-10.76-4.11 5.51-2.93 4.5-3.23 3.23-3.33 1.57-2.74v-2.93l-2.35-1.96-3.62-.78-4.21.59s-3.33 1.96-3.62 2.05-2.93 1.66-3.42 2.05-4.7 4.21-4.7 4.21-2.54 1.96-3.03 2.35-1.76 2.25-1.76 2.25l-17.41-5.28-24.65-2.74-18.49-1.47-16.5-.2-16.04 1.76-17.8 4.89-11.35 5.28-11.35 6.65-8.61 7.04Z" class="st0"/><path d="m714.83 248.93-4.3 19.17-12.13 25.96-22.31 21.39-23.08 12.92-26.22 6.65h-24.65l-29.35-2.87-22.31-8.87-13.69-11.74-7.83-13.7-4.55-11.98-4.45-14.67-2.34-17.09-4.18-16.13v-81.39l5.74-15.65 5.23-8.22 8.07-4.69 17.22-4.7 21.92-3.52h43.82l13.7 2.74 14.48 4.7 16.43 5.08 14.22 7.05 17.87 8.21 13.3 8.22 13.31 9 7.04 5.36-4.7 3.25-2.34 5.48.39 6.26 3.13 3.91 5.48-.78 5.47-6.26 7.05-3.92 6.65-1.17h6.26l7.44 3.52 1.43 3.92.65 3.52.65 6.52v5.61l-1.04 6.26-1.96 6-3.13 7.17-4.17 9.26-6.39 7.44-4.7 5.48-4.95 3.65-4.44 1.82-4.43 1.31-5.09.39h-4.04l-2.22-.52z" class="st0"/><path d="m554.79 189.22-4.5-3.42-5.48-1.17-6.46 1.37-3.42 4.99-1.66 6.45 2.15 4.8 4.79 3.42h5.38l3.53-2.15 4.5-3.82 1.95-4.55v-3.37zm75.88-4.98-3.98 1.5-2.74 3.65-1.11 3.91s-.07 4.04 0 4.7 1.04 3.52 1.17 3.78 3.52 2.74 3.52 2.74 4.04.85 4.3.85 4.17-.91 4.37-.98 4.04-2.15 4.17-2.35 1.7-2.48 1.83-2.8.91-3.33 1.04-3.85.33-5.02.33-5.35-.78-2.35-.85-2.54-3.13-2.54-3.13-2.54l-4.5-1.37-4.43.65Zm-73.86 95.18-1.24 2.15-.91 5.09 2.15 3.52 8.02 2.74 7.04 1.14 12.13 1.01h13.89l7.83-1.01 8.8-2.71 7.24-2.54 3.91-2.95v-4.87l-3.72-2.93h-4.3l-6.85 2.35-9.2 1.17s-7.43.98-8.02 1.17-11.74.39-11.74.39h-6.26l-7.04-1.57-6.07-1.17-3.13-1.37-2.54.39Zm61.14-124.53-4.01 1.27-3.82 3.33s1.57 4.4 1.57 5.28 3.33 3.52 3.33 3.52 5.09.39 5.58 0 8.41-.98 8.8-.98 5.09-.2 5.87-.1 5.87.29 6.46.29 3.72.29 4.5.49 4.89 1.08 6.16 1.47 3.52 1.17 4.5 1.57 2.35.68 3.03.78 3.13-.88 3.13-.88.68-2.05.49-2.84-.29-3.13-.68-3.82-.78-2.45-1.27-3.23-8.41-4.21-8.41-4.21-6.16-1.47-6.55-1.47-11.05-1.47-11.35-1.47h-11.35l-5.97.98Z" class="st1"/><path d="m533.27 156.09-4.08 3.26v4.17l1.17 4.96h7.17l7.83-1.04 5.35-.13s5.87.52 6.78 1.17 3.39 1.7 4.17 2.35 2.74 2.22 3.26 3 1.3 2.87 1.43 3.52-.26 1.57 0 3.52.65 5.48 0 7.7-1.17 3.65-1.57 5.22-1.04 2.74-1.43 4.57-4.96 16.43-4.96 16.43-1.7 6.52-2.09 7.17-2.87 8.61-3.13 9-1.96 7.7-2.48 9.26 0 5.09.13 6 4.73 6.26 4.73 6.26l7.66 3.44s4.83 1.26 5.74 1.65 5.35-.13 5.74 0 8.22-.09 9 .15 10.17-.72 10.17-.72l6-1.07 4.83-3.18 4.83-5.74 3.78-4.96 1.7-3.91-2.74-2.61-4.04-1.83-4.17 1.7-3.26 3.26-3.91 3.26s-3.91.91-4.96.91-8.22.52-9.26.52-2.48-.26-4.43-.39-7.3-1.3-7.83-1.43-1.7-1.04-2.61-1.7-1.7-1.43-1.83-2.09.78-6.91.78-7.3 1.7-4.96 1.83-5.87 1.96-5.35 2.22-6.26.78-4.17 1.3-4.96S576 202 576 202l1.43-6.86s.91-3.44.91-3.83 2.48-9.52 2.48-9.52l.26-4.7s-1.43-4.04-1.57-4.43-3-4.17-3-4.17l-7.43-8.38-4.57-3.36-5.87-1.57s-7.17-1.76-7.57-1.27-11.22 0-11.22 0l-6.62 2.18Z" class="st1"/></svg>