<?xml version="1.0" encoding="UTF-8"?>
<svg id="_Слой_1" data-name="Слой_1" xmlns="http://www.w3.org/2000/svg" version="1.1" viewBox="0 0 872 514">
  <!-- Generator: Adobe Illustrator 29.8.1, SVG Export Plug-In . SVG Version: 2.1.1 Build 2)  -->
  <defs>
    <style>
      .st0 {
        fill: #df8f36;
      }

      .st1 {
        fill: #fd9e3c;
      }

      .st2 {
        fill: #fd7d1d;
      }

      .st3 {
        fill: #fc781f;
      }

      .st4 {
        fill: #fe9a35;
      }

      .st5 {
        fill: #e38e37;
      }

      .st6 {
        fill: #fd9231;
      }

      .st7 {
        fill: #fa8427;
      }

      .st8 {
        fill: #fc9f3b;
      }

      .st9 {
        fill: #e28c34;
      }

      .st10 {
        fill: #f89b3a;
      }

      .st11 {
        fill: #fd912e;
      }

      .st12 {
        fill: #fdf1e2;
      }

      .st13 {
        fill: #ef9438;
      }

      .st14 {
        fill: #ef9437;
      }

      .st15 {
        fill: #fdf6ee;
      }

      .st16 {
        fill: #f09438;
      }

      .st17 {
        fill: #fd912f;
      }

      .st18 {
        fill: #fc7716;
      }

      .st19 {
        fill: #ee9238;
      }

      .st20 {
        fill: #f89c3b;
      }

      .st21 {
        fill: #f09439;
      }

      .st22 {
        fill: #e69338;
      }

      .st23 {
        fill: #fefef7;
      }

      .st24 {
        fill: #fc8d2e;
      }

      .st25 {
        fill: #fba842;
      }

      .st26 {
        fill: #e28e35;
      }

      .st27 {
        fill: #fb9c3a;
      }

      .st28 {
        fill: #fd9230;
      }

      .st29 {
        fill: #fb9d3c;
      }

      .st30 {
        fill: #e58c37;
      }

      .st31 {
        fill: #ef9538;
      }

      .st32 {
        fill: #fea23d;
      }

      .st33 {
        fill: #fd771a;
      }

      .st34 {
        fill: #fe9533;
      }

      .st35 {
        fill: #fb771b;
      }

      .st36 {
        fill: #e68e36;
      }

      .st37 {
        fill: #fea33c;
      }

      .st38 {
        fill: #e49036;
      }

      .st39 {
        fill: #f19537;
      }

      .st40 {
        fill: #fefcf5;
      }

      .st41 {
        fill: #fc9f3c;
      }

      .st42 {
        fill: #fe9632;
      }

      .st43 {
        fill: #f79c3a;
      }

      .st44 {
        fill: #ee9437;
      }

      .st45 {
        fill: #fb9e3b;
      }

      .st46 {
        fill: #f1953a;
      }

      .st47 {
        fill: #fc680c;
      }

      .st48 {
        fill: #e38c35;
      }

      .st49 {
        fill: #e28b35;
      }

      .st50 {
        fill: #fefdf7;
      }

      .st51 {
        fill: #fe9633;
      }

      .st52 {
        fill: #fb9f3c;
      }

      .st53 {
        fill: #fd9f3d;
      }

      .st54 {
        fill: #f4a33f;
      }

      .st55 {
        fill: #fea743;
      }

      .st56 {
        fill: #fe9f3c;
      }

      .st57 {
        fill: #e68c36;
      }

      .st58 {
        fill: #fc7c21;
      }

      .st59 {
        fill: #ef9439;
      }

      .st60 {
        fill: #fda13a;
      }

      .st61 {
        fill: #fc7210;
      }

      .st62 {
        fill: #f79b3a;
      }

      .st63 {
        fill: #e58f37;
      }

      .st64 {
        fill: #e78f36;
      }

      .st65 {
        fill: #f09537;
      }

      .st66 {
        fill: #f39639;
      }

      .st67 {
        fill: #fb640d;
      }

      .st68 {
        fill: #e58f36;
      }

      .st69 {
        fill: #f19437;
      }

      .st70 {
        fill: #e99237;
      }

      .st71 {
        fill: #faa841;
      }

      .st72 {
        fill: #fee6ca;
      }

      .st73 {
        fill: #e38b35;
      }

      .st74 {
        fill: #ef9436;
      }

      .st75 {
        fill: #f09638;
      }

      .st76 {
        fill: #e89136;
      }

      .st77 {
        fill: #fa9d3b;
      }

      .st78 {
        fill: #fc781b;
      }

      .st79 {
        fill: #fb6b12;
      }

      .st80 {
        fill: #fefdf6;
      }

      .st81 {
        fill: #fc9e3d;
      }

      .st82 {
        fill: #fd7518;
      }

      .st83 {
        fill: #eb9237;
      }

      .st84 {
        fill: #fc7b1b;
      }

      .st85 {
        fill: #f19339;
      }

      .st86 {
        fill: #fc7214;
      }

      .st87 {
        fill: #fea045;
      }

      .st88 {
        fill: #fc7e1d;
      }

      .st89 {
        fill: #fd8e2b;
      }

      .st90 {
        fill: #fb9c3d;
      }

      .st91 {
        fill: #fd6b0f;
      }
    </style>
  </defs>
  <path class="st56" d="M697.33.53c.73,0,1.47.02,2.23.02,16.32.18,32.62.5,48.92,1.26v1.64c.53.01,1.07.02,1.62.04,8.51.43,16.3,2.58,24.28,4.89.63.18,1.27.37,1.92.55,32.15,9.49,61.25,28.95,76.52,54.33q1.22,1.97,4.24,3.37h-1.99c.3.51.6,1.02.91,1.54,10.5,18.28,13.14,36.26,13.24,56.31,0,1.34.02,2.67.03,4.01.03,3.59.05,7.19.07,10.78.02,3.77.05,7.54.08,11.3.05,7.12.09,14.24.14,21.37.05,8.11.1,16.23.16,24.34.11,16.68.22,33.36.32,50.04h1q.97,4.97,1,6.56l-1.99,1.64q-.31,2.61-.26,5.75,0,.9-.01,1.81c0,2.02,0,4.03,0,6.05,0,1.44,0,2.88-.02,4.33-.01,3.11-.02,6.23-.02,9.34,0,4.94-.02,9.88-.04,14.82-.05,12.29-.08,24.58-.1,36.86-.02,9.52-.04,19.04-.08,28.56-.02,4.1-.03,8.2-.03,12.29,0,25.99-.51,50.3-15.38,73.82-.3.48-.6.97-.91,1.46-4.99,7.9-11.12,14.7-18.01,21.51-.65.65-1.3,1.31-1.97,1.98-26.6,25.96-66.18,35.64-105.62,39.05v.82c-2.41.02-4.81.04-7.22.05-.68,0-1.36.01-2.06.02-3.36.01-6.43-.03-9.65-.89v.82h-26.9c-.97.15-1.93.3-2.93.46-4.73.58-9.29.02-14.01-.46q-1.19-.03-3.03.43c-3.79.5-7.42.27-11.23.03-.74-.04-1.48-.09-2.24-.13-1.81-.11-3.62-.22-5.42-.33v-.82h-16.93v.82h-6.97v-1.64c-.78.27-1.56.54-2.37.82-4.6,1.05-8.83.96-13.57.82v-.82c-4.6-.27-9.2-.54-13.95-.82v1.64c-.66-.27-1.31-.54-1.99-.82-1.53-.06-3.07-.07-4.61-.05q-1.22.01-2.47.02c-.62,0-1.25.02-1.89.03v.82h-23.91v-.82h-7.97v.82h-6.97v-.82h-8.97v.82c-1.97.02-3.94.04-5.91.05-1.1,0-2.2.02-3.33.03q-2.71-.08-3.71-.9-4-.19-7.97,0c-.66.54-1.31,1.08-1.99,1.64q-2.34-.02-5.04-.31c-.9-.09-1.79-.18-2.71-.28-.73-.08-1.46-.16-2.21-.24q-1.14-.04-2.75.43c-2.51.44-4.43.3-6.96.03q-1.19-.13-2.41-.25c-.6-.07-1.2-.14-1.82-.21v-.82c-1.64-.27-3.29-.54-4.98-.82v1.64h-20.92q-1.48.03-2.99.05-2.99-.05-3.98-.87v.82c-4.38.02-8.76.04-13.14.05-1.49,0-2.98,0-4.47.02-2.14,0-4.28.01-6.42.02-1.29,0-2.58,0-3.9.01q-2.95-.09-3.94-.91v.82c-12.62.62-25.15.94-37.79.51-1.08-.04-2.17-.07-3.29-.11q-7.6-.29-8.73-1.23c-1.99-.03-3.99-.03-5.98,0l-1,1.64q-5.85-.72-6.97-1.64v.82h-12.95v-.82c-1.97-.27-3.94-.54-5.98-.82v1.64q-13.58,1.09-19.92,0v-.82h-30.88v.82h-33.87c-.62.15-1.23.3-1.87.46-2.62.44-4.52.05-7.1-.46h-8.97c-.69,0-1.39.02-2.1.03q-8.64.07-12.84-.85v.82q-6.03.8-7.97.82c-.66-.54-1.31-1.08-1.99-1.64v.82h-9.96c-.53.13-1.07.26-1.61.4-3.16.56-6.17.56-9.41.57-1.22.01-2.45.02-3.71.04q-3.2-.19-6.19-1.83v.82c-2.63.27-5.26.54-7.97.82v-1.64h-5.98v.82h-11.95v-.82q-1.81-.05-3.66-.09c-41.67-1.26-78.08-11.57-107.91-36.01q-.73-.59-1.47-1.2c-9.57-7.93-27.42-23.96-27.42-35.72-.66-.27-1.31-.54-1.99-.82-.33-1.91-.66-3.83-1-5.74-.66-.27-1.31-.54-1.99-.82q-.53-1.38-.93-3.28-.24-1.1-.49-2.23c-.19-.89-.37-1.78-.57-2.69-.25-1.12-.5-2.24-.75-3.36-2.11-9.43-3.3-18.34-3.19-27.95-.04-3.95-.44-7.83-.91-11.76q-.12-2.06.88-3.7c.1-1.99.14-3.95.13-5.94,0-.59,0-1.18,0-1.78,0-1.25,0-2.5,0-3.74,0-1.9,0-3.8,0-5.7,0-1.21,0-2.43,0-3.64,0-.57,0-1.13,0-1.71-.02-3-.35-5.73-1.13-8.65-.09-2.07-.13-4.14-.12-6.21,0-1.07,0-2.13,0-3.23.11-2.31.45-3.96,1.13-6.15.09-1.88.13-3.76.12-5.64,0-.98,0-1.96,0-2.97q-.05-2.85-.7-5.5-.43-2.3.04-3.76c.69-2.36.66-4.56.66-6.99,0-1.05,0-2.09,0-3.17,0-1.14,0-2.28,0-3.41,0-1.17,0-2.34,0-3.51,0-2.45,0-4.89,0-7.34,0-3.14,0-6.28,0-9.41,0-2.41,0-4.82,0-7.23,0-1.16,0-2.31,0-3.47,0-1.61,0-3.23,0-4.84,0-.92,0-1.84,0-2.79q.05-2.15-1.12-3.81h1.99c-.14-1.2-.29-2.39-.44-3.59-.08-.67-.16-1.33-.25-2.02q-.21-1.81-1.31-3.42c.23-1.55.47-3.1.73-4.65.47-3.37.41-6.74.4-10.13,0-.76,0-1.53,0-2.32,0-1.6,0-3.21,0-4.81,0-2.45,0-4.9,0-7.36,0-1.56,0-3.13,0-4.69,0-.73,0-1.46,0-2.21-.02-3.37-.1-6.5-1.13-9.78h1.99c-.16-.91-.33-1.83-.5-2.77-.54-3.44-.54-6.81-.44-10.28q.08-1.77-1.06-3.37c.23-1.34.47-2.67.73-4.01.51-3.36.41-6.73.4-10.11,0-.79,0-1.57,0-2.39,0-1.65,0-3.31,0-4.96,0-2.54,0-5.07,0-7.61,0-1.61,0-3.22,0-4.83,0-.76,0-1.52,0-2.3,0-.7,0-1.41,0-2.13,0-.62,0-1.24,0-1.87q-.06-1.8-1.12-4.09c.31-1.1.65-2.19,1-3.28.06-1.45.06-2.9.03-4.35-.01-.86-.03-1.72-.04-2.6-.02-.92-.03-1.84-.05-2.79-.2-32.04,8.52-59.81,33.93-84.61.72-.71,1.44-1.42,2.18-2.15,6.45-6.16,13.89-11.13,21.62-16.15q2.14-1.38,4.09-3.04C93.26,5.71,125.35.88,161.41.86c2.08,0,4.16,0,6.24-.01,5.69-.01,11.38-.02,17.07-.03,6.15,0,12.3-.02,18.45-.03,11.36-.02,22.72-.04,34.08-.06,10.53-.02,21.07-.03,31.6-.05,1.42,0,2.84,0,4.25,0,2.14,0,4.28,0,6.41-.01,26.73-.05,53.46-.09,80.19-.13,23.58-.03,47.17-.07,70.75-.12,26.59-.05,53.19-.09,79.78-.13,2.86,0,5.72,0,8.58-.01q1.06,0,2.13,0c9.78-.01,19.56-.03,29.35-.05q103.15-.19,147.04.31ZM183.66,511.35l3.98.82-3.98-.82ZM223.51,511.35v.82h4.98v-.82h-4.98ZM321.13,511.35v.82h11.95v-.82h-11.95ZM369.94,511.35v.82h11.95v-.82h-11.95ZM382.89,511.35v.82h4.98v-.82h-4.98ZM388.87,511.35v.82h14.94v-.82h-14.94ZM420.74,511.35v.82h8.97v-.82h-8.97ZM430.71,511.35v.82h4.98v-.82h-4.98ZM464.58,511.35v.82h4.98v-.82h-4.98ZM486.49,511.35v.82h6.97v-.82h-6.97ZM502.43,511.35v.82h4.98v-.82h-4.98ZM518.37,511.35l3.98.82-3.98-.82ZM565.19,511.35v.82h7.97v-.82h-7.97ZM605.03,511.35v.82h6.97v-.82h-6.97ZM647.87,511.35v.82h10.96v-.82h-10.96ZM669.78,511.35v.82h6.97v-.82h-6.97Z"/>
  <path class="st50" d="M567.14,115.7q1.12,0,2.26-.01c1.58,0,3.15-.01,4.73-.02,2.35,0,4.7-.03,7.05-.06,33.39-.19,65.45,9.49,89.45,28.79,6.56,5.55,11.51,11.45,16.09,18.23.47.66.94,1.32,1.42,2.01,12.89,19.39,12.82,43.27,7.93,64.41-2.39,10.37-3.87,19.44.61,29.58,2.52,2.91,3.67,3.9,7.91,4.56,5.69-.86,8.83-3.47,12.39-7.03,4.01-3.88,7.87-6.15,14.09-6.84,5.19-.16,9.07.24,13.43,2.74,6.31,5.2,8.14,10.17,8.28,17.44-.42,14.07-5.01,26.97-15.25,38.36-.54.61-1.08,1.21-1.64,1.84-5.14,5.28-11.75,9.44-20.02,10.52-4.1.19-6.64-.84-10.21-2.51q-2.58-.62-4.98,0c-3.51,3.68-5.11,7.3-6.72,11.74-4.67,12.1-11.33,23-20.17,33.38-.7.84-1.4,1.67-2.12,2.54-18.49,20.97-44.38,37.43-74.59,45.05h-3.98c1.36-4.2,2.74-8.38,4.27-12.54,2.46-6.76,4.69-13.52,6.49-20.41.15-.58.3-1.16.46-1.76.75-2.89,1.48-5.79,2.19-8.69,1.46-5.83,3.06-11.24,6.51-16.5.58-.96,1.17-1.91,1.77-2.89q2.22-2.03,5.74-2.54c1.36,0,2.71.02,4.07.05,8.19-.12,14.08-1.36,20.35-5.96,6.99-6.06,8.63-11.87,8.39-20.16-1.07-6.68-5.27-12.74-11.34-17.25-6.4-3.98-13.19-6.88-20.7-9.14-9.98-3.05-15.42-6.27-20.72-13.99q-1.43-2.16-4.49-3.6-3.07-.21-5.98,0c-.33.27-.66.54-1,.82q.42,4.38,2.05,8.51c1.9,4.39,1.78,8.78-.5,13.03-8.24,7.29-20.29,11.61-32.29,12.26-13.2.22-25.46-1.63-35.35-9.25-3.92-3.72-5.26-8.19-4.99-13.06,1.47-6.96,7.8-12.29,14.17-16.62,6.08-4.26,11.58-9.9,14.07-16.2.08-1.91.09-3.83,0-5.74-1.31-.27-2.63-.54-3.98-.82-.49.58-.97,1.15-1.47,1.75-5.91,6.77-12.61,12.55-19.88,18.34q-7.46,5.64-12.16,12.87c-.99,2.75-1.92,4.83-4.93,6.47-2.69,1.19-5.45,2.24-8.23,3.28-11.19,4.25-17.86,10.6-22.43,20.01-1.75,8.22-.79,15.52,4.68,22.7,5.24,5.53,11.3,7.25,19.54,8.27,1.12.11,2.24.23,3.39.34q2.65.32,3.65,1.14c.03,1.16,0,2.32-.07,3.48-.04.74-.08,1.48-.12,2.24-.05.8-.1,1.61-.15,2.43-.05.82-.09,1.64-.14,2.48-.15,2.63-.3,5.25-.46,7.88-.1,1.78-.2,3.55-.3,5.33-.25,4.36-.5,8.72-.76,13.08-4.37-1.2-5.43-4.02-7.53-7.18-5.67-8.2-12.09-15.41-19.92-22.31-15.31-13.86-20.35-29.43-19.55-47.93.59-6.89,3.02-13.54,5.25-20.17,3.68-10.96,5.18-21.35,5.2-32.7,0-1.8.02-3.6.04-5.4.05-5.11.09-10.21.11-15.32q.25-47.72,12.5-68.9c.42-.74.83-1.48,1.26-2.24,10.58-17.38,31.32-31.02,53.53-37.15,11.17-2.81,22.08-5.03,33.83-5.09Z"/>
  <path class="st23" d="M544.33,51.55c18.63,5.13,36.83,15.35,48.75,28.21.86-.63,1.73-1.25,2.61-1.9,1.45-1.01,2.9-2.02,4.36-3.03q1.44-1.01,2.9-2.05c16.61-11.43,36-19.37,57.92-19.49.79-.02,1.57-.03,2.38-.05,4.7-.03,7.63.28,11.5,2.72-1.29,2.38-2.62,3.96-4.96,5.71-8.75,6.74-17.18,13.86-19.95,23.83,1.07-.43,2.15-.85,3.26-1.29,24.5-9.5,51.81-13.87,78.29-6.59,11.87,3.66,23.81,8.83,31.01,17.73q0,2.05-1,4.1c-4.23,2.05-8.38,3.07-13.14,4-6.63,1.36-12.64,3.3-18.74,5.85,2.96,1.62,5.41,2.22,8.82,2.91,26.86,5.48,50.26,19.58,64.9,38.94,8.94,12.51,16.76,27.91,14.94,42.67q-1.12,2.62-2.99,4.1c-3.16.68-5.05.42-7.9-.88-2.38-1.31-4.7-2.68-7.04-4.04-11.32-6.2-20.32-9.23-33.87-9.85,1.12,2.76,1.69,3.08,4.48,4.67,25.92,15.58,40.82,41.91,45.73,67.63,2.25,13.02,4.65,29.14-3.2,41.23q-2.19,2.17-4.62,3.13c-3.85-.22-5.01-1.81-7.53-4.15-5.63-5-11.8-8.91-18.93-12.41h-1.99c-.03.84-.05,1.67-.08,2.53-.71,16.29-4.48,35.84-19.19,47.77-3.26,1.71-4.82,1.93-8.62,1.39q-2.66-1.53-5.17-3.54c-.84-.66-1.67-1.31-2.53-1.99-.75-.61-1.49-1.22-2.26-1.86-.59-.49-1.18-.97-1.79-1.47q-.59-.49-1.19-.99c1.45-2.67,3.3-4.65,5.6-6.87,14.63-14.88,23.21-33.83,21.29-53.03-1.34-8.73-4.28-17.26-12.39-23.38-4.6-2.9-9.72-4.77-15.5-5.33q-.93-.09-1.88-.19c-9.92-.54-18.36,3.6-26.01,8.39h-1.99c.47-5.35,1.27-10.55,2.5-15.82,6.41-27.89,1.65-56.22-17.44-80.18-2.49-2.87-5.15-5.55-7.97-8.21q-.88-.9-1.78-1.82c-20.64-20.5-54.77-30.69-85.88-34.28q-1-.12-2.03-.24c-33.24-3.47-69.07,1.3-96.63,17.62-2.75,1.79-5.35,3.64-7.93,5.59-.91.68-1.82,1.36-2.75,2.07-28.09,22.07-34.94,51.92-39.08,82.44-.91-.24-1.83-.47-2.77-.72-11.34-2.83-17.77-3.38-28.96.64-3.25.93-5.7,1.07-9.11.9-4.52-5.89-3.61-11.33-1.81-17.89,2.59-8.74,6.09-16.79,12.63-24.09q1.39-1.56,1.13-3.97c-8.88-.26-17.58,1.65-25.4,5.13-3.57,1.47-5.54,1.9-9.46,1.44-2.55-2.1-2.35-2.97-2.43-5.9.29-13.37,9.08-25.27,19.36-35.13.68-.68,1.35-1.35,2.05-2.05,15.46-14.95,38.96-25.28,62.7-27.49,2.36-.1,4.61-.09,6.97,0-4.08-6.6-12.85-9.41-21.04-11.69-2.88-.73-5.77-1.42-8.68-2.09-.88-.21-1.75-.41-2.65-.62-.77-.17-1.54-.34-2.33-.52-2.42-.75-4.14-1.78-6.13-3.12.33-3.14,1.38-5.06,4.25-7.18,16.23-9.69,40.72-9.81,59.81-7.95,11.29,1.69,24.39,4.09,34.55,8.56-4.16-8.62-9.73-15.8-17.93-22.15q-1.99-1.85-2.99-3.28c.33-.81.66-1.62,1-2.46,8.48-3.49,23.18-.83,31.94,1.32Z"/>
  <path class="st50" d="M270.08,259.97c.71,0,1.43,0,2.16,0,7.13.14,11.2,1.49,16.52,5.43.49.47.99.95,1.49,1.44q.67-.5,1.35-1.02.9-.66,1.82-1.34c.59-.44,1.18-.88,1.79-1.33,6.68-4.11,15.02-3.39,22.93-2.88,5.67,1.15,8.84,3.63,12.04,7.56,1.94,3.13,2.04,6.12,2.06,9.6,0,.98.02,1.95.03,2.96,0,1.05,0,2.1.01,3.19,0,1.08.01,2.16.02,3.28.01,2.29.02,4.58.02,6.86,0,2.93.03,5.86.06,8.8.02,2.8.02,5.6.03,8.39.01,1.05.02,2.11.04,3.19,0,.97,0,1.95,0,2.95q0,1.29.01,2.6-.37,2.14-1.67,3.65c-2.8,1.59-5.88,1.34-9.16,1.32-.67.02-1.35.03-2.04.05q-1.97,0-5.43-.41c-2.8-2.35-3.36-4.04-3.34-7.28,0-.79,0-1.58-.01-2.4,0-.85.02-1.7.03-2.57-.01-1.8-.03-3.61-.04-5.41,0-2.84,0-5.68.01-8.52,0-2.74-.01-5.48-.04-8.23.01-.85.03-1.7.04-2.57q-.06-4.9-2.98-9.1-2.54-1.68-5.69-1.97c-3.54.56-4.7,1.45-6.91,3.74-1.18,1.94-1.13,3.14-1.15,5.3q-.02,1.14-.03,2.3c0,.82-.01,1.64-.02,2.49-.03,1.73-.06,3.47-.09,5.2-.04,2.74-.08,5.48-.1,8.22-.03,2.64-.07,5.28-.12,7.92,0,.82,0,1.63,0,2.48q-.16,7.43-3.45,10.4c-2.9.36-5.16.47-8.03.36q-1.1,0-2.21-.01-5.4-.1-7.69-1.99-.25-1.69-.25-3.8c0-.79-.01-1.58-.02-2.39,0-.86,0-1.71,0-2.59-.02-1.8-.04-3.61-.06-5.41-.02-2.85-.04-5.7-.04-8.55,0-2.75-.04-5.49-.08-8.24,0-.85.01-1.7.02-2.57-.08-4.91-.52-7.84-4.54-11.57-3.08-1.27-5.57-1.06-8.97-.82-2.9,1.82-3.83,2.89-4.98,5.74-.1,1.28-.14,2.57-.16,3.86q-.02,1.17-.03,2.36c0,.84-.01,1.68-.02,2.55-.03,1.78-.06,3.55-.09,5.33-.04,2.8-.08,5.61-.1,8.41-.03,2.7-.07,5.41-.12,8.11,0,.84,0,1.68,0,2.55-.02.78-.03,1.56-.05,2.36,0,.69-.02,1.37-.02,2.08-.48,2.2-1.2,2.93-3.38,4.24-2.59.25-4.89.34-7.47.31-.67,0-1.35.02-2.04.03q-4.85-.02-7.11-1.24c-1.95-2.33-1.68-4.24-1.69-7.05,0-.56-.01-1.11-.02-1.68-.01-1.84,0-3.67,0-5.51,0-1.28,0-2.55,0-3.83,0-2.68,0-5.35.02-8.03.02-3.43,0-6.86-.01-10.28-.01-2.64,0-5.27,0-7.91,0-1.26,0-2.53,0-3.79,0-1.77,0-3.53.02-5.3,0-1.01,0-2.01,0-3.05.41-2.77.93-3.93,3.37-5.84,2.64-.36,4.77-.5,7.41-.46q1.97-.03,3.98-.05,3.55.52,6.02,2.6c.5.67,1,1.33,1.52,2.02.74-.51,1.48-1.02,2.24-1.54,4.82-3.07,8.37-3.7,14.44-3.69Z"/>
  <path class="st80" d="M68.37,236.06c1.29-.01,2.57-.02,3.9-.03,1.41,0,2.81.01,4.22.02,1.44,0,2.88,0,4.32,0,3.02,0,6.04,0,9.05.02,3.87.02,7.74,0,11.61-.01,2.97-.01,5.95,0,8.92,0,1.43,0,2.85,0,4.28,0,1.99,0,3.99,0,5.98.02q1.7,0,3.44,0,2.8.42,4.66,1.93c1.55,2.44,1.53,4.37,1.5,7.11q.01,1.38.02,2.79c-.46,2.93-.72,3.85-3.39,5.82-3.05.51-6.08.48-9.19.47-.9.01-1.8.02-2.73.04-2.88.03-5.75.05-8.63.06-2.88.02-5.77.05-8.65.08-1.79.02-3.59.03-5.38.04q-3.95-.3-7.26.95c-.15,2.32-.23,4.6-.25,6.92-.02.65-.04,1.3-.06,1.96q-.05,2.1.31,5.06c3.6,1.97,6.25,1.88,10.4,1.89,1.48.02,2.96.04,4.44.06,2.33.02,4.66.04,6.99.06,2.25.02,4.5.05,6.75.08.7,0,1.4,0,2.12,0q1.96.03,5.16.36c2.35,2.91,2.29,4.29,2.3,7.74.02.93.03,1.86.05,2.82-.41,2.92-.77,3.85-3.35,5.85-2.68.34-4.98.48-7.67.47-.75.01-1.49.02-2.26.04-2.38.03-4.76.05-7.14.06-2.39.02-4.77.05-7.16.08-1.48.02-2.97.03-4.45.04q-3.38-.22-6.2.95c-.09,1.16-.11,2.33-.1,3.49q0,1.05,0,2.12c0,.74.02,1.47.03,2.23,0,.74,0,1.48.01,2.24.01,1.83.03,3.67.05,5.5,3.34,1.38,7.12.95,10.8.96,1.8.02,3.59.04,5.39.06,2.84.03,5.67.05,8.51.06,2.73.01,5.47.05,8.2.08q1.27,0,2.58,0,5.86.1,8.39,1.99c1.32,2.44,1.36,4.44,1.33,7.1q.01,1.38.02,2.79c-.45,2.85-.93,3.82-3.39,5.82q-2.75.42-6.13.42-1.89.02-3.83.03c-1.38,0-2.76-.01-4.14-.02-1.42,0-2.83,0-4.25,0-2.97,0-5.93,0-8.9-.02-3.8-.02-7.6,0-11.4.01-2.92.01-5.85,0-8.77,0-1.4,0-2.8,0-4.2,0-1.96,0-3.92,0-5.88-.02-1.11,0-2.23,0-3.38,0q-2.88-.42-5.23-1.6c-2.49-3.2-2.18-6.15-2.13-9.88,0-.79-.01-1.57-.02-2.39-.01-2.6,0-5.21.02-7.81,0-1.81,0-3.62,0-5.43,0-3.79.01-7.58.03-11.37.03-4.86.03-9.72.01-14.58,0-3.73,0-7.47.01-11.2,0-1.79,0-3.59,0-5.38,0-2.5.01-5.01.04-7.51,0-.74,0-1.49-.01-2.25.04-2.86.13-5,1.55-7.63,2.71-1.72,4.7-1.6,8.09-1.61Z"/>
  <path class="st80" d="M520.36,343.97c3.4.11,6.81.24,10.21.36.96.03,1.93.06,2.92.1q1.4.05,2.82.1c.86.03,1.71.06,2.59.09,2.22.16,4.22.49,6.36.99-.2.95-.41,1.9-.62,2.88q-5.59,23.62.62,46.35h4.98c.02-.56.04-1.11.06-1.69q1.21-32.55,8.91-47.54c12.03-.34,23.91.69,35.86,1.64-.21.74-.41,1.48-.63,2.25-.31,1.13-.62,2.26-.93,3.39-.17.63-.35,1.26-.52,1.91-1.25,4.64-2.42,9.29-3.55,13.95-.3,1.21-.59,2.43-.89,3.64-.44,1.82-.88,3.63-1.31,5.45-2.6,11-5.65,22.19-11.91,32.23q-.51.82-1.02,1.65c-3.84,5.91-8.97,10.26-16.91,12.3-7.67,1.27-13.98.77-20.83-2.42-11.09-6.42-15.32-17.12-18.21-27.57-.77-4.36-1.15-8.62-1.16-13.03,0-.6,0-1.19-.01-1.81,0-1.26,0-2.52,0-3.77,0-1.88-.02-3.75-.04-5.63q-.09-20.36,3.21-25.81Z"/>
  <path class="st80" d="M507.41,301.3c.53.96,1.07,1.93,1.62,2.92,3.28,5.74,9.84,10.21,16.85,12.77,19.66,5.76,39.09,5.7,58.41-1.37,7.12-3.01,13.02-6.53,17.76-11.86,1-1.09,1.99-2.19,2.99-3.28,10.24,2.04,22.31,5.41,28.87,12.57,2.69,3.66,3.54,6.03,3,10.4-1.93,4.74-4.76,8.08-9.96,10.67-5.67.81-10.5-.29-15.94-1.64-3.99-.4-5.38-.36-8.65,1.64-7.72,3.84-18.92,1.33-27.57.59-14.64-1.23-29.07-1.63-43.78-1.25-7.43.15-13.38-.28-20.27-2.69-3.22-1.04-6.19-1.14-9.62-1.16-5.57-.22-8.61-.47-12.64-3.69-3.1-2.98-3.57-5.76-3.4-9.57,1.12-5.26,5.61-9.13,10.53-12.37,3.82-2.16,7.16-3.94,11.79-2.67Z"/>
  <path class="st40" d="M386.81,262.72q1.56.83,4.05,2.47.92.56,1.87,1.13,1.12,1.33,1.74,3.49c-.95,4.21-3.99,7.13-7.6,10.15q-2.23,1.04-3.98,1.64-.63-.52-1.28-1.05c-3.07-2.36-5.24-3.76-9.3-4.8q-3.41-.11-6.16,1.38c-5.08,4.66-4.54,10.38-4.54,16.31-.02.83-.05,1.66-.07,2.51-.02,5.25.65,8.44,4.43,12.72,2.33,1.47,3.88,1.63,6.79,2,3.32-.38,4.18-.82,6.72-2.46q3.14-1.99,5.98-2.1c3.82,1.45,7.52,3.32,9.22,6.6.31,2.93-1.72,4.45-3.85,6.65-5.73,4.76-12.6,6.63-20.56,6.79-8.9-.09-15.05-2.75-21.51-7.71-9.49-8.72-9.21-21.78-8.69-32.76.79-7.53,4.4-15.63,11.14-20.92,10.74-6.61,23.81-7.02,35.6-2.06Z"/>
  <path class="st50" d="M425.05,237.21c4.82,2.63,7.87,6.27,9.64,10.76,1.07,8.28-.75,14.76-6.97,21.33q-8.87,7.76-11.95,9.03c.33,1.35.66,2.71,1,4.1,1.2.03,2.4.06,3.63.09,1.57.05,3.14.11,4.71.16q1.19.03,2.4.06c2.07.08,4.14.29,6.19.51,2.16,2.67,2.26,3.52,2.24,6.62q0,1.08.02,2.18-.26,1.87-2.26,3.51-1.85.2-4.13.2c-.85,0-1.7,0-2.58,0-.92,0-1.84-.01-2.79-.02-.94,0-1.89,0-2.86,0-2,0-3.99,0-5.99-.02-3.06-.01-6.13-.02-9.19-.02-1.94,0-3.87,0-5.81-.01-.92,0-1.84,0-2.79,0q-1.28,0-2.58-.02c-.75,0-1.5,0-2.27,0q-1.85-.11-3.84-.93c-.96-5.05-.37-8.38,3.3-12.56,1.53-1.58,3.08-3.13,4.67-4.67.93-.91,1.86-1.83,2.79-2.74,1.43-1.39,2.86-2.79,4.3-4.17q7.54-6.96,9.97-15.76c0-.65,0-1.31,0-1.98q.08-1.61-1.13-2.43c-5.44-.29-7.66-.34-11.95,2.46q-2.43.05-4.98-.82c-3.08-2.42-4.76-4.02-5.6-7.49q.62-2.36,2.55-4.1c1.01-.51,2.01-1.02,3.05-1.54.61-.31,1.21-.61,1.84-.93,8.04-3.53,18.99-3.93,27.37-.8Z"/>
  <path class="st17" d="M523.91,160.69q1.85,0,3.75.01c7.38.09,14.29.59,21.49,1.87,11.11,1.87,23,1.52,34.16.06,15.06-1.89,32.5-2.86,46.63,2.46.89.31,1.78.61,2.7.93,5.62,2.1,11.45,4.81,15.23,8.92q.21,2.23,0,4.1c-5.5-.57-10.32-2.1-15.4-3.82-11.91-3.85-23.42-4.73-36.07-4.6-1.57,0-3.13.01-4.7.02-4.09.01-8.17.04-12.26.07-6.55.05-13.09.08-19.64.1-2.27.01-4.53.03-6.8.05-6.6.04-13.09-.02-19.65-.66-4.99-.47-10.04-.34-15.05-.35-1.12-.01-2.23-.02-3.38-.03-5.78,0-11.07.23-16.67,1.46-2.29.46-4.44.49-6.79.36-.33-1.08-.66-2.17-1-3.28,1.44-.78,2.9-1.55,4.36-2.31.81-.43,1.62-.86,2.45-1.3,8.73-3.65,16.94-4.18,26.62-4.09Z"/>
  <path class="st80" d="M157.56,263.24q1.78-.01,3.6-.02t3.89.02c1.33,0,2.66,0,3.99,0,2.78,0,5.57,0,8.35.01,3.57.01,7.13,0,10.7,0,2.74,0,5.49,0,8.23,0,1.96,0,3.91,0,5.87-.01,1.19,0,2.37.02,3.6.02,1.05,0,2.09,0,3.17,0q2.61.31,4.44,1.38c1.93,2.32,1.54,4.89,1.47,7.6,0,.56,0,1.12,0,1.7q-.05,4.18-2.31,6.04-2.57.21-5.86.21c-1.23,0-2.46.01-3.73.02-1.35,0-2.7,0-4.04-.01-1.38,0-2.75,0-4.13,0-2.89,0-5.77,0-8.66,0-3.71,0-7.41,0-11.11,0-2.84,0-5.69,0-8.53,0-1.37,0-2.73,0-4.1,0-1.91,0-3.82,0-5.72-.01-1.09,0-2.17,0-3.29,0q-2.57-.21-4.56-1.85c-.22-2.07-.32-4.03-.31-6.1-.02-.56-.03-1.12-.05-1.69q0-4.07,1.52-5.9c2.59-1.51,4.46-1.38,7.61-1.39Z"/>
  <path class="st50" d="M153.41,292.08c1.11,0,2.22,0,3.37.01q1.88,0,3.81,0c1.38,0,2.75.02,4.13.03,1.4,0,2.81,0,4.21,0,3.7,0,7.4.02,11.09.04,3.77.02,7.55.02,11.32.03,7.4.02,14.81.05,22.21.08,1.78,2.75,2.29,4.66,2.3,7.79.02.77.03,1.54.05,2.33-.43,2.62-1.1,3.59-3.35,5.46q-2.65.41-5.87.41c-1.21,0-2.41.02-3.66.02-1.3,0-2.61-.02-3.95-.03-1.35,0-2.7,0-4.05,0-2.83,0-5.66,0-8.49-.03-3.63-.02-7.26-.02-10.88-.01-2.79,0-5.58,0-8.37-.01-1.99,0-3.98,0-5.96,0-1.21-.01-2.41-.02-3.66-.03-1.06,0-2.13,0-3.22-.01q-2.65-.32-4.48-1.4c-1.89-2.27-1.51-4.47-1.46-7.17,0-1.02,0-2.05.01-3.11.37-3.23.92-4.12,4.91-4.42Z"/>
  <path class="st54" d="M727.56,1c-.33.81-.66,1.62-1,2.46H129.87v-.82c10.33-2.15,20.73-1.88,31.3-1.88,2.08,0,4.16-.01,6.23-.02,5.7-.01,11.39-.02,17.09-.02,6.15,0,12.3-.02,18.46-.03,11.37-.02,22.73-.04,34.1-.05,10.54-.01,21.08-.02,31.62-.04.7,0,1.4,0,2.13,0,2.85,0,5.7,0,8.54-.01,26.74-.04,53.49-.08,80.23-.11,23.6-.03,47.19-.06,70.79-.1,1.51,0,3.01,0,4.52,0,.74,0,1.49,0,2.26,0,3.75,0,7.5-.01,11.26-.02.74,0,1.48,0,2.24,0,19.84-.03,39.69-.06,59.53-.09.71,0,1.42,0,2.15,0q1.06,0,2.15,0c.71,0,1.42,0,2.14,0,1.42,0,2.85,0,4.27,0,9.79-.01,19.57-.03,29.36-.04,59.11-.1,118.22-.15,177.32.8Z"/>
  <path class="st66" d="M131.86,510.53h606.65v.82c-3.62.27-7.23.54-10.96.82v.82c-2.41.02-4.81.04-7.22.05q-1.02.01-2.06.02c-3.36.01-6.43-.03-9.65-.89v.82h-26.9q-1.45.23-2.93.46c-4.73.58-9.29.02-14.01-.46q-1.19-.03-3.03.43c-3.79.5-7.42.27-11.23.03-.74-.04-1.48-.09-2.24-.13-1.81-.11-3.62-.22-5.42-.33v-.82h-16.93v.82h-6.97v-1.64c-.78.27-1.56.54-2.37.82-4.6,1.05-8.83.96-13.57.82v-.82q-6.9-.41-13.95-.82v1.64c-.66-.27-1.31-.54-1.99-.82-1.53-.06-3.07-.07-4.61-.05-.81,0-1.63.01-2.47.02-.62,0-1.25.02-1.89.03v.82h-23.91v-.82h-7.97v.82h-6.97v-.82h-8.97v.82c-1.97.02-3.94.04-5.91.05-1.1,0-2.2.02-3.33.03q-2.71-.08-3.71-.9-4-.19-7.97,0c-.66.54-1.31,1.08-1.99,1.64q-2.34-.02-5.04-.31c-.9-.09-1.79-.18-2.71-.28-.73-.08-1.46-.16-2.21-.24q-1.14-.04-2.75.43c-2.51.44-4.43.3-6.96.03-.8-.08-1.59-.17-2.41-.25-.6-.07-1.2-.14-1.82-.21v-.82c-1.64-.27-3.29-.54-4.98-.82v1.64h-20.92c-.99.02-1.97.03-2.99.05q-2.99-.05-3.98-.87v.82c-4.38.02-8.76.04-13.14.05-1.49,0-2.98,0-4.47.02-2.14,0-4.28.01-6.42.02-1.29,0-2.58,0-3.9.01q-2.95-.09-3.94-.91v.82c-12.62.62-25.15.94-37.79.51-1.08-.04-2.17-.07-3.29-.11q-7.6-.29-8.73-1.23c-1.99-.03-3.99-.03-5.98,0-.33.54-.66,1.08-1,1.64q-5.85-.72-6.97-1.64v.82h-12.95v-.82c-1.97-.27-3.94-.54-5.98-.82v1.64q-13.58,1.09-19.92,0v-.82h-30.88v.82h-33.87c-.62.15-1.23.3-1.87.46-2.62.44-4.52.05-7.1-.46h-8.97c-.69,0-1.39.02-2.1.03q-8.64.07-12.84-.85v.82q-6.03.8-7.97.82-.99-.81-1.99-1.64v.82h-9.96q-.8.2-1.61.4c-3.16.56-6.17.56-9.41.57q-1.84.02-3.71.04-3.2-.19-6.19-1.83v.82c-2.63.27-5.26.54-7.97.82v-1.64h-5.98v.82h-11.95v-.82c-6.57-.27-13.15-.54-19.92-.82v-.82ZM183.66,511.35l3.98.82-3.98-.82ZM223.51,511.35v.82h4.98v-.82h-4.98ZM321.13,511.35v.82h11.95v-.82h-11.95ZM369.94,511.35v.82h11.95v-.82h-11.95ZM382.89,511.35v.82h4.98v-.82h-4.98ZM388.87,511.35v.82h14.94v-.82h-14.94ZM420.74,511.35v.82h8.97v-.82h-8.97ZM430.71,511.35v.82h4.98v-.82h-4.98ZM464.58,511.35v.82h4.98v-.82h-4.98ZM486.49,511.35v.82h6.97v-.82h-6.97ZM502.43,511.35v.82h4.98v-.82h-4.98ZM518.37,511.35l3.98.82-3.98-.82ZM565.19,511.35v.82h7.97v-.82h-7.97ZM605.03,511.35v.82h6.97v-.82h-6.97ZM647.87,511.35v.82h10.96v-.82h-10.96ZM669.78,511.35v.82h6.97v-.82h-6.97Z"/>
  <path class="st51" d="M632.66,188.31c9.69,4.53,15.63,9.84,19.19,18.63.6,3.47.69,4.87-1.62,7.79q-2.37,1.23-5.21,1.14c-3.87-.9-5.23-2.16-7.87-4.63-5.24-4.56-12.39-9.09-20.39-9.28q-1.26.03-2.55.06t-2.79.04c-1.94.04-3.88.08-5.81.13q-1.38.02-2.79.04-1.26.03-2.55.05-2.21-.27-3.98-1.31c-2.12-2.45-1.79-5.14-1.22-7.98,2.29-4.26,5.38-6,10.48-7.64,8.95-2.06,18.86-.25,27.11,2.95Z"/>
  <path class="st89" d="M534.93,142.02c.84,0,1.67,0,2.53,0,4.29,0,8.5.15,12.76.53,6.51.5,12.97.45,19.5.37,2.59-.02,5.18-.04,7.76-.05,4.03-.03,8.06-.06,12.09-.11,3.92-.05,7.85-.07,11.77-.09,1.19-.02,2.38-.04,3.6-.06,10.5-.03,21.82,1.82,29.96,7.74q1.21,1.77,1.99,3.28c-3.89,1.24-6.54.35-10.4-.72-7.17-1.96-13.16-2.7-20.67-2.67-.8,0-1.59,0-2.41,0-4.03,0-7.96.14-11.96.52-7.06.63-14.15.57-21.24.57-.73,0-1.46,0-2.21,0-9.07,0-17.99-.22-27-1.21-9.82-1.02-19.75-.73-29.62-.59v-3.28c1.39-.54,2.78-1.06,4.17-1.59.77-.3,1.55-.59,2.35-.89,5.62-1.83,11.06-1.74,17.02-1.72Z"/>
  <path class="st42" d="M523.67,187.86c2.77,1.72,3.75,3.23,4.66,5.96q-.2,4.9-2.3,7.13c-3.35,2.13-8.6,1.14-12.69.97-7-.17-12.14.84-17.78,4.36-.81.64-1.63,1.28-2.47,1.95-.83.64-1.66,1.29-2.51,1.95-1.37,1.1-2.73,2.21-4.09,3.33q-2.99.21-5.98,0c-2.61-2.15-2.35-3.21-2.43-6.21.15-6.05,2.32-9.82,7.17-14.28,10.03-7.91,25.76-10.77,38.41-5.16Z"/>
  <path class="st34" d="M616.99,229.1c5.02,2.63,7.22,5.06,8.97,9.85.94,5.28-.14,9.61-3.98,13.95-3.04,2.18-4.99,3.15-8.97,3.69-4.7-.65-7.77-2.37-10.61-5.51-2.73-4.64-2.45-10.82-.62-15.71,3.39-5.3,8.15-7.08,15.21-6.27Z"/>
  <path class="st34" d="M514.48,228.48c3.96,1.29,6.01,4.12,7.87,7.18q1.16,12.1-3.98,17.23c-2.59,1.94-4.43,3.14-7.96,3.47-3.06-.12-5.18-.45-7.57-2.08-4.54-4.32-4.75-8.15-4.67-13.62.54-4.91,2.67-7.87,7-11.2,3.55-1.29,5.55-1.54,9.32-.98Z"/>
  <path class="st28" d="M727.56,266.84c2.96.22,3.84.7,5.98,2.46,1.42,8.79-4.37,19-9.96,26.26q-2.01,1.52-3.98,2.46-4.39-.34-5.98-1.64c-1.7-9.18,3.22-18.27,9.53-25.62,1.39-1.42,2.73-2.72,4.41-3.91Z"/>
  <path class="st6" d="M645.91,254.44c8.6.69,16.43,2.52,22.88,7.48-.33,1.35-.66,2.71-1,4.1-9.12.8-16.67-2.01-24.9-4.92q-1-.82-1.18-2.82c.23-2.61.89-3.68,4.2-3.84Z"/>
  <path class="st82" d="M613,143.76c8.33.23,16.5,2.41,22.76,7.13.38.35.76.71,1.14,1.07-.33.81-.66,1.62-1,2.46-2.81-.42-5.51-.94-8.25-1.59-10.88-2.52-21.31-3.14-32.59-3.33v-.82c.66-.02,1.33-.04,2.01-.06,3.02-.1,6.05-.2,9.07-.3,1.04-.03,2.09-.06,3.16-.1,4.96-.17,9.77-.36,14.65-1.18-3.62-.81-7.23-1.62-10.96-2.46v-.82Z"/>
  <path class="st4" d="M543.27,144.58v2.46q2.47.41,4.98.82v.82h-30.88v.82h-5.98c-.33-.81-.66-1.62-1-2.46,11.17-3.91,21.03-3.36,32.87-2.46Z"/>
  <path class="st2" d="M372.18,274.99c4.69,1.1,7.3,3.01,10.71,5.79,2.48-.99,4.66-2.01,6.97-3.28.33.81.66,1.62,1,2.46-1.64,1.08-3.29,2.17-4.98,3.28-3.36-.9-5.12-1.75-7.72-3.79-2.67-1.97-4.53-2.22-8.09-2.21-1.37.07-2.74.14-4.11.26q2.58-2.46,6.23-2.51ZM394.84,275.04c.99.27,1.97.54,2.99.82-1.58,4.18-4.73,7.28-7.97,10.67l-1-2.46q1.93-2.62,3.98-4.92l-1.99-.82c1.31-1.08,2.63-2.17,3.98-3.28Z"/>
  <path class="st32" d="M610.01,144.58c1.72.09,3.45.2,5.17.31.96.06,1.92.11,2.91.17,2.9.34,5.2,1,7.86,1.98-4.95,1.36-9.34,1.74-14.56,1.72-1.24,0-2.48,0-3.76,0-1.29,0-2.58-.01-3.9-.02q-1.96,0-3.96-.01c-3.22,0-6.45-.02-9.67-.04v-.82c7.01-.77,13.85-.91,20.92-.82-.33-.81-.66-1.62-1-2.46Z"/>
  <path class="st47" d="M592.08,293.1c1.21,3,.64,3.8-1,6.56-2,1.65-3.46,2.28-5.98,3.28-.79.38-1.58.76-2.4,1.15-11.88,5.67-22.03,6.61-35.45,6.23v-.82q1.3-.05,2.63-.09c13.07-.59,22.95-2.63,34.23-8.11.74-.29,1.47-.58,2.23-.87,2.33-1.02,2.75-2.06,3.74-4.05l1.99-3.28Z"/>
  <path class="st35" d="M766.41,183.15c8.25-.48,15.35.41,22.91,3.28q1.84,1.34,2.99,2.46c-.63-.17-1.25-.34-1.9-.51-5.38-1.39-10.42-2.34-16.03-2.77q-.99,1.22-1.99,2.46-2.43-.62-4.98-1.64-.66-1.71-1-3.28Z"/>
  <path class="st91" d="M735.53,106.84v4.1c.6.08,1.21.16,1.83.24,6.42.94,12.13,2.53,18.09,4.68-4.03,1.11-6.78.03-10.65-1.03q-1.07-.29-2.17-.58c-4.75-1.27-9.44-2.63-14.08-4.14q3.81-3.28,6.97-3.28Z"/>
  <path class="st18" d="M693.69,237.3h1v13.13c.99.27,1.97.54,2.99.82-.18.59-.37,1.18-.56,1.79-.46,2.41-.17,4.06.56,6.41q-1.99-.82-2.84-2.79c-2.01-6.63-3.25-12.64-1.14-19.36Z"/>
  <path class="st87" d="M512.28,166.5q1.4.01,2.83.02c.97.02,1.95.04,2.95.06.98.01,1.97.02,2.98.03,2.43.03,4.86.07,7.29.12-1.69,1.73-2.54,2.41-5.25,2.74-.86-.01-1.72-.03-2.61-.04-.93,0-1.87-.02-2.83-.02-.97-.02-1.95-.04-2.95-.06-.98-.01-1.97-.02-2.98-.03-2.43-.03-4.86-.07-7.29-.12,2.45-2.5,4.01-2.76,7.86-2.7Z"/>
  <path class="st88" d="M780.35,282.43c5.07,1.3,8.84,3.89,12.95,6.56-3.85,0-6.48-1.16-9.96-2.46v4.1c-.99-.27-1.97-.54-2.99-.82v-7.38Z"/>
  <path class="st55" d="M539.29,145.4h3.98v1.64q2.47.41,4.98.82v.82c-10.85-.27-21.7-.54-32.87-.82v-.82h23.91v-1.64Z"/>
  <path class="st24" d="M713.61,288.17h2.99v7.38c.99.27,1.97.54,2.99.82q-1.97.81-3.98,1.64-1.99-1.64-2.19-3.6c.02-.74.05-1.48.07-2.25.02-.75.04-1.49.05-2.26.02-.57.05-1.15.07-1.74Z"/>
  <path class="st3" d="M643.88,254.53c5.21.1,10.24.52,14.94,2.46-3.52.97-5.36.54-8.97,0-1.66-.03-3.32-.04-4.98,0-.33.54-.66,1.08-1,1.64q-.99.41-1.99.82.87-4,1.99-4.92Z"/>
  <path class="st79" d="M528.33,70.74q1.99.82,3.11,2.77.87,2.15.87,4.62c-6.08-1.45-12.03-3.03-17.93-4.92,3.84-1.05,5.38-.33,9.15.77,1.08.31,2.16.62,3.28.95.83.25,1.66.49,2.51.75-.33-1.62-.66-3.25-1-4.92Z"/>
  <path class="st33" d="M627.94,172.48c4.27.81,8.55,1.62,12.95,2.46v1.64c1.97.54,3.94,1.08,5.98,1.64-4.13,1.13-6.76-.17-10.58-1.49-.69-.22-1.38-.45-2.09-.68q-5.12-1.72-6.25-3.58Z"/>
  <path class="st84" d="M439.67,87.97q11.48,1.58,16.93,3.28c-3.06.77-5.43.84-8.59.51-.77-.07-1.55-.15-2.34-.22q-2.02-.29-4.01-1.11v-1.64l-1.99-.82Z"/>
  <path class="st61" d="M393.85,311.15l1.99.82c-.25,3.45-.58,5.31-3.24,8.05-2.56,1.68-4.61,2.63-7.72,3.44q1.11-.86,2.24-1.74,5.34-4.57,6.72-10.56Z"/>
  <path class="st78" d="M578.14,404.68l1,1.64c-1,1.64-1.99,3.28-2.99,4.92v3.28c-1.64.54-3.29,1.08-4.98,1.64,1.76-4.08,4.38-7.74,6.97-11.49Z"/>
  <path class="st60" d="M497.45,165.92l1.99.82-1,.82c1.31.54,2.63,1.08,3.98,1.64-.95.25-1.89.51-2.86.77q-2.97.77-5.11,1.69c-.66-.27-1.31-.54-1.99-.82v-2.46q2.37-1.44,4.98-2.46Z"/>
  <path class="st67" d="M656.83,72.38l1,1.64q-1.21,2.31-2.93,5.03c-.56.9-1.13,1.8-1.71,2.72-.44.69-.89,1.38-1.34,2.1.66.27,1.31.54,1.99.82-1.31.27-2.63.54-3.98.82.33-5.17,3.66-8.9,6.97-13.13Z"/>
  <path class="st71" d="M846.1,55.97h1.99c1.03,1.45,2.04,2.9,3.05,4.36.57.81,1.13,1.62,1.72,2.45q1.21,2.21.21,4.68c-1.17-1.6-2.33-3.21-3.49-4.82-.65-.89-1.29-1.79-1.96-2.71q-1.53-2.31-1.53-3.96Z"/>
  <path class="st25" d="M25.27,52.69l1.99.82c-2.63,3.52-5.26,7.04-7.97,10.67q-1-3.28.43-5.4c.66-.72,1.32-1.45,2-2.19.66-.73,1.31-1.46,1.99-2.22.51-.55,1.03-1.11,1.56-1.68Z"/>
  <path class="st7" d="M735.53,106.84v4.1q-2.99.82-5.17.05c-.6-.29-1.19-.58-1.81-.87q3.81-3.28,6.97-3.28Z"/>
  <path class="st12" d="M709.63,235.66q1.99,2.46,1.99,5.74h1.99v1.64c-1.64.54-3.29,1.08-4.98,1.64.33-2.98.66-5.96,1-9.03Z"/>
  <path class="st15" d="M611.01,67.46c.66.81,1.31,1.62,1.99,2.46h-1.99c-.33.54-.66,1.08-1,1.64-1.97.6-3.96,1.15-5.98,1.64l6.97-5.74ZM602.04,73.2c.66.27,1.31.54,1.99.82h-2.99l1-.82Z"/>
  <path class="st58" d="M592.08,293.1c1.21,3,.64,3.8-1,6.56-.66.54-1.31,1.08-1.99,1.64q-2.12-.31-3.98-.82c.99-.27,1.97-.54,2.99-.82q1.12-1.5,1.99-3.28l1.99-3.28Z"/>
  <path class="st86" d="M470.55,98.64l3.98,1.64v2.46h-8.97c1.99-.82,3.98-1.64,5.98-2.46l-1-1.64Z"/>
  <path class="st16" d="M295.23,512.17h17.93v.82c-2.05.16-4.11.31-6.16.46-1.14.09-2.29.17-3.47.26-3.01.09-5.4-.11-8.3-.72v-.82Z"/>
  <path class="st72" d="M501.43,369.4h1v10.67c-.99-.27-1.97-.54-2.99-.82.66-3.25,1.31-6.5,1.99-9.85Z"/>
  <path class="st37" d="M629.94,149.51l3.98,1.64v2.46c-2.3-.81-4.6-1.62-6.97-2.46.99-.54,1.97-1.08,2.99-1.64Z"/>
  <path class="st11" d="M653.84,80.58c.99.27,1.97.54,2.99.82v2.46h-4.98v-2.46l1.99-.82Z"/>
  <path class="st14" d="M629.94,512.17h11.95v.82c-4.32.76-7.64.76-11.95,0v-.82Z"/>
  <path class="st8" d="M870.01,307.86c2.08,3.43,2.16,3.94,1,7.38h-1v-7.38Z"/>
  <path class="st83" d="M140.83,512.17h8.97v.82h-8.97v-.82Z"/>
  <path class="st39" d="M595.07,512.17h6.97v.82h-6.97v-.82Z"/>
  <path class="st21" d="M531.32,512.17h6.97v.82h-6.97v-.82Z"/>
  <path class="st69" d="M510.4,512.17h6.97v.82h-6.97v-.82Z"/>
  <path class="st45" d="M870.01,357.92h1v5.74h-1v-5.74Z"/>
  <path class="st77" d="M870.01,179.87h1v5.74h-1v-5.74Z"/>
  <path class="st46" d="M-.63,403.04H.37v4.92h-1v-4.92Z"/>
  <path class="st21" d="M363.96,512.17h4.98v.82h-4.98v-.82Z"/>
  <path class="st62" d="M870.01,384.99h1v4.1h-1v-4.1Z"/>
  <path class="st10" d="M870.01,377.61h1v4.1h-1v-4.1Z"/>
  <path class="st53" d="M870.01,279.97h1v4.1h-1v-4.1Z"/>
  <path class="st41" d="M870.01,265.2h1v4.1h-1v-4.1Z"/>
  <path class="st1" d="M870.01,234.02h1v4.1h-1v-4.1Z"/>
  <path class="st27" d="M870.01,168.38h1v4.1h-1v-4.1Z"/>
  <path class="st20" d="M870.01,142.12h1v4.1h-1v-4.1Z"/>
  <path class="st13" d="M614,512.17l3.98.82-3.98-.82Z"/>
  <path class="st76" d="M132.86,512.17l3.98.82-3.98-.82Z"/>
  <path class="st29" d="M870.01,348.07l1,3.28-1-3.28Z"/>
  <path class="st1" d="M870.01,293.92l1,3.28-1-3.28Z"/>
  <path class="st81" d="M870.01,223.35l1,3.28-1-3.28Z"/>
  <path class="st52" d="M870.01,212.69l1,3.28-1-3.28Z"/>
  <path class="st43" d="M870.01,133.92l1,3.28-1-3.28Z"/>
  <path class="st59" d="M581.12,512.17l2.99.82-2.99-.82Z"/>
  <path class="st75" d="M549.25,512.17l2.99.82-2.99-.82Z"/>
  <path class="st85" d="M479.52,512.17l2.99.82-2.99-.82Z"/>
  <path class="st74" d="M291.25,512.17l2.99.82-2.99-.82Z"/>
  <path class="st13" d="M219.52,512.17l2.99.82-2.99-.82Z"/>
  <path class="st36" d="M124.89,511.35h1.99c-.33.54-.66,1.08-1,1.64l-1-1.64Z"/>
  <path class="st68" d="M118.91,510.53l2.99.82-2.99-.82Z"/>
  <path class="st9" d="M75.08,499.04l2.99.82-2.99-.82Z"/>
  <path class="st30" d="M62.13,491.66l1,1.64c-.66-.27-1.31-.54-1.99-.82l1-.82Z"/>
  <path class="st30" d="M-74.34-162.28"/>
  <path class="st30" d="M-74.34-162.28"/>
  <path class="st30" d="M-74.34-162.28"/>
  <path class="st30" d="M-74.34-162.28"/>
  <path class="st30" d="M-74.34-162.28"/>
  <path class="st30" d="M-74.34-162.28"/>
  <path class="st30" d="M-74.34-162.28"/>
  <path class="st30" d="M-74.34-162.28"/>
  <path class="st30" d="M-74.34-162.28"/>
  <path class="st30" d="M-74.34-162.28"/>
  <path class="st30" d="M-74.34-162.28"/>
  <path class="st48" d="M762.42,4.28l2.99.82-2.99-.82Z"/>
  <path class="st22" d="M116.92,1.82l2.99.82-2.99-.82Z"/>
  <path class="st73" d="M130.87,512.99l1.99.82-1.99-.82Z"/>
  <path class="st73" d="M-74.34-162.28"/>
  <path class="st64" d="M734.53,512.17l1.99.82-1.99-.82Z"/>
  <path class="st31" d="M709.63,512.17l1.99.82-1.99-.82Z"/>
  <path class="st16" d="M626.95,512.17l1.99.82-1.99-.82Z"/>
  <path class="st59" d="M590.09,512.17l1.99.82-1.99-.82Z"/>
  <path class="st65" d="M337.07,512.17l1.99.82-1.99-.82Z"/>
  <path class="st44" d="M167.72,512.17l1.99.82-1.99-.82Z"/>
  <path class="st19" d="M164.73,512.17l1.99.82-1.99-.82Z"/>
  <path class="st5" d="M748.48,510.53l1.99.82-1.99-.82Z"/>
  <path class="st63" d="M110.94,509.71l1.99.82-1.99-.82Z"/>
  <path class="st63" d="M-74.34-162.28"/>
  <path class="st57" d="M797.29,496.58l1.99.82-1.99-.82Z"/>
  <path class="st49" d="M805.26,492.48l1.99.82-1.99-.82Z"/>
  <path class="st49" d="M-74.34-162.28"/>
  <path class="st70" d="M863.03,433.4l1.99.82-1.99-.82Z"/>
  <path class="st70" d="M-74.34-162.28"/>
  <path class="st70" d="M-74.34-162.28"/>
  <path class="st70" d="M-74.34-162.28"/>
  <path class="st70" d="M-74.34-162.28"/>
  <path class="st70" d="M-74.34-162.28"/>
  <path class="st70" d="M-74.34-162.28"/>
  <path class="st70" d="M-74.34-162.28"/>
  <path class="st70" d="M-74.34-162.28"/>
  <path class="st70" d="M-74.34-162.28"/>
  <path class="st70" d="M-74.34-162.28"/>
  <path class="st70" d="M-74.34-162.28"/>
  <path class="st90" d="M-1.62,227.45l1.99.82-1.99-.82Z"/>
  <path class="st90" d="M-74.34-162.28"/>
  <path class="st90" d="M-74.34-162.28"/>
  <path class="st90" d="M-74.34-162.28"/>
  <path class="st90" d="M-74.34-162.28"/>
  <path class="st90" d="M-74.34-162.28"/>
  <path class="st90" d="M-74.34-162.28"/>
  <path class="st90" d="M-74.34-162.28"/>
  <path class="st90" d="M-74.34-162.28"/>
  <path class="st90" d="M-74.34-162.28"/>
  <path class="st90" d="M-74.34-162.28"/>
  <path class="st90" d="M-74.34-162.28"/>
  <path class="st90" d="M-74.34-162.28"/>
  <path class="st0" d="M777.37,8.38l1.99.82-1.99-.82Z"/>
  <path class="st26" d="M750.47,1.82l1.99.82-1.99-.82Z"/>
  <path class="st38" d="M336.07-.65l1.99.82-1.99-.82Z"/>
  <path class="st38" d="M-74.34-162.28"/>
  <path class="st38" d="M-74.34-162.28"/>
  <path class="st38" d="M-74.34-162.28"/>
  <path class="st38" d="M-74.34-162.28"/>
  <path class="st38" d="M-74.34-162.28"/>
  <path class="st38" d="M-74.34-162.28"/>
  <path class="st38" d="M-74.34-162.28"/>
  <path class="st38" d="M-74.34-162.28"/>
  <path class="st38" d="M-74.34-162.28"/>
  <path class="st38" d="M-74.34-162.28"/>
  <path class="st38" d="M-74.34-162.28"/>
  <path class="st38" d="M-74.34-162.28"/>
  <path class="st38" d="M-74.34-162.28"/>
  <path class="st38" d="M-74.34-162.28"/>
  <path class="st38" d="M-74.34-162.28"/>
  <path class="st38" d="M-74.34-162.28"/>
  <path class="st38" d="M-74.34-162.28"/>
  <path class="st38" d="M-74.34-162.28"/>
  <path class="st38" d="M-74.34-162.28"/>
  <path class="st38" d="M-74.34-162.28"/>
  <path class="st38" d="M-74.34-162.28"/>
  <path class="st38" d="M-74.34-162.28"/>
  <path class="st38" d="M-74.34-162.28"/>
  <path class="st38" d="M-74.34-162.28"/>
  <path class="st38" d="M-74.34-162.28"/>
  <path class="st38" d="M-74.34-162.28"/>
  <path class="st38" d="M-74.34-162.28"/>
  <path class="st38" d="M-74.34-162.28"/>
  <path class="st38" d="M-74.34-162.28"/>
  <path class="st38" d="M-74.34-162.28"/>
  <path class="st38" d="M-74.34-162.28"/>
  <path class="st38" d="M-74.34-162.28"/>
  <path class="st38" d="M-74.34-162.28"/>
  <path class="st38" d="M-74.34-162.28"/>
  <path class="st38" d="M-74.34-162.28"/>
  <path class="st38" d="M-74.34-162.28"/>
  <path class="st38" d="M-74.34-162.28"/>
  <path class="st38" d="M-74.34-162.28"/>
  <path class="st38" d="M-74.34-162.28"/>
  <path class="st38" d="M-74.34-162.28"/>
  <path class="st38" d="M-74.34-162.28"/>
  <path class="st38" d="M-74.34-162.28"/>
  <path class="st38" d="M-74.34-162.28"/>
  <path class="st38" d="M-74.34-162.28"/>
  <path class="st38" d="M-74.34-162.28"/>
  <path class="st38" d="M-74.34-162.28"/>
  <path class="st38" d="M-74.34-162.28"/>
  <path class="st38" d="M-74.34-162.28"/>
  <path class="st38" d="M-74.34-162.28"/>
  <path class="st38" d="M-74.34-162.28"/>
  <path class="st38" d="M-74.34-162.28"/>
  <path class="st38" d="M-74.34-162.28"/>
  <path class="st38" d="M-74.34-162.28"/>
  <path class="st38" d="M-74.34-162.28"/>
  <path class="st38" d="M-74.34-162.28"/>
  <path class="st38" d="M-74.34-162.28"/>
  <path class="st38" d="M-74.34-162.28"/>
  <path class="st38" d="M-74.34-162.28"/>
  <path class="st38" d="M-74.34-162.28"/>
  <path class="st38" d="M-74.34-162.28"/>
  <path class="st38" d="M-74.34-162.28"/>
  <path class="st38" d="M-74.34-162.28"/>
  <path class="st38" d="M-74.34-162.28"/>
  <path class="st38" d="M-74.34-162.28"/>
  <path class="st38" d="M-74.34-162.28"/>
  <path class="st38" d="M-74.34-162.28"/>
  <path class="st38" d="M-74.34-162.28"/>
  <path class="st38" d="M-74.34-162.28"/>
  <path class="st38" d="M-74.34-162.28"/>
  <path class="st38" d="M-74.34-162.28"/>
  <path class="st38" d="M-74.34-162.28"/>
  <path class="st38" d="M-74.34-162.28"/>
  <path class="st38" d="M-74.34-162.28"/>
  <path class="st38" d="M-74.34-162.28"/>
  <path class="st38" d="M-74.34-162.28"/>
  <path class="st38" d="M-74.34-162.28"/>
  <path class="st38" d="M-74.34-162.28"/>
  <path class="st38" d="M-74.34-162.28"/>
  <path class="st38" d="M-74.34-162.28"/>
  <path class="st38" d="M-74.34-162.28"/>
  <path class="st38" d="M-74.34-162.28"/>
  <path class="st38" d="M-74.34-162.28"/>
  <path class="st38" d="M-74.34-162.28"/>
  <path class="st38" d="M-74.34-162.28"/>
  <path class="st38" d="M-74.34-162.28"/>
  <path class="st38" d="M-74.34-162.28"/>
  <path class="st38" d="M-74.34-162.28"/>
  <path class="st38" d="M-74.34-162.28"/>
  <path class="st38" d="M-74.34-162.28"/>
  <path class="st38" d="M-74.34-162.28"/>
  <path class="st38" d="M-74.34-162.28"/>
  <path class="st38" d="M-74.34-162.28"/>
  <path class="st38" d="M-74.34-162.28"/>
  <path class="st38" d="M-74.34-162.28"/>
  <path class="st38" d="M-74.34-162.28"/>
  <path class="st38" d="M-74.34-162.28"/>
  <path class="st38" d="M-74.34-162.28"/>
  <path class="st38" d="M-74.34-162.28"/>
  <path class="st38" d="M-74.34-162.28"/>
  <path class="st38" d="M-74.34-162.28"/>
  <path class="st38" d="M-74.34-162.28"/>
  <path class="st38" d="M-74.34-162.28"/>
  <path class="st38" d="M-74.34-162.28"/>
  <path class="st38" d="M-74.34-162.28"/>
  <path class="st38" d="M-74.34-162.28"/>
  <path class="st38" d="M-74.34-162.28"/>
  <path class="st38" d="M-74.34-162.28"/>
  <path class="st38" d="M-74.34-162.28"/>
  <path class="st38" d="M-74.34-162.28"/>
  <path class="st38" d="M-74.34-162.28"/>
  <path class="st38" d="M-74.34-162.28"/>
  <path class="st38" d="M-74.34-162.28"/>
  <path class="st38" d="M-74.34-162.28"/>
  <path class="st38" d="M-74.34-162.28"/>
  <path class="st38" d="M-74.34-162.28"/>
  <path class="st38" d="M-74.34-162.28"/>
  <path class="st38" d="M-74.34-162.28"/>
  <path class="st38" d="M-74.34-162.28"/>
  <path class="st38" d="M-74.34-162.28"/>
  <path class="st38" d="M-74.34-162.28"/>
  <path class="st38" d="M-74.34-162.28"/>
  <path class="st38" d="M-74.34-162.28"/>
  <path class="st38" d="M-74.34-162.28"/>
  <path class="st38" d="M-74.34-162.28"/>
  <path class="st38" d="M-74.34-162.28"/>
  <path class="st38" d="M-74.34-162.28"/>
  <path class="st38" d="M-74.34-162.28"/>
  <path class="st38" d="M-74.34-162.28"/>
  <path class="st38" d="M-74.34-162.28"/>
  <path class="st38" d="M-74.34-162.28"/>
  <path class="st38" d="M-74.34-162.28"/>
  <path class="st38" d="M-74.34-162.28"/>
  <path class="st38" d="M-74.34-162.28"/>
  <path class="st38" d="M-74.34-162.28"/>
  <path class="st38" d="M-74.34-162.28"/>
  <path class="st38" d="M-74.34-162.28"/>
  <path class="st38" d="M-74.34-162.28"/>
  <path class="st38" d="M-74.34-162.28"/>
  <path class="st38" d="M-74.34-162.28"/>
  <path class="st38" d="M-74.34-162.28"/>
  <path class="st38" d="M-74.34-162.28"/>
  <path class="st38" d="M-74.34-162.28"/>
  <path class="st38" d="M-74.34-162.28"/>
  <path class="st38" d="M-74.34-162.28"/>
  <path class="st38" d="M-74.34-162.28"/>
  <path class="st38" d="M-74.34-162.28"/>
  <path class="st38" d="M-74.34-162.28"/>
  <path class="st38" d="M-74.34-162.28"/>
  <path class="st38" d="M-74.34-162.28"/>
  <path class="st38" d="M-74.34-162.28"/>
  <path class="st38" d="M-74.34-162.28"/>
  <path class="st38" d="M-74.34-162.28"/>
  <path class="st38" d="M-74.34-162.28"/>
  <path class="st38" d="M-74.34-162.28"/>
  <path class="st38" d="M-74.34-162.28"/>
  <path class="st38" d="M-74.34-162.28"/>
  <path class="st38" d="M-74.34-162.28"/>
  <path class="st38" d="M-74.34-162.28"/>
  <path class="st38" d="M-74.34-162.28"/>
  <path class="st38" d="M-74.34-162.28"/>
  <path class="st38" d="M-74.34-162.28"/>
  <path class="st38" d="M-74.34-162.28"/>
  <path class="st38" d="M-74.34-162.28"/>
  <path class="st38" d="M-74.34-162.28"/>
  <path class="st38" d="M-74.34-162.28"/>
  <path class="st38" d="M-74.34-162.28"/>
  <path class="st38" d="M-74.34-162.28"/>
  <path class="st38" d="M-74.34-162.28"/>
  <path class="st38" d="M-74.34-162.28"/>
  <path class="st38" d="M-74.34-162.28"/>
  <path class="st38" d="M-74.34-162.28"/>
  <path class="st38" d="M-74.34-162.28"/>
  <path class="st38" d="M-74.34-162.28"/>
  <path class="st38" d="M-74.34-162.28"/>
  <path class="st38" d="M-74.34-162.28"/>
  <path class="st38" d="M-74.34-162.28"/>
  <path class="st38" d="M-74.34-162.28"/>
  <path class="st38" d="M-74.34-162.28"/>
  <path class="st38" d="M-74.34-162.28"/>
  <path class="st38" d="M-74.34-162.28"/>
  <path class="st38" d="M-74.34-162.28"/>
  <path class="st38" d="M-74.34-162.28"/>
  <path class="st38" d="M-74.34-162.28"/>
  <path class="st38" d="M-74.34-162.28"/>
  <path class="st38" d="M-74.34-162.28"/>
  <path class="st38" d="M-74.34-162.28"/>
  <path class="st38" d="M-74.34-162.28"/>
  <path class="st38" d="M-74.34-162.28"/>
  <path class="st38" d="M-74.34-162.28"/>
  <path class="st38" d="M-74.34-162.28"/>
  <path class="st38" d="M-74.34-162.28"/>
  <path class="st38" d="M-74.34-162.28"/>
  <path class="st38" d="M-74.34-162.28"/>
  <path class="st38" d="M-74.34-162.28"/>
  <path class="st38" d="M-74.34-162.28"/>
  <path class="st38" d="M-74.34-162.28"/>
  <path class="st38" d="M-74.34-162.28"/>
  <path class="st38" d="M-74.34-162.28"/>
  <path class="st38" d="M-74.34-162.28"/>
  <path class="st38" d="M-74.34-162.28"/>
  <path class="st38" d="M-74.34-162.28"/>
  <path class="st38" d="M-74.34-162.28"/>
  <path class="st38" d="M-74.34-162.28"/>
  <path class="st38" d="M-74.34-162.28"/>
  <path class="st38" d="M-74.34-162.28"/>
  <path class="st38" d="M-74.34-162.28"/>
  <path class="st38" d="M-74.34-162.28"/>
  <path class="st38" d="M-74.34-162.28"/>
  <path class="st38" d="M-74.34-162.28"/>
  <path class="st38" d="M-74.34-162.28"/>
  <path class="st38" d="M-74.34-162.28"/>
  <path class="st38" d="M-74.34-162.28"/>
  <path class="st38" d="M-74.34-162.28"/>
  <path class="st38" d="M-74.34-162.28"/>
  <path class="st38" d="M-74.34-162.28"/>
  <path class="st38" d="M-74.34-162.28"/>
  <path class="st38" d="M-74.34-162.28"/>
  <path class="st38" d="M-74.34-162.28"/>
  <path class="st38" d="M-74.34-162.28"/>
  <path class="st38" d="M-74.34-162.28"/>
  <path class="st38" d="M-74.34-162.28"/>
  <path class="st38" d="M-74.34-162.28"/>
  <path class="st38" d="M-74.34-162.28"/>
  <path class="st38" d="M-74.34-162.28"/>
  <path class="st38" d="M-74.34-162.28"/>
  <path class="st38" d="M-74.34-162.28"/>
  <path class="st38" d="M-74.34-162.28"/>
  <path class="st38" d="M-74.34-162.28"/>
  <path class="st38" d="M-74.34-162.28"/>
  <path class="st38" d="M-74.34-162.28"/>
  <path class="st38" d="M-74.34-162.28"/>
  <path class="st38" d="M-74.34-162.28"/>
  <path class="st38" d="M-74.34-162.28"/>
  <path class="st38" d="M-74.34-162.28"/>
  <path class="st38" d="M-74.34-162.28"/>
  <path class="st38" d="M-74.34-162.28"/>
  <path class="st38" d="M-74.34-162.28"/>
  <path class="st38" d="M-74.34-162.28"/>
  <path class="st38" d="M-74.34-162.28"/>
  <path class="st38" d="M-74.34-162.28"/>
  <path class="st38" d="M-74.34-162.28"/>
  <path class="st38" d="M-74.34-162.28"/>
  <path class="st38" d="M-74.34-162.28"/>
  <path class="st38" d="M-74.34-162.28"/>
  <path class="st38" d="M-74.34-162.28"/>
  <path class="st38" d="M-74.34-162.28"/>
  <path class="st38" d="M-74.34-162.28"/>
  <path class="st38" d="M-74.34-162.28"/>
  <path class="st38" d="M-74.34-162.28"/>
  <path class="st38" d="M-74.34-162.28"/>
  <path class="st38" d="M-74.34-162.28"/>
  <path class="st38" d="M-74.34-162.28"/>
  <path class="st38" d="M-74.34-162.28"/>
  <path class="st38" d="M-74.34-162.28"/>
  <path class="st38" d="M-74.34-162.28"/>
  <path class="st38" d="M-74.34-162.28"/>
  <path class="st38" d="M-74.34-162.28"/>
  <path class="st38" d="M-74.34-162.28"/>
  <path class="st38" d="M-74.34-162.28"/>
  <path class="st38" d="M-74.34-162.28"/>
  <path class="st38" d="M-74.34-162.28"/>
  <path class="st38" d="M-74.34-162.28"/>
  <path class="st38" d="M-74.34-162.28"/>
  <path class="st38" d="M-74.34-162.28"/>
  <path class="st38" d="M-74.34-162.28"/>
  <path class="st38" d="M-74.34-162.28"/>
  <path class="st38" d="M-74.34-162.28"/>
  <path class="st38" d="M-74.34-162.28"/>
  <path class="st38" d="M-74.34-162.28"/>
  <path class="st38" d="M-74.34-162.28"/>
  <path class="st38" d="M-74.34-162.28"/>
  <path class="st38" d="M-74.34-162.28"/>
  <path class="st38" d="M-74.34-162.28"/>
  <path class="st38" d="M-74.34-162.28"/>
  <path class="st38" d="M-74.34-162.28"/>
  <path class="st38" d="M-74.34-162.28"/>
  <path class="st38" d="M-74.34-162.28"/>
  <path class="st38" d="M-74.34-162.28"/>
  <path class="st38" d="M-74.34-162.28"/>
  <path class="st38" d="M-74.34-162.28"/>
  <path class="st38" d="M-74.34-162.28"/>
  <path class="st38" d="M-74.34-162.28"/>
  <path class="st38" d="M-74.34-162.28"/>
  <path class="st38" d="M-74.34-162.28"/>
  <path class="st38" d="M-74.34-162.28"/>
  <path class="st38" d="M-74.34-162.28"/>
  <path class="st38" d="M-74.34-162.28"/>
  <path class="st38" d="M-74.34-162.28"/>
  <path class="st38" d="M-74.34-162.28"/>
  <path class="st38" d="M-74.34-162.28"/>
  <path class="st38" d="M-74.34-162.28"/>
  <path class="st38" d="M-74.34-162.28"/>
  <path class="st38" d="M-74.34-162.28"/>
  <path class="st38" d="M-74.34-162.28"/>
  <path class="st38" d="M-74.34-162.28"/>
  <path class="st38" d="M-74.34-162.28"/>
  <path class="st38" d="M-74.34-162.28"/>
  <path class="st38" d="M-74.34-162.28"/>
  <path class="st38" d="M-74.34-162.28"/>
  <path class="st38" d="M-74.34-162.28"/>
  <path class="st38" d="M-74.34-162.28"/>
  <path class="st38" d="M-74.34-162.28"/>
  <path class="st38" d="M-74.34-162.28"/>
  <path class="st38" d="M-74.34-162.28"/>
  <path class="st38" d="M-74.34-162.28"/>
  <path class="st38" d="M-74.34-162.28"/>
  <path class="st38" d="M-74.34-162.28"/>
  <path class="st38" d="M-74.34-162.28"/>
  <path class="st38" d="M-74.34-162.28"/>
  <path class="st38" d="M-74.34-162.28"/>
  <path class="st38" d="M-74.34-162.28"/>
</svg>