<?xml version="1.0" encoding="UTF-8"?>
<svg id="main" xmlns="http://www.w3.org/2000/svg" version="1.1" viewBox="0 0 872 514">
  <!-- Generator: Adobe Illustrator 29.8.1, SVG Export Plug-In . SVG Version: 2.1.1 Build 2)  -->
  <defs>
    <style>
      .st0 {
        fill: #fff;
      }

      .st1 {
        fill: #2c1e6c;
      }
    </style>
  </defs>
  <rect class="st1" width="872" height="514" rx="125" ry="125"/>
  <path class="st0" d="M51.29,241.25l11.09,6,6.65-8.09,5.09-2.35s5.22-1.04,5.61-1.04,4.83,1.3,4.83,1.3l3.78,3.78v12.78l-10.7-.78s-6.26.39-7.83.78-4.43,1.3-5.87,1.83-4.43,1.3-5.61,2.09-2.74,1.7-3.52,2.74-2.87,3.26-2.87,3.26l-2.61,3.52s-1.04,3.13-1.04,3.78.26,2.35,0,3.78.13,3.26,0,4.3,1.43,6,1.43,6c0,0,2.09,3,2.61,3.91s3.39,2.87,4.04,3.26,4.17,2.61,4.17,2.61l6,1.7h6.13l6.13-.78,4.17-2.09,5.35-3.65,4.43-4.96v10.04l13.7.13v-55.17l-3.39-8.22-4.04-3.39-4.96-3.26-6.26-1.7h-15.78l-6.52,2.48-4.7,3-4.57,4.43-4.96,7.96Z"/>
  <path class="st1" d="M89.7,263.88l-.33,8.74-2.74,4.37-3.91,3.91-4.04,2.28s-4.96.26-5.15.26-4.17-.98-4.17-.98l-3.65-4.17-.46-6,1.5-3.07,3.26-2.41,3.46-1.96,2.61-.98h13.63Z"/>
  <polygon class="st0" points="146.08 225.27 146.08 235.15 113.31 235.15 113.31 227.13 131.61 206.49 132.97 203.26 133.17 200.72 132.09 198.66 129.7 197.58 126.81 197.58 123.09 198.56 120.36 201.4 118.2 203.45 111.16 199.54 115.37 193.28 118.79 190.25 122.51 188.19 125.83 187.31 130.24 187.31 134.34 188.1 137.47 189.76 139.43 191.72 141.78 195.24 142.66 198.37 142.95 202.18 142.66 205.61 139.24 211.23 127.89 224.68 127.59 225.17 146.08 225.27"/>
  <polygon class="st0" points="329.65 225.27 329.65 235.15 296.88 235.15 296.88 227.13 315.18 206.49 316.55 203.26 316.74 200.72 315.66 198.66 313.27 197.58 310.38 197.58 306.66 198.56 303.93 201.4 301.77 203.45 294.73 199.54 298.94 193.28 302.36 190.25 306.08 188.19 309.4 187.31 313.81 187.31 317.91 188.1 321.05 189.76 323 191.72 325.35 195.24 326.23 198.37 326.52 202.18 326.23 205.61 322.81 211.23 311.46 224.68 311.16 225.17 329.65 225.27"/>
  <polygon class="st0" points="486.57 225.27 486.57 235.15 453.8 235.15 453.8 227.13 472.09 206.49 473.46 203.26 473.65 200.72 472.58 198.66 470.18 197.58 467.3 197.58 463.58 198.56 460.84 201.4 458.69 203.45 451.64 199.54 455.85 193.28 459.27 190.25 462.99 188.19 466.32 187.31 470.72 187.31 474.83 188.1 477.96 189.76 479.91 191.72 482.26 195.24 483.14 198.37 483.44 202.18 483.14 205.61 479.72 211.23 468.37 224.68 468.08 225.17 486.57 225.27"/>
  <polygon class="st0" points="181.3 225.63 181.3 247.93 159 247.93 159 260.85 181.3 260.85 181.3 282.17 194.8 282.17 194.8 259.9 216.91 259.9 216.91 247.93 194.61 247.54 194.41 225.63 181.3 225.63"/>
  <rect class="st0" x="339.91" y="235.15" width="42.85" height="9.39"/>
  <rect class="st0" x="339.91" y="258.63" width="42.85" height="9.39"/>
  <polygon class="st0" points="237.06 190.08 253.76 190.08 251.67 235.15 259.37 227.72 267.97 223.61 276.19 223.41 284.02 225.63 289.3 231.24 293.41 238.48 295.95 247.08 295.95 266.45 291.45 279.76 284.8 287.58 274.24 295.22 264.26 296.78 258 295.8 251.93 291.69 248.61 288.17 245.47 292.87 243.52 294.63 231.97 294.63 237.06 190.08"/>
  <polygon class="st1" points="251.74 250.02 250.37 275.06 253.3 279.76 258.78 282.17 266.61 282.17 271.5 278.78 276 271.74 277.76 266.1 277.76 250.02 276.58 244.54 273.65 239.85 268.56 238.08 262.89 238.08 257.8 241.8 253.89 246.3 251.74 250.02"/>
  <polygon class="st0" points="451.64 239.52 438.39 247.22 434.47 240.43 429.52 237.69 424.82 237.69 420.26 238.74 415.17 244.22 412.95 249.43 411.91 256.67 411.91 266.13 412.82 272.52 415.17 276.69 419.61 281 425.47 282.3 429.91 282.3 435.39 279.17 438.39 274.48 439.69 272.39 451.64 276.43 450.91 281.39 447.91 286.22 443.08 290.52 437.47 294.56 430.56 296.26 419.47 296.26 412.56 293.91 406.43 290.13 401.21 285.56 396.91 278.91 394.04 268.87 394.04 253.08 395.87 245.78 399.65 238.35 403.43 233.39 410.21 227.52 418.43 224 424.69 224 434.21 224 439.3 225.3 443.34 228.43 447.91 233.39 451.64 239.52"/>
  <polygon class="st0" points="537 104.85 524.34 116.72 517.3 124.54 510.26 136.02 504.78 131.06 503.21 116.72 508.43 94.54 537 104.85"/>
  <polygon class="st0" points="505.17 62.58 524.61 62.58 538.17 66.24 550.43 71.19 556.43 76.41 562.56 85.54 570.39 97.67 558.13 97.67 541.17 96.11 530.61 92.19 519.13 85.67 511.3 78.37 506.34 69.63 505.17 62.58"/>
  <path class="st0" d="M540.71,119.13l14.22,3.65,18,3.13s18-.91,18.39-.91,22.3-5.22,22.3-5.22l12.65-6.52,2.48-2.74-3-9.91-8.22-12.78-12.52-12.39-14.74-9.13-10.3-4.43-10.17-1.57h-4.17l2.35,7.17,7.43,12.65,7.57,9,7.57,6.26,6.39,5.48,2.09,4.3-15.26.78-9.65.26-11.35,2.61-9,2.61s-6.39,3-6.78,3.26-4.04,2.22-4.04,2.22l-2.22,2.22Z"/>
  <polygon class="st0" points="664.3 125.91 651.39 124.15 632.21 124.15 622.56 126.76 616.17 130.28 620.34 133.67 635.87 139.02 647.34 141.89 661.56 143.98 677.08 143.19 687 140.58 693.65 137.98 694.82 135.89 694.17 126.89 692.21 117.37 687.26 109.15 679.04 98.98 666.52 87.63 658.04 82.67 648.39 78.37 641.34 75.76 637.3 75.76 637.82 84.24 640.3 92.06 644.08 99.5 649.43 106.02 654.26 110.98 659.87 117.24 662.61 120.37 664.3 122.98 664.3 125.91"/>
  <polygon class="st0" points="685.95 150.24 694.82 163.41 705.13 173.58 713.74 179.06 723.78 182.19 737.47 183.89 752.87 185.98 753.78 177.5 753.13 163.02 751.04 154.54 748.04 145.28 742.43 134.19 734.87 122.32 729.65 117.24 719.87 109.87 715.82 108.24 711.39 107.06 709.3 107.06 708.13 115.02 708.91 127.93 712.69 138.11 718.17 147.5 721.56 152.45 722.74 155.32 716.34 154.28 708 152.06 702.13 150.63 696 149.72 690.78 149.98 685.95 150.24"/>
  <path class="st0" d="M757.89,142.93l-.98-11.45-4.7-17.32-10.66-21.33-6.75-8.02-22.89-21.91-18.39-12.62-19.73-9.95-24.26-6.26-17.74-2.09h-25.96l-21.1,3.13-16.21,3.65-13.3,5.09-10.17,3.91-9.13,5.09-4.04,2.09,18.13.39.65-7.57,9.65-1.17,10.08,1.04,9.75,2.61,12,4.7,8.61,5.35,9.91,6.39,8.09,6.78,5.74,6.65,2.74,3.65.65-23.48,7.96.52,11.87,3.52,10.3,5.09,9.39,6.33,9.91,7.11s6.26,5.74,6.52,6.13,4.43,3.78,5.87,5.54,4.3,4.63,4.57,5.15,3,3.13,3.13,3.52,2.09-.13,2.09-.13l5.87-14.22,9.91,3.52,10.04,7.04s8.35,7.7,8.35,7.63,6.65,6.85,6.91,7.24,4.96,7.3,4.96,7.3l8.25,16.04,2.05,4.17,2.05,1.11Z"/>
  <path class="st0" d="M521.31,388.61l-15.91,12.52-18,16.17-13.04,18.26-7.04,10.17-11.22,23.74,168.26-1.04,22.7-10.96,17.74-14.87,15.65-15.91,26.35-31.04,22.7-33.65,4.43-8.61,1.3-10.43-2.35-4.96-3.65-3.39-4.17-3.13-4.17-3.39-2.87-3.91-3.65-6.52-1.04-7.3-2.35-4.96-5.48,18.26s-6.52,16.17-7.04,17.22-9.91,14.09-9.91,14.09l-15.91,17.48-10.96,9.13-16.43,9.65-18,7.3-20.35,5.74-17.22,2.87-21.91.26-14.09-1.83-14.09-4.96-10.43-6.26-7.83-5.74Z"/>
  <path class="st0" d="M751.01,343.74s-7.3,18.52-8.09,19.04-12.78,23.22-12.78,23.22l-19.04,24.78-12,14.61-15.13,15.13-12.78,11.74-19.57,16.17,61.83,1.04,14.35-19.04,11.74-21.91,9.65-19.57,6.52-10.17,2.35-1.3,2.61.52,2.35,1.57v4.43l-12.26,32.61-9.91,19.04-9.91,13.83h38.09l6.52-4.17,2.87-4.7,3.13-8.35,3.13-8.35,3.13-9.91,2.87-9.91,2.35-8.09,1.83-9.39v-26.74l-2.22-5.09-4.04-5.22-17.22-14.09-13.3-8.87-5.61-2.87h-1.43Z"/>
  <path class="st0" d="M529.86,127.93l15.07,4.3,17.8,2.74s18.59.59,19.17,0,18.59-.78,18.59-.78l13.3,8.74,11.93,6.13,16.63,4.11,11.54,1.37,11.74.78h8.8s6.46,14.87,6.46,15.46.78,9.39.98,10.37.39,8.8,0,11.54.23,12.13.23,12.13c0,0-2.38,13.89-2.77,15.07s-7.04,25.43-7.04,25.43l-6.85,14.8-5.28,7.7-6.46,9.2-8.82,9-4.29-3.52-9.2-9.39-9-6.46-10.96-6.52-7.43-6.78-5.48-3.72-4.11-2.93-2.74-1.37-2.15.2v3.52l.2,6.26-4.99,2.54-9.68,1.37-12.33-.39-7.04-1.82-3.52-2.48-.2-7.04-.39-14.09,2.93-12.91,3.33-14.48,4.3-18.68.78-10.86-.78-4.7-2.93-2.35-3.52-1.37-3.52-.78h-6.85l-31.3.39v-10.96l2.74-10.17,1.96-5.87,3.13-5.48,2.93-3.13,2.35-2.35,2.74-1.76Z"/>
  <path class="st0" d="M540.94,179.98l-19.57.65-6.39,5.35-1.83,9.65.85,11.35s2.15,11.48,2.41,12.65,1.7,10.04,1.7,11.48.52,8.74.65,9.13.91,18.65.91,18.65c0,0-.39,6.26-.78,7.3s-2.35,7.57-3,9.26-2.35,8.22-2.87,9.65-5.87,21.13-5.87,21.13c0,0-1.04,8.74-1.17,9.13s-1.04,7.43-1.04,8.09,1.57,23.87,1.57,23.87c0,0,2.61,6.39,2.61,6.78s3.39,6.13,3.78,6.78,2.74,3.78,3,4.17,8.87,9.39,9.39,10.04,13.3,9.26,13.7,9.52,10.96,3.65,10.96,3.65l16.43,3.26h11.22l28.17-.91,8.61-1.83,13.7-4.43,13.04-5.22,10.5-6.13,7.63-5.48,9.91-8.74,6.78-7.7,5.35-7.96,5.48-10.17,3.65-7.96,6.39-13.17,4.3-11.61,3.39-12.65,1.04-6.78-.91-30.26,3-2.22,2.35-.39,3.78,3,2.74,2.35,4.83,1.83,5.09-.26,4.43-2.09,3.78-3.78,2.61-2.09,7.43-11.09,4.7-9.91,2.09-7.7v-11.22l-3.39-4.3-4.83-1.83-4.17.65-5.74,3s-6,6.78-6.52,7.17-4.96,5.87-5.22,6.52-1.17,2.22-1.17,2.22l-3.39-.26-1.3-.65-.78-3.65s.65-3.91.65-4.7,1.17-5.87,1.17-5.87l4.3-5.09,7.17-4.57,3.39-1.83,2.22-.78-1.83-1.3-7.57.26s-6.39-1.3-6.78-1.43-7.83-2.35-7.83-2.35l-4.7-2.22-6.52-2.61-3.13-.65s.52,14.87.52,15.26-.13,12.26-.26,12.65-1.7,11.22-1.83,12.13-4.83,17.48-4.83,17.48c0,0-5.48,13.17-5.87,13.96s-5.61,10.96-6,11.61-7.83,12.78-8.35,13.17-4.17,5.22-4.43,5.61-4.17,4.57-4.57,5.22-3.26,2.87-3.78,3.39-3.65,3-4.17,3.39-5.74,5.22-5.74,5.22l-4.04,2.35-1.83,1.24-8.09-13.37-4.57-6-6-6.52-8.61-7.04-7.57-5.87-4.3-4.17-5.54,4.3-5.15,1.83s-3.91.65-4.3.78-3.39.26-4.43.39-4.43.39-4.96.39-4.83-.13-5.61-.13-5.35-.39-6.26-.39-3.91-.13-5.09,0-4.17,0-4.17,0c0,0-1.96-.65-2.61-.78s-3.91-1.83-4.3-1.83-2.74-1.17-2.74-1.17c0,0-1.83-1.17-2.35-1.57s-1.3-1.43-3-3-2.22-3.59-2.87-4.86-.91-9.1-.91-9.1l5.09-22.43,2.87-13.7,2.61-11.74s2.09-7.17,2.22-8.09.52-4.96.52-5.35-.91-2.61-.91-2.61l-3.65-2.87-4.7-.52Z"/>
  <path class="st1" d="M523.2,190.74h17.61l.91,3.13s-.65,3.91-.65,4.3-.65,3.65-.91,4.17-1.17,2.09-1.57,2.87-1.7,2.09-2.22,2.87-1.57,2.35-1.96,2.48-3.26.67-3.26.67c0,0-3,.41-3.39,0s-1.83-.8-1.83-.8l-1.17-3.46s-.39-2.54-.65-3.33-.65-4.83-.91-5.35,0-7.57,0-7.57Z"/>
  <path class="st1" d="M624.75,193.8v4.5l-1.27,5.97s-2.35,2.48-2.45,2.71-4.4,3.36-4.4,3.36c0,0-1.96,1.37-2.54,1.57s-2.05.88-2.45,1.17-1.76,0-1.76,0l-2.25-5.28-1.17-5.09s-.88-3.23-1.08-3.82-.78-3.23-.88-3.72,0-2.54,0-2.54l.68-1.17h17.02l2.54,2.35Z"/>
  <path class="st1" d="M584.74,170.72s-.39,5.58,0,6.07.88,4.21,1.17,4.6,3.72.59,3.72.59c0,0,2.93-.88,3.42-1.08s2.64-.46,3.13-.91,2.84-1.14,3.62-1.14,2.25-.1,3.03-.1,2.45-.1,3.91,0,2.35.2,3.91.29,2.5.2,3.94.29,2.52,0,4.37.2,2.54.42,4.5.46,5.18.72,6.65,1.11,1.37.59,2.84.88,1.76.1,3.42.88,1.66.68,3.23,1.57,1.66,1.57,2.64,1.57,1.37,0,2.93,0,1.76,0,2.93-.49,1.47-.59,2.15-1.37.88-.88.98-2.45,0-2.64-.39-3.33-1.08-1.57-1.66-2.15-.68-.78-1.66-1.66-2.05-1.86-3.03-2.45-2.54-1.57-3.72-1.96-2.54-.88-4.11-1.27-2.74-.78-4.3-.88-2.87-.39-4.17-.29-1.11,0-4.34.1-4.21.39-6.36.68-3.52,0-4.79.39-1.96.39-3.23.59-1.86.2-3.82.29-1.47.29-4.5.1-4.7-.49-6.65-.59-2.84-.39-4.79-.29-3.03-.1-3.82.29-1.17,1.47-1.17,1.47Z"/>
  <path class="st1" d="M555.81,313.38h19.96l2.61,2.48s-.26,1.3,0,2.09,0,2.74,0,2.74c0,0-.13,1.04-.65,1.83s-.91,1.04-1.43,1.43-1.43.52-2.22.78-1.83-.52-3.13,0-.91.52-3.13.52-3.26-1.04-4.3-.52-2.22.52-2.87.52-1.04.26-1.7,0-1.83-.65-2.48-1.3-.91-1.17-1.43-1.83-1.04-1.17-1.04-2.22-.91-2.35,0-3.52,1.83-3,1.83-3Z"/>
  <path class="st1" d="M534.42,308.42l12.52-8.22,6.64-3.65s6.14-.52,6.8-.52,5.35-.13,6.52,0,5.87-.39,7.3,0,3.78.39,5.87.65,3.91.13,5.22.52,1.43,0,3.78,1.3,2.74,1.17,4.96,2.61,3.39,2.09,4.7,2.74,2.09,1.24,3,1.53,1.43,1.4,2.22,0,1.04-2.58,1.04-4.27.52-1.96,0-3.52-.65-2.22-1.43-3.65-.39-1.17-1.57-2.48-1.43-1.43-3-2.61-2.48-2.28-4.83-3.1-2.87-1.21-4.17-1.6-1.7-.65-4.3-.78-4.83-.39-10.83-.52-9.13-.39-12.52,0-4.43.39-7.57.52-4.83-.13-6.65.26-1.96.65-4.3,1.57-8.22,7.96-8.22,7.96c0,0-2.61,5.09-2.61,5.48s-1.04,3.91-1.04,3.91v3.78l2.48,2.09Z"/>
</svg>