<?xml version="1.0" encoding="UTF-8"?>
<svg id="main" xmlns="http://www.w3.org/2000/svg" version="1.1" viewBox="0 0 872 514">
  <!-- Generator: Adobe Illustrator 29.8.1, SVG Export Plug-In . SVG Version: 2.1.1 Build 2)  -->
  <defs>
    <style>
      .st0 {
        fill: #99c0d6;
      }

      .st1 {
        fill: #fff;
      }

      .st2 {
        fill: #80b0cd;
      }
    </style>
  </defs>
  <rect class="st0" width="872" height="514" rx="125" ry="125"/>
  <polygon class="st1" points="59.13 149.99 59.13 249.38 78.96 249.38 78.96 167.72 107.13 167.46 107.13 249.38 126.43 249.38 126.43 149.99 59.13 149.99"/>
  <polygon class="st1" points="208.22 179.72 208.22 249.38 225.82 249.38 246.37 209.46 246.37 249.38 263.78 249.38 263.78 179.72 247.35 179.72 226.22 220.81 225.63 179.72 208.22 179.72"/>
  <path class="st1" d="M139.93,179.72h15.13v7.11l6.26-5.87,6.39-2.61,6.7-.54,6.41.83,6.07,2.59s3.77,3.47,3.96,3.62,3.57,5.43,3.57,5.43l1.96,4.84s1.37,6.51,1.37,6.7v19.48l-1.66,9.49-3.33,8.02-4.7,6.16-6.46,3.62-6.55,1.27-6.21-.51-4.35-1.74-3.23-3.03-3.03-3.03-.2,35.22h-18.1v-97.06Z"/>
  <polygon class="st0" points="167.88 193.44 163.18 195.49 159.56 204.49 158.19 213.98 158.88 222 161.03 228.56 164.46 232.66 170.03 233.94 174.92 231.49 176.88 227.3 178.74 222.2 179.52 215.84 179.52 207.91 178.25 200.77 176 195.78 171.6 193.44 167.88 193.44"/>
  <polygon class="st1" points="277.44 179.72 277.44 249.38 313.84 248.58 318.34 246.43 325.18 241.53 328.71 234.88 328.71 228.82 327.53 220.99 324.4 215.9 320.29 213.69 314.03 212.19 320.49 209.45 323.62 205.93 326.16 200.45 326.16 194.58 323.62 186.16 318.14 182.25 311.68 179.72 277.44 179.72"/>
  <polygon class="st0" points="294.47 192.43 294.47 205.14 305.42 205.14 308.06 203.09 309.04 200.55 309.04 196.73 307.48 194.19 304.15 192.43 294.47 192.43"/>
  <polygon class="st0" points="294.47 219.46 294.47 236.48 306.64 236.48 309.57 233.73 310.66 230.33 310.66 225.22 308.92 221.82 305.22 219.46 294.47 219.46"/>
  <polygon class="st1" points="352.12 180.51 345.6 184.81 340.25 193.29 337.64 199.94 336.47 209.2 336.47 219.46 338.29 231.77 341.68 238.55 348.21 245.99 356.16 250.03 367.9 250.03 377.29 249.38 383.68 246.25 387.99 242.86 391.64 237.77 379.12 229.03 374.68 233.07 370.12 235.68 362.29 235.42 358.9 233.72 355.77 229.03 354.34 224.72 354.21 219.46 390.47 219.46 390.21 201.77 388.64 196.29 384.07 186.9 379.38 182.07 371.29 178.55 364.05 178.55 357.07 179.07 352.12 180.51"/>
  <polygon class="st1" points="787.78 194.15 780.57 212.88 771.32 229.76 762.94 237.3 750.17 240.31 741.92 240.48 739.07 241.08 736.38 252.28 733.88 262.7 731.27 270.26 726.48 280.55 719.66 291.34 712.04 301.2 705.04 309.31 695.13 319.22 686.53 325.46 676.87 331.31 663.75 336.88 653.4 339.87 642.95 342.17 633.14 343.75 623.16 343.75 612.77 342.39 602.05 340.42 592.55 337.42 584.06 334.38 577.11 330.12 572.52 327.31 567.55 321.48 563.28 316.65 558.93 311.75 555.22 306.57 552.1 299.5 549.81 294.28 546.57 286.92 544.25 279.6 540.5 268.95 538.72 258.88 536.54 248.56 534.72 237.93 533.84 228.58 532.85 218.12 532.42 208.82 531.99 195.31 531.64 186.92 530.68 179.63 529.88 173.56 528.71 168.3 528.03 165.56 528.03 149.72 528.16 139.93 528.81 127.86 531.29 119.9 537.15 102.54 539.76 96.87 544.19 88.99 549.1 81.95 555.74 73.69 564.83 64.35 573.2 57.53 582.68 50.17 600.16 42.77 613.7 38.83 628.12 35.97 636.47 35.77 649.77 35.77 662.49 36.24 672.08 37.34 686.06 39.97 694.28 42.12 705.51 46.03 713.98 50.09 722.76 54.3 727.82 58.45 726.86 60.7 725.37 62.51 722.11 66.56 720.03 69.43 719.5 73.21 720.94 79.47 724.9 88.68 728.81 98.66 730.97 108.44 732.94 115.6 733.36 120.21 734.63 134.12 734.62 148.94 733.71 160.88 733.55 174.8 733.46 178.99 735.03 180.69 740.63 182.51 750.17 183.59 755.32 183 758.65 181.2 762.34 178.16 765.29 175.21 770.24 169.47 774.91 165.99 779.6 164.79 783.46 166.47 785.63 168.86 787.59 172.6 788.26 177.39 788.87 183.56 789.16 187.99 787.78 194.15"/>
  <polygon class="st0" points="354.21 206.14 372.66 206.14 372.66 203.72 371.1 197.99 368.49 194.33 364.05 192.51 359.94 193.42 356.55 196.22 355.18 199.88 354.21 206.14"/>
  <polygon class="st1" points="411.21 193.58 411.21 250.03 428.94 250.03 428.94 193.58 446.29 193.58 446.29 179.72 394.25 179.72 394.25 193.58 411.21 193.58"/>
  <polygon class="st1" points="453.79 150.34 456.34 219.41 470.62 219.41 473.36 150.34 453.79 150.34"/>
  <polygon class="st1" points="460.57 230.07 456.47 231.77 453.21 235.62 452.68 240.18 453.79 245.66 456.63 248.99 460.57 250.03 465.34 250.49 469.31 249.18 472.64 246.12 474.34 242.92 474.86 239.01 473.81 235.68 471.21 231.83 467.94 230.07 460.57 230.07"/>
  <path class="st2" d="M398.75,486.87l2.74,3.65,2.87.52,4.43-2.74,2.35-6.26,3.39-11.35,6.78-22.3,9.52-27.26,12.13-17.48,25.83-14.35,16.04-6.65,31.21-12.36-1.37,3.82-5.58,8.9-8.61,11.25s-2.84,5.28-2.84,5.58.88,3.03,1.27,3.52,7.92,2.84,8.61,3.23,4.89,1.47,5.87,2.05,5.77,1.86,5.77,1.86v1.86l-9.68,5.28-14.87,9.1-3.91,3.33-2.93,4.4s-.49,2.54-.29,3.13.59,3.42.98,4.4,3.03,13.21,3.03,13.21l5.09,14.87,8.32,19.08,2.45,3.91,4.79.68,3.42-.49,1.57-1.96.1-4.3-2.84-5.48-14.97-42.36,24.07-15.85,7.63-4.7,2.74-2.93,1.76-3.33v-4.99l-2.54-2.54-18.2-9.78,19.17-20.93,27.2-24.52,5.38,144.16h19.83l28.7-70.57,15.91.52,10.57,70.04h19.57l54.26-108.75,19.04-40.96,9.13-29.74,9.91,9.13,10.7,14.87,8.87,18.78,5.48,15.39,4.17,19.83-22.17,6-14.09,7.3-2.87,4.17,7.57,7.3,10.96,7.57,7.83,5.74,3.13,2.87-38.87,56.87,1.83,3.62h6.78l3.91-3.62,6.78-8.09,33.91-48.78-1.83-4.96-3.65-4.43-19.04-13.57,22.96-6.28,6.07-4.09,1.57-3.78v-17.48l-1.83-8.74-3.13-11.74-5.48-13.3,12.33,5.74,34.83,18.65,14.09,6.52,4.3.78h2.74l1.17-2.61v-3.13l-2.74-4.04-8.09-5.09-21.91-10.96-38.48-18.39-6.65-3.65-18-20.35-7.04-8.35-5.22-5.74-13.5,5.22,1.08,6.55s-.49,8.51-.68,8.8-3.91,12.42-3.91,12.42l-4.4,11.25-9.29,24.16-6.85,12.62-21.82,41.41-8.22-9.59-27.59-32.09-14.67-17.02,24.59-6.46,22.43-9.65,20.09-12.26,20.09-18.26,7.57-10.43-12.78-4.96-11.48,13.3-9.91,9.91-13.3,9.65-13.83,6.78-15.39,4.43-16.96,3.65h-13.83l-17.48-2.61-19.04-6-12.78-7.83-2.35-2.87-19.04,12.78-11.22,9.13-12.78,6.52-17.74,6.78-21.13,7.83-15.13,4.43-14.87,7.3-16.7,9.91-12.52,12.26-8.87,13.83-8.09,18.26-3.91,9.91-5.48,27.13-2.87,10.96-1.08,5.38Z"/>
  <polygon class="st1" points="654.99 402.05 645.3 423.28 652.15 478.55 679.54 430.22 654.99 402.05"/>
  <polygon class="st1" points="579.37 483.93 602.85 421.71 596.59 401.17 577.02 420.34 579.37 483.93"/>
  <polygon class="st1" points="575.26 404.11 616.93 356.76 574.09 342.87 575.26 404.11"/>
  <polygon class="st0" points="626.46 369.57 607.09 390.02 613.54 409.58 636.04 409.58 645.3 390.12 626.46 369.57"/>
  <path class="st2" d="M730.9,299.5h-1.19l-.41,1.47-12.78-4.96,7.76-11.56,3.86-6.85,3.62-8.51,1.61-4.3,5.69-23.71,5.61-1.17,10.96-.65,7.3-1.96,7.83-6.65,5.61-8.87,5.35-11.35,5.22-12.52,2.22-9.91-.52-7.96-1.04-7.43-2.74-5.22-4.17-2.74-4.83.65-5.61,4.17s-4.43,5.22-4.96,5.74l-5.22,5.22s-5.22,2.87-5.87,3.13-7.83-.13-7.83-.13l-5.74-.91-5.61-1.83-1.57-1.7.39-18.91.78-25.96-1.7-18.52-4.7-18.39-7.3-17.74-1.43-6.26.52-3.78,2.09-2.87,3.26-4.04,2.35-2.09.91-1.3-5.87-4.83-21.78-10.43-22.04-5.74-20.48-2.35h-29.35l-19.04,3.78-14.09,4.57-14.35,6.52-18.39,15-10.96,11.74-8.74,12.52-5.61,10.3-6.65,19.7-2.48,7.96-.78,14.61v23.09l1.7,6.78,2.35,17.87-.13,8.35.91,19.57,2.22,23.48,4.96,23.48,6,20.61,10.04,22.83,14.1,15.93-11.33,7.6-8.84-10.42-5.09-6.33-6.39-9.65-5.22-13.7-6.33-22.7-5.22-23.48-1.83-24.26v-28.43l-2.61-20.35-1.3-15.65,1.3-30.78,4.17-23.22,9.39-20.61,8.09-12.26,9.13-9.91,13.83-10.7,20.09-13.83,29.48-9.91,14.61-3.13h51.65l22.17,5.74,22.17,8.61,20.87,15.91,14.61,14.87,11.48,21.13,7.83,22.17,3.91,29.22,1.04,12.78,7.3,3.55,6.75,5.97,3.91,5.58,1.47,4.79.98,5.38v9.68l-1.37,13.01-4.3,9.59-6.75,15.46-7.73,12.33-5.97,4.89-7.63,5.09-6.46,2.35-5.87.98-6.26.1-4.01,14.87-1.79,9.52-.26,5.22-.13,8.09.67,4.68-13.5,5.22Z"/>
  <polygon class="st1" points="748.71 172.16 765.73 155.53 765.73 128.14 762.4 111.12 757.22 95.07 748.71 79.42 739.51 68.27 734.62 74.92 740.49 89.99 745.38 103.68 748.71 120.21 749.29 138.12 748.71 172.16"/>
  <polygon class="st2" points="598.25 306.57 598.25 313.42 604.12 318.12 613.9 318.12 625.64 318.12 629.94 316.75 631.71 312.34 631.71 307.36 628.77 306.57 598.25 306.57"/>
  <polygon class="st2" points="577.12 273.31 574.09 273.31 573.21 278.99 579.27 285.64 587.88 287.79 600.99 287.79 629.36 287.79 647.55 287.79 653.03 285.44 657.73 283.09 659.15 281.14 660.47 276.64 658.31 275.07 654.21 273.31 646.18 276.25 637.18 277.03 594.14 276.64 586.71 276.64 581.23 274.88 579.27 273.31 577.12 273.31"/>
  <path class="st2" d="M563.46,178.36l-5.28,3.62s-1.27,4.4-1.37,4.7.1,4.21,0,4.5,1.08,3.82,1.08,3.82l3.72,3.33,4.89.68,5.18-.68,3.91-1.66,2.25-4.3.49-3.67-.88-4.65-2.64-2.84-3.42-2.84-4.4-.97-3.52.97Z"/>
  <polygon class="st2" points="657.37 177.39 651.01 180.21 647.88 185.4 647.88 191.27 651.11 195.77 654.82 198.02 659.91 198.61 663.92 197.04 667.15 194.2 668.52 190.68 669.01 186.38 667.64 182.95 664.31 179.63 661.09 177.39 657.37 177.39"/>
  <polygon class="st2" points="768.96 181.97 763.22 189.28 758.78 198.61 757.74 210.93 759.3 221.89 765.73 218.24 771.04 210.15 774.17 199 776 191.63 776 186.15 768.96 181.97"/>
  <path class="st2" d="M542.06,159.21l-1.57,4.11,3.13,4.89,6.26,1.76,6.88-2.74,7.59-1.17,10.76.2,7.43,2.35,7.24,5.09,2.93,5.09v9.22c0,.57-.78,10.28-1.17,11s-5.28,21.46-5.28,21.46l-4.11,13.7-.59,8.22,1.76,6.65,5.09,5.48,9.98,2.5s12.52-.24,13.11,0,11.15,0,11.15,0l8.22-1.92,5.28-2.93,1.96-3.52v-4.89l-3.91-1.17-5.09.78-6.46.78h-16.04l-5.67-.59-5.28-1.17-2.35-2.93v-5.67l2.15-5.09,1.57-6.65,2.93-9.98,1.96-9.2,1.76-9.39.78-8.58-.78-7.49-1.96-6.83-5.28-7.24-10.76-6.07-9.98-2.15-11.35-1.17h-9.78l-8.22,2.93-4.3,2.35Z"/>
  <polygon class="st2" points="638.13 157.84 632.59 162.02 633.76 166.19 638.13 168.15 645.89 168.15 652.67 166.45 660.24 166.45 667.41 167.11 671.85 168.15 677.06 171.15 682.28 173.63 686.72 174.8 689.98 174.8 693.5 172.16 694.28 167.63 693.11 164.37 689.85 160.58 680.46 157.84 669.01 153.93 655.8 153.93 645.24 154.71 640.54 156.15 638.13 157.84"/>
  <polygon class="st1" points="685.02 416.72 712.55 364.78 725.51 332.05 731.29 314.86 731.84 305.21 730.9 299.5 729.71 299.5 722.97 309.7 715.12 317.42 702.4 328.98 686.36 338.99 666.6 348.36 656.76 352.2 645.3 355.2 634.54 358.03 685.02 416.72"/>
</svg>