<svg xmlns="http://www.w3.org/2000/svg" id="_Слой_1" data-name="Слой_1" viewBox="0 0 872 514"><defs><style>.st1{fill:#9e58fa}.st4{fill:#9e59fa}.st13{fill:#9e59fb}.st15{fill:#9d59fa}.st17{fill:#9d59f9}.st35{fill:#fefdfe}.st37{fill:#fdfcfe}</style></defs><path d="M166.05 1.9h549.4c44.91-.04 84.37 7.02 117.4 34.18q4.7 3.91 4.7 5.82h2c1.81 1.8 3.48 3.6 5.13 5.51.49.57.99 1.13 1.49 1.72 11.21 13.07 18.44 26.96 22.7 42.58q.58 2.46 1.73 4.21c1.07 8.38 1.15 16.8 1.14 25.21v3.7c0 3.35 0 6.7.01 10.06 0 3.63 0 7.26.02 10.89.01 7.92.02 15.84.02 23.75 0 4.95 0 9.9.01 14.86l.03 41.21v13.34c0 14.31.02 28.63.04 42.94.02 14.73.04 29.46.04 44.19 0 8.26 0 16.51.02 24.77.02 7.03.02 14.06.01 21.09 0 3.58 0 7.16.01 10.74.14 37.8-8.44 69.31-41.01 97.16-21.86 18.13-51.1 27.99-81.42 31.15q-3.05.27-5.04 1.27c-2.6 1-4.52 1.05-7.38 1.08-1.06.02-2.12.03-3.22.05-1.16 0-2.31.02-3.5.03-1.22.02-2.43.03-3.69.05-3.33.04-6.66.07-9.99.1l-8.44.09c-27.11.3-54.22.37-81.33.36h-87.52c-77.09 0-154.18-.12-384.6-.91q-3.28-.02-6.56-.02h-23.04c-.33-.55-.66-1.1-1-1.66-2.76-.39-5.49-.71-8.27-.99-28.34-3.36-52.24-14.46-72.88-30.59-.61-.47-1.23-.93-1.86-1.41-13.66-10.74-23.68-25.6-30.2-40.14v-2.49c-.66-.27-1.32-.55-2-.83-.78-2.34-1.42-4.63-2-7.01-.17-.62-.33-1.25-.5-1.89-4.03-16.1-3.8-32.28-3.78-48.63 0-3.63 0-7.25-.01-10.88-.01-7.09-.01-14.17-.01-21.26v-24.81c-.01-15.66 0-31.31 0-46.97 0-14.29 0-28.58-.03-42.88-.02-14.71-.03-29.43-.02-44.14 0-8.25 0-16.49-.01-24.74-.01-7.02-.01-14.04 0-21.05v-10.72c-.07-20.98.19-41.69 11.71-60.91q.89-1.54.7-3.9h2v-3.32q1.27-1.17 3.01-2.49c1.26-1.52 2.49-3.07 3.69-4.62 20.82-26.24 50.69-43.93 87.76-50.63 6.39-.93 12.75-1.47 19.22-1.74l2.47-.1c10.94-.42 21.89-.37 32.84-.36Zm2.27 509.49 4.01.83zm21.04 0v.83h7.01v-.83zm11.02 0v.83h6.01v-.83zm8.02 0 4.01.83zm7.01 0v.83h5.01v-.83zm17.03 0 4.01.83zm8.02 0 4.01.83zm17.03 0 4.01.83zm22.04 0v.83h8.01v-.83zm9.02 0 4.01.83zm33.06 0v.83h5.01v-.83zm31.06 0 4.01.83zm80.14 0v.83h5.01v-.83zm80.15 0 4.01.83zm33.06 0 4.01.83zm23.05 0 4.01.83zm9.01 0v.83h7.01v-.83zm48.09 0v.83h5.01v-.83zm32.06 0v.83h5.01v-.83zm8.02 0v.83h5.01v-.83zm22.04 0v.83h5.01v-.83zm18.03 0v.83h5.01v-.83zm8.02 0v.83h5.01v-.83zm16.03 0v.83h11.02v-.83z" style="fill:#9652fe"/><path d="M319.96 80.74c1.56 1.17 3.12 2.35 4.66 3.53.68.51 1.37 1.02 2.07 1.55 15.9 12.45 26.66 30.04 32.61 47.27.19.54.38 1.09.58 1.65 4.11 12.6 5.2 24.94 5.07 37.95-.02 2.52-.02 5.04-.01 7.57-.02 13.39-.76 26.7-4.76 39.73-.2.72-.41 1.44-.62 2.18-1.37 4.64-2.77 9.05-6.94 12.52q-3 0-4.65-1.34c-.57-.59-1.14-1.17-1.73-1.78-6.46-6.34-13.73-9.64-23.62-11.01-2.21-.09-4.42-.13-6.64-.15q-.97 0-1.96-.02c-2.13-.02-4.26-.03-6.38-.03-.73 0-1.46 0-2.22-.01-3.88-.02-7.75-.03-11.63-.04-3.98 0-7.95-.04-11.93-.07-3.08-.02-6.16-.03-9.25-.03-1.46 0-2.93-.01-4.39-.03-8.58-.09-16.98 0-24.6 3.7q-1.85 1.71-3.28 3.51c-2.24 2.39-3.22 3.06-6.86 3.66-3.82.1-7.55.02-11.36-.16l-7.72-.21c-1.13-.05-2.27-.09-3.44-.14-3.54-.01-6.86.34-10.35.82-.56-.75-1.11-1.51-1.69-2.29-4.35-5.08-9.12-7.19-16.31-8.52-5.06-.36-10.11-.35-15.18-.33h-4.4c-3.06 0-6.12 0-9.18.01-3.89.01-7.79 0-11.68 0H128.8c-12.64-.04-22.93 1.4-33.19 7.82-2.54 2.1-4.82 4.29-7 6.65-2.38-.31-3.69-.56-5.39-2.02-3.71-4.89-5.08-9.68-6.3-15.33-.2-.84-.4-1.67-.6-2.53-3.01-13.16-4.12-26.26-4.08-39.64v-2.19c.09-23.37 5.49-44.92 19.37-65.43.54-.81 1.08-1.61 1.64-2.44 17.87-24.79 49.44-42.61 82.82-49.6 48.91-9.69 105.36-2.98 143.87 25.24Z" style="fill:#fefefe"/><path d="M61.63 210.58c5.14 4.16 6.24 9 7.31 14.7 1.02 5.01 2.55 9.16 5.6 13.62q1.09 1.59 2.09 4.09 1.97.96 4 1.66c1.91 1.59 1.21 3.93 1.29 6.05.58 14.58 4.63 26.03 17.71 36.33 14.79 10.16 32.57 11.74 51 10.8 15.53-1.5 29.02-7.9 39.03-17.79 7.84-8.69 9.94-17.74 10.59-28.35.46-3.48 1.16-6.6 3.82-9.38 4.27-2.7 9.85-1.97 14.94-1.97l2.87-.03q9.43-.02 12.76 1.85c2.75 3.48 3.34 6.27 3.44 10.39.86 13.05 6.3 24.4 17.8 33.41 15.96 10.98 34.73 13.06 54.77 11.87 4.57-.58 8.76-1.81 13-3.32.74-.25 1.48-.5 2.24-.76 13.08-4.89 21.34-13.39 26.76-24.17 2.38-5.64 3.1-10.96 3.31-16.88q.27-6.78 3.5-9.71l1.57-1.16c6.24-5.15 7.44-13.45 9.33-20.26q2.28-7.8 6.29-10.99c2.84-1.18 4.85-1.09 8-.83 2.85 1.85 3.85 2.95 5 5.82.93 12.2-1.25 23.43-6.02 34.95-2.31 5.96-3.37 12.11-4.54 18.28q-5.39 28.24-14.62 34.85c-3.57 2.11-5.13 2.6-9.44 2.54-.82 0-1.63-.01-2.48-.02-.63 0-1.25-.02-1.9-.03-.09.9-.17 1.8-.26 2.72-3.15 29.69-11.99 63.21-37.74 85.36-2.96-2.46-2.71-5.31-3.11-8.63l-.6-4.35c-.3-2.27-.6-4.54-.89-6.81-2.15-16.72-5.79-33.86-22.4-45.03-6.36-3.58-12.8-6.16-20-8.31-1.35-2.24-1.41-4.32-1.75-6.8-.89-5-2.05-7.82-6.25-11.48q-2.09-.58-4-.83c.02.92.05 1.84.07 2.79.02 1.22.04 2.43.05 3.65.02.61.03 1.21.05 1.84q.07 5.95-2.18 8.34c-15.47 8.04-36.3 6.48-53.23 3.61-5.09-1.04-9.02-2.05-12.77-5.27-1.53-2.55-1.1-5.21-1.06-8 0-.59 0-1.17.01-1.78.01-1.45.03-2.9.05-4.35-3.27.47-4.9 1.17-7 3.32q-2.26 4.05-3.01 8.4c-.05 2.07-.22 3.75-.99 5.73-2.48 1.95-5.35 2.99-8.44 4.15-1.66.7-3.31 1.4-4.96 2.12-.8.34-1.59.69-2.42 1.04-11.84 5.4-18.58 15.29-22.56 25.7-.98 2.92-1.56 5.85-2.07 8.85-.12.65-.23 1.3-.35 1.97-.26 1.46-.52 2.91-.77 4.37-.5 2.84-1 5.67-1.51 8.51-.98 5.47-1.95 10.95-2.92 16.42-13.35-5.1-20.65-23.42-25.56-33.99-7.06-16.28-13.9-35.81-13.44-53.26l-1.76.12c-5.68.22-8.83-.18-13.24-3.44-11.12-9.84-12.42-24.47-14.74-37.25-1.11-6.04-2.38-11.76-4.82-17.54-3.5-8.32-4.62-15.67-4.75-24.46-.02-.8-.04-1.6-.05-2.43q0-7.26 3.37-10.56c3.22-1.34 5.58-.69 9 0Z" class="st35"/><path d="M197.58 331.52c16.94 3.66 35.64 3.12 52.11-1.9 7.15-2.1 13.28.28 19.94 2.69 11.56 4.84 18.87 12.77 23 22.86 1.35 4.67 2.2 9.37 3 14.13.14.76.27 1.51.41 2.29 3.41 18.94 6.92 38.6-7.41 55.05-12.28 13.6-31.66 20.75-51.45 23.52-24.26 2.85-51.85.63-72.55-11.06-11.89-7.89-21.31-17.13-24-29.91-1.57-18.87-2.43-50.57 13.36-65.85.54-.48 1.08-.96 1.64-1.46l1.67-1.67c11.42-10.64 24.52-12.19 40.28-8.69M738.4 188.01c17.17-.43 33.38 3.21 47.23 11.77 1.01.6 2.02 1.2 3.06 1.82 13.53 9.81 19.86 25.79 21.69 40.25.12 1.76.2 3.53.25 5.3l.06 1.97c.59 21.82-.65 45.12-19.72 61.78-13.4 10.85-30.01 15.71-48.59 15.55-1.09 0-2.18-.01-3.3-.02-18.27-.32-33.86-5.07-47.2-15.68-15.82-14.84-18.81-33.94-18.64-52.96.02-2.08 0-4.15-.02-6.23-.03-17.57 4.24-35.42 19.16-48.66 13.27-10.4 28.35-14.02 46.02-14.89m-203.37.64h2.19c1.52 0 3.05 0 4.57.01 2.33.01 4.66 0 6.99-.02h4.44c.7 0 1.39-.01 2.11-.02q4.78.06 6.98 1.29c1.92 2.27 1.69 4.03 1.69 6.8 0 .53 0 1.07.01 1.62 0 1.79 0 3.58-.01 5.37 0 1.28 0 2.57.01 3.85 0 3.49 0 6.97-.01 10.46-.01 3.64 0 7.29 0 10.93q0 9.18-.03 18.36c-.02 7.08-.02 14.17-.02 21.25 0 6.81 0 13.61-.01 20.42v8.7c0 3.41 0 6.82-.02 10.24v3.76c0 1.71 0 3.42-.02 5.12v2.9q-.25 2.24-2.25 3.9c-2.63.17-5.15.23-7.78.22h-7.21c-2.5 0-4.99 0-7.49.01h-4.74c-.75 0-1.5 0-2.27.01q-5.28-.04-7.51-1.89-.28-2.12-.32-4.84l-.06-3.07c-.01-1.11-.02-2.22-.04-3.33l-.06-3.4c-.05-2.99-.09-5.97-.13-8.96-.04-3.05-.09-6.09-.14-9.14-.1-5.98-.18-11.96-.26-17.94-6.8-.06-13.6-.11-20.4-.14-2.31-.01-4.63-.03-6.94-.05-3.32-.03-6.64-.04-9.96-.06-1.04-.01-2.08-.03-3.15-.04h-2.91c-.85 0-1.7-.01-2.57-.02-.68.1-1.36.2-2.06.3-2.27 2.83-2.26 3.85-2.29 7.17l-.04 2.91c0 1.04-.01 2.07-.02 3.14-.01 1.06-.03 2.12-.04 3.22-.05 3.98-.09 7.96-.13 11.94-.04 3.9-.09 7.8-.14 11.69 0 1.04-.01 2.08-.02 3.14l-.04 2.9c0 .84-.01 1.69-.02 2.56q-.27 2.01-2.27 3.67c-2.63.17-5.15.23-7.78.22h-7.21c-2.5 0-4.99 0-7.49.01h-4.74c-.75 0-1.5 0-2.27.01q-5.28-.04-7.51-1.89-.25-2.25-.25-5.18v-1.63c0-1.81 0-3.61.01-5.42v-3.88c0-3.52 0-7.03.01-10.55v-11.02c0-6.17 0-12.34.02-18.5.02-7.14.02-14.28.02-21.42 0-6.86 0-13.72.01-20.57V215c0-3.44 0-6.88.02-10.32v-3.8c0-1.72 0-3.44.01-5.16v-2.93q.13-2.15 1.13-2.98c2.72-.1 5.4-.16 8.12-.17.82 0 1.63 0 2.47-.01 1.73 0 3.46-.01 5.18-.02 2.65 0 5.3-.03 7.95-.06 1.68 0 3.35 0 5.03-.01l2.41-.03q2.23 0 5.84.3c2.28 2.84 2.27 3.93 2.32 7.28l.06 2.97c.01 1.06.02 2.12.04 3.21l.06 3.29c.05 2.88.09 5.76.13 8.64.04 2.94.09 5.88.14 8.82.1 5.77.18 11.54.26 17.31h48c1.31-2.18 1.14-3.8 1.16-6.24q.02-1.44.03-2.9c0-1.04.01-2.08.02-3.14l.09-6.54c.04-3.45.08-6.9.1-10.35.02-3.32.07-6.64.12-9.96v-3.14q.02-1.44.05-2.91c0-.85.02-1.69.02-2.56q.39-2.12 1.71-3.64c2.77-1.6 5.83-1.33 9.09-1.31Z" class="st35"/><path d="M645.47 281.18c6.32 4.42 11.63 9.75 13.15 16.66 1.04 11.69-1.09 21.92-10.56 31.08-8.13 7.5-16.7 14.4-26.44 20.44 1.01 0 2.02.02 3.06.02 3.75.03 7.5.09 11.25.15 1.62.02 3.24.04 4.87.05 2.33.02 4.67.06 7 .1h2.19c3.4.08 5.33.31 8.1 2.01 2.27 2.67 2.04 4.81 1.98 8.05v3.3c-.46 3.12-.76 4.12-3.43 6.26q-2.92.41-6.54.4h-2c-2.18 0-4.35-.01-6.53-.03h-4.54c-3.17 0-6.34-.02-9.51-.04-4.07-.03-8.13-.03-12.2-.03-3.12 0-6.25 0-9.37-.02h-4.5c-2.09 0-4.19-.02-6.28-.04q-1.79 0-3.61-.02-2.92-.22-5.92-1.88c-2.01-4.57-2-10.39.31-14.85 5.16-7.53 13.8-13.71 21.69-19.22q15.59-10.03 24.4-23.82c.26-3.89.26-6.83-2.78-9.94-3.23-2.43-4.7-2.94-8.94-3.01l-2.3-.06c-3.18.36-4.83 1.13-7.39 2.77-1.54 1.83-2.88 3.57-4.19 5.51q-3.58 5.2-5.81 6.13c-7.17.06-11.54-1.65-16.94-5.56-2.02-3.66-.89-7.47.7-11.16 4.31-7.73 11.23-12.94 20.45-16.55 12.48-3.77 29.63-2.96 40.64 3.32Z" class="st37"/><path d="M759.81 222.32c8.7 6.66 10.73 17.07 11.2 26.48.07 2.3.08 4.59.06 6.89 0 1.74.02 3.47.05 5.21.07 10.73-1.38 22.91-10.5 31.12-5.4 4.26-11.11 5.52-18.38 6.08-8.96-.64-15.65-2.85-21.62-8.57-7.31-8.62-7.47-19.58-7.34-29.7.02-1.99.02-3.97.01-5.96.03-11.93 1.18-22.91 11.5-31.93 9.42-7.14 25.16-5.07 35.01.38Z" style="fill:#944efe"/><path d="M132.41 229.44c1.34 0 2.68 0 4.02-.01h8.4c3.57 0 7.15 0 10.72-.03 2.77-.01 5.53-.01 8.3-.01 1.95 0 3.91-.01 5.86-.02 6.37.03 11.37.09 16.91 2.82q2.56 2.39 4 4.99c-.8 3.25-1.64 3.95-5 5.82q-2.7.21-6 .23-1.85.01-3.74.03h-2c-2.06 0-4.13.02-6.19.03-5.87.05-11.73.07-17.6.09-3.59.01-7.18.04-10.77.07-1.37 0-2.74.01-4.11.01-1.91 0-3.82.02-5.73.03-1.09 0-2.18 0-3.3.01-.85.11-1.7.21-2.57.32q-2.38 2.41-1.75 5.51c.25.93.49 1.85.75 2.8 2.29.95 3.7.96 6.25 1.01.84.02 1.67.05 2.54.07 1.77.04 3.53.08 5.3.11.84.03 1.68.05 2.54.08.77.02 1.54.03 2.33.05 2.55.43 3.45 1.16 5.05 2.84q.59 1.61.94 3.32c.63 2.32.94 3.21 2.88 5.04q2.18.91 4.75.83c3.51-1.27 4.03-2.97 5.44-5.87.35-.75.7-1.51 1.06-2.29q.94-1.87 2.94-3.53 2.23-.2 4.97-.19h2.97l3.12.03h3.13q7.67.04 8.81.99c.87 7.81-2.38 14.86-8.3 20.9-8.76 7.92-19.67 12.98-32.81 13.53-1.73.02-3.47.02-5.2 0q-1.37 0-2.77-.02c-14.7-.3-26-4.69-36.13-13.47-6.17-6.31-9.32-14.2-9.04-22.31.94-7.46 4.36-13.59 11.39-18.38 8.97-5.26 16.89-5.44 27.64-5.44Zm132.45.03c1.21 0 2.42-.02 3.67-.02h3.93c1.36 0 2.72 0 4.08-.01h8.54c3.62 0 7.25 0 10.87-.03 2.81-.01 5.62-.01 8.42-.01 1.98 0 3.96-.01 5.94-.02 10.93.05 18.34 1.32 26.37 7.64 6.21 5.8 7.32 12.07 7.23 19.62-.95 10.18-5.91 17.15-14.65 23.96-8.89 6.31-18.38 8.43-29.94 8.36-.84 0-1.67 0-2.53-.01-12.91-.2-24.81-3.69-34.34-11.1-6.54-5.8-10.87-12.71-11.07-20.78q.25-2.44 1.25-3.27c3.62-.26 7.25-.23 10.88-.26 1.02-.02 2.04-.05 3.09-.07.98 0 1.96-.01 2.96-.02.9-.01 1.8-.02 2.73-.04q2.34.39 4.12 1.95c1.34 1.92 1.92 3.53 2.42 5.71q.24.99.48 2.01.16.75.33 1.52 4.85 1.03 9.31-.36c2.26-2.85 2.78-5.45 3.69-8.78 2.44-2.03 3.12-1.88 6.46-1.92l2.67-.06c1.86-.03 3.72-.06 5.59-.08.88-.02 1.77-.04 2.68-.07q1.21-.02 2.45-.03c2.65-.41 3.55-1.04 5.14-2.83q.42-2.53 0-4.99c-2.69-2.24-4.07-1.87-7.84-1.89q-1.84-.01-3.71-.03h-1.99c-2.06 0-4.11-.02-6.17-.03-5.85-.05-11.69-.07-17.54-.09-3.58-.01-7.15-.04-10.72-.07-1.36 0-2.72-.01-4.08-.01-1.91 0-3.81-.02-5.72-.03q-1.63 0-3.29-.01c-3.36-.37-5.25-1.12-7.94-2.81q-1.12-2.39-1-4.99c4.51-5 9.99-6.02 17.23-6.05" class="st37"/><path d="M196.85 364.62h5.36c3.73 0 7.46 0 11.2.03 4.77.03 9.54.02 14.3 0 3.68 0 7.37 0 11.05.01h5.27c2.46 0 4.92.01 7.39.04.72 0 1.43-.01 2.17-.02 6.46.1 11.77 1.89 16.36 5.71 4.5 5.96 5.9 10.95 4.69 18.02-1.55 3.24-3.33 5.83-6.99 7.63-2.93.99-4.87 1.04-8.01.68-3.36-1.83-5.47-3.3-7.31-6.28-.85-3.55-1.13-7.05-1.34-10.66q-.1-2.3-2.34-3.83-2.53-.26-5.5-.23l-3.49-.02h-3.78c-1.28 0-2.55 0-3.87-.01h-8.12c-3.47 0-6.94 0-10.4-.03-3.31-.02-6.61-.01-9.92-.01l-3.78-.02c-1.15 0-2.31.01-3.5.02h-3.08q-2.58.15-4.38 1.42c-1.8 2.12-1.59 4.06-1.67 6.62-.34 5-1.01 8.41-5.31 12.1-3.01 1.29-4.83 1.33-8.19.93-3.43-1.45-5.53-2.82-7.88-5.35-2.03-5.35-2.42-10.84-.06-16.16 7.23-10.94 17.71-10.68 31.15-10.59Z" style="fill:#8f47fd"/><path d="m140.79 191.95 3.66.02c1.26.02 2.51.05 3.8.07l3.64.02c6.01.06 11.98.24 17.97.55 13.38.68 26.77.65 40.17.63h10.5c15.21.02 30.38-.17 45.58-.75 7.59-.28 15.17-.38 22.77-.4.68 0 1.37-.02 2.07-.03 2.02-.03 4.04-.03 6.07-.04l3.5-.02c3.45.33 5.36 1.04 8.11 2.79v1.66c-3.42 1.42-7.34 1.33-11.12 1.61-.93.07-1.85.14-2.81.21-1.98.15-3.95.3-5.93.44-2.95.22-5.9.45-8.85.67-20.93 1.59-41.72 2.22-62.74 2.2h-3.47c-17.47-.02-34.7-.42-52.09-1.82l-6.18-.45c-2.82-.21-5.64-.42-8.46-.64-2-.15-4-.31-6-.46-1.2-.1-2.39-.2-3.62-.3-1.06-.09-2.12-.17-3.22-.26q-2.52-.39-4.52-2.05c3.78-2.93 6.01-3.74 11.16-3.68Z" style="fill:#8e43fc"/><path d="m18.63 65.99 1 1.66c-.83 1.87-1.72 3.68-2.69 5.51-7.26 14.46-9.63 29.49-9.57 45.08v68.36c0 15.16 0 30.32.01 45.49v38.89c-.01 15.1-.01 30.19 0 45.29v54.68c-.06 32.1.02 65.39 24.27 92.25v1.66c-4.08-1.13-5.18-3.34-7.25-6.28-.39-.55-.78-1.1-1.19-1.66-2.85-4.1-5.34-8.29-7.63-12.62-.3-.56-.6-1.13-.91-1.71-1.23-2.41-2.03-4.17-2.03-6.81-.66-.27-1.32-.55-2-.83-.78-2.34-1.42-4.63-2-7.01-.16-.62-.33-1.25-.5-1.89-4.02-16.1-3.8-32.28-3.78-48.63 0-3.63 0-7.25-.01-10.88-.01-7.09-.01-14.17-.01-21.26v-24.81c-.01-15.66 0-31.31 0-46.97 0-14.29 0-28.58-.03-42.88-.02-14.71-.03-29.43-.02-44.14 0-8.25 0-16.49-.01-24.74-.01-7.02-.01-14.04 0-21.05v-10.72q-.14-44.09 13.38-63.15l1-.83Z" style="fill:#a058fb"/><path d="M67.99 20.5c.54.21 1.08.41 1.64.62-.66.38-1.33.76-2.01 1.16q-5.6 3.23-10.99 6.69-2 1.3-4 1.3v1.66c-1.35.93-2.76 1.8-4.19 2.65-4.29 2.67-6.84 5.32-9.81 8.98h-2q-.31.82-.62 1.66c-1.53 2.77-3.47 4.86-5.72 7.26-2.38 2.71-4.31 5.6-6.26 8.53q-1.39 1.67-4.39 2.5c-.33-.55-.66-1.1-1-1.66.42-.32.84-.63 1.27-.96 2.15-1.9 3.72-3.96 5.42-6.16 7.91-9.97 17.1-19.42 28.31-26.95 1-.68 2-1.35 3.03-2.05 1.07-.7 2.14-1.4 3.22-2.1q1.49-.98 3.02-1.97 2.73-1.35 5.09-1.14Z" style="fill:#9e57f8"/><path d="M145.94 192.09q1.54.02 3.11.05c2.53.04 5.05.09 7.58.16v.83c-5.94.27-11.88.55-18 .83-.33.55-.66 1.1-1 1.66l2 1.66q-6.05.16-8 0c-.66-.55-1.32-1.1-2-1.66 4.72-4.34 9.78-3.71 16.31-3.53" style="fill:#7b26fa"/><path d="M839.63 44.39c3.06 1.1 4.69 2.1 6.54 4.4.43.54.87 1.08 1.31 1.63.44.56.88 1.12 1.33 1.7.45.55.9 1.1 1.37 1.67 2.32 2.92 4.02 5.3 4.45 8.87-2.72-2.05-4.47-4.32-6.38-6.91-2.03-2.71-4.04-5.28-6.56-7.69q-2.06-2.03-2.06-3.69Z" style="fill:#9e57fa"/><path d="m361.63 304.48 2 .83c-1.46.56-2.92 1.11-4.38 1.66q-1.22.46-2.46.93-2.16.73-4.16.73v4.15l-2-.83v-5.82q.94-.08 1.9-.15 1.23-.1 2.48-.21c.81-.07 1.62-.13 2.46-.2q2.21-.17 4.16-1.09" style="fill:#8232fc"/><path d="M862.63 434.11h2q-3.08 8.77-5 12.46h-2c.63-3.04 1.64-5.72 3.06-8.57q.54-1.1 1.1-2.22c.28-.55.55-1.1.84-1.67" style="fill:#9d57f9"/><path d="M100.63 273.74c.44.31.87.62 1.32.94 3.87 2.76 7.76 5.49 11.68 8.2q-2 .83-3.94.73c-2.92-1.03-3.54-2.61-5.06-4.88-.72-.6-1.44-1.2-2.19-1.82-.6-.5-1.2-.99-1.81-1.51z" style="fill:#7f30fb"/><path d="M264.63 56.02c3.3.27 6.6.55 10 .83v1.66c2.31.55 4.62 1.1 7 1.66-3.98 1.1-6.45 0-10.19-1.19q-.98-.3-1.98-.61c-1.61-.5-3.22-1.01-4.83-1.52z" style="fill:#7b26fc"/><path d="M371.63 214.74c1.24 3.09.57 4.52-.44 7.63-.29.9-.57 1.81-.87 2.74-.23.69-.46 1.38-.69 2.09-1.95-2.89-2.08-4.26-1-7.48h2l1-4.99Z" style="fill:#7b29fc"/><path d="M85.63 13.64c-1.79.86-3.58 1.7-5.38 2.54l-3.02 1.43c-.86.33-1.72.67-2.6 1.01l-2-.83c3.55-3.44 7.64-5.58 13-4.15" style="fill:#9d57f8"/><path d="M2.63 224.71h1v16.62h-1z" class="st15"/><path d="M824.63 31.92c3.79.45 5.55 1.76 8 4.15v1.66c-3.8-1.24-5.61-3.12-8-5.82Z" style="fill:#9f57f9"/><path d="M2.63 108.37h1v15.79h-1z" style="fill:#9c58f7"/><path d="m356.63 229.69 1 1.66q-1.12 2.18-3 4.15-2.69.26-5 0c.78-.5 1.57-.99 2.38-1.51q2.77-1.74 4.62-4.31Z" style="fill:#7e2bfc"/><path d="M2.63 351.02h1v12.46h-1z" class="st4"/><path d="M2.63 138.29h1v12.46h-1z" class="st17"/><path d="M2.63 124.99h1v12.46h-1z" style="fill:#9c58f8"/><path d="M2.63 277.89h1v11.63h-1z" class="st4"/><path d="M2.63 151.58h1v9.97h-1z" class="st1"/><path d="M2.63 384.25h1v5.82h-1zm0-6.64h1v5.82h-1z" style="fill:#9c58f9"/><path d="M2.63 364.31h1v5.82h-1z" class="st15"/><path d="M2.63 344.37h1v5.82h-1zm0-53.18h1v5.82h-1z" class="st13"/><path d="M2.63 264.59h1v5.82h-1z" class="st4"/><path d="M2.63 251.3h1v5.82h-1z" style="fill:#9e58f9"/><path d="M2.63 198.12h1v5.82h-1zm0-6.65h1v5.82h-1z" class="st4"/><path d="M2.63 184.82h1v5.82h-1z" class="st1"/><path d="M2.63 175.68h1v5.82h-1z" class="st4"/><path d="M118.63 511.39h5l-4 1.66z" style="fill:#9252ee"/><path d="M2.63 370.96h1v4.99h-1z" class="st17"/><path d="m2.63 317.78 1 3.32zm0-13.3 1 3.32z" class="st4"/><path d="m2.63 297.83 1 3.32z" style="fill:#9e5afb"/><path d="m2.63 271.24 1 3.32z" style="fill:#9d59fb"/><path d="m2.63 257.95 1 3.32z" style="fill:#9e59f9"/><path d="m2.63 244.65 1 3.32z" class="st13"/><path d="m2.63 218.06 1 3.32z" style="fill:#9f59fa"/><path d="m2.63 211.41 1 3.32z" class="st1"/><path d="m2.63 204.77 1 3.32zm0-39.89 1 3.32z" class="st13"/><path d="m118.63 2.01 4 .83z" style="fill:#9355f0"/><path d="m749.63 511.39 3 .83z" style="fill:#9450ed"/><path d="m111.63 510.56 3 .83z" style="fill:#9351ee"/><path d="m756.63 510.56 2 .83z" style="fill:#9350ed"/><path d="m94.63 506.41 2 .83z" style="fill:#8f54ef"/><path d="m88.63 504.74 2 .83z" style="fill:#9452f0"/></svg>