<?xml version="1.0" encoding="UTF-8"?>
<svg id="main" xmlns="http://www.w3.org/2000/svg" version="1.1" viewBox="0 0 500 500">
  <!-- Generator: Adobe Illustrator 29.8.1, SVG Export Plug-In . SVG Version: 2.1.1 Build 2)  -->
  <defs>
    <style>
      .st0 {
        fill: #454241;
      }

      .st1 {
        fill: #f2f2f2;
      }

      .st2 {
        fill: #0c5e4c;
      }

      .st3 {
        fill: #014d42;
      }

      .st4 {
        fill: #ffb11d;
      }
    </style>
  </defs>
  <polygon points="161.46 29.36 160.03 29.88 158.4 30.73 156.57 32.06 155.26 33.24 154.25 34.38 153.01 36.04 152.13 37.48 151.09 39.43 150.21 41.29 149.23 43.31 148.48 45.63 147.83 47.75 146.98 50.52 146.2 53.88 145.71 56.68 145.25 59.26 144.6 63.56 143.98 67.67 143.4 72.86 142.94 77.81 142.22 83.09 141.47 90.17 140.82 96.5 140.2 102.79 139.55 109.9 138.93 115.08 137.98 121.83 137 126.82 135.63 133.43 134.85 138.22 134.07 144.63 133.43 152.4 133.09 155 133.09 161.06 133.09 170.45 133.09 176.57 133.53 179.5 134.26 184.49 134.9 187.77 136.76 194.57 138.52 199.36 141.06 205.23 143.36 209.39 146.69 213.99 149.28 216.92 154.22 222.15 158.09 225.77 160.82 227.73 163.81 229.69 167.18 231.79 170.02 233.45 174.08 235.65 177.75 237.32 181.27 238.83 186.16 240.55 190.86 241.87 196.19 243.24 201.67 244.65 207.15 245.68 211.25 246.46 217.37 247.39 224.56 248.71 231.36 249.5 238.3 250 242.26 250.38 247.01 250.62 251.41 250.87 254.15 250.87 265.94 250.87 281.3 250.87 286.14 250.57 293.28 250 296.95 249.11 302.04 248.08 305.26 247.2 311.87 245.09 316.61 243.38 320.82 241.72 324.93 239.67 328.99 237.56 333.34 234.68 337.4 231.69 340.58 228.71 343.27 225.68 346.25 221.96 348.6 218.24 350.56 215.21 352.56 211.64 354.37 207.77 355.79 204.35 357.26 199.75 358.43 195.94 359.31 191.98 360.15 188.4 360.73 185.13 361.32 181.8 362.05 177.79 362.69 172.75 362.69 169.04 362.69 166.1 362.77 165.39 362.93 164.25 363.04 163.35 363.12 162.78 363.21 162.13 363.28 161.78 363.28 155.93 363.48 152.98 363.65 148.63 363.65 142.15 363.82 137.06 364.01 131.95 364.16 126.89 364.45 121.83 364.65 116.69 364.8 110.67 365.02 105.56 365.31 99.47 365.51 94.41 365.78 89.35 366.09 83.11 366.34 77.05 366.48 71.96 366.48 65.92 366.48 61.88 366.31 60.56 365.65 55.99 365.11 53.71 364.55 52.17 363.67 49.83 362.79 47.92 361.3 45.67 359.98 44.4 357.97 42.51 356.38 41.31 354.3 40.39 352.64 40.02 347.92 40.04 346.23 40.46 344.2 41.02 340.41 42.17 338.31 43.17 335.96 44.64 333.61 45.91 331.73 47.11 328.21 49.31 324.57 51.71 321.31 54.11 318.11 56.62 315.17 59.02 312.85 60.9 310.38 63.01 307.59 65.53 305.17 67.95 302.6 70.17 300.6 72.08 298.5 74.06 297.25 75.14 295.83 76.58 291.06 75.92 285.39 75.04 282.5 74.53 277.71 73.79 274.23 73.52 267.58 72.84 263.18 72.37 252.57 71.47 248.46 71.2 244.54 71.08 235.47 70.59 229.28 70.15 223.29 69.88 217.91 69.81 212.29 69.78 211.01 68.41 209.89 67.02 208.23 64.79 207 63.2 203.36 59.24 199.94 55.55 196.51 51.61 193.14 47.62 189.96 44.25 187.24 41.51 183.06 37.48 179.39 34.61 176.46 32.39 173.79 30.99 171.83 30.06 170.39 29.6 169.12 29.36 166.7 28.82 163.3 28.82 161.46 29.36"/>
  <circle class="st4" cx="188.07" cy="137.36" r="47.09"/>
  <circle cx="188.07" cy="137.36" r="35.71"/>
  <circle class="st1" cx="188.07" cy="137.36" r="27.46"/>
  <polygon points="184.35 151.54 185.69 151.42 186.67 151 187.63 150.24 188.24 149.34 188.65 148.19 188.9 145.96 189.48 143.79 190.29 141.86 191.59 140.24 193.08 139.09 194.55 138.21 195.72 138.09 197.53 138.09 198.48 138.09 199.02 138.36 200 138.97 200.86 139.84 201.86 140.83 202.3 141.71 202.96 143.23 203.2 144.81 203.42 146.16 203.57 147.9 203.57 149 204.01 149.75 204.6 150.44 205.23 150.95 205.99 151.3 207.88 151.32 209.15 150.66 209.86 149.95 210.44 149.31 210.83 148.68 211.03 148.04 211.03 146.97 211.03 145.06 211.03 143.3 210.69 141.07 209.88 139.02 209.07 136.99 207.63 134.91 206.14 132.95 203.96 131.02 202.37 130.09 200.22 128.94 198.51 128.5 196.7 128.36 192.71 128.36 190.17 129.31 187.67 130.85 186.28 132 185.01 133.25 183.79 134.76 183 135.96 182.07 137.65 181.44 138.9 180.85 140.53 180.44 141.83 180.14 143.76 180.14 148.43 180.48 149.46 181.27 150.42 182.17 151.03 182.93 151.39 183.69 151.54 184.35 151.54"/>
  <circle class="st4" cx="308.87" cy="147.02" r="47.09"/>
  <circle cx="308.87" cy="147.02" r="35.71"/>
  <circle class="st1" cx="308.87" cy="147.02" r="27.46"/>
  <rect x="288.8" y="133.9" width="24.21" height="32.69" rx="11.54" ry="11.54" transform="translate(17.23 -30.43) rotate(5.96)"/>
  <polygon class="st4" points="234.77 143.48 236.43 142.91 238.79 142.48 242.38 142.09 245.45 142.09 248.4 142.09 251.1 142.3 253.26 142.79 255.86 143.48 257.74 144.1 260.1 144.98 261.79 145.89 263.44 134.62 261.26 133.7 258.28 132.77 255.67 132 252.7 131.51 249.44 131.33 240.38 131.33 238.04 131.79 236.01 132.33 234.85 132.65 234.77 143.48"/>
  <polygon points="192.33 184.26 195.2 182.54 198.45 180.27 200.72 178.51 203.73 176.58 206.03 175.13 208.55 173.93 211.73 172.66 214.35 171.71 216.72 171.12 218.92 170.8 220.48 170.56 221.55 170.48 225.2 166.33 220.53 166.33 218.6 166.45 216.99 166.65 213.66 167.63 209.4 168.92 205.98 170.34 202.63 172.08 199.33 174.13 196.86 175.7 194.56 177.36 191.04 180.15 188.4 181.71 186.02 182.96 183.04 184.45 187.42 186.55 192.33 184.26"/>
  <polyline points="221.55 170.48 221.13 170.89 222.09 170.89 225.94 166.33 225.2 166.33"/>
  <polygon points="307.64 194.09 305.11 193.55 303.2 192.58 301.54 191.15 299.19 189.11 297.32 187.12 295.23 185.31 292.46 182.62 290.03 180.42 287.89 178.6 285.66 177.05 283.25 175.37 281 174.1 278.32 172.86 273.42 170.93 270.92 170.36 268.7 169.9 267.32 169.58 269.14 174.48 270.99 174.8 273.45 175.46 276.07 176.31 278.42 177.76 281.01 179.25 283.46 180.78 285.56 182.02 287.08 183.16 288.94 184.56 290.19 185.75 291.5 187.14 293.44 188.82 294.59 189.99 295.87 191.13 296.94 192.18 297.95 192.84 298.72 193.45 307.64 194.57 307.64 194.09"/>
  <polygon class="st1" points="159.16 188.43 161.66 189.51 164.54 190.54 167.14 191.08 170.9 191.32 174.57 191.32 177.8 190.44 182.59 189.02 187.29 187.16 190.22 185.7 192.66 184.06 195.2 182.54 198.45 180.27 200.72 178.51 203.73 176.58 206.03 175.13 208.55 173.93 211.73 172.66 214.35 171.71 216.72 171.12 218.92 170.8 220.48 170.56 221.96 170.43 223.07 170.43 224.61 170.43 224.92 170.49 225.05 171.8 225.52 173.48 226.02 174.99 226.73 177.15 227.85 179.06 229.11 181.2 230.1 182.43 231.34 183.88 232.54 185.23 234.82 187.45 236.45 188.62 238.67 190.12 240.69 191.04 242.19 191.32 243.37 191.52 246.28 191.52 249 190.72 251.74 189.45 254.04 187.88 256.54 186.07 259.23 183.58 261.18 181.67 263.19 179.62 264.51 178 265.54 176.44 266.22 175.22 266.76 174.29 270.99 174.8 272.12 175.1 273.45 175.46 276.07 176.31 278.42 177.76 281.01 179.25 283.46 180.78 285.56 182.02 287.08 183.16 288.94 184.56 290.19 185.75 291.5 187.14 293.44 188.82 294.59 189.99 295.87 191.13 296.94 192.18 300.7 195.61 304.08 197.76 307.85 199.72 311.07 200.94 314.16 201.82 317.68 202.56 323.35 202.56 325.45 201.97 326.58 201.34 327.41 201.09 327.95 201.38 328.15 201.92 328.15 202.56 328.15 203.44 327.31 204.51 325.36 207.69 323.55 210.73 320.51 214.2 317.04 217.09 314.01 219.29 310.78 221 306.62 222.71 303.93 223.64 300.8 224.67 296.89 225.3 291.66 225.69 282.61 225.69 277.47 224.91 272.14 223.64 268.57 222.17 263.92 220.07 259.86 217.72 256.83 215.37 254.34 213.12 251.25 210.19 249.15 207.69 247.15 205.4 245.19 202.85 244.6 201.73 244.16 201.09 243.65 200.46 243.09 200.16 242.35 200.06 242.01 200.16 241.08 201.04 239.66 202.61 238.1 204.12 236.04 205.84 233.11 208.04 229.88 210.29 226.01 212.63 222.05 214.74 218.29 216.21 214.57 217.33 210.26 218.26 204.69 218.8 197.25 218.8 192.12 218.06 187.62 216.99 184.05 215.91 178.76 213.76 174.7 211.61 171.92 209.65 169.18 207.35 167.47 205.59 165.12 203.1 163.45 200.65 162.09 198.35 161.06 196.54 160.03 193.85 159.4 191.94 158.86 190.09 158.86 189.06 159.16 188.43"/>
  <polygon class="st0" points="225.94 169.41 229.6 168.99 233.94 168.37 237 168.11 241.24 168.11 245.42 168.11 248.97 168.37 252.36 168.76 256.01 169.58 259.05 170.29 260.48 170.89 261.79 171.79 262.96 172.61 263.78 173.08 264.04 173.29 264.04 172.54 262.5 170.29 260.74 168.61 258.23 167.06 255.23 165.99 251.58 164.85 248.38 164.16 245.19 163.84 237.66 163.97 234.26 164.81 231.98 165.63 230.22 166.33 227.91 167.59 226.63 168.56 225.94 169.41"/>
  <polygon points="109.29 285.25 112.28 286.09 115.9 286.57 120.49 286.87 125.53 286.38 129.93 285.25 133.99 283.2 136.59 281.29 139.13 278.65 141.09 275.96 142.31 272.83 143.04 270.53 143.48 268.43 143.82 266.28 143.82 259.87 143.38 257.13 142.21 253.66 140.84 250.87 138.98 248.08 137.27 246.17 135.56 244.61 134.34 243.82 133.94 238.15 133.09 234.09 132.09 231.06 130.91 228.61 129.59 226.17 127.68 223.28 126.07 221.91 124.01 221.13 121.42 220.69 118.24 221.28 116.48 222.4 115.21 224.36 114.13 226.9 113.25 229.88 112.76 232.92 113.25 242.6 111.1 243.34 108.7 244.66 106.41 246.27 104.35 248.13 102.61 250.46 101.27 252.65 100.39 254.57 99.41 256.79 98.79 259.36 98.79 262.48 98.79 267.76 99.18 269.91 100.23 273.04 101.66 275.91 103.36 278.85 105.05 281.13 107.07 283.41 109.29 285.25"/>
  <polygon points="338.69 367.25 342.74 366.73 346.45 365.49 349.65 363.6 352.19 361.25 353.5 359.55 354.87 356.94 355.45 354.86 355.78 352.97 355.45 349.12 354.48 347.03 352.19 343.44 348.61 339.34 343.91 334.97 340 331.51 336.28 328.57 332.76 326.03 330.48 324.47 328.52 323.23 326.89 322.44 328.31 319.1 329.63 316.12 330.51 313.62 331.49 310.79 331.83 308.93 331.98 306.78 331.88 304.87 331.19 302.86 330.22 300.61 328.16 297.34 326.2 294.55 323.42 291.22 320.43 288.14 319.65 287.36 318.82 287.06 317.94 287.06 317.01 287.36 316.32 288.14 315.93 289.12 315.93 290 316.91 291.32 318.82 293.67 321.36 296.85 324.15 300.27 326.06 303.21 326.74 305.16 327.04 306.53 326.74 308.73 326.35 310.79 325.28 313.82 323.81 317.44 322.24 321.65 321.02 325.12 319.99 327.16 318.77 329.47 317.5 332.46 316.81 334.17 315.93 336.51 315.44 338.42 314.95 340.57 314.95 344.54 315.64 348.55 316.28 351.04 317.2 353.15 317.99 354.61 318.72 356.28 320.19 358.48 322.54 360.97 324.84 362.83 327.72 364.69 329.87 365.86 332.22 366.65 333.44 366.89 335.6 367.09 337.49 367.25 338.69 367.25"/>
  <path d="M169.44,278.01l1.24-1.08,1.21-.16,1.04.26.78.98-.26,2.84-1.21,5.64-1.04,4.5-1.11,5.61-1.11,6.1-.95,5.35-.85,5.12-.95,5.48-.59,4.3-.62,4.76-.59,4.43-.65,4.14-.62,4.96-.52,5.02-.55,4.76-1.09,9.24v5.28l-.39,9.49.49,1.05,1.09.82,2.27.82,3.96,1.22,4.6,1.08,4.16.98,5.23.93,5.67.83,6.46.83,6.31.64,6.41.54,6.91.65,7.24-.33,2.8-.98,2.41-1.37,2.02-1.7,2.15-2.22,1.3-2.35.72-2.02.78-2.67.33-2.74,1.96-39.91-3.65-3.85-4.63-4.11-2.8-2.54-3.59-3.39-3.46-3-5.35-4.89-4.96-4.63-4.96-4.57-3.52-3.39-3.46-3.33-4.17-3.72-2.48-2.41-2.15-2.28-.26-2.87.98-1.7,2.67-2.54,3.07-3.13-.53-.63-11.55-7.99-1.17-1.3.07-1.57.26-1.37.78-1.5,1.17-1.96,8.65-14.62,5,1.28-3.68,5.7-2.87,4.76-2.8,4.5-1.3,2.22.98,1.24,2.15,1.43,3.52,2.28,3.26,2.15,2.41,1.63,1.5,1.5.46.85-.13.78-.33,1.17-6.91,7.37-.26.44.37.71.83.76,11.05,9.93,8.61,8.09,6.65,6.65,7.17,6.33,7.7,6.97-32.57-75.97,5.48,1.03.41.08,1.9,4.76,1.26,2.84,7.44,18.02,23.43-21.07,5.42.31,4.4.24h.54l1.57,2.17,2.4,2.69,2.35,2.64,13.19,14.76,14.69-22.55,7.14-.57-8.23,12.07-5.48,8.46-4.45,6.9-26.51,42.65,5.77-4.01,5.09-3.72,6.46-4.6,6.26-4.7,6.85-4.79,7.04-5.18,6.55-5.09,7.53-5.48.15-.48-.29-.86-6.38-8.22-.05-1.15,1.08-1.42,1.91-1.22,2.98-1.52,10.74-4.6.15-.5-.24-.99-.7-1.32-5.97-12.57,1.74-.47,2.94-.94,1.38,2.82,1.37,3.42,1.66,3.67.98,2.45.83,1.66.29,1.42.2.79.15.83v1.04l-.1.72-.24.65-.78.65-1.76,1.17-11.93,5.29-.51.43.17.61.56.71,1.15,1.32,2.54,3.33,1.14,1.79.44.93-.02.82-.2,1.17-.52.65s-.98.75-1.04.77-.98.8-.98.8l-7.35,5.84-14.18,10.37-9.29,6.75-8.32,6.16-12.03,8.71-11.45,8.32-.75,17.25-1.04,19.86v5.61l.91,4.3,1.43,2.35,2.09,1.83,3.26,1.9,3.13.96,26.71.21,15.85-.49,14.02-.96,9.98-1.3,7.83-1.11,5.54-1.43,2.67-1.37,1.11-1.24.39-1.57-.06-10.24,2.15.2,1.89.16h1.21v8.06l-.36,4.37-.39,1.7-.78,1.04-1.79,1.43-2.84,1.37-4.04,1.39-3.59.7-2.61.39-1.96.39-.07,24.72-.2,11.22.26,12.78,2.87.78,3.72.98,2.35.91,2.41,1.24,3.55,3.16,1.76,2.15,1.7,2.93.49,1.66v3.72l-.26,1.7-1.11,1.7-1.7,1.83-1.37.78-2.67.91-3.65.33h-45.46l-3.26-.78-2.28-1.17-2.28-1.7-1.7-2.35-.82-2.33-.82-2.95s-.62-2.67-.62-2.77-1.52-6.2-1.52-6.2l-2.15-8.41-2.15-8.56-1.87-8.28-1.61-6.41-1.12-4.6-1.12-4.79h-20.89l-3.88,47.82-.72,4.19-.78,2.05-1.76,2.64-2.1,1.66-2.3,1.32-2.4.73-3.23.89h-46.17l-3.29-.53-2.32-1.14-2.51-1.99-1.3-2.02-.46-2.15.2-3.16,2.02-4.01,1.57-2.25,2.54-2.54,4.11-2.15,2.74-1.12,2.35-.78,1.52-.29-4.12-50.76-6.63-1.37-5.55-1.54-4.52-1.49-3.35-1.74-1.81-1.3-1-1.27-.17-2.05.51-9.58.59-7.09.49-6.6.64-5.53,1.96-15.51,1.22-8.51,1.47-9.24,1.27-7.87,1.08-6.02,1.32-7.24,1.22-6.16,1.08-4.55.78-2.89.43-1.11Z"/>
  <polygon class="st1" points="259.97 267.53 252.6 276.86 256.64 296.09 269.1 277.64 259.97 267.53"/>
  <polygon class="st1" points="220.48 276.4 228.83 295.38 236.39 276.79 231.11 267.07 220.48 276.4"/>
  <polygon class="st3" points="248.61 320.08 254.38 316.07 265.93 307.76 272.19 303.06 286.08 293.08 292.63 288 300.17 282.52 300.31 282.04 300.02 281.18 293.64 272.96 293.59 271.81 294.66 270.4 296.57 269.17 299.55 267.66 310.29 263.06 310.44 262.56 310.19 261.57 309.49 260.25 303.53 247.67 302.04 248.08 296.95 249.11 293.28 250 285.05 262.07 283.1 264.99 281.58 267.29 278.45 272.08 276.64 274.94 273.34 280.1 268.57 287.59 265.68 292.24 260.3 301.33 256.32 307.54 248.61 320.08"/>
  <polygon class="st3" points="234.24 320.62 226.54 313.65 219.37 307.32 212.72 300.66 204.11 292.58 193.05 282.65 192.22 281.89 191.86 281.18 192.12 280.74 199.03 273.37 199.49 271.42 199.03 270.57 197.53 269.07 191.86 265.29 186.18 261.57 185.2 260.33 186.51 258.11 192.18 248.85 195.86 243.15 201.67 244.65 203.6 248.57 204.89 251.6 206.43 254.98 208.32 259.46 209.91 263.47 211.84 268.04 213.48 271.73 214.8 275.18 216.02 278.14 217.66 281.59 218.88 284.47 220.18 287.51 221.23 289.98 222.06 291.91 224.31 296.7 225.78 299.69 229.81 309.49 231.28 313.06 233.31 317.56 234.24 320.03 234.24 320.62"/>
  <polygon class="st2" points="109.29 285.25 112.28 286.09 115.9 286.57 120.49 286.87 125.53 286.38 129.93 285.25 133.99 283.2 136.59 281.29 139.13 278.65 141.09 275.96 142.31 272.83 143.04 270.53 144.87 269.87 147.34 268.14 149.47 265.86 150.98 263.93 154.07 260.21 158.63 254.92 162.35 251.27 166.53 247.62 170.7 244.62 174.09 242.47 178.07 240.31 181.27 238.83 186.16 240.55 190.86 241.87 182.2 256.48 180.25 259.94 179.99 261.31 179.92 262.87 181.09 264.18 192.64 272.17 193.18 272.8 190.11 275.93 187.44 278.47 186.46 280.17 186.72 283.04 188.87 285.32 195.53 291.45 198.98 294.78 202.5 298.17 207.46 302.73 212.42 307.36 217.76 312.25 221.22 315.25 224.81 318.65 227.61 321.19 232.24 325.3 235.9 329.15 233.94 369.06 233.61 371.8 232.83 374.47 232.11 376.49 230.81 378.84 228.66 381.06 226.63 382.75 224.22 384.12 221.42 385.1 214.18 385.43 207.26 384.78 200.86 384.24 194.55 383.6 188.09 382.77 182.42 381.94 177.18 381.01 173.03 380.03 168.43 378.96 164.47 377.73 162.2 376.91 161.11 376.09 160.62 375.04 160.33 371.21 160.39 365.92 161.01 360.27 161.5 354.9 161.89 349.75 162.74 342.18 164.37 331.29 165.97 320.62 167.24 310.62 169 300.9 170.44 292.55 172.59 282.9 173.31 279.57 173.44 278.21 172.92 277.36 171.88 276.78 170.68 276.94 169.44 278.01 169.01 279.12 168.22 282.01 167.15 286.56 165.93 292.72 164.6 299.96 163.53 305.98 162.37 313.15 158.9 314.96 154.84 316.53 151.59 317.46 146.94 318.09 139.97 317.84 136.57 317.06 132.79 315.79 129.89 314.29 127.97 313.11 125.62 311.29 123.76 309.33 119.49 305.16 116.49 301.34 114.79 298.57 113.29 295.9 110.89 291.07 109.89 288.4 109.29 285.88 109.29 285.25"/>
  <polygon class="st2" points="318.47 242.65 322.56 244.37 327.12 246.45 330.97 248.8 335.47 252.09 339.18 254.8 347.4 262.24 351.02 265.67 354.08 269.29 357.57 272.94 362.43 278.84 365.61 282.85 370.35 290.03 372.67 294.17 374.14 297.66 375.23 300.48 375.95 303.15 375.95 309.67 375.49 313.46 374.32 318.93 372.29 325.19 369.88 330.28 367.14 334.52 362.06 340.65 355.1 348.36 352.19 343.44 348.61 339.34 343.91 334.97 340 331.51 336.28 328.57 332.76 326.03 330.48 324.47 328.52 323.23 326.89 322.44 328.31 319.1 329.63 316.12 330.51 313.62 331.49 310.79 331.83 308.93 331.98 306.78 331.88 304.87 331.19 302.86 330.22 300.61 328.16 297.34 326.2 294.55 323.42 291.22 320.43 288.14 319.65 287.36 318.82 287.06 317.94 287.06 317.01 287.36 316.32 288.14 315.93 289.12 315.93 290 316.91 291.32 318.82 293.67 321.36 296.85 324.15 300.27 326.06 303.21 326.74 305.16 327.04 306.53 326.74 308.73 326.35 310.79 325.28 313.82 323.81 317.44 322.24 321.65 321.02 325.12 319.99 327.16 318.77 329.47 317.5 332.46 316.81 334.17 315.93 336.51 315.44 338.42 314.95 340.57 314.95 344.54 315.64 348.55 316.28 351.04 317.2 353.15 317.99 354.61 318.72 356.28 320.19 358.48 322.54 360.97 324.84 362.83 327.72 364.69 329.87 365.86 332.22 366.65 333.44 366.89 333.51 377.13 333.12 378.7 332.01 379.94 329.33 381.31 323.79 382.74 315.96 383.85 305.99 385.15 291.96 386.12 276.12 386.6 249.41 386.39 246.28 385.43 243.02 383.52 240.93 381.7 239.5 379.35 238.58 375.04 238.58 369.44 239.63 349.58 240.38 332.33 241.78 331.35 243.97 329.56 246.15 327.9 249.71 325.32 252.48 323.23 255.45 320.98 257.72 319.22 261.97 316.16 265.26 313.81 268.62 311.4 271.62 309.21 274.46 307.03 281.89 301.55 286.46 298.32 289.62 296.09 292.95 293.56 296.47 291.11 302.4 286.56 304.48 284.69 304.97 284.02 305.45 283.14 305.75 282.08 305.66 281.8 305.31 281.05 304.17 279.26 301.62 275.93 300.48 274.61 299.91 273.9 299.74 273.29 300.25 272.86 301.94 272.02 305.36 270.45 308.56 268.99 313.2 266.76 314.57 265.59 315.06 264.49 315.07 263.48 315.07 263.33 314.43 260.29 313.6 258.62 312.62 256.18 310.96 252.51 309.59 249.09 308.21 246.26 311.87 245.09 316.61 243.38 318.47 242.65"/>
  <circle cx="250.81" cy="362.65" r="5.87"/>
  <circle cx="251.85" cy="340.02" r="5.87"/>
</svg>