<svg xmlns="http://www.w3.org/2000/svg" id="main" viewBox="0 0 500 500"><defs><style>.st1{fill:#f2f2f2}.st4{fill:#ffb11d}</style></defs><path d="m161.46 29.36-1.43.52-1.63.85-1.83 1.33-1.31 1.18-1.01 1.14-1.24 1.66-.88 1.44-1.04 1.95-.88 1.86-.98 2.02-.75 2.32-.65 2.12-.85 2.77-.78 3.36-.49 2.8-.46 2.58-.65 4.3-.62 4.11-.58 5.19-.46 4.95-.72 5.28-.75 7.08-.65 6.33-.62 6.29-.65 7.11-.62 5.18-.95 6.75-.98 4.99-1.37 6.61-.78 4.79-.78 6.41-.64 7.77-.34 2.6v21.57l.44 2.93.73 4.99.64 3.28 1.86 6.8 1.76 4.79 2.54 5.87 2.3 4.16 3.33 4.6 2.59 2.93 4.94 5.23 3.87 3.62 2.73 1.96 2.99 1.96 3.37 2.1 2.84 1.66 4.06 2.2 3.67 1.67 3.52 1.51 4.89 1.72 4.7 1.32 5.33 1.37 5.48 1.41 5.48 1.03 4.1.78 6.12.93 7.19 1.32 6.8.79 6.94.5 3.96.38 4.75.24 4.4.25h29.89l4.84-.3 7.14-.57 3.67-.89 5.09-1.03 3.22-.88 6.61-2.11 4.74-1.71 4.21-1.66 4.11-2.05 4.06-2.11 4.35-2.88 4.06-2.99 3.18-2.98 2.69-3.03 2.98-3.72 2.35-3.72 1.96-3.03 2-3.57 1.81-3.87 1.42-3.42 1.47-4.6 1.17-3.81.88-3.96.84-3.58.58-3.27.59-3.33.73-4.01.64-5.04v-6.65l.08-.71.16-1.14.11-.9.08-.57.09-.65.07-.35v-5.85l.2-2.95.17-4.35v-6.48l.17-5.09.19-5.11.15-5.06.29-5.06.2-5.14.15-6.02.22-5.11.29-6.09.2-5.06.27-5.06.31-6.24.25-6.06.14-5.09V61.88l-.17-1.32-.66-4.57-.54-2.28-.56-1.54-.88-2.34-.88-1.91-1.49-2.25-1.32-1.27-2.01-1.89-1.59-1.2-2.08-.92-1.66-.37-4.72.02-1.69.42-2.03.56-3.79 1.15-2.1 1-2.35 1.47-2.35 1.27-1.88 1.2-3.52 2.2-3.64 2.4-3.26 2.4-3.2 2.51-2.94 2.4-2.32 1.88-2.47 2.11-2.79 2.52-2.42 2.42-2.57 2.22-2 1.91-2.1 1.98-1.25 1.08-1.42 1.44-4.77-.66-5.67-.88-2.89-.51-4.79-.74-3.48-.27-6.65-.68-4.4-.47-10.61-.9-4.11-.27-3.92-.12-9.07-.49-6.19-.44-5.99-.27-5.38-.07-5.62-.03-1.28-1.37-1.12-1.39-1.66-2.23L207 63.2l-3.64-3.96-3.42-3.69-3.43-3.94-3.37-3.99-3.18-3.37-2.72-2.74-4.18-4.03-3.67-2.87-2.93-2.22-2.67-1.4-1.96-.93-1.44-.46-1.27-.24-2.42-.54h-3.4z"/><circle cx="188.07" cy="137.36" r="47.09" class="st4"/><circle cx="188.07" cy="137.36" r="35.71"/><circle cx="188.07" cy="137.36" r="27.46" class="st1"/><path d="m184.35 151.54 1.34-.12.98-.42.96-.76.61-.9.41-1.15.25-2.23.58-2.17.81-1.93 1.3-1.62 1.49-1.15 1.47-.88 1.17-.12h2.76l.54.27.98.61.86.87 1 .99.44.88.66 1.52.24 1.58.22 1.35.15 1.74v1.1l.44.75.59.69.63.51.76.35 1.89.02 1.27-.66.71-.71.58-.64.39-.63.2-.64v-4.74l-.34-2.23-.81-2.05-.81-2.03-1.44-2.08-1.49-1.96-2.18-1.93-1.59-.93-2.15-1.15-1.71-.44-1.81-.14h-3.99l-2.54.95-2.5 1.54-1.39 1.15-1.27 1.25-1.22 1.51-.79 1.2-.93 1.69-.63 1.25-.59 1.63-.41 1.3-.3 1.93v4.67l.34 1.03.79.96.9.61.76.36.76.15z"/><circle cx="308.87" cy="147.02" r="47.09" class="st4"/><circle cx="308.87" cy="147.02" r="35.71"/><circle cx="308.87" cy="147.02" r="27.46" class="st1"/><rect width="24.21" height="32.69" x="288.8" y="133.9" rx="11.54" ry="11.54" transform="rotate(5.96 300.887 150.274)"/><path d="m234.77 143.48 1.66-.57 2.36-.43 3.59-.39h6.02l2.7.21 2.16.49 2.6.69 1.88.62 2.36.88 1.69.91 1.65-11.27-2.18-.92-2.98-.93-2.61-.77-2.97-.49-3.26-.18h-9.06l-2.34.46-2.03.54-1.16.32z" class="st4"/><path d="m192.33 184.26 2.87-1.72 3.25-2.27 2.27-1.76 3.01-1.93 2.3-1.45 2.52-1.2 3.18-1.27 2.62-.95 2.37-.59 2.2-.32 1.56-.24 1.07-.08 3.65-4.15h-4.67l-1.93.12-1.61.2-3.33.98-4.26 1.29-3.42 1.42-3.35 1.74-3.3 2.05-2.47 1.57-2.3 1.66-3.52 2.79-2.64 1.56-2.38 1.25-2.98 1.49 4.38 2.1z"/><path d="m221.55 170.48-.42.41h.96l3.85-4.56h-.74m82.44 27.76-2.53-.54-1.91-.97-1.66-1.43-2.35-2.04-1.87-1.99-2.09-1.81-2.77-2.69-2.43-2.2-2.14-1.82-2.23-1.55-2.41-1.68-2.25-1.27-2.68-1.24-4.9-1.93-2.5-.57-2.22-.46-1.38-.32 1.82 4.9 1.85.32 2.46.66 2.62.85 2.35 1.45 2.59 1.49 2.45 1.53 2.1 1.24 1.52 1.14 1.86 1.4 1.25 1.19 1.31 1.39 1.94 1.68 1.15 1.17 1.28 1.14 1.07 1.05 1.01.66.77.61 8.92 1.12z"/><path d="m159.16 188.43 2.5 1.08 2.88 1.03 2.6.54 3.76.24h3.67l3.23-.88 4.79-1.42 4.7-1.86 2.93-1.46 2.44-1.64 2.54-1.52 3.25-2.27 2.27-1.76 3.01-1.93 2.3-1.45 2.52-1.2 3.18-1.27 2.62-.95 2.37-.59 2.2-.32 1.56-.24 1.48-.13h2.65l.31.06.13 1.31.47 1.68.5 1.51.71 2.16 1.12 1.91 1.26 2.14.99 1.23 1.24 1.45 1.2 1.35 2.28 2.22 1.63 1.17 2.22 1.5 2.02.92 1.5.28 1.18.2h2.91l2.72-.8 2.74-1.27 2.3-1.57 2.5-1.81 2.69-2.49 1.95-1.91 2.01-2.05 1.32-1.62 1.03-1.56.68-1.22.54-.93 4.23.51 1.13.3 1.33.36 2.62.85 2.35 1.45 2.59 1.49 2.45 1.53 2.1 1.24 1.52 1.14 1.86 1.4 1.25 1.19 1.31 1.39 1.94 1.68 1.15 1.17 1.28 1.14 1.07 1.05 3.76 3.43 3.38 2.15 3.77 1.96 3.22 1.22 3.09.88 3.52.74h5.67l2.1-.59 1.13-.63.83-.25.54.29.2.54v1.52l-.84 1.07-1.95 3.18-1.81 3.04-3.04 3.47-3.47 2.89-3.03 2.2-3.23 1.71-4.16 1.71-2.69.93-3.13 1.03-3.91.63-5.23.39h-9.05l-5.14-.78-5.33-1.27-3.57-1.47-4.65-2.1-4.06-2.35-3.03-2.35-2.49-2.25-3.09-2.93-2.1-2.5-2-2.29-1.96-2.55-.59-1.12-.44-.64-.51-.63-.56-.3-.74-.1-.34.1-.93.88-1.42 1.57-1.56 1.51-2.06 1.72-2.93 2.2-3.23 2.25-3.87 2.34-3.96 2.11-3.76 1.47-3.72 1.12-4.31.93-5.57.54h-7.44l-5.13-.74-4.5-1.07-3.57-1.08-5.29-2.15-4.06-2.15-2.78-1.96-2.74-2.3-1.71-1.76-2.35-2.49-1.67-2.45-1.36-2.3-1.03-1.81-1.03-2.69-.63-1.91-.54-1.85v-1.03z" class="st1"/><path d="m225.94 169.41 3.66-.42 4.34-.62 3.06-.26h8.42l3.55.26 3.39.39 3.65.82 3.04.71 1.43.6 1.31.9 1.17.82.82.47.26.21v-.75l-1.54-2.25-1.76-1.68-2.51-1.55-3-1.07-3.65-1.14-3.2-.69-3.19-.32-7.53.13-3.4.84-2.28.82-1.76.7-2.31 1.26-1.28.97z" style="fill:#454241"/><path d="m109.29 285.25 2.99.84 3.62.48 4.59.3 5.04-.49 4.4-1.13 4.06-2.05 2.6-1.91 2.54-2.64 1.96-2.69 1.22-3.13.73-2.3.44-2.1.34-2.15v-6.41l-.44-2.74-1.17-3.47-1.37-2.79-1.86-2.79-1.71-1.91-1.71-1.56-1.22-.79-.4-5.67-.85-4.06-1-3.03-1.18-2.45-1.32-2.44-1.91-2.89-1.61-1.37-2.06-.78-2.59-.44-3.18.59-1.76 1.12-1.27 1.96-1.08 2.54-.88 2.98-.49 3.04.49 9.68-2.15.74-2.4 1.32-2.29 1.61-2.06 1.86-1.74 2.33-1.34 2.19-.88 1.92-.98 2.22-.62 2.57v8.4l.39 2.15 1.05 3.13 1.43 2.87 1.7 2.94 1.69 2.28 2.02 2.28zm229.4 82 4.05-.52 3.71-1.24 3.2-1.89 2.54-2.35 1.31-1.7 1.37-2.61.58-2.08.33-1.89-.33-3.85-.97-2.09-2.29-3.59-3.58-4.1-4.7-4.37-3.91-3.46-3.72-2.94-3.52-2.54-2.28-1.56-1.96-1.24-1.63-.79 1.42-3.34 1.32-2.98.88-2.5.98-2.83.34-1.86.15-2.15-.1-1.91-.69-2.01-.97-2.25-2.06-3.27-1.96-2.79-2.78-3.33-2.99-3.08-.78-.78-.83-.3h-.88l-.93.3-.69.78-.39.98v.88l.98 1.32 1.91 2.35 2.54 3.18 2.79 3.42 1.91 2.94.68 1.95.3 1.37-.3 2.2-.39 2.06-1.07 3.03-1.47 3.62-1.57 4.21-1.22 3.47-1.03 2.04-1.22 2.31-1.27 2.99-.69 1.71-.88 2.34-.49 1.91-.49 2.15v3.97l.69 4.01.64 2.49.92 2.11.79 1.46.73 1.67 1.47 2.2 2.35 2.49 2.3 1.86 2.88 1.86 2.15 1.17 2.35.79 1.22.24 2.16.2 1.89.16z"/><path d="m169.44 278.01 1.24-1.08 1.21-.16 1.04.26.78.98-.26 2.84-1.21 5.64-1.04 4.5-1.11 5.61-1.11 6.1-.95 5.35-.85 5.12-.95 5.48-.59 4.3-.62 4.76-.59 4.43-.65 4.14-.62 4.96-.52 5.02-.55 4.76-1.09 9.24v5.28l-.39 9.49.49 1.05 1.09.82 2.27.82 3.96 1.22 4.6 1.08 4.16.98 5.23.93 5.67.83 6.46.83 6.31.64 6.41.54 6.91.65 7.24-.33 2.8-.98 2.41-1.37 2.02-1.7 2.15-2.22 1.3-2.35.72-2.02.78-2.67.33-2.74 1.96-39.91-3.65-3.85-4.63-4.11-2.8-2.54-3.59-3.39-3.46-3-5.35-4.89-4.96-4.63-4.96-4.57-3.52-3.39-3.46-3.33-4.17-3.72-2.48-2.41-2.15-2.28-.26-2.87.98-1.7 2.67-2.54 3.07-3.13-.53-.63-11.55-7.99-1.17-1.3.07-1.57.26-1.37.78-1.5 1.17-1.96 8.65-14.62 5 1.28-3.68 5.7-2.87 4.76-2.8 4.5-1.3 2.22.98 1.24 2.15 1.43 3.52 2.28 3.26 2.15 2.41 1.63 1.5 1.5.46.85-.13.78-.33 1.17-6.91 7.37-.26.44.37.71.83.76 11.05 9.93 8.61 8.09 6.65 6.65 7.17 6.33 7.7 6.97-32.57-75.97 5.48 1.03.41.08 1.9 4.76 1.26 2.84 7.44 18.02 23.43-21.07 5.42.31 4.4.24h.54l1.57 2.17 2.4 2.69 2.35 2.64 13.19 14.76 14.69-22.55 7.14-.57-8.23 12.07-5.48 8.46-4.45 6.9-26.51 42.65 5.77-4.01 5.09-3.72 6.46-4.6 6.26-4.7 6.85-4.79 7.04-5.18 6.55-5.09 7.53-5.48.15-.48-.29-.86-6.38-8.22-.05-1.15 1.08-1.42 1.91-1.22 2.98-1.52 10.74-4.6.15-.5-.24-.99-.7-1.32-5.97-12.57 1.74-.47 2.94-.94 1.38 2.82 1.37 3.42 1.66 3.67.98 2.45.83 1.66.29 1.42.2.79.15.83v1.04l-.1.72-.24.65-.78.65-1.76 1.17-11.93 5.29-.51.43.17.61.56.71 1.15 1.32 2.54 3.33 1.14 1.79.44.93-.02.82-.2 1.17-.52.65s-.98.75-1.04.77-.98.8-.98.8l-7.35 5.84-14.18 10.37-9.29 6.75-8.32 6.16-12.03 8.71-11.45 8.32-.75 17.25-1.04 19.86v5.61l.91 4.3 1.43 2.35 2.09 1.83 3.26 1.9 3.13.96 26.71.21 15.85-.49 14.02-.96 9.98-1.3 7.83-1.11 5.54-1.43 2.67-1.37 1.11-1.24.39-1.57-.06-10.24 2.15.2 1.89.16h1.21v8.06l-.36 4.37-.39 1.7-.78 1.04-1.79 1.43-2.84 1.37-4.04 1.39-3.59.7-2.61.39-1.96.39-.07 24.72-.2 11.22.26 12.78 2.87.78 3.72.98 2.35.91 2.41 1.24 3.55 3.16 1.76 2.15 1.7 2.93.49 1.66v3.72l-.26 1.7-1.11 1.7-1.7 1.83-1.37.78-2.67.91-3.65.33h-45.46l-3.26-.78-2.28-1.17-2.28-1.7-1.7-2.35-.82-2.33-.82-2.95s-.62-2.67-.62-2.77-1.52-6.2-1.52-6.2l-2.15-8.41-2.15-8.56-1.87-8.28-1.61-6.41-1.12-4.6-1.12-4.79h-20.89l-3.88 47.82-.72 4.19-.78 2.05-1.76 2.64-2.1 1.66-2.3 1.32-2.4.73-3.23.89H175.4l-3.29-.53-2.32-1.14-2.51-1.99-1.3-2.02-.46-2.15.2-3.16 2.02-4.01 1.57-2.25 2.54-2.54 4.11-2.15 2.74-1.12 2.35-.78 1.52-.29-4.12-50.76-6.63-1.37-5.55-1.54-4.52-1.49-3.35-1.74-1.81-1.3-1-1.27-.17-2.05.51-9.58.59-7.09.49-6.6.64-5.53 1.96-15.51 1.22-8.51 1.47-9.24 1.27-7.87 1.08-6.02 1.32-7.24 1.22-6.16 1.08-4.55.78-2.89.43-1.11Z"/><path d="m259.97 267.53-7.37 9.33 4.04 19.23 12.46-18.45zm-39.49 8.87 8.35 18.98 7.56-18.59-5.28-9.72z" class="st1"/><path d="m248.61 320.08 5.77-4.01 11.55-8.31 6.26-4.7 13.89-9.98 6.55-5.08 7.54-5.48.14-.48-.29-.86-6.38-8.22-.05-1.15 1.07-1.41 1.91-1.23 2.98-1.51 10.74-4.6.15-.5-.25-.99-.7-1.32-5.96-12.58-1.49.41-5.09 1.03-3.67.89-8.23 12.07-1.95 2.92-1.52 2.3-3.13 4.79-1.81 2.86-3.3 5.16-4.77 7.49-2.89 4.65-5.38 9.09-3.98 6.21zm-14.37.54-7.7-6.97-7.17-6.33-6.65-6.66-8.61-8.08-11.06-9.93-.83-.76-.36-.71.26-.44 6.91-7.37.46-1.95-.46-.85-1.5-1.5-5.67-3.78-5.68-3.72-.98-1.24 1.31-2.22 5.67-9.26 3.68-5.7 5.81 1.5 1.93 3.92 1.29 3.03 1.54 3.38 1.89 4.48 1.59 4.01 1.93 4.57 1.64 3.69 1.32 3.45 1.22 2.96 1.64 3.45 1.22 2.88 1.3 3.04 1.05 2.47.83 1.93 2.25 4.79 1.47 2.99 4.03 9.8 1.47 3.57 2.03 4.5.93 2.47z" style="fill:#014d42"/><path d="m109.29 285.25 2.99.84 3.62.48 4.59.3 5.04-.49 4.4-1.13 4.06-2.05 2.6-1.91 2.54-2.64 1.96-2.69 1.22-3.13.73-2.3 1.83-.66 2.47-1.73 2.13-2.28 1.51-1.93 3.09-3.72 4.56-5.29 3.72-3.65 4.18-3.65 4.17-3 3.39-2.15 3.98-2.16 3.2-1.48 4.89 1.72 4.7 1.32-8.66 14.61-1.95 3.46-.26 1.37-.07 1.56 1.17 1.31 11.55 7.99.54.63-3.07 3.13-2.67 2.54-.98 1.7.26 2.87 2.15 2.28 6.66 6.13 3.45 3.33 3.52 3.39 4.96 4.56 4.96 4.63 5.34 4.89 3.46 3 3.59 3.4 2.8 2.54 4.63 4.11 3.66 3.85-1.96 39.91-.33 2.74-.78 2.67-.72 2.02-1.3 2.35-2.15 2.22-2.03 1.69-2.41 1.37-2.8.98-7.24.33-6.92-.65-6.4-.54-6.31-.64-6.46-.83-5.67-.83-5.24-.93-4.15-.98-4.6-1.07-3.96-1.23-2.27-.82-1.09-.82-.49-1.05-.29-3.83.06-5.29.62-5.65.49-5.37.39-5.15.85-7.57 1.63-10.89 1.6-10.67 1.27-10 1.76-9.72 1.44-8.35 2.15-9.65.72-3.33.13-1.36-.52-.85-1.04-.58-1.2.16-1.24 1.07-.43 1.11-.79 2.89-1.07 4.55-1.22 6.16-1.33 7.24-1.07 6.02-1.16 7.17-3.47 1.81-4.06 1.57-3.25.93-4.65.63-6.97-.25-3.4-.78-3.78-1.27-2.9-1.5-1.92-1.18-2.35-1.82-1.86-1.96-4.27-4.17-3-3.82-1.7-2.77-1.5-2.67-2.4-4.83-1-2.67-.6-2.52zm209.18-42.6 4.09 1.72 4.56 2.08 3.85 2.35 4.5 3.29 3.71 2.71 8.22 7.44 3.62 3.43 3.06 3.62 3.49 3.65 4.86 5.9 3.18 4.01 4.74 7.18 2.32 4.14 1.47 3.49 1.09 2.82.72 2.67v6.52l-.46 3.79-1.17 5.47-2.03 6.26-2.41 5.09-2.74 4.24-5.08 6.13-6.96 7.71-2.91-4.92-3.58-4.1-4.7-4.37-3.91-3.46-3.72-2.94-3.52-2.54-2.28-1.56-1.96-1.24-1.63-.79 1.42-3.34 1.32-2.98.88-2.5.98-2.83.34-1.86.15-2.15-.1-1.91-.69-2.01-.97-2.25-2.06-3.27-1.96-2.79-2.78-3.33-2.99-3.08-.78-.78-.83-.3h-.88l-.93.3-.69.78-.39.98v.88l.98 1.32 1.91 2.35 2.54 3.18 2.79 3.42 1.91 2.94.68 1.95.3 1.37-.3 2.2-.39 2.06-1.07 3.03-1.47 3.62-1.57 4.21-1.22 3.47-1.03 2.04-1.22 2.31-1.27 2.99-.69 1.71-.88 2.34-.49 1.91-.49 2.15v3.97l.69 4.01.64 2.49.92 2.11.79 1.46.73 1.67 1.47 2.2 2.35 2.49 2.3 1.86 2.88 1.86 2.15 1.17 2.35.79 1.22.24.07 10.24-.39 1.57-1.11 1.24-2.68 1.37-5.54 1.43-7.83 1.11-9.97 1.3-14.03.97-15.84.48-26.71-.21-3.13-.96-3.26-1.91-2.09-1.82-1.43-2.35-.92-4.31v-5.6l1.05-19.86.75-17.25 1.4-.98 2.19-1.79 2.18-1.66 3.56-2.58 2.77-2.09 2.97-2.25 2.27-1.76 4.25-3.06 3.29-2.35 3.36-2.41 3-2.19 2.84-2.18 7.43-5.48 4.57-3.23 3.16-2.23 3.33-2.53 3.52-2.45 5.93-4.55 2.08-1.87.49-.67.48-.88.3-1.06-.09-.28-.35-.75-1.14-1.79-2.55-3.33-1.14-1.32-.57-.71-.17-.61.51-.43 1.69-.84 3.42-1.57 3.2-1.46 4.64-2.23 1.37-1.17.49-1.1.01-1.01v-.15l-.64-3.04-.83-1.67-.98-2.44-1.66-3.67-1.37-3.42-1.38-2.83 3.66-1.17 4.74-1.71z" style="fill:#0c5e4c"/><circle cx="250.81" cy="362.65" r="5.87"/><circle cx="251.85" cy="340.02" r="5.87"/></svg>