<?xml version="1.0" encoding="UTF-8"?>
<svg id="main" xmlns="http://www.w3.org/2000/svg" version="1.1" viewBox="0 0 500 500">
  <!-- Generator: Adobe Illustrator 29.8.1, SVG Export Plug-In . SVG Version: 2.1.1 Build 2)  -->
  <defs>
    <style>
      .st0 {
        fill: #6c6b6a;
      }

      .st1 {
        fill: #383837;
      }

      .st2 {
        fill: #454241;
      }

      .st3 {
        fill: #efe1d3;
      }

      .st4 {
        fill: #40413f;
      }

      .st5 {
        fill: #eee2d6;
      }

      .st6 {
        fill: #ece0d4;
      }

      .st7 {
        fill: #434140;
      }

      .st8 {
        fill: #e8ded3;
      }

      .st9 {
        fill: #3a3a3a;
      }

      .st10 {
        fill: #8a8686;
      }

      .st11 {
        fill: #ede1d4;
      }

      .st12 {
        fill: #eee3d4;
      }

      .st13 {
        fill: #ece2d6;
      }

      .st14 {
        fill: #838282;
      }

      .st15 {
        fill: #7d7b79;
      }
    </style>
  </defs>
  <polygon points="141.07 103.66 140.48 107.87 138.82 115.99 136.47 125.58 134.41 138.29 134.41 145.63 134.41 153.36 135.39 161.58 137.05 168.62 139.5 175.17 144.88 184.96 153.2 195.42 162.68 202.96 167.77 206.28 175.99 210.49 186.26 214.89 201.82 219.29 214.53 221.74 231.36 223.99 237.52 223.99 245.93 223.99 241.92 221.05 240.75 218.61 240.07 214.5 241.04 210.68 243.98 207.07 248.97 203.54 253.08 201.59 258.16 200.12 262.76 198.75 268.43 197.97 272.54 197.58 278.02 197.87 283.89 198.95 288.98 200.9 291.42 201.88 295.24 204.03 298.86 206.38 301.99 209.02 304.73 211.66 306.68 214.7 307.37 216.07 310.6 215.58 317.35 211.37 323.41 207.07 328.11 202.86 333.39 197.77 338.48 190.73 342 184.76 345.03 177.52 346.99 170.09 348.16 162.95 348.16 154.53 351.62 150.49 354.16 146.38 356.25 141.55 357.75 136.66 358.27 131.71 358.27 119.58 357.16 113.18 355.27 107.51 351.82 101.32 346.6 95.05 343.66 92.84 343.4 84.49 343.01 76.47 342.29 69.42 341.71 59.71 341.12 52.6 340.4 42.68 339.29 34.92 337.66 32.05 336.42 30.03 335.05 28.6 333.36 27.1 330.88 26.38 328.79 26.38 325.47 27.03 322.86 27.82 319.73 29.64 315.42 31.99 305.71 38.77 295.66 47.45 286.08 55.6 283.08 58.34 274.21 55.99 266.12 54.75 257.51 53.64 248.05 52.92 240.1 52.99 230.77 52.66 224.64 52.79 215.32 53.38 207.68 54.1 203.45 49.01 195.42 41.45 185.97 33.49 178.53 26.71 168.75 20.58 164.51 18.49 162.1 18.49 158.25 18.49 155.12 20.12 151.99 24.03 149.9 28.47 148.66 33.95 146.51 45.62 145.86 54.29 145.01 66.29 144.36 78.16 143.84 89.38 142.34 99.36 141.07 103.66"/>
  <polygon class="st10" points="145.84 114.29 149.32 115.96 155.82 118.26 161.54 120.02 166.92 121.83 167.51 127.55 168.68 133.08 170.98 138.9 174.36 144.91 178.66 149.9 185.02 155.09 189.52 157.63 194.9 159.73 200.58 161.2 205.61 161.59 210.8 161.59 221.32 153.82 228.02 149.66 234.28 146.43 238.48 145.26 241.96 144.67 245.67 137.67 248.07 131.22 248.9 126.62 248.9 122.46 253.79 120.11 257.36 118.79 260.59 118.3 265.04 118.16 268.13 118.7 272.43 119.92 275.41 121.24 276.49 121.88 276.49 127.7 276.93 132.49 277.96 136.06 279.03 139.78 280.45 143.49 281.53 145.6 285.64 146.97 289.5 148.83 292.53 150.93 295.86 153.42 299.33 156.16 303.83 160.96 306.86 163.7 309.75 166.24 317.23 166.24 322.86 165.55 327.65 164.38 332.59 162.62 336.9 160.47 340.03 158.22 343.11 155.82 346.39 152.01 348.59 148.97 351.18 144.33 353.18 139.14 354.36 134.25 355.04 128.43 355.04 120.99 353.92 114.29 351.42 107.3 347.8 101.23 342.38 95.22 334.89 89.93 328.04 87.15 322.08 85.63 311.27 85.63 301.48 88.17 296.45 91.01 289.11 96.2 284.85 101.04 280.65 106.76 278.15 114.73 273.41 112.88 268.17 111.26 262.35 111.02 258.44 111.41 254.28 112.19 249.29 114.39 247.24 107.69 244.94 102.16 241.43 96.49 236.35 90.68 230.48 86.25 224.02 82.79 217.63 80.45 212.41 79.73 203.28 79.73 195.91 81.42 189.78 83.9 184.04 87.68 178.43 92.45 173.09 99.03 170.02 105.16 168.33 110.18 167.74 113.12 167.41 115.34 161.02 113.71 152.54 111.36 149.48 110.51 147.85 110.45 147.03 110.53 146.58 111.08 145.99 111.64 145.7 112.24 145.55 112.97 145.55 113.74 145.84 114.29"/>
  <circle cx="208.79" cy="120.79" r="33.26"/>
  <ellipse cx="316.38" cy="125.82" rx="31.76" ry="32.94"/>
  <ellipse class="st8" cx="211.16" cy="125.33" rx="21.33" ry="20.19"/>
  <ellipse class="st8" cx="311.53" cy="129.28" rx="20.35" ry="19.76"/>
  <ellipse cx="216.07" cy="126.36" rx="10.55" ry="12.87"/>
  <ellipse cx="308.27" cy="129.96" rx="10.55" ry="12.87"/>
  <polygon class="st1" points="247.52 144.15 252.02 143.49 255.8 143.1 259.91 142.83 263.36 142.83 266.95 143.2 269.36 143.82 273.02 144.8 274.97 145.39 276.31 146.2 277.06 146.2 275.72 144.73 274.29 143.07 271.88 141.21 268.68 139.94 265.65 138.93 263.1 138.7 257.69 138.7 255.15 138.99 252.57 139.97 250.3 140.98 248.66 142.45 247.52 144.15"/>
  <polygon class="st11" points="185.09 166.24 184.29 167.03 184.19 171.32 185.4 173.4 186.57 175.59 188.43 178.23 191.46 181.43 193.81 183.58 197.07 186.02 200.4 187.85 205.35 189.94 209.66 191.18 214.81 192.15 217.81 192.48 226.94 192.48 231.9 192.02 237.38 190.85 241.09 189.42 245.01 187.2 248.85 184.65 251.46 182.5 254.53 179.7 257.14 177.15 258.96 175.26 259.48 174.81 261.83 174.74 263.2 176.05 264.96 178.26 266.53 180.09 268.68 182.37 270.7 184.26 272.92 186.29 275.72 188.5 278.98 190.33 281.92 191.76 284.62 192.81 287.85 193.79 291.18 194.31 296.33 194.31 301.16 194.31 305.07 193.59 309.11 192.42 313.42 190.85 317.01 188.96 319.88 187 322.61 184.92 325.74 181.65 327.51 178.85 328.42 176.96 328.68 175.98 328.68 172.72 327.9 171.81 326.33 172.39 324.18 173.5 316.38 173.63 313.55 172.85 309.9 171.42 306.11 168.74 301.22 164.57 297.11 160.52 292.68 156.42 290.27 154.52 287.98 152.96 285.51 152.05 283.03 151.13 281.14 150.74 278.14 150.74 276.31 154.39 273.9 157.46 271.35 160.33 269.14 162.48 267.18 163.65 265.55 164.5 264.18 165.02 259.03 165.09 257.07 163.98 254.46 162.22 252.24 160.07 250 157.07 248.14 154.46 246.34 151.79 245.53 149.76 245.46 149.04 242.05 149.04 238.61 149.83 235.68 150.74 232.88 151.65 230.01 153.09 227.01 154.72 224.1 156.6 221.53 158.52 218.53 160.83 215.49 162.95 212.27 164.88 209.17 166.51 206.85 167.65 204.7 168.63 203.14 169.25 201.64 169.77 200.17 170.06 198.38 170.65 194.2 170.62 191.72 170.19 189.83 169.44 188.4 168.73 186.99 167.75 186.11 166.87 185.56 166.24 185.09 166.24"/>
  <polygon points="124.53 458.55 123.55 459.73 122.87 461.1 122.87 468.73 123.7 470.88 125.02 471.86 125.77 472.17 126.33 472.36 229.92 473.11 232.37 473.11 236.38 473.11 240.29 473.11 250.08 472.61 281.14 471.38 315.96 469.52 327.8 468.64 328.45 468.58 329.76 466.52 330.7 464.54 331.71 462.06 332.46 459.71 333.15 456.84 333.78 452.45 333.78 449.06 333.78 441.89 333.39 438.24 332.87 434.19 332.02 430.74 330.59 426.82 329.28 424.21 327.85 422.26 326.74 421.8 312.98 421.8 308.22 426.92 305.28 427.83 296.87 427.77 294.65 426.79 291.59 425.36 291.2 424.7 265.89 424.57 264.85 427.38 262.63 429.86 260.09 431.55 257.61 432.27 250 432.27 246.07 431.75 242.54 430.83 239.87 429.86 238.43 429.73 235.79 425.33 233.89 424.01 231.64 423.03 228.02 421.8 195.98 421.8 194.51 419.36 192.75 416.33 191.28 413.25 190.45 410.76 189.91 406.26 190.16 401.02 190.99 395.69 191.72 392.56 194.35 385.17 196.14 380.51 198.1 375.16 199.21 371.05 200.12 365.43 200.18 363.41 200.18 354.93 200.05 353.36 135.82 353.82 121.08 354.02 115.47 354.15 113.9 354.67 112.99 355.32 112.47 356.23 112.14 358.13 112.14 362.49 112.79 364.13 114.16 365.3 115.6 366.02 116.58 366.08 117.75 366.21 118.09 366.24 118.11 370.63 118.16 380.36 116.35 380.51 114.49 380.75 112.98 381.39 112.14 382.32 111.71 383.49 111.46 384.42 111.46 390 112 391.03 112.83 392.05 113.37 392.69 113.96 393.13 130.05 393.13 129.22 395.87 128.29 398.75 127.46 401.2 127.11 403.4 127.16 405.21 127.11 407.66 127.65 410.98 128.24 412.55 128.97 414.95 129.71 416.75 130.24 417.98 130.73 419.25 131.37 420.37 126.77 420.77 125.16 421.06 124.33 421.3 123.4 422.33 122.76 423.55 122.32 425.22 122.42 431.82 122.91 432.9 124.18 434.36 125.3 435.05 126.72 435.29 128.34 435.39 129.56 435.44 129.95 435.39 129.95 445.47 129.95 450.41 129.9 452.71 129.8 454.37 129.56 455.49 129.07 457.3 129.02 458.09 125.21 458.28 124.53 458.55"/>
  <polygon class="st0" points="126.01 462.42 126.01 468.24 231.86 469.41 233.59 466.12 235.29 462.42 236.2 459.37 237.01 456.33 237.34 453.82 237.34 441.59 236.88 438.04 236.2 435.66 235.35 433.05 233.85 429.63 233.04 427.83 232.06 426.5 230.79 426.07 228.93 425.65 226.64 425.39 224.72 425.39 221.98 425.04 219.8 424.82 218.29 424.82 126.01 424.82 126.01 430.65 126.3 431.19 126.49 431.68 224.42 430.8 225.79 432.84 226.75 434.76 227.19 436.17 227.52 437.71 227.76 439.34 228.05 441.46 228.27 443.57 228.36 444.61 228.33 446.57 228.36 449.96 228.33 452.63 227.97 455.86 227.16 458.73 225.98 461.7 225.36 462.87 126.01 462.42"/>
  <polygon class="st0" points="237.45 469.14 247.16 468.99 258.98 468.6 278.22 467.82 285.51 467.5 307.88 466.14 325.98 465.26 326.86 463.99 327.64 461.84 328.81 458.51 329.6 455.18 330.09 452.25 330.09 449.61 330.09 447.11 330.09 441.29 330.09 438.75 329.4 435.42 328.72 432.39 327.74 429.55 326.66 427.3 325.78 426.03 324.8 425.25 309.77 425.25 308.22 426.92 306.74 427.38 305.28 427.83 303.19 427.82 300.64 427.8 297.71 427.78 296.04 427.4 294.65 426.79 292.9 425.97 292.02 425.56 291.2 424.7 265.89 424.57 265.07 426.52 264.21 427.97 262.9 429.55 261.89 430.35 260.44 431.32 258.94 431.89 257.2 432.27 254.9 432.27 252.99 432.27 250 432.27 248.55 432.08 247.22 431.9 246.07 431.75 244.39 431.31 242.83 430.91 241.69 430.52 240.67 430.15 240.1 429.94 239.65 429.84 238.96 429.77 238.43 429.73 239.15 432.21 239.69 434.07 240.32 436.47 240.96 441.36 241.11 443.49 241.25 445.88 241.22 451.12 241.02 455.38 240.34 458.85 238.68 464.82 237.45 469.14"/>
  <polygon class="st3" points="132.93 458.66 222.34 459.18 223.12 457.81 223.71 455.46 224.3 452.98 224.3 450.64 224.3 443.92 224.3 441.96 223.84 439.48 223.25 436.94 222.62 435.18 165.4 435.5 132.93 435.64 133.45 437.27 133.51 438.5 133.58 439.68 133.64 440.79 133.73 448.83 133.53 450.16 133.33 452.8 132.93 455.71 132.84 456.84 132.84 458.66 132.93 458.66"/>
  <polygon class="st7" points="136.86 420.14 135.54 418.33 134.46 416.27 133.14 413.24 132.41 410.26 131.96 406.39 131.96 402.43 132.5 398.96 133.43 395.92 134.41 393.63 135.39 392.11 156.18 392.11 191.88 392.11 191.39 393.97 190.99 395.69 190.71 397.48 190.35 399.76 190.11 401.98 190 404.45 190.09 407.71 190.31 409.59 190.91 412.13 191.77 414.28 192.62 416.07 193.7 417.97 194.98 420.14 195.42 420.88 136.86 420.14"/>
  <polygon class="st4" points="114.71 384.81 114.71 389.11 192.95 389.11 193.5 387.57 194.35 385.17 195.42 382.38 196.53 379.45 197.5 376.81 198.44 373.89 199.21 371.05 199.74 367.76 200.12 365.43 200.12 355.65 116.33 357.32 116.23 362.21 190.29 361.23 190.68 381.97 190.09 382.95 189.01 383.44 187.45 383.73 114.71 384.22 114.71 384.81"/>
  <polygon class="st5" points="121.91 365.92 121.91 380.99 186.6 380.34 186.6 364.82 121.91 365.92"/>
  <polygon points="195.98 421.8 193.7 417.97 190.73 411.36 189.91 406.26 190.35 399.76 191.39 393.97 192.77 389.62 195.42 382.38 198.71 372.9 200.12 364.42 200.12 357.38 200.05 353.36 141.05 353.78 139.48 352.1 137.23 349.46 135.08 345.94 133.51 342.61 132.73 339.58 132.73 338.11 124.91 337.13 120.8 336.06 120.8 324.32 121.48 317.57 122.66 307.78 124.22 297.02 126.37 286.46 128.92 276.87 131.46 266.7 135.18 255.64 139.09 244 143.2 234.02 147.7 224.63 153.76 214.46 157.09 210.06 159.24 207.81 163.7 203.62 167.08 205.83 172.53 208.72 179.35 211.93 186.26 214.89 193.74 217.01 200.48 218.92 207.74 220.43 215.68 221.89 221.23 222.63 230.36 223.99 240.93 223.99 245.93 223.99 243.82 222.44 241.92 221.05 240.55 217.39 240.07 214.5 241.04 210.68 243.98 207.07 248.97 203.54 253.08 201.59 257.71 200.25 262.16 198.93 264.72 198.48 268.43 197.97 273.5 197.63 277.42 197.84 282.7 198.73 283.89 198.95 286.42 199.92 289.4 201.07 292.53 202.51 296.75 205.02 299.3 206.75 301.32 208.46 303.4 210.39 304.73 211.66 305.95 213.56 307.37 216.07 310.6 215.58 311.95 219.54 315.27 226.39 318.7 234.61 320.56 241.46 321.73 250 321.73 259.65 321.73 269.63 320.85 277.85 319.48 285.19 317.92 290.08 314.3 295.65 311.46 300.35 308.82 302.31 314.88 305.24 318.01 308.27 320.85 311.5 323.69 316.88 324.47 319.82 325.06 324.71 324.57 330.67 321.63 339.67 317.23 348.28 306.57 367.36 301.38 376.16 297.37 383.11 295.51 387.61 294.54 390.06 294.63 391.33 296 393.09 299.04 394.65 304.61 398.37 308.33 402.09 311.26 406.39 312.93 409.52 313.61 412.56 313.91 415 314.1 417.06 313.71 419.5 312.98 421.8 311.49 423.4 310.27 424.72 309.39 425.66 308.22 426.92 305.28 427.83 297.44 427.72 296.04 427.4 293.92 426.59 292.9 425.97 291.59 425.36 290.92 424.73 287.88 424.64 265.89 424.57 265.37 425.82 264.83 426.93 264.21 427.97 263.09 429.32 262.63 429.86 261.89 430.35 260.44 431.32 258.94 431.89 257.61 432.27 250 432.27 246.07 431.75 243.73 431.13 242.54 430.83 241.69 430.52 240.67 430.15 239.87 429.86 238.96 429.77 238.43 429.73 237.1 427.26 235.79 425.33 234.7 424.57 233.89 424.01 231.64 423.03 228.02 421.8 195.98 421.8"/>
  <path d="M221.45,224.28c3.15.38,6.3.75,9.45,1.13.78.09,1.53-.76,1.5-1.5-.04-.89-.66-1.4-1.5-1.5-3.15-.38-6.3-.75-9.45-1.13-.78-.09-1.53.76-1.5,1.5.04.89.66,1.4,1.5,1.5h0Z"/>
  <path d="M243.38,220.15c-.38-.42-.74-.86-1.09-1.31l.23.3c-.1-.13-.19-.26-.26-.41l.15.36c-.1-.25-.13-.53-.17-.8-.05-.28-.09-.56-.14-.85-.06-.35-.4-.73-.69-.9-.32-.19-.8-.27-1.16-.15s-.71.34-.9.69l-.15.36c-.07.27-.07.53,0,.8.12.74.16,1.57.58,2.21.24.37.53.7.81,1.04.21.26.43.52.66.77.25.28.7.44,1.06.44s.81-.16,1.06-.44.46-.66.44-1.06-.16-.75-.44-1.06h0Z"/>
  <path d="M274.01,196.3c-2.5.17-5,.43-7.49.76-1.29.17-2.57.36-3.85.58-1.16.19-2.26.39-3.32.91-.73.36-.93,1.39-.54,2.05.43.74,1.32.9,2.05.54.86-.43,1.93-.5,2.86-.66,1.11-.18,2.21-.35,3.32-.5,2.31-.3,4.63-.53,6.95-.69.81-.06,1.5-.65,1.5-1.5,0-.77-.69-1.56-1.5-1.5h0Z"/>
  <path d="M275.33,199.12c1.18.07,2.36.14,3.53.29.07,0,.13.02.2.03-.18-.02-.18-.02,0,0,.13.02.26.04.39.06.28.05.57.1.85.16.59.12,1.16.28,1.73.47.75.25,1.67-.29,1.85-1.05.19-.83-.25-1.58-1.05-1.85-2.41-.8-4.98-.96-7.5-1.11-.78-.05-1.53.72-1.5,1.5.04.85.66,1.45,1.5,1.5h0Z"/>
  <path d="M287.47,201.54c2.99.9,5.83,2.2,8.47,3.88,1.33.85,2.36,1.74,3.35,2.97s2.07,2.48,3.27,3.58c1.42,1.3,3.55-.81,2.12-2.12-1.23-1.13-2.31-2.4-3.36-3.69-1.11-1.37-2.39-2.38-3.87-3.32-2.84-1.82-5.96-3.21-9.18-4.19-1.85-.56-2.64,2.34-.8,2.89h0Z"/>
  <path d="M304.81,214.56c.3,1,.53,2.02.7,3.05.06.35.4.73.69.9.32.19.8.27,1.16.15s.71-.34.9-.69l.15-.36c.07-.27.07-.53,0-.8-.17-1.03-.41-2.05-.7-3.05-.11-.37-.36-.7-.69-.9s-.8-.27-1.16-.15-.71.34-.9.69-.27.76-.15,1.16h0Z"/>
  <polygon class="st9" points="214.14 338.49 213.21 339.22 212.53 341.76 211.3 347.29 209.93 353.36 208.66 358.2 206.95 365.09 204.75 373.51 202.25 381.92 200.12 387.69 197.95 393.46 196.53 398.06 195.89 399.82 195.42 406.49 197.31 410.78 199.22 413.24 201.52 415.62 204.16 417.33 208.07 419.44 211.99 420.66 215.22 421.8 222.16 421.8 219.32 420.37 215.56 418.65 211.25 416.94 207.73 414.89 204.85 413.24 202.45 410.53 201.08 408.33 199.91 405.15 199.91 402.37 201.86 394.93 203.87 389.45 206.61 380.99 208.79 374.44 210.91 366.32 213.11 358.44 214.87 351.99 216.14 346.31 216.83 341.86 216.73 340.49 216.63 339.37 216.05 338.68 215.06 338.33 214.14 338.49"/>
  <polygon class="st9" points="269.64 419.46 269.31 420.24 268.37 420.24 267.71 419.85 267.06 419 266.54 416.13 265.76 412.35 264.71 410.46 262.43 407 259.33 404.2 254.57 400.94 250.3 398.75 249.81 397.97 250 396.6 250 394.77 250.53 393.31 251.51 389.07 252.62 383.72 254.51 378.34 256.01 374.03 257.7 369.86 259.95 364.12 261.94 359.03 264.29 354.05 265.72 350.36 266.25 348.4 266.57 347.65 267.26 347.39 268.23 347.39 268.63 348.11 268.92 349.64 267.75 354.8 265.56 361.25 263.15 366.86 261.32 371.91 259.72 377.26 258 382.38 256.1 388.15 254.83 392.39 254.41 393.4 254.12 394.19 254.08 395.26 254.38 396.11 255.65 397.15 257.02 397.94 259.2 399.05 262.69 402.14 266.08 405.83 268.56 410.16 269.44 414.18 269.64 415.84 269.64 417.96 269.64 419.46"/>
  <polygon class="st15" points="271.97 326.21 273.09 326.9 273.63 329.44 273.63 335.41 272.26 339.13 270.94 342.11 269.64 344.7 268.59 346.12 267.32 347.15 266.25 347.39 266.25 344.85 267.27 342.89 268.1 340.99 269.03 338.64 269.64 336.44 269.94 334.43 269.94 327.83 270.4 326.85 271.19 326.21 271.97 326.21"/>
  <polygon class="st15" points="271.27 347.72 273.63 347.72 277.69 346.84 281.83 345.11 285.75 342.99 288.88 340.38 290.77 338.43 292.01 336.53 293.54 332.88 294.26 328.9 294.45 326.21 294.45 322.12 294.09 320.33 293.28 317.91 291.97 314.56 291.16 312.63 290.21 311.39 289.5 310.94 288.29 310.94 287.6 311.88 287.67 313.12 288.48 315.44 289.79 318.7 290.28 320.23 290.87 322.19 290.96 330.7 289.3 335.2 288.35 336.53 286.69 338.16 285.22 339.73 283.95 340.58 282.86 341.07 283.98 337.55 284.7 334.09 284.67 330.01 284.57 326.21 284.31 324.86 283.92 323 283.17 320.85 282.62 319.48 281.7 318.53 280.37 318.96 279.42 319.81 279 321.73 279.45 323.52 280.4 325.71 280.79 327.63 280.69 334.25 279.88 337.64 279.06 339.53 277.43 342.53 276.09 343.94 274.56 345.24 273.26 346.25 272.21 347.1 271.27 347.72"/>
  <polygon class="st13" points="231.27 308.88 239.95 310.64 240.53 307.97 242.03 303.47 243.99 299.36 246.47 295.38 248.82 292.06 251.1 289.51 254.03 286.51 245.75 282.27 241.71 285.21 238.71 288.86 235.9 292.71 233.95 296.16 232.32 299.62 231.27 303.34 230.96 304.39 230.96 308.87 231.27 308.88"/>
  <polygon class="st2" points="125.53 332.78 131.35 333.37 135.85 332.78 140.98 331.12 145.58 328.23 152.58 323.29 161.28 316.59 166.47 313.02 174.29 308.67 178.99 306.17 182.02 304.8 183.73 304.12 179.48 300.94 177.03 300.94 171.41 302.94 164.9 305.29 158.49 307.44 154.39 308.67 152.28 309.2 149.89 309.01 149.3 307.88 149.35 306.66 150.23 305.63 151.7 305 155.41 303.82 160.6 302.26 167.3 300.35 175.71 297.71 171.31 291.69 167.4 285.63 165.64 281.52 163.24 277.12 161.09 271.79 159.23 266.36 157.37 260.98 155.71 256.13 154.63 251.24 154.29 248.99 153.99 246.94 154.14 245.23 154.29 244.39 154.92 243.81 155.65 243.66 156.28 243.66 156.9 243.85 157.76 244.75 157.97 245.65 158.56 248.03 159.52 251.26 161.21 257.8 162.77 263.18 165.27 269.49 167.81 275.51 170.8 281.47 173.73 286.51 176.86 291.4 179.4 294.83 182.88 297.96 186.79 300.6 192.9 303.44 197.36 304.81 204.94 306.08 210.56 306.96 218.34 308.28 222.55 308.72 226.46 309.06 226.46 306.47 226.46 304.07 227 300.89 228.02 297.27 229.83 293.51 232.77 288.76 235.51 284.95 237.02 283.24 238.83 281.57 230.62 278.39 224.8 276.78 216.14 274.77 210.27 273.4 203.71 272.57 199.75 271.79 197.99 271.01 197.7 270.22 197.8 268.86 198.43 267.63 199.85 267.34 202.25 267.58 206.5 268.32 209.73 268.86 205.72 263.03 197.11 248.07 194.67 243.27 193.79 241.51 193.2 240.19 192.86 239.07 193 238.04 193.79 237.36 194.62 236.72 195.25 236.23 195.37 235.57 194.88 235.3 194 234.79 192.73 234.18 188.03 231.51 187.76 229.97 187.61 227.5 187.37 224.47 186.26 214.89 183.68 213.79 181.4 212.81 179.02 211.77 176.52 210.76 174.17 209.72 172.61 209 170.65 208.09 169.48 207.37 168.17 206.65 167.39 206.2 165.56 207.18 162.89 209.85 159.43 214.35 156.04 218.98 152.06 226.48 148.34 233.91 144.82 242.46 140.57 254.02 137.58 262.38 134.4 273.14 132.74 279.45 131.13 286.89 129.86 293.2 128.58 300.78 127.31 309.34 126.73 314.95 125.99 320.64 125.67 324.36 125.53 329.76 125.53 332.78"/>
  <polygon class="st2" points="217 270.25 231.81 273.64 228.48 266.73 225.15 260.21 222.35 254.08 219.61 246.9 216.15 238.49 212.83 230.73 210.09 223.99 208.91 220.65 201.82 219.29 199.17 218.54 195.2 217.42 192.63 216.69 190.79 216.17 192.55 229.49 195.55 230.99 198.42 231.71 200.37 232.55 201.35 233.47 201.61 234.71 201.09 236.01 199.79 237.58 198.55 240.12 198.48 241.23 206.44 254.99 212.57 264.9 215.96 269.78 217 270.25"/>
  <polygon class="st2" points="246.02 277.98 253.59 280.26 268.07 254.63 266.31 254.63 263.76 253.98 261.22 253.26 259.52 252.67 258.29 252.09 246.02 277.98"/>
  <polygon class="st2" points="256.8 282.27 259.79 283.52 261.59 284.21 262.92 285.04 263.94 285.53 277.2 254.17 273.92 252.61 270.15 259.65 267 265.47 263.31 271.78 260.27 276.62 258.02 280.26 256.8 282.27"/>
  <polygon class="st2" points="278.14 262.02 275.31 275.42 275.31 276.92 276.12 278.09 277.2 278.42 278.57 277.9 279.32 276.95 280.07 273.75 280.92 269.22 281.83 266.17 283.56 266.17 285.25 266.87 287.54 267.59 289.72 268.18 293.6 268.15 303.9 267.56 307.85 266.42 312.81 264.75 316.13 262.83 317.31 262.02 317.67 261.79 317.67 268.44 317.24 272.97 316.49 278.19 315.42 284.06 313.85 288.85 311.5 293.38 308.47 298.21 305.31 300.88 303.42 302.58 301.2 304.05 298.46 305.25 296.67 306.04 293.67 306.79 291.77 307.21 289.2 307.21 288.06 304.9 286.23 302.38 284.57 300.23 282.25 298.21 280.2 296.38 277.92 294.49 275.6 292.6 273.42 291.2 270.9 289.73 269.44 288.95 267.48 288.3 271.23 279.49 273.84 273.13 275.86 267.75 277.2 263.91 278.14 262.02"/>
  <polygon class="st12" points="283.48 255.92 282.64 258.17 282.64 260.42 282.64 261.79 283.72 262.52 285.63 263.3 287.68 263.74 291.2 264.33 295.85 264.33 301.62 264.33 305 263.5 308.81 262.23 313.21 260.37 316.1 258.71 317.91 256.94 317.91 248.87 315.27 250.78 311.36 253.08 307.39 254.74 304.26 255.67 299.96 256.94 296.54 257.43 290.32 257.58 288.32 257.24 285.97 256.6 284.45 256.02 283.48 255.92"/>
  <polygon class="st14" points="286.25 249.1 285.46 250 284.16 250.73 282.37 250.73 280.18 250.44 277.57 249.1 274.34 247.02 272 245.12 270.01 243.13 269.45 242.19 269.45 240.69 270.27 240.33 271.15 240.33 271.96 240.33 273.4 241.6 275.42 243.46 277.67 245.12 279.82 246.49 281.65 247.44 283.8 248.25 285.2 248.68 286.25 249.1"/>
  <polygon class="st14" points="266.8 247.63 269.45 247.78 270.76 247.78 271.25 248.42 271.25 249.4 270.46 250 269.45 250.37 263.67 250.37 260.78 249.54 257.55 247.63 255.64 246.12 254.13 243.97 252.02 240.69 251.19 238.63 251.19 235.6 251.19 230.76 252.25 227.38 253.33 225.09 253.77 223.99 247.51 223.9 244.81 223.17 242.91 221.61 241.72 220.5 240.84 218.98 240.22 216.87 240.22 214.81 240.66 211.83 242.32 208.85 243.98 207.07 247.31 204.3 250.72 202.71 253.8 201.22 257.57 199.68 263.17 198.23 266.93 197.63 269.18 197.34 276.58 197.34 281.32 198.35 284.73 199.27 288.71 200.54 290.76 201.39 293.4 202.76 295.74 204.06 297.61 205.2 298.86 206.38 300.32 207.81 302.89 209.8 304.56 211.76 305.91 213.7 306.61 215.04 307.31 216.39 307.66 217.42 307.94 218.4 308.15 219.1 308.06 219.53 307.29 219.34 306.61 218.78 305.45 217.73 304.48 216.47 302.85 214.98 301.86 214.16 297.21 210.08 292.29 206.73 289.03 205.16 286.19 204.02 279.15 202.23 275.72 201.77 265.61 201.74 261.9 202.65 257.79 203.76 254 205.1 248.66 208.42 245.27 211.39 243.99 213.61 243.67 214.78 243.63 215.92 244.12 217.13 244.78 218.37 245.69 219.7 246.9 220.55 248.56 221.21 250.16 221.21 254.04 221.21 255.7 220.72 257.85 219.53 260.27 217.85 262.52 216.54 264.21 215.79 264.93 215.43 265.94 215.3 266.88 215.33 267.44 215.66 267.96 216.17 268.06 216.9 267.9 217.42 267.05 218.11 264.24 219.15 260.82 221.21 258.54 223.34 256.48 225.9 255.05 228.83 254.43 229.88 253.91 231.25 253.91 237.18 254.33 238.72 255.11 239.95 255.5 240.64 257.4 243.08 258.54 244.39 260.07 245.27 261.47 246.15 263.2 246.97 264.63 247.39 266.07 247.68 266.8 247.63"/>
  <polygon class="st6" points="236.33 242.55 229.68 257.42 223.91 244.21 233.69 234.18 236.33 242.55"/>
  <polygon class="st6" points="221.95 239.27 236.92 224.74 214.53 221.74 221.95 239.27"/>
  <polygon class="st6" points="250.24 258.02 255.42 245.8 254.37 244.31 253.48 242.96 252.42 241.31 251.69 239.87 251.27 238.82 251.19 238.36 247.56 243.57 250 258.02 250.24 258.02"/>
</svg>