<svg xmlns="http://www.w3.org/2000/svg" id="main" viewBox="0 0 500 500"><defs><style>.st2{fill:#454241}.st8{fill:#e8ded3}.st14{fill:#838282}</style></defs><path d="m141.07 103.66-.59 4.21-1.66 8.12-2.35 9.59-2.06 12.71v15.07l.98 8.22 1.66 7.04 2.45 6.55 5.38 9.79 8.32 10.46 9.48 7.54 5.09 3.32 8.22 4.21 10.27 4.4 15.56 4.4 12.71 2.45 16.83 2.25h14.57l-4.01-2.94-1.17-2.44-.68-4.11.97-3.82 2.94-3.61 4.99-3.53 4.11-1.95 5.08-1.47 4.6-1.37 5.67-.78 4.11-.39 5.48.29 5.87 1.08 5.09 1.95 2.44.98 3.82 2.15 3.62 2.35 3.13 2.64 2.74 2.64 1.95 3.04.69 1.37 3.23-.49 6.75-4.21 6.06-4.3 4.7-4.21 5.28-5.09 5.09-7.04 3.52-5.97 3.03-7.24 1.96-7.43 1.17-7.14v-8.42l3.46-4.04 2.54-4.11 2.09-4.83 1.5-4.89.52-4.95v-12.13l-1.11-6.4-1.89-5.67-3.45-6.19-5.22-6.27-2.94-2.21-.26-8.35-.39-8.02-.72-7.05-.58-9.71-.59-7.11-.72-9.92-1.11-7.76-1.63-2.87-1.24-2.02-1.37-1.43-1.69-1.5-2.48-.72h-2.09l-3.32.65-2.61.79-3.13 1.82-4.31 2.35-9.71 6.78-10.05 8.68-9.58 8.15-3 2.74-8.87-2.35-8.09-1.24-8.61-1.11-9.46-.72-7.95.07-9.33-.33-6.13.13-9.32.59-7.64.72-4.23-5.09-8.03-7.56-9.45-7.96-7.44-6.78-9.78-6.13-4.24-2.09h-6.26l-3.13 1.63-3.13 3.91-2.09 4.44-1.24 5.48-2.15 11.67-.65 8.67-.85 12-.65 11.87-.52 11.22-1.5 9.98z"/><path d="m145.84 114.29 3.48 1.67 6.5 2.3 5.72 1.76 5.38 1.81.59 5.72 1.17 5.53 2.3 5.82 3.38 6.01 4.3 4.99 6.36 5.19 4.5 2.54 5.38 2.1 5.68 1.47 5.03.39h5.19l10.52-7.77 6.7-4.16 6.26-3.23 4.2-1.17 3.48-.59 3.71-7 2.4-6.45.83-4.6v-4.16l4.89-2.35 3.57-1.32 3.23-.49 4.45-.14 3.09.54 4.3 1.22 2.98 1.32 1.08.64v5.82l.44 4.79 1.03 3.57 1.07 3.72 1.42 3.71 1.08 2.11 4.11 1.37 3.86 1.86 3.03 2.1 3.33 2.49 3.47 2.74 4.5 4.8 3.03 2.74 2.89 2.54h7.48l5.63-.69 4.79-1.17 4.94-1.76 4.31-2.15 3.13-2.25 3.08-2.4 3.28-3.81 2.2-3.04 2.59-4.64 2-5.19 1.18-4.89.68-5.82v-7.44l-1.12-6.7-2.5-6.99-3.62-6.07-5.42-6.01-7.49-5.29-6.85-2.78-5.96-1.52h-10.81l-9.79 2.54-5.03 2.84-7.34 5.19-4.26 4.84-4.2 5.72-2.5 7.97-4.74-1.85-5.24-1.62-5.82-.24-3.91.39-4.16.78-4.99 2.2-2.05-6.7-2.3-5.53-3.51-5.67-5.08-5.81-5.87-4.43-6.46-3.46-6.39-2.34-5.22-.72h-9.13l-7.37 1.69-6.13 2.48-5.74 3.78-5.61 4.77-5.34 6.58-3.07 6.13-1.69 5.02-.59 2.94-.33 2.22-6.39-1.63-8.48-2.35-3.06-.85-1.63-.06-.82.08-.45.55-.59.56-.29.6-.15.73v.77z" style="fill:#8a8686"/><circle cx="208.79" cy="120.79" r="33.26"/><ellipse cx="316.38" cy="125.82" rx="31.76" ry="32.94"/><ellipse cx="211.16" cy="125.33" class="st8" rx="21.33" ry="20.19"/><ellipse cx="311.53" cy="129.28" class="st8" rx="20.35" ry="19.76"/><ellipse cx="216.07" cy="126.36" rx="10.55" ry="12.87"/><ellipse cx="308.27" cy="129.96" rx="10.55" ry="12.87"/><path d="m247.52 144.15 4.5-.66 3.78-.39 4.11-.27h3.45l3.59.37 2.41.62 3.66.98 1.95.59 1.34.81h.75l-1.34-1.47-1.43-1.66-2.41-1.86-3.2-1.27-3.03-1.01-2.55-.23h-5.41l-2.54.29-2.58.98-2.27 1.01-1.64 1.47z" style="fill:#383837"/><path d="m185.09 166.24-.8.79-.1 4.29 1.21 2.08 1.17 2.19 1.86 2.64 3.03 3.2 2.35 2.15 3.26 2.44 3.33 1.83 4.95 2.09 4.31 1.24 5.15.97 3 .33h9.13l4.96-.46 5.48-1.17 3.71-1.43 3.92-2.22 3.84-2.55 2.61-2.15 3.07-2.8 2.61-2.55 1.82-1.89.52-.45 2.35-.07 1.37 1.31 1.76 2.21 1.57 1.83 2.15 2.28 2.02 1.89 2.22 2.03 2.8 2.21 3.26 1.83 2.94 1.43 2.7 1.05 3.23.98 3.33.52h9.98l3.91-.72 4.04-1.17 4.31-1.57 3.59-1.89 2.87-1.96 2.73-2.08 3.13-3.27 1.77-2.8.91-1.89.26-.98v-3.26l-.78-.91-1.57.58-2.15 1.11-7.8.13-2.83-.78-3.65-1.43-3.79-2.68-4.89-4.17-4.11-4.05-4.43-4.1-2.41-1.9-2.29-1.56-2.47-.91-2.48-.92-1.89-.39h-3l-1.83 3.65-2.41 3.07-2.55 2.87-2.21 2.15-1.96 1.17-1.63.85-1.37.52-5.15.07-1.96-1.11-2.61-1.76-2.22-2.15-2.24-3-1.86-2.61-1.8-2.67-.81-2.03-.07-.72h-3.41l-3.44.79-2.93.91-2.8.91-2.87 1.44-3 1.63-2.91 1.88-2.57 1.92-3 2.31-3.04 2.12-3.22 1.93-3.1 1.63-2.32 1.14-2.15.98-1.56.62-1.5.52-1.47.29-1.79.59-4.18-.03-2.48-.43-1.89-.75-1.43-.71-1.41-.98-.88-.88-.55-.63z" style="fill:#ede1d4"/><path d="m124.53 458.55-.98 1.18-.68 1.37v7.63l.83 2.15 1.32.98.75.31.56.19 103.59.75h10.37l9.79-.5 31.06-1.23 34.82-1.86 11.84-.88.65-.06 1.31-2.06.94-1.98 1.01-2.48.75-2.35.69-2.87.63-4.39v-10.56l-.39-3.65-.52-4.05-.85-3.45-1.43-3.92-1.31-2.61-1.43-1.95-1.11-.46h-13.76l-4.76 5.12-2.94.91-8.41-.06-2.22-.98-3.06-1.43-.39-.66-25.31-.13-1.04 2.81-2.22 2.48-2.54 1.69-2.48.72H250l-3.93-.52-3.53-.92-2.67-.97-1.44-.13-2.64-4.4-1.9-1.32-2.25-.98-3.62-1.23h-32.04l-1.47-2.44-1.76-3.03-1.47-3.08-.83-2.49-.54-4.5.25-5.24.83-5.33.73-3.13 2.63-7.39 1.79-4.66 1.96-5.35 1.11-4.11.91-5.62.06-2.02v-8.48l-.13-1.57-64.23.46-14.74.2-5.61.13-1.57.52-.91.65-.52.91-.33 1.9v4.36l.65 1.64 1.37 1.17 1.44.72.98.06 1.17.13.34.03.02 4.39.05 9.73-1.81.15-1.86.24-1.51.64-.84.93-.43 1.17-.25.93V390l.54 1.03.83 1.02.54.64.59.44h16.09l-.83 2.74-.93 2.88-.83 2.45-.35 2.2.05 1.81-.05 2.45.54 3.32.59 1.57.73 2.4.74 1.8.53 1.23.49 1.27.64 1.12-4.6.4-1.61.29-.83.24-.93 1.03-.64 1.22-.44 1.67.1 6.6.49 1.08 1.27 1.46 1.12.69 1.42.24 1.62.1 1.22.05.39-.05v15.02l-.05 2.3-.1 1.66-.24 1.12-.49 1.81-.05.79-3.81.19z"/><path d="M126.01 462.42v5.82l105.85 1.17 1.73-3.29 1.7-3.7.91-3.05.81-3.04.33-2.51v-12.23l-.46-3.55-.68-2.38-.85-2.61-1.5-3.42-.81-1.8-.98-1.33-1.27-.43-1.86-.42-2.29-.26h-1.92l-2.74-.35-2.18-.22h-93.79v5.83l.29.54.19.49 97.93-.88 1.37 2.04.96 1.92.44 1.41.33 1.54.24 1.63.29 2.12.22 2.11.09 1.04-.03 1.96.03 3.39-.03 2.67-.36 3.23-.81 2.87-1.18 2.97-.62 1.17zm111.44 6.72 9.71-.15 11.82-.39 19.24-.78 7.29-.32 22.37-1.36 18.1-.88.88-1.27.78-2.15 1.17-3.33.79-3.33.49-2.93v-13.5l-.69-3.33-.68-3.03-.98-2.84-1.08-2.25-.88-1.27-.98-.78h-15.03l-1.55 1.67-1.48.46-1.46.45-2.09-.01-2.55-.02-2.93-.02-1.67-.38-1.39-.61-1.75-.82-.88-.41-.82-.86-25.31-.13-.82 1.95-.86 1.45-1.31 1.58-1.01.8-1.45.97-1.5.57-1.74.38H250l-1.45-.19-1.33-.18-1.15-.15-1.68-.44-1.56-.4-1.14-.39-1.02-.37-.57-.21-.45-.1-.69-.07-.53-.04.72 2.48.54 1.86.63 2.4.64 4.89.15 2.13.14 2.39-.03 5.24-.2 4.26-.68 3.47-1.66 5.97z" style="fill:#6c6b6a"/><path d="m132.93 458.66 89.41.52.78-1.37.59-2.35.59-2.48v-11.02l-.46-2.48-.59-2.54-.63-1.76-57.22.32-32.47.14.52 1.63.06 1.23.07 1.18.06 1.11.09 8.04-.2 1.33-.2 2.64-.4 2.91-.09 1.13v1.82z" style="fill:#efe1d3"/><path d="m136.86 420.14-1.32-1.81-1.08-2.06-1.32-3.03-.73-2.98-.45-3.87v-3.96l.54-3.47.93-3.04.98-2.29.98-1.52h56.49l-.49 1.86-.4 1.72-.28 1.79-.36 2.28-.24 2.22-.11 2.47.09 3.26.22 1.88.6 2.54.86 2.15.85 1.79 1.08 1.9 1.28 2.17.44.74z" style="fill:#434140"/><path d="M114.71 384.81v4.3h78.24l.55-1.54.85-2.4 1.07-2.79 1.11-2.93.97-2.64.94-2.92.77-2.84.53-3.29.38-2.33v-9.78l-83.79 1.67-.1 4.89 74.06-.98.39 20.74-.59.98-1.08.49-1.56.29-72.74.49z" style="fill:#40413f"/><path d="M121.91 365.92v15.07l64.69-.65v-15.52z" style="fill:#eee2d6"/><path d="m195.98 421.8-2.28-3.83-2.97-6.61-.82-5.1.44-6.5 1.04-5.79 1.38-4.35 2.65-7.24 3.29-9.48 1.41-8.48v-7.04l-.07-4.02-59 .42-1.57-1.68-2.25-2.64-2.15-3.52-1.57-3.33-.78-3.03v-1.47l-7.82-.98-4.11-1.07v-11.74l.68-6.75 1.18-9.79 1.56-10.76 2.15-10.56 2.55-9.59 2.54-10.17 3.72-11.06 3.91-11.64 4.11-9.98 4.5-9.39 6.06-10.17 3.33-4.4 2.15-2.25 4.46-4.19 3.38 2.21 5.45 2.89 6.82 3.21 6.91 2.96 7.48 2.12 6.74 1.91 7.26 1.51 7.94 1.46 5.55.74 9.13 1.36h15.57l-2.11-1.55-1.9-1.39-1.37-3.66-.48-2.89.97-3.82 2.94-3.61 4.99-3.53 4.11-1.95 4.63-1.34 4.45-1.32 2.56-.45 3.71-.51 5.07-.34 3.92.21 5.28.89 1.19.22 2.53.97 2.98 1.15 3.13 1.44 4.22 2.51 2.55 1.73 2.02 1.71 2.08 1.93 1.33 1.27 1.22 1.9 1.42 2.51 3.23-.49 1.35 3.96 3.32 6.85 3.43 8.22 1.86 6.85 1.17 8.54v19.63l-.88 8.22-1.37 7.34-1.56 4.89-3.62 5.57-2.84 4.7-2.64 1.96 6.06 2.93 3.13 3.03 2.84 3.23 2.84 5.38.78 2.94.59 4.89-.49 5.96-2.94 9-4.4 8.61-10.66 19.08-5.19 8.8-4.01 6.95-1.86 4.5-.97 2.45.09 1.27 1.37 1.76 3.04 1.56 5.57 3.72 3.72 3.72 2.93 4.3 1.67 3.13.68 3.04.3 2.44.19 2.06-.39 2.44-.73 2.3-1.49 1.6-1.22 1.32-.88.94-1.17 1.26-2.94.91-7.84-.11-1.4-.32-2.12-.81-1.02-.62-1.31-.61-.67-.63-3.04-.09-21.99-.07-.52 1.25-.54 1.11-.62 1.04-1.12 1.35-.46.54-.74.49-1.45.97-1.5.57-1.33.38H250l-3.93-.52-2.34-.62-1.19-.3-.85-.31-1.02-.37-.8-.29-.91-.09-.53-.04-1.33-2.47-1.31-1.93-1.09-.76-.81-.56-2.25-.98-3.62-1.23z"/><path d="M221.45 224.28c3.15.38 6.3.75 9.45 1.13.78.09 1.53-.76 1.5-1.5-.04-.89-.66-1.4-1.5-1.5-3.15-.38-6.3-.75-9.45-1.13-.78-.09-1.53.76-1.5 1.5.04.89.66 1.4 1.5 1.5m21.93-4.13c-.38-.42-.74-.86-1.09-1.31l.23.3c-.1-.13-.19-.26-.26-.41l.15.36c-.1-.25-.13-.53-.17-.8-.05-.28-.09-.56-.14-.85-.06-.35-.4-.73-.69-.9-.32-.19-.8-.27-1.16-.15s-.71.34-.9.69l-.15.36c-.07.27-.07.53 0 .8.12.74.16 1.57.58 2.21.24.37.53.7.81 1.04.21.26.43.52.66.77.25.28.7.44 1.06.44s.81-.16 1.06-.44.46-.66.44-1.06-.16-.75-.44-1.06Zm30.63-23.85c-2.5.17-5 .43-7.49.76-1.29.17-2.57.36-3.85.58-1.16.19-2.26.39-3.32.91-.73.36-.93 1.39-.54 2.05.43.74 1.32.9 2.05.54.86-.43 1.93-.5 2.86-.66 1.11-.18 2.21-.35 3.32-.5 2.31-.3 4.63-.53 6.95-.69.81-.06 1.5-.65 1.5-1.5 0-.77-.69-1.56-1.5-1.5Z"/><path d="M275.33 199.12c1.18.07 2.36.14 3.53.29.07 0 .13.02.2.03q-.27-.03 0 0l.39.06c.28.05.57.1.85.16.59.12 1.16.28 1.73.47.75.25 1.67-.29 1.85-1.05.19-.83-.25-1.58-1.05-1.85-2.41-.8-4.98-.96-7.5-1.11-.78-.05-1.53.72-1.5 1.5.04.85.66 1.45 1.5 1.5m12.14 2.42c2.99.9 5.83 2.2 8.47 3.88 1.33.85 2.36 1.74 3.35 2.97s2.07 2.48 3.27 3.58c1.42 1.3 3.55-.81 2.12-2.12-1.23-1.13-2.31-2.4-3.36-3.69-1.11-1.37-2.39-2.38-3.87-3.32-2.84-1.82-5.96-3.21-9.18-4.19-1.85-.56-2.64 2.34-.8 2.89m17.34 13.02c.3 1 .53 2.02.7 3.05.06.35.4.73.69.9.32.19.8.27 1.16.15s.71-.34.9-.69l.15-.36c.07-.27.07-.53 0-.8-.17-1.03-.41-2.05-.7-3.05-.11-.37-.36-.7-.69-.9s-.8-.27-1.16-.15-.71.34-.9.69-.27.76-.15 1.16"/><path d="m214.14 338.49-.93.73-.68 2.54-1.23 5.53-1.37 6.07-1.27 4.84-1.71 6.89-2.2 8.42-2.5 8.41-2.13 5.77-2.17 5.77-1.42 4.6-.64 1.76-.47 6.67 1.89 4.29 1.91 2.46 2.3 2.38 2.64 1.71 3.91 2.11 3.92 1.22 3.23 1.14h6.94l-2.84-1.43-3.76-1.72-4.31-1.71-3.52-2.05-2.88-1.65-2.4-2.71-1.37-2.2-1.17-3.18v-2.78l1.95-7.44 2.01-5.48 2.74-8.46 2.18-6.55 2.12-8.12 2.2-7.88 1.76-6.45 1.27-5.68.69-4.45-.1-1.37-.1-1.12-.58-.69-.99-.35zm55.5 80.97-.33.78h-.94l-.66-.39-.65-.85-.52-2.87-.78-3.78-1.05-1.89-2.28-3.46-3.1-2.8-4.76-3.26-4.27-2.19-.49-.78.19-1.37v-1.83l.53-1.46.98-4.24 1.11-5.35 1.89-5.38 1.5-4.31 1.69-4.17 2.25-5.74 1.99-5.09 2.35-4.98 1.43-3.69.53-1.96.32-.75.69-.26h.97l.4.72.29 1.53-1.17 5.16-2.19 6.45-2.41 5.61-1.83 5.05-1.6 5.35-1.72 5.12-1.9 5.77-1.27 4.24-.42 1.01-.29.79-.04 1.07.3.85 1.27 1.04 1.37.79 2.18 1.11 3.49 3.09 3.39 3.69 2.48 4.33.88 4.02.2 1.66z" style="fill:#3a3a3a"/><path d="m271.97 326.21 1.12.69.54 2.54v5.97l-1.37 3.72-1.32 2.98-1.3 2.59-1.05 1.42-1.27 1.03-1.07.24v-2.54l1.02-1.96.83-1.9.93-2.35.61-2.2.3-2.01v-6.6l.46-.98.79-.64zm-.7 21.51h2.36l4.06-.88 4.14-1.73 3.92-2.12 3.13-2.61 1.89-1.95 1.24-1.9 1.53-3.65.72-3.98.19-2.69v-4.09l-.36-1.79-.81-2.42-1.31-3.35-.81-1.93-.95-1.24-.71-.45h-1.21l-.69.94.07 1.24.81 2.32 1.31 3.26.49 1.53.59 1.96.09 8.51-1.66 4.5-.95 1.33-1.66 1.63-1.47 1.57-1.27.85-1.09.49 1.12-3.52.72-3.46-.03-4.08-.1-3.8-.26-1.35-.39-1.86-.75-2.15-.55-1.37-.92-.95-1.33.43-.95.85-.42 1.92.45 1.79.95 2.19.39 1.92-.1 6.62-.81 3.39-.82 1.89-1.63 3-1.34 1.41-1.53 1.3-1.3 1.01-1.05.85z" style="fill:#7d7b79"/><path d="m231.27 308.88 8.68 1.76.58-2.67 1.5-4.5 1.96-4.11 2.48-3.98 2.35-3.32 2.28-2.55 2.93-3-8.28-4.24-4.04 2.94-3 3.65-2.81 3.85-1.95 3.45-1.63 3.46-1.05 3.72-.31 1.05v4.48z" style="fill:#ece2d6"/><path d="m125.53 332.78 5.82.59 4.5-.59 5.13-1.66 4.6-2.89 7-4.94 8.7-6.7 5.19-3.57 7.82-4.35 4.7-2.5 3.03-1.37 1.71-.68-4.25-3.18h-2.45l-5.62 2-6.51 2.35-6.41 2.15-4.1 1.23-2.11.53-2.39-.19-.59-1.13.05-1.22.88-1.03 1.47-.63 3.71-1.18 5.19-1.56 6.7-1.91 8.41-2.64-4.4-6.02-3.91-6.06-1.76-4.11-2.4-4.4-2.15-5.33-1.86-5.43-1.86-5.38-1.66-4.85-1.08-4.89-.34-2.25-.3-2.05.15-1.71.15-.84.63-.58.73-.15h.63l.62.19.86.9.21.9.59 2.38.96 3.23 1.69 6.54 1.56 5.38 2.5 6.31 2.54 6.02 2.99 5.96 2.93 5.04 3.13 4.89 2.54 3.43 3.48 3.13 3.91 2.64 6.11 2.84 4.46 1.37 7.58 1.27 5.62.88 7.78 1.32 4.21.44 3.91.34v-4.99l.54-3.18 1.02-3.62 1.81-3.76 2.94-4.75 2.74-3.81 1.51-1.71 1.81-1.67-8.21-3.18-5.82-1.61-8.66-2.01-5.87-1.37-6.56-.83-3.96-.78-1.76-.78-.29-.79.1-1.36.63-1.23 1.42-.29 2.4.24 4.25.74 3.23.54-4.01-5.83-8.61-14.96-2.44-4.8-.88-1.76-.59-1.32-.34-1.12.14-1.03.79-.68.83-.64.63-.49.12-.66-.49-.27-.88-.51-1.27-.61-4.7-2.67-.27-1.54-.15-2.47-.24-3.03-1.11-9.58-2.58-1.1-2.28-.98-2.38-1.04-2.5-1.01-2.35-1.04-1.56-.72-1.96-.91-1.17-.72-1.31-.72-.78-.45-1.83.98-2.67 2.67-3.46 4.5-3.39 4.63-3.98 7.5-3.72 7.43-3.52 8.55-4.25 11.56-2.99 8.36-3.18 10.76-1.66 6.31-1.61 7.44-1.27 6.31-1.28 7.58-1.27 8.56-.58 5.61-.74 5.69-.32 3.72-.14 5.4z" class="st2"/><path d="m217 270.25 14.81 3.39-3.33-6.91-3.33-6.52-2.8-6.13-2.74-7.18-3.46-8.41-3.32-7.76-2.74-6.74-1.18-3.34-7.09-1.36-2.65-.75-3.97-1.12-2.57-.73-1.84-.52 1.76 13.32 3 1.5 2.87.72 1.95.84.98.92.26 1.24-.52 1.3-1.3 1.57-1.24 2.54-.07 1.11 7.96 13.76 6.13 9.91 3.39 4.88zm29.02 7.73 7.57 2.28 14.48-25.63h-1.76l-2.55-.65-2.54-.72-1.7-.59-1.23-.58zm10.78 4.29 2.99 1.25 1.8.69 1.33.83 1.02.49 13.26-31.36-3.28-1.56-3.77 7.04-3.15 5.82-3.69 6.31-3.04 4.84-2.25 3.64zm21.34-20.25-2.83 13.4v1.5l.81 1.17 1.08.33 1.37-.52.75-.95.75-3.2.85-4.53.91-3.05h1.73l1.69.7 2.29.72 2.18.59 3.88-.03 10.3-.59 3.95-1.14 4.96-1.67 3.32-1.92 1.18-.81.36-.23v6.65l-.43 4.53-.75 5.22-1.07 5.87-1.57 4.79-2.35 4.53-3.03 4.83-3.16 2.67-1.89 1.7-2.22 1.47-2.74 1.2-1.79.79-3 .75-1.9.42h-2.57l-1.14-2.31-1.83-2.52-1.66-2.15-2.32-2.02-2.05-1.83-2.28-1.89-2.32-1.89-2.18-1.4-2.52-1.47-1.46-.78-1.96-.65 3.75-8.81 2.61-6.36 2.02-5.38 1.34-3.84z" class="st2"/><path d="m283.48 255.92-.84 2.25v3.62l1.08.73 1.91.78 2.05.44 3.52.59h10.42l3.38-.83 3.81-1.27 4.4-1.86 2.89-1.66 1.81-1.77v-8.07l-2.64 1.91-3.91 2.3-3.97 1.66-3.13.93-4.3 1.27-3.42.49-6.22.15-2-.34-2.35-.64-1.52-.58z" style="fill:#eee3d4"/><path d="m286.25 249.1-.79.9-1.3.73h-1.79l-2.19-.29-2.61-1.34-3.23-2.08-2.34-1.9-1.99-1.99-.56-.94v-1.5l.82-.36h1.69l1.44 1.27 2.02 1.86 2.25 1.66 2.15 1.37 1.83.95 2.15.81 1.4.43z" class="st14"/><path d="m266.8 247.63 2.65.15h1.31l.49.64v.98l-.79.6-1.01.37h-5.78l-2.89-.83-3.23-1.91-1.91-1.51-1.51-2.15-2.11-3.28-.83-2.06v-7.87l1.06-3.38 1.08-2.29.44-1.1-6.26-.09-2.7-.73-1.9-1.56-1.19-1.11-.88-1.52-.62-2.11v-2.06l.44-2.98 1.66-2.98 1.66-1.78 3.33-2.77 3.41-1.59 3.08-1.49 3.77-1.54 5.6-1.45 3.76-.6 2.25-.29h7.4l4.74 1.01 3.41.92 3.98 1.27 2.05.85 2.64 1.37 2.34 1.3 1.87 1.14 1.25 1.18 1.46 1.43 2.57 1.99 1.67 1.96 1.35 1.94.7 1.34.7 1.35.35 1.03.28.98.21.7-.09.43-.77-.19-.68-.56-1.16-1.05-.97-1.26-1.63-1.49-.99-.82-4.65-4.08-4.92-3.35-3.26-1.57-2.84-1.14-7.04-1.79-3.43-.46-10.11-.03-3.71.91-4.11 1.11-3.79 1.34-5.34 3.32-3.39 2.97-1.28 2.22-.32 1.17-.04 1.14.49 1.21.66 1.24.91 1.33 1.21.85 1.66.66h5.48l1.66-.49 2.15-1.19 2.42-1.68 2.25-1.31 1.69-.75.72-.36 1.01-.13.94.03.56.33.52.51.1.73-.16.52-.85.69-2.81 1.04-3.42 2.06-2.28 2.13-2.06 2.56-1.43 2.93-.62 1.05-.52 1.37v5.93l.42 1.54.78 1.23.39.69 1.9 2.44 1.14 1.31 1.53.88 1.4.88 1.73.82 1.43.42 1.44.29z" class="st14"/><path d="m236.33 242.55-6.65 14.87-5.77-13.21 9.78-10.03zm-14.38-3.28 14.97-14.53-22.39-3zm28.29 18.75 5.18-12.22-1.05-1.49-.89-1.35-1.06-1.65-.73-1.44-.42-1.05-.08-.46-3.63 5.21 2.44 14.45z" style="fill:#ece0d4"/></svg>