<svg xmlns="http://www.w3.org/2000/svg" id="main" viewBox="0 0 500 500"><circle cx="250" cy="250" r="250" style="fill:#ff9107" transform="rotate(-45 250.002 249.996)"/><path d="m187.5 261.06-62.71 55.81-4.16 10.36v7.54l6.2 11.06 48.27 52.35h25.51l5.49-7.54 2.75-11.06-1.9-7.68-18.89-20.43 144.1-.29 15.29-10.85 15.36-14.44 12.05-14.66 6.55-13.1.57-48.13-5.92-5.28-11-5.36h-7.75l-9.51 5.21-6.2 8.6-.14 41.86-9.3 11.41-8.32 9.3-136.76.64 12.75-15.51 4.44-8.24 2.75-11.7-3.1-12.4-9.66-7.61zm127.89-32.55 63.06-55.31 4.16-10.22v-7.54l-6.27-10.92-48.48-51.93h-25.65l-5.49 7.54-2.82 10.92 1.97 7.61 18.96 20.29-144.8.21-15.44 10.78-15.36 14.31-12.12 14.51-6.62 13.04-.49 47.7 5.85 5.22 11.13 5.28h7.75l9.58-5.14 6.2-8.53.14-41.5 9.38-11.28 8.31-9.23 137.54-.63-12.82 15.36-4.51 8.17-2.75 11.63 3.1 12.26 9.65 7.54z" style="fill:#0a111d"/></svg>