<?xml version="1.0" encoding="UTF-8"?>
<svg id="main" xmlns="http://www.w3.org/2000/svg" version="1.1" viewBox="0 0 500 500">
  <!-- Generator: Adobe Illustrator 29.8.1, SVG Export Plug-In . SVG Version: 2.1.1 Build 2)  -->
  <defs>
    <style>
      .st0 {
        fill: #0a111d;
      }

      .st1 {
        fill: #ff9107;
      }
    </style>
  </defs>
  <circle class="st1" cx="250" cy="250" r="35.48"/>
  <polygon class="st0" points="241.13 251.57 232.23 259.49 231.64 260.96 231.64 262.03 232.52 263.6 239.37 271.03 242.99 271.03 243.77 269.96 244.16 268.39 243.89 267.3 241.21 264.4 261.66 264.36 263.83 262.82 266.01 260.77 267.72 258.69 268.65 256.83 268.73 250 267.89 249.25 266.33 248.49 265.23 248.49 263.88 249.23 263 250.45 262.98 256.39 261.66 258.01 260.48 259.33 241.07 259.42 242.88 257.22 243.51 256.05 243.9 254.39 243.46 252.63 242.09 251.55 241.13 251.57"/>
  <polygon class="st0" points="259.28 246.95 268.23 239.1 268.82 237.65 268.82 236.58 267.93 235.03 261.05 227.66 257.41 227.66 256.63 228.73 256.23 230.28 256.51 231.36 259.2 234.24 238.65 234.27 236.46 235.8 234.28 237.83 232.56 239.89 231.62 241.74 231.55 248.51 232.38 249.25 233.96 250 235.06 250 236.42 249.27 237.3 248.06 237.32 242.17 238.65 240.57 239.83 239.26 259.35 239.17 257.53 241.35 256.89 242.51 256.5 244.16 256.94 245.9 258.31 246.97 259.28 246.95"/>
</svg>