<?xml version="1.0" encoding="UTF-8"?>
<svg id="main" xmlns="http://www.w3.org/2000/svg" version="1.1" viewBox="0 0 500 500">
  <!-- Generator: Adobe Illustrator 29.8.1, SVG Export Plug-In . SVG Version: 2.1.1 Build 2)  -->
  <defs>
    <style>
      .st0 {
        fill: #0a111d;
      }

      .st1 {
        fill: #ff9107;
      }
    </style>
  </defs>
  <circle class="st1" cx="250" cy="250" r="250" transform="translate(-103.55 250) rotate(-45)"/>
  <polygon class="st0" points="187.5 261.06 124.79 316.87 120.63 327.23 120.63 334.77 126.83 345.83 175.1 398.18 200.61 398.18 206.1 390.64 208.85 379.58 206.95 371.9 188.06 351.47 332.16 351.18 347.45 340.33 362.81 325.89 374.86 311.23 381.41 298.13 381.98 250 376.06 244.72 365.06 239.36 357.31 239.36 347.8 244.57 341.6 253.17 341.46 295.03 332.16 306.44 323.84 315.74 187.08 316.38 199.83 300.87 204.27 292.63 207.02 280.93 203.92 268.53 194.26 260.92 187.5 261.06"/>
  <polygon class="st0" points="315.39 228.51 378.45 173.2 382.61 162.98 382.61 155.44 376.34 144.52 327.86 92.59 302.21 92.59 296.72 100.13 293.9 111.05 295.87 118.66 314.83 138.95 170.03 139.16 154.59 149.94 139.23 164.25 127.11 178.76 120.49 191.8 120 239.5 125.85 244.72 136.98 250 144.73 250 154.31 244.86 160.51 236.33 160.65 194.83 170.03 183.55 178.34 174.32 315.88 173.69 303.06 189.05 298.55 197.22 295.8 208.85 298.9 221.11 308.55 228.65 315.39 228.51"/>
</svg>