<svg xmlns="http://www.w3.org/2000/svg" xmlns:xlink="http://www.w3.org/1999/xlink" id="_Слой_1" viewBox="0 0 500 500"><image href="/quests/quest_cat23.img0.png" width="1024" height="1024" style="isolation:isolate" transform="matrix(.54 0 0 .54 -25.8 -25.8)"/><path d="M84.91 287.78c-3.06 6.34-5.58 12.86-7.5 19.59a81 81 0 0 1-5.28-4.04c-4.91-4.1-12.02 2.94-7.07 7.07 4.1 3.42 8.38 6.53 12.96 9.29 2.66 1.6 6.65.16 7.34-2.99 1.82-8.28 4.49-16.23 8.18-23.87 2.79-5.77-5.83-10.85-8.63-5.05m6.25 35.13c-3.06 6.34-5.58 12.86-7.5 19.59a81 81 0 0 1-5.28-4.04c-4.91-4.1-12.02 2.94-7.07 7.07 4.1 3.42 8.38 6.53 12.96 9.29 2.66 1.6 6.65.16 7.34-2.99 1.82-8.28 4.49-16.23 8.18-23.87 2.79-5.77-5.83-10.85-8.63-5.05" style="fill:#0cde4c"/></svg>