<?xml version="1.0" encoding="UTF-8"?>
<svg id="_Слой_1" data-name="Слой_1" xmlns="http://www.w3.org/2000/svg" version="1.1" viewBox="0 0 500 500">
  <!-- Generator: Adobe Illustrator 29.8.1, SVG Export Plug-In . SVG Version: 2.1.1 Build 2)  -->
  <defs>
    <style>
      .st0 {
        fill: #fdcb29;
      }

      .st1 {
        fill: #e13031;
      }

      .st2 {
        fill: #faea17;
      }

      .st3 {
        fill: #e93f3d;
      }

      .st4 {
        fill: #f0dd2e;
      }

      .st5 {
        fill: #e95644;
      }

      .st6 {
        fill: #2196f5;
      }

      .st7 {
        fill: #e2aa21;
      }

      .st8 {
        fill: #efc126;
      }

      .st9 {
        fill: #f3c527;
      }

      .st10 {
        fill: #1d87dc;
      }

      .st11 {
        fill: #f6c627;
      }

      .st12 {
        fill: #fed02c;
      }

      .st13 {
        fill: #218ae3;
      }

      .st14 {
        fill: #f0df29;
      }

      .st15 {
        fill: #e3ab21;
      }

      .st16 {
        fill: #dc9f1d;
      }

      .st17 {
        fill: #f2e129;
      }

      .st18 {
        fill: #1782d5;
      }

      .st19 {
        fill: #238ce4;
      }

      .st20 {
        fill: #f6453b;
      }

      .st21 {
        fill: #e1cd3b;
      }

      .st22 {
        fill: #fd4042;
      }

      .st23 {
        fill: #f8453b;
      }

      .st24 {
        fill: #efbf24;
      }

      .st25 {
        fill: #e7da35;
      }

      .st26 {
        fill: #1d7de7;
      }

      .st27 {
        fill: #eedc28;
      }

      .st28 {
        fill: #fd4142;
      }

      .st29 {
        fill: #e4ab21;
      }

      .st30 {
        fill: #3080d1;
      }

      .st31 {
        fill: #f04541;
      }

      .st32 {
        fill: #4390ce;
      }

      .st33 {
        fill: #e9cb3b;
      }

      .st34 {
        fill: #e5d933;
      }

      .st35 {
        fill: #2198f7;
      }

      .st36 {
        fill: #f7c627;
      }

      .st37 {
        fill: #3288d9;
      }
    </style>
  </defs>
  <path class="st12" d="M45.76,3.76c.45,0,.89-.02,1.35-.02,1.16,0,2.32.07,3.48.14q.6.64,1.22,1.29c1.15.36,2.32.67,3.5.95.7.17,1.4.33,2.12.51q1.1.26,2.23.52c1.45.34,2.89.69,4.34,1.03.64.15,1.29.3,1.95.46,2.65.63,5.26,1.36,7.88,2.1,1.49.42,2.97.83,4.46,1.25.75.21,1.5.42,2.27.64.72.2,1.44.4,2.19.61.66.18,1.32.37,1.99.56q1.78.47,3.5.38,1.36.02,2.58,1.31c1.1.37,2.22.69,3.34.97.67.17,1.34.34,2.03.52.7.17,1.41.35,2.13.53.7.18,1.39.36,2.11.54q3.61.97,7.3,1.28,1.38.03,2.59,1.32c1.1.37,2.22.69,3.34.97.67.17,1.34.34,2.03.52.7.17,1.41.35,2.13.53.7.18,1.39.36,2.11.54q3.61.97,7.3,1.28,1.38.03,2.59,1.32,1.46.49,3.17.86c.64.16,1.27.31,1.93.47,1.34.32,2.67.63,4.01.94,3.92.97,6.75,1.97,9.78,4.82v1.29c.6.21,1.21.43,1.83.64q.98,1.06,2.02,2.38c1.39,1.74,2.79,3.38,4.34,4.96q1.56,1.69,1.56,2.98h1.22q.89.95,1.92,2.26c2.23,2.77,4.55,5.42,6.91,8.06,2.65,2.96,5.25,5.96,7.78,9.05,1.73,2.08,3.53,4.09,5.32,6.1,2.49,2.81,4.96,5.64,7.33,8.56,2.15,2.57,4.39,5.05,6.61,7.55,2.21,2.5,4.37,5.03,6.47,7.62,1.31,1.56,2.72,3,4.13,4.47,1.42,1.53,2.74,3.15,4.06,4.78,2.48,2.98,5.05,5.88,7.6,8.79q12.33,14.07,17.57,20.28c1.72,2.03,3.47,4.03,5.25,6.01q.62.7,1.26,1.4c.83.93,1.67,1.85,2.51,2.77.38.43.76.85,1.16,1.29.34.38.69.76,1.05,1.15q.82,1.06,1.43,3h1.22v1.29c2.27-1.31,3.84-2.68,5.52-4.75,2.15-2.6,4.33-5.16,6.55-7.7.63-.72,1.26-1.44,1.88-2.15q.47-.54.95-1.09c.91-1.04,1.82-2.09,2.73-3.13,2.57-2.95,5.14-5.89,7.73-8.82.37-.42.75-.85,1.13-1.28.72-.81,1.44-1.62,2.15-2.43,1.74-1.97,3.45-3.96,5.12-6,2.26-2.75,4.61-5.39,6.98-8.03,3.06-3.42,6.08-6.85,9.04-10.37,2.17-2.55,4.4-5.06,6.62-7.56,1.34-1.52,2.61-2.98,3.77-4.66q.37-.51.76-1.02h1.22c.16-.38.32-.76.49-1.16.76-1.47,1.53-2.37,2.67-3.52,1.53-1.53,2.93-3.14,4.32-4.83,2.58-3.15,5.29-6.17,8-9.2,2.29-2.57,4.52-5.18,6.71-7.84,2.5-3.03,5.09-5.97,7.68-8.92.39-.45.78-.9,1.19-1.36,1.28-1.46,2.56-2.91,3.84-4.36q.6-.69,1.22-1.39c5.62-6.35,10.01-9.14,18.01-11.06.46-.11.91-.23,1.38-.35,1.85-.45,3.53-.82,5.43-.82v-1.29c.75-.07,1.51-.13,2.29-.2,3.58-.42,7-1.39,10.47-2.38.63-.18,1.27-.35,1.92-.53q3.09-.81,6.04-2.04c1.01-.18,2.03-.33,3.05-.48,3.45-.58,6.77-1.46,10.13-2.46q.73-.21,1.47-.43,2.48-.73,4.86-1.78c.98-.14,1.96-.28,2.95-.42,2.7-.46,5.34-1.21,7.99-1.91.64-.17,1.28-.33,1.93-.5,2.03-.53,4.07-1.06,6.1-1.6q26.85-7.02,31.68-4.21c2.58,2.03,4.41,4.79,5.42,8,.32,5.13-.7,9.7-1.83,14.67-.35,1.54-.69,3.08-1.03,4.62q-.23,1.01-.46,2.05c-.31,1.75-.4,3.32-.34,5.1h-1.22c-.08.75-.16,1.49-.24,2.26-.32,2.69-.83,5.32-1.42,7.96-.1.48-.21.96-.32,1.45-.34,1.57-.69,3.15-1.04,4.72-.25,1.12-.49,2.24-.74,3.36-.52,2.36-1.04,4.72-1.56,7.07-.65,2.94-1.29,5.89-1.94,8.83-1.26,5.75-2.53,11.5-3.81,17.25-.64,2.86-1.27,5.73-1.9,8.59-.61,2.79-1.23,5.58-1.86,8.36-.23,1.04-.46,2.07-.69,3.11-.31,1.43-.63,2.85-.96,4.28-.18.8-.36,1.61-.54,2.43-1.84,5.91-6.44,9.73-10.75,13.67-2.41,2.26-4.75,4.59-7.09,6.92-2.48,2.46-4.98,4.91-7.48,7.35-3.4,3.31-6.76,6.65-10.13,9.99-2.83,2.81-5.68,5.6-8.54,8.39-2.66,2.59-5.29,5.2-7.92,7.82-4.58,4.56-9.21,9.06-13.86,13.54-3.72,3.6-7.41,7.23-11.09,10.88-.45.44-.89.89-1.35,1.34-.42.42-.84.84-1.28,1.28-.4.39-.79.79-1.2,1.19-.85.87-1.68,1.76-2.5,2.66q-.99.98-2.21.98v1.29q-.92.95-2.17,2.06c-2.16,1.93-4.15,3.97-6.09,6.14q-.88.83-2.1.83v1.29q-.92.95-2.17,2.06c-1.68,1.51-3.29,3.04-4.84,4.71-1.89,2.03-3.87,3.9-5.92,5.75-.88.82-1.72,1.7-2.54,2.59q-.99,1.01-2.21,1.01v1.29c-.99.89-2.01,1.75-3.05,2.58.31,2.71,1.7,3.94,3.49,5.8.29.3.58.6.88.92.93.96,1.86,1.92,2.79,2.88.92.95,1.84,1.91,2.76,2.86.84.87,1.68,1.74,2.53,2.61,1.65,1.79,3.12,3.64,4.61,5.57,1,1.09,2.02,2.16,3.05,3.22,1.49,1.54,2.97,3.09,4.46,4.63.39.41.79.81,1.19,1.23.37.39.74.78,1.12,1.18.34.35.68.7,1.02,1.06q.73.92.73,2.21c.6.21,1.21.43,1.83.64v1.29c2.74-1.41,4.32-3.4,6.24-5.82,1.42-1.7,3.08-3.05,4.73-4.5,1.11-1.3,2.18-2.63,3.25-3.96,1.23-1.45,2.61-2.58,4.06-3.78.34-.48.68-.96,1.03-1.45q.4-.56.8-1.13h1.22c.15-.37.3-.74.46-1.13.87-1.66,1.85-2.78,3.2-4.03h1.22c.2-.64.4-1.28.61-1.93q1.19-1.01,2.67-2.01c.48-.33.96-.67,1.46-1.01,2.6-1.61,5.11-1.94,8.06-1.49,4.83,1.71,8.76,5.1,12.19,9.03v1.29h1.22c.82,1.07,1.63,2.15,2.44,3.22.55.47,1.11.93,1.68,1.41.45.39.9.77,1.37,1.17v1.29c.34.15.69.3,1.05.46,3.32,1.99,6.42,5.9,8.13,9.5,1.19,4.8,1.14,8.66-1.03,13.13-1.55,2.63-3.65,4.69-5.74,6.84-.47.5-.95.99-1.44,1.51-1.51,1.58-3.03,3.15-4.55,4.72-1.51,1.57-3.02,3.15-4.53,4.72-.94.98-1.88,1.95-2.82,2.92-2.02,2.1-3.96,4.2-5.77,6.51q-.79.95-1.59,1.92h-1.22c-.16.38-.31.75-.48,1.14-.8,1.55-1.67,2.57-2.86,3.8q-.61.64-1.24,1.3c-.43.44-.85.88-1.29,1.33-.43.45-.86.9-1.3,1.36-1.06,1.11-2.12,2.21-3.19,3.31.85,2,1.85,3.43,3.27,5.02.4.45.8.9,1.21,1.36.42.46.84.92,1.27,1.4.42.46.83.93,1.26,1.41q2.15,2.42,4.4,4.74.78.9.78,2.19c.6.21,1.21.43,1.83.64q.9.96,1.87,2.22c1.73,2.16,3.54,4.18,5.45,6.17,1.79,1.87,3.51,3.74,5.14,5.76,1.75,2.16,3.61,4.17,5.52,6.17,1.86,1.94,3.68,3.89,5.37,6,2.05,2.54,4.27,4.87,6.51,7.21q4.56,4.78,6.59,7.25c.31.38.63.76.95,1.16.78.99,1.53,2,2.27,3.03q2.3,3.29,5.65,4.97c1.43-.17,2.67-.5,4.04-.93,10.32-2.16,21.06-.43,29.86,5.8,9.35,6.82,15.32,16.55,17.48,28.36,1.66,11.28-1.19,22.78-7.12,32.25-2.16,2.98-4.65,5.63-7.18,8.26-1.56,1.63-3.1,3.27-4.64,4.91-3.49,3.71-6.99,7.41-10.51,11.08-1.24,1.3-2.35,2.59-3.45,4.03-1.92,2.48-4.18,4.49-6.51,6.53-.38.33-.75.67-1.14,1.01-9.35,7.88-20.1,9.89-31.77,8.66-3.57-.67-7.02-1.73-10.36-3.22-.2-.43-.4-.85-.61-1.29-.41-.16-.83-.32-1.26-.48-2.54-1.14-4.51-2.88-6.67-4.67-.6-.47-1.21-.93-1.83-1.41-7.05-6.34-11.23-16.66-12.11-26.26q-.42-7.41.54-10.26c.72-2.26,1-3.54.6-5.9-2.25-3.37-5.45-5.94-8.45-8.53-1.82-1.6-3.54-3.3-5.26-5.01q-4.91-4.76-10.05-9.23c-.4-.36-.8-.72-1.22-1.09v-1.29q-.53-.25-1.08-.51c-1.44-.82-2.43-1.72-3.61-2.91-.42-.43-.84-.85-1.28-1.29-.45-.45-.89-.91-1.35-1.37-.93-.94-1.87-1.88-2.8-2.82-.46-.46-.91-.92-1.39-1.4-3.78-3.8-7.66-7.49-11.54-11.17-3.08-2.92-6.09-5.91-9.09-8.91-1.63-1.62-3.24-3.16-5.01-4.62-.41-.36-.82-.73-1.25-1.1v-1.29c-3.07,1.94-5.06,4.18-7.31,7.09q-1.37,1.57-2.44,2.58h-1.22c-.14.36-.28.72-.42,1.09-1.31,2.45-3.19,4.18-5.29,5.88-1.88,1.66-3.36,3.53-4.92,5.53-.31.34-.62.68-.95,1.04h-1.22q-.23.56-.46,1.13c-.87,1.66-1.85,2.78-3.2,4.03h-1.22c-.14.36-.28.72-.43,1.09-2.61,4.94-7.39,9.03-12.37,11-3.76.5-7.02.23-10.36-1.77-4.6-3.92-8.75-8.47-12.93-12.88-1.02-1.07-2.04-2.13-3.07-3.2-.66-.69-1.32-1.39-1.98-2.08-.3-.31-.6-.62-.91-.94-2.92-3.11-5.25-6.59-5.53-11.1.15-4.72,1.61-7.78,4.66-11.22.29-.33.58-.65.87-.99,4.4-4.94,8.97-9.7,13.52-14.48.94-.99,1.88-1.98,2.81-2.97,2.27-2.4,4.55-4.79,6.82-7.18-.81-1.78-1.56-3.11-2.89-4.5-.32-.34-.64-.68-.97-1.02q-.5-.52-1.01-1.04t-1.01-1.07q-1.77-1.89-3.87-3.33v-1.29q-.52-.24-1.06-.48c-1.62-.95-2.69-2.06-3.98-3.46-.49-.53-.99-1.06-1.49-1.6-.51-.55-1.02-1.11-1.54-1.68-3.16-3.42-6.33-6.76-9.77-9.88-1.32-1.21-2.56-2.5-3.79-3.82-.41-.44-.82-.88-1.24-1.33q-.44-.48-.9-.97c-1.42,1.29-2.85,2.58-4.27,3.87-.37.33-.74.67-1.12,1.01-3.16,2.88-6.12,5.93-9.05,9.07-.45.48-.89.95-1.35,1.44-.44.46-.87.93-1.32,1.41-.41.44-.83.88-1.26,1.34-.69.74-1.38,1.49-2.07,2.25-1.33,1.47-2.08,2.18-3.95,2.84v1.29q-.87.91-2.09,1.97c-2.92,2.62-5.59,5.45-8.26,8.34.82,1.94,1.73,3.28,3.15,4.77.39.42.79.83,1.19,1.26q.64.66,1.28,1.34c.44.46.87.92,1.33,1.4,1.4,1.47,2.8,2.94,4.2,4.41.94.99,1.88,1.97,2.81,2.96,1.73,1.82,3.45,3.63,5.18,5.44.72.76,1.45,1.52,2.17,2.28.3.32.61.64.92.96,3.47,3.65,5.78,6.52,6.01,11.81-.23,7.41-5.36,11.89-9.98,16.88-.44.48-.89.96-1.34,1.46-1.44,1.56-2.88,3.11-4.33,4.66-.46.49-.92.99-1.39,1.5-3.94,4.17-7.73,8.06-13.46,8.78-7.79-.36-13.03-7.7-18.05-13.18-.83-.89-1.65-1.78-2.48-2.67-1.52-1.63-3.03-3.27-4.54-4.91q-3.2-3.53-6.69-6.72c-.44-.39-.88-.77-1.33-1.17v-1.29h-1.22c-1.78-1.72-3.31-3.55-4.84-5.52-1.67-2.09-3.26-3.47-5.52-4.8q-1.92-.22-3.24,1.38-.81.92-1.63,1.85c-.57.62-1.15,1.23-1.73,1.85-.3.32-.59.63-.89.96-2.74,2.92-5.51,5.76-8.47,8.43-1.5,1.39-2.88,2.9-4.28,4.4-1.49,1.55-3.08,2.97-4.66,4.4-1.97,1.88-3.8,3.9-5.63,5.92q-1.15,1.11-2.37,1.11v1.29q-.89.94-2.12,2.02c-2.68,2.41-5.23,4.93-7.78,7.48-3.1,3.1-6.21,6.19-9.37,9.23-2.26,2.17-4.46,4.37-6.56,6.72q-.98.98-2.23,1.82c-1.34.93-2.17,1.58-3.02,3.03,0,2.18.36,4.12.79,6.25,1.96,9.78-1.1,20.23-5.97,28.52-6.18,9.69-14.97,16.39-25.9,18.74-2.28.27-4.52.34-6.82.32-.61,0-1.22,0-1.84,0-5.47-.14-10.09-1.27-15.11-3.54-.6-.27-1.21-.55-1.83-.83-9.21-4.76-16.54-14.58-23.7-22.12-1.48-1.56-2.98-3.12-4.47-4.67-1.45-1.51-2.89-3.03-4.33-4.55-.53-.55-1.06-1.1-1.6-1.66-4.39-4.66-7.95-9.79-10.27-15.93-.23-.59-.46-1.19-.7-1.8-1.6-4.91-2.07-9.18-2.04-14.36q0-.99.01-2c.19-12.39,4.99-21.87,13.28-30.48,7.75-7.09,17.48-10.31,27.66-10.07,2.42.2,4.75.64,7.12,1.23,2.18.32,3.86.1,5.65-1.3.34-.37.68-.74,1.03-1.12q.57-.61,1.15-1.24c.39-.44.79-.87,1.19-1.32.41-.44.82-.88,1.24-1.34,2.34-2.55,4.62-5.14,6.78-7.85.96-1.17,1.98-2.26,3.03-3.34,1.4-1.46,2.72-2.94,4-4.51,4.26-5.22,8.81-10.19,13.28-15.22,3.99-4.49,7.97-9,11.9-13.55,1.11-1.29,2.23-2.58,3.35-3.87,3.12-3.58,6.21-7.19,9.22-10.88-.87-2.1-1.92-3.46-3.47-5.04q-.65-.68-1.32-1.37-.68-.7-1.38-1.41c-.91-.93-1.81-1.85-2.71-2.79-.4-.41-.8-.82-1.21-1.24q-.88-1.05-.88-2.34h-1.22v-1.29c-.38-.16-.75-.32-1.14-.48-1.53-.95-1.76-1.73-2.51-3.38-.6-.21-1.21-.43-1.83-.64v-1.29c-.6-.21-1.21-.43-1.83-.64v-1.29h-1.22q-1.29-1.21-2.44-2.58v-1.29h-1.22q-1.29-1.21-2.44-2.58v-1.29h-1.22q-.88-.92-1.9-2.22c-1.19-1.5-2.38-2.96-3.66-4.37-3.18-3.52-5.33-6.69-5.43-11.69.67-9.33,8.96-15.73,14.85-21.88.44-.46.88-.92,1.33-1.39.4-.41.79-.82,1.2-1.25q.99-1.01,1.54-2.34h1.22c.2-.64.4-1.28.61-1.93q1.19-1.01,2.67-2.01.72-.5,1.46-1.01c2.83-1.76,5.47-1.92,8.67-1.49,6.2,1.91,10.84,7.56,14.75,12.74q1.05,1.5,2.5,2.61c1.39,1.2,2.4,2.3,3.55,3.73,2.38,2.91,4.91,5.61,7.49,8.31.45.47.89.94,1.35,1.42,1.08,1.14,2.17,2.28,3.26,3.41q.65-.69,1.31-1.39c1.69-1.79,3.38-3.57,5.08-5.35.97-1.02,1.93-2.03,2.9-3.05.66-.69,1.32-1.39,1.98-2.08,3.36-3.53,6.68-7.06,9.75-10.87,1.7-2.06,3.58-3.93,5.45-5.82.75-.77,1.46-1.57,2.17-2.38v-1.29c1.01-.66,2.02-1.3,3.05-1.93l.61-1.29c-.58-.74-1.17-1.48-1.75-2.22-.33-.41-.65-.82-.99-1.25q-.87-1.12-2.14-1.69v-1.29h-1.22v-1.29c-.36-.16-.71-.33-1.08-.5-1.51-.88-2.46-1.85-3.65-3.17-1.56-1.73-3.17-3.33-4.88-4.9-2.61-2.39-5.12-4.88-7.62-7.39-3.6-3.6-7.23-7.18-10.89-10.72-1.87-1.81-3.74-3.62-5.6-5.44-.32-.32-.65-.63-.98-.96-2.23-2.18-4.44-4.37-6.66-6.56q-3.96-3.94-8.02-7.75c-3.55-3.24-6.94-6.68-10.36-10.07-1.97-1.95-3.93-3.9-5.9-5.84q-.57-.57-1.16-1.14c-2.29-2.26-4.6-4.51-6.92-6.75-3.29-3.18-6.54-6.4-9.79-9.63-3.51-3.49-7.05-6.95-10.6-10.4-1.04-1.02-2.09-2.04-3.13-3.07-.35-.35-.71-.7-1.08-1.06-.67-.66-1.35-1.33-2.02-1.99-1.44-1.41-2.88-2.75-4.43-4.01-.43-.38-.85-.76-1.29-1.15v-1.29h-1.22c-2.04-2.74-3.01-5.36-3.77-8.74-.12-.5-.24-1-.36-1.51-.28-1.2-.56-2.4-.84-3.61-.51-2.23-1.03-4.45-1.56-6.68-.51-2.16-1.01-4.32-1.51-6.48-.25-1.09-.51-2.18-.76-3.27-.36-1.55-.72-3.1-1.08-4.65-.11-.47-.22-.94-.33-1.42-.49-2.15-.76-3.96-.76-6.19-.4-.21-.8-.43-1.22-.64q-.32-1.31-.57-3.05c-.67-4.25-1.57-8.42-2.51-12.61-.27-1.24-.55-2.47-.82-3.71-.38-1.72-.76-3.44-1.15-5.16-.47-2.12-.94-4.24-1.41-6.36-.09-.42-.18-.83-.28-1.26-.46-2.09-.93-4.18-1.39-6.27-.89-4.02-1.79-8.05-2.72-12.06q-.26-1.12-.52-2.27c-.32-1.39-.64-2.77-.97-4.16-1.29-5.69-2.38-12.13.54-17.43,3.19-4.24,6.9-5.07,11.83-5.08Z"/>
  <path class="st22" d="M402.76,242.39c3.5,2,6.52,4.69,9.22,7.78v1.29h1.22c.82,1.07,1.63,2.15,2.44,3.22.55.47,1.11.93,1.68,1.41.45.39.9.77,1.37,1.17v1.29c.34.15.69.3,1.05.46,3.32,1.99,6.42,5.9,8.13,9.5,1.19,4.8,1.14,8.66-1.03,13.13-1.55,2.63-3.65,4.69-5.74,6.84-.47.5-.95.99-1.44,1.51-1.51,1.58-3.03,3.15-4.55,4.72-1.51,1.57-3.02,3.15-4.53,4.72-.94.98-1.88,1.95-2.82,2.92-2.02,2.1-3.96,4.2-5.77,6.51-.52.63-1.05,1.27-1.59,1.92h-1.22q-.24.57-.48,1.14c-.8,1.55-1.67,2.57-2.86,3.8-.41.43-.82.86-1.24,1.3q-.64.66-1.29,1.33c-.43.45-.86.9-1.3,1.36-1.06,1.11-2.12,2.21-3.19,3.31.85,2,1.85,3.43,3.27,5.02q.6.67,1.21,1.36c.42.46.84.92,1.27,1.4q.62.7,1.26,1.41,2.15,2.42,4.4,4.74.78.9.78,2.19c.6.21,1.21.43,1.83.64q.9.96,1.87,2.22c1.73,2.16,3.54,4.18,5.45,6.17,1.79,1.87,3.51,3.74,5.14,5.76,1.75,2.16,3.61,4.17,5.52,6.17,1.86,1.94,3.68,3.89,5.37,6,2.05,2.54,4.27,4.87,6.51,7.21q4.56,4.78,6.59,7.25.47.57.95,1.16c.78.99,1.53,2,2.27,3.03q2.3,3.29,5.65,4.97c1.43-.17,2.67-.5,4.04-.93,10.32-2.16,21.06-.43,29.86,5.8,9.35,6.82,15.32,16.54,17.48,28.36,1.66,11.28-1.19,22.78-7.12,32.25-2.16,2.98-4.65,5.63-7.18,8.26-1.56,1.63-3.1,3.27-4.64,4.91-3.49,3.71-6.99,7.41-10.51,11.08-1.24,1.3-2.35,2.59-3.45,4.03-1.92,2.48-4.18,4.49-6.51,6.53-.38.33-.75.67-1.14,1.01-9.35,7.88-20.1,9.89-31.77,8.66-3.57-.67-7.02-1.73-10.36-3.22-.2-.43-.4-.85-.61-1.29-.41-.16-.83-.32-1.26-.48-2.54-1.14-4.51-2.88-6.67-4.67q-.9-.7-1.83-1.41c-7.05-6.34-11.23-16.66-12.11-26.26q-.42-7.41.54-10.26c.72-2.26,1-3.54.6-5.9-2.25-3.37-5.45-5.94-8.45-8.53-1.82-1.6-3.54-3.3-5.26-5.01q-4.91-4.76-10.05-9.23c-.4-.36-.8-.72-1.22-1.09v-1.29c-.36-.17-.71-.34-1.08-.51-1.44-.82-2.43-1.72-3.61-2.91-.42-.43-.84-.85-1.28-1.29-.45-.45-.89-.91-1.35-1.37-.93-.94-1.87-1.88-2.8-2.82-.46-.46-.91-.92-1.39-1.4-3.78-3.8-7.66-7.49-11.54-11.17-3.08-2.92-6.09-5.91-9.09-8.91-1.63-1.62-3.24-3.16-5.01-4.62-.41-.36-.82-.73-1.25-1.1v-1.29c-3.07,1.94-5.06,4.18-7.31,7.09q-1.37,1.57-2.44,2.58h-1.22c-.14.36-.28.72-.42,1.09-1.31,2.45-3.19,4.18-5.29,5.88-1.88,1.66-3.36,3.53-4.92,5.53-.31.34-.62.68-.95,1.04h-1.22q-.23.56-.46,1.13c-.87,1.66-1.85,2.78-3.2,4.03h-1.22q-.21.54-.43,1.09c-2.61,4.94-7.39,9.03-12.37,11-3.76.5-7.02.23-10.36-1.77-4.6-3.92-8.75-8.47-12.93-12.88-1.02-1.07-2.04-2.13-3.07-3.2-.66-.69-1.32-1.39-1.98-2.08-.3-.31-.6-.62-.91-.94-2.92-3.11-5.25-6.59-5.53-11.1.15-4.72,1.61-7.78,4.66-11.22.29-.33.58-.65.88-.99,3.96-4.44,8.05-8.75,12.13-13.06,1.39-1.47,2.78-2.94,4.16-4.41.9-.95,1.8-1.9,2.69-2.85q.61-.65,1.23-1.31c.39-.41.79-.83,1.19-1.25.34-.36.67-.71,1.02-1.08,1.13-1.13,2.29-2.2,3.47-3.27,3.41-3.14,6.57-6.53,9.76-9.91.7-.73,1.39-1.47,2.09-2.2,1.88-1.98,3.75-3.96,5.63-5.95,1.17-1.24,2.34-2.48,3.52-3.72,4.09-4.32,8.18-8.65,12.27-12.97,3.81-4.03,7.63-8.06,11.44-12.09,3.28-3.46,6.56-6.93,9.83-10.39,1.96-2.07,3.91-4.14,5.87-6.2,1.84-1.94,3.67-3.88,5.51-5.82.67-.71,1.35-1.43,2.02-2.14.92-.97,1.84-1.94,2.75-2.92.51-.54,1.03-1.09,1.56-1.65q1.29-1.35,1.77-3.33,1.02-1.06,2.29-2.18c2.6-2.34,4.97-4.72,7.16-7.49,1.98-2.52,4.07-4.75,6.47-6.81,1.48-1.33,2.44-2.53,3.58-4.15h1.22q.23-.56.46-1.13c.87-1.66,1.85-2.78,3.2-4.03h1.22c.2-.64.4-1.28.61-1.93q1.19-1.01,2.67-2.01c.48-.33.96-.67,1.46-1.01,3.69-2.29,7.26-2.07,11.03-.24Z"/>
  <path class="st6" d="M108.99,242.26c4.69,2.7,8.51,7.24,11.82,11.61q1.05,1.5,2.5,2.61c1.4,1.2,2.42,2.32,3.57,3.75,2.28,2.79,4.72,5.39,7.21,7.97,2.37,2.46,4.7,4.91,6.86,7.58,3,3.69,6.33,7.06,9.6,10.48,1.28,1.34,2.57,2.68,3.85,4.03.56.59,1.13,1.18,1.71,1.78,1.29,1.38,2.49,2.81,3.68,4.28,2.39,2.9,4.93,5.63,7.51,8.35.5.53,1,1.06,1.51,1.6,1.63,1.73,3.26,3.45,4.9,5.18,1.14,1.21,2.28,2.41,3.42,3.62,2.38,2.52,4.76,5.03,7.14,7.55,2.75,2.91,5.5,5.82,8.25,8.73,2.65,2.81,5.3,5.61,7.95,8.42,1.13,1.19,2.25,2.38,3.38,3.58,1.57,1.66,3.14,3.32,4.71,4.98.47.5.94.99,1.42,1.5.43.45.85.9,1.29,1.36.37.39.74.78,1.12,1.19q.92.97,2.16,1.56v1.29c.36.17.72.34,1.09.51,1.42.82,2.35,1.67,3.48,2.88q.61.64,1.23,1.3c.43.46.86.93,1.31,1.4.45.48.9.95,1.36,1.45,1.44,1.53,2.87,3.06,4.3,4.59.96,1.02,1.92,2.05,2.88,3.07,2.16,2.29,4.31,4.59,6.46,6.89.93.99,1.86,1.97,2.79,2.95,3.18,3.39,4.99,6.12,5.2,10.95-.23,7.41-5.36,11.89-9.98,16.88-.44.48-.89.96-1.34,1.46-1.44,1.56-2.88,3.11-4.33,4.66-.46.49-.92.99-1.39,1.5-3.94,4.17-7.73,8.06-13.46,8.78-7.79-.36-13.03-7.7-18.05-13.18-.83-.89-1.65-1.78-2.48-2.67-1.52-1.63-3.03-3.27-4.54-4.91q-3.2-3.53-6.69-6.72c-.44-.39-.88-.77-1.33-1.17v-1.29h-1.22c-1.78-1.72-3.31-3.55-4.84-5.52-1.67-2.09-3.26-3.47-5.52-4.8q-1.92-.22-3.24,1.38-.81.92-1.63,1.85c-.57.62-1.15,1.23-1.73,1.85q-.44.47-.89.96c-2.74,2.92-5.51,5.76-8.47,8.43-1.5,1.39-2.88,2.9-4.28,4.4-1.49,1.55-3.08,2.97-4.66,4.4-1.97,1.88-3.8,3.9-5.63,5.92q-1.15,1.11-2.37,1.11v1.29q-.89.94-2.12,2.02c-2.68,2.41-5.23,4.93-7.78,7.48-3.1,3.1-6.21,6.19-9.37,9.23-2.26,2.17-4.46,4.37-6.56,6.72q-.98.98-2.23,1.82c-1.34.93-2.17,1.58-3.02,3.03,0,2.18.36,4.12.79,6.25,1.96,9.78-1.1,20.23-5.97,28.52-6.18,9.69-14.97,16.39-25.9,18.74-2.28.27-4.52.34-6.82.32-.61,0-1.22,0-1.84,0-5.47-.14-10.09-1.27-15.11-3.54-.6-.27-1.21-.55-1.83-.83-9.21-4.76-16.54-14.58-23.7-22.12-1.48-1.56-2.98-3.12-4.47-4.67-1.45-1.51-2.89-3.03-4.33-4.55-.53-.55-1.06-1.1-1.6-1.66-4.39-4.66-7.95-9.79-10.27-15.93-.23-.59-.46-1.19-.7-1.8-1.6-4.91-2.07-9.18-2.04-14.36,0-.66,0-1.32.01-2,.19-12.39,4.99-21.87,13.28-30.48,7.75-7.09,17.48-10.31,27.66-10.07,2.42.2,4.75.64,7.12,1.23,2.18.32,3.86.1,5.65-1.3q.51-.55,1.03-1.12t1.15-1.24c.39-.44.79-.87,1.19-1.32.41-.44.82-.88,1.24-1.34,2.34-2.55,4.62-5.14,6.78-7.85.96-1.17,1.98-2.26,3.03-3.34,1.4-1.46,2.72-2.94,4-4.51,4.26-5.22,8.81-10.19,13.28-15.22,3.99-4.49,7.97-9,11.9-13.55,1.11-1.29,2.23-2.58,3.35-3.87,3.12-3.58,6.21-7.19,9.22-10.88-.87-2.1-1.92-3.46-3.47-5.04-.44-.45-.87-.9-1.32-1.37-.45-.46-.91-.93-1.38-1.41-.91-.93-1.81-1.85-2.71-2.79-.4-.41-.8-.82-1.21-1.24q-.88-1.05-.88-2.34h-1.22v-1.29c-.38-.16-.75-.32-1.14-.48-1.53-.95-1.76-1.73-2.51-3.38-.6-.21-1.21-.43-1.83-.64v-1.29c-.6-.21-1.21-.43-1.83-.64v-1.29h-1.22q-1.29-1.21-2.44-2.58v-1.29h-1.22q-1.29-1.21-2.44-2.58v-1.29h-1.22q-.88-.92-1.9-2.22c-1.19-1.5-2.38-2.96-3.66-4.37-3.18-3.52-5.33-6.69-5.43-11.69.67-9.33,8.96-15.73,14.85-21.88.44-.46.88-.92,1.33-1.39.4-.41.79-.82,1.2-1.25q.99-1.01,1.54-2.34h1.22c.2-.64.4-1.28.61-1.93q1.19-1.01,2.67-2.01c.48-.33.96-.67,1.46-1.01,3.71-2.3,7.72-2.15,11.6-.36Z"/>
  <path class="st28" d="M483.62,395.72c8.82,7,14.41,16.98,16.1,28.51,1.16,11.21-1.64,23.1-8.16,32.12-1.98,2.49-4.14,4.8-6.33,7.08-1.56,1.63-3.1,3.27-4.64,4.91-3.49,3.71-6.99,7.41-10.51,11.08-1.24,1.3-2.35,2.59-3.45,4.03-1.92,2.48-4.18,4.49-6.51,6.53-.38.33-.75.67-1.14,1.01-9.35,7.88-20.1,9.89-31.77,8.66-3.57-.67-7.02-1.73-10.36-3.22l-.61-1.29q-.62-.24-1.26-.48c-2.54-1.14-4.51-2.88-6.67-4.67-.6-.47-1.21-.93-1.83-1.41-7.06-6.35-11.2-16.64-12.11-26.25-.23-4.15-.3-8.24.54-12.31h1.22c.01-.77.03-1.54.04-2.34,1.35-12.12,11.9-20.7,19.61-28.77q5.77-5.99,11.18-12.32c5.04-6.23,12.74-14.7,20.73-15.8.68-.03,1.36-.05,2.06-.08v-1.29c11.93-3.4,23.77-1.06,33.87,6.3Z"/>
  <path class="st35" d="M69.49,402.31c2.08,2.1,4.12,4.24,6.16,6.38.56.59,1.12,1.18,1.7,1.79,1.18,1.24,2.35,2.48,3.53,3.72,1.49,1.57,2.99,3.14,4.48,4.7,1.45,1.52,2.9,3.05,4.34,4.57.53.55,1.06,1.1,1.6,1.67,4.53,4.81,8.69,10.01,11.32,16.24.28.65.56,1.29.85,1.96,1.73,4.99,2.17,9.67,2.12,14.96q0,.94-.02,1.9c-.17,10.91-3.24,19.83-10.5,27.83-7.73,7.71-16.92,12-27.54,11.93-.61,0-1.22,0-1.84,0-5.47-.14-10.09-1.27-15.11-3.54-.6-.27-1.21-.55-1.83-.83-9.21-4.76-16.54-14.58-23.7-22.12-1.48-1.56-2.98-3.12-4.47-4.67-1.45-1.51-2.89-3.03-4.33-4.55q-.79-.82-1.6-1.66c-4.39-4.66-7.95-9.79-10.27-15.93q-.35-.89-.7-1.8c-1.6-4.91-2.07-9.18-2.04-14.36,0-.66,0-1.32.01-2,.18-11.63,4.32-20.75,11.97-29.05,5.97-6,11.82-8.65,19.9-10.05q.66-.14,1.33-.28c13.63-2.5,25.01,3.73,34.63,13.17Z"/>
  <path class="st18" d="M100.57,309.48c2.98,2.64,5.79,5.38,8.53,8.3.35.37.7.74,1.07,1.12,1.84,1.95,3.6,3.93,5.3,6.01,2.23,2.72,4.59,5.28,7.01,7.81.4.43.81.86,1.23,1.31.4.43.81.86,1.23,1.3.36.38.71.75,1.08,1.14,1.13,1.13,2.28,2.19,3.46,3.26,3.84,3.54,7.4,7.4,11,11.21.79.83,1.57,1.66,2.36,2.49,1.64,1.73,3.27,3.46,4.9,5.18,2.1,2.22,4.2,4.43,6.3,6.65,1.62,1.71,3.23,3.41,4.85,5.12.77.82,1.55,1.64,2.33,2.45,1.08,1.14,2.15,2.28,3.23,3.42.32.34.65.68.98,1.02q2.19,2.34,2.19,3.77c.8.43,1.61.85,2.44,1.29-.4.64-.8,1.28-1.22,1.93h-1.22c-1.05,1.04-2.05,2.12-3.05,3.22-.57.62-1.15,1.23-1.73,1.85-.3.32-.59.63-.89.96-2.74,2.92-5.51,5.76-8.47,8.43-1.5,1.39-2.88,2.9-4.28,4.4-1.49,1.55-3.08,2.97-4.66,4.4-1.97,1.88-3.8,3.9-5.63,5.92q-1.15,1.11-2.37,1.11v1.29q-.89.94-2.12,2.02c-2.68,2.41-5.23,4.93-7.78,7.48-3.1,3.1-6.21,6.19-9.37,9.23-2.26,2.17-4.46,4.37-6.56,6.72q-.98.98-2.23,1.82c-1.34.93-2.17,1.58-3.02,3.03,0,2.18.36,4.12.79,6.25,1.11,5.53.2,10.83-.79,16.31h-.61c0-.49.02-.97.03-1.48.04-2.25.06-4.5.09-6.74.02-.77.03-1.53.05-2.32.09-11.16-3.23-20.56-10.55-28.6-.37-.41-.73-.81-1.11-1.23-1.24-1.38-2.49-2.75-3.74-4.11-.46-.5-.92-1-1.39-1.52-3.05-3.32-6.11-6.62-9.2-9.91-1.07-1.14-2.13-2.29-3.2-3.44-10.66-11.52-19.46-19.13-35.21-20.03-2.99.11-5.84.65-8.75,1.35-2,.48-3.03.72-5.02.02,7.57-2.89,15.01-3.45,22.89-1.51,2.18.32,3.86.1,5.65-1.3.34-.37.68-.74,1.03-1.12.38-.41.76-.82,1.15-1.24.39-.44.79-.87,1.19-1.32q.61-.66,1.24-1.34c2.34-2.55,4.62-5.14,6.78-7.85.96-1.17,1.98-2.26,3.03-3.34,1.4-1.46,2.72-2.94,4-4.51,4.26-5.22,8.81-10.19,13.28-15.22,3.99-4.49,7.97-9,11.9-13.55,1.11-1.29,2.23-2.58,3.35-3.87,3.12-3.58,6.21-7.19,9.22-10.88-.87-2.1-1.92-3.46-3.47-5.04-.44-.45-.87-.9-1.32-1.37q-.68-.7-1.38-1.41c-.91-.93-1.81-1.85-2.71-2.79-.4-.41-.8-.82-1.21-1.24q-.88-1.05-.88-2.34Z"/>
  <path class="st1" d="M398.57,310.76q0,1.93-.9,3.1c-.41.42-.82.84-1.24,1.28-.44.46-.88.92-1.33,1.39q-.7.71-1.41,1.44t-1.41,1.46c-1.15,1.2-2.31,2.39-3.47,3.57.85,2,1.85,3.43,3.27,5.02.4.45.8.9,1.21,1.36.42.46.84.92,1.27,1.4.42.46.83.93,1.26,1.41q2.15,2.42,4.4,4.74.78.9.78,2.19.9.32,1.83.64.9.96,1.87,2.22c1.73,2.16,3.54,4.18,5.45,6.17,1.79,1.87,3.51,3.74,5.14,5.76,1.75,2.16,3.61,4.17,5.52,6.17,1.86,1.94,3.68,3.89,5.37,6,2.05,2.54,4.27,4.87,6.51,7.21,3.48,3.65,6.74,7.42,9.9,11.39.48.59.96,1.18,1.45,1.79.44.54.87,1.09,1.32,1.65,1.5,1.44,2.41,1.73,4.39,1.94v.64c-.36.09-.72.17-1.1.26-10.68,2.94-18.33,12.14-25.54,20.5-2.55,2.96-5.16,5.82-7.87,8.62-.34.35-.67.7-1.02,1.06-1.37,1.42-2.73,2.83-4.11,4.23-7.03,7.19-12.12,14.3-14,24.64h-.61c.09-.54.18-1.09.28-1.64-.42-3.37-2.35-4.7-4.69-6.86-.44-.42-.89-.84-1.34-1.28-.9-.86-1.8-1.71-2.71-2.56-1.46-1.37-2.9-2.77-4.34-4.18q-5.34-5.23-10.96-10.12c-.4-.36-.8-.72-1.22-1.09v-1.29c-.36-.17-.71-.34-1.08-.51-1.44-.82-2.43-1.72-3.61-2.91-.42-.43-.84-.85-1.28-1.29-.45-.45-.89-.91-1.35-1.37-.93-.94-1.87-1.88-2.8-2.82q-.69-.69-1.39-1.4c-3.78-3.8-7.66-7.49-11.54-11.17-2.68-2.55-5.32-5.14-7.96-7.74-.39-.39-.78-.77-1.19-1.17-.73-.73-1.47-1.46-2.2-2.19-.79-.79-1.6-1.55-2.41-2.31-1.23-1.53-1.58-2.44-1.59-4.44q.94-1.35,2.29-2.62c1.34-1.29,2.52-2.44,3.59-3.99.27-.37.55-.75.83-1.13h1.22v-1.29q.92-.96,2.17-2.06c2.44-2.2,4.73-4.51,7-6.91.4-.42.8-.84,1.21-1.27,1.3-1.37,2.6-2.75,3.89-4.12.91-.96,1.82-1.93,2.74-2.89,1.9-2.01,3.81-4.03,5.71-6.05,2.43-2.57,4.86-5.14,7.29-7.71,1.88-1.99,3.76-3.98,5.64-5.97.9-.95,1.79-1.9,2.69-2.84,1.26-1.33,2.51-2.66,3.77-3.99.36-.38.73-.77,1.1-1.16,2.22-2.36,4.33-4.8,6.38-7.33,1.66-1.99,3.44-3.85,5.22-5.71q.54-.56,1.09-1.14c.87-.91,1.74-1.82,2.61-2.73Z"/>
  <path class="st15" d="M413.8,59.33c2.25,1.55,3.37,3.32,4.03,6.06.18,2.37.09,4.19-1.21,6.19q-.53.6-1.07,1.21c-.39.44-.77.89-1.17,1.35-.39.43-.78.86-1.18,1.31-.34.37-.67.74-1.02,1.13-1.02,1.11-2.05,2.21-3.09,3.3q-.59.62-1.19,1.26c-1.31,1.39-2.61,2.77-3.92,4.15-.95,1.01-1.9,2.01-2.85,3.02-2.6,2.76-5.21,5.52-7.81,8.27-2.52,2.67-5.04,5.34-7.56,8.01-6.75,7.15-13.5,14.3-20.25,21.45-3.19,3.38-6.39,6.76-9.58,10.14-10.93,11.57-21.86,23.15-32.79,34.72-.69.73-1.37,1.45-2.06,2.18-.34.36-.68.72-1.03,1.09-1.72,1.82-3.44,3.65-5.17,5.47q-.51.54-1.04,1.1c-11.1,11.75-22.19,23.5-33.28,35.25-11.73,12.43-23.46,24.85-35.19,37.27-1.29,1.36-2.57,2.72-3.86,4.09-.32.34-.63.67-.96,1.02-5.11,5.4-10.21,10.81-15.31,16.22-5.12,5.43-10.25,10.86-15.38,16.28-2.78,2.94-5.56,5.88-8.33,8.83-2.54,2.69-5.08,5.38-7.62,8.07-.92.97-1.84,1.95-2.76,2.93-1.24,1.33-2.49,2.64-3.75,3.96-.36.39-.72.77-1.09,1.17-1.87,1.94-3.22,3.25-5.91,3.33q-1.04-.63-1.97-1.63c-.34-.36-.68-.73-1.03-1.1-.34-.39-.69-.78-1.04-1.17-.35-.37-.7-.74-1.06-1.12-2.07-2.26-3.34-4.37-4.66-7.22,12.09-12.81,24.18-25.61,36.28-38.42,5.62-5.94,11.23-11.89,16.85-17.84,4.89-5.18,9.79-10.37,14.68-15.55,2.59-2.74,5.18-5.49,7.77-8.23,2.44-2.58,4.88-5.17,7.32-7.75.9-.95,1.79-1.9,2.68-2.84,1.22-1.3,2.45-2.59,3.67-3.88.35-.37.7-.75,1.07-1.13,2.1-2.21,4.28-4.23,6.57-6.22.76-.85,1.5-1.72,2.21-2.62q3.02-3.73,4.49-5.12h1.22c.2-.64.4-1.28.61-1.93q.84-.88,1.97-1.84c3.9-3.5,7.44-7.37,11.05-11.2.78-.83,1.56-1.65,2.34-2.48,1.63-1.72,3.26-3.44,4.88-5.17,2.08-2.21,4.17-4.41,6.25-6.61,1.61-1.7,3.22-3.4,4.83-5.11.77-.81,1.54-1.63,2.31-2.44,1.07-1.13,2.14-2.27,3.22-3.41q.47-.5.96-1.01c1.25-1.33,2.42-2.64,3.47-4.16.26-.35.51-.7.78-1.06h1.22c.14-.36.28-.72.42-1.09,1.58-2.95,4.16-5.01,6.54-7.24,3.75-3.57,7.3-7.34,10.86-11.13.73-.77,1.45-1.55,2.18-2.32,1.55-1.65,3.11-3.3,4.66-4.95,2.46-2.61,4.92-5.22,7.38-7.84,6.99-7.42,13.98-14.84,20.96-22.27,3.87-4.11,7.73-8.22,11.61-12.33,2.45-2.59,4.89-5.19,7.33-7.79,1.52-1.61,3.04-3.23,4.56-4.84.7-.75,1.41-1.49,2.11-2.24.96-1.02,1.92-2.04,2.89-3.06q.81-.86,1.63-1.73c3.59-3.27,6.82-4.23,11.34-2.74Z"/>
  <path class="st7" d="M94.48,70.93c2.39,1.06,4.2,2.77,6.13,4.55.71.65,1.43,1.3,2.14,1.95.35.32.71.64,1.07.97,1.39,1.25,2.82,2.45,4.25,3.65,3.37,2.9,6.52,6.03,9.66,9.19,2.35,2.36,4.75,4.65,7.2,6.9,2.58,2.41,5.05,4.93,7.54,7.43.41.41.82.82,1.24,1.24q.55.55,1.11,1.11,1.1,1.08,2.45,2.06.54.45,1.08.91v1.29c.35.16.7.31,1.06.48,1.63.96,2.68,2.09,3.97,3.51,1.71,1.86,3.43,3.64,5.29,5.32,1.93,1.75,3.73,3.6,5.52,5.52,1.75,1.88,3.51,3.69,5.41,5.4,2.17,1.96,4.17,4.06,6.17,6.21,1.96,2.1,3.92,4.17,6.06,6.08,2.62,2.35,5,4.93,7.4,7.53,1.72,1.85,3.48,3.61,5.34,5.3,3.32,3.03,6.34,6.36,9.41,9.66,2.54,2.72,5.13,5.33,7.88,7.81,1.12,1.04,2.17,2.13,3.21,3.26,1.86,2,3.82,3.84,5.83,5.67,1.69,1.58,3.26,3.26,4.83,4.97-1.01,2.79-2.97,4.57-4.95,6.61-.34.36-.69.71-1.04,1.08-.84.88-1.69,1.75-2.54,2.62-1.97-.92-3.28-2.02-4.79-3.63-.44-.47-.88-.93-1.33-1.42q-.68-.73-1.38-1.48c-.45-.47-.89-.95-1.36-1.44-2.53-2.7-4.94-5.46-7.29-8.34-1.07-1.29-2.19-2.5-3.35-3.69-1.53-1.6-2.99-3.22-4.38-4.96-1.98-2.45-4.12-4.71-6.28-6.97-2.5-2.61-4.89-5.25-7.17-8.09-1.8-2.14-3.76-4.12-5.68-6.13-1.63-1.75-3.14-3.58-4.65-5.44-1.22-1.46-2.51-2.82-3.83-4.19-1.69-1.76-3.3-3.54-4.84-5.44-2.09-2.59-4.36-4.96-6.67-7.33-1.65-1.79-3.2-3.65-4.75-5.55-1.78-2.15-3.64-4.22-5.49-6.3-.8-.9-1.61-1.81-2.41-2.71-.4-.45-.79-.89-1.2-1.35-5.16-5.82-10.22-11.72-15.25-17.66-1.97-2.33-3.95-4.65-5.96-6.93-5.36-6.07-10.48-12.2-14.68-19.26Z"/>
  <path class="st29" d="M294.36,272.73l2.44,1.29c.2.64.4,1.28.61,1.93.81.45,1.62.87,2.44,1.29q.87.95,1.68,2.06c1.31,1.69,2.65,3.14,4.23,4.55,4.44,4,8.52,8.42,12.27,13.14,1.17,1.36,2.38,2.63,3.64,3.91.42.43.84.86,1.27,1.3.85.87,1.71,1.73,2.58,2.59q.59.6,1.19,1.22c.36.36.72.72,1.09,1.09q.7,1.1.63,2.39c-.63,1.51-1.35,2.37-2.46,3.52q-.57.6-1.16,1.21c-.4.41-.8.82-1.22,1.24q-.61.63-1.22,1.27c-1,1.03-2,2.06-3,3.08-3.85-3.37-7.37-7.04-10.9-10.76q-.47-.49-.94-.99c-1.64-1.72-3.28-3.45-4.91-5.18-1.68-1.78-3.38-3.55-5.07-5.32-1.31-1.37-2.61-2.74-3.91-4.12-.62-.66-1.24-1.31-1.87-1.96-.87-.91-1.74-1.83-2.6-2.75-.49-.52-.99-1.04-1.49-1.57q-1.21-1.51-2.42-4.74l9.14-9.67Z"/>
  <path class="st26" d="M138.96,274.66c4.22,3.65,8.01,7.76,11.85,11.85.69.73,1.37,1.46,2.06,2.18,1.67,1.77,3.33,3.54,4.99,5.31l-1.22,1.29-1.94-2.06c-.39-.41-.78-.82-1.18-1.24-.7-.74-1.39-1.48-2.07-2.24-.69-.76-1.41-1.49-2.13-2.21h-1.22q-.25-.74-.5-1.49c-.7-1.68-1.21-2.53-2.55-3.67l-1.83-.64c-.63-1.06-1.23-2.14-1.83-3.22-.44-.47-.88-.93-1.33-1.41-.36-.39-.73-.77-1.1-1.17v-1.29Z"/>
  <path class="st2" d="M141.4,275.95c2.02.71,2.42,1.21,3.73,2.9,2.46,3.06,5.11,5.88,7.81,8.7.47.5.95,1,1.44,1.51,1.16,1.22,2.31,2.43,3.47,3.64l-.61,1.29c-2.26-2.36-4.52-4.72-6.77-7.09-.77-.81-1.54-1.61-2.31-2.41-1.1-1.15-2.2-2.31-3.3-3.47-.35-.36-.69-.72-1.05-1.09-.83-.88-1.63-1.79-2.42-2.7v-1.29Z"/>
  <path class="st17" d="M198.08,336.55h1.22v1.29c.6.21,1.21.43,1.83.64v1.29h1.22c.82,1.07,1.63,2.15,2.44,3.22.55.47,1.11.93,1.68,1.41.45.39.9.77,1.37,1.17v1.29h1.22v1.29l2.44,1.29-1.22,1.29c-1.74-1.81-3.48-3.62-5.21-5.44-.59-.62-1.18-1.23-1.77-1.85-.85-.88-1.7-1.77-2.54-2.66-.51-.53-1.02-1.07-1.55-1.62q-1.12-1.33-1.12-2.62Z"/>
  <path class="st20" d="M391.86,243.07q0,1.29-1.02,2.4c-.44.4-.88.81-1.34,1.22-.44.41-.88.81-1.33,1.23q-1.19.94-2.4.94c-.14.37-.28.74-.42,1.13-1,1.82-2.26,2.79-3.85,4.03l-1.22-.64,1.83-.64c.42-.85.82-1.71,1.22-2.58q1.22-1.45,2.44-2.58h1.22c.2-.64.4-1.28.61-1.93q2.72-2.58,4.27-2.58Z"/>
  <path class="st23" d="M285.22,354.61l1.22.64c-2.55,3.3-5.21,6.56-8.53,9.03h-1.83c3.02-3.19,6.03-6.38,9.14-9.67Z"/>
  <path class="st31" d="M271.2,369.43v3.22c-.98.93-2.01,1.81-3.05,2.66-.57.47-1.13.93-1.71,1.42-.44.36-.88.71-1.33,1.08l-1.22-.64c2.41-2.55,4.83-5.11,7.31-7.74Z"/>
  <path class="st33" d="M144.45,267.57l.61,1.29q-.76,1.69-1.83,3.22h-1.83c-.4,1.06-.8,2.13-1.22,3.22l-1.22-1.29c1.81-2.13,3.62-4.26,5.48-6.45Z"/>
  <path class="st21" d="M210.87,350.74c.43.2.85.4,1.29.6,1.81.71,3.51,1.05,5.41,1.33q-.84,1.29-1.83,2.58h-1.22v-1.29c-.38-.17-.75-.35-1.14-.52q-1.29-.77-2.51-2.7Z"/>
  <path class="st34" d="M157.86,293.36l.61,1.29q.53.24,1.07.48c1.98,1.17,3.02,2.79,4.42,4.67q-1.83,0-2.94-.92c-.37-.4-.75-.8-1.14-1.22q-.57-.59-1.15-1.2-.87-1.18-.87-3.11Z"/>
  <path class="st16" d="M94.48,70.93c2.88,1.39,4.35,3.25,5.64,6.33.15.47.3.93.46,1.41-2.89-2.1-4.39-4.58-6.09-7.74Z"/>
  <path class="st25" d="M186.5,324.95c3.05.92,4.23,2.57,6.09,5.16q-1.83,0-2.94-.96c-.37-.41-.75-.83-1.14-1.25-.38-.41-.76-.82-1.15-1.25q-.87-1.05-.87-1.69Z"/>
  <path class="st37" d="M152.37,289.49c2.6,1.02,3.82,2.9,5.48,5.16q-1.83,0-2.81-.8c-.32-.35-.64-.69-.96-1.05-.32-.34-.65-.69-.98-1.04q-.74-.97-.74-2.26Z"/>
  <path class="st4" d="M192.59,330.75c2.31.96,3.42,2.42,4.88,4.51q-1.83,0-3.47-1.53-1.41-1.69-1.41-2.98Z"/>
  <path class="st27" d="M182.23,319.79c2.31.96,3.42,2.42,4.88,4.51q-1.83,0-3.47-1.53-1.41-1.69-1.41-2.98Z"/>
  <path class="st10" d="M106.67,329.46c.6.21,1.21.43,1.83.64q-2.11,1.91-4.27,3.87,0-1.93,1.22-3.34c.4-.39.8-.77,1.22-1.17Z"/>
  <path class="st14" d="M163.95,300.45c1.52.78,2.85,1.58,4.27,2.58-.2.64-.4,1.28-.61,1.93-1.24-1.04-2.46-2.12-3.66-3.22v-1.29Z"/>
  <path class="st36" d="M42.07,67.71l.61,2.58-.61-2.58Z"/>
  <path class="st13" d="M106.06,445.51l.61,1.29c-.4-.21-.8-.43-1.22-.64l.61-.64Z"/>
  <path class="st13" d="M-61.53-73.48"/>
  <path class="st9" d="M131.04,25.16l1.83.64-1.83-.64Z"/>
  <path class="st9" d="M-61.53-73.48"/>
  <path class="st30" d="M212.7,424.88l1.22.64-1.22-.64Z"/>
  <path class="st30" d="M-61.53-73.48"/>
  <path class="st30" d="M-61.53-73.48"/>
  <path class="st3" d="M458.9,386.84l1.22.64-1.22-.64Z"/>
  <path class="st19" d="M37.8,386.84l1.22.64-1.22-.64Z"/>
  <path class="st5" d="M391.86,241.14l1.22.64-1.22-.64Z"/>
  <path class="st32" d="M97.53,241.14l1.22.64-1.22-.64Z"/>
  <path class="st0" d="M267.55,127.67l1.22.64-1.22-.64Z"/>
  <path class="st0" d="M-61.53-73.48"/>
  <path class="st0" d="M-61.53-73.48"/>
  <path class="st0" d="M-61.53-73.48"/>
  <path class="st0" d="M-61.53-73.48"/>
  <path class="st24" d="M354.08,29.67l1.22.64-1.22-.64Z"/>
  <path class="st11" d="M427.82,9.69l1.22.64-1.22-.64Z"/>
  <path class="st36" d="M430.86,9.04l1.22.64-1.22-.64Z"/>
  <path class="st8" d="M450.36,3.88l1.22.64-1.22-.64Z"/>
  <path class="st8" d="M-61.53-73.48"/>
  <path class="st8" d="M-61.53-73.48"/>
  <path class="st8" d="M-61.53-73.48"/>
  <path class="st8" d="M-61.53-73.48"/>
  <path class="st8" d="M-61.53-73.48"/>
  <path class="st8" d="M-61.53-73.48"/>
  <path class="st8" d="M-61.53-73.48"/>
  <path class="st8" d="M-61.53-73.48"/>
  <path class="st8" d="M-61.53-73.48"/>
  <path class="st8" d="M-61.53-73.48"/>
  <path class="st8" d="M-61.53-73.48"/>
  <path class="st8" d="M-61.53-73.48"/>
  <path class="st8" d="M-61.53-73.48"/>
  <path class="st8" d="M-61.53-73.48"/>
  <path class="st8" d="M-61.53-73.48"/>
  <path class="st8" d="M-61.53-73.48"/>
  <path class="st8" d="M-61.53-73.48"/>
  <path class="st8" d="M-61.53-73.48"/>
  <path class="st8" d="M-61.53-73.48"/>
  <path class="st8" d="M-61.53-73.48"/>
  <path class="st8" d="M-61.53-73.48"/>
  <path class="st8" d="M-61.53-73.48"/>
  <path class="st8" d="M-61.53-73.48"/>
  <path class="st8" d="M-61.53-73.48"/>
  <path class="st8" d="M-61.53-73.48"/>
  <path class="st8" d="M-61.53-73.48"/>
  <path class="st8" d="M-61.53-73.48"/>
  <path class="st8" d="M-61.53-73.48"/>
  <path class="st8" d="M-61.53-73.48"/>
  <path class="st8" d="M-61.53-73.48"/>
  <path class="st8" d="M-61.53-73.48"/>
  <path class="st8" d="M-61.53-73.48"/>
  <path class="st8" d="M-61.53-73.48"/>
  <path class="st8" d="M-61.53-73.48"/>
  <path class="st8" d="M-61.53-73.48"/>
  <path class="st8" d="M-61.53-73.48"/>
  <path class="st8" d="M-61.53-73.48"/>
  <path class="st8" d="M-61.53-73.48"/>
  <path class="st8" d="M-61.53-73.48"/>
  <path class="st8" d="M-61.53-73.48"/>
  <path class="st8" d="M-61.53-73.48"/>
  <path class="st8" d="M-61.53-73.48"/>
  <path class="st8" d="M-61.53-73.48"/>
  <path class="st8" d="M-61.53-73.48"/>
  <path class="st8" d="M-61.53-73.48"/>
  <path class="st8" d="M-61.53-73.48"/>
  <path class="st8" d="M-61.53-73.48"/>
  <path class="st8" d="M-61.53-73.48"/>
  <path class="st8" d="M-61.53-73.48"/>
  <path class="st8" d="M-61.53-73.48"/>
  <path class="st8" d="M-61.53-73.48"/>
  <path class="st8" d="M-61.53-73.48"/>
  <path class="st8" d="M-61.53-73.48"/>
  <path class="st8" d="M-61.53-73.48"/>
  <path class="st8" d="M-61.53-73.48"/>
  <path class="st8" d="M-61.53-73.48"/>
  <path class="st8" d="M-61.53-73.48"/>
  <path class="st8" d="M-61.53-73.48"/>
  <path class="st8" d="M-61.53-73.48"/>
  <path class="st8" d="M-61.53-73.48"/>
  <path class="st8" d="M-61.53-73.48"/>
  <path class="st8" d="M-61.53-73.48"/>
  <path class="st8" d="M-61.53-73.48"/>
  <path class="st8" d="M-61.53-73.48"/>
  <path class="st8" d="M-61.53-73.48"/>
  <path class="st8" d="M-61.53-73.48"/>
  <path class="st8" d="M-61.53-73.48"/>
  <path class="st8" d="M-61.53-73.48"/>
  <path class="st8" d="M-61.53-73.48"/>
  <path class="st8" d="M-61.53-73.48"/>
  <path class="st8" d="M-61.53-73.48"/>
  <path class="st8" d="M-61.53-73.48"/>
  <path class="st8" d="M-61.53-73.48"/>
  <path class="st8" d="M-61.53-73.48"/>
  <path class="st8" d="M-61.53-73.48"/>
  <path class="st8" d="M-61.53-73.48"/>
  <path class="st8" d="M-61.53-73.48"/>
  <path class="st8" d="M-61.53-73.48"/>
  <path class="st8" d="M-61.53-73.48"/>
  <path class="st8" d="M-61.53-73.48"/>
  <path class="st8" d="M-61.53-73.48"/>
  <path class="st8" d="M-61.53-73.48"/>
  <path class="st8" d="M-61.53-73.48"/>
  <path class="st8" d="M-61.53-73.48"/>
  <path class="st8" d="M-61.53-73.48"/>
  <path class="st8" d="M-61.53-73.48"/>
  <path class="st8" d="M-61.53-73.48"/>
  <path class="st8" d="M-61.53-73.48"/>
  <path class="st8" d="M-61.53-73.48"/>
  <path class="st8" d="M-61.53-73.48"/>
  <path class="st8" d="M-61.53-73.48"/>
  <path class="st8" d="M-61.53-73.48"/>
  <path class="st8" d="M-61.53-73.48"/>
  <path class="st8" d="M-61.53-73.48"/>
  <path class="st8" d="M-61.53-73.48"/>
  <path class="st8" d="M-61.53-73.48"/>
  <path class="st8" d="M-61.53-73.48"/>
  <path class="st8" d="M-61.53-73.48"/>
  <path class="st8" d="M-61.53-73.48"/>
  <path class="st8" d="M-61.53-73.48"/>
  <path class="st8" d="M-61.53-73.48"/>
  <path class="st8" d="M-61.53-73.48"/>
  <path class="st8" d="M-61.53-73.48"/>
  <path class="st8" d="M-61.53-73.48"/>
  <path class="st8" d="M-61.53-73.48"/>
  <path class="st8" d="M-61.53-73.48"/>
  <path class="st8" d="M-61.53-73.48"/>
  <path class="st8" d="M-61.53-73.48"/>
  <path class="st8" d="M-61.53-73.48"/>
  <path class="st8" d="M-61.53-73.48"/>
  <path class="st8" d="M-61.53-73.48"/>
  <path class="st8" d="M-61.53-73.48"/>
  <path class="st8" d="M-61.53-73.48"/>
  <path class="st8" d="M-61.53-73.48"/>
  <path class="st8" d="M-61.53-73.48"/>
  <path class="st8" d="M-61.53-73.48"/>
  <path class="st8" d="M-61.53-73.48"/>
  <path class="st8" d="M-61.53-73.48"/>
  <path class="st8" d="M-61.53-73.48"/>
  <path class="st8" d="M-61.53-73.48"/>
  <path class="st8" d="M-61.53-73.48"/>
  <path class="st8" d="M-61.53-73.48"/>
  <path class="st8" d="M-61.53-73.48"/>
  <path class="st8" d="M-61.53-73.48"/>
  <path class="st8" d="M-61.53-73.48"/>
  <path class="st8" d="M-61.53-73.48"/>
  <path class="st8" d="M-61.53-73.48"/>
  <path class="st8" d="M-61.53-73.48"/>
  <path class="st8" d="M-61.53-73.48"/>
  <path class="st8" d="M-61.53-73.48"/>
  <path class="st8" d="M-61.53-73.48"/>
  <path class="st8" d="M-61.53-73.48"/>
  <path class="st8" d="M-61.53-73.48"/>
  <path class="st8" d="M-61.53-73.48"/>
  <path class="st8" d="M-61.53-73.48"/>
  <path class="st8" d="M-61.53-73.48"/>
  <path class="st8" d="M-61.53-73.48"/>
  <path class="st8" d="M-61.53-73.48"/>
  <path class="st8" d="M-61.53-73.48"/>
  <path class="st8" d="M-61.53-73.48"/>
  <path class="st8" d="M-61.53-73.48"/>
  <path class="st8" d="M-61.53-73.48"/>
  <path class="st8" d="M-61.53-73.48"/>
  <path class="st8" d="M-61.53-73.48"/>
  <path class="st8" d="M-61.53-73.48"/>
  <path class="st8" d="M-61.53-73.48"/>
  <path class="st8" d="M-61.53-73.48"/>
  <path class="st8" d="M-61.53-73.48"/>
  <path class="st8" d="M-61.53-73.48"/>
</svg>