<?xml version="1.0" encoding="UTF-8"?>
<svg version="1.1" xmlns="http://www.w3.org/2000/svg" width="1024" height="1024">
<path d="M0 0 C0.73283203 -0.01224609 1.46566406 -0.02449219 2.22070312 -0.03710938 C4.12776507 -0.04236299 6.03434886 0.06531728 7.9375 0.1875 C8.9275 1.1775 8.9275 1.1775 9.9375 2.1875 C11.83080879 2.75317267 13.75091221 3.23070353 15.6796875 3.66015625 C16.82824219 3.91990234 17.97679687 4.17964844 19.16015625 4.44726562 C20.96806641 4.84461914 20.96806641 4.84461914 22.8125 5.25 C25.184918 5.78245334 27.55731473 6.31500145 29.9296875 6.84765625 C30.98526855 7.08105713 32.04084961 7.31445801 33.12841797 7.55493164 C37.46974495 8.53254143 41.75939987 9.66813444 46.05859375 10.81640625 C48.49738181 11.46099056 50.93618445 12.1055197 53.375 12.75 C54.60283203 13.07935547 55.83066406 13.40871094 57.09570312 13.74804688 C58.27970703 14.05935547 59.46371094 14.37066406 60.68359375 14.69140625 C61.76310303 14.97830322 62.8426123 15.2652002 63.95483398 15.56079102 C66.88072346 16.28807937 66.88072346 16.28807937 69.70336914 16.15600586 C71.9375 16.1875 71.9375 16.1875 73.9375 18.1875 C75.74526717 18.76316679 77.58082197 19.25311384 79.42578125 19.6953125 C80.52470703 19.95957031 81.62363281 20.22382813 82.75585938 20.49609375 C83.90892578 20.76550781 85.06199219 21.03492188 86.25 21.3125 C87.39146484 21.58964844 88.53292969 21.86679688 89.70898438 22.15234375 C95.62995395 23.65971824 95.62995395 23.65971824 101.68041992 24.14013672 C103.9375 24.1875 103.9375 24.1875 105.9375 26.1875 C107.74526717 26.76316679 109.58082197 27.25311384 111.42578125 27.6953125 C112.52470703 27.95957031 113.62363281 28.22382813 114.75585938 28.49609375 C115.90892578 28.76550781 117.06199219 29.03492188 118.25 29.3125 C119.39146484 29.58964844 120.53292969 29.86679688 121.70898438 30.15234375 C127.62995395 31.65971824 127.62995395 31.65971824 133.68041992 32.14013672 C135.9375 32.1875 135.9375 32.1875 137.9375 34.1875 C140.33296587 34.94100901 140.33296587 34.94100901 143.13671875 35.51953125 C144.18150391 35.76123047 145.22628906 36.00292969 146.30273438 36.25195312 C148.49648906 36.74590259 150.69179413 37.23302206 152.88867188 37.71289062 C159.31475921 39.21401832 163.96449728 40.76942463 168.9375 45.1875 C168.9375 45.8475 168.9375 46.5075 168.9375 47.1875 C169.9275 47.5175 170.9175 47.8475 171.9375 48.1875 C173.55078125 49.82421875 173.55078125 49.82421875 175.25 51.875 C177.52510665 54.57124342 179.8297017 57.11973742 182.375 59.5625 C184.9375 62.1875 184.9375 62.1875 184.9375 64.1875 C185.5975 64.1875 186.2575 64.1875 186.9375 64.1875 C188.40039063 65.65625 188.40039063 65.65625 190.09375 67.6875 C193.74716587 71.98385655 197.55975808 76.09388379 201.4375 80.1875 C205.79261493 84.78506463 210.05336404 89.43657314 214.20507812 94.21875 C217.04277555 97.44355159 219.99142608 100.56198636 222.9375 103.6875 C227.03044725 108.04932699 231.06916675 112.4325001 234.96875 116.96875 C238.49996335 120.94837139 242.16830904 124.80220949 245.80883789 128.68164062 C249.43482001 132.55324595 252.97483582 136.47778526 256.43359375 140.5 C258.58752534 142.91687909 260.90091644 145.15920802 263.20703125 147.4296875 C265.54477329 149.80436903 267.69827356 152.31814503 269.875 154.83984375 C273.94175212 159.46885516 278.16310455 163.95972267 282.35253906 168.47753906 C302.57870423 190.29886698 302.57870423 190.29886698 311.1875 199.9375 C314.00892406 203.09358202 316.88093085 206.19322882 319.796875 209.26171875 C320.8192627 210.34018066 320.8192627 210.34018066 321.86230469 211.44042969 C323.22854464 212.87867853 324.59889226 214.31303828 325.97363281 215.74316406 C326.60108398 216.40413086 327.22853516 217.06509766 327.875 217.74609375 C328.44089844 218.33704834 329.00679688 218.92800293 329.58984375 219.53686523 C330.9375 221.1875 330.9375 221.1875 331.9375 224.1875 C332.5975 224.1875 333.2575 224.1875 333.9375 224.1875 C333.9375 224.8475 333.9375 225.5075 333.9375 226.1875 C337.66748433 224.15060421 340.23071517 222.02465697 343 218.8125 C346.53292003 214.78239751 350.10641388 210.80457726 353.75 206.875 C354.78000119 205.76176804 355.80994862 204.64848633 356.83984375 203.53515625 C357.61110596 202.70201904 357.61110596 202.70201904 358.39794922 201.85205078 C359.89346735 200.23510777 361.38666259 198.61605869 362.87890625 196.99609375 C367.09199802 192.42348482 371.30843424 187.85463587 375.55859375 183.31640625 C376.17299316 182.6601123 376.78739258 182.00381836 377.42041016 181.32763672 C378.59727009 180.07162848 379.77524047 178.8166593 380.95458984 177.56298828 C383.81570647 174.5098391 386.62101919 171.42229197 389.36328125 168.26171875 C393.06705501 164.00291853 396.92630946 159.90448231 400.8125 155.8125 C405.82591511 150.51080637 410.79358779 145.18191585 415.64453125 139.73046875 C419.21286058 135.77308818 422.85992074 131.88860692 426.51049805 128.00708008 C428.70906542 125.65617314 430.79808222 123.37896709 432.6953125 120.7734375 C433.31019531 119.98839844 433.31019531 119.98839844 433.9375 119.1875 C434.5975 119.1875 435.2575 119.1875 435.9375 119.1875 C436.20175781 118.59453125 436.46601562 118.0015625 436.73828125 117.390625 C437.98120425 115.10720946 439.24151646 113.71323277 441.125 111.9375 C443.63876739 109.5591346 445.94078439 107.06463786 448.20703125 104.453125 C452.44747181 99.56858829 456.88445713 94.88267103 461.33203125 90.1875 C465.08916262 86.20478518 468.74828781 82.15684093 472.33837891 78.02294922 C476.43597032 73.3197901 480.69771138 68.76216959 484.9375 64.1875 C485.58025879 63.49285645 486.22301758 62.79821289 486.88525391 62.08251953 C488.98132753 59.82144742 491.08359453 57.56628471 493.1875 55.3125 C494.17931274 54.24237671 494.17931274 54.24237671 495.19116211 53.15063477 C504.41666572 43.30586129 511.62396983 38.97739608 524.75 36 C525.49958984 35.82275391 526.24917969 35.64550781 527.02148438 35.46289062 C530.05566684 34.76060889 532.81269383 34.1875 535.9375 34.1875 C535.9375 33.5275 535.9375 32.8675 535.9375 32.1875 C537.17628906 32.084375 538.41507813 31.98125 539.69140625 31.875 C545.57295529 31.22059846 551.17200965 29.72669027 556.875 28.1875 C557.91462891 27.91421875 558.95425781 27.6409375 560.02539062 27.359375 C565.10404288 26.10948788 565.10404288 26.10948788 569.9375 24.1875 C571.60051951 23.91428965 573.26821112 23.66934568 574.9375 23.4375 C580.60062887 22.5349819 586.0481206 21.16876196 591.5625 19.625 C592.75359375 19.29193848 592.75359375 19.29193848 593.96875 18.95214844 C598.04547013 17.81847283 598.04547013 17.81847283 601.9375 16.1875 C603.54941767 15.96884871 605.16142948 15.75087277 606.77386475 15.53607178 C611.20116248 14.82281337 615.53438766 13.65386439 619.8828125 12.5703125 C620.92968231 12.31248993 621.97655212 12.05466736 623.05514526 11.78903198 C626.39172905 10.96671872 629.72715539 10.13982369 633.0625 9.3125 C677.12375803 -1.58056511 677.12375803 -1.58056511 685.04296875 2.77734375 C689.27712054 5.92894951 692.27844085 10.21032254 693.9375 15.1875 C694.45691886 23.14110126 692.7913564 30.22979974 690.9375 37.9375 C690.37015809 40.32698055 689.80746805 42.7175716 689.25 45.109375 C688.87294922 46.68090332 688.87294922 46.68090332 688.48828125 48.28417969 C687.97234582 51.00381804 687.83076439 53.4288927 687.9375 56.1875 C687.2775 56.1875 686.6175 56.1875 685.9375 56.1875 C685.80786865 57.34562698 685.6782373 58.50375397 685.54467773 59.69697571 C685.02077674 63.87103011 684.18545627 67.94296551 683.22265625 72.03588867 C683.05164902 72.77741684 682.88064178 73.51894501 682.70445251 74.28294373 C682.14024941 76.72471906 681.57023489 79.1650956 681 81.60546875 C680.59670792 83.34378787 680.19371948 85.08217745 679.79101562 86.82063293 C678.9427741 90.47858483 678.09182498 94.13589241 677.23876953 97.79272461 C676.17376147 102.3584527 675.11385017 106.92534285 674.05574036 111.49267387 C671.98845285 120.41467389 669.90637077 129.33306953 667.80561829 138.24725151 C666.7588741 142.68927103 665.71656493 147.132226 664.68457031 151.57769775 C663.67999221 155.90395699 662.6634925 160.22724792 661.63818359 164.5486393 C661.25893486 166.15582619 660.88382921 167.76399723 660.51318359 169.37318993 C660.00194816 171.58930922 659.47552508 173.80129556 658.9453125 176.01293945 C658.65285645 177.25912552 658.36040039 178.50531158 658.05908203 179.78926086 C655.03434387 188.95380105 647.49308402 194.88870315 640.41796875 200.9921875 C636.46487095 204.49083468 632.62947583 208.11437235 628.77709961 211.72314453 C624.70084581 215.54158571 620.6103611 219.34331372 616.5 223.125 C610.92730521 228.25595152 605.40052777 233.4347759 599.87915039 238.62084961 C595.23337208 242.98131684 590.56209375 247.31260065 585.87329102 251.62670898 C581.5156034 255.64140874 577.1930735 259.69276341 572.875 263.75 C565.35261002 270.81540568 557.75804095 277.79604754 550.12890625 284.74609375 C544.01975611 290.32473425 537.96400852 295.95709787 531.9375 301.625 C531.20700439 302.31166748 530.47650879 302.99833496 529.72387695 303.70581055 C529.03124756 304.358479 528.33861816 305.01114746 527.625 305.68359375 C526.97660156 306.29444824 526.32820312 306.90530273 525.66015625 307.53466797 C524.26157314 308.87656248 522.9051501 310.2622985 521.5625 311.66015625 C519.9375 313.1875 519.9375 313.1875 517.9375 313.1875 C517.9375 313.8475 517.9375 314.5075 517.9375 315.1875 C516.43359375 316.66796875 516.43359375 316.66796875 514.375 318.375 C510.82753826 321.37427493 507.57227128 324.52745132 504.3828125 327.90234375 C502.9375 329.1875 502.9375 329.1875 500.9375 329.1875 C500.9375 329.8475 500.9375 330.5075 500.9375 331.1875 C499.43359375 332.66796875 499.43359375 332.66796875 497.375 334.375 C494.6121132 336.72029758 491.97070243 339.09579405 489.4375 341.6875 C486.34339653 344.83824609 483.07947182 347.73324857 479.73046875 350.609375 C478.28229809 351.88401758 476.90883859 353.24323144 475.5625 354.625 C473.9375 356.1875 473.9375 356.1875 471.9375 356.1875 C471.9375 356.8475 471.9375 357.5075 471.9375 358.1875 C470.31123596 359.56982443 468.6449998 360.90687515 466.9375 362.1875 C467.44491118 366.38396042 469.72223134 368.30365062 472.671875 371.1796875 C473.14691467 371.64811066 473.62195435 372.11653381 474.11138916 372.59915161 C475.62980984 374.09421915 477.15799854 375.57877757 478.6875 377.0625 C480.20100592 378.5407069 481.71227085 380.02110308 483.22076416 381.50442505 C484.59829791 382.85742103 485.98208399 384.20404264 487.36621094 385.55029297 C490.06776138 388.32110078 492.48262341 391.19795413 494.9375 394.1875 C496.57947932 395.87849363 498.24853153 397.54343763 499.9375 399.1875 C502.38001484 401.57826961 504.81573612 403.97583364 507.25 406.375 C507.89517578 407.00341797 508.54035156 407.63183594 509.20507812 408.27929688 C509.81416016 408.88193359 510.42324219 409.48457031 511.05078125 410.10546875 C511.60548096 410.64969482 512.16018066 411.1939209 512.73168945 411.75463867 C513.9375 413.1875 513.9375 413.1875 513.9375 415.1875 C514.9275 415.5175 515.9175 415.8475 516.9375 416.1875 C516.9375 416.8475 516.9375 417.5075 516.9375 418.1875 C521.43857874 416.00515879 524.02898303 412.91144025 527.18359375 409.1640625 C529.52084444 406.5301007 532.23473805 404.43980163 534.9375 402.1875 C536.7572491 400.17321202 538.51164266 398.11130124 540.26953125 396.04296875 C542.28654952 393.79921306 544.56029745 392.03643532 546.9375 390.1875 C547.494375 389.445 548.05125 388.7025 548.625 387.9375 C549.2746875 387.07125 549.2746875 387.07125 549.9375 386.1875 C550.5975 386.1875 551.2575 386.1875 551.9375 386.1875 C552.185 385.61 552.4325 385.0325 552.6875 384.4375 C554.12049988 381.85810021 555.72174676 380.12628408 557.9375 378.1875 C558.5975 378.1875 559.2575 378.1875 559.9375 378.1875 C560.2675 377.1975 560.5975 376.2075 560.9375 375.1875 C562.8984375 373.6171875 562.8984375 373.6171875 565.3125 372.0625 C566.10398437 371.54429687 566.89546875 371.02609375 567.7109375 370.4921875 C571.9828409 367.989002 576.0934239 367.48843978 580.9375 368.1875 C588.86824087 370.83970535 595.31423834 376.09762727 600.9375 382.1875 C600.9375 382.8475 600.9375 383.5075 600.9375 384.1875 C601.5975 384.1875 602.2575 384.1875 602.9375 384.1875 C604.27645632 385.84965268 605.60880142 387.51713607 606.9375 389.1875 C607.845 389.909375 608.7525 390.63125 609.6875 391.375 C610.43 391.973125 611.1725 392.57125 611.9375 393.1875 C611.9375 393.8475 611.9375 394.5075 611.9375 395.1875 C612.50339844 395.42082031 613.06929687 395.65414063 613.65234375 395.89453125 C619.09665939 398.97499018 624.18008202 405.03939323 627 410.625 C628.96031167 418.07418435 628.87536055 424.0539647 625.3072052 430.98887634 C622.76118428 435.0756987 619.32504032 438.2648736 615.8828125 441.59765625 C615.10364471 442.36879257 614.32447693 443.13992889 613.521698 443.93443298 C611.04464206 446.38265712 608.55431208 448.8168046 606.0625 451.25 C603.5804791 453.68931065 601.10136591 456.1315058 598.62472534 458.57627869 C597.0879949 460.0915608 595.54776295 461.60330306 594.00344849 463.1108551 C590.68772506 466.36570774 587.51052297 469.62737989 584.54248047 473.20483398 C583.25301514 474.68125366 583.25301514 474.68125366 581.9375 476.1875 C581.2775 476.1875 580.6175 476.1875 579.9375 476.1875 C579.6792041 476.77176758 579.4209082 477.35603516 579.15478516 477.95800781 C577.84076864 480.36466622 576.41269985 481.94069337 574.4609375 483.859375 C573.45546875 484.85517578 573.45546875 484.85517578 572.4296875 485.87109375 C571.73101563 486.55300781 571.03234375 487.23492188 570.3125 487.9375 C569.60609375 488.63488281 568.8996875 489.33226562 568.171875 490.05078125 C566.43151297 491.76762488 564.68665019 493.47961832 562.9375 495.1875 C564.32882312 498.29592155 565.96738918 500.50861167 568.30859375 502.97265625 C568.96537109 503.66810547 569.62214844 504.36355469 570.29882812 505.08007812 C570.98396484 505.79615234 571.66910156 506.51222656 572.375 507.25 C573.05626953 507.96994141 573.73753906 508.68988281 574.43945312 509.43164062 C577.97322508 513.18605759 577.97322508 513.18605759 581.65649414 516.79077148 C582.9375 518.1875 582.9375 518.1875 582.9375 520.1875 C583.9275 520.5175 584.9175 520.8475 585.9375 521.1875 C587.41015625 522.68359375 587.41015625 522.68359375 589 524.625 C591.83806782 527.97908015 594.80674344 531.10439575 597.9375 534.1875 C600.86868191 537.08341958 603.70153174 539.98992571 606.375 543.125 C609.23922413 546.47675164 612.30085221 549.59305399 615.4375 552.6875 C618.4906698 555.69981105 621.47822412 558.72298902 624.25 562 C627.6064092 565.94154592 631.26088867 569.54862936 634.9375 573.1875 C642.42145236 580.60226478 642.42145236 580.60226478 645.75 584.4375 C646.26433594 585.02917969 646.77867187 585.62085938 647.30859375 586.23046875 C648.58686982 587.76623928 649.82003985 589.33956785 651.03515625 590.92578125 C654.81748221 596.03579407 654.81748221 596.03579407 660.30078125 598.6328125 C662.64091733 598.37323438 664.68347309 597.86016772 666.9375 597.1875 C683.87927633 593.84155808 701.49887099 596.52438027 715.9375 606.1875 C731.28060357 616.76494261 741.07367829 631.85019744 744.62402344 650.16943359 C747.34074366 667.65884901 742.67546172 685.50876526 732.9375 700.1875 C729.39541901 704.81659501 725.2992936 708.91433415 721.15527344 713.00048828 C718.59785202 715.52243688 716.06838282 718.07096873 713.5390625 720.62109375 C707.81829041 726.38072601 702.07130552 732.11429669 696.28881836 737.81201172 C694.25261974 739.82537376 692.42577356 741.82370044 690.625 744.0625 C687.47112445 747.90628583 683.76453401 751.03287944 679.9375 754.1875 C679.32003906 754.70441406 678.70257812 755.22132813 678.06640625 755.75390625 C662.71829164 767.97496216 645.08359123 771.10008165 625.9375 769.1875 C620.08442033 768.14238448 614.41141292 766.50635913 608.9375 764.1875 C608.6075 763.5275 608.2775 762.8675 607.9375 762.1875 C607.256875 761.94 606.57625 761.6925 605.875 761.4375 C601.71142203 759.66576469 598.47377637 756.97450593 594.9375 754.1875 C593.9475 753.465625 592.9575 752.74375 591.9375 752 C580.36172464 742.15901387 573.51533784 726.15721289 572.0625 711.265625 C571.37153442 699.77832218 571.37153442 699.77832218 572.94921875 695.34375 C574.13886564 691.84534175 574.58361338 689.85618487 573.9375 686.1875 C570.24366145 680.95901642 564.9898597 676.98086973 560.07324219 672.95654297 C557.0845769 670.48102072 554.26691441 667.84132771 551.4375 665.1875 C543.38402879 657.79986533 543.38402879 657.79986533 534.9375 650.875 C534.2775 650.318125 533.6175 649.76125 532.9375 649.1875 C532.9375 648.5275 532.9375 647.8675 532.9375 647.1875 C532.06158203 646.79485962 532.06158203 646.79485962 531.16796875 646.39428711 C528.81081346 645.1189567 527.18082568 643.73105179 525.25 641.87890625 C524.55720947 641.21963135 523.86441895 640.56035645 523.15063477 639.88110352 C522.42030029 639.17783936 521.68996582 638.4745752 520.9375 637.75 C519.4055089 636.29107736 517.87295427 634.83274625 516.33984375 633.375 C515.58944824 632.65957031 514.83905273 631.94414063 514.06591797 631.20703125 C507.85743661 625.31616662 501.50167893 619.58265032 495.125 613.875 C490.07535019 609.34998913 485.13191108 604.71394855 480.2019043 600.05932617 C477.52722666 597.5459143 474.88951576 595.15019305 471.98828125 592.89453125 C471.31152344 592.33121094 470.63476562 591.76789062 469.9375 591.1875 C469.9375 590.5275 469.9375 589.8675 469.9375 589.1875 C464.89200859 592.1907687 461.64140691 595.67794102 457.9375 600.1875 C455.6875 602.625 455.6875 602.625 453.9375 604.1875 C453.2775 604.1875 452.6175 604.1875 451.9375 604.1875 C451.710625 604.744375 451.48375 605.30125 451.25 605.875 C449.09296167 609.6754961 446.01373141 612.3661655 442.5625 615 C439.47027103 617.57685747 437.04086568 620.47653683 434.48828125 623.578125 C433.97652344 624.10921875 433.46476562 624.6403125 432.9375 625.1875 C432.2775 625.1875 431.6175 625.1875 430.9375 625.1875 C430.56625 626.05375 430.56625 626.05375 430.1875 626.9375 C428.75450012 629.51689979 427.15325324 631.24871592 424.9375 633.1875 C424.2775 633.1875 423.6175 633.1875 422.9375 633.1875 C422.70417969 633.744375 422.47085937 634.30125 422.23046875 634.875 C417.94606322 642.53774343 410.10501672 648.87468123 401.9375 651.9375 C395.75947629 652.70975296 390.41223987 652.29847505 384.9375 649.1875 C377.3950507 643.11385702 370.57772463 636.04354579 363.72167969 629.21191406 C362.05062529 627.55069518 360.36917374 625.90045938 358.6875 624.25 C357.60611605 623.17513752 356.52536378 622.09963907 355.4453125 621.0234375 C354.9504837 620.54095551 354.45565491 620.05847351 353.9458313 619.56137085 C349.14641186 614.73117067 345.33388009 609.34504362 344.86328125 602.33984375 C345.11585893 595.0150909 347.50888558 590.27421209 352.50390625 584.9375 C352.97758133 584.43059631 353.45125641 583.92369263 353.93928528 583.40142822 C361.15844081 575.74343101 368.66280209 568.35694616 376.125 560.9375 C377.66494893 559.40257987 379.20466408 557.86742517 380.74414062 556.33203125 C384.47257511 552.61448432 388.20386399 548.89982249 391.9375 545.1875 C390.60468509 542.42633083 389.3698269 540.37065878 387.1875 538.20703125 C386.6615625 537.68302734 386.135625 537.15902344 385.59375 536.61914062 C384.77390625 535.81766602 384.77390625 535.81766602 383.9375 535 C383.11765625 534.18112305 383.11765625 534.18112305 382.28125 533.34570312 C379.37987893 530.40799968 379.37987893 530.40799968 375.9375 528.1875 C375.9375 527.5275 375.9375 526.8675 375.9375 526.1875 C375.07946777 525.81951294 375.07946777 525.81951294 374.20410156 525.4440918 C371.55013203 523.97274527 369.79250817 522.25197599 367.671875 520.08203125 C366.86363281 519.26283203 366.05539062 518.44363281 365.22265625 517.59960938 C364.38605469 516.74173828 363.54945313 515.88386719 362.6875 515 C357.4948277 509.69727892 352.29842128 504.51313988 346.66113281 499.68188477 C344.48798999 497.7977761 342.45270302 495.80118878 340.4375 493.75 C339.7671875 493.07066406 339.096875 492.39132812 338.40625 491.69140625 C337.67921875 490.94697266 337.67921875 490.94697266 336.9375 490.1875 C334.60067835 492.18353516 332.2681073 494.18422988 329.9375 496.1875 C329.33188232 496.70352783 328.72626465 497.21955566 328.10229492 497.7512207 C322.9169416 502.21696845 318.05948995 506.94713573 313.25 511.8125 C312.51716797 512.54984375 311.78433594 513.2871875 311.02929688 514.046875 C310.31451172 514.76617188 309.59972656 515.48546875 308.86328125 516.2265625 C308.18346191 516.91008789 307.50364258 517.59361328 306.80322266 518.29785156 C305.66346354 519.4522268 304.53098225 520.61392086 303.41162109 521.78808594 C301.22858496 524.06170787 299.99534684 525.16821772 296.9375 526.1875 C296.9375 526.8475 296.9375 527.5075 296.9375 528.1875 C295.50390625 529.59765625 295.50390625 529.59765625 293.5 531.25 C288.71408299 535.30818366 284.3260623 539.70750931 279.9375 544.1875 C281.28538689 547.19335732 282.78063932 549.27597994 285.11450195 551.59155273 C285.75889725 552.23579697 286.40329254 552.8800412 287.06721497 553.54380798 C288.11095528 554.57206444 288.11095528 554.57206444 289.17578125 555.62109375 C289.89356247 556.33604507 290.61134369 557.0509964 291.35087585 557.78761292 C293.64592779 560.07148338 295.94782276 562.34831433 298.25 564.625 C299.78887061 566.15383485 301.3272873 567.68312674 302.86523438 569.21289062 C305.69812043 572.02945943 308.53359701 574.84336154 311.37231445 577.65405273 C312.56078333 578.83179413 313.74918516 580.00960319 314.9375 581.1875 C315.4351889 581.68009308 315.93287781 582.17268616 316.44564819 582.6802063 C322.1377421 588.33605729 325.93582048 592.78838648 326.3125 601 C325.94077851 612.48957326 317.51604815 619.44257948 309.9375 627.1875 C309.20998535 627.93547852 308.4824707 628.68345703 307.73291016 629.45410156 C305.3724953 631.87415522 303.00124626 634.2829941 300.625 636.6875 C299.8726709 637.45304199 299.1203418 638.21858398 298.34521484 639.00732422 C291.88321679 645.47789446 285.65398348 651.50927315 276.25 652.625 C263.46147147 652.06904114 254.86034773 640.68721685 246.625 632.1875 C245.26876043 630.80612987 243.91134674 629.42591149 242.55273438 628.046875 C240.06127224 625.51484775 237.57673811 622.97644908 235.1003418 620.4296875 C229.84799652 614.95807446 229.84799652 614.95807446 224.125 610 C223.403125 609.401875 222.68125 608.80375 221.9375 608.1875 C221.9375 607.5275 221.9375 606.8675 221.9375 606.1875 C221.2775 606.1875 220.6175 606.1875 219.9375 606.1875 C217.02249794 603.51541478 214.50682774 600.67793457 212 597.625 C209.25999688 594.39066642 206.64663738 592.24813188 202.9375 590.1875 C199.7801468 589.84944147 199.7801468 589.84944147 197.61328125 592.3203125 C196.28876953 593.73957031 196.28876953 593.73957031 194.9375 595.1875 C193.99702691 596.14671023 193.05293571 597.10238488 192.10546875 598.0546875 C191.62102295 598.54428955 191.13657715 599.0338916 190.63745117 599.53833008 C186.13651495 604.07414038 181.59866302 608.46778798 176.73046875 612.61328125 C174.26891785 614.77451221 172.00527917 617.10944428 169.7109375 619.4453125 C167.26582638 621.84733796 164.66360433 624.0471 162.0625 626.27734375 C158.8260008 629.18662336 155.83027292 632.3237875 152.8203125 635.46484375 C150.9375 637.1875 150.9375 637.1875 148.9375 637.1875 C148.9375 637.8475 148.9375 638.5075 148.9375 639.1875 C147.47753906 640.64160156 147.47753906 640.64160156 145.453125 642.328125 C141.06139111 646.06322322 136.86814996 649.96912223 132.6875 653.9375 C127.59942956 658.75007329 122.49384525 663.53793396 117.3125 668.25 C113.61083918 671.62340986 109.98934423 675.02951736 106.546875 678.66796875 C104.9375 680.1875 104.9375 680.1875 102.890625 681.48828125 C100.69265809 682.93229439 99.32262921 683.94010492 97.9375 686.1875 C97.94657026 689.57070749 98.53060686 692.58049397 99.23828125 695.88671875 C102.45189717 711.05714029 97.43882846 727.26011894 89.4375 740.125 C79.29416743 755.15537717 64.8770818 765.5503065 46.9375 769.1875 C43.19589466 769.6122867 39.51370082 769.71260851 35.75 769.6875 C34.75258789 769.68250488 33.75517578 769.67750977 32.72753906 769.67236328 C23.74393245 769.46287101 16.16741453 767.70391803 7.9375 764.1875 C6.9475 763.7646875 5.9575 763.341875 4.9375 762.90625 C-10.17395101 755.52224553 -22.19875259 740.29835797 -33.95483398 728.59033203 C-36.3912973 726.16499552 -38.83925385 723.75160181 -41.28981495 721.34052277 C-43.66681332 718.99621175 -46.0295801 716.63771241 -48.39453125 714.28125 C-49.26133011 713.43195923 -50.12812897 712.58266846 -51.02119446 711.7076416 C-58.21773185 704.48547963 -64.07253285 696.5263223 -67.875 687 C-68.25269531 686.07832031 -68.63039063 685.15664063 -69.01953125 684.20703125 C-71.6491584 676.59391594 -72.42104639 669.9607539 -72.375 661.9375 C-72.36654053 660.40452271 -72.36654053 660.40452271 -72.35791016 658.84057617 C-72.04863203 639.63011741 -64.16522482 624.91416782 -50.5625 611.5625 C-37.8483125 600.56433781 -21.87060232 595.57839336 -5.17578125 595.9453125 C-1.19942329 596.25464022 2.61846991 596.94236036 6.5 597.84765625 C10.07196291 598.34567031 12.83438105 598.00786209 15.77099609 595.82397461 C16.32867676 595.25171143 16.88635742 594.67944824 17.4609375 594.08984375 C18.39873047 593.14044922 18.39873047 593.14044922 19.35546875 592.171875 C20.00128906 591.49640625 20.64710938 590.8209375 21.3125 590.125 C21.98152344 589.44050781 22.65054688 588.75601563 23.33984375 588.05078125 C27.17771138 584.10025606 30.91352542 580.08322501 34.46875 575.875 C36.05012969 574.05809567 37.71947196 572.3753872 39.4375 570.6875 C41.73076036 568.42952057 43.90178028 566.12753496 46 563.6875 C52.99741973 555.58358406 60.46478834 547.88527223 67.79296875 540.08203125 C74.33855762 533.11049659 80.86455561 526.12453433 87.3125 519.0625 C89.1419794 517.05878447 90.97462446 515.05847236 92.8125 513.0625 C97.92976028 507.50232517 103.00396883 501.91241671 107.9375 496.1875 C106.51531685 492.93047483 104.79218034 490.82751026 102.2421875 488.3671875 C101.16904297 487.31724609 101.16904297 487.31724609 100.07421875 486.24609375 C98.95466797 485.16521484 98.95466797 485.16521484 97.8125 484.0625 C96.32622852 482.62704122 94.84421122 481.18716007 93.3671875 479.7421875 C92.70960449 479.10780762 92.05202148 478.47342773 91.37451172 477.81982422 C89.9375 476.1875 89.9375 476.1875 89.9375 474.1875 C89.2775 474.1875 88.6175 474.1875 87.9375 474.1875 C87.9375 473.5275 87.9375 472.8675 87.9375 472.1875 C87.31875 471.94 86.7 471.6925 86.0625 471.4375 C83.55039704 469.95979238 83.17642656 468.74794823 81.9375 466.1875 C80.9475 465.8575 79.9575 465.5275 78.9375 465.1875 C78.9375 464.5275 78.9375 463.8675 78.9375 463.1875 C77.9475 462.8575 76.9575 462.5275 75.9375 462.1875 C75.9375 461.5275 75.9375 460.8675 75.9375 460.1875 C75.2775 460.1875 74.6175 460.1875 73.9375 460.1875 C71.8125 458.3125 71.8125 458.3125 69.9375 456.1875 C69.9375 455.5275 69.9375 454.8675 69.9375 454.1875 C69.2775 454.1875 68.6175 454.1875 67.9375 454.1875 C65.8125 452.3125 65.8125 452.3125 63.9375 450.1875 C63.9375 449.5275 63.9375 448.8675 63.9375 448.1875 C63.2775 448.1875 62.6175 448.1875 61.9375 448.1875 C60.4921875 446.75390625 60.4921875 446.75390625 58.8125 444.75 C56.85870483 442.42833544 54.90810581 440.15692143 52.8046875 437.96875 C47.58748518 432.50127598 44.05406404 427.59427819 43.88671875 419.83203125 C44.97801902 405.35411429 58.58170466 395.42809527 68.26025391 385.90112305 C68.97874512 385.19125244 69.69723633 384.48138184 70.4375 383.75 C71.0871875 383.11191406 71.736875 382.47382813 72.40625 381.81640625 C74.02612344 380.24923173 74.02612344 380.24923173 74.9375 378.1875 C75.5975 378.1875 76.2575 378.1875 76.9375 378.1875 C77.2675 377.1975 77.5975 376.2075 77.9375 375.1875 C79.8984375 373.6171875 79.8984375 373.6171875 82.3125 372.0625 C83.49972656 371.28519531 83.49972656 371.28519531 84.7109375 370.4921875 C89.35848182 367.7688896 93.69358396 367.5197964 98.9375 368.1875 C109.10656273 371.14516857 116.72830228 379.92041542 123.14453125 387.94921875 C124.86745867 390.2748362 124.86745867 390.2748362 127.25 392 C129.5305556 393.85626618 131.19485708 395.56924673 133.078125 397.79296875 C136.97794985 402.30046567 141.13695736 406.49986409 145.375 410.6875 C146.10654297 411.41453125 146.83808594 412.1415625 147.59179688 412.890625 C149.37139824 414.65859499 151.15330918 416.42416378 152.9375 418.1875 C154.00508545 417.1188269 154.00508545 417.1188269 155.09423828 416.02856445 C157.8664922 413.25624968 160.64794814 410.49326677 163.4296875 407.73046875 C165.01488211 406.1526599 166.59958966 404.57436367 168.18408203 402.99584961 C169.26521017 401.91974621 170.34723467 400.84454256 171.43017578 399.77026367 C176.9439988 394.29921598 182.38471184 388.82367358 187.43066406 382.91040039 C190.22464028 379.71579732 193.30403472 376.81569815 196.36914062 373.8828125 C197.59429491 372.68654535 198.77072875 371.44077689 199.9375 370.1875 C199.9375 369.5275 199.9375 368.8675 199.9375 368.1875 C201.59282623 367.16883771 203.26010138 366.16939187 204.9375 365.1875 C205.2675 364.5275 205.5975 363.8675 205.9375 363.1875 C204.98328192 362.03823734 204.02397955 360.89319459 203.0625 359.75 C202.52882813 359.11191406 201.99515625 358.47382813 201.4453125 357.81640625 C200.0152243 356.07944996 200.0152243 356.07944996 197.9375 355.1875 C197.9375 354.5275 197.9375 353.8675 197.9375 353.1875 C197.2775 353.1875 196.6175 353.1875 195.9375 353.1875 C195.9375 352.5275 195.9375 351.8675 195.9375 351.1875 C195.35484375 350.93355469 194.7721875 350.67960937 194.171875 350.41796875 C191.69561967 349.05429667 190.13229374 347.54524797 188.1875 345.5 C185.63090456 342.81987159 182.98353417 340.32744744 180.1875 337.90234375 C175.91098116 334.19288536 171.7930375 330.33424918 167.6875 326.4375 C161.77369116 320.84780596 155.82618877 315.30288798 149.81640625 309.81640625 C146.74452103 307.01127904 143.68232536 304.19597468 140.625 301.375 C140.09334229 300.88459229 139.56168457 300.39418457 139.01391602 299.88891602 C135.35900836 296.51276789 131.72259225 293.11733315 128.09106445 289.71606445 C121.5973719 283.61010103 121.5973719 283.61010103 114.9375 277.6875 C109.10694547 272.66289685 103.55195339 267.32730617 97.93847656 262.06347656 C94.71226526 259.03880506 91.48183769 256.01865798 88.25 253 C87.31003174 252.12190674 87.31003174 252.12190674 86.35107422 251.22607422 C82.58605409 247.71317158 78.80183168 244.22302462 75 240.75 C69.60199493 235.81633945 64.26643558 230.81856348 58.93652344 225.81152344 C53.171511 220.39874088 47.36866235 215.02855072 41.54931641 209.67431641 C39.83502331 208.09297061 38.1260505 206.5060206 36.41796875 204.91796875 C35.8355542 204.37744873 35.25313965 203.83692871 34.65307617 203.2800293 C33.54654612 202.25286329 32.44115326 201.2244702 31.3371582 200.19458008 C28.97800367 198.00768727 26.61065723 195.93526264 24.0625 193.96875 C23.36125 193.3809375 22.66 192.793125 21.9375 192.1875 C21.9375 191.5275 21.9375 190.8675 21.9375 190.1875 C21.2775 190.1875 20.6175 190.1875 19.9375 190.1875 C16.59335485 185.93669074 15.00288662 181.87737185 13.75 176.625 C13.55639893 175.85212646 13.36279785 175.07925293 13.16333008 174.28295898 C12.69984073 172.42019787 12.24269228 170.55585361 11.79003906 168.69042969 C10.94932109 165.23607073 10.09351562 161.78576534 9.23475647 158.33586121 C8.40238852 154.98748926 7.57559585 151.63775836 6.75033569 148.28762817 C6.33404576 146.59831303 5.91675116 144.90924514 5.4984436 143.22042847 C4.90428335 140.8160759 4.31650938 138.41024908 3.73046875 136.00390625 C3.54946625 135.27543488 3.36846375 134.5469635 3.18197632 133.79641724 C2.37482263 130.45549295 1.9375 127.65156923 1.9375 124.1875 C1.2775 123.8575 0.6175 123.5275 -0.0625 123.1875 C-0.5881958 121.15065002 -0.5881958 121.15065002 -0.99707031 118.45532227 C-2.08907975 111.86460634 -3.57531045 105.40254779 -5.109375 98.90234375 C-5.55867548 96.98306404 -6.00797573 95.06378427 -6.45726395 93.14450169 C-7.08316236 90.47393197 -7.71159081 87.80396004 -8.33996582 85.13397217 C-9.11374373 81.84426667 -9.88493935 78.55395655 -10.65625 75.26367188 C-10.80762672 74.61841867 -10.95900345 73.97316547 -11.11496735 73.30835915 C-11.87517794 70.06727418 -12.63334317 66.82572887 -13.38903809 63.58358765 C-14.84542082 57.34061113 -16.32240552 51.10449944 -17.85351562 44.87939453 C-18.27422333 43.13862389 -18.27422333 43.13862389 -18.70343018 41.36268616 C-19.22398456 39.20996668 -19.75461637 37.05964424 -20.29803467 34.9125824 C-22.4121701 26.07929883 -24.20532205 16.10198065 -19.40625 7.875 C-14.17013516 1.29941393 -8.0851135 0.00714864 0 0 Z " fill="#FED02C" transform="translate(176.0625,119.8125)"/>
<path d="M0 0 C5.74064131 3.10208568 10.70357743 7.27419343 15.125 12.0625 C15.125 12.7225 15.125 13.3825 15.125 14.0625 C15.785 14.0625 16.445 14.0625 17.125 14.0625 C18.46395632 15.72465268 19.79630142 17.39213607 21.125 19.0625 C22.0325 19.784375 22.94 20.50625 23.875 21.25 C24.6175 21.848125 25.36 22.44625 26.125 23.0625 C26.125 23.7225 26.125 24.3825 26.125 25.0625 C26.69089844 25.29582031 27.25679687 25.52914062 27.83984375 25.76953125 C33.28415939 28.84999018 38.36758202 34.91439323 41.1875 40.5 C43.14781167 47.94918435 43.06286055 53.9289647 39.4947052 60.86387634 C36.94868428 64.9506987 33.51254032 68.1398736 30.0703125 71.47265625 C29.29114471 72.24379257 28.51197693 73.01492889 27.709198 73.80943298 C25.23214206 76.25765712 22.74181208 78.6918046 20.25 81.125 C17.7679791 83.56431065 15.28886591 86.0065058 12.81222534 88.45127869 C11.2754949 89.9665608 9.73526295 91.47830306 8.19094849 92.9858551 C4.87522506 96.24070774 1.69802297 99.50237989 -1.27001953 103.07983398 C-2.12966309 104.06411377 -2.98930664 105.04839355 -3.875 106.0625 C-4.535 106.0625 -5.195 106.0625 -5.875 106.0625 C-6.26244385 106.93890137 -6.26244385 106.93890137 -6.65771484 107.83300781 C-7.97173136 110.23966622 -9.39980015 111.81569337 -11.3515625 113.734375 C-12.021875 114.39824219 -12.6921875 115.06210937 -13.3828125 115.74609375 C-14.43082031 116.76896484 -14.43082031 116.76896484 -15.5 117.8125 C-16.20640625 118.50988281 -16.9128125 119.20726562 -17.640625 119.92578125 C-19.38098703 121.64262488 -21.12584981 123.35461832 -22.875 125.0625 C-21.48367688 128.17092155 -19.84511082 130.38361167 -17.50390625 132.84765625 C-16.51874023 133.89083008 -16.51874023 133.89083008 -15.51367188 134.95507812 C-14.82853516 135.67115234 -14.14339844 136.38722656 -13.4375 137.125 C-12.4155957 138.20491211 -12.4155957 138.20491211 -11.37304688 139.30664062 C-7.83927492 143.06105759 -7.83927492 143.06105759 -4.15600586 146.66577148 C-2.875 148.0625 -2.875 148.0625 -2.875 150.0625 C-1.885 150.3925 -0.895 150.7225 0.125 151.0625 C1.59765625 152.55859375 1.59765625 152.55859375 3.1875 154.5 C6.02556782 157.85408015 8.99424344 160.97939575 12.125 164.0625 C15.05618191 166.95841958 17.88903174 169.86492571 20.5625 173 C23.42672413 176.35175164 26.48835221 179.46805399 29.625 182.5625 C32.6781698 185.57481105 35.66572412 188.59798902 38.4375 191.875 C41.7939092 195.81654592 45.44838867 199.42362936 49.125 203.0625 C56.60895236 210.47726478 56.60895236 210.47726478 59.9375 214.3125 C60.70900391 215.20001953 60.70900391 215.20001953 61.49609375 216.10546875 C62.77436982 217.64123928 64.00753985 219.21456785 65.22265625 220.80078125 C69.00498221 225.91079407 69.00498221 225.91079407 74.48828125 228.5078125 C76.82841733 228.24823438 78.87097309 227.73516772 81.125 227.0625 C98.06677633 223.71655808 115.68637099 226.39938027 130.125 236.0625 C145.46810357 246.63994261 155.26117829 261.72519744 158.81152344 280.04443359 C161.52824366 297.53384901 156.86296172 315.38376526 147.125 330.0625 C143.58291901 334.69159501 139.4867936 338.78933415 135.34277344 342.87548828 C132.78535202 345.39743688 130.25588282 347.94596873 127.7265625 350.49609375 C122.00579041 356.25572601 116.25880552 361.98929669 110.47631836 367.68701172 C108.44011974 369.70037376 106.61327356 371.69870044 104.8125 373.9375 C101.65862445 377.78128583 97.95203401 380.90787944 94.125 384.0625 C93.50753906 384.57941406 92.89007812 385.09632813 92.25390625 385.62890625 C76.90579164 397.84996216 59.27109123 400.97508165 40.125 399.0625 C34.27192033 398.01738448 28.59891292 396.38135913 23.125 394.0625 C22.795 393.4025 22.465 392.7425 22.125 392.0625 C21.444375 391.815 20.76375 391.5675 20.0625 391.3125 C15.89892203 389.54076469 12.66127637 386.84950593 9.125 384.0625 C7.64 382.9796875 7.64 382.9796875 6.125 381.875 C-5.45077536 372.03401387 -12.29716216 356.03221289 -13.75 341.140625 C-14.44096558 329.65332218 -14.44096558 329.65332218 -12.86328125 325.21875 C-11.67363436 321.72034175 -11.22888662 319.73118487 -11.875 316.0625 C-15.56883855 310.83401642 -20.8226403 306.85586973 -25.73925781 302.83154297 C-28.7279231 300.35602072 -31.54558559 297.71632771 -34.375 295.0625 C-42.42847121 287.67486533 -42.42847121 287.67486533 -50.875 280.75 C-51.535 280.193125 -52.195 279.63625 -52.875 279.0625 C-52.875 278.4025 -52.875 277.7425 -52.875 277.0625 C-53.45894531 276.80073975 -54.04289063 276.53897949 -54.64453125 276.26928711 C-57.00168654 274.9939567 -58.63167432 273.60605179 -60.5625 271.75390625 C-61.25529053 271.09463135 -61.94808105 270.43535645 -62.66186523 269.75610352 C-63.39219971 269.05283936 -64.12253418 268.3495752 -64.875 267.625 C-66.4069911 266.16607736 -67.93954573 264.70774625 -69.47265625 263.25 C-70.22305176 262.53457031 -70.97344727 261.81914063 -71.74658203 261.08203125 C-77.95506339 255.19116662 -84.31082107 249.45765032 -90.6875 243.75 C-95.73714981 239.22498913 -100.68058892 234.58894855 -105.6105957 229.93432617 C-108.28527334 227.4209143 -110.92298424 225.02519305 -113.82421875 222.76953125 C-114.50097656 222.20621094 -115.17773438 221.64289063 -115.875 221.0625 C-115.875 220.4025 -115.875 219.7425 -115.875 219.0625 C-120.92049141 222.0657687 -124.17109309 225.55294102 -127.875 230.0625 C-130.125 232.5 -130.125 232.5 -131.875 234.0625 C-132.535 234.0625 -133.195 234.0625 -133.875 234.0625 C-134.101875 234.619375 -134.32875 235.17625 -134.5625 235.75 C-136.71953833 239.5504961 -139.79876859 242.2411655 -143.25 244.875 C-146.34222897 247.45185747 -148.77163432 250.35153683 -151.32421875 253.453125 C-151.83597656 253.98421875 -152.34773437 254.5153125 -152.875 255.0625 C-153.535 255.0625 -154.195 255.0625 -154.875 255.0625 C-155.24625 255.92875 -155.24625 255.92875 -155.625 256.8125 C-157.05799988 259.39189979 -158.65924676 261.12371592 -160.875 263.0625 C-161.535 263.0625 -162.195 263.0625 -162.875 263.0625 C-163.22498047 263.8978125 -163.22498047 263.8978125 -163.58203125 264.75 C-167.86643678 272.41274343 -175.70748328 278.74968123 -183.875 281.8125 C-190.05302371 282.58475296 -195.40026013 282.17347505 -200.875 279.0625 C-208.4174493 272.98885702 -215.23477537 265.91854579 -222.09082031 259.08691406 C-223.76187471 257.42569518 -225.44332626 255.77545938 -227.125 254.125 C-228.20638395 253.05013752 -229.28713622 251.97463907 -230.3671875 250.8984375 C-230.8620163 250.41595551 -231.35684509 249.93347351 -231.8666687 249.43637085 C-236.66608814 244.60617067 -240.47861991 239.22004362 -240.94921875 232.21484375 C-240.69665495 224.89049354 -238.30504595 220.15129223 -233.30859375 214.81640625 C-232.83419357 214.30898392 -232.3597934 213.80156158 -231.87101746 213.27876282 C-225.37502758 206.38775128 -218.66345235 199.70170359 -211.95825195 193.01538086 C-209.67738023 190.73990416 -207.40195025 188.45908283 -205.12695312 186.17773438 C-203.65396659 184.70540819 -202.18067014 183.233392 -200.70703125 181.76171875 C-199.70516533 180.75681648 -199.70516533 180.75681648 -198.68305969 179.73161316 C-198.03846298 179.09016861 -197.39386627 178.44872406 -196.72973633 177.7878418 C-196.17667313 177.23557419 -195.62360992 176.68330658 -195.05378723 176.11430359 C-193.19354609 174.36248065 -191.29511216 172.7035697 -189.3553772 171.04188538 C-183.76714317 166.17236015 -178.57105491 160.90658455 -173.33422852 155.66699219 C-172.19202566 154.52778681 -171.04961986 153.38878489 -169.9070282 152.24996948 C-166.82660051 149.17831777 -163.74936818 146.10348463 -160.67300534 143.02776241 C-158.7498317 141.10530196 -156.8259468 139.18355627 -154.90180779 137.26206207 C-148.18730538 130.55678593 -141.47536539 123.84895725 -134.76586914 117.13867188 C-128.51167093 110.88387089 -122.25189387 104.63469161 -115.98952538 98.38807178 C-110.60663788 93.01823968 -105.22759221 87.64457981 -99.85154861 82.26789594 C-96.64299367 79.05908578 -93.4328976 75.85185501 -90.21893501 72.64846039 C-87.20297649 69.64215121 -84.19181389 66.63112129 -81.18432808 63.61633682 C-80.07866526 62.5096248 -78.97128252 61.40462808 -77.86208725 60.30145645 C-76.35181442 58.79885791 -74.84779438 57.29026937 -73.3452301 55.77996826 C-72.50111856 54.93640148 -71.65700701 54.0928347 -70.78731632 53.22370529 C-68.67783792 51.1240706 -68.67783792 51.1240706 -67.875 48.0625 C-66.203125 46.4140625 -66.203125 46.4140625 -64.125 44.6875 C-59.86333704 41.063947 -55.96345939 37.36865127 -52.375 33.0625 C-49.12394901 29.16123881 -45.6922701 25.69275208 -41.75 22.5 C-39.32548246 20.44443078 -37.73944728 18.57950382 -35.875 16.0625 C-35.215 16.0625 -34.555 16.0625 -33.875 16.0625 C-33.50375 15.19625 -33.50375 15.19625 -33.125 14.3125 C-31.69200012 11.73310021 -30.09075324 10.00128408 -27.875 8.0625 C-27.215 8.0625 -26.555 8.0625 -25.875 8.0625 C-25.545 7.0725 -25.215 6.0825 -24.875 5.0625 C-22.9140625 3.4921875 -22.9140625 3.4921875 -20.5 1.9375 C-19.70851563 1.41929687 -18.91703125 0.90109375 -18.1015625 0.3671875 C-12.03827337 -3.18568718 -6.19322969 -2.83815723 0 0 Z " fill="#FD4042" transform="translate(761.875,489.9375)"/>
<path d="M0 0 C7.70385124 4.19552462 13.97095595 11.22505019 19.39453125 18.01171875 C21.11745867 20.3373362 21.11745867 20.3373362 23.5 22.0625 C25.78958532 23.92611596 27.46382668 25.65362706 29.35546875 27.88671875 C33.10361681 32.21881564 37.09971341 36.2405235 41.1875 40.25 C45.07266473 44.06073629 48.90324741 47.85816404 52.4375 52 C57.36626286 57.72228251 62.81671076 62.94794115 68.1875 68.25 C70.29473232 70.33026591 72.39836235 72.41408366 74.5 74.5 C75.42425781 75.41265625 76.34851563 76.3253125 77.30078125 77.265625 C79.41255916 79.40043714 81.3852707 81.61826854 83.33830261 83.89881897 C87.26670748 88.40307417 91.43089082 92.63409546 95.66137695 96.85327148 C96.47848648 97.67213333 97.29559601 98.49099518 98.13746643 99.33467102 C100.81441026 102.01598411 103.4949568 104.693661 106.17578125 107.37109375 C108.04443229 109.24041885 109.91293489 111.10989234 111.78129578 112.97950745 C115.68386473 116.88388794 119.58852055 120.78617207 123.49438477 124.68725586 C128.01058688 129.19799438 132.52314452 133.71235486 137.033871 138.22856849 C141.38265512 142.58243057 145.73423714 146.93348476 150.0870266 151.28334236 C151.9366116 153.13225898 153.78545045 154.98192232 155.6335392 156.83233452 C158.20681896 159.40814126 160.78326055 161.98074218 163.3605957 164.55249023 C164.12786987 165.32178864 164.89514404 166.09108704 165.68566895 166.88369751 C166.38509109 167.58029984 167.08451324 168.27690216 167.80513 168.99461365 C168.41363957 169.60274619 169.02214914 170.21087873 169.6490984 170.83743954 C171.15066994 172.34638564 171.15066994 172.34638564 173.1875 173.25 C173.1875 173.91 173.1875 174.57 173.1875 175.25 C173.7753981 175.51258102 174.3632962 175.77516205 174.9690094 176.04570007 C177.29903794 177.31054799 178.82038513 178.64157016 180.68334961 180.51879883 C181.67974709 181.5154229 181.67974709 181.5154229 182.6962738 182.53218079 C183.40365189 183.24988144 184.11102997 183.96758209 184.83984375 184.70703125 C185.57699112 185.44700851 186.31413849 186.18698578 187.07362366 186.9493866 C189.42882151 189.31576801 191.77698317 191.68899522 194.125 194.0625 C195.70201216 195.64954755 197.2794811 197.23614136 198.85742188 198.82226562 C202.39481357 202.37953385 205.92736731 205.9415376 209.45675659 209.50674438 C210.97777851 211.03876235 212.50589624 212.56314871 214.03735352 214.0847168 C219.26113888 219.34527685 222.21895013 223.57311288 222.5625 231.0625 C222.19077851 242.55207326 213.76604815 249.50507948 206.1875 257.25 C205.45998535 257.99797852 204.7324707 258.74595703 203.98291016 259.51660156 C201.6224953 261.93665522 199.25124626 264.3454941 196.875 266.75 C196.1226709 267.51554199 195.3703418 268.28108398 194.59521484 269.06982422 C188.13321679 275.54039446 181.90398348 281.57177315 172.5 282.6875 C159.71147147 282.13154114 151.11034773 270.74971685 142.875 262.25 C141.51876043 260.86862987 140.16134674 259.48841149 138.80273438 258.109375 C136.31127224 255.57734775 133.82673811 253.03894908 131.3503418 250.4921875 C126.09799652 245.02057446 126.09799652 245.02057446 120.375 240.0625 C119.653125 239.464375 118.93125 238.86625 118.1875 238.25 C118.1875 237.59 118.1875 236.93 118.1875 236.25 C117.5275 236.25 116.8675 236.25 116.1875 236.25 C113.27249794 233.57791478 110.75682774 230.74043457 108.25 227.6875 C105.50999688 224.45316642 102.89663738 222.31063188 99.1875 220.25 C96.0301468 219.91194147 96.0301468 219.91194147 93.86328125 222.3828125 C92.53876953 223.80207031 92.53876953 223.80207031 91.1875 225.25 C90.24702691 226.20921023 89.30293571 227.16488488 88.35546875 228.1171875 C87.62880005 228.85159058 87.62880005 228.85159058 86.88745117 229.60083008 C82.38651495 234.13664038 77.84866302 238.53028798 72.98046875 242.67578125 C70.51891785 244.83701221 68.25527917 247.17194428 65.9609375 249.5078125 C63.51582638 251.90983796 60.91360433 254.1096 58.3125 256.33984375 C55.0760008 259.24912336 52.08027292 262.3862875 49.0703125 265.52734375 C47.1875 267.25 47.1875 267.25 45.1875 267.25 C45.1875 267.91 45.1875 268.57 45.1875 269.25 C43.72753906 270.70410156 43.72753906 270.70410156 41.703125 272.390625 C37.31139111 276.12572322 33.11814996 280.03162223 28.9375 284 C23.84942956 288.81257329 18.74384525 293.60043396 13.5625 298.3125 C9.86083918 301.68590986 6.23934423 305.09201736 2.796875 308.73046875 C1.1875 310.25 1.1875 310.25 -0.859375 311.55078125 C-3.05734191 312.99479439 -4.42737079 314.00260492 -5.8125 316.25 C-5.80342974 319.63320749 -5.21939314 322.64299397 -4.51171875 325.94921875 C-1.29810283 341.11964029 -6.31117154 357.32261894 -14.3125 370.1875 C-24.45583257 385.21787717 -38.8729182 395.6128065 -56.8125 399.25 C-60.55410534 399.6747867 -64.23629918 399.77510851 -68 399.75 C-68.99741211 399.74500488 -69.99482422 399.74000977 -71.02246094 399.73486328 C-80.00606755 399.52537101 -87.58258547 397.76641803 -95.8125 394.25 C-96.8025 393.8271875 -97.7925 393.404375 -98.8125 392.96875 C-113.92395101 385.58474553 -125.94875259 370.36085797 -137.70483398 358.65283203 C-140.1412973 356.22749552 -142.58925385 353.81410181 -145.03981495 351.40302277 C-147.41681332 349.05871175 -149.7795801 346.70021241 -152.14453125 344.34375 C-153.01133011 343.49445923 -153.87812897 342.64516846 -154.77119446 341.7701416 C-161.96773185 334.54797963 -167.82253285 326.5888223 -171.625 317.0625 C-172.00269531 316.14082031 -172.38039063 315.21914063 -172.76953125 314.26953125 C-175.3991584 306.65641594 -176.17104639 300.0232539 -176.125 292 C-176.11936035 290.97801514 -176.1137207 289.95603027 -176.10791016 288.90307617 C-175.79863203 269.69261741 -167.91522482 254.97666782 -154.3125 241.625 C-141.5983125 230.62683781 -125.62060232 225.64089336 -108.92578125 226.0078125 C-104.94942329 226.31714022 -101.13153009 227.00486036 -97.25 227.91015625 C-93.67803709 228.40817031 -90.91561895 228.07036209 -87.97900391 225.88647461 C-87.14248291 225.02807983 -87.14248291 225.02807983 -86.2890625 224.15234375 C-85.35126953 223.20294922 -85.35126953 223.20294922 -84.39453125 222.234375 C-83.74871094 221.55890625 -83.10289062 220.8834375 -82.4375 220.1875 C-81.76847656 219.50300781 -81.09945312 218.81851563 -80.41015625 218.11328125 C-76.57228862 214.16275606 -72.83647458 210.14572501 -69.28125 205.9375 C-67.69987031 204.12059567 -66.03052804 202.4378872 -64.3125 200.75 C-62.01923964 198.49202057 -59.84821972 196.19003496 -57.75 193.75 C-50.75258027 185.64608406 -43.28521166 177.94777223 -35.95703125 170.14453125 C-29.41144238 163.17299659 -22.88544439 156.18703433 -16.4375 149.125 C-14.6080206 147.12128447 -12.77537554 145.12097236 -10.9375 143.125 C-5.82023972 137.56482517 -0.74603117 131.97491671 4.1875 126.25 C2.76531685 122.99297483 1.04218034 120.89001026 -1.5078125 118.4296875 C-2.22324219 117.72972656 -2.93867188 117.02976562 -3.67578125 116.30859375 C-4.42214844 115.58800781 -5.16851562 114.86742187 -5.9375 114.125 C-7.42377148 112.68954122 -8.90578878 111.24966007 -10.3828125 109.8046875 C-11.04039551 109.17030762 -11.69797852 108.53592773 -12.37548828 107.88232422 C-13.8125 106.25 -13.8125 106.25 -13.8125 104.25 C-14.4725 104.25 -15.1325 104.25 -15.8125 104.25 C-15.8125 103.59 -15.8125 102.93 -15.8125 102.25 C-16.43125 102.0025 -17.05 101.755 -17.6875 101.5 C-20.19960296 100.02229238 -20.57357344 98.81044823 -21.8125 96.25 C-22.8025 95.92 -23.7925 95.59 -24.8125 95.25 C-24.8125 94.59 -24.8125 93.93 -24.8125 93.25 C-25.8025 92.92 -26.7925 92.59 -27.8125 92.25 C-27.8125 91.59 -27.8125 90.93 -27.8125 90.25 C-28.4725 90.25 -29.1325 90.25 -29.8125 90.25 C-31.9375 88.375 -31.9375 88.375 -33.8125 86.25 C-33.8125 85.59 -33.8125 84.93 -33.8125 84.25 C-34.4725 84.25 -35.1325 84.25 -35.8125 84.25 C-37.9375 82.375 -37.9375 82.375 -39.8125 80.25 C-39.8125 79.59 -39.8125 78.93 -39.8125 78.25 C-40.4725 78.25 -41.1325 78.25 -41.8125 78.25 C-43.2578125 76.81640625 -43.2578125 76.81640625 -44.9375 74.8125 C-46.89129517 72.49083544 -48.84189419 70.21942143 -50.9453125 68.03125 C-56.16251482 62.56377598 -59.69593596 57.65677819 -59.86328125 49.89453125 C-58.77198098 35.41661429 -45.16829534 25.49059527 -35.48974609 15.96362305 C-34.77125488 15.25375244 -34.05276367 14.54388184 -33.3125 13.8125 C-32.6628125 13.17441406 -32.013125 12.53632813 -31.34375 11.87890625 C-29.72387656 10.31173173 -29.72387656 10.31173173 -28.8125 8.25 C-28.1525 8.25 -27.4925 8.25 -26.8125 8.25 C-26.4825 7.26 -26.1525 6.27 -25.8125 5.25 C-23.8515625 3.6796875 -23.8515625 3.6796875 -21.4375 2.125 C-20.64601563 1.60679687 -19.85453125 1.08859375 -19.0390625 0.5546875 C-12.94399507 -3.01680815 -6.36885369 -2.77353306 0 0 Z " fill="#2196F5" transform="translate(279.8125,489.75)"/>
<path d="M0 0 C14.47544632 10.85658474 23.64251872 26.33000906 26.421875 44.22265625 C28.31987768 61.61015295 23.7368614 80.04903369 13.02490234 94.04833984 C9.77119257 97.91523653 6.23618255 101.4893315 2.63964844 105.03564453 C0.08222702 107.55759313 -2.44724218 110.10612498 -4.9765625 112.65625 C-10.69733459 118.41588226 -16.44431948 124.14945294 -22.22680664 129.84716797 C-24.26300526 131.86053001 -26.08985144 133.85885669 -27.890625 136.09765625 C-31.04450055 139.94144208 -34.75109099 143.06803569 -38.578125 146.22265625 C-39.19558594 146.73957031 -39.81304688 147.25648438 -40.44921875 147.7890625 C-55.79733336 160.01011841 -73.43203377 163.1352379 -92.578125 161.22265625 C-98.43120467 160.17754073 -104.10421208 158.54151538 -109.578125 156.22265625 C-109.908125 155.56265625 -110.238125 154.90265625 -110.578125 154.22265625 C-111.5990625 153.85140625 -111.5990625 153.85140625 -112.640625 153.47265625 C-116.80420297 151.70092094 -120.04184863 149.00966218 -123.578125 146.22265625 C-124.568125 145.50078125 -125.558125 144.77890625 -126.578125 144.03515625 C-138.16829986 134.18192858 -144.95543 118.21765154 -146.45703125 103.32421875 C-146.82753584 96.89417127 -146.94562073 90.54732398 -145.578125 84.22265625 C-144.918125 84.22265625 -144.258125 84.22265625 -143.578125 84.22265625 C-143.5575 83.02640625 -143.536875 81.83015625 -143.515625 80.59765625 C-141.30163226 61.79347794 -123.99131175 48.48274748 -111.328125 35.97265625 C-101.86596372 26.68804637 -101.86596372 26.68804637 -92.97851562 16.86010742 C-84.71291338 7.19528974 -72.07009324 -5.9464463 -58.953125 -7.65234375 C-57.839375 -7.69359375 -56.725625 -7.73484375 -55.578125 -7.77734375 C-55.578125 -8.43734375 -55.578125 -9.09734375 -55.578125 -9.77734375 C-35.99310213 -15.05023452 -16.57364021 -11.42576711 0 0 Z " fill="#FD4142" transform="translate(894.578125,727.77734375)"/>
<path d="M0 0 C3.40522569 3.26171587 6.75915838 6.57247673 10.1015625 9.8984375 C11.02286957 10.81404449 11.94417664 11.72965149 12.8934021 12.67300415 C14.82633429 14.59554344 16.75701998 16.52030909 18.68652344 18.44628906 C21.13134721 20.88561999 23.58533351 23.31551089 26.04155922 25.74335289 C28.42240409 28.10086393 30.79244143 30.46914836 33.1640625 32.8359375 C34.03197418 33.69150238 34.89988586 34.54706726 35.7940979 35.42855835 C43.22242654 42.88381072 50.05065051 50.9514552 54.375 60.625 C54.83648437 61.62789062 55.29796875 62.63078125 55.7734375 63.6640625 C58.61946083 71.40452087 59.33462047 78.66041437 59.25 86.875 C59.23658569 88.33679688 59.23658569 88.33679688 59.22290039 89.828125 C58.94930398 106.74857453 53.90962046 120.59234086 42 133 C29.31937421 144.96162123 14.23327612 151.61621797 -3.1875 151.5 C-4.18491211 151.49500488 -5.18232422 151.49000977 -6.20996094 151.48486328 C-15.19356755 151.27537101 -22.77008547 149.51641803 -31 146 C-31.99 145.5771875 -32.98 145.154375 -34 144.71875 C-49.11145101 137.33474553 -61.13625259 122.11085797 -72.89233398 110.40283203 C-75.3287973 107.97749552 -77.77675385 105.56410181 -80.22731495 103.15302277 C-82.60431332 100.80871175 -84.9670801 98.45021241 -87.33203125 96.09375 C-88.63222954 94.81981384 -88.63222954 94.81981384 -89.95869446 93.5201416 C-97.15523185 86.29797963 -103.01003285 78.3388223 -106.8125 68.8125 C-107.37904297 67.42998047 -107.37904297 67.42998047 -107.95703125 66.01953125 C-110.5866584 58.40641594 -111.35854639 51.7732539 -111.3125 43.75 C-111.30686035 42.72801514 -111.3012207 41.70603027 -111.29541016 40.65307617 C-111.00501874 22.61574415 -104.20154082 8.47312926 -91.65234375 -4.41015625 C-81.85294876 -13.71259302 -72.25919445 -17.81974269 -59 -20 C-57.92298828 -20.21462891 -57.92298828 -20.21462891 -56.82421875 -20.43359375 C-34.46476697 -24.3117856 -15.7759132 -14.6552652 0 0 Z " fill="#2198F7" transform="translate(215,738)"/>
<path d="M0 0 C4.8862291 4.10094228 9.50549253 8.35039538 14 12.875 C14.5775 13.44863281 15.155 14.02226563 15.75 14.61328125 C18.76266626 17.63267221 21.65379504 20.71254495 24.44140625 23.94140625 C28.09634228 28.16624723 31.9771383 32.12505264 35.9375 36.0625 C36.60201172 36.73087891 37.26652344 37.39925781 37.95117188 38.08789062 C38.61568359 38.75111328 39.28019531 39.41433594 39.96484375 40.09765625 C40.5487085 40.68039307 41.13257324 41.26312988 41.73413086 41.86352539 C43.58798303 43.61151164 45.47317712 45.26034285 47.41040039 46.91259766 C53.71703167 52.4061031 59.55595138 58.39146508 65.46875 64.30078125 C66.7576184 65.58643187 68.04656006 66.87200906 69.33557129 68.15751648 C72.02008174 70.83607289 74.7025518 73.51665366 77.38378906 76.19848633 C80.82660524 79.6414049 84.27629601 83.07734755 87.72771454 86.5116396 C90.38356628 89.15641154 93.0348999 91.80567657 95.68495178 94.45625877 C96.95605837 95.72618286 98.22879242 96.9944801 99.50315857 98.26113319 C101.27443981 100.02267903 103.0393467 101.79037183 104.80273438 103.55981445 C105.33250885 104.08396942 105.86228333 104.60812439 106.40811157 105.14816284 C110 108.77167228 110 108.77167228 110 111 C111.32 111.66 112.64 112.32 114 113 C113.34 113.99 112.68 114.98 112 116 C111.34 116 110.68 116 110 116 C108.28518204 117.61708222 106.62790875 119.29545646 105 121 C104.05818884 121.95789647 103.114137 122.91359453 102.16796875 123.8671875 C101.68352295 124.35678955 101.19907715 124.8463916 100.69995117 125.35083008 C96.19901495 129.88664038 91.66116302 134.28028798 86.79296875 138.42578125 C84.33141785 140.58701221 82.06777917 142.92194428 79.7734375 145.2578125 C77.32832638 147.65983796 74.72610433 149.8596 72.125 152.08984375 C68.8885008 154.99912336 65.89277292 158.1362875 62.8828125 161.27734375 C61 163 61 163 59 163 C59 163.66 59 164.32 59 165 C57.54003906 166.45410156 57.54003906 166.45410156 55.515625 168.140625 C51.12389111 171.87572322 46.93064996 175.78162223 42.75 179.75 C37.66192956 184.56257329 32.55634525 189.35043396 27.375 194.0625 C23.67333918 197.43590986 20.05184423 200.84201736 16.609375 204.48046875 C15 206 15 206 12.953125 207.30078125 C10.75515809 208.74479439 9.38512921 209.75260492 8 212 C8.00907026 215.38320749 8.59310686 218.39299397 9.30078125 221.69921875 C11.11790743 230.27727252 9.63695014 238.49370552 8 247 C7.67 247 7.34 247 7 247 C7.01571045 246.24493164 7.0314209 245.48986328 7.04760742 244.71191406 C7.11073548 241.22468843 7.14923498 237.73758367 7.1875 234.25 C7.21263672 233.06277344 7.23777344 231.87554688 7.26367188 230.65234375 C7.40556733 213.34109803 1.96550811 198.75857104 -10.04296875 186.29296875 C-10.64234253 185.66139862 -11.24171631 185.02982849 -11.85925293 184.37911987 C-13.89601055 182.24273058 -15.94603411 180.1198471 -18 178 C-18.75342682 177.22115448 -19.50685364 176.44230896 -20.28311157 175.63986206 C-25.28179051 170.48493232 -30.31709648 165.36781235 -35.37695312 160.27294922 C-37.13102996 158.50221975 -38.87971088 156.72612937 -40.62304688 154.94482422 C-58.11218214 137.07961368 -72.56405101 125.27595179 -98.39453125 123.87890625 C-103.30323508 124.04377063 -107.97586876 124.88630495 -112.75976562 125.96899414 C-116.0430363 126.70921793 -117.73486403 127.08837866 -121 126 C-108.57178791 121.51908 -96.37313207 120.6431567 -83.4375 123.66015625 C-79.86553709 124.15817031 -77.10311895 123.82036209 -74.16650391 121.63647461 C-73.60882324 121.06421143 -73.05114258 120.49194824 -72.4765625 119.90234375 C-71.85136719 119.26941406 -71.22617188 118.63648438 -70.58203125 117.984375 C-69.93621094 117.30890625 -69.29039062 116.6334375 -68.625 115.9375 C-67.62146484 114.91076172 -67.62146484 114.91076172 -66.59765625 113.86328125 C-62.75978862 109.91275606 -59.02397458 105.89572501 -55.46875 101.6875 C-53.88737031 99.87059567 -52.21802804 98.1878872 -50.5 96.5 C-48.20673964 94.24202057 -46.03571972 91.94003496 -43.9375 89.5 C-36.94008027 81.39608406 -29.47271166 73.69777223 -22.14453125 65.89453125 C-15.59894238 58.92299659 -9.07294439 51.93703433 -2.625 44.875 C-0.7955206 42.87128447 1.03712446 40.87097236 2.875 38.875 C7.99226028 33.31482517 13.06646883 27.72491671 18 22 C16.57781685 18.74297483 14.85468034 16.64001026 12.3046875 14.1796875 C11.58925781 13.47972656 10.87382812 12.77976562 10.13671875 12.05859375 C9.01716797 10.97771484 9.01716797 10.97771484 7.875 9.875 C6.38872852 8.43954122 4.90671122 6.99966007 3.4296875 5.5546875 C2.77210449 4.92030762 2.11452148 4.28592773 1.43701172 3.63232422 C0 2 0 2 0 0 Z " fill="#1782D5" transform="translate(266,594)"/>
<path d="M0 0 C0 3 0 3 -1.46875 4.80932617 C-2.1390625 5.46392822 -2.809375 6.11853027 -3.5 6.79296875 C-4.221875 7.50517578 -4.94375 8.21738281 -5.6875 8.95117188 C-6.8321875 10.0581543 -6.8321875 10.0581543 -8 11.1875 C-9.1446875 12.31188477 -9.1446875 12.31188477 -10.3125 13.45898438 C-12.20180839 15.31286823 -14.09775206 17.15941069 -16 19 C-14.60867688 22.10842155 -12.97011082 24.32111167 -10.62890625 26.78515625 C-9.97212891 27.48060547 -9.31535156 28.17605469 -8.63867188 28.89257812 C-7.95353516 29.60865234 -7.26839844 30.32472656 -6.5625 31.0625 C-5.88123047 31.78244141 -5.19996094 32.50238281 -4.49804688 33.24414062 C-0.96427492 36.99855759 -0.96427492 36.99855759 2.71899414 40.60327148 C4 42 4 42 4 44 C5.485 44.495 5.485 44.495 7 45 C8.47265625 46.49609375 8.47265625 46.49609375 10.0625 48.4375 C12.90056782 51.79158015 15.86924344 54.91689575 19 58 C21.93118191 60.89591958 24.76403174 63.80242571 27.4375 66.9375 C30.30172413 70.28925164 33.36335221 73.40555399 36.5 76.5 C39.5531698 79.51231105 42.54072412 82.53548902 45.3125 85.8125 C48.6689092 89.75404592 52.32338867 93.36112936 56 97 C61.71768724 102.66482842 67.06494336 108.50149445 72.23828125 114.66796875 C73.02589844 115.58191406 73.81351563 116.49585938 74.625 117.4375 C75.33914063 118.28183594 76.05328125 119.12617187 76.7890625 119.99609375 C79.24825386 122.22500747 80.74064307 122.68550065 84 123 C84 123.33 84 123.66 84 124 C83.40574219 124.13535156 82.81148437 124.27070312 82.19921875 124.41015625 C64.66683333 128.96366848 52.1266198 143.24050755 40.296875 156.203125 C36.11185822 160.78722736 31.82351822 165.22940723 27.38671875 169.5703125 C26.83585098 170.11092316 26.28498322 170.65153381 25.71742249 171.20852661 C23.47701556 173.40423128 21.23427141 175.59719583 18.97729492 177.77587891 C7.44453011 188.93065557 -0.90645478 199.94995951 -4 216 C-4.33 216 -4.66 216 -5 216 C-4.85046875 215.15824219 -4.7009375 214.31648437 -4.546875 213.44921875 C-5.23289858 208.22715993 -8.39678777 206.1593495 -12.25 202.8125 C-12.97638672 202.15830078 -13.70277344 201.50410156 -14.45117188 200.83007812 C-15.92711416 199.5021195 -17.40887819 198.18060196 -18.89648438 196.86572266 C-21.29888786 194.73490007 -23.65816141 192.56155464 -26.01245117 190.37792969 C-34.77241145 182.25933051 -34.77241145 182.25933051 -44 174.6875 C-44.66 174.130625 -45.32 173.57375 -46 173 C-46 172.34 -46 171.68 -46 171 C-46.58394531 170.73823975 -47.16789063 170.47647949 -47.76953125 170.20678711 C-50.12668654 168.9314567 -51.75667432 167.54355179 -53.6875 165.69140625 C-54.38029053 165.03213135 -55.07308105 164.37285645 -55.78686523 163.69360352 C-56.51719971 162.99033936 -57.24753418 162.2870752 -58 161.5625 C-59.5319911 160.10357736 -61.06454573 158.64524625 -62.59765625 157.1875 C-63.72324951 156.11435547 -63.72324951 156.11435547 -64.87158203 155.01953125 C-71.08006339 149.12866662 -77.43582107 143.39515032 -83.8125 137.6875 C-88.21356065 133.73727971 -92.55022857 129.72079568 -96.875 125.6875 C-97.51800049 125.08832764 -98.16100098 124.48915527 -98.82348633 123.87182617 C-100.0291879 122.74478144 -101.2311597 121.61372851 -102.42871094 120.47802734 C-103.72435759 119.25928203 -105.04984904 118.07234651 -106.3828125 116.89453125 C-108.40312378 114.52774146 -108.9805499 113.11687912 -109 110 C-107.453125 107.90234375 -107.453125 107.90234375 -105.25 105.9375 C-103.05355368 103.94252627 -101.11229824 102.15374164 -99.359375 99.75390625 C-98.91078125 99.17511719 -98.4621875 98.59632813 -98 98 C-97.34 98 -96.68 98 -96 98 C-96 97.34 -96 96.68 -96 96 C-94.49747562 94.5163641 -94.49747562 94.5163641 -92.43995667 92.80686951 C-88.43085966 89.39543514 -84.67511009 85.8171182 -80.96069336 82.09008789 C-80.3075264 81.43867325 -79.65435944 80.78725861 -78.98139954 80.11610413 C-76.84837925 77.98744251 -74.71898793 75.8551943 -72.58984375 73.72265625 C-71.09361603 72.22710329 -69.59723999 70.73169871 -68.10072327 69.23643494 C-64.97494547 66.11212601 -61.85096945 62.98602966 -58.72827148 59.85864258 C-54.74185878 55.86653311 -50.75097285 51.87893053 -46.75871944 47.892663 C-43.67097963 44.80855071 -40.58564278 41.72204331 -37.50100899 38.63482475 C-36.03105452 37.16420708 -34.56036759 35.69432113 -33.08891106 34.22520638 C-31.02680376 32.16566174 -28.96796801 30.10289875 -26.90991211 28.03930664 C-26.31179718 27.44321594 -25.71368225 26.84712524 -25.09744263 26.23297119 C-21.45070569 22.56820071 -17.99923984 18.78062083 -14.63279057 14.85652828 C-11.91494281 11.7662598 -8.9930909 8.88685074 -6.0625 6 C-5.17981445 5.12408203 -5.17981445 5.12408203 -4.27929688 4.23046875 C-2.85520207 2.81795195 -1.4279475 1.4086219 0 0 Z " fill="#E13031" transform="translate(755,596)"/>
<path d="M0 0 C3.69013265 2.3993155 5.53501051 5.15204178 6.60546875 9.40625 C6.90616661 13.08270686 6.75091359 15.90524264 4.62618575 19.0028846 C3.75695477 19.93555767 3.75695477 19.93555767 2.87016356 20.88707262 C2.23470373 21.57554996 1.59924389 22.26402729 0.9445277 22.97336758 C0.30283356 23.64215628 -0.33886058 24.31094498 -1 25 C-1.54994061 25.57608802 -2.09988122 26.15217604 -2.6664867 26.74572127 C-4.33983672 28.47044513 -6.03373659 30.17227241 -7.73511696 31.86933804 C-8.69976067 32.83751009 -8.69976067 32.83751009 -9.68389213 33.82524118 C-11.82709406 35.97506978 -13.97379045 38.12137321 -16.12051392 40.26768494 C-17.67824748 41.82872099 -19.23576888 43.38996877 -20.7930969 44.9514094 C-25.0637622 49.23205744 -29.33754137 53.50958458 -33.61187124 57.78657305 C-37.75040354 61.92861683 -41.886615 66.07297613 -46.02295913 70.21720488 C-57.09408284 81.30911846 -68.17034581 92.39589407 -79.24745465 103.48183 C-84.4871684 108.72575495 -89.72637692 113.97018456 -94.96556991 119.2146298 C-112.90147582 137.16841421 -130.83882151 155.12075901 -148.77994728 173.06932735 C-149.904984 174.19483882 -151.03002014 175.32035086 -152.15505572 176.44586346 C-152.71295811 177.00400222 -153.27086049 177.56214098 -153.84566901 178.13719304 C-156.67218419 180.96490939 -159.49869223 183.79263289 -162.32519531 186.62036133 C-163.16657786 187.4621041 -163.16657786 187.4621041 -164.02495803 188.32085177 C-182.23510417 206.53890108 -200.43745629 224.76471196 -218.63531378 242.99503574 C-237.87890078 262.27289203 -257.1297445 281.54347258 -276.38882577 300.80585009 C-278.50110123 302.91854309 -280.61334568 305.0312671 -282.72556686 307.14401436 C-283.24565198 307.66422266 -283.76573709 308.18443097 -284.30158236 308.72040316 C-292.68046983 317.10162524 -301.05266908 325.48949784 -309.42248684 333.87977618 C-317.82595948 342.30346643 -326.23691509 350.71962437 -334.65509678 359.12861549 C-339.2177131 363.68666833 -343.77697429 368.24795347 -348.32765007 372.81793022 C-352.48872268 376.99649964 -356.65881314 381.16583759 -360.83645587 385.32783873 C-362.3505971 386.83958339 -363.86132284 388.35475784 -365.36836655 389.87357806 C-367.40871378 391.92888541 -369.460857 393.97162408 -371.51656532 396.01154995 C-372.10626755 396.61147439 -372.69596978 397.21139883 -373.30354178 397.82950279 C-376.365388 400.83986507 -378.59141423 402.87149249 -383 403 C-384.71337891 402.01538086 -384.71337891 402.01538086 -386.2265625 400.46484375 C-386.7834375 399.90216797 -387.3403125 399.33949219 -387.9140625 398.75976562 C-388.47867187 398.15841797 -389.04328125 397.55707031 -389.625 396.9375 C-390.19734375 396.36322266 -390.7696875 395.78894531 -391.359375 395.19726562 C-394.76296428 391.68681947 -396.83747541 388.42277096 -399 384 C-379.15794664 364.13458713 -359.31303138 344.27203719 -339.46470451 324.41289234 C-330.24887188 315.19190325 -321.03397832 305.96997934 -311.82128906 296.74584961 C-303.79159222 288.70618611 -295.76013962 280.66828146 -287.72657311 272.63248461 C-283.47287724 268.37748502 -279.22006622 264.12160942 -274.96935654 259.86362648 C-270.96775781 255.85523631 -266.96381414 251.84920356 -262.95806694 247.84495926 C-261.48905574 246.37567314 -260.02090015 244.90553097 -258.55367088 243.43446541 C-256.5480907 241.42389923 -254.53943534 239.41645518 -252.52999878 237.40974426 C-251.95216074 236.82899338 -251.3743227 236.2482425 -250.77897441 235.64989311 C-247.33431655 232.21782179 -243.75711721 229.0861743 -240 226 C-238.75536932 224.67911724 -237.5414819 223.32788009 -236.375 221.9375 C-231.41968997 216.15083553 -231.41968997 216.15083553 -229 214 C-228.34 214 -227.68 214 -227 214 C-226.67 213.01 -226.34 212.02 -226 211 C-224.62214661 209.64091492 -224.62214661 209.64091492 -222.77270508 208.1394043 C-216.38049269 202.70967005 -210.55756019 196.70141322 -204.63671875 190.76953125 C-203.35511096 189.48859825 -202.07335486 188.20781363 -200.79145813 186.9271698 C-198.11968084 184.25685912 -195.44970132 181.5847675 -192.78100586 178.91137695 C-189.36367906 175.48833026 -185.94185063 172.06982426 -182.51867962 168.65262318 C-179.8771833 166.01474079 -177.23807375 163.37448089 -174.59967995 160.73349571 C-173.33854328 159.47169328 -172.07666699 158.21062963 -170.8140316 156.95032692 C-169.05286883 155.19170684 -167.29494843 153.42990783 -165.5378418 151.66723633 C-164.75935883 150.8917897 -164.75935883 150.8917897 -163.96514893 150.10067749 C-161.90926253 148.03272818 -160.00195077 146.00266833 -158.27888489 143.64579773 C-157.85685287 143.10268448 -157.43482086 142.55957123 -157 142 C-156.34 142 -155.68 142 -155 142 C-154.773125 141.443125 -154.54625 140.88625 -154.3125 140.3125 C-151.71374391 135.73373926 -147.47810719 132.53707517 -143.57745361 129.08505249 C-137.41990713 123.54637861 -131.59198076 117.70250212 -125.76074219 111.82666016 C-124.56729054 110.62800262 -123.37358815 109.4295947 -122.17965698 108.23141479 C-119.62914049 105.67103374 -117.08011079 103.10918521 -114.53218842 100.54622269 C-110.5008194 96.49161705 -106.46442297 92.44204119 -102.42706299 88.3934021 C-90.95416817 76.88720972 -79.4856019 65.37672641 -68.02734375 53.85595703 C-61.68374134 47.47783123 -55.33479324 41.10507795 -48.97984815 34.738253 C-44.96631208 30.71662962 -40.95942838 26.68853064 -36.95732832 22.65552831 C-34.46857921 20.1507651 -31.97355114 17.6523315 -29.47668839 15.15565872 C-28.32195836 13.99850913 -27.16980176 12.83878479 -26.02045059 11.67629242 C-24.44912044 10.08775048 -22.86874107 8.50878119 -21.28582764 6.93179321 C-19.96410112 5.6039704 -19.96410112 5.6039704 -18.61567307 4.24932289 C-12.71948339 -0.82104871 -7.42058903 -2.31743314 0 0 Z " fill="#E3AB21" transform="translate(780,206)"/>
<path d="M0 0 C3.91712846 1.65180116 6.89126801 4.30392721 10.0625 7.0625 C11.23360353 8.06990794 12.40548949 9.07640697 13.578125 10.08203125 C14.15884766 10.58041504 14.73957031 11.07879883 15.33789062 11.59228516 C17.62341197 13.52799551 19.96865754 15.38557986 22.3125 17.25 C27.84448372 21.74372285 33.00694839 26.59859277 38.16723633 31.50878906 C42.02485897 35.17642173 45.95529298 38.72645991 49.97583008 42.21435547 C54.20493279 45.94510655 58.26307946 49.8627948 62.3515625 53.74609375 C63.02445312 54.38160156 63.69734375 55.01710938 64.390625 55.671875 C65.2882959 56.52410645 65.2882959 56.52410645 66.20410156 57.39355469 C68.0120122 59.07070795 68.0120122 59.07070795 70.22558594 60.58300781 C71.1039209 61.28441895 71.1039209 61.28441895 72 62 C72 62.66 72 63.32 72 64 C72.57234375 64.24363281 73.1446875 64.48726563 73.734375 64.73828125 C76.40433538 66.22517298 78.13829007 67.98083908 80.25 70.1875 C83.0587808 73.06501117 85.87666256 75.82989001 88.9375 78.4375 C92.1103592 81.15619248 95.06338382 84.02751675 98 87 C100.87557659 89.91053801 103.75874094 92.72424022 106.875 95.375 C110.43286253 98.41430767 113.71441388 101.67364346 117 105 C120.22397498 108.2638325 123.435179 111.46830186 126.9375 114.4375 C131.23094262 118.08558173 135.1472711 122.09207511 139.08178711 126.11889648 C141.9065157 128.98917815 144.78888922 131.7183845 147.84375 134.34375 C153.28414247 139.04487383 158.2513115 144.20440556 163.2890625 149.328125 C167.46425794 153.54636369 171.7025048 157.59745735 176.22460938 161.44335938 C178.06573959 163.05763966 179.78649491 164.75156211 181.5 166.5 C184.54991181 169.60549107 187.7702187 172.44907245 191.06640625 175.2890625 C193.83844894 177.74190028 196.41571701 180.35110994 199 183 C197.34136495 187.32504836 194.128959 190.09418825 190.875 193.25 C190.31167969 193.80429687 189.74835938 194.35859375 189.16796875 194.9296875 C187.78313972 196.29104485 186.39216796 197.64614859 185 199 C181.76951252 197.5800745 179.61757512 195.86380613 177.13671875 193.3671875 C176.41419922 192.64273438 175.69167969 191.91828125 174.94726562 191.171875 C173.82868164 190.03492188 173.82868164 190.03492188 172.6875 188.875 C171.95337891 188.14023437 171.21925781 187.40546875 170.46289062 186.6484375 C166.31428215 182.46669906 162.34935138 178.17990042 158.50317383 173.71923828 C156.75385114 171.71846999 154.9115976 169.84568044 153 168 C150.48238304 165.52074673 148.09909278 163.00559816 145.8125 160.3125 C142.55569999 156.51664344 139.05388146 153.01376993 135.5 149.5 C131.40197243 145.44812139 127.46872408 141.35395519 123.73828125 136.95703125 C120.78518422 133.63230853 117.57244491 130.56553758 114.41015625 127.44140625 C111.73145468 124.72797273 109.25391882 121.89222977 106.77734375 118.99609375 C104.76731223 116.73867374 102.65167047 114.62264287 100.5 112.5 C97.73439592 109.77170593 95.08712969 107.01483166 92.5625 104.0625 C89.12563389 100.05149384 85.40799257 96.37094014 81.625 92.6875 C78.90984541 89.90769887 76.37398614 87.01838607 73.82958984 84.08349609 C70.90354624 80.75138292 67.85805585 77.53507627 64.8125 74.3125 C63.49311432 72.91050931 62.17410899 71.50816059 60.85546875 70.10546875 C60.20626465 69.41501465 59.55706055 68.72456055 58.88818359 68.01318359 C50.42600891 58.99080288 42.11690364 49.83390333 33.8671875 40.6171875 C30.63084212 37.00964838 27.39011639 33.40917765 24.08203125 29.8671875 C15.28921812 20.44921979 6.88743787 10.93887192 0 0 Z " fill="#E2AA21" transform="translate(256,224)"/>
<path d="M0 0 C1.32 0.66 2.64 1.32 4 2 C4.33 2.99 4.66 3.98 5 5 C6.32110689 5.6905786 7.65589463 6.35532724 9 7 C10.421875 8.48046875 10.421875 8.48046875 11.75 10.1875 C13.90411228 12.80359147 16.10390734 15.05738046 18.6875 17.25 C25.9678295 23.45641116 32.67062275 30.30915574 38.828125 37.625 C40.75582931 39.7329932 42.73967036 41.70766371 44.796875 43.6875 C45.48491211 44.35426758 46.17294922 45.02103516 46.88183594 45.70800781 C48.28092671 47.0567855 49.69032405 48.39496264 51.11035156 49.72167969 C52.07666504 50.65608887 52.07666504 50.65608887 53.0625 51.609375 C53.65160156 52.16592773 54.24070312 52.72248047 54.84765625 53.29589844 C56 55 56 55 55.88110352 56.99609375 C54.85103783 59.33878677 53.67252333 60.6699773 51.83984375 62.453125 C50.8972168 63.38125 50.8972168 63.38125 49.93554688 64.328125 C49.27619141 64.96234375 48.61683594 65.5965625 47.9375 66.25 C46.94266602 67.22453125 46.94266602 67.22453125 45.92773438 68.21875 C44.29169612 69.81947807 42.64782895 71.41143925 41 73 C34.68919169 67.78007014 28.9041212 62.08537993 23.10546875 56.30859375 C22.34104682 55.54841289 22.34104682 55.54841289 21.56118202 54.77287483 C18.87184037 52.09842024 16.18530567 49.42118493 13.5012207 46.74145508 C10.73623044 43.98197887 7.96205896 41.23192667 5.18569469 38.48390102 C3.04195106 36.35878835 0.90495192 34.22699016 -1.23026085 32.0933094 C-2.25042202 31.07616692 -3.2730744 30.06151649 -4.29828835 29.04946709 C-5.72912501 27.63572243 -7.14958615 26.2115002 -8.56958008 24.78686523 C-9.37897537 23.98111557 -10.18837067 23.17536591 -11.02229309 22.34519958 C-13 20 -13 20 -15 15 C-10.05 10.05 -5.1 5.1 0 0 Z " fill="#E4AB21" transform="translate(584,537)"/>
<path d="M0 0 C6.92810724 5.66574049 13.14204142 12.03033639 19.4375 18.375 C20.56161467 19.50413955 21.68596174 20.63304778 22.81054688 21.76171875 C25.54305235 24.50515188 28.27239009 27.25169985 31 30 C30.34 30.66 29.68 31.32 29 32 C27.9375 30.9375 26.875 29.875 25.8125 28.8125 C25.17570312 28.17828125 24.53890625 27.5440625 23.8828125 26.890625 C22.74187872 25.74495705 21.60915097 24.59092485 20.4921875 23.421875 C19.36367829 22.246063 18.18578478 21.11802565 17 20 C16.34 20 15.68 20 15 20 C14.5978125 18.8553125 14.5978125 18.8553125 14.1875 17.6875 C13.0364442 15.08247899 12.19546244 13.75636995 10 12 C9.01 11.67 8.02 11.34 7 11 C5.97388051 9.34928604 4.97691857 7.68029994 4 6 C3.278125 5.278125 2.55625 4.55625 1.8125 3.8125 C1.214375 3.214375 0.61625 2.61625 0 2 C0 1.34 0 0.68 0 0 Z " fill="#1D7DE7" transform="translate(329,540)"/>
<path d="M0 0 C3.31401282 1.10467094 3.97245504 1.87752638 6.12890625 4.5 C10.16049845 9.25178455 14.50868506 13.62052061 18.9375 18 C19.71673828 18.77472656 20.49597656 19.54945313 21.29882812 20.34765625 C23.1969242 22.23410757 25.09733149 24.11816245 27 26 C26.67 26.66 26.34 27.32 26 28 C22.2908542 24.34017795 18.58823822 20.67392152 14.89160156 17.00146484 C13.63232287 15.75226298 12.37125764 14.50485944 11.10839844 13.25927734 C9.29673588 11.47178925 7.49153161 9.67799773 5.6875 7.8828125 C5.11878174 7.32441681 4.55006348 6.76602112 3.96411133 6.19070435 C2.6042535 4.83124115 1.29658827 3.41993393 0 2 C0 1.34 0 0.68 0 0 Z " fill="#FAEA17" transform="translate(333,542)"/>
<path d="M0 0 C0.66 0 1.32 0 2 0 C2 0.66 2 1.32 2 2 C2.99 2.33 3.98 2.66 5 3 C5 3.66 5 4.32 5 5 C5.66 5 6.32 5 7 5 C8.33895632 6.66215268 9.67130142 8.32963607 11 10 C11.9075 10.721875 12.815 11.44375 13.75 12.1875 C14.4925 12.785625 15.235 13.38375 16 14 C16 14.66 16 15.32 16 16 C16.66 16 17.32 16 18 16 C18 16.66 18 17.32 18 18 C19.32 18.66 20.64 19.32 22 20 C21.34 20.66 20.68 21.32 20 22 C17.1453424 19.19469153 14.29722769 16.38292304 11.45507812 13.56494141 C10.48681462 12.60675044 9.51676574 11.65036018 8.54492188 10.69580078 C7.1502903 9.3253618 5.76253479 7.94793633 4.375 6.5703125 C3.53710938 5.74289551 2.69921875 4.91547852 1.8359375 4.06298828 C0 2 0 2 0 0 Z " fill="#F2E129" transform="translate(426,636)"/>
<path d="M0 0 C0 2 0 2 -1.6796875 3.7265625 C-2.40414062 4.35304688 -3.12859375 4.97953125 -3.875 5.625 C-4.59429688 6.25664062 -5.31359375 6.88828125 -6.0546875 7.5390625 C-8 9 -8 9 -10 9 C-10.226875 9.5775 -10.45375 10.155 -10.6875 10.75 C-12.33038023 13.5663661 -14.39533227 15.08077114 -17 17 C-17.66 16.67 -18.32 16.34 -19 16 C-18.01 15.67 -17.02 15.34 -16 15 C-15.31513275 13.67592331 -14.65129797 12.34090759 -14 11 C-12 8.75 -12 8.75 -10 7 C-9.34 7 -8.68 7 -8 7 C-7.67 6.01 -7.34 5.02 -7 4 C-2.54285714 0 -2.54285714 0 0 0 Z " fill="#F6453B" transform="translate(744,491)"/>
<path d="M0 0 C0.66 0.33 1.32 0.66 2 1 C-2.18389906 6.12527635 -6.54904814 11.17619795 -12 15 C-12.99 15 -13.98 15 -15 15 C-10.05 10.05 -5.1 5.1 0 0 Z " fill="#F8453B" transform="translate(569,664)"/>
<path d="M0 0 C0 1.66666667 0 3.33333333 0 5 C-1.61457079 6.43581474 -3.29219075 7.80144783 -5 9.125 C-5.928125 9.84945312 -6.85625 10.57390625 -7.8125 11.3203125 C-8.534375 11.87460937 -9.25625 12.42890625 -10 13 C-10.66 12.67 -11.32 12.34 -12 12 C-8.04 8.04 -4.08 4.08 0 0 Z " fill="#F04541" transform="translate(546,687)"/>
<path d="M0 0 C0.33 0.66 0.66 1.32 1 2 C-0.25 4.625 -0.25 4.625 -2 7 C-2.99 7 -3.98 7 -5 7 C-5.66 8.65 -6.32 10.3 -7 12 C-7.66 11.34 -8.32 10.68 -9 10 C-6.03 6.7 -3.06 3.4 0 0 Z " fill="#E9CB3B" transform="translate(338,529)"/>
<path d="M0 0 C0.70125 0.309375 1.4025 0.61875 2.125 0.9375 C5.08936657 2.03302678 7.87698108 2.56422992 11 3 C9.625 5 9.625 5 8 7 C7.34 7 6.68 7 6 7 C6 6.34 6 5.68 6 5 C5.38125 4.731875 4.7625 4.46375 4.125 4.1875 C2 3 2 3 0 0 Z " fill="#E1CD3B" transform="translate(447,658)"/>
<path d="M0 0 C0.33 0.66 0.66 1.32 1 2 C1.86625 2.37125 1.86625 2.37125 2.75 2.75 C6.00631306 4.55906281 7.71035376 7.07434092 10 10 C7 10 7 10 5.17578125 8.57421875 C4.56089844 7.95160156 3.94601562 7.32898438 3.3125 6.6875 C2.37857422 5.76517578 2.37857422 5.76517578 1.42578125 4.82421875 C0 3 0 3 0 0 Z " fill="#E5D933" transform="translate(360,569)"/>
<path d="M0 0 C4.72191071 2.16338587 7.13197855 5.04695175 9.25 9.8125 C9.4975 10.534375 9.745 11.25625 10 12 C5.25892502 8.74897716 2.79129597 4.89367634 0 0 Z " fill="#DC9F1D" transform="translate(256,224)"/>
<path d="M0 0 C5.01113235 1.4317521 6.94469549 3.98445693 10 8 C7 8 7 8 5.17578125 6.50390625 C4.56089844 5.86324219 3.94601562 5.22257813 3.3125 4.5625 C2.68988281 3.92441406 2.06726563 3.28632812 1.42578125 2.62890625 C0 1 0 1 0 0 Z " fill="#E7DA35" transform="translate(407,618)"/>
<path d="M0 0 C4.2742558 1.5830577 6.26531794 4.50568404 9 8 C6 8 6 8 4.39453125 6.7578125 C3.87246094 6.21898437 3.35039062 5.68015625 2.8125 5.125 C2.28269531 4.59132813 1.75289063 4.05765625 1.20703125 3.5078125 C0 2 0 2 0 0 Z " fill="#3288D9" transform="translate(351,563)"/>
<path d="M0 0 C3.7952131 1.49097658 5.61042731 3.75700849 8 7 C5 7 5 7 2.3125 4.625 C0 2 0 2 0 0 Z " fill="#F0DD2E" transform="translate(417,627)"/>
<path d="M0 0 C3.7952131 1.49097658 5.61042731 3.75700849 8 7 C5 7 5 7 2.3125 4.625 C0 2 0 2 0 0 Z " fill="#EEDC28" transform="translate(400,610)"/>
<path d="M0 0 C0.99 0.33 1.98 0.66 3 1 C-0.465 3.97 -0.465 3.97 -4 7 C-4 4 -4 4 -2 1.8125 C-1.34 1.214375 -0.68 0.61625 0 0 Z " fill="#1D87DC" transform="translate(276,625)"/>
<path d="M0 0 C2.49361571 1.20381448 4.68143083 2.45428722 7 4 C6.67 4.99 6.34 5.98 6 7 C3.95880212 5.38405168 1.95927063 3.7143618 0 2 C0 1.34 0 0.68 0 0 Z " fill="#F0DF29" transform="translate(370,580)"/>
<path d="M0 0 C1 4 1 4 1 4 Z " fill="#F7C627" transform="translate(170,219)"/>
<path d="M0 0 C0.33 0.66 0.66 1.32 1 2 C0.34 1.67 -0.32 1.34 -1 1 C-0.67 0.67 -0.34 0.34 0 0 Z " fill="#218AE3" transform="translate(275,805)"/>
<path d="" fill="#F5C628" transform="translate(0,0)"/>
<path d="M0 0 C3 1 3 1 3 1 Z " fill="#F3C527" transform="translate(316,153)"/>
<path d="" fill="#268AE0" transform="translate(0,0)"/>
<path d="M0 0 C2 1 2 1 2 1 Z " fill="#3080D1" transform="translate(450,773)"/>
<path d="" fill="#647BB6" transform="translate(0,0)"/>
<path d="" fill="#667BB4" transform="translate(0,0)"/>
<path d="M0 0 C2 1 2 1 2 1 Z " fill="#E93F3D" transform="translate(854,714)"/>
<path d="M0 0 C2 1 2 1 2 1 Z " fill="#238CE4" transform="translate(163,714)"/>
<path d="M0 0 C2 1 2 1 2 1 Z " fill="#E95644" transform="translate(744,488)"/>
<path d="M0 0 C2 1 2 1 2 1 Z " fill="#4390CE" transform="translate(261,488)"/>
<path d="M0 0 C2 1 2 1 2 1 Z " fill="#FDCB29" transform="translate(540,312)"/>
<path d="" fill="#F1C028" transform="translate(0,0)"/>
<path d="" fill="#F3C228" transform="translate(0,0)"/>
<path d="" fill="#F4C52A" transform="translate(0,0)"/>
<path d="" fill="#F4C227" transform="translate(0,0)"/>
<path d="M0 0 C2 1 2 1 2 1 Z " fill="#EFBF24" transform="translate(682,160)"/>
<path d="M0 0 C2 1 2 1 2 1 Z " fill="#F6C627" transform="translate(803,129)"/>
<path d="M0 0 C2 1 2 1 2 1 Z " fill="#F7C627" transform="translate(808,128)"/>
<path d="M0 0 C2 1 2 1 2 1 Z " fill="#EFC126" transform="translate(840,120)"/>
<path d="" fill="#DC3A3A" transform="translate(0,0)"/>
<path d="" fill="#DE3B3B" transform="translate(0,0)"/>
<path d="" fill="#DF3A3B" transform="translate(0,0)"/>
<path d="" fill="#2588DF" transform="translate(0,0)"/>
<path d="" fill="#2487DA" transform="translate(0,0)"/>
<path d="" fill="#238AE2" transform="translate(0,0)"/>
<path d="" fill="#2585D9" transform="translate(0,0)"/>
<path d="" fill="#2587DB" transform="translate(0,0)"/>
<path d="" fill="#E13E3E" transform="translate(0,0)"/>
<path d="" fill="#238ADF" transform="translate(0,0)"/>
<path d="" fill="#2187DB" transform="translate(0,0)"/>
<path d="" fill="#2289E0" transform="translate(0,0)"/>
<path d="" fill="#2288DC" transform="translate(0,0)"/>
<path d="" fill="#258DE2" transform="translate(0,0)"/>
<path d="" fill="#238DE2" transform="translate(0,0)"/>
<path d="" fill="#2287DC" transform="translate(0,0)"/>
<path d="" fill="#2290E8" transform="translate(0,0)"/>
<path d="" fill="#E23B39" transform="translate(0,0)"/>
<path d="" fill="#238EE7" transform="translate(0,0)"/>
<path d="" fill="#228CE4" transform="translate(0,0)"/>
<path d="" fill="#E83E3B" transform="translate(0,0)"/>
<path d="" fill="#E93D3E" transform="translate(0,0)"/>
<path d="" fill="#E63838" transform="translate(0,0)"/>
<path d="" fill="#EA3738" transform="translate(0,0)"/>
<path d="" fill="#E03132" transform="translate(0,0)"/>
<path d="" fill="#D44042" transform="translate(0,0)"/>
<path d="" fill="#2788DC" transform="translate(0,0)"/>
<path d="" fill="#3685D2" transform="translate(0,0)"/>
<path d="" fill="#268AE3" transform="translate(0,0)"/>
<path d="" fill="#2489E0" transform="translate(0,0)"/>
<path d="" fill="#3986D3" transform="translate(0,0)"/>
<path d="" fill="#268DE4" transform="translate(0,0)"/>
<path d="" fill="#D7484E" transform="translate(0,0)"/>
<path d="" fill="#268DE6" transform="translate(0,0)"/>
<path d="" fill="#D24A50" transform="translate(0,0)"/>
<path d="" fill="#CF4F59" transform="translate(0,0)"/>
<path d="" fill="#E33231" transform="translate(0,0)"/>
<path d="" fill="#C25663" transform="translate(0,0)"/>
<path d="" fill="#258EE8" transform="translate(0,0)"/>
<path d="" fill="#BC5365" transform="translate(0,0)"/>
<path d="" fill="#E53233" transform="translate(0,0)"/>
<path d="" fill="#E23C3A" transform="translate(0,0)"/>
<path d="" fill="#6A7CB4" transform="translate(0,0)"/>
<path d="" fill="#6680B9" transform="translate(0,0)"/>
<path d="" fill="#238DE4" transform="translate(0,0)"/>
<path d="" fill="#238FE8" transform="translate(0,0)"/>
<path d="" fill="#228DE6" transform="translate(0,0)"/>
<path d="" fill="#6886C0" transform="translate(0,0)"/>
<path d="" fill="#EC3E3C" transform="translate(0,0)"/>
<path d="" fill="#218CE5" transform="translate(0,0)"/>
<path d="" fill="#E05E57" transform="translate(0,0)"/>
<path d="" fill="#E86150" transform="translate(0,0)"/>
<path d="" fill="#F15E4C" transform="translate(0,0)"/>
<path d="" fill="#DA3432" transform="translate(0,0)"/>
<path d="" fill="#FDA934" transform="translate(0,0)"/>
<path d="" fill="#EABE49" transform="translate(0,0)"/>
<path d="" fill="#FFC230" transform="translate(0,0)"/>
<path d="" fill="#FEC830" transform="translate(0,0)"/>
<path d="" fill="#FBC72B" transform="translate(0,0)"/>
<path d="" fill="#2490E4" transform="translate(0,0)"/>
<path d="" fill="#248EE8" transform="translate(0,0)"/>
<path d="" fill="#D83B39" transform="translate(0,0)"/>
<path d="" fill="#2783D2" transform="translate(0,0)"/>
<path d="" fill="#FF9636" transform="translate(0,0)"/>
<path d="" fill="#2581CC" transform="translate(0,0)"/>
<path d="" fill="#75A8BC" transform="translate(0,0)"/>
<path d="" fill="#FB843A" transform="translate(0,0)"/>
<path d="" fill="#2888D4" transform="translate(0,0)"/>
<path d="" fill="#FCB130" transform="translate(0,0)"/>
<path d="" fill="#68A1C3" transform="translate(0,0)"/>
<path d="" fill="#348ED7" transform="translate(0,0)"/>
<path d="" fill="#F45E43" transform="translate(0,0)"/>
<path d="" fill="#F4C932" transform="translate(0,0)"/>
<path d="" fill="#F8CE38" transform="translate(0,0)"/>
<path d="" fill="#5899C9" transform="translate(0,0)"/>
<path d="" fill="#4C95CE" transform="translate(0,0)"/>
<path d="" fill="#FFCB2C" transform="translate(0,0)"/>
<path d="" fill="#FFCB2B" transform="translate(0,0)"/>
<path d="" fill="#F6C931" transform="translate(0,0)"/>
<path d="" fill="#F6CA39" transform="translate(0,0)"/>
<path d="" fill="#F6CB36" transform="translate(0,0)"/>
<path d="" fill="#F6CA36" transform="translate(0,0)"/>
<path d="" fill="#F8CA33" transform="translate(0,0)"/>
<path d="" fill="#F5C836" transform="translate(0,0)"/>
<path d="" fill="#FCC82D" transform="translate(0,0)"/>
<path d="" fill="#F6C72F" transform="translate(0,0)"/>
<path d="" fill="#F3C62B" transform="translate(0,0)"/>
<path d="" fill="#F7C629" transform="translate(0,0)"/>
<path d="" fill="#F8C527" transform="translate(0,0)"/>
<path d="" fill="#F5C526" transform="translate(0,0)"/>
<path d="" fill="#FDCF2B" transform="translate(0,0)"/>
<path d="" fill="#F4C42A" transform="translate(0,0)"/>
<path d="" fill="#F4C62A" transform="translate(0,0)"/>
<path d="" fill="#FDD029" transform="translate(0,0)"/>
<path d="" fill="#F2C42A" transform="translate(0,0)"/>
<path d="" fill="#F1C52A" transform="translate(0,0)"/>
<path d="" fill="#EFC027" transform="translate(0,0)"/>
<path d="" fill="#F9CD29" transform="translate(0,0)"/>
<path d="" fill="#FACB28" transform="translate(0,0)"/>
<path d="" fill="#F1C329" transform="translate(0,0)"/>
<path d="" fill="#F9CF2A" transform="translate(0,0)"/>
<path d="" fill="#F3C126" transform="translate(0,0)"/>
<path d="" fill="#F1C427" transform="translate(0,0)"/>
<path d="" fill="#F1C226" transform="translate(0,0)"/>
<path d="" fill="#F9C827" transform="translate(0,0)"/>
<path d="" fill="#F2C529" transform="translate(0,0)"/>
<path d="" fill="#F6C629" transform="translate(0,0)"/>
<path d="" fill="#F4C627" transform="translate(0,0)"/>
<path d="" fill="#F8C62A" transform="translate(0,0)"/>
<path d="" fill="#F8C72A" transform="translate(0,0)"/>
<path d="" fill="#F7C728" transform="translate(0,0)"/>
<path d="" fill="#F6C527" transform="translate(0,0)"/>
<path d="" fill="#F4C528" transform="translate(0,0)"/>
<path d="" fill="#F7C726" transform="translate(0,0)"/>
<path d="" fill="#F3C727" transform="translate(0,0)"/>
<path d="" fill="#F4C628" transform="translate(0,0)"/>
<path d="" fill="#F3C726" transform="translate(0,0)"/>
<path d="" fill="#F3C428" transform="translate(0,0)"/>
<path d="" fill="#F3C428" transform="translate(0,0)"/>
<path d="" fill="#F3C528" transform="translate(0,0)"/>
<path d="" fill="#F2C227" transform="translate(0,0)"/>
<path d="" fill="#F5C528" transform="translate(0,0)"/>
<path d="" fill="#F1C625" transform="translate(0,0)"/>
<path d="" fill="#F1C32A" transform="translate(0,0)"/>
<path d="" fill="#F2C525" transform="translate(0,0)"/>
<path d="" fill="#F0C326" transform="translate(0,0)"/>
<path d="" fill="#EEC024" transform="translate(0,0)"/>
<path d="" fill="#EFC325" transform="translate(0,0)"/>
<path d="" fill="#F6C527" transform="translate(0,0)"/>
<path d="" fill="#F5C627" transform="translate(0,0)"/>
<path d="" fill="#F5C727" transform="translate(0,0)"/>
<path d="" fill="#F7C728" transform="translate(0,0)"/>
<path d="" fill="#FBC926" transform="translate(0,0)"/>
<path d="" fill="#F7C928" transform="translate(0,0)"/>
<path d="" fill="#F6C526" transform="translate(0,0)"/>
<path d="" fill="#F7C625" transform="translate(0,0)"/>
<path d="" fill="#F5C628" transform="translate(0,0)"/>
<path d="" fill="#F5C526" transform="translate(0,0)"/>
<path d="" fill="#E2B626" transform="translate(0,0)"/>
<path d="" fill="#F6C726" transform="translate(0,0)"/>
<path d="" fill="#F6C825" transform="translate(0,0)"/>
<path d="" fill="#E7B825" transform="translate(0,0)"/>
<path d="" fill="#D9AE21" transform="translate(0,0)"/>
<path d="" fill="#F5C628" transform="translate(0,0)"/>
<path d="" fill="#F4C725" transform="translate(0,0)"/>
<path d="" fill="#EFC124" transform="translate(0,0)"/>
<path d="" fill="#DAB21F" transform="translate(0,0)"/>
<path d="" fill="#DFB121" transform="translate(0,0)"/>
<path d="" fill="#EDBD25" transform="translate(0,0)"/>
</svg>
