<?xml version="1.0" encoding="UTF-8"?>
<svg version="1.1" xmlns="http://www.w3.org/2000/svg" width="853" height="1280">
<path d="M0 0 C3.36494814 3.05904377 6.3178563 6.32446975 9 10 C9 10.66 9 11.32 9 12 C9.66 12 10.32 12 11 12 C11.81674796 13.74802146 12.62823451 15.49850189 13.4375 17.25 C13.88996094 18.22453125 14.34242188 19.1990625 14.80859375 20.203125 C21.84666741 36.72529136 15.91392959 56.74988721 11 73 C1.31137739 106.19435305 -2.22233631 140.16091884 11 173 C11.25394531 172.03320312 11.50789063 171.06640625 11.76953125 170.0703125 C12.66358737 166.67718162 13.57535887 163.28902779 14.49169922 159.90185547 C14.91593762 158.31452733 15.32161003 156.72225203 15.72265625 155.12890625 C17.43644894 148.71501144 20.28343471 143.48454775 24 138 C24.39058594 137.41089844 24.78117187 136.82179688 25.18359375 136.21484375 C28.55323877 131.65591225 32.63879564 128.6983144 38 127 C48.65922594 125.69004557 57.46786821 126.7408928 67 132 C67.82886719 132.45375 68.65773438 132.9075 69.51171875 133.375 C71.75 134.6875 71.75 134.6875 75 137 C75 137.66 75 138.32 75 139 C75.55816406 139.23332031 76.11632812 139.46664062 76.69140625 139.70703125 C83.94076058 143.76716033 89.39434144 151.23543899 94 158 C94.66 158.33 95.32 158.66 96 159 C97.05278004 160.63383964 98.03832362 162.31093034 99 164 C99.77795002 165.30978247 100.55807667 166.61827347 101.33984375 167.92578125 C102.2060125 169.38785301 103.07189104 170.85009675 103.9375 172.3125 C104.36740234 173.03373047 104.79730469 173.75496094 105.24023438 174.49804688 C109.52686347 181.75084117 113.17426347 189.0201508 116.0625 196.9375 C116.30548828 197.58912109 116.54847656 198.24074219 116.79882812 198.91210938 C123.60803173 217.31682681 126.67361397 234.72127748 126.46655273 254.38085938 C126.43758292 257.36645458 126.44600956 260.35026096 126.45898438 263.3359375 C126.44488217 275.13288998 125.46557018 286.5012697 123.70581055 298.16064453 C122.84931726 303.84684832 122.39664904 309.50480399 122.1875 315.25 C122.11112305 316.62091797 122.11112305 316.62091797 122.03320312 318.01953125 C121.77543148 324.16236071 122.11925366 330.10282974 124 336 C125.86497477 338.28143813 125.86497477 338.28143813 128.8125 338.3125 C132.49021894 337.95193932 134.01768502 337.15110315 137 335 C139.13324106 332.3243636 139.13324106 332.3243636 141 329.25 C141.68449219 328.18136719 142.36898437 327.11273438 143.07421875 326.01171875 C143.70972656 325.01785156 144.34523438 324.02398437 145 323 C145.92575649 321.67919062 146.86091309 320.36482287 147.8125 319.0625 C149.94396416 316.16740353 149.94396416 316.16740353 151.40234375 313.6484375 C157.70916444 303.19361005 164.01541781 294.60330943 175.8984375 290.69140625 C187.34299983 288.14016251 196.3524736 289.94492124 206 296.0625 C208.3125 297.59765625 208.3125 297.59765625 210 299 C210 299.66 210 300.32 210 301 C210.86818359 301.32677734 210.86818359 301.32677734 211.75390625 301.66015625 C219.45410331 306.25349119 223.77033125 317.95497677 227 326 C227.34675781 326.84820312 227.69351563 327.69640625 228.05078125 328.5703125 C239.80786412 358.98438788 241.52178538 398.66695312 232.7734375 430.15234375 C231.94334851 433.20858047 231.310668 436.27015709 230.6875 439.375 C229.39790492 445.53790703 227.7620765 451.56365057 226.0625 457.625 C216.81453589 489.14628265 216.81453589 489.14628265 224 520 C224.35416992 520.63615234 224.70833984 521.27230469 225.07324219 521.92773438 C229.69811548 530.18836854 234.71778569 538.18136567 239.88134766 546.11279297 C243.21780254 551.26696871 246.17701155 556.55132875 249 562 C249.54140625 563.00804687 250.0828125 564.01609375 250.640625 565.0546875 C258.85199379 580.77465027 265.09245279 597.69811471 269 615 C269.19609863 615.85319824 269.39219727 616.70639648 269.59423828 617.58544922 C277.87789118 655.35971923 275.15124165 698.49877002 259.01147461 733.78833008 C258.34255794 735.25096974 257.68938566 736.72092316 257.05297852 738.19799805 C254.50442427 744.10988838 251.54819409 749.7413273 248.4375 755.375 C247.71530273 756.70724609 247.71530273 756.70724609 246.97851562 758.06640625 C246.50994141 758.91847656 246.04136719 759.77054688 245.55859375 760.6484375 C245.13892334 761.41333496 244.71925293 762.17823242 244.28686523 762.96630859 C243 765 243 765 241.40258789 766.58447266 C239.73406314 768.05930703 239.73406314 768.05930703 239 771 C238.34 771 237.68 771 237 771 C236.7628125 771.71929688 236.525625 772.43859375 236.28125 773.1796875 C234.79748841 776.44577246 232.95495296 778.51860514 230.5 781.125 C228.08551892 783.70410479 225.96265593 786.05601611 224 789 C223.34 789 222.68 789 222 789 C221.75378906 789.57105469 221.50757813 790.14210938 221.25390625 790.73046875 C217.39883551 797.70802669 210.07210931 802.94704473 203.75 807.58984375 C201.8773259 808.89880519 201.8773259 808.89880519 201 811 C200.01 811.33 199.02 811.66 198 812 C196.9171875 813.11375 196.9171875 813.11375 195.8125 814.25 C192.99006639 817.00971286 190.25567008 818.82453369 186.8671875 820.7890625 C184.96352939 822.02365249 183.5952495 823.39650631 182 825 C180.67169884 825.93375626 179.31595419 826.82950888 177.9375 827.6875 C177.24527344 828.12449219 176.55304687 828.56148437 175.83984375 829.01171875 C174 830 174 830 172 830 C172 830.66 172 831.32 172 832 C171.5359375 832.25652344 171.071875 832.51304687 170.59375 832.77734375 C169.9028125 833.16019531 169.211875 833.54304687 168.5 833.9375 C167.66984375 834.39640625 166.8396875 834.8553125 165.984375 835.328125 C163.83930934 836.529811 161.70508791 837.75093076 159.578125 838.984375 C144.82520839 847.51051143 129.59346523 854.97122753 113.5390625 860.7109375 C110.40479828 861.85255692 107.36816951 863.10333444 104.3125 864.4375 C78.65022478 875.17271474 50.38485396 882.33275359 23 887 C22.28086426 887.12536133 21.56172852 887.25072266 20.82080078 887.37988281 C10.27371672 889.1984266 -0.3329194 890.62567312 -10.9375 892.0625 C-12.12649902 892.22492187 -13.31549805 892.38734375 -14.54052734 892.5546875 C-31.38254574 894.79512904 -48.04601133 896.31966389 -65.04296875 896.37109375 C-66.8104008 896.3819526 -68.57783141 896.39304699 -70.34526062 896.40435791 C-75.95936491 896.43447105 -81.57332813 896.43743282 -87.1875 896.4375 C-88.14155983 896.43855869 -89.09561966 896.43961739 -90.07859039 896.44070816 C-124.87279669 896.47721916 -159.28502642 895.48655052 -193.51782227 888.6472168 C-197.02579034 887.99520646 -200.5184176 887.53138951 -204.0625 887.125 C-210.81336847 886.27392897 -217.41439171 884.94372046 -224.0625 883.5 C-225.05064697 883.28617676 -226.03879395 883.07235352 -227.05688477 882.85205078 C-231.81288678 881.7964275 -236.39171199 880.59651733 -241 879 C-242.41053235 878.69884619 -243.82773094 878.42717867 -245.25 878.1875 C-250.26205296 877.22920156 -255.14917633 875.92725599 -260.0625 874.5625 C-260.8059668 874.35713623 -261.54943359 874.15177246 -262.31542969 873.94018555 C-270.52164513 871.63410543 -278.51120864 868.8800022 -286.4375 865.75 C-288.00251124 865.13518007 -289.56761841 864.52060429 -291.1328125 863.90625 C-292.32825684 863.43638672 -292.32825684 863.43638672 -293.54785156 862.95703125 C-296.02476072 861.99033632 -298.50732866 861.03980672 -300.9921875 860.09375 C-301.79986572 859.78469727 -302.60754395 859.47564453 -303.43969727 859.15722656 C-304.98311254 858.56711121 -306.52781168 857.98033916 -308.07397461 857.39746094 C-311.98426185 855.89546666 -315.41772291 854.19205361 -319 852 C-321.32680933 850.98491242 -323.66076785 849.98612241 -326 849 C-338.99562952 842.92290706 -351.83853658 836.23268598 -363.46875 827.80078125 C-367.46166329 824.96014386 -371.60175037 822.3434623 -375.7265625 819.69921875 C-376.47679687 819.13847656 -377.22703125 818.57773437 -378 818 C-378 817.34 -378 816.68 -378 816 C-378.54914063 815.92265625 -379.09828125 815.8453125 -379.6640625 815.765625 C-382.84843879 814.72191638 -384.82239298 812.90934823 -387.375 810.75 C-388.344375 809.9353125 -389.31375 809.120625 -390.3125 808.28125 C-391.6428125 807.15203125 -391.6428125 807.15203125 -393 806 C-394.12398003 805.08208297 -395.2487244 804.16509893 -396.375 803.25 C-399.06092361 800.94777977 -401.50570105 798.50859293 -404 796 C-405.00396505 795.01695781 -406.00922327 794.03523496 -407.015625 793.0546875 C-421.65130576 778.71356415 -434.93540947 762.48793794 -444 744 C-444.70769531 742.65421875 -444.70769531 742.65421875 -445.4296875 741.28125 C-451.6101982 729.38794292 -455.51342036 716.90487268 -459 704 C-459.26683594 703.07316406 -459.53367187 702.14632812 -459.80859375 701.19140625 C-470.35329362 662.67320205 -466.92887965 620.98221168 -456 583 C-455.75846191 582.15195801 -455.51692383 581.30391602 -455.26806641 580.43017578 C-447.88438358 554.64749204 -447.88438358 554.64749204 -443.54296875 547.65234375 C-441.91481061 544.85356051 -440.88139311 542.10465231 -439.78613281 539.0703125 C-438.53300094 535.77013911 -436.97079189 532.64561282 -435.375 529.5 C-435.03017578 528.81639404 -434.68535156 528.13278809 -434.33007812 527.4284668 C-417.35781951 494.11241067 -417.35781951 494.11241067 -406 480.625 C-403.53225829 477.386089 -401.74543643 473.94845647 -399.83984375 470.35546875 C-398.05770966 467.10524969 -396.17721672 463.93770051 -394.26220703 460.76513672 C-379.60873783 436.40030091 -379.90724667 418.43768373 -386.5637207 391.53540039 C-391.22037258 372.70844149 -394.53924405 354.40550463 -395 335 C-395.02191406 334.08250977 -395.04382813 333.16501953 -395.06640625 332.21972656 C-395.3051887 320.27662426 -395.0862674 308.78741083 -393 297 C-392.79375 295.7109375 -392.5875 294.421875 -392.375 293.09375 C-390.77053506 283.43994524 -388.18134876 274.24369535 -385 265 C-384.70963867 264.14567383 -384.41927734 263.29134766 -384.12011719 262.41113281 C-378.80847991 246.89541561 -372.42309775 232.63073361 -364.125 218.5 C-363.74351807 217.84588135 -363.36203613 217.1917627 -362.96899414 216.51782227 C-362.03761499 214.97515358 -361.02595192 213.48145755 -360 212 C-359.34 212 -358.68 212 -358 212 C-357.773125 211.278125 -357.54625 210.55625 -357.3125 209.8125 C-355.72668125 206.41431697 -353.73876676 204.54769001 -351 202 C-350.278125 201.236875 -349.55625 200.47375 -348.8125 199.6875 C-338.36987332 189.70899006 -330.22107421 184.35170988 -315.67504883 184.4543457 C-307.79437871 184.76608498 -302.47381968 187.18786026 -296.375 192.125 C-290.47781049 199.26370309 -285.1994644 206.25576246 -282 215 C-281.66355469 215.90234375 -281.32710937 216.8046875 -280.98046875 217.734375 C-278.69378576 224.20902797 -277.15579925 230.68767461 -275.7734375 237.40625 C-273.1390005 251.20818636 -273.1390005 251.20818636 -266 263 C-263.34148231 264.12213894 -263.34148231 264.12213894 -261 264 C-259.3703579 258.17051125 -258.60241798 252.72481444 -258.2890625 246.69140625 C-258.18019014 244.88514216 -258.07079555 243.07890949 -257.9609375 241.27270508 C-257.90647461 240.33907135 -257.85201172 239.40543762 -257.79589844 238.44351196 C-256.99875191 225.00518726 -256.16341229 211.61136665 -254 198.3125 C-253.84611816 197.35480713 -253.69223633 196.39711426 -253.53369141 195.41040039 C-252.57381015 189.96692871 -251.04575109 185.13114617 -249 180 C-248.566875 178.1746875 -248.566875 178.1746875 -248.125 176.3125 C-244.85633123 162.653185 -238.07591847 149.05444085 -231 137 C-230.6073999 136.32453125 -230.2147998 135.6490625 -229.81030273 134.953125 C-228.54495277 132.77843628 -227.2731448 130.60763319 -226 128.4375 C-225.57460938 127.70853516 -225.14921875 126.97957031 -224.7109375 126.22851562 C-219.6807677 117.657168 -219.6807677 117.657168 -217 114 C-216.34 114 -215.68 114 -215 114 C-214.61134766 112.9171875 -214.61134766 112.9171875 -214.21484375 111.8125 C-209.87460174 101.76435129 -201.1113198 93.23189141 -194 85 C-193.12601562 83.95585937 -193.12601562 83.95585937 -192.234375 82.890625 C-186.75798041 76.4185223 -180.63525026 70.54042213 -174.60375977 64.59204102 C-173.12364312 63.12273965 -171.66432395 61.63256662 -170.20703125 60.140625 C-168 58 -168 58 -165.8125 56.9375 C-163.47139069 55.72658139 -162.95928874 54.39822186 -162 52 C-161.34 52 -160.68 52 -160 52 C-159.67 51.01 -159.34 50.02 -159 49 C-156.98828125 47.125 -156.98828125 47.125 -154.3125 45 C-152.83330078 43.81857422 -152.83330078 43.81857422 -151.32421875 42.61328125 C-150.2166966 41.74148736 -149.10859633 40.87042754 -148 40 C-146.77729046 39.03522379 -145.55463558 38.07037829 -144.33203125 37.10546875 C-141.40417712 34.79841927 -138.47029533 32.49924834 -135.53100586 30.20678711 C-134.12488619 29.09843923 -132.7390815 27.96444507 -131.35546875 26.828125 C-129.19150082 25.1486275 -127.103846 23.8391435 -124.6875 22.5625 C-121.84410331 21.02678657 -119.08509577 19.44699573 -116.375 17.6875 C-106.97968683 11.76639806 -97.28125615 6.86942729 -86.84375 3.08203125 C-84.44765914 2.17033184 -82.30313948 1.16700344 -80.0625 -0.0625 C-58.54311778 -11.15773241 -19.9291444 -15.9530134 0 0 Z " fill="#B9BCBD" transform="translate(517,184)"/>
<path d="M0 0 C2.61998003 -0.00322713 5.23995989 -0.00659219 7.85993958 -0.01008606 C13.32516776 -0.01642517 18.79038387 -0.01797461 24.25561523 -0.01733398 C29.78331416 -0.01680281 35.31094215 -0.02383585 40.83862305 -0.0378418 C141.95159212 -0.28811396 141.95159212 -0.28811396 178.39453125 12.16796875 C179.42707031 12.51964111 179.42707031 12.51964111 180.48046875 12.87841797 C195.56377999 18.15832213 208.96099812 26.20721112 221.39453125 36.16796875 C222.29429687 36.8640625 223.1940625 37.56015625 224.12109375 38.27734375 C241.43679667 51.9502619 254.66935403 68.61389298 266.39453125 87.16796875 C267.01908203 88.14757568 267.01908203 88.14757568 267.65625 89.14697266 C274.90500126 100.61951552 280.40052196 112.56595383 285.39453125 125.16796875 C285.7208252 125.98587891 286.04711914 126.80378906 286.38330078 127.64648438 C300.69235812 163.87751628 307.45420983 205.02418884 292.58203125 242.35546875 C291.56066447 244.64509758 290.49797043 246.91674414 289.39453125 249.16796875 C289.1020752 249.78140137 288.80961914 250.39483398 288.50830078 251.02685547 C277.83786328 273.22068763 259.92520415 292.73788851 239.39453125 306.16796875 C238.60175781 306.70679688 237.80898438 307.245625 236.9921875 307.80078125 C220.5838624 318.67224472 202.77520591 326.30797154 184.39453125 333.16796875 C183.59724609 333.46687012 182.79996094 333.76577148 181.97851562 334.07373047 C148.97587675 346.24767807 113.31290131 351.49779467 78.43701172 354.87426758 C76.33325429 355.06720948 76.33325429 355.06720948 74.39453125 356.16796875 C72.24040751 356.27022711 70.08305241 356.30641019 67.92651367 356.31323242 C67.26079346 356.31659103 66.59507324 356.31994965 65.90917969 356.32341003 C63.68943435 356.33296274 61.46976469 356.33486806 59.25 356.3359375 C57.68565339 356.33915698 56.12130707 356.34252156 54.55696106 356.34602356 C51.2538687 356.35203232 47.95080252 356.35386265 44.64770508 356.35327148 C41.3188722 356.3531915 37.99018067 356.35991827 34.66137695 356.3737793 C15.78556516 356.45139116 -2.90606279 356.1545461 -21.7253418 354.59887695 C-26.70729954 354.19423288 -31.60864223 354.08472669 -36.60546875 354.16796875 C-36.60546875 353.50796875 -36.60546875 352.84796875 -36.60546875 352.16796875 C-37.64123047 352.12551025 -38.67699219 352.08305176 -39.74414062 352.03930664 C-50.01632243 351.56158191 -59.98565884 350.40301733 -70.10546875 348.60546875 C-70.84615601 348.47613953 -71.58684326 348.3468103 -72.34997559 348.21356201 C-119.11016945 340.00114924 -169.4016555 326.5665764 -205.60546875 294.16796875 C-205.60546875 293.50796875 -205.60546875 292.84796875 -205.60546875 292.16796875 C-206.40984375 291.85859375 -206.40984375 291.85859375 -207.23046875 291.54296875 C-210.52524884 289.63546449 -213.19910503 287.11977491 -215.60546875 284.16796875 C-215.60546875 283.50796875 -215.60546875 282.84796875 -215.60546875 282.16796875 C-216.50410645 281.78233765 -216.50410645 281.78233765 -217.42089844 281.38891602 C-221.24680104 279.25063496 -223.34262776 275.61731636 -225.85546875 272.10546875 C-226.43031006 271.30488037 -227.00515137 270.50429199 -227.59741211 269.67944336 C-233.00697314 261.93771657 -237.01959048 253.87853785 -240.60546875 245.16796875 C-241.01152344 244.23082031 -241.41757813 243.29367187 -241.8359375 242.328125 C-252.75424918 215.17875994 -250.98618593 186.04657758 -244.60546875 158.16796875 C-244.41903809 157.32991699 -244.23260742 156.49186523 -244.04052734 155.62841797 C-242.22136757 147.50833461 -239.9995551 139.77540367 -236.60546875 132.16796875 C-236.03292916 130.83112495 -235.46140994 129.49384392 -234.890625 128.15625 C-227.45284521 110.88646609 -218.90305674 95.22529405 -207.60546875 80.16796875 C-207.13850586 79.5426123 -206.67154297 78.91725586 -206.19042969 78.27294922 C-173.84999776 35.25580753 -131.23207905 11.25661937 -78.21044922 3.52880859 C-71.45430386 2.59295266 -64.92857391 2.03923092 -58.10546875 2.16796875 C-55.59897972 2.21321223 -53.11326384 2.21573628 -50.60546875 2.16796875 C-50.27546875 1.83796875 -49.94546875 1.50796875 -49.60546875 1.16796875 C-46.48741883 0.92222165 -43.39203563 0.74488219 -40.26831055 0.6159668 C-39.28702273 0.57392718 -38.30573492 0.53188757 -37.29471111 0.48857403 C-24.86618545 0.00248686 -12.43622632 0.00366988 0 0 Z " fill="#D6D7D8" transform="translate(396.60546875,631.83203125)"/>
<path d="M0 0 C3.36494814 3.05904377 6.3178563 6.32446975 9 10 C9 10.66 9 11.32 9 12 C9.66 12 10.32 12 11 12 C11.81674796 13.74802146 12.62823451 15.49850189 13.4375 17.25 C13.88996094 18.22453125 14.34242188 19.1990625 14.80859375 20.203125 C21.84666741 36.72529136 15.91392959 56.74988721 11 73 C1.31137739 106.19435305 -2.22233631 140.16091884 11 173 C11.25394531 172.03320312 11.50789063 171.06640625 11.76953125 170.0703125 C12.66358737 166.67718162 13.57535887 163.28902779 14.49169922 159.90185547 C14.91593762 158.31452733 15.32161003 156.72225203 15.72265625 155.12890625 C17.43644894 148.71501144 20.28343471 143.48454775 24 138 C24.39058594 137.41089844 24.78117187 136.82179688 25.18359375 136.21484375 C28.55323877 131.65591225 32.63879564 128.6983144 38 127 C48.65922594 125.69004557 57.46786821 126.7408928 67 132 C67.82886719 132.45375 68.65773438 132.9075 69.51171875 133.375 C71.75 134.6875 71.75 134.6875 75 137 C75 137.66 75 138.32 75 139 C75.55816406 139.23332031 76.11632812 139.46664062 76.69140625 139.70703125 C83.94076058 143.76716033 89.39434144 151.23543899 94 158 C94.66 158.33 95.32 158.66 96 159 C97.05278004 160.63383964 98.03832362 162.31093034 99 164 C99.77795002 165.30978247 100.55807667 166.61827347 101.33984375 167.92578125 C102.2060125 169.38785301 103.07189104 170.85009675 103.9375 172.3125 C104.36740234 173.03373047 104.79730469 173.75496094 105.24023438 174.49804688 C109.52686347 181.75084117 113.17426347 189.0201508 116.0625 196.9375 C116.30548828 197.58912109 116.54847656 198.24074219 116.79882812 198.91210938 C123.60803173 217.31682681 126.67361397 234.72127748 126.46655273 254.38085938 C126.43758292 257.36645458 126.44600956 260.35026096 126.45898438 263.3359375 C126.44488217 275.13288998 125.46557018 286.5012697 123.70581055 298.16064453 C122.84931726 303.84684832 122.39664904 309.50480399 122.1875 315.25 C122.11112305 316.62091797 122.11112305 316.62091797 122.03320312 318.01953125 C121.77543148 324.16236071 122.11925366 330.10282974 124 336 C125.86497477 338.28143813 125.86497477 338.28143813 128.8125 338.3125 C132.49021894 337.95193932 134.01768502 337.15110315 137 335 C139.13324106 332.3243636 139.13324106 332.3243636 141 329.25 C141.68449219 328.18136719 142.36898437 327.11273438 143.07421875 326.01171875 C143.70972656 325.01785156 144.34523438 324.02398437 145 323 C145.92575649 321.67919062 146.86091309 320.36482287 147.8125 319.0625 C149.94396416 316.16740353 149.94396416 316.16740353 151.40234375 313.6484375 C157.70916444 303.19361005 164.01541781 294.60330943 175.8984375 290.69140625 C187.34299983 288.14016251 196.3524736 289.94492124 206 296.0625 C208.3125 297.59765625 208.3125 297.59765625 210 299 C210 299.66 210 300.32 210 301 C210.86818359 301.32677734 210.86818359 301.32677734 211.75390625 301.66015625 C219.45410331 306.25349119 223.77033125 317.95497677 227 326 C227.34675781 326.84820312 227.69351563 327.69640625 228.05078125 328.5703125 C239.80786412 358.98438788 241.52178538 398.66695312 232.7734375 430.15234375 C231.94334851 433.20858047 231.310668 436.27015709 230.6875 439.375 C229.39790492 445.53790703 227.7620765 451.56365057 226.0625 457.625 C216.81453589 489.14628265 216.81453589 489.14628265 224 520 C224.35416992 520.63615234 224.70833984 521.27230469 225.07324219 521.92773438 C229.69811548 530.18836854 234.71778569 538.18136567 239.88134766 546.11279297 C243.21780254 551.26696871 246.17701155 556.55132875 249 562 C249.54140625 563.00804687 250.0828125 564.01609375 250.640625 565.0546875 C258.85199379 580.77465027 265.09245279 597.69811471 269 615 C269.19609863 615.85319824 269.39219727 616.70639648 269.59423828 617.58544922 C277.87789118 655.35971923 275.15124165 698.49877002 259.01147461 733.78833008 C258.34255794 735.25096974 257.68938566 736.72092316 257.05297852 738.19799805 C254.50442427 744.10988838 251.54819409 749.7413273 248.4375 755.375 C247.71530273 756.70724609 247.71530273 756.70724609 246.97851562 758.06640625 C246.50994141 758.91847656 246.04136719 759.77054688 245.55859375 760.6484375 C245.13892334 761.41333496 244.71925293 762.17823242 244.28686523 762.96630859 C243 765 243 765 241.40258789 766.58447266 C239.73406314 768.05930703 239.73406314 768.05930703 239 771 C238.34 771 237.68 771 237 771 C236.7628125 771.71929688 236.525625 772.43859375 236.28125 773.1796875 C234.79748841 776.44577246 232.95495296 778.51860514 230.5 781.125 C228.08551892 783.70410479 225.96265593 786.05601611 224 789 C223.34 789 222.68 789 222 789 C221.75378906 789.57105469 221.50757813 790.14210938 221.25390625 790.73046875 C217.39883551 797.70802669 210.07210931 802.94704473 203.75 807.58984375 C201.8773259 808.89880519 201.8773259 808.89880519 201 811 C200.01 811.33 199.02 811.66 198 812 C196.9171875 813.11375 196.9171875 813.11375 195.8125 814.25 C192.99006639 817.00971286 190.25567008 818.82453369 186.8671875 820.7890625 C184.96352939 822.02365249 183.5952495 823.39650631 182 825 C180.67169884 825.93375626 179.31595419 826.82950888 177.9375 827.6875 C177.24527344 828.12449219 176.55304687 828.56148437 175.83984375 829.01171875 C174 830 174 830 172 830 C172 830.66 172 831.32 172 832 C171.5359375 832.25652344 171.071875 832.51304687 170.59375 832.77734375 C169.9028125 833.16019531 169.211875 833.54304687 168.5 833.9375 C167.66984375 834.39640625 166.8396875 834.8553125 165.984375 835.328125 C163.83930934 836.529811 161.70508791 837.75093076 159.578125 838.984375 C144.82520839 847.51051143 129.59346523 854.97122753 113.5390625 860.7109375 C110.40479828 861.85255692 107.36816951 863.10333444 104.3125 864.4375 C78.65022478 875.17271474 50.38485396 882.33275359 23 887 C22.28086426 887.12536133 21.56172852 887.25072266 20.82080078 887.37988281 C10.27371672 889.1984266 -0.3329194 890.62567312 -10.9375 892.0625 C-12.12649902 892.22492187 -13.31549805 892.38734375 -14.54052734 892.5546875 C-31.38254574 894.79512904 -48.04601133 896.31966389 -65.04296875 896.37109375 C-66.8104008 896.3819526 -68.57783141 896.39304699 -70.34526062 896.40435791 C-75.95936491 896.43447105 -81.57332813 896.43743282 -87.1875 896.4375 C-88.14155983 896.43855869 -89.09561966 896.43961739 -90.07859039 896.44070816 C-124.87279669 896.47721916 -159.28502642 895.48655052 -193.51782227 888.6472168 C-197.02579034 887.99520646 -200.5184176 887.53138951 -204.0625 887.125 C-210.81336847 886.27392897 -217.41439171 884.94372046 -224.0625 883.5 C-225.05064697 883.28617676 -226.03879395 883.07235352 -227.05688477 882.85205078 C-231.81288678 881.7964275 -236.39171199 880.59651733 -241 879 C-242.41053235 878.69884619 -243.82773094 878.42717867 -245.25 878.1875 C-250.26205296 877.22920156 -255.14917633 875.92725599 -260.0625 874.5625 C-260.8059668 874.35713623 -261.54943359 874.15177246 -262.31542969 873.94018555 C-270.52164513 871.63410543 -278.51120864 868.8800022 -286.4375 865.75 C-288.00251124 865.13518007 -289.56761841 864.52060429 -291.1328125 863.90625 C-292.32825684 863.43638672 -292.32825684 863.43638672 -293.54785156 862.95703125 C-296.02476072 861.99033632 -298.50732866 861.03980672 -300.9921875 860.09375 C-301.79986572 859.78469727 -302.60754395 859.47564453 -303.43969727 859.15722656 C-304.98311254 858.56711121 -306.52781168 857.98033916 -308.07397461 857.39746094 C-311.98426185 855.89546666 -315.41772291 854.19205361 -319 852 C-321.32680933 850.98491242 -323.66076785 849.98612241 -326 849 C-338.99562952 842.92290706 -351.83853658 836.23268598 -363.46875 827.80078125 C-367.46166329 824.96014386 -371.60175037 822.3434623 -375.7265625 819.69921875 C-376.47679687 819.13847656 -377.22703125 818.57773437 -378 818 C-378 817.34 -378 816.68 -378 816 C-378.54914063 815.92265625 -379.09828125 815.8453125 -379.6640625 815.765625 C-382.84843879 814.72191638 -384.82239298 812.90934823 -387.375 810.75 C-388.344375 809.9353125 -389.31375 809.120625 -390.3125 808.28125 C-391.6428125 807.15203125 -391.6428125 807.15203125 -393 806 C-394.12398003 805.08208297 -395.2487244 804.16509893 -396.375 803.25 C-399.06092361 800.94777977 -401.50570105 798.50859293 -404 796 C-405.00396505 795.01695781 -406.00922327 794.03523496 -407.015625 793.0546875 C-421.65130576 778.71356415 -434.93540947 762.48793794 -444 744 C-444.70769531 742.65421875 -444.70769531 742.65421875 -445.4296875 741.28125 C-451.6101982 729.38794292 -455.51342036 716.90487268 -459 704 C-459.26683594 703.07316406 -459.53367187 702.14632812 -459.80859375 701.19140625 C-470.35329362 662.67320205 -466.92887965 620.98221168 -456 583 C-455.75846191 582.15195801 -455.51692383 581.30391602 -455.26806641 580.43017578 C-447.88438358 554.64749204 -447.88438358 554.64749204 -443.54296875 547.65234375 C-441.91481061 544.85356051 -440.88139311 542.10465231 -439.78613281 539.0703125 C-438.53300094 535.77013911 -436.97079189 532.64561282 -435.375 529.5 C-435.03017578 528.81639404 -434.68535156 528.13278809 -434.33007812 527.4284668 C-417.35781951 494.11241067 -417.35781951 494.11241067 -406 480.625 C-403.53225829 477.386089 -401.74543643 473.94845647 -399.83984375 470.35546875 C-398.05770966 467.10524969 -396.17721672 463.93770051 -394.26220703 460.76513672 C-379.60873783 436.40030091 -379.90724667 418.43768373 -386.5637207 391.53540039 C-391.22037258 372.70844149 -394.53924405 354.40550463 -395 335 C-395.02191406 334.08250977 -395.04382813 333.16501953 -395.06640625 332.21972656 C-395.3051887 320.27662426 -395.0862674 308.78741083 -393 297 C-392.79375 295.7109375 -392.5875 294.421875 -392.375 293.09375 C-390.77053506 283.43994524 -388.18134876 274.24369535 -385 265 C-384.70963867 264.14567383 -384.41927734 263.29134766 -384.12011719 262.41113281 C-378.80847991 246.89541561 -372.42309775 232.63073361 -364.125 218.5 C-363.74351807 217.84588135 -363.36203613 217.1917627 -362.96899414 216.51782227 C-362.03761499 214.97515358 -361.02595192 213.48145755 -360 212 C-359.34 212 -358.68 212 -358 212 C-357.773125 211.278125 -357.54625 210.55625 -357.3125 209.8125 C-355.72668125 206.41431697 -353.73876676 204.54769001 -351 202 C-350.278125 201.236875 -349.55625 200.47375 -348.8125 199.6875 C-338.36987332 189.70899006 -330.22107421 184.35170988 -315.67504883 184.4543457 C-307.79437871 184.76608498 -302.47381968 187.18786026 -296.375 192.125 C-290.47781049 199.26370309 -285.1994644 206.25576246 -282 215 C-281.66355469 215.90234375 -281.32710937 216.8046875 -280.98046875 217.734375 C-278.69378576 224.20902797 -277.15579925 230.68767461 -275.7734375 237.40625 C-273.1390005 251.20818636 -273.1390005 251.20818636 -266 263 C-263.34148231 264.12213894 -263.34148231 264.12213894 -261 264 C-259.3703579 258.17051125 -258.60241798 252.72481444 -258.2890625 246.69140625 C-258.18019014 244.88514216 -258.07079555 243.07890949 -257.9609375 241.27270508 C-257.90647461 240.33907135 -257.85201172 239.40543762 -257.79589844 238.44351196 C-256.99875191 225.00518726 -256.16341229 211.61136665 -254 198.3125 C-253.84611816 197.35480713 -253.69223633 196.39711426 -253.53369141 195.41040039 C-252.57381015 189.96692871 -251.04575109 185.13114617 -249 180 C-248.566875 178.1746875 -248.566875 178.1746875 -248.125 176.3125 C-244.85633123 162.653185 -238.07591847 149.05444085 -231 137 C-230.6073999 136.32453125 -230.2147998 135.6490625 -229.81030273 134.953125 C-228.54495277 132.77843628 -227.2731448 130.60763319 -226 128.4375 C-225.57460938 127.70853516 -225.14921875 126.97957031 -224.7109375 126.22851562 C-219.6807677 117.657168 -219.6807677 117.657168 -217 114 C-216.34 114 -215.68 114 -215 114 C-214.61134766 112.9171875 -214.61134766 112.9171875 -214.21484375 111.8125 C-209.87460174 101.76435129 -201.1113198 93.23189141 -194 85 C-193.12601562 83.95585937 -193.12601562 83.95585937 -192.234375 82.890625 C-186.75798041 76.4185223 -180.63525026 70.54042213 -174.60375977 64.59204102 C-173.12364312 63.12273965 -171.66432395 61.63256662 -170.20703125 60.140625 C-168 58 -168 58 -165.8125 56.9375 C-163.47139069 55.72658139 -162.95928874 54.39822186 -162 52 C-161.34 52 -160.68 52 -160 52 C-159.67 51.01 -159.34 50.02 -159 49 C-156.98828125 47.125 -156.98828125 47.125 -154.3125 45 C-152.83330078 43.81857422 -152.83330078 43.81857422 -151.32421875 42.61328125 C-150.2166966 41.74148736 -149.10859633 40.87042754 -148 40 C-146.77729046 39.03522379 -145.55463558 38.07037829 -144.33203125 37.10546875 C-141.40417712 34.79841927 -138.47029533 32.49924834 -135.53100586 30.20678711 C-134.12488619 29.09843923 -132.7390815 27.96444507 -131.35546875 26.828125 C-129.19150082 25.1486275 -127.103846 23.8391435 -124.6875 22.5625 C-121.84410331 21.02678657 -119.08509577 19.44699573 -116.375 17.6875 C-106.97968683 11.76639806 -97.28125615 6.86942729 -86.84375 3.08203125 C-84.44765914 2.17033184 -82.30313948 1.16700344 -80.0625 -0.0625 C-58.54311778 -11.15773241 -19.9291444 -15.9530134 0 0 Z M-70 35 C-71.33998047 35.46019531 -71.33998047 35.46019531 -72.70703125 35.9296875 C-109.53299246 49.47338602 -141.93793078 78.60205895 -167 108 C-168.19496094 109.37285156 -168.19496094 109.37285156 -169.4140625 110.7734375 C-201.22416789 148.20370285 -218.66824271 187.70192987 -221.55859375 236.91015625 C-222.42333139 251.44129427 -223.77617246 265.54275471 -228.3125 279.4375 C-228.58408936 280.27152344 -228.85567871 281.10554687 -229.13549805 281.96484375 C-232.9188885 292.64022203 -239.27111411 301.07806946 -249 307 C-257.2371541 309.74571803 -267.22211335 308.75275465 -275 305 C-285.76653825 299.47010487 -293.10974955 291.45094306 -299 281 C-299.37769531 280.35546875 -299.75539063 279.7109375 -300.14453125 279.046875 C-305.49198139 269.24676717 -308.13824374 258.36276616 -309.90649414 247.43701172 C-310.74342232 242.30016654 -311.77090216 237.2452405 -313 232.1875 C-313.15412354 231.52371338 -313.30824707 230.85992676 -313.46704102 230.17602539 C-314.38405381 226.50559485 -315.4807925 223.84126527 -318 221 C-327.38478078 223.99272039 -332.44009226 234.84500127 -337 243 C-337.60457031 244.01835937 -338.20914063 245.03671875 -338.83203125 246.0859375 C-352.72697651 270.10270648 -360.22303342 298.56063772 -360.25 326.1875 C-360.25100708 326.90108673 -360.25201416 327.61467346 -360.25305176 328.34988403 C-360.24183321 340.12260035 -359.46268722 351.46715955 -357 363 C-356.85546387 363.68384766 -356.71092773 364.36769531 -356.56201172 365.07226562 C-355.66096793 369.23522764 -354.66022267 373.36934952 -353.62402344 377.50048828 C-352.60571763 381.57928908 -351.61602131 385.66494991 -350.62817383 389.7512207 C-350.09534432 391.95510308 -349.55888067 394.15811088 -349.01831055 396.36010742 C-342.5473427 423.02252044 -345.95996424 445.30253718 -359 469 C-359.32371582 469.59377441 -359.64743164 470.18754883 -359.98095703 470.79931641 C-364.01868705 478.16247735 -368.38809847 485.30193927 -372.86450195 492.40405273 C-377.89567848 500.39117582 -382.79079946 508.4603862 -387.6796875 516.53515625 C-389.59886532 519.70434628 -391.53165401 522.86214463 -393.5078125 525.99609375 C-417.53615346 564.37199018 -429.20875436 607.03924885 -429.25 652.0625 C-429.25100708 652.83146606 -429.25201416 653.60043213 -429.25305176 654.3927002 C-429.24238074 666.47919799 -428.66335242 678.16694481 -426 690 C-425.85014648 690.67853027 -425.70029297 691.35706055 -425.54589844 692.05615234 C-416.55393118 731.50817004 -391.36725295 764.47195968 -359 788 C-357.77993584 788.90362953 -356.55988398 789.80727566 -355.33984375 790.7109375 C-349.78812837 794.78317979 -344.22178942 798.66608124 -338.11328125 801.87109375 C-335.82370244 803.09417744 -333.6416491 804.44176051 -331.4375 805.8125 C-316.27596221 814.97063385 -299.42887214 823.0641425 -282.5625 828.4375 C-279.2079726 829.51376691 -276.12497604 830.86506778 -272.95703125 832.40234375 C-267.14480157 835.06921134 -261.33874905 836.68220998 -255.125 838.125 C-254.0743335 838.37870361 -253.02366699 838.63240723 -251.94116211 838.89379883 C-245.50698856 840.44025022 -239.0549679 841.90526081 -232.59765625 843.3515625 C-230.16216226 843.9595204 -227.85910978 844.7100131 -225.5 845.5625 C-220.80366645 847.22002949 -216.04721497 847.84556719 -211.12890625 848.53515625 C-208.52184861 848.92247193 -206.00130252 849.39976311 -203.4375 850 C-196.97069783 851.50335253 -190.35541896 853.00794182 -183.69921875 852.9921875 C-181 853 -181 853 -180 854 C-168.82365775 856.36214963 -157.506273 857.39928475 -146.125 858.1875 C-144.32724121 858.31306274 -144.32724121 858.31306274 -142.49316406 858.44116211 C-135.59109679 858.88239666 -128.75109697 859.05913743 -121.83544922 858.9309082 C-119 859 -119 859 -116.63818359 859.49623108 C-114.00599611 859.99885503 -111.62993279 860.12690716 -108.95361328 860.12939453 C-107.97554718 860.13254669 -106.99748108 860.13569885 -105.98977661 860.13894653 C-104.94385345 860.1369223 -103.8979303 860.13489807 -102.8203125 860.1328125 C-101.73418671 860.13376923 -100.64806091 860.13472595 -99.52902222 860.13571167 C-97.23435407 860.13639133 -94.93968397 860.13455198 -92.64501953 860.13037109 C-89.14481245 860.12503023 -85.64473429 860.13031804 -82.14453125 860.13671875 C-79.91145805 860.13605773 -77.67838493 860.13477607 -75.4453125 860.1328125 C-73.88250046 860.13584885 -73.88250046 860.13584885 -72.28811646 860.13894653 C-67.07511493 860.12225341 -62.13984354 859.86308896 -57 859 C-55.2713076 858.95950355 -53.54113489 858.95711913 -51.8125 859 C-41.62895463 859.43282026 -41.62895463 859.43282026 -32 857 C-30.56249394 856.97958916 -29.12413346 857.00842051 -27.6875 857.0625 C-21.10317212 857.13939726 -12.9728641 856.98643205 -7 854 C-5.30089495 853.8230543 -3.60106521 853.65146807 -1.89892578 853.5065918 C19.01287664 851.6712106 42.95177174 847.8403385 62.53125 839.984375 C65.26906154 838.89271597 68.04097453 838.21728137 70.90234375 837.52734375 C85.18195181 833.93749815 98.74693449 827.9217057 112.24316406 822.1550293 C114.9016615 821.0412008 117.57804756 819.99051508 120.265625 818.94921875 C124.51214728 817.26309961 128.31883104 815.26658298 132.25 812.9375 C135.48481751 811.02502343 138.70631089 809.14591162 142.07421875 807.47265625 C145.04108985 805.97931793 147.77695574 804.30683952 150.5625 802.5 C153.16859234 800.81435729 155.76582686 799.13847738 158.4375 797.55859375 C173.44446743 788.43088033 186.95199762 776.72338768 199 764 C199.59941406 763.3709375 200.19882812 762.741875 200.81640625 762.09375 C210.15485755 751.86695414 217.43424132 740.12821042 224 728 C224.69029297 726.81277344 224.69029297 726.81277344 225.39453125 725.6015625 C228.41449078 720.13687383 230.29234491 714.38091011 232.125 708.4375 C232.36686035 707.66519043 232.6087207 706.89288086 232.85791016 706.09716797 C236.96105409 692.19597506 238.56096147 678.43472071 238.4375 664 C238.43343643 662.87262421 238.43343643 662.87262421 238.42929077 661.72247314 C238.2583196 630.18307671 230.11951021 601.01338547 215.5 573.125 C215.07420654 572.31200439 214.64841309 571.49900879 214.2097168 570.66137695 C211.00805204 564.65573034 207.50106497 558.90454401 203.8125 553.1875 C186.40049245 526.17133766 181.41890288 499.48032572 187.63525391 467.75830078 C189.56129934 458.90055862 191.5773541 450.01339978 194.52734375 441.43359375 C196.23179561 436.46779771 197.45234018 431.42659976 198.625 426.3125 C198.94984375 424.97541992 198.94984375 424.97541992 199.28125 423.61132812 C204.36096384 401.55220042 204.63540103 374.06199553 199 352 C198.82307617 351.30390625 198.64615234 350.6078125 198.46386719 349.890625 C196.16989592 341.20602221 193.38241446 332.30890706 188 325 C187.01 324.67 186.02 324.34 185 324 C184.58492187 324.71800781 184.16984375 325.43601562 183.7421875 326.17578125 C172.29808159 345.40092151 156.03052808 372.70032344 133.140625 379.625 C122.76981129 381.44178488 114.72884231 379.97777861 106 374 C94.30916335 364.21696592 89.7249909 348.57163365 88 334 C87.3419604 322.5567168 87.94902533 311.34044074 89.5 300 C95.10502704 257.68480457 92.14674153 213.41265282 65.84790039 178.1953125 C61.61104766 172.7270809 57.22913362 167.27849138 51 164 C50.34 164 49.68 164 49 164 C47.45100136 171.57976669 46.02001268 179.09120382 45.32861328 186.80322266 C44.07504903 200.71267534 40.71380207 215.28619793 30.5 225.5 C24.95417635 228.82749419 19.38231935 230.10912257 13 229 C-4.90296442 222.23976604 -14.22797763 207.77782383 -22 191 C-38.58584988 153.92474463 -38.43455221 109.52671116 -25.4375 71.33203125 C-24.20030964 67.69542939 -23.24662989 64.07148629 -22.4375 60.3125 C-21.75084515 57.13526653 -21.04901948 54.13480356 -19.9375 51.078125 C-18.82901167 47.43858831 -18.62770947 44.23882859 -18.5625 40.4375 C-18.52253906 39.15746094 -18.48257812 37.87742187 -18.44140625 36.55859375 C-19.14285204 32.0899426 -20.42346686 30.69368625 -24 28 C-38.95327464 23.20278357 -55.9925822 29.99063248 -70 35 Z " fill="#FEFEFE" transform="translate(517,184)"/>
<path d="M0 0 C3.79582743 2.48692142 6.83952073 5.7721371 10 9 C11.4478551 10.45058112 12.89719166 11.89968441 14.34765625 13.34765625 C16.66872565 15.66481854 18.98549927 17.98527635 21.28686523 20.32202148 C21.99657471 21.04075439 22.70628418 21.7594873 23.4375 22.5 C24.07558594 23.1496875 24.71367187 23.799375 25.37109375 24.46875 C26.93826827 26.08862344 26.93826827 26.08862344 29 27 C29 27.66 29 28.32 29 29 C29.598125 29.2475 30.19625 29.495 30.8125 29.75 C33.28647521 31.16370012 34.43370255 32.65055383 36 35 C39.245613 33.57925676 41.3626159 31.86237319 43.828125 29.33203125 C44.54613281 28.60306641 45.26414062 27.87410156 46.00390625 27.12304688 C46.74511719 26.36056641 47.48632812 25.59808594 48.25 24.8125 C53.09872575 19.84750818 57.98381428 15.04784773 63.25 10.52514648 C65.39608385 8.65480806 67.39515947 6.66948838 69.375 4.625 C72.78277154 1.10861423 72.78277154 1.10861423 75 0 C79.53518731 -0.04454997 83.08622248 0.41673775 86.9375 2.875 C89.7266026 5.74862086 90.9381389 7.33190017 91.3125 11.375 C90.69053523 18.58979136 85.61972847 22.64967222 80.70703125 27.48828125 C80.00100266 28.19147995 79.29497406 28.89467865 78.56755066 29.6191864 C76.32053349 31.85504518 74.06664831 34.08383316 71.8125 36.3125 C70.28404625 37.83091836 68.75604619 39.34979355 67.22851562 40.86914062 C63.49091739 44.58473609 59.74766198 48.29455684 56 52 C57.33576431 54.99539571 58.77214041 56.98419729 61.16455078 59.21704102 C61.80506378 59.82189835 62.44557678 60.42675568 63.10549927 61.04994202 C63.79513763 61.69475021 64.484776 62.33955841 65.1953125 63.00390625 C66.64848783 64.39767986 68.10026811 65.79290917 69.55078125 67.18945312 C71.8338184 69.38000102 74.1232963 71.56091229 76.43798828 73.71801758 C78.67471216 75.80870188 80.87404887 77.93335922 83.0703125 80.06640625 C83.76399933 80.69704483 84.45768616 81.32768341 85.1723938 81.97743225 C89.02475653 85.7855364 90.44004893 88.30691538 90.54638672 93.80444336 C90.38194553 97.425242 90.07566086 98.87215924 88.1875 102.0625 C84.55004439 105.2842464 82.10387104 106.57325881 77.16479492 106.44363403 C70.36770154 105.05069749 64.5721367 97.8492072 59.875 93.0703125 C59.24263428 92.43511688 58.61026855 91.79992126 57.95874023 91.14547729 C55.96768823 89.14335499 53.98375868 87.13434623 52 85.125 C50.63979067 83.75474385 49.27911757 82.38494791 47.91796875 81.015625 C44.60660142 77.68237208 41.30159651 74.34293006 38 71 C35.05594663 72.32623243 32.99518106 73.76213655 30.73193359 76.05688477 C29.81110489 76.9827816 29.81110489 76.9827816 28.87167358 77.92738342 C28.22050568 78.59201096 27.56933777 79.25663849 26.8984375 79.94140625 C26.22076324 80.62428207 25.54308899 81.3071579 24.84487915 82.01072693 C22.68344708 84.18995478 20.52882592 86.37575639 18.375 88.5625 C16.21317054 90.7519283 14.04990831 92.93989101 11.88369751 95.12498474 C10.5365137 96.48444561 9.19201179 97.8465703 7.85043335 99.21156311 C7.24285187 99.82567551 6.63527039 100.4397879 6.00927734 101.07250977 C5.47507172 101.61496841 4.94086609 102.15742706 4.39047241 102.71632385 C1.15021425 105.70771158 -2.31694421 105.32976471 -6.51953125 105.28125 C-10.06688108 104.87903081 -11.68718177 103.67419608 -14 101 C-16.17046385 97.44833188 -16.39628538 94.18009757 -15.70800781 90.07128906 C-12.94212208 81.97964266 -2.90030928 74.74747073 3.09936523 68.77026367 C4.82980137 67.04525287 6.5547449 65.31487572 8.27929688 63.58398438 C9.37988729 62.48405367 10.48078728 61.38443262 11.58203125 60.28515625 C12.09659378 59.76856949 12.61115631 59.25198273 13.14131165 58.71974182 C16.76998804 55.11500598 16.76998804 55.11500598 19 54 C17.68729086 51.09778672 16.28101018 49.03287708 14.0234375 46.79296875 C13.43908936 46.20990967 12.85474121 45.62685059 12.25268555 45.02612305 C11.63304932 44.41937744 11.01341309 43.81263184 10.375 43.1875 C9.42330933 42.24547729 9.42330933 42.24547729 8.45239258 41.28442383 C4.70516935 37.59852839 0.87811295 34.05638146 -3.12109375 30.64453125 C-5.43729657 28.61725186 -7.66366646 26.51624373 -9.875 24.375 C-10.61492187 23.66085937 -11.35484375 22.94671875 -12.1171875 22.2109375 C-14.95517444 18.87836362 -15.86427083 15.91617187 -16.5 11.625 C-15.8288294 6.75901315 -13.5570446 4.26216007 -10 1 C-6.59117297 -0.70441351 -3.63236701 -0.89118987 0 0 Z " fill="#5C5E5E" transform="translate(242,717)"/>
<path d="M0 0 C6.09035213 3.29448872 10.58192636 8.39507776 15.375 13.3125 C20.54633628 18.59465063 25.71492184 23.77428349 31.34423828 28.57128906 C33.33074824 30.2853935 35.18335088 32.10765716 37 34 C42.10894894 31.72935603 45.72407196 28.40390295 49.3125 24.1875 C52.20948778 20.79939198 55.27667619 17.94185508 58.67578125 15.0703125 C62.26436516 11.87375876 65.60605315 8.43554034 68.96362305 4.99902344 C73.79028648 0.09129913 73.79028648 0.09129913 78.3125 -0.25 C83.4552186 0.09865889 85.68432311 1.71988195 89.3125 5.25 C91.51655907 8.84179997 91.58324027 10.8444131 91 15 C87.45238487 21.94741295 81.10496714 27.19400938 75.265625 32.2265625 C70.81087661 36.1045153 66.64968155 40.23786858 62.5 44.4375 C61.77296875 45.16904297 61.0459375 45.90058594 60.296875 46.65429688 C58.52890501 48.43389824 56.76333622 50.21580918 55 52 C61.55274491 59.76498892 68.5325789 66.89812277 76.2734375 73.4921875 C77.93380486 74.94219158 79.53313669 76.35315346 81 78 C81 78.66 81 79.32 81 80 C81.59167969 80.25652344 82.18335938 80.51304687 82.79296875 80.77734375 C86.66409925 82.92188153 89.03130724 86.07600694 91 90 C91.46813652 93.27695562 91.14601254 95.8986774 90 99 C87.42131119 102.17377084 85.22106551 104.64263915 81.08203125 105.30859375 C76.53855952 105.56665669 73.77748468 105.3360583 70.25 102.3125 C69.14370107 101.23134422 68.06290193 100.12384814 67 99 C65.33558091 97.33108879 63.668525 95.66480626 62 94 C54.33333333 86.33333333 46.66666667 78.66666667 39 71 C36.11146395 72.30714894 34.06166038 73.69498254 31.83959961 75.94921875 C31.24896225 76.54323486 30.65832489 77.13725098 30.04978943 77.74926758 C29.11055382 78.70869263 29.11055382 78.70869263 28.15234375 79.6875 C27.49923721 80.34580811 26.84613068 81.00411621 26.17323303 81.68237305 C24.08984518 83.78355193 22.01326968 85.89129686 19.9375 88 C17.85730707 90.10782631 15.77567008 92.21417346 13.6910553 94.31762695 C12.39500923 95.62591167 11.10164581 96.93686058 9.81126404 98.25073242 C9.22377884 98.84474854 8.63629364 99.43876465 8.03100586 100.05078125 C7.25967567 100.83449097 7.25967567 100.83449097 6.47276306 101.6340332 C2.50054239 105.31821139 -0.38722302 105.42577096 -5.5546875 105.3203125 C-9.03107872 104.86493857 -10.69582526 103.59219658 -13 101 C-15.52013745 97.51981019 -15.36793894 94.19450396 -15 90 C-13.19283423 85.48208557 -9.75127935 82.95188022 -6.12109375 79.89453125 C-3.34157732 77.41190607 -0.98491273 74.66350192 1.4296875 71.83203125 C4.21889297 68.5779582 7.24411404 65.66469971 10.4609375 62.8359375 C11.36070312 62.04445313 12.26046875 61.25296875 13.1875 60.4375 C14.04730469 59.69371094 14.90710938 58.94992187 15.79296875 58.18359375 C17.8693492 56.12926336 18.79666303 54.60126623 20 52 C16.83760418 48.80823908 13.66931241 45.6223919 10.5 42.4375 C9.613125 41.54224609 8.72625 40.64699219 7.8125 39.72460938 C3.25218089 35.14752438 -1.3373393 30.69672728 -6.28344727 26.53662109 C-10.88122955 22.42078527 -14.83727286 18.48158881 -15.25 12.1875 C-15.17993472 7.35299539 -13.58349821 4.70079438 -10.3125 1.1875 C-6.94968556 -0.53935066 -3.64112001 -0.82281538 0 0 Z " fill="#5C5E5E" transform="translate(530,717)"/>
<path d="M0 0 C2.35609766 0.02918451 4.7099567 0.02049177 7.06616211 0.00756836 C22.76789321 0.03055532 39.50778757 1.51428555 51.65795898 12.46655273 C53.99964662 15.97908419 54.15419576 17.33124629 53.65795898 21.46655273 C50.17558126 27.82567727 43.9254191 29.41288146 37.40551758 31.51538086 C26.80866019 34.48866981 16.82416473 35.05648253 5.84838867 34.93310547 C3.0291077 34.90401299 0.21170301 34.91257506 -2.60766602 34.92553711 C-12.93421008 34.91291007 -22.33687605 34.21098338 -32.34204102 31.46655273 C-33.32454834 31.21244629 -34.30705566 30.95833984 -35.31933594 30.6965332 C-40.35601083 29.36388352 -44.25386024 27.71613233 -48.34204102 24.46655273 C-49.91659841 21.31743795 -49.6900322 18.94646458 -49.34204102 15.46655273 C-45.05430405 8.32032446 -38.3017438 5.58974974 -30.49389648 3.375 C-20.2536211 0.8638876 -10.53102945 -0.14173216 0 0 Z " fill="#5C5F5F" transform="translate(421.342041015625,852.533447265625)"/>
<path d="M0 0 C1.4800841 0.11362262 2.95910074 0.24122908 4.4375 0.375 C5.26121094 0.44460938 6.08492188 0.51421875 6.93359375 0.5859375 C7.95646484 0.79089844 7.95646484 0.79089844 9 1 C9.33 1.66 9.66 2.32 10 3 C3.375 4.125 3.375 4.125 0 3 C0 2.01 0 1.02 0 0 Z " fill="#616465" transform="translate(317,717)"/>
<path d="M0 0 C0.66 0.33 1.32 0.66 2 1 C0.92807816 2.3218362 -0.15802695 3.63217927 -1.25 4.9375 C-1.85328125 5.66839844 -2.4565625 6.39929688 -3.078125 7.15234375 C-5.10741134 9.10326334 -6.254407 9.61731779 -9 10 C-8.06409496 8.8944811 -7.12620142 7.79064547 -6.1875 6.6875 C-5.66542969 6.07261719 -5.14335938 5.45773437 -4.60546875 4.82421875 C-3.12827531 3.14575321 -1.59960869 1.56117966 0 0 Z " fill="#4F5254" transform="translate(602,719)"/>
<path d="M0 0 C0 3 0 3 -1.75 5.04296875 C-2.4925 5.75066406 -3.235 6.45835937 -4 7.1875 C-4.7425 7.90292969 -5.485 8.61835937 -6.25 9.35546875 C-6.8275 9.89816406 -7.405 10.44085937 -8 11 C-8 8 -8 8 -5.6875 5.5 C-4.800625 4.675 -3.91375 3.85 -3 3 C-2.401875 2.401875 -1.80375 1.80375 -1.1875 1.1875 C-0.795625 0.795625 -0.40375 0.40375 0 0 Z " fill="#525557" transform="translate(588,733)"/>
</svg>
