<svg xmlns="http://www.w3.org/2000/svg" width="853" height="1280"><path fill="#b9bcbd" d="M517 184a65.8 65.8 0 0 1 9 10v2h2q1.224 2.623 2.438 5.25l1.37 2.953c7.039 16.522 1.106 36.547-3.808 52.797-9.689 33.194-13.222 67.16 0 100l.77-2.93c.894-3.393 1.805-6.781 2.722-10.168.424-1.587.83-3.18 1.23-4.773 1.714-6.414 4.561-11.644 8.278-17.129.39-.59.781-1.178 1.184-1.785 3.37-4.56 7.455-7.517 12.816-9.215 10.66-1.31 19.468-.26 29 5l2.512 1.375c2.238 1.313 2.238 1.313 5.488 3.625v2l1.691.707c7.25 4.06 12.703 11.528 17.309 18.293l2 1a106 106 0 0 1 3 5q1.167 1.965 2.34 3.926l2.597 4.387 1.303 2.185c4.287 7.253 7.934 14.522 10.822 22.44l.737 1.974c6.809 18.405 9.875 35.81 9.668 55.469-.03 2.985-.021 5.97-.008 8.955-.014 11.797-.993 23.165-2.753 34.825-.857 5.686-1.31 11.344-1.519 17.089l-.154 2.77c-.258 6.142.086 12.083 1.967 17.98 1.865 2.281 1.865 2.281 4.813 2.313 3.677-.361 5.205-1.162 8.187-3.313 2.133-2.676 2.133-2.676 4-5.75l2.074-3.238L662 507c.926-1.32 1.86-2.635 2.813-3.937 2.131-2.896 2.131-2.896 3.59-5.415 6.306-10.454 12.612-19.045 24.495-22.957 11.445-2.55 20.454-.746 30.102 5.372 2.313 1.535 2.313 1.535 4 2.937v2l1.754.66c7.7 4.593 12.016 16.295 15.246 24.34.347.848.694 1.696 1.05 2.57 11.758 30.414 13.472 70.097 4.723 101.582-.83 3.057-1.462 6.118-2.086 9.223-1.29 6.163-2.925 12.189-4.625 18.25-9.247 31.521-9.247 31.521-2.062 62.375l1.073 1.928c4.625 8.26 9.645 16.253 14.808 24.185 3.337 5.154 6.296 10.438 9.119 15.887l1.64 3.055c8.212 15.72 14.452 32.643 18.36 49.945l.594 2.585c8.284 37.775 5.557 80.914-10.583 116.203a218 218 0 0 0-1.958 4.41c-2.549 5.912-5.505 11.543-8.615 17.177l-1.46 2.691-1.42 2.582-1.271 2.318C760 949 760 949 758.403 950.584c-1.669 1.475-1.669 1.475-2.403 4.416h-2l-.719 2.18c-1.484 3.266-3.326 5.339-5.781 7.945-2.414 2.58-4.537 4.931-6.5 7.875h-2l-.746 1.73c-3.855 6.978-11.182 12.217-17.504 16.86-1.873 1.309-1.873 1.309-2.75 3.41l-3 1-2.187 2.25c-2.823 2.76-5.557 4.575-8.946 6.54-1.903 1.234-3.272 2.607-4.867 4.21a87 87 0 0 1-4.062 2.688c-.693.436-1.385.873-2.098 1.324-1.84.988-1.84.988-3.84.988v2l-1.406.777-2.094 1.16-2.516 1.391a496 496 0 0 0-6.406 3.656c-14.753 8.527-29.985 15.987-46.039 21.727-3.134 1.142-6.17 2.392-9.226 3.726-25.663 10.736-53.928 17.896-81.313 22.563l-2.18.38c-10.546 1.818-21.153 3.246-31.758 4.682l-3.603.493c-16.842 2.24-33.505 3.765-50.502 3.816l-5.302.033c-5.614.03-11.228.033-16.842.034l-2.892.003c-34.794.036-69.206-.954-103.439-7.794-3.508-.652-7-1.116-10.545-1.522-6.75-.851-13.351-2.181-20-3.625l-2.994-.648c-4.756-1.056-9.335-2.255-13.943-3.852a100 100 0 0 0-4.25-.812c-5.012-.959-9.9-2.26-14.812-3.626l-2.253-.622c-8.207-2.306-16.196-5.06-24.123-8.19l-4.695-1.844-2.415-.949a959 959 0 0 0-7.444-2.863l-2.448-.937q-2.315-.885-4.634-1.76c-3.91-1.502-7.344-3.205-10.926-5.397a613 613 0 0 0-7-3c-12.996-6.077-25.839-12.767-37.469-21.2-3.993-2.84-8.133-5.457-12.258-8.1L139 1002v-2l-1.664-.234c-3.184-1.044-5.158-2.857-7.711-5.016l-2.937-2.469L124 990q-1.686-1.377-3.375-2.75c-2.686-2.302-5.13-4.741-7.625-7.25q-1.507-1.475-3.016-2.945C95.35 962.714 82.064 946.488 73 928l-1.43-2.719C65.39 913.388 61.487 900.905 58 888l-.809-2.809C46.647 846.673 50.071 804.982 61 767l.732-2.57c7.384-25.783 7.384-25.783 11.725-32.778 1.628-2.798 2.662-5.547 3.757-8.582 1.253-3.3 2.815-6.424 4.411-9.57l1.045-2.072c16.972-33.316 16.972-33.316 28.33-46.803 2.468-3.239 4.255-6.677 6.16-10.27 1.782-3.25 3.663-6.417 5.578-9.59 14.653-24.365 14.355-42.327 7.698-69.23-4.656-18.827-7.975-37.13-8.436-56.535l-.066-2.78c-.24-11.943-.02-23.433 2.066-35.22l.625-3.906c1.604-9.654 4.194-18.85 7.375-28.094l.88-2.589c5.312-15.516 11.697-29.78 19.995-43.911l1.156-1.982c.931-1.543 1.943-3.037 2.969-4.518h2l.688-2.187c1.585-3.399 3.573-5.265 6.312-7.813l2.188-2.312c10.442-9.979 18.59-15.336 33.137-15.234 7.88.312 13.201 2.734 19.3 7.671 5.897 7.139 11.176 14.13 14.375 22.875l1.02 2.734c2.286 6.475 3.824 12.954 5.207 19.672C243.86 435.208 243.86 435.208 251 447c2.659 1.122 2.659 1.122 5 1 1.63-5.83 2.398-11.275 2.71-17.309l.33-5.418.164-2.83c.797-13.438 1.633-26.832 3.796-40.13l.466-2.903c.96-5.443 2.488-10.279 4.534-15.41l.875-3.687c3.269-13.66 10.05-27.259 17.125-39.313l1.19-2.047q1.899-3.261 3.81-6.515l1.29-2.21c5.03-8.57 5.03-8.57 7.71-12.228h2l.785-2.187C307.125 285.764 315.89 277.232 323 269l1.766-2.11c5.476-6.471 11.599-12.35 17.63-18.298a406 406 0 0 0 4.397-4.451C349 242 349 242 351.187 240.938c2.342-1.211 2.854-2.54 3.813-4.938h2l1-3c2.012-1.875 2.012-1.875 4.688-4l2.988-2.387q1.66-1.308 3.324-2.613l3.668-2.895q4.392-3.46 8.801-6.898a268 268 0 0 0 4.176-3.379c2.163-1.68 4.251-2.989 6.668-4.266 2.843-1.535 5.602-3.115 8.312-4.875 9.395-5.92 19.094-10.818 29.531-14.605a53 53 0 0 0 6.781-3.144c21.52-11.096 60.134-15.891 80.063.062"/><path fill="#d6d7d8" d="m396.605 631.832 7.86-.01q8.198-.009 16.396-.007 8.292 0 16.583-.02C538.557 631.543 538.557 631.543 575 644l2.086.71c15.083 5.28 28.48 13.33 40.914 23.29l2.727 2.11C638.042 683.781 651.275 700.445 663 719l1.262 1.979C671.51 732.452 677.006 744.398 682 757l.989 2.479c14.309 36.23 21.07 77.377 6.198 114.708A208 208 0 0 1 686 881l-.886 1.859C674.444 905.053 656.53 924.569 636 938l-2.402 1.633C617.189 950.504 599.38 958.14 581 965l-2.416.906c-33.003 12.174-68.666 17.424-103.542 20.8-2.103.193-2.103.193-4.042 1.294-2.154.102-4.311.138-6.468.145l-2.017.01q-3.33.013-6.66.013l-4.693.01q-4.954.009-9.909.007-4.993 0-9.986.02c-18.876.078-37.568-.218-56.387-1.774-4.982-.405-9.883-.514-14.88-.431v-2l-3.139-.129c-10.272-.477-20.241-1.636-30.361-3.433-.74-.13-1.481-.26-2.245-.392C277.495 971.833 227.204 958.399 191 926v-2l-1.625-.625c-3.295-1.908-5.969-4.423-8.375-7.375v-2l-1.815-.78c-3.826-2.137-5.922-5.77-8.435-9.283l-1.742-2.426c-5.41-7.741-9.422-15.8-13.008-24.511l-1.23-2.84c-10.92-27.15-9.15-56.28-2.77-84.16l.565-2.54c1.82-8.12 4.04-15.853 7.435-23.46q.859-2.005 1.715-4.012c7.438-17.27 15.987-32.93 27.285-47.988l1.415-1.895c32.34-43.017 74.958-67.016 127.98-74.744 6.756-.936 13.282-1.49 20.105-1.361 2.506.045 4.992.048 7.5 0l1-1c3.118-.246 6.213-.423 9.337-.552l2.974-.127c12.428-.486 24.858-.485 37.294-.489"/><path fill="#fefefe" d="M517 184a65.8 65.8 0 0 1 9 10v2h2q1.224 2.623 2.438 5.25l1.37 2.953c7.039 16.522 1.106 36.547-3.808 52.797-9.689 33.194-13.222 67.16 0 100l.77-2.93c.894-3.393 1.805-6.781 2.722-10.168.424-1.587.83-3.18 1.23-4.773 1.714-6.414 4.561-11.644 8.278-17.129.39-.59.781-1.178 1.184-1.785 3.37-4.56 7.455-7.517 12.816-9.215 10.66-1.31 19.468-.26 29 5l2.512 1.375c2.238 1.313 2.238 1.313 5.488 3.625v2l1.691.707c7.25 4.06 12.703 11.528 17.309 18.293l2 1a106 106 0 0 1 3 5q1.167 1.965 2.34 3.926l2.597 4.387 1.303 2.185c4.287 7.253 7.934 14.522 10.822 22.44l.737 1.974c6.809 18.405 9.875 35.81 9.668 55.469-.03 2.985-.021 5.97-.008 8.955-.014 11.797-.993 23.165-2.753 34.825-.857 5.686-1.31 11.344-1.519 17.089l-.154 2.77c-.258 6.142.086 12.083 1.967 17.98 1.865 2.281 1.865 2.281 4.813 2.313 3.677-.361 5.205-1.162 8.187-3.313 2.133-2.676 2.133-2.676 4-5.75l2.074-3.238L662 507c.926-1.32 1.86-2.635 2.813-3.937 2.131-2.896 2.131-2.896 3.59-5.415 6.306-10.454 12.612-19.045 24.495-22.957 11.445-2.55 20.454-.746 30.102 5.372 2.313 1.535 2.313 1.535 4 2.937v2l1.754.66c7.7 4.593 12.016 16.295 15.246 24.34.347.848.694 1.696 1.05 2.57 11.758 30.414 13.472 70.097 4.723 101.582-.83 3.057-1.462 6.118-2.086 9.223-1.29 6.163-2.925 12.189-4.625 18.25-9.247 31.521-9.247 31.521-2.062 62.375l1.073 1.928c4.625 8.26 9.645 16.253 14.808 24.185 3.337 5.154 6.296 10.438 9.119 15.887l1.64 3.055c8.212 15.72 14.452 32.643 18.36 49.945l.594 2.585c8.284 37.775 5.557 80.914-10.583 116.203a218 218 0 0 0-1.958 4.41c-2.549 5.912-5.505 11.543-8.615 17.177l-1.46 2.691-1.42 2.582-1.271 2.318C760 949 760 949 758.403 950.584c-1.669 1.475-1.669 1.475-2.403 4.416h-2l-.719 2.18c-1.484 3.266-3.326 5.339-5.781 7.945-2.414 2.58-4.537 4.931-6.5 7.875h-2l-.746 1.73c-3.855 6.978-11.182 12.217-17.504 16.86-1.873 1.309-1.873 1.309-2.75 3.41l-3 1-2.187 2.25c-2.823 2.76-5.557 4.575-8.946 6.54-1.903 1.234-3.272 2.607-4.867 4.21a87 87 0 0 1-4.062 2.688c-.693.436-1.385.873-2.098 1.324-1.84.988-1.84.988-3.84.988v2l-1.406.777-2.094 1.16-2.516 1.391a496 496 0 0 0-6.406 3.656c-14.753 8.527-29.985 15.987-46.039 21.727-3.134 1.142-6.17 2.392-9.226 3.726-25.663 10.736-53.928 17.896-81.313 22.563l-2.18.38c-10.546 1.818-21.153 3.246-31.758 4.682l-3.603.493c-16.842 2.24-33.505 3.765-50.502 3.816l-5.302.033c-5.614.03-11.228.033-16.842.034l-2.892.003c-34.794.036-69.206-.954-103.439-7.794-3.508-.652-7-1.116-10.545-1.522-6.75-.851-13.351-2.181-20-3.625l-2.994-.648c-4.756-1.056-9.335-2.255-13.943-3.852a100 100 0 0 0-4.25-.812c-5.012-.959-9.9-2.26-14.812-3.626l-2.253-.622c-8.207-2.306-16.196-5.06-24.123-8.19l-4.695-1.844-2.415-.949a959 959 0 0 0-7.444-2.863l-2.448-.937q-2.315-.885-4.634-1.76c-3.91-1.502-7.344-3.205-10.926-5.397a613 613 0 0 0-7-3c-12.996-6.077-25.839-12.767-37.469-21.2-3.993-2.84-8.133-5.457-12.258-8.1L139 1002v-2l-1.664-.234c-3.184-1.044-5.158-2.857-7.711-5.016l-2.937-2.469L124 990q-1.686-1.377-3.375-2.75c-2.686-2.302-5.13-4.741-7.625-7.25q-1.507-1.475-3.016-2.945C95.35 962.714 82.064 946.488 73 928l-1.43-2.719C65.39 913.388 61.487 900.905 58 888l-.809-2.809C46.647 846.673 50.071 804.982 61 767l.732-2.57c7.384-25.783 7.384-25.783 11.725-32.778 1.628-2.798 2.662-5.547 3.757-8.582 1.253-3.3 2.815-6.424 4.411-9.57l1.045-2.072c16.972-33.316 16.972-33.316 28.33-46.803 2.468-3.239 4.255-6.677 6.16-10.27 1.782-3.25 3.663-6.417 5.578-9.59 14.653-24.365 14.355-42.327 7.698-69.23-4.656-18.827-7.975-37.13-8.436-56.535l-.066-2.78c-.24-11.943-.02-23.433 2.066-35.22l.625-3.906c1.604-9.654 4.194-18.85 7.375-28.094l.88-2.589c5.312-15.516 11.697-29.78 19.995-43.911l1.156-1.982c.931-1.543 1.943-3.037 2.969-4.518h2l.688-2.187c1.585-3.399 3.573-5.265 6.312-7.813l2.188-2.312c10.442-9.979 18.59-15.336 33.137-15.234 7.88.312 13.201 2.734 19.3 7.671 5.897 7.139 11.176 14.13 14.375 22.875l1.02 2.734c2.286 6.475 3.824 12.954 5.207 19.672C243.86 435.208 243.86 435.208 251 447c2.659 1.122 2.659 1.122 5 1 1.63-5.83 2.398-11.275 2.71-17.309l.33-5.418.164-2.83c.797-13.438 1.633-26.832 3.796-40.13l.466-2.903c.96-5.443 2.488-10.279 4.534-15.41l.875-3.687c3.269-13.66 10.05-27.259 17.125-39.313l1.19-2.047q1.899-3.261 3.81-6.515l1.29-2.21c5.03-8.57 5.03-8.57 7.71-12.228h2l.785-2.187C307.125 285.764 315.89 277.232 323 269l1.766-2.11c5.476-6.471 11.599-12.35 17.63-18.298a406 406 0 0 0 4.397-4.451C349 242 349 242 351.187 240.938c2.342-1.211 2.854-2.54 3.813-4.938h2l1-3c2.012-1.875 2.012-1.875 4.688-4l2.988-2.387q1.66-1.308 3.324-2.613l3.668-2.895q4.392-3.46 8.801-6.898a268 268 0 0 0 4.176-3.379c2.163-1.68 4.251-2.989 6.668-4.266 2.843-1.535 5.602-3.115 8.312-4.875 9.395-5.92 19.094-10.818 29.531-14.605a53 53 0 0 0 6.781-3.144c21.52-11.096 60.134-15.891 80.063.062m-70 35-2.707.93C407.467 233.473 375.063 262.602 350 292l-2.414 2.773c-31.81 37.43-49.254 76.929-52.145 126.137-.864 14.531-2.217 28.633-6.753 42.527l-.823 2.528C284.08 476.64 277.729 485.078 268 491c-8.237 2.746-18.222 1.753-26-2-10.767-5.53-18.11-13.55-24-24-.378-.645-.755-1.29-1.145-1.953-5.347-9.8-7.993-20.684-9.761-31.61a202 202 0 0 0-3.094-15.25l-.467-2.011c-.917-3.67-2.014-6.335-4.533-9.176-9.385 2.993-14.44 13.845-19 22l-1.832 3.086c-13.895 24.017-21.391 52.475-21.418 80.101l-.003 2.163c.011 11.773.79 23.117 3.253 34.65l.438 2.072c.901 4.163 1.902 8.297 2.938 12.428 1.018 4.08 2.008 8.165 2.996 12.251q.8 3.306 1.61 6.61c6.47 26.662 3.058 48.942-9.982 72.639l-.981 1.8c-4.038 7.362-8.407 14.502-12.884 21.604-5.03 7.987-9.926 16.056-14.815 24.131a614 614 0 0 1-5.828 9.461c-24.028 38.376-35.7 81.043-35.742 126.067l-.003 2.33c.01 12.086.59 23.774 3.253 35.607l.454 2.056C100.446 915.508 125.633 948.472 158 972l3.66 2.71c5.552 4.073 11.118 7.956 17.227 11.161 2.29 1.223 4.471 2.57 6.676 3.942 15.161 9.158 32.008 17.251 48.875 22.625 3.354 1.076 6.437 2.427 9.605 3.964 5.812 2.667 11.618 4.28 17.832 5.723l3.184.769c6.434 1.546 12.886 3.011 19.343 4.458 2.436.608 4.739 1.358 7.098 2.21 4.696 1.658 9.453 2.284 14.371 2.973a94 94 0 0 1 7.692 1.465c6.466 1.503 13.082 3.008 19.738 2.992C336 1037 336 1037 337 1038c11.176 2.362 22.494 3.4 33.875 4.188l3.632.253c6.902.441 13.742.618 20.658.49 2.835.069 2.835.069 5.197.565 2.632.503 5.008.63 7.684.633l2.964.01 3.17-.006 3.291.003q3.443 0 6.884-.006c3.5-.005 7 0 10.5.007q3.35 0 6.7-.004l3.157.006c5.213-.017 10.148-.276 15.288-1.139a108 108 0 0 1 5.188 0c10.183.433 10.183.433 19.812-2a83 83 0 0 1 4.313.063c6.584.076 14.714-.077 20.687-3.063 1.7-.177 3.399-.349 5.101-.493 20.912-1.836 44.85-5.667 64.43-13.523 2.738-1.091 5.51-1.767 8.371-2.457 14.28-3.59 27.845-9.605 41.341-15.372a318 318 0 0 1 8.023-3.206c4.246-1.686 8.053-3.682 11.984-6.011 3.235-1.913 6.456-3.792 9.824-5.465 2.967-1.494 5.703-3.166 8.489-4.973 2.606-1.686 5.203-3.362 7.875-4.941C690.444 972.43 703.952 960.723 716 948l1.816-1.906C727.155 935.867 734.434 924.128 741 912l1.395-2.398c3.02-5.465 4.897-11.221 6.73-17.164l.733-2.34c4.103-13.902 5.703-27.663 5.58-42.098l-.009-2.278c-.17-31.539-8.31-60.709-22.929-88.597l-1.29-2.464c-3.202-6.005-6.709-11.756-10.398-17.473-17.412-27.017-22.393-53.708-16.177-85.43 1.926-8.857 3.942-17.745 6.892-26.324 1.705-4.966 2.925-10.007 4.098-15.121l.656-2.702c5.08-22.059 5.354-49.549-.281-71.611l-.536-2.11c-2.294-8.683-5.082-17.58-10.464-24.89l-3-1-1.258 2.176c-11.444 19.225-27.711 46.524-50.601 53.449-10.371 1.817-18.412.353-27.141-5.625-11.69-9.783-16.275-25.428-18-40-.658-11.443-.051-22.66 1.5-34 5.605-42.315 2.647-86.587-23.652-121.805-4.237-5.468-8.619-10.917-14.848-14.195h-2c-1.549 7.58-2.98 15.091-3.671 22.803-1.254 13.91-4.615 28.483-14.829 38.697-5.546 3.327-11.118 4.61-17.5 3.5-17.903-6.76-27.228-21.222-35-38-16.586-37.075-16.435-81.473-3.437-119.668 1.237-3.637 2.19-7.26 3-11.02.686-3.177 1.388-6.177 2.5-9.234 1.108-3.64 1.31-6.84 1.375-10.64l.12-3.88c-.7-4.468-1.981-5.864-5.558-8.558-14.953-4.797-31.993 1.99-46 7"/><path fill="#5c5e5e" d="M242 717c3.796 2.487 6.84 5.772 10 9q2.172 2.176 4.348 4.348a1201 1201 0 0 1 6.939 6.974c.71.719 1.42 1.437 2.15 2.178l1.934 1.969c1.567 1.62 1.567 1.62 3.629 2.531v2l1.813.75c2.473 1.414 3.62 2.9 5.187 5.25 3.246-1.42 5.363-3.138 7.828-5.668l2.176-2.209 2.246-2.31c4.849-4.965 9.734-9.765 15-14.288 2.146-1.87 4.145-3.856 6.125-5.9 3.408-3.516 3.408-3.516 5.625-4.625 4.535-.045 8.086.417 11.938 2.875 2.789 2.874 4 4.457 4.375 8.5-.622 7.215-5.693 11.275-10.606 16.113l-2.14 2.131q-3.37 3.352-6.755 6.693l-4.583 4.557Q303.622 763.443 298 769c1.336 2.995 2.772 4.984 5.165 7.217l1.94 1.833 2.09 1.954q2.18 2.091 4.356 4.185a652 652 0 0 0 6.887 6.529 480 480 0 0 1 6.632 6.348l2.102 1.911c3.853 3.809 5.268 6.33 5.374 11.827-.164 3.621-.47 5.068-2.358 8.259-3.638 3.221-6.084 4.51-11.023 4.38-6.797-1.392-12.593-8.594-17.29-13.373l-1.916-1.925a2330 2330 0 0 1-5.959-6.02l-4.082-4.11A4816 4816 0 0 1 280 788c-2.944 1.326-5.005 2.762-7.268 5.057l-1.86 1.87-1.974 2.014-2.053 2.07a2498 2498 0 0 0-6.47 6.552q-3.242 3.284-6.491 6.562-2.02 2.04-4.034 4.087l-1.84 1.86-1.62 1.644c-3.24 2.992-6.707 2.614-10.91 2.565-3.547-.402-5.167-1.607-7.48-4.281-2.17-3.552-2.396-6.82-1.708-10.929 2.766-8.091 12.808-15.324 18.807-21.3q2.594-2.59 5.18-5.187l3.303-3.299 1.56-1.565c3.628-3.605 3.628-3.605 5.858-4.72-1.313-2.902-2.719-4.967-4.977-7.207l-1.77-1.767-1.878-1.838-1.923-1.904c-3.747-3.685-7.574-7.228-11.573-10.64-2.316-2.027-4.543-4.128-6.754-6.269l-2.242-2.164c-2.838-3.333-3.747-6.295-4.383-10.586.671-4.866 2.943-7.363 6.5-10.625 3.409-1.704 6.368-1.891 10-1m288 0c6.09 3.294 10.582 8.395 15.375 13.313 5.171 5.282 10.34 10.461 15.97 15.258 1.986 1.714 3.838 3.537 5.655 5.429 5.109-2.27 8.724-5.596 12.313-9.812 2.896-3.389 5.964-6.246 9.363-9.118 3.588-3.196 6.93-6.634 10.288-10.071 4.826-4.908 4.826-4.908 9.348-5.249 5.143.349 7.372 1.97 11 5.5 2.205 3.592 2.271 5.594 1.688 9.75-3.548 6.947-9.895 12.194-15.734 17.227-4.455 3.878-8.616 8.01-12.766 12.21l-2.203 2.217q-2.652 2.67-5.297 5.346c6.553 7.765 13.533 14.898 21.273 21.492 1.66 1.45 3.26 2.861 4.727 4.508v2l1.793.777c3.871 2.145 6.238 5.299 8.207 9.223.468 3.277.146 5.899-1 9-2.579 3.174-4.779 5.643-8.918 6.309-4.543.258-7.305.027-10.832-2.996A118 118 0 0 1 597 816a2871 2871 0 0 0-5-5l-23-23c-2.889 1.307-4.938 2.695-7.16 4.95-.591.593-1.182 1.187-1.79 1.8l-1.898 1.938-1.979 1.994q-3.123 3.155-6.236 6.318a4231 4231 0 0 1-6.246 6.318q-1.945 1.962-3.88 3.933l-1.78 1.8-1.558 1.583c-3.972 3.684-6.86 3.792-12.028 3.686-3.476-.455-5.14-1.728-7.445-4.32-2.52-3.48-2.368-6.805-2-11 1.807-4.518 5.249-7.048 8.879-10.105 2.78-2.483 5.136-5.231 7.55-8.063 2.79-3.254 5.815-6.167 9.032-8.996l2.726-2.399 2.606-2.253c2.076-2.055 3.004-3.583 4.207-6.184q-4.744-4.787-9.5-9.562l-2.687-2.713c-4.56-4.577-9.15-9.028-14.096-13.188-4.598-4.116-8.554-8.055-8.967-14.35.07-4.834 1.667-7.486 4.938-11 3.362-1.726 6.67-2.01 10.312-1.187"/><path fill="#5c5f5f" d="M421.342 852.533c2.356.03 4.71.02 7.066.008 15.702.023 32.442 1.507 44.592 12.459 2.342 3.513 2.496 4.865 2 9-3.482 6.36-9.733 7.946-16.252 10.049-10.597 2.973-20.582 3.54-31.558 3.418a554 554 0 0 0-8.456-.008c-10.326-.013-19.729-.715-29.734-3.459l-2.977-.77c-5.037-1.333-8.935-2.98-13.023-6.23-1.575-3.15-1.348-5.52-1-9 4.288-7.146 11.04-9.877 18.848-12.092 10.24-2.51 19.963-3.516 30.494-3.375"/><path fill="#616465" d="M317 717q2.22.173 4.438.375c.823.07 1.647.14 2.496.21L326 718l1 2c-6.625 1.125-6.625 1.125-10 0z"/><path fill="#4f5254" d="m602 719 2 1a335 335 0 0 1-3.25 3.938l-1.828 2.214c-2.03 1.951-3.176 2.465-5.922 2.848q1.404-1.659 2.813-3.312l1.582-1.864A88 88 0 0 1 602 719"/><path fill="#525557" d="M588 733c0 3 0 3-1.75 5.043l-2.25 2.144-2.25 2.168L580 744c0-3 0-3 2.313-5.5L585 736l1.813-1.812z"/></svg>