<?xml version="1.0" encoding="UTF-8"?>
<svg id="_Слой_1" data-name="Слой_1" xmlns="http://www.w3.org/2000/svg" version="1.1" viewBox="0 0 150 150">
  <!-- Generator: Adobe Illustrator 29.8.1, SVG Export Plug-In . SVG Version: 2.1.1 Build 2)  -->
  <defs>
    <style>
      .st0 {
        fill: #454241;
      }
    </style>
  </defs>
  <path class="st0" d="M97.12,70.06l-.62-.85-.69-.44-.93-.32-.83-.09h-15.35s1.58-11,1.58-11l1.26-8.76v-2.39l-.6-.98-.75-.56-1.26-.33h-.18l-.46-.07-.4.07-.72.78c-.23.14-.43.34-.57.61,0,0,0,.01,0,.02l-.6.66-2.62,3.63-3.44,4.61-3.47,4.6-3.44,4.75-3.44,4.39-3.44,4.69-2.6,3.73-.88,1.54v.99l.53,1.4,1.3.8,1.65.23h12.92l-.65,20.29.05,2.29.8.89,1,.5h.85l1.15-.22.75-.75,1.05-1.5,2.6-3.55,3.62-4.87,3.43-4.65,3.46-4.71,3.43-4.67,3.44-4.69,3.15-4.46.12-.67-.2-.93h0Z"/>
</svg>