<svg xmlns="http://www.w3.org/2000/svg" width="1024" height="1536"><path fill="#f48c0e" d="M577 170h2v2l24-1-1 2a603 603 0 0 0 5.688 2.5l3.199 1.406c2.97 1.044 5.005 1.325 8.113 1.094l-1 2c.96.96 2 1.84 3.04 2.715C634.72 194.475 641.27 208.14 643 226c1.08 20.327-6.092 40.6-11.732 59.848-10.892 37.285-12.62 72.896-.268 110.152l3-2 1 4 .078-1.844c1.183-18.285 7.04-40.695 20.817-53.558 10.373-7.872 21.547-10.466 34.324-9.258 23.2 4.05 42.674 21.27 56.12 39.902 29.929 44.263 33.38 98.792 30.017 150.598-.46 7.305-.54 14.59-.543 21.91l-.038 3.918c-.258 16.58-.258 16.58 6.225 31.332 1.855 1.402 1.855 1.402 4 1 3.122-2.081 4.911-3.867 7-7l2.188-2.125c5.94-5.89 10.403-12.715 14.75-19.812 3.935-6.411 8.076-12.406 13.062-18.063l1.7-1.95c6.73-7.232 15.333-12.552 25.304-13.265 12.813-.371 22.576 4.026 32.996 11.215 2.8 2.755 4.878 5.707 7 9l1.688 2.266C900.703 554.42 906.514 567.645 911 582l1.152 3.602c13.193 44.903 6.29 94.52-7.152 138.398q-.925 3.054-1.847 6.109a7326 7326 0 0 1-4.586 15.126C894.05 760.051 894.05 760.051 890 775l-.96 3.574c-7.702 33.241.872 62.195 17.96 90.426 1.51 2.416 3.034 4.823 4.558 7.231C919.874 889.403 927.098 903.04 934 917l1.148 2.306c9.648 19.663 15.491 41.502 19.457 62.971l.52 2.785.383 2.286L956 989l2 1v2h-2l.184 1.813c4.17 41.756-1.5 82.197-17.184 121.187l-1.077 2.706c-12.95 32.179-32.608 60.588-56.518 85.6-3.059 3.082-3.059 3.082-5.405 6.694h-2l-2 4h-2l-1 3c-1.707 1.754-1.707 1.754-3.812 3.563l-2.083 1.816c-1.97 1.517-3.845 2.6-6.105 3.621v2a126 126 0 0 1-6.187 5l-1.927 1.484q-1.98 1.525-3.967 3.043a498 498 0 0 0-5.18 4.035c-21.92 17.163-45.6 32.253-70.64 44.413a613 613 0 0 0-6.177 3.072c-39.655 19.643-82.983 33.252-126.27 42.055l-2.649.54q-2.52.508-5.045.992c-4.418.785-4.418.785-7.958 3.366-2.562.188-2.562.188-5 0l-1-1c-2.682.26-5.322.584-7.988.96l-2.466.334c-2.62.355-5.24.718-7.859 1.081-27.918 3.846-27.918 3.846-40.437 3.688l-2.148-.014q-2.552-.02-5.102-.049v3h-25v-1h-41v-1l-3.424-.288c-19.57-1.661-39.1-3.373-58.514-6.4l-2.109-.327c-11.633-1.826-11.633-1.826-15.953-2.985v2l-2-1 1-2-3.777-.219c-8.745-.874-17.258-3.232-25.786-5.281q-3.93-.944-7.866-1.875a768 768 0 0 1-4.862-1.165 85 85 0 0 0-13.863-2.117C344 1320 344 1320 342 1318a138 138 0 0 0-7.113-2.32l-4.44-1.36c-.777-.235-1.554-.47-2.354-.714-14.259-4.336-28.294-8.957-42.093-14.606l-2.91-1.168c-27.403-11.037-54.345-23.85-78.559-40.906-1.518-1.098-1.518-1.098-3.531-.926a446 446 0 0 1-5-5c-2.153-1.823-4.382-3.54-6.625-5.25l-1.734-1.352c-2.537-1.946-4.585-3.38-7.641-4.398a236 236 0 0 1-3.473-4.242c-3.617-4.164-7.95-7.706-12.527-10.758v-2l-1.875-.75c-2.476-1.456-3.076-2.628-4.125-5.25h-2c-1.34-1.293-1.34-1.293-2.937-3.187l-1.883-2.22L149 1209l-2.555-2.969C108 1161.298 108 1161.298 108 1150l-3-1v-3a181 181 0 0 0-3.75-7.625c-2.328-4.535-4.6-9.04-6.562-13.75-1.387-3.8-1.387-3.8-4.688-5.625v-3l-2-1 .676-2.004c.444-4.102-.958-7.211-2.489-10.934l-1.644-4.152-.803-2.007c-1.012-2.603-1.885-5.245-2.74-7.903l-1-3c-.92-4.132-1.731-8.287-2.562-12.437l-.71-3.471c-.22-1.102-.442-2.203-.67-3.338l-.615-3.053C75 1060 75 1060 75 1056l-2-1c-.377-2.259-.377-2.259-.559-5.238l-.222-3.304L72 1043q-.262-3.24-.535-6.48c-.941-11.781-1.867-23.502-1.527-35.325q.066-2.335.104-4.672c.547-30.579 6.445-60.33 14.392-89.777.85-2.693.85-2.693-.434-4.746h3l.754-3.777c1.286-5.758 3.18-11.242 5.183-16.785l1.192-3.299c3.937-10.665 8.576-20.94 13.473-31.194a707 707 0 0 0 4.085-8.789c6.28-13.585 13.448-26.43 21.313-39.156l1.536-2.5c6.37-10.341 13.082-20.416 19.972-30.418C180.048 730.22 180.048 730.22 194 689l.574-3.281c.872-7.617.517-15.03-.637-22.594l-.385-2.553c-1.412-8.679-3.599-17.142-5.784-25.653-2.143-8.362-4.166-16.737-6.018-25.169l-.708-3.107c-4.348-20.125-5.474-40.107-5.23-60.643q.024-3.377.042-6.754.049-8.122.146-16.246h2l-.129-2.777c.03-17.15 6.407-35.235 12.129-51.223l.885-2.492C199.952 441.436 212.995 418.49 230 398l1.93-2.52c5.53-6.625 13.207-11.955 21.07-15.48h2l1-2q3.49-.57 7-1l2-1a61 61 0 0 1 4.133-.098l2.441.01 2.551.026 2.574.013q3.15.02 6.301.049l1 2c2.21.105 2.21.105 5-1l1 3c2.413 1.584 2.413 1.584 5.313 3 6.828 3.5 6.828 3.5 9.687 6v2h2c12.95 14.78 15.852 31.976 18.125 50.875l.765 6.156q.341 2.767.677 5.535L327 457l.43 3.875L328 464l2 1 .75 2.438c2.592 7.385 6.088 13.98 13.25 17.562h2c.775-5.701 1.255-11.348 1.535-17.094l.13-2.521q.202-3.942.397-7.885l.276-5.383q.335-6.558.662-13.117l-2-1h3l-1-9h2l-.156-3.219c0-7.002 1.889-13.778 3.379-20.582 1.242-5.871 2.068-11.196 1.777-17.199h2c1.033-3.288 2.05-6.58 3.063-9.875l.892-2.84.83-2.715.778-2.507c.671-2.113.671-2.113-.563-4.063l2-2c2.203-3.305 3.55-6.706 5-10.375 2.852-7.072 5.969-13.992 9.25-20.875l1.285-2.705c1.987-4.134 3.998-8.169 6.465-12.045l-2-3h4c1.667-2.125 1.667-2.125 3.063-5 8.882-16.1 20.207-31.028 32.671-44.523a293 293 0 0 0 5.547-6.27c3.672-4.205 7.52-8.2 11.469-12.144l2.122-2.12c4.64-4.585 9.367-8.846 14.5-12.877 2.878-2.263 5.654-4.628 8.44-7.004C515.11 185 515.11 185 535 185l1-2c2.35-.958 4.662-1.818 7.063-2.625l2.01-.695c1.64-.567 3.283-1.124 4.927-1.68v-2l2.883.117c4.793-.002 9.323-.985 13.992-1.992l2.625-.527 2.492-.528 2.261-.476c1.962-.439 1.962-.439 2.747-2.594m55 229 1 5h1v-5zM90 1113l1 2Z"/><path fill="#fefefd" d="M577 170h2v2l24-1-1 2a603 603 0 0 0 5.688 2.5l3.199 1.406c2.97 1.044 5.005 1.325 8.113 1.094l-1 2c.96.96 2 1.84 3.04 2.715C634.72 194.475 641.27 208.14 643 226c1.08 20.327-6.092 40.6-11.732 59.848-10.892 37.285-12.62 72.896-.268 110.152l3-2 1 4 .078-1.844c1.183-18.285 7.04-40.695 20.817-53.558 10.373-7.872 21.547-10.466 34.324-9.258 23.2 4.05 42.674 21.27 56.12 39.902 29.929 44.263 33.38 98.792 30.017 150.598-.46 7.305-.54 14.59-.543 21.91l-.038 3.918c-.258 16.58-.258 16.58 6.225 31.332 1.855 1.402 1.855 1.402 4 1 3.122-2.081 4.911-3.867 7-7l2.188-2.125c5.94-5.89 10.403-12.715 14.75-19.812 3.935-6.411 8.076-12.406 13.062-18.063l1.7-1.95c6.73-7.232 15.333-12.552 25.304-13.265 12.813-.371 22.576 4.026 32.996 11.215 2.8 2.755 4.878 5.707 7 9l1.688 2.266C900.703 554.42 906.514 567.645 911 582l1.152 3.602c13.193 44.903 6.29 94.52-7.152 138.398q-.925 3.054-1.847 6.109a7326 7326 0 0 1-4.586 15.126C894.05 760.051 894.05 760.051 890 775l-.96 3.574c-7.702 33.241.872 62.195 17.96 90.426 1.51 2.416 3.034 4.823 4.558 7.231C919.874 889.403 927.098 903.04 934 917l1.148 2.306c9.648 19.663 15.491 41.502 19.457 62.971l.52 2.785.383 2.286L956 989l2 1v2h-2l.184 1.813c4.17 41.756-1.5 82.197-17.184 121.187l-1.077 2.706c-12.95 32.179-32.608 60.588-56.518 85.6-3.059 3.082-3.059 3.082-5.405 6.694h-2l-2 4h-2l-1 3c-1.707 1.754-1.707 1.754-3.812 3.563l-2.083 1.816c-1.97 1.517-3.845 2.6-6.105 3.621v2a126 126 0 0 1-6.187 5l-1.927 1.484q-1.98 1.525-3.967 3.043a498 498 0 0 0-5.18 4.035c-21.92 17.163-45.6 32.253-70.64 44.413a613 613 0 0 0-6.177 3.072c-39.655 19.643-82.983 33.252-126.27 42.055l-2.649.54q-2.52.508-5.045.992c-4.418.785-4.418.785-7.958 3.366-2.562.188-2.562.188-5 0l-1-1c-2.682.26-5.322.584-7.988.96l-2.466.334c-2.62.355-5.24.718-7.859 1.081-27.918 3.846-27.918 3.846-40.437 3.688l-2.148-.014q-2.552-.02-5.102-.049v3h-25v-1h-41v-1l-3.424-.288c-19.57-1.661-39.1-3.373-58.514-6.4l-2.109-.327c-11.633-1.826-11.633-1.826-15.953-2.985v2l-2-1 1-2-3.777-.219c-8.745-.874-17.258-3.232-25.786-5.281q-3.93-.944-7.866-1.875a768 768 0 0 1-4.862-1.165 85 85 0 0 0-13.863-2.117C344 1320 344 1320 342 1318a138 138 0 0 0-7.113-2.32l-4.44-1.36c-.777-.235-1.554-.47-2.354-.714-14.259-4.336-28.294-8.957-42.093-14.606l-2.91-1.168c-27.403-11.037-54.345-23.85-78.559-40.906-1.518-1.098-1.518-1.098-3.531-.926a446 446 0 0 1-5-5c-2.153-1.823-4.382-3.54-6.625-5.25l-1.734-1.352c-2.537-1.946-4.585-3.38-7.641-4.398a236 236 0 0 1-3.473-4.242c-3.617-4.164-7.95-7.706-12.527-10.758v-2l-1.875-.75c-2.476-1.456-3.076-2.628-4.125-5.25h-2c-1.34-1.293-1.34-1.293-2.937-3.187l-1.883-2.22L149 1209l-2.555-2.969C108 1161.298 108 1161.298 108 1150l-3-1v-3a181 181 0 0 0-3.75-7.625c-2.328-4.535-4.6-9.04-6.562-13.75-1.387-3.8-1.387-3.8-4.688-5.625v-3l-2-1 .676-2.004c.444-4.102-.958-7.211-2.489-10.934l-1.644-4.152-.803-2.007c-1.012-2.603-1.885-5.245-2.74-7.903l-1-3c-.92-4.132-1.731-8.287-2.562-12.437l-.71-3.471c-.22-1.102-.442-2.203-.67-3.338l-.615-3.053C75 1060 75 1060 75 1056l-2-1c-.377-2.259-.377-2.259-.559-5.238l-.222-3.304L72 1043q-.262-3.24-.535-6.48c-.941-11.781-1.867-23.502-1.527-35.325q.066-2.335.104-4.672c.547-30.579 6.445-60.33 14.392-89.777.85-2.693.85-2.693-.434-4.746h3l.754-3.777c1.286-5.758 3.18-11.242 5.183-16.785l1.192-3.299c3.937-10.665 8.576-20.94 13.473-31.194a707 707 0 0 0 4.085-8.789c6.28-13.585 13.448-26.43 21.313-39.156l1.536-2.5c6.37-10.341 13.082-20.416 19.972-30.418C180.048 730.22 180.048 730.22 194 689l.574-3.281c.872-7.617.517-15.03-.637-22.594l-.385-2.553c-1.412-8.679-3.599-17.142-5.784-25.653-2.143-8.362-4.166-16.737-6.018-25.169l-.708-3.107c-4.348-20.125-5.474-40.107-5.23-60.643q.024-3.377.042-6.754.049-8.122.146-16.246h2l-.129-2.777c.03-17.15 6.407-35.235 12.129-51.223l.885-2.492C199.952 441.436 212.995 418.49 230 398l1.93-2.52c5.53-6.625 13.207-11.955 21.07-15.48h2l1-2q3.49-.57 7-1l2-1a61 61 0 0 1 4.133-.098l2.441.01 2.551.026 2.574.013q3.15.02 6.301.049l1 2c2.21.105 2.21.105 5-1l1 3c2.413 1.584 2.413 1.584 5.313 3 6.828 3.5 6.828 3.5 9.687 6v2h2c12.95 14.78 15.852 31.976 18.125 50.875l.765 6.156q.341 2.767.677 5.535L327 457l.43 3.875L328 464l2 1 .75 2.438c2.592 7.385 6.088 13.98 13.25 17.562h2c.775-5.701 1.255-11.348 1.535-17.094l.13-2.521q.202-3.942.397-7.885l.276-5.383q.335-6.558.662-13.117l-2-1h3l-1-9h2l-.156-3.219c0-7.002 1.889-13.778 3.379-20.582 1.242-5.871 2.068-11.196 1.777-17.199h2c1.033-3.288 2.05-6.58 3.063-9.875l.892-2.84.83-2.715.778-2.507c.671-2.113.671-2.113-.563-4.063l2-2c2.203-3.305 3.55-6.706 5-10.375 2.852-7.072 5.969-13.992 9.25-20.875l1.285-2.705c1.987-4.134 3.998-8.169 6.465-12.045l-2-3h4c1.667-2.125 1.667-2.125 3.063-5 8.882-16.1 20.207-31.028 32.671-44.523a293 293 0 0 0 5.547-6.27c3.672-4.205 7.52-8.2 11.469-12.144l2.122-2.12c4.64-4.585 9.367-8.846 14.5-12.877 2.878-2.263 5.654-4.628 8.44-7.004C515.11 185 515.11 185 535 185l1-2c2.35-.958 4.662-1.818 7.063-2.625l2.01-.695c1.64-.567 3.283-1.124 4.927-1.68v-2l2.883.117c4.793-.002 9.323-.985 13.992-1.992l2.625-.527 2.492-.528 2.261-.476c1.962-.439 1.962-.439 2.747-2.594m-90 93-1.693 1.38C468.247 278.386 452.04 294.167 439 312a468 468 0 0 1-2.555 3.246C414.41 343.034 400.18 375.348 393 410l-.464 2.179c-3.488 16.622-4.862 33.279-6.099 50.196C382.54 515.328 382.54 515.328 371 527c-7.158 5.714-14.74 7.564-23.82 7.371-14.846-1.733-27.62-13.112-36.578-24.39-15.02-19.885-22.944-41.516-25.086-66.29l-.236-2.686q-.211-2.55-.37-5.105c-.511-6.498-2.316-11.935-6.66-16.9-3.428-1.524-6.613-1.614-10.25-1-22.11 10.83-36.177 51.454-44 73-13.88 41.38-14.701 78.25-3.557 120.325a724 724 0 0 1 7.494 31.05l.855 3.882c8.053 37.383 3.416 73.635-17.065 106.5-2.018 3.104-4.13 6.139-6.264 9.162-2.841 4.04-5.616 8.126-8.4 12.206l-1.897 2.777c-12.866 18.888-25.462 37.922-36.823 57.763a491 491 0 0 1-3.714 6.331C131.023 881.105 116.195 927.836 111 974l-.286 2.345c-7.314 67.585 11.72 136.361 53.768 189.778 4.227 5.227 8.829 10.067 13.518 14.877l2.155 2.233c9.213 9.522 18.428 18.654 29.13 26.491a200 200 0 0 1 5.254 4.077c25.77 20.3 56.034 35.288 86.461 47.199l2.867 1.139C355.76 1282.672 410.486 1294.19 466 1299l2.992.262c9.593.77 19.133.919 28.75.941l2.515.009q6.61.022 13.221.028 5.35.007 10.697.041c22.813.144 45.155-.596 67.825-3.281l3.148-.364c45.755-5.336 92.308-16.716 134.11-36.35a767 767 0 0 1 8.746-4.013c28.364-13.052 55.666-29.662 79.996-49.273l2.809-2.227c17.08-13.712 33.962-29.263 47.191-46.773l2.918-3.766c6.252-8.131 11.884-16.384 17.082-25.234l1.691-2.664c25.16-40.513 33.788-94.75 24.309-141.336l-.422-2.09c-.988-4.7-2.213-9.307-3.578-13.91l-.686-2.324c-9.018-29.912-23.688-58.207-38.751-85.489-10.536-19.141-19-38.215-21.563-60.187l-.332-2.39c-3.618-30.677 3.025-59.44 12.434-88.43l1.126-3.476c1.884-5.79 3.79-11.572 5.73-17.344 13.323-40.098 18.465-89.345.015-128.907-3.694-7.805-3.694-7.805-9.973-13.453-4.177-.619-6.227-.506-9.785 1.824-4.53 3.981-7.243 9.354-10.278 14.489C831.684 593.592 825.05 603.057 817 612c-.48.534-.958 1.069-1.452 1.62-6.12 6.714-12.543 12.064-20.548 16.38l-2.012 1.09c-7.563 3.44-16.75 3.07-24.426.222-11.777-4.977-18.06-17.22-22.812-28.437-2.248-5.816-3.94-11.78-5.5-17.812l-.603-2.308c-3.512-14.467-3.946-28.82-3.853-43.627.018-2.992.02-5.983.02-8.976.019-9.666.222-19.283.824-28.931 2.387-38.593-1.86-81.217-28.279-111.78-6.53-6.757-13.729-13.278-23.484-13.878-4.467.504-5.932 1.073-8.875 4.437-2.586 5.817-3.473 10.682-3.625 17.004l-.1 2.548c-.104 2.67-.192 5.34-.275 8.01-1.214 38.4-1.214 38.4-11.312 52-6.558 5.948-12.333 7.225-21.215 6.95-5.494-.81-9.2-3.066-13.473-6.512l-1.816-1.43C598.12 435.228 585.475 388.523 582 355c-.286-5.545-.342-11.073-.312-16.625l.006-2.258c.123-26.518 6.796-50.097 15.146-75.137 7.25-20.352 7.25-20.352 4.66-41.105-3.831-4.406-7.275-6.352-13.055-7.29C552.49 210.695 513.073 241.506 487 263m145 136 1 5h1v-5zM90 1113l1 2Z"/><path fill="#fee887" d="M734 885a150 150 0 0 1 10 9l2.113 2.074c17.712 18.606 22.584 42.4 22.192 67.235-.656 19.34-8.247 35.705-20.305 50.691l-1.602 2.098c-14.227 17.627-37.291 27.782-59.328 30.625-24.497 2.213-47.876-4.623-67.32-19.598A230 230 0 0 1 615 1023l-2.52-2.234c-16.569-15.577-25.944-37.738-26.683-60.395-.416-26.127 6.998-49.09 25.054-68.246C643.403 858.768 697.57 856.728 734 885m-329.687-1.687C420.202 895.933 431.254 910.46 437 930l.81 2.73c1.988 7.236 2.703 13.967 2.627 21.457l-.029 3.304c-.497 22.843-9.344 42.478-24.408 59.509l-1.762 2.063c-16.268 17.702-40.182 26.258-63.59 28.125-24.313.728-47.53-9.61-65.37-25.633C271.785 1008.572 264.011 993.098 260 975l-.53-2.327c-2.643-15.049-1.626-32.286 3.53-46.673l1.098-3.168C268.766 910.599 275.933 900.349 285 891l1.633-1.855c8.233-9.04 19.956-15.181 31.367-19.145l3.027-1.187c27.911-9.38 59.856-2.335 83.286 14.5"/><path fill="#2f310e" d="M682.758 922.684c9.572 5.62 15.228 13.784 18.117 24.441 2.275 10.643 1.388 21.155-4.5 30.625-6.349 8.665-13.725 14.409-24.375 16.25-10.18.954-17.902-1.137-25.812-7.687-8.847-8.44-11.19-17.8-11.563-29.688.171-12.213 4.745-21.548 13.438-30.016 9.622-7.993 23.465-9.209 34.695-3.925m-308.067-.059c10.011 5.962 15.465 14.441 18.684 25.563 1.904 11.616-.15 22.622-6.656 32.558-6.069 7.958-13.526 12.267-23.48 13.633-9.506.42-17.306-2.4-24.614-8.442-4.861-4.675-7.415-9.628-9.625-15.937l-1.102-2.918c-2.839-9.74-1.146-20.034 3.102-29.082 9.124-15.566 26.489-23.51 43.691-15.375"/><path fill="#2f2f0e" d="m507.063 1071.75 2.67-.004c51.711.017 51.711.017 63.142 11.066 1.54 2.996 1.6 4.858 1.125 8.188-4.771 7.08-12.126 9.25-20.215 10.945-4.246.805-8.5 1.492-12.785 2.055l-2.057.29c-9.158 1.116-18.42.953-27.63.96l-2.766.003c-45.795-.034-45.795-.034-59.547-11.253-2.21-3.316-2.406-5.096-1.79-9.004 1.562-3.948 5.084-5.345 8.79-6.996 15.83-6.743 34.165-6.235 51.063-6.25"/><path fill="#f4d50c" d="M516.311 1069.815c3.08-.003 6.16-.02 9.24-.04q2.986-.005 5.972-.005l2.741-.022c6.557.023 13.769.268 19.736 3.252l3-1c2.782.688 5.368 1.874 8 3l3.187 1.312c3.588 2.153 5.55 4.16 7.813 7.688.83 4.284.91 6.359-1.191 10.148-7.727 10.017-20.987 11.05-32.75 12.626-4.04.443-8.004.355-12.059.226l-1 1c-2.486.1-4.943.14-7.43.133l-2.26.003q-2.374 0-4.747-.006c-2.42-.005-4.841 0-7.262.007q-2.302 0-4.606-.004l-2.197.006c-3.106-.015-5.528-.149-8.498-1.139a83 83 0 0 0-4.563 0c-4.215.11-4.215.11-6.437-1a148 148 0 0 0-5.688-.5c-12.812-1-12.812-1-15.312-3.5l-1.688-.375c-4.285-1.158-8.175-3.488-11.312-6.625v-3h-2c-.8-3.287-1.097-4.71 0-8h2l.125-1.75c1.356-3.487 3.654-4.516 6.875-6.25 2.875-.25 2.875-.25 5 0v-2h3v-2l8-.438 2.195-.119 2.305-.127 2.583-.14q3.147-.191 6.29-.428c10.982-.787 21.93-.934 32.938-.933M449 1082c-1.882 3.121-2.623 5.352-2 9 6.913 8.857 18.31 11.032 28.875 12.56 11.453 1.409 22.781 1.8 34.312 1.752l2.706-.004c31.23.61 31.23.61 59.107-11.308 2.342-3.513 2.496-4.865 2-9-1.992-3.983-4.576-5.49-8.563-7.125-17.355-5.746-36.4-6.062-54.498-6.06-2.604-.002-5.208-.02-7.812-.04-28.609-.45-28.609-.45-54.127 10.225"/><path fill="#ed470e" d="m247 443 1 2c-.926 2.68-.926 2.68-2.312 5.875l-1.364 3.18A146 146 0 0 1 241 461h-2l1 3c-1.21 2.57-2.466 4.98-3.875 7.438a743 743 0 0 0-2.242 3.996l-1.02 1.783c-.921 1.904-1.419 3.72-1.863 5.783h-2l-1 8h-2c-1.84 6.01-3.2 11.885-4 18.125-.642 4.92-1.573 9.365-3.316 14.008-.708 1.934-1.216 3.863-1.684 5.867h-2l.625 3.938c.525 3.304.24 5.809-.594 9-1.516 6.327-1.245 12.655-1.156 19.125l.027 3.779q.036 4.579.098 9.158h2c1.235 6.096 2.116 11.76 2 18 .266 3.009.62 6.004 1 9-1.874-2.81-2.406-4.159-3.035-7.352l-.514-2.582-.513-2.691-.526-2.621c-5.482-28.018-2.515-55.379 5.859-82.399a451 451 0 0 0 1.842-6.136c5.89-19.02 14.808-37.1 24.887-54.219"/><path fill="#ee430f" d="M736 473h1c.03 3.292.047 6.583.063 9.875l.025 2.723c.02 5.93-.208 11.817-.576 17.734-.597 9.84-.733 19.668-.752 29.526-.01 2.941-.041 5.882-.072 8.824-.157 28.102 3.746 63.02 24.312 84.318a58.5 58.5 0 0 0 7.934 4.914C770 632 770 632 772 634c-6.477-.166-10.574-3.618-15-8-5.418-6.756-9.978-13.848-13-22l-1.121-2.89C740 593.498 740 593.498 740 590h-2c-1.613-4.234-2-7.51-2-12l-1-2.5c-1.188-2.97-1.07-5.328-1-8.5l-1-2a126 126 0 0 1-.13-5.994l-.009-3.812.006-4.135q0-2.112-.003-4.222-.001-4.425.006-8.85.006-5.682-.004-11.366a4085 4085 0 0 1 0-8.717l-.002-4.192q-.003-2.924.007-5.847l.002-3.366C733 502 733 502 734 501c.146-1.986.227-3.978.281-5.969l.114-3.668.105-3.863q.103-3.766.219-7.531l.092-3.393C735 474 735 474 736 473"/><path fill="#ee540d" d="M691.39 376.809c8.251 3.749 15.387 9.784 20.61 17.191l-1 2-1.645-1.934-2.168-2.503-2.144-2.497c-1.954-2.288-1.954-2.288-5.043-3.066a283 283 0 0 1-5-5c-2.702-1.35-5.118-1.339-8.125-1.562l-3.32-.254L681 379l-.875 2.313C679 384 679 384 677 387c-.243 2.34-.243 2.34-.125 4.93.015.96.03 1.92.047 2.91l.156 6.047.047 2.918.07 2.655c-.219 2.848-1.081 4.926-2.195 7.54-.203 2.83-.203 2.83-.062 5.688.159 5.118.159 5.118-.938 7.312a127 127 0 0 0-.437 5c-1.172 13.914-1.172 13.914-4.563 19h-2l-2 5c-1-2-1-2-.328-4.074l1.078-2.613c5.45-14.481 5.854-29.09 6.259-44.368.586-20.754.586-20.754 6.741-28.007 4.424-1.844 8.204-1.63 12.64-.13"/><path fill="#fcbe0b" d="M604 1224c-51.284 15.516-123.084 17.073-175 3l-3-2c8.708.533 17.283 1.677 25.905 2.984 6.077.88 11.957 1.188 18.095 1.016v2l2.3-.254 3.012-.309 2.989-.316C481 1230 481 1230 484 1231c1.687.093 3.377.128 5.066.13l3.125.009 3.372-.006 3.463.003q3.626 0 7.252-.006c3.707-.005 7.414 0 11.12.007q3.52 0 7.04-.004l3.37.006 3.126-.01 2.751-.002c2.475-.034 2.475-.034 5.315-1.127 2.515-.067 5.012.002 7.527.063 2.396.03 2.396.03 4.352-.536 3.026-.752 6.01-.806 9.121-.965 5.852-.336 11.538-1.048 17.305-2.093 3.102-.54 6.196-.87 9.328-1.18 3.95-.482 7.855-1.247 11.765-1.984C601 1223 601 1223 604 1224"/><path fill="#f6db0d" d="m511 1069.875 3.798-.014c6.162.01 12.112.18 18.202 1.139v1l-3.861.06c-4.81.077-9.62.166-14.431.257q-3.1.057-6.2.105c-31.626-.87-31.626-.87-59.508 10.578-1.372 2.795-1.613 4.953-1 8 4.847 7.354 14.548 9.002 22.625 10.75q3.184.64 6.375 1.25v1q-3.687.08-7.375.125c-.699.017-1.397.034-2.117.05-1.837.018-3.674-.072-5.508-.175l-2-2-1.687-.375c-4.286-1.158-8.176-3.488-11.313-6.625v-3h-2c-.8-3.287-1.097-4.71 0-8h2l.125-1.75c1.356-3.487 3.654-4.516 6.875-6.25 2.875-.25 2.875-.25 5 0v-2h3v-2l3.375-.184 2.208-.12q2.46-.136 4.918-.268c3.75-.205 7.493-.428 11.237-.717 9.093-.696 18.145-.817 27.262-.836"/><path fill="#eb3407" d="M595 260c1.276 3.586.707 5.708-.512 9.262l-1.042 3.115-1.134 3.31c-6.795 20.551-10.733 40.38-10.625 62.063l.005 2.25c.059 16.256 2.249 31.15 6.636 46.777.65 3.12.553 4.298-.328 7.223l-1.023-3.543-1.352-4.644-.672-2.33c-.915-3.135-1.835-6.19-3.055-9.221-2.195-5.527-2.206-11.265-2.46-17.137l-.127-2.852c-.633-15.148-.09-30.143.689-45.273h2l.148-3.035.227-4.027c.07-1.311.14-2.622.21-3.973.413-3.946 1.213-7.206 2.415-10.965h2l.625-3.937c1.56-7.95 4.579-15.483 7.375-23.063"/><path fill="#ec3e0b" d="M597.375 215.7c4.05 3.24 5.323 6.192 6.035 11.163.471 10.28-1.605 21.557-5.41 31.137l-2 1c-.383-6.768.823-12.582 3-19l1-1c.073-2.75-.004-5.488-.062-8.238.055-2.456.352-4.425 1.062-6.762h-2l-.75-2.875c-.913-3.152-.913-3.152-3.055-4.3-10.525-3.953-24.622 1.192-34.402 5.308-1.77.735-1.77.735-2.793 1.867l-3.875.75c-5.003 1.036-9.286 3.05-13.84 5.324L538 231l-2-1c45.827-23.727 45.827-23.727 61.375-14.3"/><path fill="#fbbd0c" d="M273 1162c3.678 1.312 6.378 2.903 9.438 5.313C302.91 1182.448 326.874 1194.92 351 1203l5.381 1.833q5.057 1.717 10.119 3.417l1.992.67c9.105 3.08 9.105 3.08 18.38 5.579 2.893.681 5.764 1.44 8.64 2.192l3.545.924 7.297 1.906 3.533.92 3.194.835A148 148 0 0 0 421 1223l5 1v1c-6.023.206-11.275-.484-17.125-1.875l-2.34-.527c-4.276-.984-8.374-2.202-12.535-3.598a499 499 0 0 0-5-1.34c-36.756-9.725-71.334-24.156-103.125-45.16l-2.206-1.454c-3.993-2.704-7.382-5.516-10.669-9.046"/><path fill="#fbb80c" d="m808 1097 1 2c-1.335 2.51-2.72 4.86-4.25 7.25-.455.716-.91 1.432-1.377 2.17-7.91 12.246-17.307 23.072-27.373 33.58l-2.184 2.309c-4.905 5.063-10.213 9.42-15.816 13.691l-1.949 1.508c-12.424 9.585-25.377 17.81-39.051 25.492l-3.031 1.742-3 1.696-2.737 1.558L706 1191l-2-1 3.367-1.977 6.854-4.024a716 716 0 0 0 14.994-9.038C731 1174 731 1174 733 1174v-2l12-6v-2l3-1a90 90 0 0 0 3-3c1.15-.896 2.32-1.77 3.5-2.625 15.779-11.641 15.779-11.641 28.504-26.395 2.065-3.083 4.369-5.369 6.996-7.98 1.88-2.312 3.63-4.71 5.375-7.125l1.443-1.98c3.964-5.49 7.659-11.111 11.182-16.895"/><path fill="#ed3807" d="m493 258 2 1a271 271 0 0 1-2.812 3.5l-1.583 1.969C489 266 489 266 486 266v3c-1.61 1.535-1.61 1.535-3.75 3.063l-2.11 1.535C478 275 478 275 476.138 275.834c-2.596 1.417-4.37 3.14-6.465 5.228l-2.422 2.415-2.5 2.523-2.547 2.523-2.406 2.414-2.208 2.215c-1.806 1.695-1.806 1.695-1.589 3.848l-3 2-1.312 2.313C450 304 450 304 446.938 306.5c-3.134 2.667-3.484 3.821-4.938 7.5-3.785 4.982-8.08 9.16-13 13 1.564-5.095 4.701-8.613 8.063-12.625l1.623-1.965q1.71-2.07 3.43-4.128a335 335 0 0 0 3.925-4.849c5.26-6.583 10.884-12.67 16.86-18.595a779 779 0 0 0 4.396-4.408c6.245-6.254 12.774-11.94 19.703-17.43a993 993 0 0 0 6-5"/><path fill="#ed470d" d="M404 373c1.105 3.315.952 3.832-.18 6.957l-.815 2.353-.88 2.502c-2.46 7.297-3.811 13.674-3.922 21.403-.21 2.878-.863 4.285-2.203 6.785a90 90 0 0 0-1 5.313c-.5 3.124-1.092 5.972-2.062 8.992-1.095 4.315-1.091 8.091-.938 12.507a120 120 0 0 1 0 8.188l-2 2c-.458 1.972-.458 1.972-.625 4.125L389 458h-1c-1.057-27.327 3.682-60.364 16-85"/><path fill="#f1420d" d="M850 835c2.25 2.25 2.592 3.928 3.342 6.948 4.533 17.983 14.062 34.398 23 50.51 4.216 7.63 8.19 15.374 12.096 23.167l1.755 3.484C900.44 939.676 900.44 939.676 899 944l-.908-2.015c-6.732-14.875-13.785-29.54-21.28-44.048l-1.171-2.268q-6.058-11.716-12.254-23.36C854 854.669 854 854.669 854 849h-2q-.506-2.374-1-4.75l-.562-2.672C850 839 850 839 850 835"/><path fill="#ef530d" d="M387 459h1c1.413 7.593 2.186 15.975-.012 23.434-1.082 3.906-1.12 7.088-.988 11.128.165 5.047-.24 8.712-2 13.438l-.437 3.563c-.584 3.564-1.525 5.502-3.563 8.437l-2 3h-2l-.187 1.875L376 526c-2.55 1.133-2.55 1.133-5 2l1.355-1.809c9.995-14.341 11.566-30.766 12.957-47.754l.51-5.693c.41-4.58.8-9.161 1.178-13.744"/><path fill="#f3550b" d="M914 994c5.49 5.49 3.233 19.445 3.25 26.688l.005 2.044c.002 15.325-1.3 30.427-5.255 45.268h-1l.184-1.984c.559-6.094 1.074-12.188 1.535-18.29.281-2.726.281-2.726.791-5.097.475-2.547.61-4.833.604-7.42v-2.789l-.016-2.97-.005-3.073c-.005-3.23-.018-6.46-.03-9.69l-.014-6.58q-.017-8.054-.049-16.107"/><path fill="#f14e0b" d="M877 621h1c1.28 6.778 1.192 13.434 1.188 20.313l-.001 2.038c-.029 15.317-1.645 29.747-5.187 44.649h-1q.214-2.595.438-5.187c.08-.963.162-1.926.246-2.918.316-2.895.316-2.895.836-5.129.583-3.36.536-6.512.48-9.922-.084-9.143.433-18.222 1-27.344l.29-4.84q.348-5.83.71-11.66"/><path fill="#f0500b" d="M234 669h1c1.172 6.516 1.184 12.954 1.188 19.563l.037 3.365c.01 5.43-.055 9.998-2.225 15.072-.361 1.66-.705 3.326-1 5h-2l-.687 3.75c-1.324 6.06-3.808 11.599-6.313 17.25-1.392-4.176.23-6.983 1.688-10.937 6.085-17.526 8.02-34.564 8.312-53.063"/><path fill="#eebe0c" d="M482.813 1103.438c7.66.638 15.318.896 23 1.124l4.158.131q5.015.157 10.029.307v1h10l-1 2q-7.18.037-14.362.055-2.443.008-4.885.02-3.512.017-7.023.023l-2.206.015c-3.12 0-5.54-.118-8.524-1.113a83 83 0 0 0-4.562 0c-4.216.11-4.216.11-6.438-1-2.037-.229-4.08-.41-6.125-.562l-3.32-.254L469 1105v-1c4.768-.841 8.986-1.007 13.813-.562"/><path fill="#ec3c0a" d="M276 418c3.45 2.1 5.711 4.133 7 8 .125 2.75.125 2.75 0 5-2.463-2.463-2.998-4.707-4-8-3.765-.886-7.144-1.472-11-1-4.48 3.108-7.59 6.782-11 11l-2.062 2c-2.37 2.446-4.114 5.133-5.938 8l-1-2c15.542-24.746 15.542-24.746 28-23"/><path fill="#f9a80b" d="m743 1019 3 1c-12.868 12.299-27.475 22.024-45 26v-3l3.113-1.102c14.01-5.043 25.275-11.269 36.489-21.203z"/><path fill="#f3c90c" d="M527 1070c20.038-.48 20.038-.48 27 3l3-1c1.832.453 1.832.453 3.813 1.25l2.113.848c2.748 1.195 5.42 2.51 8.074 3.902-4.447 1.375-8.09.25-12.5-.812-10.105-2.3-20.184-3.362-30.5-4.188z"/><path fill="#fbbf0c" d="m702 1191 1 2c-18.24 9.09-37.385 16.049-56.812 22.125l-3.757 1.183-3.513 1.075-3.1.95c-2.724.645-5.033.8-7.818.667 2.623-1.749 4.074-2.435 7-3.25 22.795-6.621 45.816-13.894 67-24.75"/><path fill="#f8a80a" d="m430 995 3 2c-1.52 4.89-4.354 8.062-7.687 11.813l-1.644 1.875a1288 1288 0 0 1-3.227 3.666 218 218 0 0 0-3.508 4.126c-3.836 4.602-7.994 8.133-12.934 11.52.413-4.368 3.28-6.247 6.438-8.875 4.684-4.084 8.546-8.355 12.125-13.437l1.226-1.74c2.4-3.51 4.393-7.108 6.211-10.948"/><path fill="#ed4206" d="M212 545h1c.76 9.702 1.135 19.265 1 29h2c1.235 6.096 2.116 11.76 2 18 .266 3.009.62 6.004 1 9-1.874-2.81-2.406-4.159-3.035-7.352l-.514-2.582-.513-2.691-.526-2.621c-1.929-9.86-2.553-19.269-2.475-29.317l.014-3.345q.018-4.047.049-8.092"/><path fill="#ed520e" d="m454 296 2 1Zm-3 1 2 2c-1.691 3.288-3.161 5.132-6.062 7.5-3.134 2.667-3.484 3.821-4.938 7.5-3.785 4.982-8.08 9.16-13 13 1.567-5.149 4.79-8.704 8.188-12.75q1.763-2.131 3.523-4.266l1.714-2.068c2.94-3.575 5.766-7.238 8.575-10.916"/><path fill="#f7a213" d="M767 970h3c-.982 12.516-5.78 23.277-12 34l-2-3 1.39-2.465c4.972-9.284 7.6-18.223 9.61-28.535"/><path fill="#191a08" d="m649 926 2 1-1.355 1.18c-6.189 5.726-11.29 13.25-11.759 21.926l.016 2.222.01 2.422.025 2.5.014 2.547q.02 3.101.049 6.203l-3-2c-1.5-10.692.597-19.988 5.875-29.312 2.507-3.171 5.202-5.897 8.125-8.688"/><path fill="#f05008" d="M849 766h1c-1 11-1 11-1.239 13.343-.748 7.608-1.072 15.205-1.323 22.845l-.131 3.751q-.157 4.53-.307 9.061h-1q-.291-7.414-.537-14.832-.087-2.516-.187-5.033c-.874-22.238-.874-22.238 3.724-29.135"/><path fill="#ec450e" d="M580 355h2l.516 3.594c1.42 9.582 3.192 18.853 5.812 28.183.65 3.12.553 4.298-.328 7.223l-1.023-3.543-1.352-4.644-.672-2.33c-.915-3.135-1.835-6.19-3.055-9.221-1.8-4.533-2.014-8.729-1.96-13.574l.027-3.239z"/><path fill="#ee4a0a" d="M858 567c2.438 1.5 2.438 1.5 4 3l-1 2-2-2c-2.872-.584-2.872-.584-6 0-2.603 2.18-4.557 4.398-6.562 7.125-1.588 2.071-3.298 3.4-5.438 4.875l-1-2q1.614-2.414 3.25-4.812l1.828-2.708c3.861-4.983 6.568-6.16 12.922-5.48"/><path fill="#faaf14" d="M366 1046c-4.503 2.502-8.754 3.13-13.863 3.098l-2.686-.01-2.764-.025-2.822-.014A1758 1758 0 0 1 337 1049l1-3 2.965.035c8.629.097 8.629.097 17.223-.598 3.302-.378 4.782-.344 7.812.563"/><path fill="#eb2e05" d="M428 327c.582 1.86.582 1.86 1 4-1.312 2.25-1.312 2.25-3 4h-2l-.824 2.155c-1.192 2.884-2.546 5.602-3.996 8.365l-1.621 3.095-1.684 3.197-1.707 3.256A5582 5582 0 0 1 410 363c-1-3-1-3-.123-5.293l1.404-2.68 1.555-2.978 1.664-3.111 1.57-3.03c3.518-6.667 7.459-12.84 11.93-18.908"/><path fill="#f7ad20" d="M256 944c2.872 3.222 3.407 5.406 3.547 9.684l.121 3.31.082 3.443.129 3.432c.156 4.9.246 9.334-.879 14.131h-1c-1.891-7.614-2.249-14.802-2.125-22.625l.027-3.332q.036-4.021.098-8.043"/><path fill="#0a0802" d="m367 920 2 2-3.25-.125c-10.923.077-19.499 2.07-27.496 9.816L337 933l-2-1c9.95-9.692 17.775-13.625 32-12"/><path fill="#ee5813" d="m733 558 3 1c.509 3.666 1.005 7.333 1.5 11l.434 3.121c.76 5.685 1.231 11.144 1.066 16.879-2.752-2.752-2.999-3.94-3.062-7.937l.09-2.114c-.037-2.609-1.023-4.563-2.028-6.949-.04-2-.044-4 0-6l-1-2c-.04-2.333-.043-4.667 0-7"/><path fill="#ee4e10" d="M732 443c4.603 4.603 4.103 12.92 4.136 19.134-.016 2.956-.064 5.91-.136 8.866h-1c-2.968-9.3-3.148-18.282-3-28"/><path fill="#f5510b" d="M908 1078c1.401 4.204-.11 7.223-1.5 11.25l-.813 2.404c-2.683 7.715-6.046 15.043-9.687 22.346-1.424-4.273.5-6.944 2.313-10.812 3.229-7.022 5.756-13.432 6.687-21.188h2z"/><path fill="#ea2a06" d="M712 396c4.04 3.496 6.154 7.579 8.563 12.25l1.17 2.2c2.48 4.742 4.64 9.445 6.267 14.55l-1 3-.687-1.557q-1.561-3.535-3.125-7.068l-1.08-2.45c-2.944-8.128-2.944-8.128-8.295-14.3L712 402z"/><path fill="#ef540f" d="M389 432c3.386 5.078 3.292 10.054 3 16l-2 2c-.458 1.972-.458 1.972-.625 4.125L389 458h-1c-.097-8.726-.167-17.33 1-26"/><path fill="#ee4608" d="M224 621c2 2 2 2 2 5l2 1v4l2 2c.307 2.9.512 5.718.625 8.625l.117 2.43c.095 1.981.177 3.963.258 5.945-1.94-2.909-2.534-4.626-3.29-7.965l-.663-2.924-.672-3.048-.695-3.038c-.93-4.149-1.68-7.75-1.68-12.025"/><path fill="#f79c12" d="M665 863h19c-2 3-2 3-4.215 3.464l-2.722.118-2.961.135-3.102.096-3.102.154c-5.64.22-5.64.22-7.898.033l-2-2c1-1 1-1 4.063-1.062L665 864z"/><path fill="#ef410a" d="m163 827 1 2a184 184 0 0 1-3.023 5.195c-1.131 1.87-1.131 1.87-1.477 4.492-.5 2.313-.5 2.313-2.328 4.098-2.426 2.474-3.818 4.902-5.422 7.965l-1.578 2.984L149 856c-1-3-1-3 .048-5.404l1.628-2.815 1.76-3.074 1.876-3.207 1.842-3.207c2.205-3.825 4.396-7.619 6.846-11.293"/><path fill="#ee4f0c" d="m267 420 1 2-2.687 2.125c-3.223 2.676-5.682 5.62-8.313 8.875l-2.062 2c-2.37 2.446-4.114 5.133-5.938 8l-1-2a95 95 0 0 1 4.125-6.937l1.188-1.92c2.462-3.827 4.536-6.05 8.687-8.143a207 207 0 0 0 5-4"/><path fill="#ec3f09" d="m230 478 1 4-2 1c-.465 1.895-.465 1.895-.625 4.063L228 491h-2l-.586 2.23-.789 2.957-.773 2.918c-.8 2.717-1.755 5.286-2.852 7.895-1.09-3.268-.97-3.843.074-6.95l.776-2.321.838-2.416.779-2.358c1.777-5.237 3.964-10.058 6.533-14.955"/><path fill="#fbaf12" d="m677.5 1045.813 3.246-.038 3.098-.005 2.85-.013C689 1046 689 1046 691 1048c-5.991.79-11.959 1.13-18 1.188l-3.875.042C666 1049 666 1049 664 1047c4.003-2.001 9.1-1.185 13.5-1.187"/><path fill="#f9a90a" d="M402 1028c0 3 0 3-2.75 5.875-4.82 3.969-10.475 5.925-16.25 8.125l-2 1v-3l2.816-1.355c6.436-3.135 12.528-6.201 18.184-10.645"/><path fill="#f7a109" d="M276 1013c3.755 2.065 6.498 4.33 9.438 7.438 3.328 3.417 6.461 6.144 10.562 8.562l-1 2c-4.464-1.403-6.809-3.64-10-7l-3-2-3-5-3-2z"/><path fill="#ef6516" d="M672 414h3q.039 2.688.063 5.375l.035 3.023C675 425 675 425 674 427c-.228 1.87-.41 3.747-.562 5.625l-.254 3.04L673 438h-1c-1.215-8.114-.763-15.854 0-24"/><path fill="#f8e10e" d="M567 1078c3.921 1.307 6.576 2.589 9 6 .455 3.182.701 4.985 0 8-2.576 3.292-5.126 5.422-9 7 1-3 1-3 3.563-5.312 2.657-2.474 2.657-2.474 3.062-5.688-.821-3.94-2.648-5.386-5.625-8z"/><path fill="#ec3a0f" d="M688 377c8.874.845 14.846 6.998 21 13a93 93 0 0 1 3 4l-1 2-1.645-1.934-2.168-2.503-2.144-2.497c-1.954-2.288-1.954-2.288-5.043-3.066l-2.25-2.375c-3.188-3.043-5.665-4.103-9.75-5.625z"/><path fill="#eb330a" d="M283 432h1c1.174 9.037 2.29 17.867 2 27h-1v-5h-2z"/><path fill="#130f0c" d="m465 1100 1.766.219c6.766.766 13.43.886 20.234.781v2h6v1c-8.764.258-17.439.098-26-2z"/><path fill="#f25509" d="m112 1035 .938 1.938c.897 1.998.897 1.998 2.062 3.062.156 1.413.25 2.834.316 4.254l.127 2.588.12 2.72.13 2.733q.16 3.352.307 6.705c-4.507-6.76-4.264-16.09-4-24"/><path fill="#f05307" d="M791 634h-2v2c-2.896.818-5.555 1.189-8.562 1.25l-2.317.078c-2.618-.405-3.466-1.319-5.121-3.328q3.375-.292 6.75-.562l3.797-.317c2.848-.1 4.796-.027 7.453.879"/><path fill="#ef7115" d="M221 506c2.28 6.838-1.056 14.98-4.098 21.27L216 529q.174-3.532.375-7.062c.07-1.311.14-2.622.21-3.973.418-3.99 1.082-7.2 2.415-10.965z"/><path fill="#ec4109" d="M441 310c0 3.388-.43 5.003-2 8a119 119 0 0 1-6 5 176 176 0 0 0-4 4c1.445-4.326 3.637-7.275 6.563-10.75l2.44-2.922C440 311 440 311 441 310"/><path fill="#ee480c" d="M873 600c4.044 4.044 4.125 11.104 4.125 16.625L877 620h-1l-1-9h-3z"/><path fill="#f69a0b" d="M764 985c1.498 4.495-.25 7.73-2 12-1.234 2.419-2.572 4.686-4 7l-2-3z"/><path fill="#f0710c" d="M213 547c2.132 3.743 1.957 5.79 1 10h2c.054 2.125.093 4.25.125 6.375l.07 3.586C216 570 216 570 214 572c-.843-8.357-1.122-16.602-1-25"/><path fill="#ee5c0d" d="m238 462 2 2-8 15-2-1c1.875-5.75 1.875-5.75 3-8h2l.938-2.875C237 464 237 464 238 462"/><path fill="#0a090c" d="M537 1074c8.434-.456 15.86.826 24 3-3.652 1.214-6.824.91-10.625.563-4.182-.406-4.182-.406-8.375-.563v-2h-5z"/><path fill="#f04e0c" d="m198 773 2 4-4 1v3h-2l-.25 2.375C193 786 193 786 190.938 787.313L189 788c1.388-3.89 3.215-6.966 5.625-10.312l1.914-2.676z"/><path fill="#f0550a" d="m207 760 2 3c-4.114 7.527-4.114 7.527-7.812 9.5L199 773c1.59-5.09 4.745-8.875 8-13"/><path fill="#ed5210" d="M599 240h1c.354 7.126-.043 12.47-3 19h-1c-.386-6.822.991-12.496 3-19"/><path fill="#eb3c0a" d="m525 236 1 2h-2l-.812 1.875C522 242 522 242 519 244h-3c-2.17 1.44-2.17 1.44-4 3l-2-1q2.621-1.942 5.25-3.875l2.953-2.18c2.236-1.555 4.326-2.827 6.797-3.945"/><path fill="#f15615" d="M850 835c2.612 2.612 3.071 4.972 4.125 8.5l1.07 3.531C856 850 856 850 856 852h-2v-3h-2q-.506-2.374-1-4.75l-.562-2.672C850 839 850 839 850 835"/><path fill="#ed4708" d="M839 582c1.078 3.758 1.078 3.758.375 5.938-2.198 3.297-4.802 6.275-8.375 8.062 1.326-3.623 2.943-6.635 5.125-9.812l1.633-2.395z"/><path fill="#ec3a0c" d="M286 460c2.728 2.728 3.242 5.809 4.188 9.438l.576 2.064c.891 3.36 1.358 5.133.236 8.498l-1-4h-2z"/><path fill="#ef4007" d="m663 456 1 3-1.496 1.242-1.942 1.633-1.933 1.617c-1.737 1.43-1.737 1.43-2.629 3.508-2.649.594-5.292.742-8 1 2.577-2.04 5.246-3.757 8.063-5.437 2.999-1.844 5.108-3.476 6.937-6.563"/><path fill="#1c1c08" d="M353 920q3.437-.079 6.875-.125l3.867-.07C367 920 367 920 369 922l-3.5-.062c-4.244-.008-8.302.462-12.5 1.062z"/><path fill="#fcf2a8" d="M305 1033c5.75 1.875 5.75 1.875 8 3v2l4 2c-4.86-.607-8.74-2.728-13-5z"/><path fill="#f9a60c" d="m296 1030 2.336 1.277 3.039 1.66 3.023 1.653A157 157 0 0 0 309 1037l-1 3-7-4v-2l-5-2z"/><path fill="#f06c13" d="M734 501h1c.985 4.063 1.31 7.824 1 12-1.516 1.71-1.516 1.71-3 3q-.04-3.469-.062-6.937l-.036-3.903C733 502 733 502 734 501"/><path fill="#ee4207" d="M231 651c2.343 2.484 2.98 3.777 3.293 7.234l-.106 3.516-.082 3.547L234 668h-1c-2.296-11.522-2.296-11.522-2-17"/><path fill="#ee3c07" d="m219 602 1 2h2l2 16c-1.963-2.944-2.717-5.059-3.625-8.437-.39-1.422-.39-1.422-.79-2.872C219 606 219 606 219 602"/><path fill="#ed5a10" d="m566 219-3 2-2.375 1.625c-2.837 1.486-4.475 1.645-7.625 1.375 3.343-5.279 6.983-6.719 13-5"/><path fill="#f8a90a" d="m632 1035 12 5-1 3-2.687-1.375A99 99 0 0 0 632 1038z"/><path fill="#f9ad0c" d="M646 1041c1.816.422 3.628.863 5.438 1.313l3.058.738L657 1044l1 3a513 513 0 0 1-4.25-.875l-2.39-.492c-2.328-.625-4.25-1.481-6.36-2.633z"/><path fill="#fbece0" d="m581 321 3 1c.188 3.375.188 3.375 0 7l-3 2z"/><path fill="#ed3b09" d="m493 258 2 1c-5.094 6.705-5.094 6.705-8.875 7.938L484 267c2.79-3.487 5.252-6.502 9-9"/><path fill="#f79f0d" d="M591 987c1.827 2.74 2.937 5.138 4.125 8.188l1.07 2.73L597 1000l-2 2a415 415 0 0 1-2-4.687l-1.125-2.637c-.894-2.733-1.04-4.823-.875-7.676"/><path fill="#f65f05" d="m587 1294 11 1v1c-5.361 1.129-10.553 1.097-16 1v-1h5z"/><path fill="#efe18a" d="M633 964h3c1.25 6.625 1.25 6.625-1 10-1.604-3.508-2.22-6.144-2-10"/><path fill="#f05307" d="m188 788 3 4-8 5c1.25-3.46 2.675-6.147 5-9"/><path fill="#f8a40d" d="m751 1009 2 1c-1.443 3.366-3.333 5.51-6 8l-1-3c1.404-2.264 3.197-4.02 5-6"/><path fill="#ef4008" d="m171 814 2 3-2.312 2.188c-2.4 2.51-4.042 4.78-5.688 7.812l-1-2c1.434-2.602 1.434-2.602 3.438-5.625l1.996-3.04z"/><path fill="#f24707" d="m214 749 1 2c-2.196 6.471-2.196 6.471-5.187 8.438L208 760c1.45-4.11 3.511-7.433 6-11"/><path fill="#ee5d13" d="M585 287c1.804 2.76 2.013 3.89 1.625 7.25L586 297h-3q.212-2.22.438-4.437c.08-.824.162-1.648.246-2.497C584 288 584 288 585 287"/><path fill="#f6a309" d="M601 1009c4.55 1.517 6.5 5.169 9 9-3 0-3 0-4.605-1.46l-1.582-1.915-1.606-1.898C601 1011 601 1011 601 1009"/><path fill="#19190e" d="M487 1101v2h6v1h-13c4-3 4-3 7-3"/><path fill="#eed00b" d="M468 1072h8l1 2-9 1z"/><path fill="#ee5612" d="M221 506c1 3 1 3 .188 5.625C220 514 220 514 218 515c.586-6.152.586-6.152 1-8z"/><path fill="#ed510b" d="M712 396c2 1.813 2 1.813 4 4v3l-4-1z"/><path fill="#f07020" d="m734 466 3 1c.188 2.813.188 2.813 0 6l-3 3z"/><path fill="#ed4f11" d="m283 448 3 1v10h-1v-5h-2z"/><path fill="#15130e" d="M537 1074h11l-1 2c-2.562.625-2.562.625-5 1v-2h-5z"/><path fill="#ef4c0f" d="M428 327c.75 1.75.75 1.75 1 4-1.937 2.25-1.937 2.25-4 4l-1-3c1.938-2.687 1.938-2.687 4-5"/><path fill="#ed4f12" d="M598 219c1.938.688 1.938.688 4 2 .75 2.625.75 2.625 1 5l-2 1v-3h-2z"/><path fill="#f5630b" d="m817 1205 2 1-6 5-2-1c2.625-3.875 2.625-3.875 6-5"/><path fill="#f5e283" d="M395 958h1c.195 6.055.195 6.055 0 8l-2 2c-1.25-6.625-1.25-6.625 1-10"/><path fill="#f2640d" d="m147 856 2 3c-.875 2.688-.875 2.688-2 5l-2-1z"/><path fill="#ef741f" d="m733 558 3 1c.125 2.875.125 2.875 0 6l-2 2c-1.478-2.957-1.06-5.742-1-9"/><path fill="#f8f8f7" d="M69 984h1v11l-2-1z"/><path fill="#f5f6f6" d="M491 1343h11v1h-11z"/><path fill="#eeeeed" d="M210 416h5l-1 4-5-2z"/><path fill="#f4f6f5" d="M468 1342h10v1h-10z"/><path fill="#f0f1f1" d="M580 170h10v1h-10z"/><path fill="#f5f5f5" d="M74 1067h2l1 5c-1.5-1.375-1.5-1.375-3-3z"/><path fill="#f6f6f5" d="M69 1018h1v6l-2-3z"/><path fill="#f5f6f5" d="M407 1334h6l-1 2-5-1z"/><path fill="#f1f1f0" d="M543 178h5c-3 2-3 2-5 2z"/><path fill="#edeeed" d="m537 178 3 1-1 3-2-1z"/><path fill="#f5f7f5" d="M434 1338h5l-3 2z"/><path fill="#f1f3f1" d="M939 1116h2v3h-2z"/><path fill="#f7f7f6" d="M68 996h2l-1 4z"/><path fill="#f7f7f8" d="M778 488h1v6h-1z"/><path fill="#f5f7f6" d="M557 1342h5v1h-5z"/><path fill="#f6f6f6" d="M578 1340h5v1h-5z"/><path fill="#f5f7f6" d="m596 1338 4 1-4 1z"/><path fill="#f5f6f5" d="m392 1331 4 1-2 1z"/><path fill="#f9f9f7" d="m892 835 1 4-2-3z"/><path fill="#f3f4f5" d="M176 584h1v5h-1z"/><path fill="#f6f6f6" d="m832 523 3 1-3 1z"/><path fill="#fbfafa" d="m346 472 1 4-2-1z"/><path fill="#fcfbfa" d="m332 467 1 4-2-3z"/><path fill="#f1f1f0" d="M190 464v3l-2-1z"/><path fill="#f0f1f1" d="m192 454 2 1-1 3z"/><path fill="#f1f2f0" d="M195 451v3l-2-1z"/><path fill="#f9fafa" d="M346 444h2l-1 4z"/><path fill="#f2f3f3" d="m757 390 3 1-2 2z"/><path fill="#efefef" d="m612 176 4 1-2 1z"/><path fill="#f5f6f7" d="m464 1341 4 1Z"/><path fill="#f6f7f7" d="m451 1340 4 1Z"/><path fill="#f5f6f6" d="m445 1339 4 1Z"/><path fill="#f4f5f4" d="m414 1335 4 1Z"/><path fill="#f3f4f4" d="m738 1300 2 1h-3z"/><path fill="#f0f3f1" d="m100 1138 1 2-3-1z"/><path fill="#f4f5f3" d="m941 1110 2 1-2 2z"/><path fill="#f6f6f5" d="m958 1033 1 4Z"/><path fill="#f6f6f6" d="m75 937 1 4Z"/><path fill="#f6f7f6" d="m76 932 1 4Z"/><path fill="#fbf9f8" d="m887 810 1 4Z"/><path fill="#fbfcfb" d="m778 569 1 4Z"/><path fill="#f5f6f6" d="m836 520 1 3-2-1z"/><path fill="#eff0ef" d="m851 518 4 1Z"/><path fill="#f4f5f4" d="m179 501 1 4Z"/><path fill="#f8f8f8" d="m778 496 1 4Z"/><path fill="#f1f2f1" d="m181 491 1 4Z"/><path fill="#f8f9f8" d="m778 480 1 4Z"/><path fill="#f1f1f2" d="m186 474 1 4Z"/><path fill="#fbfafa" d="M326 441v3Z"/><path fill="#f3f3f3" d="m774 440 1 4Z"/><path fill="#fcfcfc" d="m349 424 1 4Z"/><path fill="#edeeed" d="M228 397v3Z"/><path fill="#f2f3f2" d="M737 360h2v2h-2z"/><path fill="#fbfbfa" d="m622 346 2 2-2 1z"/><path fill="#f3f4f3" d="m379 326 3 1h-3z"/><path fill="#f0f0f1" d="m392 299 1 4Z"/><path fill="#f6f6f8" d="m569 1341 3 1Z"/><path fill="#f3f4f3" d="m639 1331 3 1Z"/><path fill="#f4f5f4" d="m655 1327 3 1Z"/><path fill="#f5f5f5" d="m361 1324 3 1Z"/><path fill="#f4f5f5" d="m339 1318 3 1Z"/><path fill="#f2f5f4" d="m312 1309 2 2h-2z"/><path fill="#f2f2f2" d="M309 1310h2l-1 2z"/><path fill="#f2f3f3" d="m288 1301 3 1Z"/><path fill="#f1f3f2" d="m210 1261 1 2-2-1z"/><path fill="#f5f5f4" d="m949 1086 2 2h-2z"/><path fill="#f4f5f5" d="M73 1064h2l-1 2z"/><path fill="#f8f8f7" d="m68 1014 2 1-2 1z"/><path fill="#f4f3f4" d="m132 797 2 1-2 1z"/><path fill="#f8f7f9" d="m177 728 2 1-2 1z"/><path fill="#f6f7f4" d="m186 635 2 2h-2z"/><path fill="#fbfbfa" d="m794 571 2 1-2 1z"/><path fill="#eeeeed" d="m876 524 1 2-2-1z"/><path fill="#f1f1f1" d="M181 489h2l-1 2z"/><path fill="#fdfdfb" d="m341 481 2 1-2 1z"/><path fill="#eeeeef" d="m210 421 2 1-2 1z"/><path fill="#f4f6f4" d="M384 318h2l-1 2z"/><path fill="#edecec" d="m619 180 3 1Z"/><path fill="#eff0f0" d="m591 170 3 1Z"/><path fill="#f7f7f7" d="m552 1342 2 1Z"/><path fill="#f6f6f5" d="m590 1339 2 1Z"/><path fill="#f4f5f6" d="m442 1339 2 1Z"/><path fill="#f4f4f4" d="m634 1332 2 1Z"/><path fill="#f5f6f6" d="m396 1332 2 1Z"/><path fill="#f2f4f3" d="m644 1330 2 1Z"/><path fill="#f4f4f5" d="m376 1327 2 1Z"/><path fill="#f5f7f7" d="m371 1326 2 1Z"/><path fill="#f3f4f4" d="m665 1325 2 1Z"/><path fill="#f3f3f4" d="m354 1322 2 1Z"/><path fill="#f0f2f0" d="m302 1306 2 1Z"/><path fill="#f3f4f3" d="m240 1279 2 1Z"/><path fill="#f2f3f1" d="m176 1237 2 1Z"/><path fill="#f1f3f2" d="m931 1134 2 1Z"/><path fill="#eeefee" d="m942 1119 2 1Z"/><path fill="#f2f3f2" d="m949 1090 2 1Z"/><path fill="#f8f7f8" d="m68 1012 2 1Z"/><path fill="#f1f2f0" d="m916 601 2 1Z"/><path fill="#f4f5f4" d="m177 600 2 1Z"/><path fill="#ebeceb" d="m910 570 2 1Z"/><path fill="#f1f2f1" d="m881 529 2 1Z"/><path fill="#f3f3f3" d="m841 520 2 1Z"/><path fill="#eeeeed" d="m860 518 2 1Z"/><path fill="#f3f2f1" d="m844 518 2 1Z"/><path fill="#f5f5f4" d="m796 518 2 1Z"/><path fill="#f7f7f7" d="m788 518 2 1Z"/><path fill="#f5f5f5" d="m782 491 2 1Z"/><path fill="#f2f1f0" d="m236 389 2 1Z"/><path fill="#f0f0f0" d="m747 372 2 1Z"/><path fill="#f0f0ef" d="m726 347 2 1Z"/><path fill="#f9f7f7" d="m663 336 2 1Z"/><path fill="#f6f7f8" d="m676 332 2 1Z"/><path fill="#f4f4f4" d="m387 313 2 1Z"/><path fill="#f2f1f1" d="m471 219 2 1Z"/><path fill="#edeeef" d="m488 205 2 1Z"/><path fill="#ececea" d="m622 181 2 1Z"/><path fill="#f1f0ee" d="m540 180 2 1Z"/><path fill="#f1f1f0" d="m566 172 2 1Z"/><path fill="#f2f3f1" d="m572 171 2 1Z"/></svg>