<svg xmlns="http://www.w3.org/2000/svg" viewBox="0 0 512 512">
  <defs>
    <linearGradient id="flame" x1="0" y1="0" x2="0" y2="1">
      <stop offset="0%" stop-color="#ffcc33"/>
      <stop offset="60%" stop-color="#ff8c00"/>
      <stop offset="100%" stop-color="#ff6a00"/>
    </linearGradient>
    <linearGradient id="inner" x1="0" y1="0" x2="0" y2="1">
      <stop offset="0%" stop-color="#fff0a8"/>
      <stop offset="100%" stop-color="#ffb347"/>
    </linearGradient>
  </defs>
  <!-- Outer flame -->
  <path d="M256 48
           C280 108 356 132 360 220
           C364 300 300 320 300 368
           C300 412 332 424 352 424
           C284 488 172 472 140 392
           C112 324 160 268 188 240
           C216 212 220 176 206 140
           C238 156 250 142 256 112 Z"
        fill="url(#flame)"/>
  <!-- Inner flame -->
  <path d="M264 200
           C280 236 260 260 240 284
           C220 308 230 344 252 360
           C220 374 180 352 176 312
           C172 268 216 236 232 220
           C248 204 256 194 264 200 Z"
        fill="url(#inner)"/>
</svg>