<?xml version="1.0" encoding="UTF-8"?>
<svg version="1.1" xmlns="http://www.w3.org/2000/svg" width="1024" height="1024">
<path d="M0 0 C16.26493308 14.35100314 28.42844302 31.40575176 38.83691406 50.32250977 C40.04734375 50.10594727 40.04734375 50.10594727 41.28222656 49.88500977 C62.28477478 46.67442915 84.30104128 46.56527476 104.83691406 52.32250977 C105.50674316 52.50442871 106.17657227 52.68634766 106.86669922 52.8737793 C140.92619718 62.37579331 169.86204003 86.46218876 187.48535156 116.76782227 C198.83691406 137.13689543 198.83691406 137.13689543 198.83691406 146.32250977 C199.49691406 146.65250977 200.15691406 146.98250977 200.83691406 147.32250977 C201.32348633 149.04638672 201.32348633 149.04638672 201.65332031 151.31079102 C201.77690918 152.15327393 201.90049805 152.99575684 202.02783203 153.86376953 C202.1504541 154.77827881 202.27307617 155.69278809 202.39941406 156.63500977 C202.59881592 158.03481079 202.59881592 158.03481079 202.80224609 159.46289062 C203.80583045 166.9395313 204.24609844 174.37916523 204.19458008 181.92333984 C204.22389645 186.84282624 204.22389645 186.84282624 207.17285156 190.66235352 C208.4915625 191.48413086 208.4915625 191.48413086 209.83691406 192.32250977 C217.68120328 200.23876494 224.82686259 209.59107234 229.76660156 219.58032227 C230.86792455 221.64549677 230.86792455 221.64549677 233.83691406 223.32250977 C233.17691406 223.32250977 232.51691406 223.32250977 231.83691406 223.32250977 C232.13984375 223.9193457 232.44277344 224.51618164 232.75488281 225.13110352 C245.88463982 252.31980033 246.78854933 281.67229074 237.19628906 310.22973633 C232.43728874 323.78043637 225.16543942 335.40652981 215.83691406 346.32250977 C215.17304687 347.13204102 214.50917969 347.94157227 213.82519531 348.77563477 C195.38295331 370.4563481 167.15680576 384.84682809 138.83691406 387.32250977 C123.07671813 388.06006988 108.12180996 387.28811248 92.83691406 383.32250977 C92.37542969 384.25450195 91.91394531 385.18649414 91.43847656 386.14672852 C84.11673046 400.61794434 74.6775033 411.74522282 63.33691406 423.19750977 C62.84649628 423.69605469 62.35607849 424.19459961 61.85079956 424.70825195 C50.74475512 435.95164252 38.29795739 446.85535273 21.79785156 447.42797852 C13.24437786 447.15238927 7.31248543 444.31803427 -0.16308594 440.32250977 C1.98310857 540.66025697 1.98310857 540.66025697 48.69238281 625.08422852 C50.71377706 626.86426226 52.7702555 628.59515335 54.83691406 630.32250977 C57.1330813 632.27558816 59.42272309 634.23626212 61.71191406 636.19750977 C62.31527588 636.71434326 62.9186377 637.23117676 63.5402832 637.76367188 C67.20194555 640.90541072 70.85074642 644.06017335 74.46191406 647.26000977 C75.21730469 647.9290332 75.97269531 648.59805664 76.75097656 649.28735352 C82.10048796 654.50663337 85.88813148 660.05177855 86.27441406 667.69750977 C86.04821027 672.80449534 84.80449725 677.12696113 81.83691406 681.32250977 C76.06454641 686.3746554 70.47827117 688.79552214 62.75048828 688.69311523 C55.91739564 687.8239486 49.37717424 685.1459948 42.89941406 682.88500977 C41.27270002 682.32841402 39.64557872 681.77300721 38.01806641 681.21875 C34.00334814 679.84795274 29.99414654 678.46184758 25.98699951 677.0690918 C23.00286271 676.03289906 20.01557395 675.005927 17.02832031 673.97875977 C12.94686204 672.57179644 8.86762709 671.15861844 4.79003906 669.74047852 C3.16291992 669.17466064 3.16291992 669.17466064 1.50292969 668.59741211 C-0.43178248 667.92459199 -2.36647742 667.25172224 -4.30102539 666.57843018 C-24.12542673 659.68153136 -43.90167022 652.84694521 -64.16308594 647.32250977 C-65.72211805 649.66105793 -66.94201437 651.80619517 -68.15917969 654.31469727 C-75.45481418 669.00744176 -83.49062422 682.89145475 -99.22558594 689.63500977 C-112.02700316 692.63108614 -122.54628342 689.61368916 -134.47558594 684.57250977 C-136.11297729 683.90034424 -136.11297729 683.90034424 -137.78344727 683.21459961 C-140.91472085 681.92829628 -144.03970899 680.62784857 -147.16308594 679.32250977 C-160.8486158 673.62910453 -174.46744937 668.25647058 -189.47558594 668.07250977 C-191.32603516 668.03383789 -191.32603516 668.03383789 -193.21386719 667.99438477 C-207.83778153 668.5707362 -221.95319249 673.05490854 -235.85058594 677.26000977 C-237.62961871 677.79149357 -239.40891512 678.32209568 -241.18847656 678.85180664 C-244.61232487 679.87166708 -248.03523646 680.89457843 -251.45751953 681.91967773 C-281.42023402 690.87327404 -281.42023402 690.87327404 -293.16308594 685.32250977 C-297.82544515 682.36663497 -301.29635921 678.76254143 -302.66699219 673.32250977 C-303.81051647 666.38914149 -302.44847902 660.90436593 -298.68261719 655.00219727 C-294.75173978 649.69506301 -290.27593956 645.46259824 -285.16308594 641.32250977 C-283.90129762 640.29655365 -282.63958606 639.27050314 -281.37792969 638.24438477 C-279.26717498 636.52989158 -277.15559704 634.81644745 -275.04199219 633.10546875 C-266.57878086 627.08854957 -266.57878086 627.08854957 -260.16308594 619.32250977 C-260.82308594 619.32250977 -261.48308594 619.32250977 -262.16308594 619.32250977 C-263.05061015 617.76046714 -263.9376679 616.19815869 -264.82324219 614.63500977 C-265.80861452 612.93430883 -266.82040143 611.24884363 -267.84667969 609.57250977 C-276.84270736 594.71455439 -281.6964616 578.83963607 -277.47949219 561.51391602 C-270.89510324 540.88283065 -252.23593726 530.66001023 -234.16308594 521.32250977 C-233.4331543 520.93562988 -232.70322266 520.54875 -231.95117188 520.15014648 C-231.24508789 519.7829248 -230.53900391 519.41570313 -229.81152344 519.03735352 C-229.18165527 518.70727295 -228.55178711 518.37719238 -227.90283203 518.03710938 C-226.16308594 517.32250977 -226.16308594 517.32250977 -223.16308594 517.32250977 C-218.05440669 490.11131996 -215.15727922 462.97401562 -214.16308594 435.32250977 C-215.27425781 435.5274707 -216.38542969 435.73243164 -217.53027344 435.94360352 C-250.45298537 441.94066367 -282.43792263 438.87806751 -310.85864258 419.68286133 C-323.03076971 411.05063102 -333.85785978 400.780349 -342.16308594 388.32250977 C-344.53811905 387.72470392 -344.53811905 387.72470392 -347.34277344 387.58422852 C-348.4069751 387.48996582 -349.47117676 387.39570312 -350.56762695 387.29858398 C-352.28550415 387.15573975 -352.28550415 387.15573975 -354.03808594 387.01000977 C-378.7797498 384.51188174 -399.10383516 376.27484158 -418.16308594 360.32250977 C-418.95972656 359.68958008 -419.75636719 359.05665039 -420.57714844 358.40454102 C-431.4229622 349.41746212 -439.13476574 337.3734267 -446.16308594 325.32250977 C-446.70964844 324.45754883 -447.25621094 323.59258789 -447.81933594 322.70141602 C-449.08673439 320.45767863 -449.61373855 318.80853947 -450.16308594 316.32250977 C-450.9439095 314.19350162 -451.73706507 312.06900138 -452.53808594 309.94750977 C-462.4462886 282.53195623 -460.95723584 252.903266 -449.14379883 226.30932617 C-443.15503393 213.54923544 -434.00083318 199.65525584 -423.07568359 190.59057617 C-420.49191294 187.52659489 -420.44983743 185.29528815 -420.11621094 181.32641602 C-420.02481842 180.32057716 -420.02481842 180.32057716 -419.93157959 179.29441833 C-419.7418709 177.15901567 -419.57741553 175.02249925 -419.41308594 172.88500977 C-419.28838553 171.45192678 -419.16209942 170.01898085 -419.03417969 168.58618164 C-418.32031799 160.46714378 -418.32031799 160.46714378 -418.16308594 152.32250977 C-417.50308594 152.32250977 -416.84308594 152.32250977 -416.16308594 152.32250977 C-416.0509375 151.33250977 -415.93878906 150.34250977 -415.82324219 149.32250977 C-411.70215375 120.76874224 -390.04184723 94.01061653 -368.20605469 76.58813477 C-346.44996193 60.38976018 -320.48591955 49.67027286 -293.16308594 48.32250977 C-292.10476563 48.2696582 -291.04644531 48.21680664 -289.95605469 48.16235352 C-278.29936046 47.87188335 -265.29195339 48.61288728 -254.16308594 52.32250977 C-254.08832031 51.6612207 -254.01355469 50.99993164 -253.93652344 50.31860352 C-252.88386605 46.24088526 -250.93543108 42.98503045 -248.78808594 39.38500977 C-248.34327881 38.63646729 -247.89847168 37.8879248 -247.44018555 37.11669922 C-229.23227712 7.13898513 -229.23227712 7.13898513 -217.16308594 2.32250977 C-217.16308594 1.66250977 -217.16308594 1.00250977 -217.16308594 0.32250977 C-215.07528475 -1.49153075 -212.98263184 -3.1885932 -210.78808594 -4.86499023 C-210.14468262 -5.36111816 -209.5012793 -5.85724609 -208.83837891 -6.3684082 C-206.95341966 -7.81399836 -205.06018821 -9.24788817 -203.16308594 -10.67749023 C-202.30714844 -11.32588867 -201.45121094 -11.97428711 -200.56933594 -12.64233398 C-189.10594007 -20.98470255 -176.80327729 -27.16211142 -163.55029297 -32.11474609 C-162.73286621 -32.4229126 -161.91543945 -32.7310791 -161.07324219 -33.04858398 C-160.34242432 -33.31598389 -159.61160645 -33.58338379 -158.85864258 -33.85888672 C-156.9678121 -34.55884636 -156.9678121 -34.55884636 -156.16308594 -36.67749023 C-154.12031515 -36.91985287 -152.07559621 -37.15007705 -150.02636719 -37.32983398 C-145.54245615 -37.8742652 -141.18499321 -38.94093763 -136.78808594 -39.95874023 C-87.34064244 -49.76297472 -37.36670629 -32.44332131 0 0 Z M51.05688477 377.61669922 C50.46480225 378.21699951 49.87271973 378.8172998 49.26269531 379.43579102 C48.26761963 380.43461304 48.26761963 380.43461304 47.25244141 381.45361328 C46.55844238 382.17347412 45.86444336 382.89333496 45.14941406 383.63500977 C44.43479004 384.36324951 43.72016602 385.09148926 42.98388672 385.84179688 C38.27255271 390.6937757 33.84590016 395.66233784 29.67285156 400.98657227 C27.96708958 403.15688219 26.18137228 405.20772527 24.33691406 407.26000977 C22.06593844 410.0419549 21.46568844 411.01429913 20.83691406 414.32250977 C26.32203824 413.88369983 29.46867113 412.64617287 33.83691406 409.32250977 C34.78566406 408.62125977 35.73441406 407.92000977 36.71191406 407.19750977 C37.41316406 406.57875977 38.11441406 405.96000977 38.83691406 405.32250977 C38.83691406 404.66250977 38.83691406 404.00250977 38.83691406 403.32250977 C39.82691406 402.99250977 40.81691406 402.66250977 41.83691406 402.32250977 C43.41708174 400.80181004 43.41708174 400.80181004 44.96191406 398.88500977 C48.4705377 394.71805163 52.16229224 390.7588597 55.91894531 386.81469727 C58.0309595 384.07036926 58.92728244 381.64338712 59.83691406 378.32250977 C56.59607875 376.16195289 54.45199406 375.14824847 51.05688477 377.61669922 Z M-243.12011719 563.13891602 C-246.69871331 567.17027856 -247.92638614 570.00285177 -248.47558594 575.38500977 C-248.04829336 580.76889622 -246.17888812 585.34599813 -244.16308594 590.32250977 C-243.17308594 590.32250977 -242.18308594 590.32250977 -241.16308594 590.32250977 C-237.87844183 583.72415391 -235.24926516 576.99007481 -232.91308594 570.01000977 C-232.6551123 569.24575684 -232.39713867 568.48150391 -232.13134766 567.6940918 C-230.7823554 563.58608277 -229.73772462 559.62545893 -229.16308594 555.32250977 C-234.14294038 555.32250977 -239.60246421 559.87402852 -243.12011719 563.13891602 Z " fill="#30A41A" transform="translate(620.1630859375,164.677490234375)"/>
<path d="M0 0 C3.93364832 0.55554942 5.76226358 2.40318865 8.5625 5.125 C22.1125864 17.64345464 38.68269363 25.55290771 57.13671875 26.7890625 C59 27 59 27 60 28 C60.12369325 29.9935143 60.1779639 31.9913647 60.20532227 33.98852539 C60.22526749 35.26977798 60.24521271 36.55103058 60.26576233 37.87110901 C60.28274797 39.27995684 60.29962673 40.68880595 60.31640625 42.09765625 C60.33696915 43.53112905 60.35796544 44.96459569 60.37937927 46.39805603 C60.43466859 50.1775312 60.48404745 53.9570617 60.53222656 57.7366333 C60.58239165 61.59074855 60.63810371 65.44478309 60.69335938 69.29882812 C60.80102479 76.86581714 60.90245097 84.4328731 61 92 C61.6770549 91.37786621 62.3541098 90.75573242 63.05168152 90.11474609 C63.94494644 89.30086426 64.83821136 88.48698242 65.75854492 87.6484375 C66.64184982 86.84067871 67.52515472 86.03291992 68.43522644 85.20068359 C71.61343065 82.4736507 74.52882927 80.78256741 78.3125 79 C79.46363281 78.443125 80.61476563 77.88625 81.80078125 77.3125 C93.67757966 72.43996732 106.36758282 74.6059672 118 79 C118 82.54266871 117.53482381 82.8633005 115.18359375 85.328125 C114.58353516 85.96363281 113.98347656 86.59914063 113.36523438 87.25390625 C112.72908203 87.91261719 112.09292969 88.57132812 111.4375 89.25 C110.82841797 89.89324219 110.21933594 90.53648437 109.59179688 91.19921875 C107.74102603 93.14595549 105.87260093 95.0742739 104 97 C103.39857178 97.62986816 102.79714355 98.25973633 102.17749023 98.90869141 C98.75067798 102.44037248 95.40396845 105.27936279 91.1875 107.875 C80.64436282 114.72017115 72.15595352 123.52616374 64 133 C62.88625 134.28777344 62.88625 134.28777344 61.75 135.6015625 C57.43458247 141.08283879 56.28011211 144.96410093 56.75390625 151.9453125 C56.83511719 152.62335938 56.91632813 153.30140625 57 154 C58.010625 153.67 59.02125 153.34 60.0625 153 C65.26086626 151.55659045 69.76914257 151.10814332 74.6875 153.625 C78.21563724 155.92146771 80.22762558 158.10077628 82 162 C82.70183617 167.96116541 82.40619958 173.43566346 80 179 C84.34997576 181.24089661 87.27529991 181.16045265 92 180 C94.93718974 178.30546746 97.35501255 176.64498745 99.75 174.25 C100.1625 173.8375 100.575 173.425 101 173 C101.66 173 102.32 173 103 173 C103 172.34 103 171.68 103 171 C105.375 168.375 105.375 168.375 108 166 C108.66 166 109.32 166 110 166 C110.23976563 165.43925781 110.47953125 164.87851562 110.7265625 164.30078125 C112.27010534 161.51198759 114.1830285 159.4996294 116.375 157.1875 C123.0614615 149.98949125 123.0614615 149.98949125 125.125 140.6875 C125.48087729 134.79010495 129.56720023 131.73287691 133.65234375 127.87109375 C136 126 136 126 138 126 C138.23460937 125.43796875 138.46921875 124.8759375 138.7109375 124.296875 C140.30663 121.45364109 142.28924543 119.51901873 144.625 117.25 C145.44226563 116.45078125 146.25953125 115.6515625 147.1015625 114.828125 C147.72804688 114.22484375 148.35453125 113.6215625 149 113 C152 114 152 114 153.09765625 115.56640625 C159.38115375 128.56586868 159.47060087 141.28222471 155 155 C149.018797 169.19301966 138.1662574 180.11757438 127.5 190.875 C127.00976349 191.37318237 126.51952698 191.87136475 126.01443481 192.38464355 C114.90828895 203.62859428 102.46163269 214.53282252 85.9609375 215.10546875 C77.4074638 214.8298795 71.47557137 211.99552451 64 208 C66.14619451 308.33774721 66.14619451 308.33774721 112.85546875 392.76171875 C114.876863 394.54175249 116.93334144 396.27264359 119 398 C121.29616724 399.95307839 123.58580902 401.91375235 125.875 403.875 C126.47836182 404.3918335 127.08172363 404.90866699 127.70336914 405.44116211 C131.36503149 408.58290096 135.01383236 411.73766358 138.625 414.9375 C139.75808594 415.94103516 139.75808594 415.94103516 140.9140625 416.96484375 C146.2635739 422.1841236 150.05121741 427.72926879 150.4375 435.375 C150.21129621 440.48198557 148.96758318 444.80445136 146 449 C140.22763235 454.05214563 134.64135711 456.47301238 126.91357422 456.37060547 C120.08048158 455.50143883 113.54026017 452.82348503 107.0625 450.5625 C105.43578596 450.00590425 103.80866466 449.45049745 102.18115234 448.89624023 C98.16643408 447.52544298 94.15723248 446.13933781 90.15008545 444.74658203 C87.16594865 443.7103893 84.17865988 442.68341723 81.19140625 441.65625 C77.10994798 440.24928667 73.03071302 438.83610867 68.953125 437.41796875 C67.32600586 436.85215088 67.32600586 436.85215088 65.66601562 436.27490234 C63.73130346 435.60208222 61.79660852 434.92921247 59.86206055 434.25592041 C40.0376592 427.35902159 20.26141572 420.52443544 0 415 C-1.55903211 417.33854817 -2.77892844 419.48368541 -3.99609375 421.9921875 C-11.29172824 436.68493199 -19.32753829 450.56894498 -35.0625 457.3125 C-47.86391723 460.30857637 -58.38319748 457.2911794 -70.3125 452.25 C-71.40409424 451.80188965 -72.49568848 451.3537793 -73.62036133 450.89208984 C-76.75163491 449.60578652 -79.87662305 448.30533881 -83 447 C-96.68552987 441.30659476 -110.30436343 435.93396082 -125.3125 435.75 C-126.54613281 435.72421875 -127.77976562 435.6984375 -129.05078125 435.671875 C-143.67469559 436.24822644 -157.79010656 440.73239878 -171.6875 444.9375 C-173.46653277 445.46898381 -175.24582918 445.99958592 -177.02539062 446.52929688 C-180.44923893 447.54915731 -183.87215053 448.57206867 -187.29443359 449.59716797 C-217.25714808 458.55076428 -217.25714808 458.55076428 -229 453 C-233.66235921 450.0441252 -237.13327327 446.44003166 -238.50390625 441 C-239.64743053 434.06663172 -238.28539308 428.58185617 -234.51953125 422.6796875 C-230.58865384 417.37255325 -226.11285363 413.14008848 -221 409 C-219.73821169 407.97404388 -218.47650012 406.94799337 -217.21484375 405.921875 C-215.10408904 404.20738182 -212.9925111 402.49393768 -210.87890625 400.78295898 C-202.41569492 394.76603981 -202.41569492 394.76603981 -196 387 C-196.66 387 -197.32 387 -198 387 C-198.88752422 385.43795738 -199.77458196 383.87564893 -200.66015625 382.3125 C-201.64552858 380.61179907 -202.65731549 378.92633386 -203.68359375 377.25 C-212.67962142 362.39204462 -217.53337566 346.5171263 -213.31640625 329.19140625 C-206.7320173 308.56032088 -188.07285132 298.33750046 -170 289 C-169.27006836 288.61312012 -168.54013672 288.22624023 -167.78808594 287.82763672 C-167.08200195 287.46041504 -166.37591797 287.09319336 -165.6484375 286.71484375 C-165.01856934 286.38476318 -164.38870117 286.05468262 -163.73974609 285.71459961 C-162 285 -162 285 -159 285 C-154.50383427 261.05134068 -151.38734345 236.98110329 -150.34106445 212.63061523 C-150.10019778 207.36560413 -150.10019778 207.36560413 -149.48988152 205.13866711 C-148.87400825 202.44996006 -148.89470074 199.98576612 -148.915802 197.22663879 C-148.92190994 196.04775085 -148.92801788 194.86886292 -148.93431091 193.6542511 C-148.94583694 192.36431747 -148.95736298 191.07438385 -148.96923828 189.74536133 C-148.97766823 188.37023253 -148.98550133 186.99509996 -148.99278259 185.6199646 C-149.00453239 183.42317147 -149.01673002 181.2263883 -149.03075147 179.02960837 C-149.06535453 173.57974947 -149.08147955 168.13006245 -149.08639526 162.68009949 C-149.08712795 161.88842135 -149.08786064 161.09674321 -149.08861554 160.28107482 C-149.09127994 157.01566092 -149.09332667 153.75024691 -149.0950911 150.48483241 C-149.10087168 141.22315029 -149.12460981 131.96231189 -149.20214844 122.70092773 C-149.26365793 115.33960619 -149.28617301 107.97932115 -149.26333606 100.61776179 C-149.25271732 96.72494917 -149.26151932 92.83440404 -149.31766129 88.94193459 C-149.37009425 85.27594954 -149.37053635 81.61352453 -149.33229256 77.94739914 C-149.32496996 75.97252233 -149.37196781 73.99767396 -149.42097473 72.02339172 C-149.32289851 66.7267842 -149.19230483 63.35798623 -145.61416245 59.28262901 C-142.83466145 57.00249736 -139.98079305 55.00516694 -137 53 C-131.30187689 47.94896968 -126.96670802 42.49097676 -123 36 C-118.2261448 36.90118695 -113.90988955 39.23753213 -109.546875 41.296875 C-90.49503879 49.93666119 -66.89039516 50.00796015 -47.35546875 42.83203125 C-36.2889686 38.34482604 -26.89479573 31.97415604 -18 24 C-17.29359375 23.38769531 -16.5871875 22.77539062 -15.859375 22.14453125 C-9.24396757 16.03699959 -4.02060247 8.04120494 0 0 Z M-178.95703125 330.81640625 C-182.53562738 334.8477688 -183.7633002 337.680342 -184.3125 343.0625 C-183.88520742 348.44638645 -182.01580218 353.02348836 -180 358 C-179.01 358 -178.02 358 -177 358 C-173.7153559 351.40164415 -171.08617922 344.66756504 -168.75 337.6875 C-168.49202637 336.92324707 -168.23405273 336.15899414 -167.96826172 335.37158203 C-166.61926946 331.263573 -165.57463868 327.30294916 -165 323 C-169.97985444 323 -175.43937827 327.55151876 -178.95703125 330.81640625 Z " fill="#FDC209" transform="translate(556,397)"/>
<path d="M0 0 C16.26493308 14.35100314 28.42844302 31.40575176 38.83691406 50.32250977 C40.04734375 50.10594727 40.04734375 50.10594727 41.28222656 49.88500977 C62.28477478 46.67442915 84.30104128 46.56527476 104.83691406 52.32250977 C105.50674316 52.50442871 106.17657227 52.68634766 106.86669922 52.8737793 C140.92619718 62.37579331 169.86204003 86.46218876 187.48535156 116.76782227 C198.83691406 137.13689543 198.83691406 137.13689543 198.83691406 146.32250977 C199.49691406 146.65250977 200.15691406 146.98250977 200.83691406 147.32250977 C201.3701863 149.9710952 201.7705464 152.52234199 202.08691406 155.19750977 C202.24160156 156.29772461 202.24160156 156.29772461 202.39941406 157.42016602 C203.08448991 162.951146 203.08448991 162.951146 200.83691406 166.32250977 C200.2890625 165.77723633 199.74121094 165.23196289 199.17675781 164.67016602 C192.66806811 158.47897337 185.81195174 153.97439648 178.02319336 149.57714844 C176.37997674 148.63415679 174.75085927 147.66652915 173.12915039 146.68701172 C166.05228039 142.44065809 158.89299885 138.92342002 151.27441406 135.76000977 C150.1483374 135.28821289 149.02226074 134.81641602 147.86206055 134.33032227 C138.34369004 130.40594547 128.73490631 127.13395272 118.83691406 124.32250977 C117.7734375 124.00797852 116.70996094 123.69344727 115.61425781 123.36938477 C109.42500481 121.59356534 103.1881566 120.36671792 96.83691406 119.32250977 C97.16046875 119.97348633 97.48402344 120.62446289 97.81738281 121.29516602 C99.13199665 125.19871286 99.16717676 128.67103599 99.14941406 132.76000977 C99.16552734 133.49799805 99.18164062 134.23598633 99.19824219 134.99633789 C99.203462 140.86863119 98.01257423 144.98455237 93.89941406 149.40454102 C93.21878906 149.9755957 92.53816406 150.54665039 91.83691406 151.13500977 C91.15628906 151.71895508 90.47566406 152.30290039 89.77441406 152.90454102 C84.05287247 157.09187891 74.63273418 156.14412251 67.83691406 155.32250977 C55.93912688 151.67544937 41.69358728 138.60751958 34.83691406 128.32250977 C35.00191406 129.35375977 35.16691406 130.38500977 35.33691406 131.44750977 C36.48836812 140.84270739 37.93819065 153.22601754 32.39160156 161.47094727 C27.03917098 167.92746666 21.23369078 172.7831007 12.83691406 174.32250977 C-1.55491365 175.59975597 -13.73254087 171.0621828 -24.92871094 162.11157227 C-29.79345621 157.84399632 -34.02691038 153.28592043 -38.16308594 148.32250977 C-38.82308594 147.99250977 -39.48308594 147.66250977 -40.16308594 147.32250977 C-40.42863281 148.05856445 -40.69417969 148.79461914 -40.96777344 149.55297852 C-46.66503986 162.75350758 -59.45766086 172.141901 -72.23730469 177.64672852 C-88.59260198 183.26947849 -106.34161041 181.6435749 -122.16308594 175.32250977 C-123.82942104 174.71742922 -125.49601325 174.11305519 -127.16308594 173.51000977 C-128.15308594 173.11813477 -129.14308594 172.72625977 -130.16308594 172.32250977 C-130.43121094 172.91676758 -130.69933594 173.51102539 -130.97558594 174.12329102 C-140.72867075 194.7523487 -158.89555663 212.34104696 -180.41699219 220.40063477 C-181.32320313 220.70485352 -182.22941406 221.00907227 -183.16308594 221.32250977 C-184.05898438 221.62672852 -184.95488281 221.93094727 -185.87792969 222.24438477 C-201.74991482 227.30432589 -218.13952414 226.89363512 -233.04174805 219.33935547 C-241.81257543 214.57268002 -248.28467783 207.54103758 -252.16308594 198.32250977 C-252.16308594 197.66250977 -252.16308594 197.00250977 -252.16308594 196.32250977 C-254.97694692 199.03123748 -257.37609563 201.831771 -259.72558594 204.94750977 C-273.35586802 222.00411964 -295.23528828 236.51425393 -317.16308594 239.32250977 C-330.54755196 240.29319411 -343.21921713 240.0069992 -354.16308594 231.32250977 C-359.59763489 226.2823045 -362.76923975 220.89862733 -363.40917969 213.46313477 C-363.54618194 207.11267719 -362.79692729 201.44941482 -361.16308594 195.32250977 C-361.9790625 195.83297852 -362.79503906 196.34344727 -363.63574219 196.86938477 C-387.59744539 211.66030324 -417.86376218 229.64338092 -447.16308594 228.32250977 C-446.54198482 225.46417708 -445.64691816 223.09600442 -444.28808594 220.51000977 C-442.97844155 217.9882477 -441.90537126 215.62668012 -440.91308594 212.94750977 C-437.00730943 203.68703967 -428.18114124 195.34056507 -421.16308594 188.32250977 C-420.86217209 186.09427386 -420.62286026 183.85767094 -420.40917969 181.61938477 C-420.3440065 180.94458069 -420.27883331 180.26977661 -420.21168518 179.57452393 C-420.07430362 178.14225116 -419.93910879 176.70976725 -419.8059082 175.27709961 C-419.60268917 173.09509263 -419.39226644 170.91387422 -419.18066406 168.73266602 C-418.3589764 160.54373112 -418.3589764 160.54373112 -418.16308594 152.32250977 C-417.50308594 152.32250977 -416.84308594 152.32250977 -416.16308594 152.32250977 C-416.0509375 151.33250977 -415.93878906 150.34250977 -415.82324219 149.32250977 C-411.70215375 120.76874224 -390.04184723 94.01061653 -368.20605469 76.58813477 C-346.44996193 60.38976018 -320.48591955 49.67027286 -293.16308594 48.32250977 C-292.10476563 48.2696582 -291.04644531 48.21680664 -289.95605469 48.16235352 C-278.29936046 47.87188335 -265.29195339 48.61288728 -254.16308594 52.32250977 C-254.08832031 51.6612207 -254.01355469 50.99993164 -253.93652344 50.31860352 C-252.88386605 46.24088526 -250.93543108 42.98503045 -248.78808594 39.38500977 C-248.34327881 38.63646729 -247.89847168 37.8879248 -247.44018555 37.11669922 C-229.23227712 7.13898513 -229.23227712 7.13898513 -217.16308594 2.32250977 C-217.16308594 1.66250977 -217.16308594 1.00250977 -217.16308594 0.32250977 C-215.07528475 -1.49153075 -212.98263184 -3.1885932 -210.78808594 -4.86499023 C-210.14468262 -5.36111816 -209.5012793 -5.85724609 -208.83837891 -6.3684082 C-206.95341966 -7.81399836 -205.06018821 -9.24788817 -203.16308594 -10.67749023 C-202.30714844 -11.32588867 -201.45121094 -11.97428711 -200.56933594 -12.64233398 C-189.10594007 -20.98470255 -176.80327729 -27.16211142 -163.55029297 -32.11474609 C-162.73286621 -32.4229126 -161.91543945 -32.7310791 -161.07324219 -33.04858398 C-160.34242432 -33.31598389 -159.61160645 -33.58338379 -158.85864258 -33.85888672 C-156.9678121 -34.55884636 -156.9678121 -34.55884636 -156.16308594 -36.67749023 C-154.12031515 -36.91985287 -152.07559621 -37.15007705 -150.02636719 -37.32983398 C-145.54245615 -37.8742652 -141.18499321 -38.94093763 -136.78808594 -39.95874023 C-87.34064244 -49.76297472 -37.36670629 -32.44332131 0 0 Z " fill="#56C110" transform="translate(620.1630859375,164.677490234375)"/>
<path d="M0 0 C3.93364832 0.55554942 5.76226358 2.40318865 8.5625 5.125 C22.1125864 17.64345464 38.68269363 25.55290771 57.13671875 26.7890625 C59 27 59 27 60 28 C60.1309322 30.01748764 60.19137516 32.0395765 60.22460938 34.06103516 C60.25838684 36.00908554 60.25838684 36.00908554 60.29284668 37.99649048 C60.36841836 43.9605632 60.42158456 49.92474111 60.45996094 55.88916016 C60.4821998 59.03620226 60.52390438 62.18205154 60.58300781 65.32861328 C60.65426418 69.129499 60.69081767 72.92926602 60.70307922 76.73078537 C60.71345607 78.17650325 60.7358248 79.62218895 60.77067566 81.06752396 C61.02938058 92.38652135 61.02938058 92.38652135 58.45956421 96.41452026 C56.72808498 98.15535809 54.99380719 99.57642246 53 101 C51.85647192 102.27529263 50.72672398 103.56342383 49.625 104.875 C47.05223505 107.87463627 44.34663642 110.63450934 41.5 113.375 C31.72501269 123.08337751 24.9866807 134.51723901 24.6875 148.5 C24.78040779 159.66054862 28.0514121 169.0514121 36 177 C26.58997722 188.52164009 26.58997722 188.52164009 22 194 C19.99307401 193.00101675 17.99097016 191.99532635 16 190.96484375 C15.01 190.45630859 15.01 190.45630859 14 189.9375 C13.34 189.59589844 12.68 189.25429688 12 188.90234375 C3.50944509 185.07164417 -6.41483349 186.3908228 -14.88671875 189.56640625 C-27.01731145 195.15226261 -37.01640208 203.88771384 -47.13623047 212.44042969 C-49.48816701 214.40848977 -51.89461742 216.30131873 -54.3125 218.1875 C-55.87971966 219.45250836 -57.44199795 220.7236563 -59 222 C-59.99773437 222.80308594 -60.99546875 223.60617187 -62.0234375 224.43359375 C-70.62738446 231.63099859 -77.49432671 240.47381138 -79 252 C-79.48267127 261.24501125 -79.58668133 269.3321868 -76 278 C-76 278.99 -76 279.98 -76 281 C-78.3718026 282.67368712 -80.67594319 284.13032853 -83.1875 285.5625 C-83.86103516 285.96146484 -84.53457031 286.36042969 -85.22851562 286.77148438 C-88.73264652 288.81926428 -92.1669778 290.62308911 -96 292 C-96.4125 291.48050781 -96.825 290.96101563 -97.25 290.42578125 C-104.53157634 281.63262767 -111.70077517 277.871023 -123 276 C-135.78238771 274.80573312 -147.73157036 279.27270144 -159 285 C-158.87882812 284.35458252 -158.75765625 283.70916504 -158.6328125 283.04418945 C-154.3187731 259.73800642 -151.35872015 236.31494136 -150.34106445 212.63061523 C-150.10019778 207.36560413 -150.10019778 207.36560413 -149.48988152 205.13866711 C-148.87400825 202.44996006 -148.89470074 199.98576612 -148.915802 197.22663879 C-148.92190994 196.04775085 -148.92801788 194.86886292 -148.93431091 193.6542511 C-148.94583694 192.36431747 -148.95736298 191.07438385 -148.96923828 189.74536133 C-148.97766823 188.37023253 -148.98550133 186.99509996 -148.99278259 185.6199646 C-149.00453239 183.42317147 -149.01673002 181.2263883 -149.03075147 179.02960837 C-149.06535453 173.57974947 -149.08147955 168.13006245 -149.08639526 162.68009949 C-149.08712795 161.88842135 -149.08786064 161.09674321 -149.08861554 160.28107482 C-149.09127994 157.01566092 -149.09332667 153.75024691 -149.0950911 150.48483241 C-149.10087168 141.22315029 -149.12460981 131.96231189 -149.20214844 122.70092773 C-149.26365793 115.33960619 -149.28617301 107.97932115 -149.26333606 100.61776179 C-149.25271732 96.72494917 -149.26151932 92.83440404 -149.31766129 88.94193459 C-149.37009425 85.27594954 -149.37053635 81.61352453 -149.33229256 77.94739914 C-149.32496996 75.97252233 -149.37196781 73.99767396 -149.42097473 72.02339172 C-149.32289851 66.7267842 -149.19230483 63.35798623 -145.61416245 59.28262901 C-142.83466145 57.00249736 -139.98079305 55.00516694 -137 53 C-131.30187689 47.94896968 -126.96670802 42.49097676 -123 36 C-118.2261448 36.90118695 -113.90988955 39.23753213 -109.546875 41.296875 C-90.49503879 49.93666119 -66.89039516 50.00796015 -47.35546875 42.83203125 C-36.2889686 38.34482604 -26.89479573 31.97415604 -18 24 C-17.29359375 23.38769531 -16.5871875 22.77539062 -15.859375 22.14453125 C-9.24396757 16.03699959 -4.02060247 8.04120494 0 0 Z " fill="#AE661B" transform="translate(556,397)"/>
<path d="M0 0 C3.91902739 3.53976668 4.81798929 5.63528907 5.21777344 10.8293457 C5.26450195 11.93366943 5.31123047 13.03799316 5.359375 14.17578125 C5.4507373 16.09366455 5.4507373 16.09366455 5.54394531 18.05029297 C5.57669556 18.74072693 5.6094458 19.43116089 5.64318848 20.14251709 C8.97438227 113.57291718 8.97438227 113.57291718 53.85546875 191.76171875 C55.876863 193.54175249 57.93334144 195.27264359 60 197 C62.29616724 198.95307839 64.58580902 200.91375235 66.875 202.875 C67.47836182 203.3918335 68.08172363 203.90866699 68.70336914 204.44116211 C72.36503149 207.58290096 76.01383236 210.73766358 79.625 213.9375 C80.38039063 214.60652344 81.13578125 215.27554688 81.9140625 215.96484375 C87.2635739 221.1841236 91.05121741 226.72926879 91.4375 234.375 C91.21129621 239.48198557 89.96758318 243.80445136 87 248 C81.22763235 253.05214563 75.64135711 255.47301238 67.91357422 255.37060547 C61.08048158 254.50143883 54.54026017 251.82348503 48.0625 249.5625 C46.43578596 249.00590425 44.80866466 248.45049745 43.18115234 247.89624023 C39.16643408 246.52544298 35.15723248 245.13933781 31.15008545 243.74658203 C28.16594865 242.7103893 25.17865988 241.68341723 22.19140625 240.65625 C18.10994798 239.24928667 14.03071302 237.83610867 9.953125 236.41796875 C8.86837891 236.04075684 7.78363281 235.66354492 6.66601562 235.27490234 C4.73130346 234.60208222 2.79660852 233.92921247 0.86206055 233.25592041 C-18.9623408 226.35902159 -38.73858428 219.52443544 -59 214 C-60.55903211 216.33854817 -61.77892844 218.48368541 -62.99609375 220.9921875 C-70.29172824 235.68493199 -78.32753829 249.56894498 -94.0625 256.3125 C-106.86391723 259.30857637 -117.38319748 256.2911794 -129.3125 251.25 C-130.40409424 250.80188965 -131.49568848 250.3537793 -132.62036133 249.89208984 C-135.75163491 248.60578652 -138.87662305 247.30533881 -142 246 C-155.68552987 240.30659476 -169.30436343 234.93396082 -184.3125 234.75 C-185.54613281 234.72421875 -186.77976562 234.6984375 -188.05078125 234.671875 C-202.67469559 235.24822644 -216.79010656 239.73239878 -230.6875 243.9375 C-232.46653277 244.46898381 -234.24582918 244.99958592 -236.02539062 245.52929688 C-239.44923893 246.54915731 -242.87215053 247.57206867 -246.29443359 248.59716797 C-276.25714808 257.55076428 -276.25714808 257.55076428 -288 252 C-292.66235921 249.0441252 -296.13327327 245.44003166 -297.50390625 240 C-298.64743053 233.06663172 -297.28539308 227.58185617 -293.51953125 221.6796875 C-289.58888197 216.37286125 -285.11341813 212.13906254 -280 208 C-278.74996351 206.98572205 -277.49996726 205.97139451 -276.25 204.95703125 C-274.15188044 203.25548479 -272.053051 201.55486934 -269.95141602 199.85766602 C-264.83191889 195.71273684 -259.85010737 191.45940428 -255 187 C-251.68194078 188.4474755 -249.51551934 190.29230539 -246.9375 192.8125 C-242.08833968 197.21429132 -237.08852314 199.69699048 -231 202 C-229.865625 202.433125 -228.73125 202.86625 -227.5625 203.3125 C-202.94577003 208.06309701 -174.55334032 191.33639769 -154.81469727 178.05200195 C-143.66989065 170.16818097 -134.8080781 160.26911885 -132.28125 146.46875 C-131.18088254 136.80996893 -132.19119677 128.27908209 -135 119 C-132.59440447 117.43815812 -130.17816136 115.90101638 -127.75 114.375 C-127.06808594 113.92898438 -126.38617188 113.48296875 -125.68359375 113.0234375 C-123.81455386 111.86209232 -122.04288088 110.81865873 -120 110 C-117.75 110.546875 -117.75 110.546875 -116 112 C-115.38640625 112.45117188 -114.7728125 112.90234375 -114.140625 113.3671875 C-113.51671875 113.86476563 -112.8928125 114.36234375 -112.25 114.875 C-101.7281514 122.86381097 -91.1182917 125.08497149 -78 124 C-61.48961553 121.02533581 -47.54489781 110.55710045 -35 100 C-34.39349609 99.49500977 -33.78699219 98.99001953 -33.16210938 98.46972656 C-29.05201712 95.04178051 -25.00485546 91.5501443 -21 88 C-20.20464844 87.30261719 -19.40929687 86.60523438 -18.58984375 85.88671875 C-7.92045882 75.95740676 -2.05113534 62.0698045 -1.5 47.5625 C-1.94394592 35.39838181 -6.12255883 24.52061969 -12 14 C-11.21753906 13.15695312 -10.43507813 12.31390625 -9.62890625 11.4453125 C-8.60665175 10.33865166 -7.58452284 9.23187479 -6.5625 8.125 C-6.04623047 7.56941406 -5.52996094 7.01382813 -4.99804688 6.44140625 C-2.17895264 3.45250685 -2.17895264 3.45250685 0 0 Z " fill="#AE671B" transform="translate(615,598)"/>
<path d="M0 0 C0 3.54266871 -0.46517619 3.8633005 -2.81640625 6.328125 C-3.41646484 6.96363281 -4.01652344 7.59914063 -4.63476562 8.25390625 C-5.27091797 8.91261719 -5.90707031 9.57132812 -6.5625 10.25 C-7.17158203 10.89324219 -7.78066406 11.53648437 -8.40820312 12.19921875 C-10.25897397 14.14595549 -12.12739907 16.0742739 -14 18 C-14.60142822 18.62986816 -15.20285645 19.25973633 -15.82250977 19.90869141 C-19.24932202 23.44037248 -22.59603155 26.27936279 -26.8125 28.875 C-37.35563718 35.72017115 -45.84404648 44.52616374 -54 54 C-54.7425 54.85851562 -55.485 55.71703125 -56.25 56.6015625 C-60.56541753 62.08283879 -61.71988789 65.96410093 -61.24609375 72.9453125 C-61.12427734 73.96238281 -61.12427734 73.96238281 -61 75 C-59.989375 74.67 -58.97875 74.34 -57.9375 74 C-52.73913374 72.55659045 -48.23085743 72.10814332 -43.3125 74.625 C-39.78436276 76.92146771 -37.77237442 79.10077628 -36 83 C-35.29816383 88.96116541 -35.59380042 94.43566346 -38 100 C-33.65002424 102.24089661 -30.72470009 102.16045265 -26 101 C-23.06281026 99.30546746 -20.64498745 97.64498745 -18.25 95.25 C-17.63125 94.63125 -17.63125 94.63125 -17 94 C-16.34 94 -15.68 94 -15 94 C-15 93.34 -15 92.68 -15 92 C-12.625 89.375 -12.625 89.375 -10 87 C-9.34 87 -8.68 87 -8 87 C-7.76023437 86.43925781 -7.52046875 85.87851562 -7.2734375 85.30078125 C-5.72989466 82.51198759 -3.8169715 80.4996294 -1.625 78.1875 C5.0614615 70.98949125 5.0614615 70.98949125 7.125 61.6875 C7.48087729 55.79010495 11.56720023 52.73287691 15.65234375 48.87109375 C18 47 18 47 20 47 C20.23460937 46.43796875 20.46921875 45.8759375 20.7109375 45.296875 C22.30663 42.45364109 24.28924543 40.51901873 26.625 38.25 C27.85089844 37.05117188 27.85089844 37.05117188 29.1015625 35.828125 C29.72804688 35.22484375 30.35453125 34.6215625 31 34 C34 35 34 35 35.09765625 36.56640625 C41.38115375 49.56586868 41.47060087 62.28222471 37 76 C31.018797 90.19301966 20.1662574 101.11757438 9.5 111.875 C9.00976349 112.37318237 8.51952698 112.87136475 8.01443481 113.38464355 C-3.09171105 124.62859428 -15.53836731 135.53282252 -32.0390625 136.10546875 C-41.5123137 135.80024467 -50.36396012 132.89498303 -57.25 126.125 C-57.8275 125.42375 -58.405 124.7225 -59 124 C-60.27717852 125.22257232 -61.54646031 126.45339645 -62.8125 127.6875 C-63.52019531 128.37199219 -64.22789062 129.05648437 -64.95703125 129.76171875 C-67.9756018 133.0611227 -67.9756018 133.0611227 -70 137 C-68.92029019 140.27129106 -68.92029019 140.27129106 -66.875 143.5625 C-60.21564757 155.77318354 -57.73849147 168.41285123 -61.43774414 182.05273438 C-67.01976312 200.56784854 -80.10788693 212.46628871 -95 224 C-95.59296875 224.46937988 -96.1859375 224.93875977 -96.796875 225.42236328 C-113.18362367 238.37438948 -129.23861608 248.84718724 -151 247 C-160.637871 245.26356793 -168.78349766 240.47634826 -176 234 C-175.505 233.01 -175.505 233.01 -175 232 C-172.03 234.475 -172.03 234.475 -169 237 C-155.12004065 229.20188005 -155.12004065 229.20188005 -146 217 C-146.495 216.01 -146.495 216.01 -147 215 C-146.32195313 214.98582031 -145.64390625 214.97164062 -144.9453125 214.95703125 C-132.20992134 214.30438655 -124.35634146 208.20190047 -115 200 C-114.15308594 199.26394531 -113.30617188 198.52789063 -112.43359375 197.76953125 C-109.92094616 195.5478632 -107.45281747 193.28750219 -105 191 C-104.09507812 190.16082031 -103.19015625 189.32164062 -102.2578125 188.45703125 C-96.29174477 182.74171129 -92.41670695 178.83380062 -91.6875 170.375 C-91.98471086 167.16512276 -92.60190911 164.88356245 -94 162 C-94.81791016 162.45052734 -94.81791016 162.45052734 -95.65234375 162.91015625 C-101.34677165 165.78170536 -105.79743249 166.98575608 -112 165 C-116.77691542 162.08077391 -118.86397658 159.12175652 -120.54296875 153.9375 C-121.10044432 151.57418477 -121.22653935 149.41641974 -121 147 C-120.34 147 -119.68 147 -119 147 C-118.85304688 146.28714844 -118.70609375 145.57429687 -118.5546875 144.83984375 C-116.9689243 138.06845261 -115.00881034 133.80540688 -110 129 C-109.175 128.175 -108.35 127.35 -107.5 126.5 C-106.675 125.675 -105.85 124.85 -105 124 C-101.08187556 119.79476876 -101.08187556 119.79476876 -98 115 C-97.34 115 -96.68 115 -96 115 C-95.77570313 114.45472656 -95.55140625 113.90945313 -95.3203125 113.34765625 C-92.97772507 109.18228629 -89.40609532 105.99191537 -86.1171875 102.55859375 C-83.68124022 100.168279 -83.68124022 100.168279 -84 97 C-85.04580335 95.43845801 -86.16097646 93.92279848 -87.3125 92.4375 C-93.85889558 83.25399366 -95.10081117 74.16890435 -94 63 C-90.66957827 47.3639522 -79.92983897 36.78696182 -68.89453125 25.92578125 C-67.03189301 24.03241908 -65.29165445 22.07785932 -63.5625 20.0625 C-45.93715993 -0.17693545 -26.42182843 -9.98058949 0 0 Z " fill="#FDC20A" transform="translate(674,476)"/>
<path d="M0 0 C3.93364832 0.55554942 5.76226358 2.40318865 8.5625 5.125 C22.1125864 17.64345464 38.68269363 25.55290771 57.13671875 26.7890625 C59 27 59 27 60 28 C60.12568066 30.02822583 60.18081381 32.06084929 60.20874023 34.09277344 C60.22803085 35.39792908 60.24732147 36.70308472 60.26719666 38.04779053 C60.28200379 39.48497532 60.29577722 40.92217108 60.30859375 42.359375 C60.31516558 43.08036629 60.3217374 43.80135757 60.32850838 44.54419708 C60.36113357 48.36245257 60.3855734 52.18067983 60.4050293 55.99902344 C60.42283006 59.15959359 60.45762278 62.31926935 60.50756836 65.47949219 C60.56777866 69.2932999 60.59850617 73.10627947 60.60820198 76.92053986 C60.61675932 78.37345251 60.63558501 79.8263429 60.6649456 81.27898407 C60.88327529 92.69845471 60.88327529 92.69845471 58.62210083 96.03039551 C56.96118164 97.43066406 56.96118164 97.43066406 54 99 C53.59136719 98.24332031 53.18273437 97.48664063 52.76171875 96.70703125 C46.04330173 86.38360998 27.72921556 78.91586107 16 76 C15.25878906 75.79761719 14.51757812 75.59523438 13.75390625 75.38671875 C-12.19186157 69.43659727 -32.46137087 78.23313664 -54.42089844 90.85400391 C-61.30141451 94.80352849 -68.07447485 98.20973968 -75.625 100.6875 C-76.87539063 101.10386719 -78.12578125 101.52023437 -79.4140625 101.94921875 C-102.4289533 108.69323359 -125.99817319 101.54628491 -147 92 C-147 127.31 -147 162.62 -147 199 C-147.33 199 -147.66 199 -148 199 C-148.25731039 181.29318139 -148.45110496 163.58684988 -148.56993389 145.87856388 C-148.62658298 137.65562902 -148.70376777 129.43385772 -148.82983398 121.21166992 C-148.93970153 114.0425423 -149.01049242 106.87425743 -149.03497344 99.70431131 C-149.04927886 95.9096164 -149.0827261 92.11733167 -149.16303062 88.32341194 C-149.23812572 84.74637354 -149.26064942 81.17271871 -149.24418449 77.59496689 C-149.24861909 75.66753002 -149.30760739 73.7404561 -149.36862183 71.8139801 C-149.30069229 66.57994495 -149.16428514 63.31960797 -145.61878395 59.30111504 C-142.8367991 57.01932042 -139.97895881 55.01343845 -137 53 C-131.30272229 47.94752101 -126.96699926 42.49145333 -123 36 C-118.2261448 36.90118695 -113.90988955 39.23753213 -109.546875 41.296875 C-90.49503879 49.93666119 -66.89039516 50.00796015 -47.35546875 42.83203125 C-36.2889686 38.34482604 -26.89479573 31.97415604 -18 24 C-17.29359375 23.38769531 -16.5871875 22.77539062 -15.859375 22.14453125 C-9.24396757 16.03699959 -4.02060247 8.04120494 0 0 Z " fill="#925114" transform="translate(556,397)"/>
<path d="M0 0 C3.18994412 1.49207064 5.97333628 3.3236697 8.875 5.3125 C26.49336046 16.58825069 48.66180599 18.5463901 68.90771484 14.51464844 C77.95142807 12.29012714 87.0742907 8.89001309 95 4 C95.66 4 96.32 4 97 4 C97 38.98 97 73.96 97 110 C64.16286645 110 64.16286645 110 54 106 C53.01515625 105.61457031 52.0303125 105.22914063 51.015625 104.83203125 C48.27293751 103.66146435 45.64181152 102.38187064 43 101 C42.18273437 100.58234375 41.36546875 100.1646875 40.5234375 99.734375 C26.62305642 92.05606926 14.71823397 79.3008152 8 65 C6.95042114 65.0314209 6.95042114 65.0314209 5.87963867 65.06347656 C2.64907736 65.14762934 -0.58125226 65.19897071 -3.8125 65.25 C-4.91271484 65.28351563 -6.01292969 65.31703125 -7.14648438 65.3515625 C-18.84062996 65.48954652 -27.30727457 62.66063849 -35.76953125 54.5078125 C-40.61209628 49.06310716 -46 41.53373239 -46 34 C-44.90042969 33.5875 -43.80085938 33.175 -42.66796875 32.75 C-33.46592254 29.19575396 -25.66270399 25.35059714 -18 19 C-17.3709375 18.52046875 -16.741875 18.0409375 -16.09375 17.546875 C-11.32370315 13.77420158 -7.686203 9.13821101 -3.91796875 4.390625 C-2 2 -2 2 0 0 Z " fill="#258B16" transform="translate(311,456)"/>
<path d="M0 0 C2.32979344 0.41132058 4.62598788 0.8769138 6.9375 1.375 C15.92536509 3.20750745 24.8501193 3.69288595 34 4 C35.86721544 34.77447676 24.41217298 71.85180384 4 95 C1.64019444 97.62096981 -0.73512149 100.22704752 -3.14379883 102.80322266 C-5.2143169 105.0196687 -7.19469155 107.24675595 -9.07421875 109.62890625 C-10.92755703 111.91080551 -12.82038017 113.73280639 -15.0625 115.625 C-16.38069818 116.74331784 -17.69357854 117.8679469 -19 119 C-19.84304688 119.70189453 -19.84304688 119.70189453 -20.703125 120.41796875 C-22.4131235 122.50396089 -22.49432766 124.02172175 -22.6875 126.6875 C-22.75324219 127.49574219 -22.81898438 128.30398438 -22.88671875 129.13671875 C-22.92410156 129.75160156 -22.96148438 130.36648438 -23 131 C-27.5689461 132.14223652 -27.5689461 132.14223652 -29.9621582 131.35253906 C-32.04025716 130.75610022 -32.04025716 130.75610022 -33.68823242 132.08886719 C-34.23842041 132.65250977 -34.7886084 133.21615234 -35.35546875 133.796875 C-35.97365479 134.42078125 -36.59184082 135.0446875 -37.22875977 135.6875 C-37.87514404 136.368125 -38.52152832 137.04875 -39.1875 137.75 C-39.85515381 138.43578125 -40.52280762 139.1215625 -41.21069336 139.828125 C-45.77522376 144.56900095 -50.05755056 149.4530699 -54.12890625 154.625 C-55.85554917 156.81664697 -57.65094081 158.9116508 -59.5 161 C-62.13158865 163.78743371 -62.13158865 163.78743371 -63 167 C-64.98 166.67 -66.96 166.34 -69 166 C-69 162 -69 162 -68 159 C-67.49560446 153.73278753 -67.37377911 149.34878345 -69.625 144.5 C-73.24849025 140.68579973 -76.18628831 139.16488288 -81.4375 138.6875 C-85.25559637 139.02242073 -88.36846629 139.81419308 -92 141 C-93.67195854 139.32804146 -93.40926026 137.42685653 -93.5625 135.125 C-93.43761151 127.65090439 -89.80448012 123.37889274 -85 118 C-84.1961084 117.09314453 -84.1961084 117.09314453 -83.37597656 116.16796875 C-75.40268854 107.25218002 -67.54769244 98.83558814 -57.375 92.4375 C-45.75038305 84.85431119 -36.36033785 73.96337344 -28 63 C-27.21367188 62.01515625 -26.42734375 61.0303125 -25.6171875 60.015625 C-13.22633556 44.04161126 -4.27229302 24.13008001 -1.4453125 4.0625 C-1 1 -1 1 0 0 Z " fill="#AF641A" transform="translate(705,411)"/>
<path d="M0 0 C8.9496278 7.6525803 16.23141313 16.08702238 17.64794922 28.22143555 C17.73855206 31.68221916 17.68968328 35.10311476 17.5625 38.5625 C17.53994141 39.7484375 17.51738281 40.934375 17.49414062 42.15625 C17.43593891 45.04305497 17.35424298 47.92705431 17.25 50.8125 C20.22 50.8125 23.19 50.8125 26.25 50.8125 C26.25 51.1425 26.25 51.4725 26.25 51.8125 C25.45078125 51.83828125 24.6515625 51.8640625 23.828125 51.890625 C2.11063246 53.01218565 -11.94670679 64.7817312 -27.88623047 78.25292969 C-30.23816701 80.22098977 -32.64461742 82.11381873 -35.0625 84 C-41.97302287 89.48567279 -48.57419674 95.51108718 -54.75 101.8125 C-61.90334518 92.83609354 -67.77667614 83.11663693 -67.92700195 71.32617188 C-67.93983719 70.44425171 -67.95267242 69.56233154 -67.96589661 68.65368652 C-67.97328354 67.70578247 -67.98067047 66.75787842 -67.98828125 65.78125 C-67.996353 64.79435181 -68.00442474 63.80745361 -68.01274109 62.79064941 C-68.02656605 60.6993179 -68.0372953 58.60796396 -68.04516602 56.51660156 C-68.05664489 54.39478871 -68.07703111 52.2730038 -68.10668945 50.15136719 C-68.35702776 32.2332977 -67.24764883 19.02671189 -54.4609375 5.3671875 C-39.73117417 -8.80144199 -17.14891565 -12.60518586 0 0 Z " fill="#6F3912" transform="translate(536.75,531.1875)"/>
<path d="M0 0 C0.67804687 0.37511719 1.35609375 0.75023437 2.0546875 1.13671875 C8.30243358 4.57211376 14.60465754 7.84943031 21 11 C23.00047438 11.99905067 25.00057737 12.9988461 27 14 C22.99077337 38.80505258 13.40118783 60.12211115 -2 80 C-2.74765625 79.79503906 -3.4953125 79.59007812 -4.265625 79.37890625 C-5.25046875 79.10949219 -6.2353125 78.84007812 -7.25 78.5625 C-8.22453125 78.29566406 -9.1990625 78.02882813 -10.203125 77.75390625 C-11.12609375 77.50511719 -12.0490625 77.25632812 -13 77 C-13.63164063 76.80792969 -14.26328125 76.61585938 -14.9140625 76.41796875 C-27.34074696 73.92797767 -38.97223764 76.60548393 -49.53125 83.23828125 C-53.02193117 85.72925784 -56.16089886 88.52885763 -59.28515625 91.4609375 C-61 93 -61 93 -62 93 C-62 71.55 -62 50.1 -62 28 C-57.38 27.67 -52.76 27.34 -48 27 C-45.08579063 26.53907913 -42.34499339 26.06857702 -39.5 25.375 C-38.44026978 25.11722778 -38.44026978 25.11722778 -37.35913086 24.85424805 C-25.31704817 21.70419814 -15.75236317 15.85201057 -7 7 C-6.18208984 6.20142578 -6.18208984 6.20142578 -5.34765625 5.38671875 C-4.21543935 4.27419258 -3.10501603 3.13954778 -2 2 C-1.34 1.34 -0.68 0.68 0 0 Z " fill="#248816" transform="translate(678,397)"/>
<path d="M0 0 C-0.165 0.66 -0.33 1.32 -0.5 2 C-1.65462446 8.92774674 -1.4036676 14.78520612 2 21 C5.33346539 24.82368088 8.66782504 25.79602988 13.57421875 26.18359375 C17.81077535 25.86295259 21.32235204 24.02574935 25 22 C27.67191635 26.56452376 28.63749545 29.71789484 28 35 C25.60727386 41.76435074 21.19424948 46.39981001 16.125 51.3125 C15.373396 52.05016602 14.62179199 52.78783203 13.84741211 53.54785156 C-9.30850172 75.95317247 -9.30850172 75.95317247 -22.875 76.5625 C-26.53286352 76.40211277 -27.68253257 76.23625483 -30.6875 74 C-31.120625 73.34 -31.55375 72.68 -32 72 C-31.67 71.319375 -31.34 70.63875 -31 69.9375 C-29.3879243 65.20202763 -29.44079206 61.50103184 -31.1875 56.8125 C-33.88181271 52.63166994 -37.37093012 49.82357298 -42 48 C-43.99110401 47.61709538 -45.99100513 47.27395385 -48 47 C-48.60446924 39.59525176 -47.2915706 34.98359892 -42.55078125 29.24609375 C-36.23607229 22.44891264 -28.50576792 17.09951761 -21.09912109 11.56884766 C-19.16044069 10.11991066 -17.2290753 8.66193509 -15.30078125 7.19921875 C-5.59249541 -0.14717093 -5.59249541 -0.14717093 0 0 Z " fill="#A65E18" transform="translate(555,615)"/>
<path d="M0 0 C1.46373047 0.02707031 1.46373047 0.02707031 2.95703125 0.0546875 C3.69308594 0.07789063 4.42914063 0.10109375 5.1875 0.125 C4.77757812 0.58390625 4.36765625 1.0428125 3.9453125 1.515625 C3.40648437 2.12921875 2.86765625 2.7428125 2.3125 3.375 C1.77882813 3.97828125 1.24515625 4.5815625 0.6953125 5.203125 C-2.73929407 9.58091369 -3.25020144 13.0450749 -3.12890625 18.51953125 C-2.50019998 23.6966557 -0.4661626 27.56861167 3.3125 31.125 C9.98190619 33.44479346 16.65527572 32.39707801 23.1875 30.125 C23.27022316 35.23020073 22.69694914 39.13934464 19.4375 43.1875 C11.36814656 51.3859631 0.52968962 56.06486506 -9.6875 61 C-10.67427734 61.47671143 -11.66105469 61.95342285 -12.67773438 62.44458008 C-26.80936937 69.12544723 -26.80936937 69.12544723 -33.8125 68.125 C-40.15278822 65.27915038 -45.3821156 60.40610659 -49.8125 55.125 C-50.8125 52.125 -50.8125 52.125 -49.80859375 49.83984375 C-49.29425781 48.92332031 -48.77992188 48.00679687 -48.25 47.0625 C-44.76450484 40.40763599 -42.47823243 33.56707549 -40.20703125 26.421875 C-39.96629883 25.70660645 -39.72556641 24.99133789 -39.47753906 24.25439453 C-38.77683108 22.14938873 -38.77683108 22.14938873 -38.40527344 20.02294922 C-37.50759771 16.31273328 -36.5104456 14.60488446 -33.31274414 12.40625 C-30.0711641 10.70763231 -26.795015 9.20567936 -23.4375 7.75 C-21.73207031 6.97076172 -21.73207031 6.97076172 -19.9921875 6.17578125 C-16.94527804 4.79179773 -13.89024014 3.43884536 -10.8125 2.125 C-9.92651123 1.74666016 -9.04052246 1.36832031 -8.12768555 0.97851562 C-5.29998965 -0.06394192 -3.00307554 -0.07236327 0 0 Z " fill="#AD641A" transform="translate(427.8125,703.875)"/>
<path d="M0 0 C1.98486328 1.08422852 1.98486328 1.08422852 4 3 C4.39404297 5.99584961 4.39404297 5.99584961 4.2421875 9.65234375 C4.21907501 10.30771622 4.19596252 10.96308868 4.17214966 11.63832092 C4.11916287 13.02986874 4.05631037 14.42107055 3.984375 15.81176758 C3.87701581 17.89832218 3.79891383 19.98423589 3.7265625 22.07226562 C3.29921813 33.01482689 2.79420897 44.01351868 -2.375 53.875 C-2.71950195 54.54426514 -3.06400391 55.21353027 -3.41894531 55.90307617 C-15.48163261 78.19065251 -39.68116073 96.84058037 -62 108 C-62.88429688 108.45246094 -63.76859375 108.90492188 -64.6796875 109.37109375 C-74.15671913 113.53349822 -86.9265754 113.92714076 -96.6875 110.375 C-100.51705645 108.54920459 -103.49368673 106.12087281 -106.4296875 103.07421875 C-107.93379262 101.80970394 -107.93379262 101.80970394 -109.81640625 102.109375 C-113.87777068 103.76588858 -117.49498433 106.21385317 -121.22265625 108.50390625 C-124 110 -124 110 -127 110 C-127.33 111.32 -127.66 112.64 -128 114 C-128.03738281 113.05640625 -128.07476562 112.1128125 -128.11328125 111.140625 C-128.54270748 102.75418336 -129.60235998 95.09768989 -132 87 C-129.59440447 85.43815812 -127.17816136 83.90101638 -124.75 82.375 C-124.06808594 81.92898438 -123.38617188 81.48296875 -122.68359375 81.0234375 C-120.81455386 79.86209232 -119.04288088 78.81865873 -117 78 C-114.75 78.546875 -114.75 78.546875 -113 80 C-112.07960938 80.67675781 -112.07960938 80.67675781 -111.140625 81.3671875 C-110.51671875 81.86476563 -109.8928125 82.36234375 -109.25 82.875 C-98.7281514 90.86381097 -88.1182917 93.08497149 -75 92 C-58.48961553 89.02533581 -44.54489781 78.55710045 -32 68 C-31.39349609 67.49500977 -30.78699219 66.99001953 -30.16210938 66.46972656 C-26.05201712 63.04178051 -22.00485546 59.5501443 -18 56 C-17.20464844 55.30261719 -16.40929687 54.60523438 -15.58984375 53.88671875 C-5.70519678 44.68771203 0.21099948 31.98649224 1.2734375 18.5390625 C1.34613239 12.30184125 0.83746542 6.17630747 0 0 Z " fill="#965012" transform="translate(612,630)"/>
<path d="M0 0 C0.33 0 0.66 0 1 0 C3.74374356 11.71110058 2.57379462 22.26246662 -3.5078125 32.55078125 C-10.23589762 42.86196287 -19.45401331 49.32289399 -29.9375 55.5 C-31.03562012 56.15145996 -32.13374023 56.80291992 -33.26513672 57.47412109 C-41.60964953 62.34793964 -50.01614146 66.70085043 -59.01806641 70.21972656 C-60.92923846 70.97214168 -62.81188318 71.77599601 -64.69921875 72.5859375 C-77.61934481 77.64224629 -93.42763392 78.56032781 -106.4453125 73.25 C-114.6577069 69.23170304 -121.1382483 64.3572612 -127.75 58.07421875 C-129.81782003 55.97549237 -129.81782003 55.97549237 -132 55 C-132.495 53.515 -132.495 53.515 -133 52 C-134.32 52.99 -135.64 53.98 -137 55 C-137.66 54.67 -138.32 54.34 -139 54 C-136.59748827 51.81719752 -134.17585216 49.65681125 -131.75 47.5 C-130.72712891 46.56994141 -130.72712891 46.56994141 -129.68359375 45.62109375 C-128.68779297 44.74130859 -128.68779297 44.74130859 -127.671875 43.84375 C-127.0644043 43.29912109 -126.45693359 42.75449219 -125.83105469 42.19335938 C-124 41 -124 41 -120 41 C-117.80859375 42.79296875 -117.80859375 42.79296875 -115.4375 45.1875 C-110.38408948 49.92786739 -105.46141116 52.61208718 -99 55 C-97.865625 55.433125 -96.73125 55.86625 -95.5625 56.3125 C-70.94577003 61.06309701 -42.55334032 44.33639769 -22.81469727 31.05200195 C-11.42196549 22.99279905 -3.91086569 13.51026328 0 0 Z " fill="#975212" transform="translate(483,745)"/>
<path d="M0 0 C4.79043849 3.19362566 7.10658845 6.66432611 9 12 C9.5433267 15.45696799 9.572957 18.8187756 9.5 22.3125 C9.48078491 23.70734619 9.48078491 23.70734619 9.46118164 25.13037109 C9.25677669 32.05587781 8.37166931 37.85695859 5 44 C4.51402344 44.89460938 4.02804687 45.78921875 3.52734375 46.7109375 C-2.81782438 57.42122129 -10.70705463 66.52107843 -22 72 C-22.97195313 72.47308594 -23.94390625 72.94617188 -24.9453125 73.43359375 C-31.30713195 76.30536135 -37.0155791 77.83002516 -44 78 C-45.09238173 74.7228548 -44.96344852 74.15466834 -43.92578125 71.03515625 C-43.6721582 70.2455249 -43.41853516 69.45589355 -43.15722656 68.64233398 C-42.73908691 67.36531616 -42.73908691 67.36531616 -42.3125 66.0625 C-37.17089627 49.60608366 -34.47463723 33.15235939 -33 16 C-31.45892578 15.67128906 -31.45892578 15.67128906 -29.88671875 15.3359375 C-18.16031041 12.70579462 -8.16826815 9.27208817 0 0 Z " fill="#248A17" transform="translate(772,399)"/>
<path d="M0 0 C2.92485973 3.25912941 3.41354435 5.06730929 3.1875 9.4375 C-0.00166741 13.85685813 -3.22410694 16.68210255 -7.8125 19.6875 C-12.55414054 22.8440545 -17.0917022 26.15865237 -21.5625 29.6875 C-35.34004769 40.37229547 -35.34004769 40.37229547 -44.515625 39.859375 C-49.12080992 39.01352471 -51.76703763 36.69205484 -54.6875 33.1875 C-56.18319537 29.53135577 -56.46906098 26.29288714 -55.8125 22.4375 C-50.03528188 10.38069697 -36.22040258 3.9401345 -24.2734375 -0.5078125 C-17.19225373 -2.39082392 -6.56330449 -3.69384045 0 0 Z " fill="#30A41A" transform="translate(502.8125,220.5625)"/>
<path d="M0 0 C0.74443359 0.01474365 1.48886719 0.0294873 2.25585938 0.04467773 C14.60667901 0.5857537 24.45360568 5.97931945 32.97265625 14.7109375 C38.19208432 20.47695866 40.42816693 24.32664363 40.25390625 32.21484375 C39.79553877 35.70635903 38.5756823 37.34332882 35.9375 39.625 C32.25599544 41.93908858 28.65157303 42.07565683 24.4375 41.47265625 C19.66162902 39.8533375 16.27207076 36.27634309 12.54736328 32.98681641 C9.57350042 30.47116475 6.40550431 28.21788612 3.25 25.9375 C1.97134888 25.00781976 0.69270289 24.07813248 -0.5859375 23.1484375 C-1.18374023 22.71499023 -1.78154297 22.28154297 -2.39746094 21.83496094 C-4.56722755 20.25822145 -6.72459419 18.66552979 -8.875 17.0625 C-9.45894531 16.62808594 -10.04289062 16.19367188 -10.64453125 15.74609375 C-13.39519793 13.57132423 -14.01786158 12.9207295 -14.5625 9.3125 C-14.00878303 5.22883733 -13.07888299 4.12933249 -9.88134766 1.65258789 C-6.72726006 -0.12936576 -3.51561604 -0.11455288 0 0 Z " fill="#30A41A" transform="translate(385.0625,261.375)"/>
<path d="M0 0 C1.46373047 0.02707031 1.46373047 0.02707031 2.95703125 0.0546875 C3.69308594 0.07789063 4.42914063 0.10109375 5.1875 0.125 C4.77757812 0.58390625 4.36765625 1.0428125 3.9453125 1.515625 C3.40648437 2.12921875 2.86765625 2.7428125 2.3125 3.375 C1.77882813 3.97828125 1.24515625 4.5815625 0.6953125 5.203125 C-2.29943639 9.02026608 -3.0923445 12.04282301 -3.4375 16.875 C-3.51226562 17.85984375 -3.58703125 18.8446875 -3.6640625 19.859375 C-3.71304688 20.60703125 -3.76203125 21.3546875 -3.8125 22.125 C-4.3075 20.64 -4.3075 20.64 -4.8125 19.125 C-8.72968523 20.91553446 -12.64615732 22.70762349 -16.5625 24.5 C-17.67367188 25.00789062 -18.78484375 25.51578125 -19.9296875 26.0390625 C-20.99960937 26.52890625 -22.06953125 27.01875 -23.171875 27.5234375 C-24.64865723 28.19898682 -24.64865723 28.19898682 -26.15527344 28.88818359 C-27.78299827 29.64581443 -29.3957609 30.43820348 -30.97753906 31.28759766 C-32.8125 32.125 -32.8125 32.125 -35.8125 32.125 C-36.1425 30.145 -36.4725 28.165 -36.8125 26.125 C-37.4725 26.455 -38.1325 26.785 -38.8125 27.125 C-38.69740339 25.70749437 -38.56996342 24.29098831 -38.4375 22.875 C-38.36789062 22.08609375 -38.29828125 21.2971875 -38.2265625 20.484375 C-37.76937422 17.87926441 -37.25173102 16.35040596 -35.8125 14.125 C-33.36987305 12.60107422 -33.36987305 12.60107422 -30.32421875 11.1796875 C-29.22529297 10.66019531 -28.12636719 10.14070312 -26.99414062 9.60546875 C-25.84107422 9.07566406 -24.68800781 8.54585937 -23.5 8 C-22.35853516 7.46246094 -21.21707031 6.92492187 -20.04101562 6.37109375 C-6.13351016 -0.14779543 -6.13351016 -0.14779543 0 0 Z " fill="#985113" transform="translate(427.8125,703.875)"/>
<path d="M0 0 C1.84551272 1.78816628 3.34658597 3.47366749 4.875 5.5625 C7.29188861 8.33481341 8.42344903 9.20521089 12 10 C17.65829609 9.98952167 22.07647085 8.90361976 27 6 C29.67191635 10.56452376 30.63749545 13.71789484 30 19 C27.94134256 25.31076538 24.2520947 29.1051882 19 33 C20.20381448 30.50638429 21.45428722 28.31856917 23 26 C22.505 26.33 22.01 26.66 21.5 27 C16.71084221 28.91566312 12.46607925 28.5356828 7.75 26.8125 C3.76438846 24.18561967 1.51019469 21.53058408 0 17 C-0.07973476 15.66474283 -0.10771338 14.32587917 -0.09765625 12.98828125 C-0.09443359 12.23095703 -0.09121094 11.47363281 -0.08789062 10.69335938 C-0.07951172 9.90767578 -0.07113281 9.12199219 -0.0625 8.3125 C-0.05798828 7.51521484 -0.05347656 6.71792969 -0.04882812 5.89648438 C-0.0370585 3.93095743 -0.01912348 1.96546915 0 0 Z " fill="#985213" transform="translate(553,631)"/>
<path d="M0 0 C0.66 0 1.32 0 2 0 C6.01400813 6.08183051 6.01400813 6.08183051 5.95703125 9.81640625 C4.69343994 14.01978144 2.50714825 16.57193075 -0.375 19.8125 C-0.87 20.39708984 -1.365 20.98167969 -1.875 21.58398438 C-4.18332174 24.24719516 -5.60167414 25.86722471 -9 27 C-9 27.66 -9 28.32 -9 29 C-11.31 30.32 -13.62 31.64 -16 33 C-16.33 31.68 -16.66 30.36 -17 29 C-17.66 29 -18.32 29 -19 29 C-19.99 26.69 -20.98 24.38 -22 22 C-21.56171875 21.63390625 -21.1234375 21.2678125 -20.671875 20.890625 C-16.13907476 17.02116138 -11.84474305 12.95446335 -7.625 8.75 C-7.10131836 8.23083008 -6.57763672 7.71166016 -6.03808594 7.17675781 C-3.7469464 4.87666268 -1.80741608 2.71112412 0 0 Z " fill="#F8AB07" transform="translate(601,614)"/>
<path d="M0 0 C1.86792574 1.86247989 3.71975102 3.73730592 5.5625 5.625 C9.48546002 9.4473713 12.10564305 9.20623626 17.37890625 9.16796875 C20.84977155 8.9455437 23.72324699 8.13974018 27 7 C27.10869636 13.70811811 25.58198926 17.44573529 20.921875 22.26953125 C18.41692214 24.5250071 15.90761017 26.29798429 13 28 C12.34 27.67 11.68 27.34 11 27 C11.33 26.67 11.66 26.34 12 26 C11.0925 25.773125 10.185 25.54625 9.25 25.3125 C5.43660722 23.77247599 4.19003586 22.44148493 2 19 C0.2151152 14.55677613 -0.22240451 10.89782087 -0.125 6.125 C-0.10695313 4.97257813 -0.08890625 3.82015625 -0.0703125 2.6328125 C-0.04710937 1.76398437 -0.02390625 0.89515625 0 0 Z " fill="#995313" transform="translate(424,727)"/>
<path d="M0 0 C3.42559084 1.20358597 5.53258609 2.35892646 8 5 C2.23991643 12.17149478 -4.34988702 17.89992468 -12 23 C-12.99 23 -13.98 23 -15 23 C-15.33 23.66 -15.66 24.32 -16 25 C-17.12667784 24.21072301 -18.25128067 23.41848345 -19.375 22.625 C-20.00148438 22.18414063 -20.62796875 21.74328125 -21.2734375 21.2890625 C-23 20 -23 20 -25 18 C-23.76636719 17.27296875 -23.76636719 17.27296875 -22.5078125 16.53125 C-14.46346833 11.70092787 -6.67517219 6.67517219 0 0 Z " fill="#F7A907" transform="translate(521,689)"/>
<path d="M0 0 C1.25027101 3.75081302 0.53275807 5.37115158 -0.4375 9.1875 C-6.5407095 36.51807032 -0.12202747 66.17724031 14 90 C17.61242353 95.5228252 21.7907052 100.60503775 26.0625 105.625 C28 108 28 108 28 110 C28.56460938 110.23847656 29.12921875 110.47695313 29.7109375 110.72265625 C32.49012221 112.27349823 34.36463472 114.19507413 36.625 116.4375 C47.00794237 126.02816966 59.69601761 133.27839056 73 138 C69.11686431 139.28178077 67.16219876 138.43060922 63.51928711 136.60083008 C62.48880249 136.05591919 62.48880249 136.05591919 61.4375 135.5 C60.72150635 135.12834717 60.0055127 134.75669434 59.26782227 134.3737793 C36.46123391 122.38015175 20.86743155 106.06278947 8 84 C7.4534375 83.13503906 6.906875 82.27007812 6.34375 81.37890625 C5.07635154 79.13516887 4.54934739 77.48602971 4 75 C3.21917643 72.87099186 2.42602086 70.74649162 1.625 68.625 C-6.2446195 46.85011487 -6.99167567 23.36892248 -1 1 C-0.67 0.67 -0.34 0.34 0 0 Z " fill="#268214" transform="translate(166,406)"/>
<path d="M0 0 C0.33 0 0.66 0 1 0 C1.66 1.98 2.32 3.96 3 6 C3.85722656 5.95359375 4.71445312 5.9071875 5.59765625 5.859375 C17.57744949 5.48120791 17.57744949 5.48120791 23 10 C27.01961343 14.36914504 28.29722638 18.06619786 28.3125 24 C28.23317774 25.66803371 28.13766646 27.33576552 28 29 C29.32 29.33 30.64 29.66 32 30 C31.34 31.98 30.68 33.96 30 36 C28.02 35.67 26.04 35.34 24 35 C24 31 24 31 25 28 C25.50439554 22.73278753 25.62622089 18.34878345 23.375 13.5 C19.75150975 9.68579973 16.81371169 8.16488288 11.5625 7.6875 C7.74440363 8.02242073 4.63153371 8.81419308 1 10 C0 9 0 9 -0.09765625 6.93359375 C-0.08605469 6.10988281 -0.07445312 5.28617188 -0.0625 4.4375 C-0.05347656 3.61121094 -0.04445313 2.78492188 -0.03515625 1.93359375 C-0.02355469 1.29550781 -0.01195312 0.65742187 0 0 Z " fill="#99471D" transform="translate(612,542)"/>
<path d="M0 0 C3.63 0 7.26 0 11 0 C12.39066535 2.78133069 12.07662585 4.99120191 12.02172852 8.10205078 C11.99158409 10.02381638 11.99158409 10.02381638 11.96083069 11.98440552 C11.93363222 13.38804331 11.90632141 14.79167893 11.87890625 16.1953125 C11.85460772 17.6273423 11.83076403 19.05937989 11.80735779 20.49142456 C11.74449015 24.26280577 11.67543117 28.03404938 11.60510254 31.80529785 C11.53444323 35.65268684 11.4696119 39.50017348 11.40429688 43.34765625 C11.27525002 50.8985455 11.13966532 58.44929891 11 66 C10.01 66.495 10.01 66.495 9 67 C9.33 45.55 9.66 24.1 10 2 C6.7 1.67 3.4 1.34 0 1 C0 0.67 0 0.34 0 0 Z " fill="#AA4612" transform="translate(604,424)"/>
<path d="M0 0 C5.059138 3.73936287 8.62849511 7.91604112 12.25 13 C12.67394043 13.59312988 13.09788086 14.18625977 13.53466797 14.79736328 C15.48029926 17.58731058 17.11651138 20.23980983 18.609375 23.3125 C19.85653669 26.25395769 19.85653669 26.25395769 23 28 C22.34 28 21.68 28 21 28 C21.34933594 28.71285156 21.69867187 29.42570312 22.05859375 30.16015625 C24.59603761 35.50100834 26.605244 40.07866001 27 46 C25.42964554 43.64446832 24.37648012 41.72282976 23.30078125 39.15625 C18.09092083 26.94366222 12.27642345 16.42001775 3.69921875 6.19140625 C2.14462007 4.18651002 1.03513804 2.30672893 0 0 Z " fill="#268815" transform="translate(831,360)"/>
<path d="M0 0 C0.66 0.33 1.32 0.66 2 1 C-5.29142437 8.60844282 -12.83386119 15.70184175 -22 21 C-18.32376659 12.05099754 -8.10880256 4.74515113 0 0 Z " fill="#158E1D" transform="translate(647,504)"/>
<path d="M0 0 C0.94617188 0.20496094 1.89234375 0.40992188 2.8671875 0.62109375 C13.24778902 2.76912466 23.41453321 3.64470077 34 4 C33.67 4.66 33.34 5.32 33 6 C27.53835842 7.59916866 22.53741744 6.51342801 17.0625 5.5625 C11.3002566 4.58287584 5.85279427 3.80092537 0 4 C0 2.68 0 1.36 0 0 Z " fill="#A84810" transform="translate(705,411)"/>
<path d="M0 0 C4.66666667 4.66666667 9.33333333 9.33333333 14 14 C11 14 11 14 9.17578125 12.46875 C7.45052083 10.64583333 5.72526042 8.82291667 4 7 C3.67 13.27 3.34 19.54 3 26 C2.67 26 2.34 26 2 26 C1.93941406 24.87722656 1.87882813 23.75445312 1.81640625 22.59765625 C1.39705018 15.03659035 0.95660166 7.5161559 0 0 Z " fill="#269B1C" transform="translate(654,292)"/>
<path d="M0 0 C0.09243891 5.70480127 -0.71399808 9.22517626 -4.5625 13.5625 C-5.69004005 14.72633912 -6.82998843 15.8788662 -8 17 C-8.66 16.67 -9.32 16.34 -10 16 C-9.4946875 15.48050781 -8.989375 14.96101562 -8.46875 14.42578125 C-7.8190625 13.72839844 -7.169375 13.03101563 -6.5 12.3125 C-5.8503125 11.62800781 -5.200625 10.94351563 -4.53125 10.23828125 C-2.72186216 7.59343628 -2.6922083 6.13837611 -3 3 C-3.99 3.33 -4.98 3.66 -6 4 C-7.89470816 4.0685495 -9.7916834 4.08480372 -11.6875 4.0625 C-12.68136719 4.05347656 -13.67523438 4.04445313 -14.69921875 4.03515625 C-15.83810547 4.01775391 -15.83810547 4.01775391 -17 4 C-17 3.67 -17 3.34 -17 3 C-16.08476562 2.86722656 -15.16953125 2.73445312 -14.2265625 2.59765625 C-13.03804688 2.42105469 -11.84953125 2.24445312 -10.625 2.0625 C-9.44164062 1.88847656 -8.25828125 1.71445312 -7.0390625 1.53515625 C-4.47352859 1.08338485 -2.5415907 0 0 0 Z " fill="#742A11" transform="translate(451,734)"/>
<path d="M0 0 C0 0.66 0 1.32 0 2 C0.66 2.33 1.32 2.66 2 3 C1.34257812 2.93941406 0.68515625 2.87882813 0.0078125 2.81640625 C-9.31741542 1.99507859 -18.65273392 1.48813501 -28 1 C-28 0.67 -28 0.34 -28 0 C-24.8339704 -0.19945986 -21.66718204 -0.38234428 -18.5 -0.5625 C-17.613125 -0.61857422 -16.72625 -0.67464844 -15.8125 -0.73242188 C-10.37734765 -1.03215454 -5.37905137 -0.8483317 0 0 Z " fill="#9D5913" transform="translate(448,831)"/>
<path d="M0 0 C0.78375 0.33 1.5675 0.66 2.375 1 C4.84332497 2.11866511 4.84332497 2.11866511 7 2 C6.34 3.98 5.68 5.96 5 8 C2.03 7.505 2.03 7.505 -1 7 C-1 3 -1 3 0 0 Z " fill="#9F521A" transform="translate(637,570)"/>
<path d="M0 0 C2.64 0 5.28 0 8 0 C8.33 0.66 8.66 1.32 9 2 C10.91990902 2.93434033 10.91990902 2.93434033 13.25390625 3.7265625 C14.10791016 4.0359375 14.96191406 4.3453125 15.84179688 4.6640625 C16.73962891 4.98117187 17.63746094 5.29828125 18.5625 5.625 C19.46419922 5.94984375 20.36589844 6.2746875 21.29492188 6.609375 C23.52772213 7.41271054 25.76271623 8.20925498 28 9 C24.20276547 10.26574484 22.94838162 9.50371502 19.23828125 8.12890625 C18.12001953 7.71962891 17.00175781 7.31035156 15.84960938 6.88867188 C14.68236328 6.45103516 13.51511719 6.01339844 12.3125 5.5625 C11.13365234 5.12873047 9.95480469 4.69496094 8.74023438 4.24804688 C5.82369045 3.17353069 2.9105759 2.0905569 0 1 C0 0.67 0 0.34 0 0 Z " fill="#9E5A15" transform="translate(616,830)"/>
<path d="M0 0 C1.87360595 7.26593526 0.13793687 11.37679737 -3 18 C-3.67834587 19.66194738 -4.35199575 21.32598903 -5 23 C-6.14176746 19.57469763 -5.83108216 18.68326326 -4.78515625 15.33203125 C-4.51123047 14.43935547 -4.23730469 13.54667969 -3.95507812 12.62695312 C-3.66052734 11.69818359 -3.36597656 10.76941406 -3.0625 9.8125 C-2.77181641 8.87212891 -2.48113281 7.93175781 -2.18164062 6.96289062 C-1.46218113 4.63939029 -0.73470814 2.31871482 0 0 Z " fill="#168716" transform="translate(734,452)"/>
<path d="M0 0 C0 0.66 0 1.32 0 2 C-0.78375 2.433125 -1.5675 2.86625 -2.375 3.3125 C-5.41686215 5.26798281 -5.98981901 6.60211849 -7 10 C-7.66 9.01 -8.32 8.02 -9 7 C-10.32 7.99 -11.64 8.98 -13 10 C-13.66 9.67 -14.32 9.34 -15 9 C-13.59148053 7.67876058 -12.17284259 6.36830231 -10.75 5.0625 C-9.96109375 4.33160156 -9.1721875 3.60070312 -8.359375 2.84765625 C-5.50539763 0.61267066 -3.56603796 0 0 0 Z " fill="#A05D16" transform="translate(359,790)"/>
<path d="M0 0 C0.99 0.33 1.98 0.66 3 1 C-1.69766975 6.66129431 -6.74723372 11.85228904 -12 17 C-12 14 -12 14 -10.390625 12.16796875 C-9.68421875 11.51441406 -8.9778125 10.86085938 -8.25 10.1875 C-4.91534667 6.9888343 -2.37140965 3.95234942 0 0 Z " fill="#F6A106" transform="translate(633,577)"/>
<path d="M0 0 C0 2.64 0 5.28 0 8 C-1.32 8 -2.64 8 -4 8 C-4.66 6.68 -5.32 5.36 -6 4 C-2.25 0 -2.25 0 0 0 Z " fill="#3B9114" transform="translate(682,534)"/>
<path d="M0 0 C0.33 0.66 0.66 1.32 1 2 C-4.75 5 -4.75 5 -7 5 C-7 5.66 -7 6.32 -7 7 C-13.75 10 -13.75 10 -16 10 C-16 9.34 -16 8.68 -16 8 C-10.72 5.36 -5.44 2.72 0 0 Z " fill="#F9D307" transform="translate(434,756)"/>
<path d="M0 0 C0.66 0.33 1.32 0.66 2 1 C-2.9545009 6.21150671 -7.5627628 9.78815744 -14 13 C-9.89962427 7.75027653 -5.47035213 3.79037089 0 0 Z " fill="#FBE008" transform="translate(508,609)"/>
<path d="M0 0 C3.62613199 0.56959153 5.25517741 1.92374534 7.75 4.5625 C8.36359375 5.20316406 8.9771875 5.84382813 9.609375 6.50390625 C10.06828125 6.99761719 10.5271875 7.49132812 11 8 C6.72946073 8 5.17101982 5.69874028 2 3 C1.34 3 0.68 3 0 3 C-0.28875 3.804375 -0.5775 4.60875 -0.875 5.4375 C-2 8 -2 8 -4 9 C-2.80100302 5.9168649 -1.52299523 2.93720508 0 0 Z " fill="#923B0D" transform="translate(556,397)"/>
<path d="M0 0 C2.31 0.33 4.62 0.66 7 1 C7 1.33 7 1.66 7 2 C5.35 2 3.7 2 2 2 C2.32742188 2.68449219 2.65484375 3.36898438 2.9921875 4.07421875 C4.16848212 7.48912059 4.19777146 10.21031284 4.125 13.8125 C4.10695313 14.97394531 4.08890625 16.13539063 4.0703125 17.33203125 C4.04710937 18.21246094 4.02390625 19.09289062 4 20 C3.67 20 3.34 20 3 20 C2.86722656 18.97519531 2.73445312 17.95039063 2.59765625 16.89453125 C2.41935912 15.5338426 2.24096877 14.17316615 2.0625 12.8125 C1.97548828 12.13896484 1.88847656 11.46542969 1.79882812 10.77148438 C1.32174523 7.14918834 0.76987965 3.57196415 0 0 Z " fill="#259B1C" transform="translate(717,284)"/>
<path d="M0 0 C4 3 4 3 4.36230469 5.0847168 C4.29946289 5.86500244 4.23662109 6.64528809 4.171875 7.44921875 C4.11386719 8.29677734 4.05585937 9.14433594 3.99609375 10.01757812 C3.91488281 10.89865234 3.83367188 11.77972656 3.75 12.6875 C3.65138672 14.02651367 3.65138672 14.02651367 3.55078125 15.39257812 C3.3857301 17.59718985 3.20149283 19.79846902 3 22 C2.67 22 2.34 22 2 22 C1.34 14.74 0.68 7.48 0 0 Z " fill="#843419" transform="translate(612,630)"/>
<path d="M0 0 C0 2 0 2 -2.1875 4.3125 C-3.115625 5.199375 -4.04375 6.08625 -5 7 C-5.928125 7.928125 -6.85625 8.85625 -7.8125 9.8125 C-8.534375 10.534375 -9.25625 11.25625 -10 12 C-10.99 11.67 -11.98 11.34 -13 11 C-11.21427748 9.16052663 -9.42197551 7.32842259 -7.625 5.5 C-7.11710938 4.97535156 -6.60921875 4.45070313 -6.0859375 3.91015625 C-2.2265625 0 -2.2265625 0 0 0 Z " fill="#F7CE06" transform="translate(707,510)"/>
<path d="M0 0 C0.70125 0.08378906 1.4025 0.16757812 2.125 0.25390625 C7.99959237 0.88446712 13.1738496 0.98934629 19 0 C16.71974504 2.50828046 15.03555428 3.93642801 11.58203125 4.1484375 C6.74337858 3.76248884 3.76776212 3.21086425 0 0 Z " fill="#FAD708" transform="translate(389,770)"/>
<path d="M0 0 C0.66 0.33 1.32 0.66 2 1 C0.75627811 1.98712878 -0.49527218 2.96439905 -1.75 3.9375 C-2.44609375 4.48277344 -3.1421875 5.02804687 -3.859375 5.58984375 C-5.96092128 6.97425654 -7.54321799 7.56286987 -10 8 C-10 7.01 -10 6.02 -10 5 C-9.278125 4.731875 -8.55625 4.46375 -7.8125 4.1875 C-4.94366924 3.06484842 -4.94366924 3.06484842 -2.3125 1.3125 C-1.1678125 0.6628125 -1.1678125 0.6628125 0 0 Z " fill="#278A16" transform="translate(813,529)"/>
<path d="M0 0 C0.33 1.32 0.66 2.64 1 4 C-2.3 6.97 -5.6 9.94 -9 13 C-9 10 -9 10 -7.5390625 8.28125 C-6.59160156 7.39953125 -6.59160156 7.39953125 -5.625 6.5 C-3.34958199 4.36503989 -1.75252437 2.62878656 0 0 Z " fill="#F3B307" transform="translate(676,550)"/>
<path d="M0 0 C2.83328987 2.83328987 3.7191375 4.35446828 5 8 C3.35 8.66 1.7 9.32 0 10 C0 6.7 0 3.4 0 0 Z " fill="#884214" transform="translate(424,727)"/>
<path d="M0 0 C0.33 0.66 0.66 1.32 1 2 C0.319375 2.5878125 0.319375 2.5878125 -0.375 3.1875 C-2.27642919 5.30832487 -3.06204028 7.33042235 -4 10 C-7 6.25 -7 6.25 -7 4 C-4.69 2.68 -2.38 1.36 0 0 Z " fill="#742F10" transform="translate(487,713)"/>
<path d="M0 0 C0.66 0 1.32 0 2 0 C0.79157144 4.43090471 -0.51668565 6.98112756 -4 10 C-4.66 9.67 -5.32 9.34 -6 9 C-5.05016642 7.49460339 -4.08988109 5.99579653 -3.125 4.5 C-2.59132813 3.6646875 -2.05765625 2.829375 -1.5078125 1.96875 C-0.76144531 0.99421875 -0.76144531 0.99421875 0 0 Z " fill="#1B9E1C" transform="translate(719,491)"/>
<path d="M0 0 C0.33 0 0.66 0 1 0 C1.36539443 4.28577219 0.48423598 6.34492062 -2 9.8125 C-2.556875 10.60269531 -3.11375 11.39289063 -3.6875 12.20703125 C-4.120625 12.79871094 -4.55375 13.39039063 -5 14 C-5.33 13.34 -5.66 12.68 -6 12 C-4.78515625 9.1796875 -4.78515625 9.1796875 -3.0625 5.875 C-2.49660156 4.77929688 -1.93070313 3.68359375 -1.34765625 2.5546875 C-0.90292969 1.71164062 -0.45820312 0.86859375 0 0 Z " fill="#139D1C" transform="translate(727,476)"/>
<path d="M0 0 C-0.125 1.8125 -0.125 1.8125 -1 4 C-3.9375 5.8125 -3.9375 5.8125 -7 7 C-7.66 6.67 -8.32 6.34 -9 6 C-7.8803014 4.99406757 -6.7540588 3.9954151 -5.625 3 C-4.68527344 2.1646875 -4.68527344 2.1646875 -3.7265625 1.3125 C-2 0 -2 0 0 0 Z " fill="#7E3712" transform="translate(535,627)"/>
<path d="M0 0 C1.98 0.495 1.98 0.495 4 1 C4.33 2.98 4.66 4.96 5 7 C3.02 6.01 1.04 5.02 -1 4 C-0.67 2.68 -0.34 1.36 0 0 Z " fill="#BF761A" transform="translate(672,536)"/>
<path d="M0 0 C0.66 0.33 1.32 0.66 2 1 C1.360625 1.598125 0.72125 2.19625 0.0625 2.8125 C-2.20310389 4.90810337 -2.20310389 4.90810337 -3 8 C-5 4.25 -5 4.25 -5 2 C-2.625 0.9375 -2.625 0.9375 0 0 Z " fill="#F5A306" transform="translate(457,730)"/>
<path d="M0 0 C0.66 0.33 1.32 0.66 2 1 C-1.99613521 4.71069698 -4.37082652 6.59791618 -10 7 C-8.72070154 4.44140308 -7.55728932 4.13851266 -5 2.9375 C-2.30092276 1.75531476 -2.30092276 1.75531476 0 0 Z " fill="#FBD607" transform="translate(549,684)"/>
<path d="M0 0 C0 0.99 0 1.98 0 3 C-1.45264038 3.8638129 -2.9123163 4.71580454 -4.375 5.5625 C-5.59316406 6.27599609 -5.59316406 6.27599609 -6.8359375 7.00390625 C-7.55007813 7.33261719 -8.26421875 7.66132812 -9 8 C-9.66 7.67 -10.32 7.34 -11 7 C-7.37 4.69 -3.74 2.38 0 0 Z " fill="#FBDB06" transform="translate(475,680)"/>
<path d="M0 0 C0.66 0.33 1.32 0.66 2 1 C0.88200014 2.33920838 -0.24461897 3.67122556 -1.375 5 C-2.00148438 5.7425 -2.62796875 6.485 -3.2734375 7.25 C-4.12808594 8.11625 -4.12808594 8.11625 -5 9 C-5.66 9 -6.32 9 -7 9 C-5.44499019 5.18315774 -2.96404505 2.80804268 0 0 Z " fill="#FAB107" transform="translate(563,604)"/>
<path d="M0 0 C0.33 1.32 0.66 2.64 1 4 C4.3 4.66 7.6 5.32 11 6 C11 6.33 11 6.66 11 7 C6.45194365 7.17835515 3.1205746 6.99785435 -1 5 C-0.67 3.35 -0.34 1.7 0 0 Z " fill="#229419" transform="translate(713,542)"/>
<path d="M0 0 C0.66 0.66 1.32 1.32 2 2 C-0.64 4.31 -3.28 6.62 -6 9 C-6.66 8.67 -7.32 8.34 -8 8 C-5.36 5.36 -2.72 2.72 0 0 Z " fill="#F8D208" transform="translate(690,525)"/>
<path d="M0 0 C0 3 0 3 -1.5625 5.4375 C-3.25585824 7.85391059 -3.25585824 7.85391059 -2.6875 10.3125 C-2.460625 10.869375 -2.23375 11.42625 -2 12 C-3.32 10.68 -4.64 9.36 -6 8 C-4.55746343 4.63408134 -2.66735273 2.48952921 0 0 Z " fill="#13971B" transform="translate(712,502)"/>
<path d="M0 0 C2.91488977 2.6234008 4.88503898 5.71816394 7 9 C6.21625 8.649375 5.4325 8.29875 4.625 7.9375 C3.75875 7.628125 2.8925 7.31875 2 7 C1.01 7.495 1.01 7.495 0 8 C0 5.36 0 2.72 0 0 Z " fill="#803A13" transform="translate(553,631)"/>
<path d="M0 0 C0 3 0 3 -1.53125 4.60546875 C-2.1809375 5.12753906 -2.830625 5.64960937 -3.5 6.1875 C-4.1496875 6.71730469 -4.799375 7.24710938 -5.46875 7.79296875 C-5.9740625 8.19128906 -6.479375 8.58960938 -7 9 C-7.66 8.67 -8.32 8.34 -9 8 C-6.03 5.36 -3.06 2.72 0 0 Z " fill="#268215" transform="translate(829,516)"/>
<path d="M0 0 C0.33 0.99 0.66 1.98 1 3 C-1.97 5.475 -1.97 5.475 -5 8 C-5 5 -5 5 -2.5 2.3125 C-1.675 1.549375 -0.85 0.78625 0 0 Z " fill="#1F7F1E" transform="translate(631,517)"/>
<path d="M0 0 C0.66 0 1.32 0 2 0 C2.33 2.31 2.66 4.62 3 7 C1.68 6.67 0.36 6.34 -1 6 C-0.67 4.02 -0.34 2.04 0 0 Z " fill="#FAB507" transform="translate(480,729)"/>
<path d="M0 0 C0.33 0.99 0.66 1.98 1 3 C-1.64 4.98 -4.28 6.96 -7 9 C-5.04783565 5.09567131 -3.12613393 2.96160056 0 0 Z " fill="#813113" transform="translate(613,601)"/>
<path d="M0 0 C0.99 0.33 1.98 0.66 3 1 C1.35 2.98 -0.3 4.96 -2 7 C-2.33 6.01 -2.66 5.02 -3 4 C-1.5625 1.8125 -1.5625 1.8125 0 0 Z " fill="#FAAE07" transform="translate(633,577)"/>
<path d="M0 0 C0 3 0 3 -1.375 4.6875 C-3 6 -3 6 -5 6 C-5 4.68 -5 3.36 -5 2 C-3.35 1.34 -1.7 0.68 0 0 Z " fill="#2FB21D" transform="translate(421,446)"/>
<path d="M0 0 C1.32 0 2.64 0 4 0 C3.67 0.66 3.34 1.32 3 2 C2.01 1.34 1.02 0.68 0 0 Z " fill="#A6651A" transform="translate(683,854)"/>
<path d="M0 0 C3 1 3 1 3 1 Z " fill="#A8661B" transform="translate(338,854)"/>
<path d="" fill="#D8900C" transform="translate(0,0)"/>
<path d="M0 0 C3 1 3 1 3 1 Z " fill="#4C9D1F" transform="translate(361,604)"/>
<path d="M0 0 C0.99 0.495 0.99 0.495 2 1 C1.01 1.495 1.01 1.495 0 2 C0 1.34 0 0.68 0 0 Z " fill="#4BB01A" transform="translate(177,376)"/>
<path d="" fill="#4FB416" transform="translate(0,0)"/>
<path d="M0 0 C3 1 3 1 3 1 Z " fill="#59B913" transform="translate(557,128)"/>
<path d="M0 0 C2 1 2 1 2 1 Z " fill="#AF691B" transform="translate(475,846)"/>
<path d="M0 0 C2 1 2 1 2 1 Z " fill="#B26B1A" transform="translate(601,827)"/>
<path d="M0 0 C2 1 2 1 2 1 Z " fill="#B26C1C" transform="translate(576,819)"/>
<path d="M0 0 C2 1 2 1 2 1 Z " fill="#B77218" transform="translate(339,800)"/>
<path d="" fill="#E19D0F" transform="translate(0,0)"/>
<path d="" fill="#B16D1E" transform="translate(0,0)"/>
<path d="" fill="#B46D1E" transform="translate(0,0)"/>
<path d="" fill="#EBB414" transform="translate(0,0)"/>
<path d="M0 0 C2 1 2 1 2 1 Z " fill="#4A9E1D" transform="translate(354,603)"/>
<path d="M0 0 C2 1 2 1 2 1 Z " fill="#3E9E1E" transform="translate(315,589)"/>
<path d="M0 0 C2 1 2 1 2 1 Z " fill="#E5A30C" transform="translate(645,576)"/>
<path d="" fill="#339F1F" transform="translate(0,0)"/>
<path d="" fill="#35A221" transform="translate(0,0)"/>
<path d="" fill="#349D22" transform="translate(0,0)"/>
<path d="" fill="#3DA51D" transform="translate(0,0)"/>
<path d="" fill="#33A220" transform="translate(0,0)"/>
<path d="M0 0 C2 1 2 1 2 1 Z " fill="#5ABC13" transform="translate(298,216)"/>
<path d="M0 0 C2 1 2 1 2 1 Z " fill="#56BD11" transform="translate(697,211)"/>
<path d="M0 0 C2 1 2 1 2 1 Z " fill="#5BBA14" transform="translate(416,152)"/>
<path d="" fill="#6A4E1A" transform="translate(0,0)"/>
<path d="" fill="#5A5839" transform="translate(0,0)"/>
<path d="" fill="#A8651A" transform="translate(0,0)"/>
<path d="" fill="#AB681B" transform="translate(0,0)"/>
<path d="" fill="#AA691E" transform="translate(0,0)"/>
<path d="" fill="#AF691A" transform="translate(0,0)"/>
<path d="" fill="#AB681B" transform="translate(0,0)"/>
<path d="" fill="#AB6B1C" transform="translate(0,0)"/>
<path d="" fill="#AB6617" transform="translate(0,0)"/>
<path d="" fill="#AC6819" transform="translate(0,0)"/>
<path d="" fill="#AF691B" transform="translate(0,0)"/>
<path d="" fill="#A8671C" transform="translate(0,0)"/>
<path d="" fill="#B06A1A" transform="translate(0,0)"/>
<path d="" fill="#AF6C1A" transform="translate(0,0)"/>
<path d="" fill="#A8671A" transform="translate(0,0)"/>
<path d="" fill="#B26D1C" transform="translate(0,0)"/>
<path d="" fill="#B16B19" transform="translate(0,0)"/>
<path d="" fill="#B16B1C" transform="translate(0,0)"/>
<path d="" fill="#A96819" transform="translate(0,0)"/>
<path d="" fill="#A4671B" transform="translate(0,0)"/>
<path d="" fill="#AA6B1B" transform="translate(0,0)"/>
<path d="" fill="#B16A1D" transform="translate(0,0)"/>
<path d="" fill="#AF6E17" transform="translate(0,0)"/>
<path d="" fill="#A6681B" transform="translate(0,0)"/>
<path d="" fill="#B46D1C" transform="translate(0,0)"/>
<path d="" fill="#B16D1A" transform="translate(0,0)"/>
<path d="" fill="#AE6B1E" transform="translate(0,0)"/>
<path d="" fill="#B67218" transform="translate(0,0)"/>
<path d="" fill="#B5721A" transform="translate(0,0)"/>
<path d="" fill="#B7721B" transform="translate(0,0)"/>
<path d="" fill="#C07919" transform="translate(0,0)"/>
<path d="" fill="#DD9A0F" transform="translate(0,0)"/>
<path d="" fill="#DE9B0F" transform="translate(0,0)"/>
<path d="" fill="#B26D20" transform="translate(0,0)"/>
<path d="" fill="#AF6B1C" transform="translate(0,0)"/>
<path d="" fill="#B46E1D" transform="translate(0,0)"/>
<path d="" fill="#E6A80E" transform="translate(0,0)"/>
<path d="" fill="#B26E1E" transform="translate(0,0)"/>
<path d="" fill="#E9A812" transform="translate(0,0)"/>
<path d="" fill="#B26E1D" transform="translate(0,0)"/>
<path d="" fill="#E19A10" transform="translate(0,0)"/>
<path d="" fill="#E7AC11" transform="translate(0,0)"/>
<path d="" fill="#E7A30C" transform="translate(0,0)"/>
<path d="" fill="#EAB011" transform="translate(0,0)"/>
<path d="" fill="#B46D1C" transform="translate(0,0)"/>
<path d="" fill="#B56C1C" transform="translate(0,0)"/>
<path d="" fill="#B46D1E" transform="translate(0,0)"/>
<path d="" fill="#B86F1C" transform="translate(0,0)"/>
<path d="" fill="#E9B010" transform="translate(0,0)"/>
<path d="" fill="#DA900F" transform="translate(0,0)"/>
<path d="" fill="#EDB311" transform="translate(0,0)"/>
<path d="" fill="#EEB611" transform="translate(0,0)"/>
<path d="" fill="#EEB411" transform="translate(0,0)"/>
<path d="" fill="#EFB312" transform="translate(0,0)"/>
<path d="" fill="#EBAE13" transform="translate(0,0)"/>
<path d="" fill="#DEA115" transform="translate(0,0)"/>
<path d="" fill="#D59016" transform="translate(0,0)"/>
<path d="" fill="#D59416" transform="translate(0,0)"/>
<path d="" fill="#B7701C" transform="translate(0,0)"/>
<path d="" fill="#CE8C14" transform="translate(0,0)"/>
<path d="" fill="#BB7A1A" transform="translate(0,0)"/>
<path d="" fill="#B57719" transform="translate(0,0)"/>
<path d="" fill="#AC761B" transform="translate(0,0)"/>
<path d="" fill="#AB771A" transform="translate(0,0)"/>
<path d="" fill="#9C771A" transform="translate(0,0)"/>
<path d="" fill="#EBA815" transform="translate(0,0)"/>
<path d="" fill="#EBAB13" transform="translate(0,0)"/>
<path d="" fill="#EDB112" transform="translate(0,0)"/>
<path d="" fill="#E0980C" transform="translate(0,0)"/>
<path d="" fill="#519B1F" transform="translate(0,0)"/>
<path d="" fill="#529B1D" transform="translate(0,0)"/>
<path d="" fill="#60931B" transform="translate(0,0)"/>
<path d="" fill="#4DA021" transform="translate(0,0)"/>
<path d="" fill="#40A01D" transform="translate(0,0)"/>
<path d="" fill="#3FA11D" transform="translate(0,0)"/>
<path d="" fill="#E7B212" transform="translate(0,0)"/>
<path d="" fill="#E8A40A" transform="translate(0,0)"/>
<path d="" fill="#E6A40C" transform="translate(0,0)"/>
<path d="" fill="#E4A008" transform="translate(0,0)"/>
<path d="" fill="#3D9F1D" transform="translate(0,0)"/>
<path d="" fill="#3EA11E" transform="translate(0,0)"/>
<path d="" fill="#E39B0D" transform="translate(0,0)"/>
<path d="" fill="#3B9E1C" transform="translate(0,0)"/>
<path d="" fill="#E7A90D" transform="translate(0,0)"/>
<path d="" fill="#E8A60B" transform="translate(0,0)"/>
<path d="" fill="#3B9F1F" transform="translate(0,0)"/>
<path d="" fill="#E8A60C" transform="translate(0,0)"/>
<path d="" fill="#3A9E1E" transform="translate(0,0)"/>
<path d="" fill="#88A418" transform="translate(0,0)"/>
<path d="" fill="#96A517" transform="translate(0,0)"/>
<path d="" fill="#9CA616" transform="translate(0,0)"/>
<path d="" fill="#3F9B1E" transform="translate(0,0)"/>
<path d="" fill="#B8A815" transform="translate(0,0)"/>
<path d="" fill="#409C21" transform="translate(0,0)"/>
<path d="" fill="#D5970F" transform="translate(0,0)"/>
<path d="" fill="#D89510" transform="translate(0,0)"/>
<path d="" fill="#DEA30F" transform="translate(0,0)"/>
<path d="" fill="#379C20" transform="translate(0,0)"/>
<path d="" fill="#36991D" transform="translate(0,0)"/>
<path d="" fill="#359B21" transform="translate(0,0)"/>
<path d="" fill="#339A20" transform="translate(0,0)"/>
<path d="" fill="#339C21" transform="translate(0,0)"/>
<path d="" fill="#369C20" transform="translate(0,0)"/>
<path d="" fill="#339E1E" transform="translate(0,0)"/>
<path d="" fill="#359A22" transform="translate(0,0)"/>
<path d="" fill="#379C22" transform="translate(0,0)"/>
<path d="" fill="#369C22" transform="translate(0,0)"/>
<path d="" fill="#349D20" transform="translate(0,0)"/>
<path d="" fill="#339C21" transform="translate(0,0)"/>
<path d="" fill="#349A1F" transform="translate(0,0)"/>
<path d="" fill="#36A023" transform="translate(0,0)"/>
<path d="" fill="#369F24" transform="translate(0,0)"/>
<path d="" fill="#33A022" transform="translate(0,0)"/>
<path d="" fill="#389B24" transform="translate(0,0)"/>
<path d="" fill="#329B1F" transform="translate(0,0)"/>
<path d="" fill="#359D23" transform="translate(0,0)"/>
<path d="" fill="#359B20" transform="translate(0,0)"/>
<path d="" fill="#389F21" transform="translate(0,0)"/>
<path d="" fill="#35A024" transform="translate(0,0)"/>
<path d="" fill="#359C22" transform="translate(0,0)"/>
<path d="" fill="#34A023" transform="translate(0,0)"/>
<path d="" fill="#33A023" transform="translate(0,0)"/>
<path d="" fill="#359F21" transform="translate(0,0)"/>
<path d="" fill="#349F22" transform="translate(0,0)"/>
<path d="" fill="#36A122" transform="translate(0,0)"/>
<path d="" fill="#339F23" transform="translate(0,0)"/>
<path d="" fill="#35A01D" transform="translate(0,0)"/>
<path d="" fill="#33A220" transform="translate(0,0)"/>
<path d="" fill="#349E20" transform="translate(0,0)"/>
<path d="" fill="#3FAB1F" transform="translate(0,0)"/>
<path d="" fill="#3FAA1E" transform="translate(0,0)"/>
<path d="" fill="#44AE1C" transform="translate(0,0)"/>
<path d="" fill="#43AC1C" transform="translate(0,0)"/>
<path d="" fill="#3BA61E" transform="translate(0,0)"/>
<path d="" fill="#56B913" transform="translate(0,0)"/>
<path d="" fill="#52B718" transform="translate(0,0)"/>
<path d="" fill="#54B618" transform="translate(0,0)"/>
<path d="" fill="#57BC15" transform="translate(0,0)"/>
<path d="" fill="#52B414" transform="translate(0,0)"/>
<path d="" fill="#55B915" transform="translate(0,0)"/>
<path d="" fill="#58BA13" transform="translate(0,0)"/>
<path d="" fill="#57BA15" transform="translate(0,0)"/>
<path d="" fill="#56B814" transform="translate(0,0)"/>
<path d="" fill="#58B814" transform="translate(0,0)"/>
<path d="" fill="#58BA15" transform="translate(0,0)"/>
<path d="" fill="#5ABC12" transform="translate(0,0)"/>
<path d="" fill="#55B614" transform="translate(0,0)"/>
<path d="" fill="#59B815" transform="translate(0,0)"/>
<path d="" fill="#55BB14" transform="translate(0,0)"/>
<path d="" fill="#56B913" transform="translate(0,0)"/>
<path d="" fill="#56B913" transform="translate(0,0)"/>
<path d="" fill="#5BBB13" transform="translate(0,0)"/>
<path d="" fill="#56B813" transform="translate(0,0)"/>
<path d="" fill="#56B912" transform="translate(0,0)"/>
<path d="" fill="#56B811" transform="translate(0,0)"/>
<path d="" fill="#56BA11" transform="translate(0,0)"/>
<path d="" fill="#56B713" transform="translate(0,0)"/>
<path d="" fill="#58BC12" transform="translate(0,0)"/>
<path d="" fill="#54B912" transform="translate(0,0)"/>
<path d="" fill="#56B713" transform="translate(0,0)"/>
<path d="" fill="#57B911" transform="translate(0,0)"/>
<path d="" fill="#5ABB12" transform="translate(0,0)"/>
<path d="" fill="#59BF13" transform="translate(0,0)"/>
<path d="" fill="#58C011" transform="translate(0,0)"/>
<path d="" fill="#56BA12" transform="translate(0,0)"/>
<path d="" fill="#59BE13" transform="translate(0,0)"/>
<path d="" fill="#5AC00F" transform="translate(0,0)"/>
<path d="" fill="#59C012" transform="translate(0,0)"/>
<path d="" fill="#5AC010" transform="translate(0,0)"/>
<path d="" fill="#5ABF11" transform="translate(0,0)"/>
<path d="" fill="#59BE11" transform="translate(0,0)"/>
<path d="" fill="#55BB13" transform="translate(0,0)"/>
<path d="" fill="#59BD10" transform="translate(0,0)"/>
<path d="" fill="#5CBE11" transform="translate(0,0)"/>
<path d="" fill="#57BE11" transform="translate(0,0)"/>
<path d="" fill="#58BF11" transform="translate(0,0)"/>
<path d="" fill="#56BD10" transform="translate(0,0)"/>
<path d="" fill="#57BC11" transform="translate(0,0)"/>
<path d="" fill="#5ABF12" transform="translate(0,0)"/>
<path d="" fill="#59BC13" transform="translate(0,0)"/>
<path d="" fill="#59BD11" transform="translate(0,0)"/>
<path d="" fill="#58BE10" transform="translate(0,0)"/>
<path d="" fill="#59BE12" transform="translate(0,0)"/>
<path d="" fill="#5CBE11" transform="translate(0,0)"/>
<path d="" fill="#5CBF11" transform="translate(0,0)"/>
<path d="" fill="#5DC013" transform="translate(0,0)"/>
<path d="" fill="#5ABE13" transform="translate(0,0)"/>
</svg>
