<?xml version="1.0" encoding="UTF-8"?>
<svg xmlns="http://www.w3.org/2000/svg" viewBox="0 0 128 128">
  <defs>
    <filter id="s" x="-20%" y="-20%" width="140%" height="140%">
      <feDropShadow dx="0" dy="2" stdDeviation="2" flood-color="#000" flood-opacity=".25"/>
    </filter>
  </defs>
  <g filter="url(#s)">
    <path d="M16 60 L64 24 L112 60 V108 a8 8 0 0 1 -8 8 H72 a6 6 0 0 1 -6 -6 V86 a6 6 0 0 0 -6 -6 h-16 a6 6 0 0 0 -6 6 v24 a6 6 0 0 1 -6 6 H24 a8 8 0 0 1 -8 -8z" fill="#60a5fa"/>
    <path d="M16 60 L64 24 L112 60" fill="none" stroke="#fff" stroke-opacity=".25" stroke-width="4" stroke-linecap="round" stroke-linejoin="round"/>
    <path d="M58 42 v-8" stroke="#93c5fd" stroke-width="6" stroke-linecap="round"/>
    <circle cx="64" cy="24" r="2" fill="#93c5fd"/>
  </g>
</svg>