<?xml version="1.0" encoding="UTF-8"?>
<svg id="_Слой_1" data-name="Слой_1" xmlns="http://www.w3.org/2000/svg" version="1.1" viewBox="0 0 500 500">
  <!-- Generator: Adobe Illustrator 29.8.1, SVG Export Plug-In . SVG Version: 2.1.1 Build 2)  -->
  <defs>
    <style>
      .st0 {
        fill: #fab107;
      }

      .st1 {
        fill: #56bd11;
      }

      .st2 {
        fill: #6f3912;
      }

      .st3 {
        fill: #742a11;
      }

      .st4 {
        fill: #a6651a;
      }

      .st5 {
        fill: #bf761a;
      }

      .st6 {
        fill: #f7ce06;
      }

      .st7 {
        fill: #4a9e1d;
      }

      .st8 {
        fill: #9e5a15;
      }

      .st9 {
        fill: #278a16;
      }

      .st10 {
        fill: #975212;
      }

      .st11 {
        fill: #f3b307;
      }

      .st12 {
        fill: #af691b;
      }

      .st13 {
        fill: #ae661b;
      }

      .st14 {
        fill: #813113;
      }

      .st15 {
        fill: #268215;
      }

      .st16 {
        fill: #268815;
      }

      .st17 {
        fill: #803a13;
      }

      .st18 {
        fill: #f9d307;
      }

      .st19 {
        fill: #56c110;
      }

      .st20 {
        fill: #a05d16;
      }

      .st21 {
        fill: #aa4612;
      }

      .st22 {
        fill: #fad708;
      }

      .st23 {
        fill: #923b0d;
      }

      .st24 {
        fill: #3b9114;
      }

      .st25 {
        fill: #168716;
      }

      .st26 {
        fill: #5bba14;
      }

      .st27 {
        fill: #9f521a;
      }

      .st28 {
        fill: #13971b;
      }

      .st29 {
        fill: #a65e18;
      }

      .st30 {
        fill: #965012;
      }

      .st31 {
        fill: #f6a106;
      }

      .st32 {
        fill: #269b1c;
      }

      .st33 {
        fill: #259b1c;
      }

      .st34 {
        fill: #5abc13;
      }

      .st35 {
        fill: #f8d208;
      }

      .st36 {
        fill: #b26b1a;
      }

      .st37 {
        fill: #fdc209;
      }

      .st38 {
        fill: #884214;
      }

      .st39 {
        fill: #248a17;
      }

      .st40 {
        fill: #fbd607;
      }

      .st41 {
        fill: #ae671b;
      }

      .st42 {
        fill: #1b9e1c;
      }

      .st43 {
        fill: #995313;
      }

      .st44 {
        fill: #b26c1c;
      }

      .st45 {
        fill: #9d5913;
      }

      .st46 {
        fill: #742f10;
      }

      .st47 {
        fill: #3e9e1e;
      }

      .st48 {
        fill: #fbdb06;
      }

      .st49 {
        fill: #e5a30c;
      }

      .st50 {
        fill: #4c9d1f;
      }

      .st51 {
        fill: #fbe008;
      }

      .st52 {
        fill: #99471d;
      }

      .st53 {
        fill: #fdc20a;
      }

      .st54 {
        fill: #925114;
      }

      .st55 {
        fill: #ad641a;
      }

      .st56 {
        fill: #af641a;
      }

      .st57 {
        fill: #258b16;
      }

      .st58 {
        fill: #2fb21d;
      }

      .st59 {
        fill: #7e3712;
      }

      .st60 {
        fill: #a84810;
      }

      .st61 {
        fill: #b77218;
      }

      .st62 {
        fill: #229419;
      }

      .st63 {
        fill: #843419;
      }

      .st64 {
        fill: #a8661b;
      }

      .st65 {
        fill: #f7a907;
      }

      .st66 {
        fill: #268214;
      }

      .st67 {
        fill: #248816;
      }

      .st68 {
        fill: #59b913;
      }

      .st69 {
        fill: #985113;
      }

      .st70 {
        fill: #985213;
      }

      .st71 {
        fill: #139d1c;
      }

      .st72 {
        fill: #30a41a;
      }

      .st73 {
        fill: #1f7f1e;
      }

      .st74 {
        fill: #faae07;
      }

      .st75 {
        fill: #f5a306;
      }

      .st76 {
        fill: #158e1d;
      }

      .st77 {
        fill: #fab507;
      }

      .st78 {
        fill: #4bb01a;
      }

      .st79 {
        fill: #f8ab07;
      }
    </style>
  </defs>
  <path class="st72" d="M327.3,29.67c11.53,9.76,20.15,21.37,27.53,34.24q.86-.15,1.73-.3c14.89-2.18,30.5-2.26,45.05,1.66.47.12.95.25,1.44.38,24.15,6.46,44.66,22.85,57.15,43.47q8.05,13.86,8.05,20.11l1.42.68q.34,1.17.58,2.71c.09.57.18,1.15.27,1.74.09.62.17,1.24.26,1.89q.14.95.29,1.92c.71,5.09,1.02,10.15.99,15.28q.02,3.35,2.11,5.95.93.56,1.89,1.13c5.56,5.39,10.63,11.75,14.13,18.54q.78,1.4,2.89,2.55h-1.42c.21.41.43.81.65,1.23,9.31,18.5,9.95,38.47,3.15,57.89-3.37,9.22-8.53,17.13-15.14,24.55-.47.55-.94,1.1-1.43,1.67-13.07,14.75-33.08,24.54-53.16,26.22-11.17.5-21.77-.02-32.61-2.72-.33.63-.65,1.27-.99,1.92-5.19,9.85-11.88,17.42-19.92,25.21-.35.34-.7.68-1.05,1.03-7.87,7.65-16.7,15.07-28.39,15.46-6.06-.19-10.27-2.12-15.57-4.83q1.52,68.26,34.63,125.7c1.43,1.21,2.89,2.39,4.36,3.56,1.63,1.33,3.25,2.66,4.87,4,.43.35.86.7,1.3,1.07,2.6,2.14,5.18,4.28,7.74,6.46.54.46,1.07.91,1.62,1.38,3.79,3.55,6.48,7.32,6.75,12.52-.16,3.47-1.04,6.42-3.15,9.27-4.09,3.44-8.05,5.08-13.53,5.01-4.84-.59-9.48-2.41-14.07-3.95-1.15-.38-2.31-.76-3.46-1.13-2.85-.93-5.69-1.88-8.53-2.82-2.12-.7-4.23-1.4-6.35-2.1-2.89-.96-5.79-1.92-8.68-2.88q-1.15-.38-2.33-.78c-1.37-.46-2.74-.92-4.11-1.37-14.05-4.69-28.07-9.34-42.44-13.1-1.11,1.59-1.97,3.05-2.83,4.76-5.17,10-10.87,19.44-22.02,24.03-9.08,2.04-16.53-.01-24.99-3.44q-1.16-.46-2.34-.92c-2.22-.88-4.44-1.76-6.65-2.65-9.7-3.87-19.36-7.53-30-7.65q-1.31-.03-2.65-.05c-10.37.39-20.37,3.44-30.23,6.3-1.26.36-2.52.72-3.78,1.08-2.43.69-4.85,1.39-7.28,2.09q-21.24,6.09-29.57,2.32c-3.31-2.01-5.77-4.46-6.74-8.16-.81-4.72.15-8.45,2.82-12.46,2.79-3.61,5.96-6.49,9.58-9.31.89-.7,1.79-1.4,2.68-2.09,1.5-1.17,2.99-2.33,4.49-3.5q6-4.09,10.55-9.38h-1.42c-.63-1.06-1.26-2.13-1.89-3.19-.7-1.16-1.42-2.3-2.14-3.44-6.38-10.11-9.82-20.91-6.83-32.7,4.67-14.04,17.9-20.99,30.71-27.34.52-.26,1.03-.53,1.57-.8.5-.25,1-.5,1.52-.76.45-.22.89-.45,1.35-.68q1.23-.49,3.36-.49c3.62-18.51,5.68-36.97,6.38-55.79-.79.14-1.58.28-2.39.42-23.34,4.08-46.01,2-66.16-11.06-8.63-5.87-16.3-12.86-22.19-21.34q-1.68-.41-3.67-.5c-.75-.06-1.51-.13-2.29-.19q-1.22-.1-2.46-.2c-17.54-1.7-31.95-7.3-45.46-18.16-.56-.43-1.13-.86-1.71-1.3-7.69-6.11-13.16-14.31-18.14-22.51-.39-.59-.77-1.18-1.17-1.78-.9-1.53-1.27-2.65-1.66-4.34-.55-1.45-1.12-2.89-1.68-4.34-7.02-18.65-5.97-38.81,2.41-56.9,4.25-8.68,10.74-18.13,18.48-24.3,1.83-2.08,1.86-3.6,2.1-6.3q.06-.68.13-1.38c.13-1.45.25-2.91.37-4.36.09-.97.18-1.95.27-2.92q.51-5.52.62-11.06h1.42c.08-.67.16-1.35.24-2.04,2.92-19.43,18.28-37.63,33.76-49.48,15.42-11.02,33.83-18.31,53.2-19.23.75-.04,1.5-.07,2.27-.11,8.26-.2,17.48.31,25.37,2.83.05-.45.11-.9.16-1.36.75-2.77,2.13-4.99,3.65-7.44.32-.51.63-1.02.96-1.54q12.91-20.39,21.46-23.67v-1.36c1.48-1.23,2.96-2.39,4.52-3.53.46-.34.91-.68,1.38-1.02,1.34-.98,2.68-1.96,4.02-2.93.61-.44,1.21-.88,1.84-1.34,8.13-5.68,16.85-9.88,26.24-13.25.58-.21,1.16-.42,1.76-.64.52-.18,1.04-.36,1.57-.55q1.34-.48,1.91-1.92c1.45-.16,2.9-.32,4.35-.44,3.18-.37,6.27-1.1,9.38-1.79,35.05-6.67,70.48,5.11,96.97,27.19ZM363.49,286.58c-.42.41-.84.82-1.27,1.24q-.71.68-1.43,1.37c-.49.49-.98.98-1.49,1.48-.51.5-1.01.99-1.54,1.5-3.34,3.3-6.48,6.68-9.44,10.3-1.21,1.48-2.48,2.87-3.78,4.27-1.61,1.89-2.04,2.55-2.48,4.8,3.89-.3,6.12-1.14,9.22-3.4.67-.48,1.35-.95,2.04-1.45.5-.42.99-.84,1.51-1.28v-1.36c.7-.22,1.4-.45,2.13-.68q1.12-1.03,2.22-2.34c2.49-2.83,5.1-5.53,7.77-8.21,1.5-1.87,2.13-3.52,2.78-5.78-2.3-1.47-3.82-2.16-6.22-.48ZM154.95,412.79c-2.54,2.74-3.41,4.67-3.8,8.33.3,3.66,1.63,6.78,3.06,10.16h2.13c2.33-4.49,4.19-9.07,5.85-13.82.18-.52.37-1.04.55-1.58.96-2.79,1.7-5.49,2.1-8.42-3.53,0-7.4,3.1-9.89,5.32Z"/>
  <path class="st37" d="M281.81,187.73c2.79.38,4.08,1.63,6.07,3.49,9.61,8.52,21.35,13.9,34.43,14.74q1.32.14,2.03.82c.09,1.36.13,2.72.15,4.07.01.87.03,1.74.04,2.64.01.96.02,1.92.04,2.88.01.98.03,1.95.04,2.93.04,2.57.07,5.14.11,7.71.04,2.62.08,5.24.11,7.87.08,5.15.15,10.3.22,15.44.48-.42.96-.85,1.45-1.28.63-.55,1.27-1.11,1.92-1.68.63-.55,1.25-1.1,1.9-1.67,2.25-1.86,4.32-3.01,7-4.22.82-.38,1.63-.76,2.47-1.15,8.42-3.31,17.42-1.84,25.66,1.15,0,2.41-.33,2.63-2,4.31-.43.43-.85.86-1.29,1.31-.45.45-.9.9-1.37,1.36-.43.44-.86.88-1.31,1.33-1.31,1.32-2.64,2.64-3.96,3.95-.43.43-.85.86-1.29,1.3-2.43,2.4-4.8,4.33-7.79,6.1-7.47,4.66-13.49,10.65-19.27,17.09q-.79.88-1.6,1.77c-3.06,3.73-3.88,6.37-3.54,11.12.06.46.12.92.17,1.4.72-.22,1.43-.45,2.17-.68,3.69-.98,6.88-1.29,10.37.43,2.5,1.56,3.93,3.04,5.18,5.7.5,4.06.29,7.78-1.42,11.57,3.08,1.52,5.16,1.47,8.51.68,2.08-1.15,3.8-2.28,5.49-3.91.29-.28.58-.56.89-.85h1.42v-1.36q1.68-1.79,3.54-3.4h1.42c.17-.38.34-.76.52-1.16,1.09-1.9,2.45-3.27,4-4.84q4.74-4.9,6.2-11.23c.25-4.01,3.15-6.09,6.05-8.72q1.66-1.27,3.08-1.27c.17-.38.33-.76.5-1.16,1.13-1.93,2.54-3.25,4.19-4.79.58-.54,1.16-1.09,1.76-1.65.44-.41.89-.82,1.35-1.24q2.13.68,2.9,1.75c4.45,8.84,4.52,17.5,1.35,26.83-4.24,9.66-11.93,17.09-19.5,24.41-.35.34-.7.68-1.05,1.03-7.87,7.65-16.7,15.07-28.39,15.46-6.06-.19-10.27-2.12-15.57-4.83q1.52,68.26,34.63,125.7c1.43,1.21,2.89,2.39,4.36,3.56,1.63,1.33,3.25,2.66,4.87,4,.43.35.86.7,1.3,1.07,2.6,2.14,5.18,4.28,7.74,6.46q.8.68,1.62,1.38c3.79,3.55,6.48,7.32,6.75,12.52-.16,3.47-1.04,6.42-3.15,9.27-4.09,3.44-8.05,5.08-13.53,5.01-4.84-.59-9.48-2.41-14.07-3.95-1.15-.38-2.31-.76-3.46-1.13-2.85-.93-5.69-1.88-8.53-2.82-2.12-.7-4.23-1.4-6.35-2.1-2.89-.96-5.79-1.92-8.68-2.88q-1.15-.38-2.33-.78c-1.37-.46-2.74-.92-4.11-1.37-14.05-4.69-28.07-9.34-42.44-13.1-1.11,1.59-1.97,3.05-2.83,4.76-5.17,10-10.87,19.44-22.02,24.03-9.08,2.04-16.53-.01-24.99-3.44-.77-.3-1.55-.61-2.34-.92-2.22-.88-4.44-1.76-6.65-2.65-9.7-3.87-19.36-7.53-30-7.65-.87-.02-1.75-.04-2.65-.05-10.37.39-20.37,3.44-30.23,6.3-1.26.36-2.52.72-3.78,1.08-2.43.69-4.85,1.39-7.28,2.09q-21.24,6.09-29.57,2.32c-3.31-2.01-5.77-4.46-6.74-8.16-.81-4.72.15-8.45,2.82-12.46,2.79-3.61,5.96-6.49,9.58-9.31.89-.7,1.79-1.4,2.68-2.09,1.5-1.17,2.99-2.33,4.49-3.5q6-4.09,10.55-9.38h-1.42c-.63-1.06-1.26-2.13-1.89-3.19-.7-1.16-1.42-2.3-2.14-3.44-6.38-10.11-9.82-20.91-6.83-32.7,4.67-14.04,17.9-20.99,30.71-27.34.52-.26,1.03-.53,1.57-.8.5-.25,1-.5,1.52-.76.45-.22.89-.45,1.35-.68q1.23-.49,3.36-.49c3.19-16.29,5.4-32.67,6.14-49.23q.17-3.58.6-5.1c.44-1.83.42-3.51.41-5.38,0-.8,0-1.6-.01-2.43,0-.88-.02-1.76-.02-2.66,0-.94-.01-1.87-.02-2.81,0-1.49-.02-2.99-.03-4.48-.02-3.71-.04-7.42-.04-11.12,0-.54,0-1.08,0-1.63,0-2.22,0-4.44,0-6.66,0-6.3-.02-12.6-.08-18.9-.04-5.01-.06-10.02-.04-15.02,0-2.65,0-5.3-.04-7.94-.04-2.49-.04-4.99-.01-7.48,0-1.34-.03-2.69-.06-4.03.07-3.6.16-5.9,2.7-8.67,1.97-1.55,3.99-2.91,6.11-4.27,4.04-3.44,7.11-7.15,9.92-11.57,3.38.61,6.44,2.2,9.54,3.6,13.51,5.88,30.24,5.93,44.09,1.04,7.85-3.05,14.5-7.39,20.81-12.81.5-.42,1-.83,1.52-1.26,4.69-4.16,8.39-9.59,11.24-15.07ZM154.95,412.79c-2.54,2.74-3.41,4.67-3.8,8.33.3,3.66,1.63,6.78,3.06,10.16h2.13c2.33-4.49,4.19-9.07,5.85-13.82.18-.52.37-1.04.55-1.58.96-2.79,1.7-5.49,2.1-8.42-3.53,0-7.4,3.1-9.89,5.32Z"/>
  <path class="st19" d="M327.3,29.67c11.53,9.76,20.15,21.37,27.53,34.24q.86-.15,1.73-.3c14.89-2.18,30.5-2.26,45.05,1.66.47.12.95.25,1.44.38,24.15,6.46,44.66,22.85,57.15,43.47q8.05,13.86,8.05,20.11l1.42.68c.38,1.8.66,3.54.89,5.36q.11.75.22,1.51.49,3.76-1.11,6.06c-.39-.37-.78-.74-1.18-1.12-4.61-4.21-9.47-7.28-15-10.27-1.16-.64-2.32-1.3-3.47-1.97-5.02-2.89-10.09-5.28-15.49-7.43-.8-.32-1.6-.64-2.42-.97-6.75-2.67-13.56-4.9-20.58-6.81-.75-.21-1.51-.43-2.28-.65-4.39-1.21-8.81-2.04-13.31-2.75.23.44.46.89.7,1.34.93,2.66.96,5.02.94,7.8.01.5.02,1,.03,1.52,0,4-.84,6.8-3.76,9.8-.48.39-.97.78-1.46,1.18-.48.4-.97.79-1.46,1.2-4.06,2.85-10.73,2.2-15.55,1.65-8.43-2.48-18.53-11.37-23.39-18.37.12.7.23,1.4.35,2.13.82,6.39,1.84,14.82-2.09,20.43-3.79,4.39-7.91,7.7-13.86,8.74-10.2.87-18.84-2.22-26.77-8.31-3.45-2.9-6.45-6-9.38-9.38-.47-.22-.94-.45-1.42-.68-.19.5-.38,1-.57,1.52-4.04,8.98-13.11,15.37-22.17,19.11-11.59,3.83-24.18,2.72-35.39-1.58-1.18-.41-2.36-.82-3.54-1.23-.7-.27-1.4-.53-2.13-.81-.19.4-.38.81-.58,1.23-6.91,14.03-19.79,26-35.05,31.48-.64.21-1.28.41-1.95.63-.64.21-1.27.41-1.92.63-11.25,3.44-22.87,3.16-33.44-1.98-6.22-3.24-10.81-8.03-13.56-14.3v-1.36c-1.99,1.84-3.7,3.75-5.36,5.87-9.66,11.6-25.17,21.48-40.72,23.39-9.49.66-18.47.47-26.23-5.44-3.85-3.43-6.1-7.09-6.55-12.15-.1-4.32.43-8.17,1.59-12.34-.58.35-1.16.69-1.75,1.05-16.99,10.06-38.44,22.3-59.21,21.4.44-1.94,1.07-3.56,2.04-5.32.93-1.72,1.69-3.32,2.39-5.14,2.77-6.3,9.03-11.98,14-16.75.21-1.52.38-3.04.53-4.56.05-.46.09-.92.14-1.39.1-.97.19-1.95.29-2.92.14-1.48.29-2.97.44-4.45q.58-5.57.72-11.16h1.42c.08-.67.16-1.35.24-2.04,2.92-19.43,18.28-37.63,33.76-49.48,15.42-11.02,33.83-18.31,53.2-19.23.75-.04,1.5-.07,2.27-.11,8.26-.2,17.48.31,25.37,2.83.05-.45.11-.9.16-1.36.75-2.77,2.13-4.99,3.65-7.44.32-.51.63-1.02.96-1.54q12.91-20.39,21.46-23.67v-1.36c1.48-1.23,2.96-2.39,4.52-3.53.46-.34.91-.68,1.38-1.02,1.34-.98,2.68-1.96,4.02-2.93.61-.44,1.21-.88,1.84-1.34,8.13-5.68,16.85-9.88,26.24-13.25.58-.21,1.16-.42,1.76-.64.52-.18,1.04-.36,1.57-.55q1.34-.48,1.91-1.92c1.45-.16,2.9-.32,4.35-.44,3.18-.37,6.27-1.1,9.38-1.79,35.05-6.67,70.48,5.11,96.97,27.19Z"/>
  <path class="st13" d="M281.81,187.73c2.79.38,4.08,1.63,6.07,3.49,9.61,8.52,21.35,13.9,34.43,14.74q1.32.14,2.03.82c.09,1.37.14,2.75.16,4.12q.02,1.33.05,2.68c.05,4.06.09,8.12.12,12.17.02,2.14.05,4.28.09,6.42.05,2.59.08,5.17.09,7.76,0,.98.02,1.97.05,2.95q.18,7.7-1.64,10.44c-1.23,1.18-2.46,2.15-3.87,3.12-.81.87-1.61,1.74-2.39,2.64-1.82,2.04-3.74,3.92-5.76,5.78-6.93,6.6-11.71,14.38-11.92,23.9.07,7.59,2.38,13.98,8.02,19.39q-6.67,7.84-9.92,11.57c-1.42-.68-2.84-1.36-4.25-2.06q-.7-.35-1.42-.7c-.47-.23-.94-.46-1.42-.7-6.02-2.61-13.05-1.71-19.06.45-8.6,3.8-15.69,9.74-22.86,15.56-1.67,1.34-3.37,2.63-5.09,3.91-1.11.86-2.22,1.73-3.32,2.59-.71.55-1.41,1.09-2.14,1.66-6.1,4.9-10.97,10.91-12.03,18.75-.34,6.29-.42,11.79,2.13,17.69v2.04c-1.68,1.14-3.31,2.13-5.1,3.1-.48.27-.95.54-1.45.82-2.48,1.39-4.92,2.62-7.64,3.56-.29-.35-.58-.71-.89-1.07-5.16-5.98-10.24-8.54-18.25-9.81-9.06-.81-17.53,2.23-25.52,6.12.09-.44.17-.88.26-1.33,3.06-15.86,5.16-31.79,5.88-47.9q.17-3.58.6-5.1c.44-1.83.42-3.51.41-5.38,0-.8,0-1.6-.01-2.43,0-.88-.02-1.76-.02-2.66,0-.94-.01-1.87-.02-2.81,0-1.49-.02-2.99-.03-4.48-.02-3.71-.04-7.42-.04-11.12,0-.54,0-1.08,0-1.63,0-2.22,0-4.44,0-6.66,0-6.3-.02-12.6-.08-18.9-.04-5.01-.06-10.02-.04-15.02,0-2.65,0-5.3-.04-7.94-.04-2.49-.04-4.99-.01-7.48,0-1.34-.03-2.69-.06-4.03.07-3.6.16-5.9,2.7-8.67,1.97-1.55,3.99-2.91,6.11-4.27,4.04-3.44,7.11-7.15,9.92-11.57,3.38.61,6.44,2.2,9.54,3.6,13.51,5.88,30.24,5.93,44.09,1.04,7.85-3.05,14.5-7.39,20.81-12.81.5-.42,1-.83,1.52-1.26,4.69-4.16,8.39-9.59,11.24-15.07Z"/>
  <path class="st41" d="M323.64,324.48c2.78,2.41,3.42,3.83,3.7,7.37.03.75.07,1.5.1,2.28q.06,1.3.13,2.64c.02.47.05.94.07,1.42q2.36,63.56,34.18,116.76c1.43,1.21,2.89,2.39,4.36,3.56,1.63,1.33,3.25,2.66,4.87,4,.43.35.86.7,1.3,1.07,2.6,2.14,5.18,4.28,7.74,6.46.54.46,1.07.91,1.62,1.38,3.79,3.55,6.48,7.32,6.75,12.52-.16,3.47-1.04,6.42-3.15,9.27-4.09,3.44-8.05,5.08-13.53,5.01-4.84-.59-9.48-2.41-14.07-3.95-1.15-.38-2.31-.76-3.46-1.13-2.85-.93-5.69-1.88-8.53-2.82-2.12-.7-4.23-1.4-6.35-2.1-2.89-.96-5.79-1.92-8.68-2.88-.77-.26-1.54-.51-2.33-.78-1.37-.46-2.74-.92-4.11-1.37-14.05-4.69-28.07-9.34-42.44-13.1-1.11,1.59-1.97,3.05-2.83,4.76-5.17,10-10.87,19.44-22.02,24.03-9.08,2.04-16.53-.01-24.99-3.44-.77-.3-1.55-.61-2.34-.92-2.22-.88-4.44-1.76-6.65-2.65-9.7-3.87-19.36-7.53-30-7.65-.87-.02-1.75-.04-2.65-.05-10.37.39-20.37,3.44-30.23,6.3-1.26.36-2.52.72-3.78,1.08-2.43.69-4.85,1.39-7.28,2.09q-21.24,6.09-29.57,2.32c-3.31-2.01-5.77-4.46-6.74-8.16-.81-4.72.15-8.45,2.82-12.46,2.79-3.61,5.96-6.49,9.58-9.31.89-.69,1.77-1.38,2.66-2.07,1.49-1.16,2.98-2.31,4.47-3.47,3.63-2.82,7.16-5.71,10.6-8.75,2.35.98,3.89,2.24,5.72,3.95,3.44,2.99,6.98,4.68,11.3,6.25.8.29,1.61.59,2.44.89,17.45,3.23,37.58-8.15,51.57-17.19,7.9-5.36,14.18-12.1,15.97-21.49.78-6.57.06-12.37-1.93-18.69,1.71-1.06,3.42-2.11,5.14-3.15.48-.3.97-.61,1.46-.92,1.32-.79,2.58-1.5,4.03-2.06q1.6.37,2.84,1.36c.43.31.87.61,1.32.93.44.34.88.68,1.34,1.03,7.46,5.44,14.98,6.95,24.28,6.21,11.7-2.02,21.59-9.15,30.48-16.33.43-.34.86-.69,1.3-1.04,2.91-2.33,5.78-4.71,8.62-7.12.56-.47,1.13-.95,1.71-1.44,7.56-6.76,11.72-16.2,12.12-26.07-.31-8.28-3.28-15.68-7.44-22.83.55-.57,1.11-1.15,1.68-1.74.72-.75,1.45-1.51,2.17-2.26.37-.38.73-.76,1.11-1.15q2-2.03,3.54-4.38Z"/>
  <path class="st53" d="M365.46,241.48c0,2.41-.33,2.63-2,4.31-.43.43-.85.86-1.29,1.31-.45.45-.9.9-1.37,1.36-.43.44-.86.88-1.31,1.33-1.31,1.32-2.64,2.64-3.96,3.95-.43.43-.85.86-1.29,1.3-2.43,2.4-4.8,4.33-7.79,6.1-7.47,4.66-13.49,10.65-19.27,17.09-.53.58-1.05,1.17-1.6,1.77-3.06,3.73-3.88,6.37-3.54,11.12q.09.69.17,1.4c.72-.22,1.43-.45,2.17-.68,3.69-.98,6.88-1.29,10.37.43,2.5,1.56,3.93,3.04,5.18,5.7.5,4.06.29,7.78-1.42,11.57,3.08,1.52,5.16,1.47,8.51.68,2.08-1.15,3.8-2.28,5.49-3.91q.44-.42.89-.85h1.42v-1.36q1.68-1.79,3.54-3.4h1.42c.17-.38.34-.76.52-1.16,1.09-1.9,2.45-3.27,4-4.84q4.74-4.9,6.2-11.23c.25-4.01,3.15-6.09,6.05-8.72q1.66-1.27,3.08-1.27c.17-.38.33-.76.5-1.16,1.13-1.93,2.54-3.25,4.19-4.79q.87-.82,1.76-1.65c.44-.41.89-.82,1.35-1.24q2.13.68,2.9,1.75c4.45,8.84,4.52,17.5,1.35,26.83-4.24,9.66-11.93,17.09-19.5,24.41-.35.34-.7.68-1.05,1.03-7.87,7.65-16.7,15.07-28.39,15.46-6.72-.21-12.99-2.18-17.87-6.79-.41-.48-.82-.95-1.24-1.45-.91.83-1.81,1.67-2.7,2.51-.5.47-1,.93-1.52,1.41q-2.14,2.24-3.58,4.92.77,2.23,2.22,4.46c4.72,8.31,6.48,16.91,3.85,26.19-3.96,12.6-13.24,20.69-23.79,28.54-.42.32-.84.64-1.27.97-11.62,8.81-23,15.94-38.43,14.68-6.83-1.18-12.61-4.44-17.72-8.84q.35-.67.71-1.36,2.11,1.68,4.25,3.4,9.84-5.31,16.31-13.61-.35-.67-.71-1.36c.48,0,.96-.02,1.46-.03,9.03-.44,14.6-4.6,21.23-10.18.6-.5,1.2-1,1.82-1.52,1.78-1.51,3.53-3.05,5.27-4.61.64-.57,1.28-1.14,1.94-1.73,4.23-3.89,6.98-6.55,7.49-12.3-.21-2.18-.65-3.74-1.64-5.7q-.58.31-1.17.62c-4.04,1.95-7.19,2.77-11.59,1.42-3.39-1.99-4.87-4-6.06-7.53-.4-1.61-.48-3.08-.32-4.72h1.42c.1-.48.21-.97.32-1.47,1.12-4.61,2.51-7.51,6.06-10.78l1.77-1.7,1.77-1.7q2.78-2.86,4.96-6.12h1.42c.16-.37.32-.74.48-1.12,1.66-2.83,4.19-5,6.52-7.34q1.73-1.63,1.5-3.78c-.74-1.06-1.53-2.09-2.35-3.1-4.64-6.25-5.52-12.43-4.74-20.03,2.36-10.64,9.97-17.83,17.8-25.22,1.32-1.29,2.55-2.62,3.78-3.99,12.49-13.77,26.33-20.44,45.06-13.65Z"/>
  <path class="st54" d="M281.81,187.73c2.79.38,4.08,1.63,6.07,3.49,9.61,8.52,21.35,13.9,34.43,14.74q1.32.14,2.03.82c.09,1.38.13,2.76.15,4.15.01.89.03,1.78.04,2.69.01.98.02,1.96.03,2.93,0,.49,0,.98.01,1.49.02,2.6.04,5.2.05,7.79.01,2.15.04,4.3.07,6.45.04,2.59.06,5.19.07,7.78,0,.99.02,1.98.04,2.97q.15,7.77-1.45,10.04-1.18.95-3.28,2.02c-.29-.51-.58-1.03-.88-1.56-4.76-7.02-17.75-12.1-26.06-14.09-.53-.14-1.05-.28-1.59-.42-18.39-4.05-32.76,1.94-48.33,10.52-4.88,2.69-9.68,5-15.03,6.69-.89.28-1.77.57-2.69.86-16.32,4.59-33.02-.27-47.91-6.77v72.8h-.71c-.18-12.05-.32-24.09-.4-36.14-.04-5.59-.09-11.19-.18-16.78-.08-4.88-.13-9.75-.15-14.63-.01-2.58-.03-5.16-.09-7.74-.05-2.43-.07-4.86-.06-7.3,0-1.31-.04-2.62-.09-3.93.05-3.56.14-5.78,2.66-8.51,1.97-1.55,4-2.92,6.11-4.29,4.04-3.44,7.11-7.15,9.92-11.57,3.38.61,6.44,2.2,9.54,3.6,13.51,5.88,30.24,5.93,44.09,1.04,7.85-3.05,14.5-7.39,20.81-12.81.5-.42,1-.83,1.52-1.26,4.69-4.16,8.39-9.59,11.24-15.07Z"/>
  <path class="st57" d="M108.13,227.87c2.26,1.02,4.23,2.26,6.29,3.61,12.49,7.67,28.21,9,42.56,6.26,6.41-1.51,12.88-3.83,18.5-7.15h1.42v72.11q-23.28,0-30.48-2.72c-.7-.26-1.4-.52-2.12-.79-1.94-.8-3.81-1.67-5.68-2.61-.58-.28-1.16-.57-1.76-.86-9.85-5.22-18.29-13.9-23.06-23.63q-.74.02-1.5.04c-2.29.06-4.58.09-6.87.13-.78.02-1.56.05-2.36.07-8.29.09-14.29-1.83-20.29-7.38-3.43-3.7-7.25-8.83-7.25-13.95.78-.28,1.56-.56,2.36-.85,6.52-2.42,12.06-5.03,17.49-9.35.45-.33.89-.65,1.35-.99,3.38-2.57,5.96-5.72,8.63-8.95q1.36-1.63,2.78-2.99Z"/>
  <path class="st56" d="M387.44,197.25c1.65.28,3.28.6,4.92.94,6.37,1.25,12.7,1.58,19.18,1.79,1.32,20.94-6.8,46.16-21.27,61.91-1.67,1.78-3.36,3.56-5.06,5.31-1.47,1.51-2.87,3.02-4.2,4.64-1.31,1.55-2.66,2.79-4.25,4.08-.93.76-1.87,1.53-2.79,2.3q-.6.48-1.21.96c-1.21,1.42-1.27,2.45-1.41,4.27-.05.55-.09,1.1-.14,1.67-.03.42-.05.84-.08,1.27q-3.24.78-4.94.24-1.47-.41-2.64.5c-.39.38-.78.77-1.18,1.16-.44.42-.88.85-1.33,1.29-.46.46-.92.93-1.39,1.4-.47.47-.95.93-1.43,1.41-3.24,3.23-6.27,6.55-9.16,10.07-1.22,1.49-2.5,2.92-3.81,4.34q-1.87,1.9-2.48,4.08c-1.4-.22-2.81-.45-4.25-.68q0-2.72.71-4.76c.36-3.58.44-6.57-1.15-9.86-2.57-2.59-4.65-3.63-8.37-3.95-2.71.23-4.91.77-7.49,1.57-1.19-1.14-1-2.43-1.11-4,.09-5.08,2.66-7.99,6.07-11.65q.57-.62,1.15-1.25c5.65-6.07,11.22-11.79,18.43-16.14,8.24-5.16,14.9-12.57,20.82-20.03.56-.67,1.11-1.34,1.69-2.03,8.78-10.87,15.13-24.41,17.14-38.07q.32-2.08,1.02-2.76Z"/>
  <path class="st2" d="M268.17,279.02c6.34,5.21,11.51,10.94,12.51,19.2.06,2.35.03,4.68-.06,7.04-.02.81-.03,1.61-.05,2.44-.04,1.96-.1,3.93-.17,5.89h6.38v.68c-.57.02-1.13.04-1.72.05-15.4.76-25.36,8.77-36.66,17.93-1.67,1.34-3.37,2.63-5.09,3.91-4.9,3.73-9.58,7.83-13.96,12.12-5.07-6.11-9.23-12.72-9.34-20.74,0-.6-.02-1.2-.03-1.82,0-.64-.01-1.29-.02-1.95,0-.67-.01-1.34-.02-2.03,0-1.42-.02-2.85-.02-4.27,0-1.44-.02-2.89-.04-4.33-.18-12.19.61-21.17,9.67-30.47,10.44-9.64,26.45-12.23,38.61-3.65Z"/>
  <path class="st67" d="M368.3,187.73c.48.26.96.51,1.46.77,4.43,2.34,8.9,4.57,13.43,6.71,1.42.68,2.84,1.36,4.25,2.04-2.84,16.88-9.64,31.38-20.56,44.9-.53-.14-1.06-.28-1.61-.42-.7-.18-1.4-.37-2.12-.56-.69-.18-1.38-.36-2.09-.55-.65-.17-1.31-.34-1.98-.51-.45-.13-.9-.26-1.36-.4-8.81-1.69-17.06.13-24.54,4.64-2.47,1.69-4.7,3.6-6.91,5.59q-1.22,1.05-1.92,1.05v-44.22c3.28-.22,6.55-.45,9.92-.68,2.07-.31,4.01-.63,6.03-1.11q.75-.18,1.52-.35c8.54-2.14,15.32-6.12,21.52-12.15q.58-.54,1.17-1.1c.8-.76,1.59-1.53,2.37-2.3l1.42-1.36Z"/>
  <path class="st29" d="M281.1,336.04l-.35,1.36c-.82,4.71-.64,8.7,1.77,12.93,2.36,2.6,4.73,3.26,8.21,3.53,3-.22,5.49-1.47,8.1-2.85,1.89,3.11,2.58,5.25,2.13,8.84-1.7,4.6-4.82,7.76-8.42,11.1-.53.5-1.07,1-1.61,1.52q-16.42,15.24-26.03,15.66c-2.59-.11-3.41-.22-5.54-1.74-.31-.45-.61-.9-.93-1.36.23-.46.47-.93.71-1.4,1.14-3.22,1.11-5.74-.13-8.93-1.91-2.84-4.38-4.75-7.67-6-1.41-.26-2.83-.49-4.25-.68-.43-5.04.5-8.18,3.86-12.08,4.48-4.62,9.96-8.26,15.21-12.03,1.37-.99,2.74-1.98,4.11-2.97q6.88-5,10.85-4.9Z"/>
  <path class="st55" d="M190.94,396.51q1.04.02,2.1.04c.52.02,1.04.03,1.58.05-.29.31-.58.62-.88.95-.38.42-.76.83-1.16,1.26-.38.41-.76.82-1.15,1.24-2.43,2.98-2.8,5.34-2.71,9.06.45,3.52,1.89,6.16,4.57,8.58,4.73,1.58,9.46.87,14.09-.68.06,3.47-.35,6.13-2.66,8.89-5.72,5.58-13.4,8.76-20.65,12.12-.7.32-1.4.65-2.12.98q-10.02,4.55-14.98,3.86c-4.49-1.94-8.2-5.25-11.34-8.84q-.71-2.04,0-3.6c.36-.62.73-1.25,1.1-1.89,2.47-4.53,4.09-9.18,5.7-14.04.17-.49.34-.97.52-1.47q.5-1.43.76-2.88c.64-2.52,1.34-3.69,3.61-5.18,2.3-1.16,4.62-2.18,7-3.17q1.21-.53,2.44-1.07c2.16-.94,4.33-1.86,6.51-2.76.63-.26,1.26-.51,1.9-.78,2-.71,3.63-.71,5.76-.67Z"/>
  <path class="st30" d="M321.51,346.25q1.41.74,2.84,2.04.28,2.04.17,4.53c-.02.45-.03.89-.05,1.35-.04.95-.08,1.89-.13,2.84-.08,1.42-.13,2.84-.18,4.26-.3,7.44-.66,14.93-4.33,21.64-.24.46-.49.91-.74,1.38-8.55,15.16-25.71,27.85-41.53,35.44-.63.31-1.25.62-1.9.93-6.72,2.83-15.77,3.1-22.69.68-2.71-1.24-4.83-2.89-6.91-4.97q-1.07-.86-2.4-.66c-2.88,1.13-5.44,2.79-8.09,4.35q-1.97,1.02-4.1,1.02c-.23.9-.47,1.8-.71,2.72-.03-.64-.05-1.28-.08-1.95-.3-5.71-1.06-10.91-2.76-16.42,1.71-1.06,3.42-2.11,5.14-3.15.48-.3.97-.61,1.46-.92,1.32-.79,2.58-1.5,4.03-2.06q1.6.37,2.84,1.36.65.46,1.32.93c.44.34.88.68,1.34,1.03,7.46,5.44,14.98,6.95,24.28,6.21,11.7-2.02,21.59-9.15,30.48-16.33.43-.34.86-.69,1.3-1.04,2.91-2.33,5.78-4.71,8.62-7.12.56-.47,1.13-.95,1.71-1.44,7.01-6.26,11.2-14.9,11.95-24.05.05-4.24-.31-8.41-.9-12.61Z"/>
  <path class="st10" d="M230.06,424.48h.71c1.95,7.97,1.12,15.15-3.2,22.15-4.77,7.01-11.3,11.41-18.74,15.61-.78.44-1.56.89-2.36,1.34-5.92,3.32-11.88,6.28-18.26,8.67-1.35.51-2.69,1.06-4.03,1.61-9.16,3.44-20.37,4.06-29.59.45-5.82-2.73-10.42-6.05-15.1-10.32q-1.47-1.43-3.01-2.09-.35-1.01-.71-2.04c-.94.67-1.87,1.35-2.84,2.04-.47-.22-.94-.45-1.42-.68,1.7-1.49,3.42-2.95,5.14-4.42q.73-.63,1.46-1.28t1.43-1.21c.43-.37.86-.74,1.3-1.12q1.3-.81,4.13-.81,1.55,1.22,3.23,2.85c3.58,3.23,7.07,5.05,11.65,6.68.8.29,1.61.59,2.44.89,17.45,3.23,37.58-8.15,51.57-17.19,8.08-5.48,13.4-11.93,16.17-21.13Z"/>
  <path class="st39" d="M434.94,189.09c3.4,2.17,5.04,4.53,6.38,8.16.39,2.35.41,4.64.35,7.02q-.01.95-.03,1.92c-.14,4.71-.77,8.66-3.16,12.84-.34.61-.69,1.22-1.04,1.84-4.5,7.29-10.09,13.48-18.1,17.2-.69.32-1.38.64-2.09.98-4.51,1.95-8.56,2.99-13.51,3.11-.77-2.23-.68-2.62.05-4.74.18-.54.36-1.07.54-1.63q.3-.87.6-1.76c3.64-11.2,5.56-22.39,6.6-34.06q1.09-.22,2.21-.45c8.31-1.79,15.4-4.13,21.19-10.43Z"/>
  <path class="st72" d="M244.11,67.69c2.07,2.22,2.42,3.45,2.26,6.42-2.26,3.01-4.55,4.93-7.8,6.97-3.36,2.15-6.58,4.4-9.75,6.8q-9.77,7.27-16.27,6.92c-3.26-.58-5.14-2.15-7.21-4.54-1.06-2.49-1.26-4.69-.8-7.31,4.1-8.2,13.89-12.58,22.36-15.61,5.02-1.28,12.55-2.17,17.21.35Z"/>
  <path class="st72" d="M160.63,95.46c.53.01,1.06.02,1.6.03,8.76.37,15.74,4.04,21.78,9.98,3.7,3.92,5.29,6.54,5.16,11.91-.32,2.38-1.19,3.49-3.06,5.04-2.61,1.57-5.17,1.67-8.15,1.26-3.39-1.1-5.79-3.54-8.43-5.77-2.11-1.71-4.35-3.24-6.59-4.8-.91-.63-1.81-1.26-2.72-1.9-.42-.29-.85-.59-1.28-.89-1.54-1.07-3.07-2.16-4.59-3.25-.41-.3-.83-.59-1.25-.9-1.95-1.48-2.39-1.92-2.78-4.38.39-2.78,1.05-3.53,3.32-5.21,2.24-1.21,4.51-1.2,7.01-1.12Z"/>
  <path class="st69" d="M190.94,396.51q1.04.02,2.1.04c.52.02,1.04.03,1.58.05-.29.31-.58.62-.88.95-.38.42-.76.83-1.16,1.26-.38.41-.76.82-1.15,1.24-2.12,2.6-2.69,4.65-2.93,7.94-.05.67-.11,1.34-.16,2.03-.03.51-.07,1.02-.11,1.54q-.35-1.01-.71-2.04c-2.78,1.22-5.55,2.44-8.33,3.66-.79.35-1.58.69-2.39,1.05-.76.33-1.52.67-2.3,1.01q-1.05.46-2.11.93c-1.15.52-2.3,1.05-3.42,1.63q-1.3.57-3.43.57c-.23-1.35-.47-2.69-.71-4.08l-1.42.68c.08-.96.17-1.93.27-2.89.05-.54.1-1.07.15-1.63.32-1.77.69-2.81,1.71-4.33q1.73-1.04,3.89-2c.78-.35,1.56-.71,2.36-1.07.82-.36,1.63-.72,2.48-1.09.81-.37,1.62-.73,2.45-1.11q9.86-4.43,14.21-4.33Z"/>
  <path class="st70" d="M279.69,346.93c1.31,1.22,2.37,2.36,3.46,3.78,1.71,1.89,2.52,2.48,5.05,3.02,4.01,0,7.14-.75,10.63-2.72,1.89,3.11,2.58,5.25,2.13,8.84-1.46,4.29-4.07,6.87-7.8,9.52.85-1.7,1.74-3.18,2.84-4.76-.35.22-.7.45-1.06.68-3.4,1.3-6.4,1.04-9.75-.13-2.83-1.79-4.42-3.59-5.49-6.68-.06-.91-.08-1.82-.07-2.73,0-.52,0-1.03,0-1.56,0-.53.01-1.07.02-1.62,0-.54,0-1.08,0-1.64,0-1.34.02-2.67.03-4.01Z"/>
  <path class="st79" d="M313.71,335.36h1.42q2.85,4.14,2.81,6.68c-.9,2.86-2.45,4.6-4.49,6.8-.35.4-.7.8-1.06,1.21-1.64,1.81-2.64,2.91-5.05,3.68v1.36c-1.64.9-3.28,1.8-4.96,2.72l-.71-2.72h-1.42c-.7-1.57-1.4-3.14-2.13-4.76.31-.25.62-.5.94-.75,3.21-2.63,6.26-5.4,9.25-8.26.37-.35.74-.71,1.12-1.07,1.62-1.56,3-3.04,4.28-4.88Z"/>
  <path class="st43" d="M188.24,412.24c1.32,1.27,2.64,2.54,3.94,3.83,2.78,2.6,4.64,2.44,8.38,2.41,2.46-.15,4.5-.7,6.82-1.47.08,4.56-1.01,7.11-4.31,10.39-1.78,1.53-3.55,2.74-5.62,3.9l-1.42-.68.71-.68c-.64-.15-1.29-.31-1.95-.47-2.7-1.05-3.59-1.95-5.14-4.29-1.27-3.02-1.58-5.51-1.51-8.76.01-.78.03-1.57.04-2.38.02-.59.03-1.18.05-1.79Z"/>
  <path class="st65" d="M257,386.39c2.43.82,3.92,1.6,5.67,3.4-4.08,4.88-8.76,8.78-14.18,12.25h-2.13l-.71,1.36c-.8-.54-1.6-1.08-2.39-1.62-.44-.3-.89-.6-1.35-.91q-1.22-.88-2.64-2.24.87-.49,1.77-1c5.7-3.29,11.22-6.71,15.96-11.25Z"/>
  <path class="st66" d="M5.34,193.85c.89,2.55.38,3.65-.31,6.25-4.33,18.59.22,38.77,10.23,54.98,2.56,3.76,5.52,7.21,8.55,10.63q1.37,1.62,1.37,2.98c.4.16.8.32,1.21.49,1.97,1.06,3.3,2.36,4.9,3.89,7.36,6.52,16.36,11.46,25.79,14.67-2.75.87-4.14.29-6.72-.95q-.73-.37-1.48-.75c-.51-.25-1.02-.51-1.54-.77-16.17-8.16-27.22-19.26-36.34-34.27-.39-.59-.77-1.18-1.17-1.78-.9-1.53-1.27-2.65-1.66-4.34-.55-1.45-1.12-2.89-1.68-4.34-5.58-14.81-6.11-30.79-1.86-46.01l.71-.68Z"/>
  <path class="st52" d="M321.51,286.38h.71c.47,1.35.94,2.69,1.42,4.08.61-.03,1.22-.06,1.84-.1q8.49-.26,12.34,2.82c2.85,2.97,3.76,5.49,3.77,9.52-.06,1.13-.12,2.27-.22,3.4l2.84.68-1.42,4.08c-1.4-.22-2.81-.45-4.25-.68q0-2.72.71-4.76c.36-3.58.44-6.57-1.15-9.86-2.57-2.59-4.65-3.63-8.37-3.95-2.71.23-4.91.77-7.49,1.57q-.71-.68-.78-2.09c0-.56.02-1.12.02-1.7,0-.56.01-1.12.02-1.7,0-.43.02-.87.02-1.32Z"/>
  <path class="st21" d="M315.84,206.1h7.8c.99,1.89.76,3.4.72,5.51q-.02,1.31-.04,2.64c-.02.95-.04,1.91-.06,2.86-.02.97-.03,1.95-.05,2.92-.04,2.57-.09,5.13-.14,7.7-.05,2.62-.1,5.24-.14,7.85-.09,5.14-.19,10.27-.29,15.41q-.7.34-1.42.68c.23-14.59.47-29.19.71-44.22-2.34-.22-4.68-.45-7.09-.68v-.68Z"/>
  <path class="st16" d="M476.76,162.56c3.59,2.54,6.12,5.39,8.68,8.84.3.4.6.81.91,1.22,1.38,1.9,2.54,3.7,3.6,5.79q.88,2,3.11,3.19h-1.42c.25.48.5.97.75,1.47,1.8,3.63,3.22,6.75,3.5,10.78-1.11-1.6-1.86-2.91-2.62-4.66-3.69-8.31-7.82-15.47-13.9-22.43-1.1-1.36-1.89-2.64-2.62-4.21Z"/>
  <path class="st76" d="M346.32,260.52l1.42.68c-5.17,5.18-10.52,10-17.01,13.61,2.61-6.09,9.85-11.06,15.6-14.29Z"/>
  <path class="st60" d="M387.44,197.25c.67.14,1.34.28,2.03.42,7.36,1.46,14.57,2.06,22.07,2.3-.23.45-.47.9-.71,1.36-3.87,1.09-7.42.35-11.3-.3-4.08-.67-7.95-1.2-12.1-1.06v-2.72Z"/>
  <path class="st32" d="M351.29,116.3l9.92,9.52q-2.13,0-3.42-1.04c-1.22-1.24-2.45-2.48-3.67-3.72-.23,4.27-.47,8.53-.71,12.93h-.71c-.04-.76-.09-1.53-.13-2.31-.3-5.14-.61-10.26-1.29-15.37Z"/>
  <path class="st3" d="M207.38,417c.07,3.88-.51,6.28-3.23,9.23-.8.79-1.61,1.58-2.44,2.34l-1.42-.68c.36-.35.72-.71,1.09-1.07.46-.47.92-.95,1.4-1.44.46-.47.92-.93,1.4-1.41,1.28-1.8,1.3-2.79,1.09-4.92-.7.22-1.4.45-2.13.68-1.34.05-2.69.06-4.03.04-.7,0-1.41-.01-2.14-.02q-.81-.01-1.63-.02v-.68c.65-.09,1.3-.18,1.97-.27.84-.12,1.69-.24,2.55-.36.84-.12,1.68-.24,2.54-.36,1.82-.31,3.19-1.04,4.99-1.04Z"/>
  <path class="st45" d="M205.25,482.99v1.36c.47.22.94.45,1.42.68-.47-.04-.93-.08-1.41-.12-6.61-.56-13.23-.9-19.86-1.24v-.68c2.24-.14,4.49-.26,6.73-.38.63-.04,1.26-.08,1.91-.12,3.85-.2,7.4-.08,11.21.5Z"/>
  <path class="st27" d="M339.23,305.43c.56.22,1.11.45,1.68.68q1.75.76,3.28.68c-.47,1.35-.94,2.69-1.42,4.08q-2.11-.34-4.25-.68,0-2.72.71-4.76Z"/>
  <path class="st8" d="M324.35,482.31h5.67c.23.45.47.9.71,1.36q1.36.64,3.02,1.17c.61.21,1.21.42,1.83.64.64.22,1.27.43,1.93.65.64.22,1.28.44,1.94.67,1.58.55,3.17,1.09,4.75,1.63-2.69.86-3.58.34-6.21-.59-.79-.28-1.59-.56-2.4-.84-.83-.3-1.65-.6-2.51-.9-.84-.3-1.67-.59-2.53-.89-2.07-.73-4.13-1.47-6.2-2.21v-.68Z"/>
  <path class="st25" d="M408,225.15c1.33,4.94.1,7.74-2.13,12.25-.48,1.13-.96,2.26-1.42,3.4-.81-2.33-.59-2.94.15-5.22.19-.61.39-1.21.59-1.84.21-.63.42-1.26.63-1.91.21-.64.41-1.28.62-1.94.51-1.58,1.03-3.16,1.55-4.74Z"/>
  <path class="st20" d="M142.16,455.1v1.36c-.56.29-1.11.59-1.68.89-2.16,1.33-2.56,2.24-3.28,4.55l-1.42-2.04c-.94.67-1.87,1.35-2.84,2.04l-1.42-.68c1-.9,2-1.79,3.01-2.68.56-.5,1.12-.99,1.69-1.51,2.02-1.52,3.4-1.94,5.93-1.94Z"/>
  <path class="st31" d="M336.4,310.19c.7.22,1.4.45,2.13.68-3.33,3.85-6.91,7.38-10.63,10.89q0-2.04,1.14-3.29c.5-.44,1-.89,1.52-1.35,2.36-2.18,4.17-4.24,5.85-6.93Z"/>
  <path class="st24" d="M371.14,280.93v5.44h-2.84c-.47-.9-.94-1.8-1.42-2.72q2.66-2.72,4.25-2.72Z"/>
  <path class="st18" d="M195.32,431.97l.71,1.36q-4.08,2.04-5.67,2.04v1.36q-4.79,2.04-6.38,2.04v-1.36c3.74-1.8,7.49-3.59,11.34-5.44Z"/>
  <path class="st51" d="M247.78,331.96l1.42.68c-3.51,3.55-6.78,5.98-11.34,8.16,2.91-3.57,6.05-6.27,9.92-8.84Z"/>
  <path class="st23" d="M281.81,187.73c2.57.39,3.73,1.31,5.49,3.1.43.44.87.87,1.32,1.32.33.34.65.67.99,1.02-3.03,0-4.13-1.57-6.38-3.4h-1.42c-.2.55-.41,1.09-.62,1.66q-.8,1.74-2.22,2.42c.85-2.1,1.76-4.12,2.84-6.12Z"/>
  <path class="st33" d="M395.95,110.85c1.64.22,3.28.45,4.96.68v.68h-3.54c.23.47.46.93.7,1.41.83,2.32.85,4.17.8,6.63-.01.79-.03,1.58-.04,2.39-.02.6-.03,1.2-.05,1.82h-.71c-.09-.7-.19-1.39-.29-2.11-.13-.93-.25-1.85-.38-2.78-.06-.46-.12-.92-.19-1.39-.34-2.46-.73-4.9-1.28-7.33Z"/>
  <path class="st63" d="M321.51,346.25q2.84,2.04,3.09,3.46c-.04.53-.09,1.06-.13,1.61-.04.58-.08,1.15-.12,1.75-.06.6-.12,1.2-.17,1.82q-.07.91-.14,1.84c-.12,1.5-.25,3-.39,4.5h-.71c-.47-4.94-.94-9.88-1.42-14.97Z"/>
  <path class="st6" d="M388.86,264.61q0,1.36-1.55,2.93c-.66.6-1.32,1.21-1.99,1.83l-1.99,1.91-1.55,1.49-2.13-.68c1.27-1.25,2.54-2.5,3.81-3.74.36-.36.72-.71,1.09-1.08q2.74-2.66,4.31-2.66Z"/>
  <path class="st22" d="M163.42,441.49c.5.06.99.11,1.51.17,4.16.43,7.83.5,11.96-.17-1.62,1.71-2.81,2.68-5.26,2.82-3.43-.26-5.54-.64-8.21-2.82Z"/>
  <path class="st9" d="M464,277.53l1.42.68c-.88.67-1.77,1.34-2.66,2-.49.37-.99.74-1.5,1.12-1.49.94-2.61,1.34-4.35,1.64v-2.04c.51-.18,1.02-.36,1.55-.55q2.03-.76,3.9-1.96.81-.44,1.64-.89Z"/>
  <path class="st11" d="M366.88,291.82l.71,2.72c-2.34,2.02-4.68,4.04-7.09,6.12q0-2.04,1.04-3.21.67-.6,1.36-1.21c1.61-1.45,2.75-2.63,3.99-4.42Z"/>
  <path class="st38" d="M188.24,412.24c2.01,1.93,2.64,2.96,3.54,5.44-1.17.45-2.34.9-3.54,1.36v-6.8Z"/>
  <path class="st46" d="M232.9,402.71l.71,1.36q-.48.4-.97.81c-1.35,1.44-1.9,2.82-2.57,4.63q-2.13-2.55-2.13-4.08c1.64-.9,3.28-1.8,4.96-2.72Z"/>
  <path class="st42" d="M397.37,251.68h1.42c-.86,3.01-1.78,4.75-4.25,6.8-.47-.22-.94-.45-1.42-.68.67-1.02,1.35-2.04,2.04-3.06.38-.57.76-1.14,1.15-1.72q.53-.66,1.07-1.34Z"/>
  <path class="st71" d="M403.04,241.48h.71c.26,2.92-.37,4.32-2.13,6.68-.39.54-.79,1.08-1.2,1.63-.31.4-.61.81-.93,1.22l-.71-1.36q.86-1.92,2.08-4.17c.4-.75.8-1.49,1.22-2.26.32-.57.63-1.15.96-1.74Z"/>
  <path class="st59" d="M266.92,344.21q-.09,1.23-.71,2.72-2.08,1.23-4.25,2.04l-1.42-.68c.79-.68,1.59-1.36,2.39-2.04q.67-.57,1.35-1.15,1.22-.89,2.64-.89Z"/>
  <path class="st5" d="M364.05,282.3q1.4.34,2.84.68c.23,1.35.47,2.69.71,4.08-1.4-.67-2.81-1.35-4.25-2.04l.71-2.72Z"/>
  <path class="st75" d="M211.63,414.28l1.42.68c-.45.41-.91.81-1.37,1.23q-1.61,1.43-2.17,3.53-1.42-2.55-1.42-4.08,1.68-.72,3.54-1.36Z"/>
  <path class="st40" d="M276.85,382.98l1.42.68c-2.83,2.52-4.52,3.81-8.51,4.08.91-1.74,1.73-1.95,3.54-2.76q1.91-.8,3.54-2Z"/>
  <path class="st48" d="M224.39,380.26v2.04c-1.03.59-2.06,1.17-3.1,1.74q-.86.49-1.74.98c-.51.22-1.01.45-1.53.68l-1.42-.68c2.57-1.57,5.15-3.14,7.8-4.76Z"/>
  <path class="st0" d="M286.77,328.56l1.42.68c-.79.91-1.59,1.82-2.39,2.72-.44.51-.89,1.01-1.35,1.53q-.61.59-1.22,1.19h-1.42c1.1-2.6,2.86-4.21,4.96-6.12Z"/>
  <path class="st62" d="M393.11,286.38l.71,2.72c2.34.45,4.68.9,7.09,1.36v.68c-3.22.12-5.59,0-8.51-1.36.23-1.12.47-2.25.71-3.4Z"/>
  <path class="st35" d="M376.81,274.81l1.42,1.36c-1.87,1.57-3.74,3.14-5.67,4.76-.47-.22-.94-.45-1.42-.68,1.87-1.8,3.74-3.59,5.67-5.44Z"/>
  <path class="st28" d="M392.4,259.16q0,2.04-1.11,3.7t-.8,3.32c.16.38.32.76.49,1.15-.94-.9-1.87-1.8-2.84-2.72,1.02-2.29,2.36-3.75,4.25-5.44Z"/>
  <path class="st17" d="M279.69,346.93c2.07,1.78,3.46,3.89,4.96,6.12-.56-.24-1.11-.48-1.68-.72-.61-.21-1.23-.42-1.86-.64q-.7.34-1.42.68v-5.44Z"/>
  <path class="st15" d="M475.35,268.69q0,2.04-1.09,3.13c-.46.36-.92.71-1.4,1.08-.46.36-.92.72-1.4,1.09-.36.27-.72.54-1.09.82l-1.42-.68c2.11-1.8,4.21-3.59,6.38-5.44Z"/>
  <path class="st73" d="M334.98,269.37c.23.67.47,1.35.71,2.04q-2.11,1.68-4.25,3.4,0-2.04,1.77-3.87c.58-.52,1.17-1.04,1.77-1.57Z"/>
  <path class="st77" d="M227.93,413.6h1.42c.23,1.57.47,3.14.71,4.76-.94-.22-1.87-.45-2.84-.68.23-1.35.47-2.69.71-4.08Z"/>
  <path class="st14" d="M322.22,326.52c.23.67.47,1.35.71,2.04-1.87,1.35-3.74,2.69-5.67,4.08,1.38-2.66,2.75-4.11,4.96-6.12Z"/>
  <path class="st74" d="M336.4,310.19c.7.22,1.4.45,2.13.68-1.17,1.35-2.34,2.69-3.54,4.08-.23-.67-.47-1.35-.71-2.04q1.02-1.49,2.13-2.72Z"/>
  <path class="st58" d="M186.11,221.07q0,2.04-.97,3.19-1.15.89-2.57.89v-2.72c1.17-.45,2.34-.9,3.54-1.36Z"/>
  <path class="st4" d="M371.84,498.64h2.84c-.23.45-.47.9-.71,1.36-.7-.45-1.4-.9-2.13-1.36Z"/>
  <path class="st64" d="M127.27,498.64l2.13.68-2.13-.68Z"/>
  <path class="st64" d="M-112.34-82.36"/>
  <path class="st50" d="M143.57,328.56l2.13.68-2.13-.68Z"/>
  <path class="st78" d="M13.13,173.44l1.42.68-1.42.68v-1.36Z"/>
  <path class="st78" d="M-112.34-82.36"/>
  <path class="st68" d="M282.52,4.72l2.13.68-2.13-.68Z"/>
  <path class="st12" d="M224.39,493.2l1.42.68-1.42-.68Z"/>
  <path class="st36" d="M313.71,480.27l1.42.68-1.42-.68Z"/>
  <path class="st44" d="M295.99,474.83l1.42.68-1.42-.68Z"/>
  <path class="st61" d="M127.98,461.9l1.42.68-1.42-.68Z"/>
  <path class="st61" d="M-112.34-82.36"/>
  <path class="st61" d="M-112.34-82.36"/>
  <path class="st61" d="M-112.34-82.36"/>
  <path class="st61" d="M-112.34-82.36"/>
  <path class="st7" d="M138.61,327.88l1.42.68-1.42-.68Z"/>
  <path class="st47" d="M110.96,318.35l1.42.68-1.42-.68Z"/>
  <path class="st49" d="M344.91,309.51l1.42.68-1.42-.68Z"/>
  <path class="st49" d="M-112.34-82.36"/>
  <path class="st49" d="M-112.34-82.36"/>
  <path class="st49" d="M-112.34-82.36"/>
  <path class="st49" d="M-112.34-82.36"/>
  <path class="st49" d="M-112.34-82.36"/>
  <path class="st34" d="M98.91,64.59l1.42.68-1.42-.68Z"/>
  <path class="st1" d="M381.77,61.19l1.42.68-1.42-.68Z"/>
  <path class="st26" d="M182.56,21.05l1.42.68-1.42-.68Z"/>
  <path class="st26" d="M-112.34-82.36"/>
  <path class="st26" d="M-112.34-82.36"/>
  <path class="st26" d="M-112.34-82.36"/>
  <path class="st26" d="M-112.34-82.36"/>
  <path class="st26" d="M-112.34-82.36"/>
  <path class="st26" d="M-112.34-82.36"/>
  <path class="st26" d="M-112.34-82.36"/>
  <path class="st26" d="M-112.34-82.36"/>
  <path class="st26" d="M-112.34-82.36"/>
  <path class="st26" d="M-112.34-82.36"/>
  <path class="st26" d="M-112.34-82.36"/>
  <path class="st26" d="M-112.34-82.36"/>
  <path class="st26" d="M-112.34-82.36"/>
  <path class="st26" d="M-112.34-82.36"/>
  <path class="st26" d="M-112.34-82.36"/>
  <path class="st26" d="M-112.34-82.36"/>
  <path class="st26" d="M-112.34-82.36"/>
  <path class="st26" d="M-112.34-82.36"/>
  <path class="st26" d="M-112.34-82.36"/>
  <path class="st26" d="M-112.34-82.36"/>
  <path class="st26" d="M-112.34-82.36"/>
  <path class="st26" d="M-112.34-82.36"/>
  <path class="st26" d="M-112.34-82.36"/>
  <path class="st26" d="M-112.34-82.36"/>
  <path class="st26" d="M-112.34-82.36"/>
  <path class="st26" d="M-112.34-82.36"/>
  <path class="st26" d="M-112.34-82.36"/>
  <path class="st26" d="M-112.34-82.36"/>
  <path class="st26" d="M-112.34-82.36"/>
  <path class="st26" d="M-112.34-82.36"/>
  <path class="st26" d="M-112.34-82.36"/>
  <path class="st26" d="M-112.34-82.36"/>
  <path class="st26" d="M-112.34-82.36"/>
  <path class="st26" d="M-112.34-82.36"/>
  <path class="st26" d="M-112.34-82.36"/>
  <path class="st26" d="M-112.34-82.36"/>
  <path class="st26" d="M-112.34-82.36"/>
  <path class="st26" d="M-112.34-82.36"/>
  <path class="st26" d="M-112.34-82.36"/>
  <path class="st26" d="M-112.34-82.36"/>
  <path class="st26" d="M-112.34-82.36"/>
  <path class="st26" d="M-112.34-82.36"/>
  <path class="st26" d="M-112.34-82.36"/>
  <path class="st26" d="M-112.34-82.36"/>
  <path class="st26" d="M-112.34-82.36"/>
  <path class="st26" d="M-112.34-82.36"/>
  <path class="st26" d="M-112.34-82.36"/>
  <path class="st26" d="M-112.34-82.36"/>
  <path class="st26" d="M-112.34-82.36"/>
  <path class="st26" d="M-112.34-82.36"/>
  <path class="st26" d="M-112.34-82.36"/>
  <path class="st26" d="M-112.34-82.36"/>
  <path class="st26" d="M-112.34-82.36"/>
  <path class="st26" d="M-112.34-82.36"/>
  <path class="st26" d="M-112.34-82.36"/>
  <path class="st26" d="M-112.34-82.36"/>
  <path class="st26" d="M-112.34-82.36"/>
  <path class="st26" d="M-112.34-82.36"/>
  <path class="st26" d="M-112.34-82.36"/>
  <path class="st26" d="M-112.34-82.36"/>
  <path class="st26" d="M-112.34-82.36"/>
  <path class="st26" d="M-112.34-82.36"/>
  <path class="st26" d="M-112.34-82.36"/>
  <path class="st26" d="M-112.34-82.36"/>
  <path class="st26" d="M-112.34-82.36"/>
  <path class="st26" d="M-112.34-82.36"/>
  <path class="st26" d="M-112.34-82.36"/>
  <path class="st26" d="M-112.34-82.36"/>
  <path class="st26" d="M-112.34-82.36"/>
  <path class="st26" d="M-112.34-82.36"/>
  <path class="st26" d="M-112.34-82.36"/>
  <path class="st26" d="M-112.34-82.36"/>
  <path class="st26" d="M-112.34-82.36"/>
  <path class="st26" d="M-112.34-82.36"/>
  <path class="st26" d="M-112.34-82.36"/>
  <path class="st26" d="M-112.34-82.36"/>
  <path class="st26" d="M-112.34-82.36"/>
  <path class="st26" d="M-112.34-82.36"/>
  <path class="st26" d="M-112.34-82.36"/>
  <path class="st26" d="M-112.34-82.36"/>
  <path class="st26" d="M-112.34-82.36"/>
  <path class="st26" d="M-112.34-82.36"/>
  <path class="st26" d="M-112.34-82.36"/>
  <path class="st26" d="M-112.34-82.36"/>
  <path class="st26" d="M-112.34-82.36"/>
  <path class="st26" d="M-112.34-82.36"/>
  <path class="st26" d="M-112.34-82.36"/>
  <path class="st26" d="M-112.34-82.36"/>
  <path class="st26" d="M-112.34-82.36"/>
  <path class="st26" d="M-112.34-82.36"/>
  <path class="st26" d="M-112.34-82.36"/>
  <path class="st26" d="M-112.34-82.36"/>
  <path class="st26" d="M-112.34-82.36"/>
  <path class="st26" d="M-112.34-82.36"/>
  <path class="st26" d="M-112.34-82.36"/>
  <path class="st26" d="M-112.34-82.36"/>
  <path class="st26" d="M-112.34-82.36"/>
  <path class="st26" d="M-112.34-82.36"/>
  <path class="st26" d="M-112.34-82.36"/>
  <path class="st26" d="M-112.34-82.36"/>
  <path class="st26" d="M-112.34-82.36"/>
  <path class="st26" d="M-112.34-82.36"/>
  <path class="st26" d="M-112.34-82.36"/>
  <path class="st26" d="M-112.34-82.36"/>
  <path class="st26" d="M-112.34-82.36"/>
  <path class="st26" d="M-112.34-82.36"/>
  <path class="st26" d="M-112.34-82.36"/>
  <path class="st26" d="M-112.34-82.36"/>
  <path class="st26" d="M-112.34-82.36"/>
  <path class="st26" d="M-112.34-82.36"/>
  <path class="st26" d="M-112.34-82.36"/>
  <path class="st26" d="M-112.34-82.36"/>
  <path class="st26" d="M-112.34-82.36"/>
  <path class="st26" d="M-112.34-82.36"/>
  <path class="st26" d="M-112.34-82.36"/>
  <path class="st26" d="M-112.34-82.36"/>
  <path class="st26" d="M-112.34-82.36"/>
  <path class="st26" d="M-112.34-82.36"/>
  <path class="st26" d="M-112.34-82.36"/>
  <path class="st26" d="M-112.34-82.36"/>
  <path class="st26" d="M-112.34-82.36"/>
  <path class="st26" d="M-112.34-82.36"/>
  <path class="st26" d="M-112.34-82.36"/>
  <path class="st26" d="M-112.34-82.36"/>
  <path class="st26" d="M-112.34-82.36"/>
  <path class="st26" d="M-112.34-82.36"/>
  <path class="st26" d="M-112.34-82.36"/>
  <path class="st26" d="M-112.34-82.36"/>
  <path class="st26" d="M-112.34-82.36"/>
  <path class="st26" d="M-112.34-82.36"/>
  <path class="st26" d="M-112.34-82.36"/>
  <path class="st26" d="M-112.34-82.36"/>
  <path class="st26" d="M-112.34-82.36"/>
  <path class="st26" d="M-112.34-82.36"/>
  <path class="st26" d="M-112.34-82.36"/>
  <path class="st26" d="M-112.34-82.36"/>
  <path class="st26" d="M-112.34-82.36"/>
  <path class="st26" d="M-112.34-82.36"/>
  <path class="st26" d="M-112.34-82.36"/>
  <path class="st26" d="M-112.34-82.36"/>
  <path class="st26" d="M-112.34-82.36"/>
  <path class="st26" d="M-112.34-82.36"/>
  <path class="st26" d="M-112.34-82.36"/>
  <path class="st26" d="M-112.34-82.36"/>
  <path class="st26" d="M-112.34-82.36"/>
  <path class="st26" d="M-112.34-82.36"/>
  <path class="st26" d="M-112.34-82.36"/>
  <path class="st26" d="M-112.34-82.36"/>
  <path class="st26" d="M-112.34-82.36"/>
  <path class="st26" d="M-112.34-82.36"/>
  <path class="st26" d="M-112.34-82.36"/>
  <path class="st26" d="M-112.34-82.36"/>
  <path class="st26" d="M-112.34-82.36"/>
  <path class="st26" d="M-112.34-82.36"/>
  <path class="st26" d="M-112.34-82.36"/>
  <path class="st26" d="M-112.34-82.36"/>
  <path class="st26" d="M-112.34-82.36"/>
  <path class="st26" d="M-112.34-82.36"/>
  <path class="st26" d="M-112.34-82.36"/>
  <path class="st26" d="M-112.34-82.36"/>
  <path class="st26" d="M-112.34-82.36"/>
  <path class="st26" d="M-112.34-82.36"/>
  <path class="st26" d="M-112.34-82.36"/>
  <path class="st26" d="M-112.34-82.36"/>
  <path class="st26" d="M-112.34-82.36"/>
  <path class="st26" d="M-112.34-82.36"/>
  <path class="st26" d="M-112.34-82.36"/>
  <path class="st26" d="M-112.34-82.36"/>
  <path class="st26" d="M-112.34-82.36"/>
  <path class="st26" d="M-112.34-82.36"/>
  <path class="st26" d="M-112.34-82.36"/>
  <path class="st26" d="M-112.34-82.36"/>
  <path class="st26" d="M-112.34-82.36"/>
  <path class="st26" d="M-112.34-82.36"/>
  <path class="st26" d="M-112.34-82.36"/>
  <path class="st26" d="M-112.34-82.36"/>
  <path class="st26" d="M-112.34-82.36"/>
  <path class="st26" d="M-112.34-82.36"/>
  <path class="st26" d="M-112.34-82.36"/>
  <path class="st26" d="M-112.34-82.36"/>
  <path class="st26" d="M-112.34-82.36"/>
  <path class="st26" d="M-112.34-82.36"/>
  <path class="st26" d="M-112.34-82.36"/>
  <path class="st26" d="M-112.34-82.36"/>
  <path class="st26" d="M-112.34-82.36"/>
  <path class="st26" d="M-112.34-82.36"/>
  <path class="st26" d="M-112.34-82.36"/>
</svg>