<svg xmlns="http://www.w3.org/2000/svg" width="1024" height="1536"><path fill="#a8edfc" d="M375 424h5v1c1.856.03 1.856.03 3.75.063l2.11.035c2.113-.02 2.113-.02 3.981-.596 2.353-.547 4.423-.626 6.837-.625l2.853-.006 3.124.009 3.327-.003q5.536 0 11.074.01l7.923-.001q8.538 0 17.076.008 12.345.011 24.69.012 20.03.004 40.059.019a102445 102445 0 0 0 53.368.025q49.914.016 99.828.05v1l1.728-.016q3.855-.029 7.71-.046l2.72-.026 2.588-.01 2.396-.016C679 425 679 425 680 426c2.053.265 4.114.47 6.176.648l3.918.353 2.086.184c13.011 1.158 25.96 2.473 38.82 4.815l2.633.475c28.67 5.323 58.852 14.722 82.367 32.525l1.664 1.233C851.244 491.187 867.694 526.328 874 567c3.024 21.739 3.146 43.796 3.205 65.703l.03 6.837q.04 9.168.068 18.336.035 9.624.076 19.247.066 16.115.124 32.23.059 16.581.125 33.162l.008 2.073.041 10.3q.17 42.555.323 85.112h-2l2 8h-2l.497 3.086c.461 3.587.602 6.93.556 10.542l-.04 3.867-.064 4.142-.057 4.332q-.061 4.543-.134 9.086-.072 4.598-.125 9.195c-.192 16.664-.468 33.2-2.633 49.75l-.273 2.22c-5.134 41.632-24.945 81.827-53.497 112.374a226 226 0 0 0-5.539 6.242c-14.7 16.833-33.297 31.107-52.691 42.164h-2l-1 2c-1.62.958-1.62.958-3.727 1.953l-2.353 1.118-2.545 1.179-2.613 1.22c-7.484 3.461-15.022 6.678-22.762 9.53l-1.975.737c-13.686 5.039-27.771 8.261-42.025 11.263l-2.466.52c-9.744 2.003-19.492 3.058-29.402 3.834l-2.722.216-2.433.18c-2.05.148-2.05.148-3.977 1.25-2.913.112-5.803.165-8.717.174l-2.735.02q-2.945.021-5.891.036-4.657.026-9.316.065-13.245.105-26.49.182-8.096.049-16.191.12-3.09.024-6.18.037c-2.879.012-5.756.036-8.634.063l-2.593.002c-3.921.048-5.917.077-9.253 2.301l-1.703-.992c-2.566-1.126-4.265-1.215-7.047-1.133l-2.422.055-1.828.07-1 2h-6v-3l-39 1v2h-9v-2h-41v1c-4.983.915-9.018.88-14 0-3.042 0-5.995.555-9 1v-3l-1 2h-14v-1l-13-2v3h-8l1-2c-8.024-.714-15.945-1.126-24-1h-3l1-2-1.809.07c-6.775.141-13.3-.447-20-1.359-4.774-.629-9.374-.797-14.191-.711v-2c-.617-.03-1.234-.062-1.87-.094-8.357-.573-16.292-2.403-24.38-4.468l-2.101-.53c-9.488-2.4-18.834-5.078-28.086-8.283l-2.921-1.01c-6.507-2.346-6.507-2.346-7.642-4.615-1.81-.734-1.81-.734-3.996-1.316-5.092-1.61-9.478-3.916-14.066-6.621l-2.474-1.447c-11.233-6.704-21.956-14.61-31.464-23.616l-1.7-1.559C193 1078 193 1078 193 1076h-2a169 169 0 0 1-5.437-6.875 732 732 0 0 0-2.934-3.867l-1.31-1.746c-1.436-1.78-1.436-1.78-4.319-3.512v-2c-.884-1.673-.884-1.673-2.082-3.484l-1.326-2.086-1.405-2.18C164 1037.496 164 1037.496 164 1034h-3l1-3a113 113 0 0 0-2.812-7.937l-.83-2.17c-1.307-3.381-2.645-6.692-4.358-9.893h-2l.59-3c.594-4.169-.11-7.928-1.028-12-1.117-5.094-1.732-9.792-1.562-15l-2-1-1-2h2l-.996-3.012c-1.138-3.98-1.17-7.657-1.066-11.8.325-4.761.325-4.761-.938-9.188a260 260 0 0 1-.062-8.988l.011-2.713c.016-3.839.044-7.677.072-11.515q.025-4.198.042-8.397l.025-2.62.01-2.467.016-2.156c-.066-2.214-.066-2.214-.612-4.621-.491-2.47-.629-4.676-.631-7.19l-.01-2.71.006-2.885-.003-2.99q0-3.12.006-6.241.005-4.79-.007-9.58 0-3.03.004-6.064l-.006-2.904.01-2.68.002-2.364C145 863 145 863 146 861h-2l1-2a98 98 0 0 0 .316-5.008l.127-2.988.12-3.129.13-3.152q.16-3.861.307-7.723l-2-1h2l-.003-2.672q-.033-32.426-.049-64.852-.007-15.683-.023-31.364-.015-13.695-.02-27.388 0-7.228-.01-14.455c-.028-18.256.003-36.5.57-54.748l.064-2.047c.31-9.68.772-19.337 1.663-28.983a633 633 0 0 0 .527-6.167c.693-8.05 1.792-15.93 3.385-23.856.642-3.313.983-5.206-.104-8.468h3l.34-3.484c.557-4.461 1.782-8.521 3.222-12.766 1.363-4.038 2.438-7.42 2.438-11.75h2l.55-1.977c1.432-4.975 3.083-9.403 5.45-14.023v-3l2-1c.93-1.743 1.793-3.521 2.625-5.312C186.972 490.412 209.826 469.618 236 455l3.184-1.8c7.563-4.028 15.397-7.028 23.441-9.95l3.142-1.143C283.021 436 283.021 436 290 436l1-2c1.794-.366 1.794-.366 4.078-.54 3.59-.323 7.09-.808 10.64-1.462 22.66-4.154 46.245-6.348 69.282-5.998zm26 716 4 1Z"/><path fill="#99e7fb" d="M390.822 466.739c3.678.004 7.356-.003 11.033-.008 7.162-.01 14.324-.007 21.485-.002q8.754.007 17.507.003h2.54l5.114-.003q23.844-.006 47.69.012 20.336.013 40.673-.002a44613 44613 0 0 1 52.62-.007l2.53.001q8.712.003 17.422-.006 10.663-.008 21.325.007 5.411.009 10.822 0c44.738-.076 92.414.335 133.417 20.266l3.145 1.488c16.293 8.275 29.27 21.104 38.855 36.512l1.075 1.726c11.23 18.462 15.502 40.053 16.49 61.427l.125 2.702c.523 12.675.46 25.361.455 38.045q.002 5.743.01 11.485.012 11.205.012 22.412 0 9.12.006 18.242.014 25.95.012 51.904v5.633q.002 22.61.023 45.219.023 23.305.02 46.612-.001 13.047.014 26.096.014 11.106.005 22.212-.007 5.649.005 11.298c.093 42.536-3.948 84.715-30.252 119.987l-2.332 3.188c-5.742 7.73-12.018 14.858-18.668 21.812l-2.648 2.809c-17.396 17.981-42.955 37.31-67.352 44.191l-3-1 1.875-.125L715 1080c.7-1.989 1.358-3.992 2-6a139 139 0 0 1 1.734-3.75c5.596-11.744 9.237-23.614 12.266-36.25l.552-2.263c1.379-5.888 2.241-11.804 3.01-17.8l.381-2.794c1.797-13.803 2.206-27.605 2.188-41.506l.007-4.749q.006-5.115.005-10.228-.002-8.325.01-16.65.01-12.087.016-24.173c.005-12.746.022-25.492.041-38.238l.019-13.108.005-3.308a160442 160442 0 0 0 .053-40.633q.031-27.545.04-55.09.013-28.33.068-56.66.034-17.448.026-34.896-.004-11.96.03-23.917c.013-4.593.02-9.186.008-13.78q-.014-6.32.021-12.64.007-2.272-.006-4.546c-.193-34.251 23.137-61.075 43.307-86.857l1.937-2.479q1.863-2.38 3.74-4.749l1.706-2.17 1.514-1.913c1.34-1.878 2.349-3.765 3.322-5.853-5.366 2.763-10.398 5.906-15.375 9.313-10.504 7.14-21.545 13.432-32.5 19.848a782 782 0 0 0-7.941 4.737c-9.724 5.86-19.697 11.052-29.916 15.994a292 292 0 0 0-5.815 2.94C672.338 580.424 639.165 586.959 607 590l-3.164.312c-16.83 1.59-33.63 1.892-50.523 1.938l-2.841.016c-37.713.164-75.233-2.88-112.743-6.459-5.421-.516-10.843-1.023-16.264-1.53l-3.214-.3a12681 12681 0 0 0-34.422-3.177c-18.377-1.687-36.682-2.205-55.125-2.226q-4.509-.006-9.017-.061c-27.853-.33-54.139 2.386-80.687 11.487q-2.093.684-4.187 1.363c-12.891 4.28-26.908 9.057-38.433 16.279C194 609 194 609 191 609l-1 2c-.849-31.447 10.486-67.112 31-91l2.121-2.527c29.47-34.093 76.609-46.065 119.79-49.325 15.984-1.104 31.893-1.44 47.911-1.41"/><path fill="#fdfefe" d="M375 424h5v1c1.856.03 1.856.03 3.75.063l2.11.035c2.113-.02 2.113-.02 3.981-.596 2.353-.547 4.423-.626 6.837-.625l2.853-.006 3.124.009 3.327-.003q5.536 0 11.074.01l7.923-.001q8.538 0 17.076.008 12.345.011 24.69.012 20.03.004 40.059.019a102445 102445 0 0 0 53.368.025q49.914.016 99.828.05v1l1.728-.016q3.855-.029 7.71-.046l2.72-.026 2.588-.01 2.396-.016C679 425 679 425 680 426c2.053.265 4.114.47 6.176.648l3.918.353 2.086.184c13.011 1.158 25.96 2.473 38.82 4.815l2.633.475c28.67 5.323 58.852 14.722 82.367 32.525l1.664 1.233C851.244 491.187 867.694 526.328 874 567c3.024 21.739 3.146 43.796 3.205 65.703l.03 6.837q.04 9.168.068 18.336.035 9.624.076 19.247.066 16.115.124 32.23.059 16.581.125 33.162l.008 2.073.041 10.3q.17 42.555.323 85.112h-2l2 8h-2l.497 3.086c.461 3.587.602 6.93.556 10.542l-.04 3.867-.064 4.142-.057 4.332q-.061 4.543-.134 9.086-.072 4.598-.125 9.195c-.192 16.664-.468 33.2-2.633 49.75l-.273 2.22c-5.134 41.632-24.945 81.827-53.497 112.374a226 226 0 0 0-5.539 6.242c-14.7 16.833-33.297 31.107-52.691 42.164h-2l-1 2c-1.62.958-1.62.958-3.727 1.953l-2.353 1.118-2.545 1.179-2.613 1.22c-7.484 3.461-15.022 6.678-22.762 9.53l-1.975.737c-13.686 5.039-27.771 8.261-42.025 11.263l-2.466.52c-9.744 2.003-19.492 3.058-29.402 3.834l-2.722.216-2.433.18c-2.05.148-2.05.148-3.977 1.25-2.913.112-5.803.165-8.717.174l-2.735.02q-2.945.021-5.891.036-4.657.026-9.316.065-13.245.105-26.49.182-8.096.049-16.191.12-3.09.024-6.18.037c-2.879.012-5.756.036-8.634.063l-2.593.002c-3.921.048-5.917.077-9.253 2.301l-1.703-.992c-2.566-1.126-4.265-1.215-7.047-1.133l-2.422.055-1.828.07-1 2h-6v-3l-39 1v2h-9v-2h-41v1c-4.983.915-9.018.88-14 0-3.042 0-5.995.555-9 1v-3l-1 2h-14v-1l-13-2v3h-8l1-2c-8.024-.714-15.945-1.126-24-1h-3l1-2-1.809.07c-6.775.141-13.3-.447-20-1.359-4.774-.629-9.374-.797-14.191-.711v-2c-.617-.03-1.234-.062-1.87-.094-8.357-.573-16.292-2.403-24.38-4.468l-2.101-.53c-9.488-2.4-18.834-5.078-28.086-8.283l-2.921-1.01c-6.507-2.346-6.507-2.346-7.642-4.615-1.81-.734-1.81-.734-3.996-1.316-5.092-1.61-9.478-3.916-14.066-6.621l-2.474-1.447c-11.233-6.704-21.956-14.61-31.464-23.616l-1.7-1.559C193 1078 193 1078 193 1076h-2a169 169 0 0 1-5.437-6.875 732 732 0 0 0-2.934-3.867l-1.31-1.746c-1.436-1.78-1.436-1.78-4.319-3.512v-2c-.884-1.673-.884-1.673-2.082-3.484l-1.326-2.086-1.405-2.18C164 1037.496 164 1037.496 164 1034h-3l1-3a113 113 0 0 0-2.812-7.937l-.83-2.17c-1.307-3.381-2.645-6.692-4.358-9.893h-2l.59-3c.594-4.169-.11-7.928-1.028-12-1.117-5.094-1.732-9.792-1.562-15l-2-1-1-2h2l-.996-3.012c-1.138-3.98-1.17-7.657-1.066-11.8.325-4.761.325-4.761-.938-9.188a260 260 0 0 1-.062-8.988l.011-2.713c.016-3.839.044-7.677.072-11.515q.025-4.198.042-8.397l.025-2.62.01-2.467.016-2.156c-.066-2.214-.066-2.214-.612-4.621-.491-2.47-.629-4.676-.631-7.19l-.01-2.71.006-2.885-.003-2.99q0-3.12.006-6.241.005-4.79-.007-9.58 0-3.03.004-6.064l-.006-2.904.01-2.68.002-2.364C145 863 145 863 146 861h-2l1-2a98 98 0 0 0 .316-5.008l.127-2.988.12-3.129.13-3.152q.16-3.861.307-7.723l-2-1h2l-.003-2.672q-.033-32.426-.049-64.852-.007-15.683-.023-31.364-.015-13.695-.02-27.388 0-7.228-.01-14.455c-.028-18.256.003-36.5.57-54.748l.064-2.047c.31-9.68.772-19.337 1.663-28.983a633 633 0 0 0 .527-6.167c.693-8.05 1.792-15.93 3.385-23.856.642-3.313.983-5.206-.104-8.468h3l.34-3.484c.557-4.461 1.782-8.521 3.222-12.766 1.363-4.038 2.438-7.42 2.438-11.75h2l.55-1.977c1.432-4.975 3.083-9.403 5.45-14.023v-3l2-1c.93-1.743 1.793-3.521 2.625-5.312C186.972 490.412 209.826 469.618 236 455l3.184-1.8c7.563-4.028 15.397-7.028 23.441-9.95l3.142-1.143C283.021 436 283.021 436 290 436l1-2c1.794-.366 1.794-.366 4.078-.54 3.59-.323 7.09-.808 10.64-1.462 22.66-4.154 46.245-6.348 69.282-5.998zm-106 61-1.922.866c-27.91 12.711-52.936 33.952-64.223 63.09C197.411 563.69 193.111 578.428 191 594l-.428 3.142c-1.78 13.656-2.788 27.288-3.146 41.05l-.06 2.245c-.639 24.18-.513 48.376-.501 72.563a22134 22134 0 0 1 0 21.585q-.004 20.454.006 40.908.005 17.425-.001 34.85a65798 65798 0 0 0-.003 47.368q0 7.465-.003 14.93c-.088 35.086-.088 35.086.562 70.165l.11 3.554c.684 18.404 2.327 36.903 7.464 54.64l1.016 3.691c4.429 14.706 11.665 28.885 21.984 40.309l1.969 2.43c28.561 34.21 80.35 43.883 122.218 47.652 14.964 1.303 29.948 2.329 44.966 2.714 4.033.104 8.066.21 12.1.326 36.198 1.034 72.392 1.033 108.602 1.007q8.635-.005 17.271.001c44.186.081 44.186.081 88.366-.564l2.437-.056c66.676-1.614 125.292-19.115 172.536-67.729 38.31-40.38 46.907-89.212 46.782-142.943-.007-3.83-.002-7.662.002-11.493q.006-11.206-.01-22.413c-.01-8.728-.01-17.456-.01-26.185q-.001-23.382-.023-46.766-.021-22.611-.02-45.223v-5.625q0-25.86-.015-51.72-.004-9.095-.004-18.189 0-11.102-.014-22.205-.008-5.65-.007-11.297c.009-19.29.009-19.29-.58-38.57l-.113-2.431c-1.677-31.148-12.02-60.698-34.945-82.545C784.905 490.506 767.582 482.159 749 477l-2.285-.64c-19.558-5.344-39.386-7.228-59.573-8.426l-2.223-.132c-15.134-.882-30.235-1.092-45.395-1.063-3.684.004-7.369-.003-11.053-.008-7.163-.01-14.325-.007-21.488-.002q-8.75.007-17.5.003h-2.542l-5.118-.003q-23.83-.006-47.66.012-20.34.012-40.678-.002a44666 44666 0 0 0-55.166-.006q-8.72.003-17.437-.006-10.654-.009-21.308.007-5.41.009-10.82 0c-40.142-.068-82.617 1.3-119.754 18.266m132 655 4 1Z"/><path fill="#e5fdf1" d="M699.375 738.875A200 200 0 0 1 704 743l2.512 2.234c15.116 14.168 22.993 32.448 23.707 53.137.544 24.98-5.408 45.739-22.895 64.324-12.686 12.58-28.946 20.336-46.574 22.992l-2.506.382c-21.625 3.102-43.312-1.439-61.295-14.24A166 166 0 0 1 589 865l-2.176-1.895c-14.467-13.343-22.127-33.75-23.07-53.148-.516-19.07 2.76-37.394 14.246-52.957l1.957-2.734C589.612 741.583 602.39 733.043 617 727l3.328-1.379c25.74-8.59 57.609-3.268 79.047 13.254"/><path fill="#e5fdf0" d="m352.438 722.563 3.854.027c21.575.398 40.373 8.936 56.13 23.676 16.336 17.012 23.018 38.71 22.793 61.925-1.252 22.188-9.9 42.575-26.215 57.809-11.43 9.842-23.436 15.406-38 19l-2.512.688c-18.144 4.435-37.99.413-54.488-7.688l-2.414-1.184c-17.676-9.263-31.062-24.755-37.59-43.57-6.65-21.673-6.658-46.777 4.004-67.246 10.342-18.645 25.742-32.67 46-40 9.492-2.604 18.62-3.521 28.438-3.437"/><path fill="#3d99bd" d="M558 914c3.183 3.41 4.24 5.937 4.5 10.5-.234 4.504-1.465 7.076-4.5 10.5-18.418 16.459-53.939 13-76.908 11.855-14.138-.94-28.794-3.195-39.53-13.105-2.2-3.872-2.875-7.306-2.562-11.75 1.655-5.16 5.323-9.329 10-12 27.87-11.93 83.468-16.622 109 4"/><path fill="#3b95b8" d="M666.223 779.508c5.88 4.726 10.385 10.96 11.777 18.492.877 10.604-.444 18.907-7.187 27.313-5.43 5.78-12.043 9.325-19.95 9.925-10.99.23-17.963-1.73-26.07-9.238-6.663-7.433-8.175-14.896-8.066-24.613.702-8.704 4.767-15.658 11.273-21.387 11.775-8.119 26.253-8.612 38.223-.492"/><path fill="#3a94b8" d="M369.117 778.219c7.105 4.826 11.617 11.526 13.883 19.781 1 10.463-.417 18.588-7 27-5.66 6.054-12.177 9.463-20.437 10.383-10.847.35-17.923-2.157-25.84-9.524-6.624-7.15-8.32-15.7-8.16-25.183.93-7.813 4.553-14.299 10.25-19.676 11.197-8.641 24.86-9.944 37.304-2.781"/><path fill="#c9f9fe" d="m317.39 608.016 2.547.046q4.156.084 8.313.188l2.88.067c25.305.609 50.57 2.429 75.739 5.124 3.53.37 6.991.59 10.537.547C421 614 421 614 423 615c1.514.221 3.036.394 4.56.54l2.878.284 3.14.297 3.264.318q5.203.503 10.408.999l6.785.658A5978 5978 0 0 0 496 622v1c-11.965.32-23.72-.67-35.625-1.75l-6.16-.545a1332 1332 0 0 1-34.483-3.517A2451 2451 0 0 0 400 615l-2.179-.234c-22.596-2.4-45.105-3.053-67.821-3.078l-3.852-.011c-48.492-1-48.492-1-90.62 19.643-23.985 25.546-22.65 61.45-22.733 94.214l-.03 7.249q-.035 8.75-.062 17.499-.033 10.197-.074 20.394-.071 18.179-.132 36.357a90159 90159 0 0 1-.174 48.428q-.17 45.27-.323 90.539h-1c-.806-21.122-1.277-42.238-1.558-63.373q-.084-6.225-.185-12.449-.074-4.91-.139-9.82-.03-2.293-.07-4.588c-.124-7.72-.077-15.369.443-23.075.585-8.703.625-17.372.584-26.092q-.019-4.24-.024-8.481c-.013-7.038-.037-14.076-.061-21.114-.076-22.069-.094-44.13.385-66.196.015-.815.03-1.631.047-2.472.995-50.834.995-50.834 15.578-68.34l1-3c1.613-1.77 3.252-3.37 5-5l2.133-2.113c8.58-8.209 20.37-15.647 32.652-15.957L269 614l1-2c1.927-.395 1.927-.395 4.453-.598l2.8-.238 2.997-.226 3.025-.252c6.417-.529 12.839-1.018 19.264-1.44 2.392-.173 2.392-.173 4.38-.757 3.45-.81 6.95-.551 10.472-.473"/><path fill="#46c8ef" d="M832 574h1c1.102 4.606 1.337 9.156 1.553 13.868l.128 2.764c.526 12.75.469 25.51.464 38.268q.002 5.743.01 11.485.012 11.205.012 22.412 0 9.12.006 18.242.014 25.95.012 51.904v5.633q.002 22.61.023 45.219.023 23.305.02 46.612-.001 13.047.014 26.096.014 11.106.005 22.212-.007 5.649.005 11.298C835.317 919.93 834.1 948.869 823 977l-2 2 .938-3.812c1.049-4.6 1.413-9.1 1.62-13.805.518-2.796 1.4-3.509 3.442-5.383.046-2 .038-4 0-6 .542-2.712 1.264-5.33 2-8h2c.909-13.354 1.133-26.638 1.098-40.02l-.005-6.442q-.005-6.877-.018-13.755-.019-10.88-.024-21.761-.018-23.074-.051-46.147c-.022-16.645-.043-33.29-.053-49.936q-.008-10.812-.029-21.625-.01-6.718-.013-13.437-.003-3.11-.01-6.22-.01-4.251-.009-8.502l-.01-2.474c.009-4.983.44-9.745 1.124-14.681q.121-2.938.115-5.877l-.002-3.408-.02-3.719-.01-4.025c-.066-19.583-.32-39.166-.547-58.747l-.18-16.035Q832.18 589.595 832 574"/><path fill="#c8f9fe" d="M682 575c-6.886 2.918-13.782 5.241-21 7.188l-2.79.787c-5.462 1.488-10.653 2.404-16.312 2.71L640 586l-1 2-2.375-.062c-2.606-.125-2.606-.125-4.625 1.062-2.896.352-5.784.662-8.687.938-4.52.434-9.026.868-13.517 1.545-9.842 1.476-19.48 1.842-29.421 1.896q-2.465.024-4.93.051c-4.278.046-8.556.08-12.834.113q-10.31.08-20.617.188-3.576.032-7.15.055l-4.403.04-3.853.03c-3.638.082-3.638.082-7.404.71-3.627.494-4.881-.163-8.184-1.566-2.966-.455-5.945-.628-8.937-.816l-2.653-.186c-2.803-.195-5.606-.378-8.41-.56l-5.469-.381c-10.33-.711-20.66-1.298-31.007-1.687l-2.508-.104-2.21-.083C448 589 448 589 446 588l-2.812.063c-3.286.046-6.319-.373-9.555-.934-8.945-1.414-17.943-2.193-26.96-2.989a2181 2181 0 0 1-8.905-.816c-9.994-.905-19.834-1.52-29.87-1.292C365 582 365 582 363 581c-12.155-1.606-24.632-1.22-36.864-1.24-3.535-.01-7.068-.041-10.603-.072-19.409-.092-38.268 1.496-57.096 6.375l-3.146.775c-4.837 1.207-9.586 2.504-14.291 4.162l-2.895.93c-5.404 1.75-10.64 3.61-15.777 6.043-1.984.875-4.012 1.648-6.047 2.398-4.454 1.652-8.737 3.6-13.031 5.629l-2.246 1.04c-3.62 1.702-6.92 3.363-10.004 5.96v-4c41.51-20.276 82.478-32.08 128.796-31.644 2.254.02 4.507.03 6.76.038 30.32.134 60.333 2.254 90.507 5.22q6.077.595 12.154 1.18l2.085.2 6.28.604 2.088.2a21677 21677 0 0 0 16.572 1.586C506.149 591.157 556.987 593.932 607 589l3.094-.292c21.064-2.067 42.778-5.422 62.63-12.967 3.59-1.345 5.623-1.887 9.276-.741"/><path fill="#71d6f6" d="M739 656h1c.848 75.324 1.12 150.637.733 225.965q-.054 10.644-.097 21.287-.063 14.524-.155 29.05-.032 5.35-.054 10.701c-.293 69.945-.293 69.945-7.74 95.469-.674 2.48-1.148 4.93-1.562 7.466-.95 5.046-2.832 9.522-4.906 14.203-1.272 2.87-1.272 2.87-2.242 5.976-1.238 3.655-2.996 6.582-4.977 9.883 3.054-.92 3.054-.92 5.875-2.562 3.083-1.419 4.8-1.731 8.125-1.438-3.184 3.47-6.74 4.908-11 6.75l-2.195.996c-5.436 2.377-5.436 2.377-8.805 1.254l1.875-.125L715 1080c.7-1.989 1.358-3.992 2-6a139 139 0 0 1 1.734-3.75c25.055-52.583 19.575-115.785 19.667-172.526.014-8.402.039-16.804.064-25.206q.067-22.46.113-44.921.045-21.77.105-43.54l.007-2.727.037-13.554q.154-55.888.273-111.776"/><path fill="#c7f9fe" d="m765 549 1 2a87 87 0 0 1-3.883 6.152l-1.246 1.863c-1.762 2.633-3.542 5.254-5.321 7.875-11.282 16.671-17.024 31.014-16.949 51.486q-.008 2.286-.02 4.572a2469 2469 0 0 0-.014 12.472c0 4.495-.016 8.99-.03 13.484q-.034 11.665-.04 23.332c-.006 11.244-.029 22.488-.056 33.733q-.063 27.367-.095 54.736-.03 26.577-.084 53.155l-.006 3.312-.034 16.452c-.093 45.459-.164 90.917-.222 136.376h-1l.001-3.69a36910 36910 0 0 0-.099-97.946l-.004-2.167c-.022-11.509-.024-23.017-.017-34.525q.009-17.778-.047-35.555c-.02-6.639-.03-13.277-.014-19.916.056-26.438-.033-51.733-6.27-77.527-.686-3.337-.782-6.285-.55-9.674 2.208 3.699 2.833 7.631 3.563 11.813l.38 2.08c.788 4.356 1.434 8.723 2.057 13.107l-.007-2.757q-.03-13.14-.045-26.279-.007-6.747-.023-13.496a3685 3685 0 0 1 .06-33.908q.021-3.825.036-7.65.032-6.112.137-12.224.034-2.241.04-4.484c.081-18.584 6.046-34.341 17.236-49.119 2.885-3.863 4.817-7.585 6.566-12.083h2l.938-1.937C764 550 764 550 765 549"/><path fill="#8be1f8" d="M305 611c38.128-.413 75.404.65 113.264 5.054 16.614 1.928 33.266 3.438 49.924 4.93q3.31.3 6.62.605c19.394 1.78 38.711 3.013 58.192 3.411l2.96.064a950 950 0 0 0 18.415.186l2.78.002c27.387-.031 54.467-2.109 81.482-6.626 1.265-.21 2.53-.42 3.832-.638l3.326-.577c3.434-.44 6.747-.48 10.205-.411-4.987 2.867-10.554 3.257-16.16 4.122-1.923.3-3.841.616-5.76.935-26.525 4.257-53.231 5.532-80.054 5.45q-3.594-.01-7.188-.013c-29.267-.062-58.152-1.85-87.275-4.83-8.542-.872-17.09-1.683-25.637-2.501-20.98-2.01-41.954-4.073-62.926-6.163l-1 2-2-1v-2l-3.107.018c-12.845.048-25.677-.21-38.518-.518l-6.258-.145Q312.56 612.181 305 612z"/><path fill="#8ee2f9" d="M215 673h1c.12 5.705-.067 11.33-.504 17.02-.514 7.214-.571 14.376-.496 21.605.086 15.58-.254 31.141-.645 46.715l-.136 5.539-.068 2.678a472 472 0 0 0-.07 18.548c-.085 3.046-.513 5.904-1.081 8.895l2 1-.492 2.817c-.713 5.03-.648 10.044-.637 15.116l-.006 3.27q-.004 5.333.002 10.664 0 3.72-.003 7.439-.001 7.79.006 15.58.006 9.963-.004 19.929-.005 7.68 0 15.36 0 3.673-.002 7.345-.003 5.145.007 10.288l-.007 3.042c.016 5.143.274 10.143.91 15.247.262 2.207.347 4.375.34 6.597v2.424l-.016 2.51-.005 2.653c-.005 2.76-.018 5.52-.03 8.282l-.014 5.658q-.017 6.89-.049 13.779h-1c-2.484-16.022-2.146-32.345-2.13-48.514q-.001-3.462-.005-6.925-.005-9.326 0-18.65c.003-6.538 0-13.076 0-19.614q-.004-17.512.006-35.026.005-15.822-.001-31.645-.01-18.45-.005-36.904.003-9.738-.001-19.478-.004-9.16.005-18.32l-.002-6.683c-.009-10.12.031-20.22.575-30.328l.115-2.173c.331-5.396 1.173-10.491 2.443-15.74"/><path fill="#c8f9fe" d="m697 617 2.316 1.691c11.39 9.231 16.602 21.925 21.826 35.185.754 1.865 1.58 3.701 2.417 5.53 1.873 4.67 3.04 9.392 4.191 14.282l.707 2.837.652 2.737.593 2.467c.315 2.402.044 3.985-.702 6.271l-.883-3.305c-4.595-17.007-9.564-33.22-18.117-48.695l-1.715-3.16c-4.668-7.986-10.862-14.378-19.597-17.84-10.29-2.62-20.785-.724-30.998 1.336a773 773 0 0 1-10.858 2.07l-2.238.416C600.044 626.988 543.023 633.334 498 624v-1l15-1v2q13.67-.093 27.339-.236 6.352-.068 12.706-.11c34.56-.23 68.9-2.668 102.883-9.362 29.554-5.81 29.554-5.81 41.072 2.708"/><path fill="#73d7f4" d="M833 697h1q.268 42.43.495 84.862.104 19.704.229 39.409.11 17.188.195 34.378.044 9.088.107 18.176.059 8.582.094 17.165.015 3.123.041 6.246c.227 27.394-2.026 54.08-12.161 79.764l-2 2 .938-3.812c1.049-4.6 1.413-9.1 1.62-13.805.518-2.796 1.4-3.509 3.442-5.383.046-2 .038-4 0-6 .542-2.712 1.264-5.33 2-8h2c.909-13.354 1.133-26.638 1.098-40.02l-.005-6.442q-.005-6.877-.018-13.755-.019-10.88-.024-21.761-.018-23.074-.051-46.147c-.022-16.645-.043-33.29-.053-49.936q-.008-10.813-.029-21.625-.01-6.718-.013-13.437-.003-3.11-.01-6.22-.01-4.251-.009-8.502l-.01-2.474c.008-4.98.415-9.751 1.124-14.681"/><path fill="#6bd0f3" d="M738 968h1c.225 14.672.073 29.072-1.722 43.643a302 302 0 0 0-.75 7.275c-1.312 13.707-1.312 13.707-3.817 20.094-.807 2.256-1.192 4.439-1.586 6.8-.94 5.103-2.81 9.6-4.906 14.329-1.272 2.87-1.272 2.87-2.242 5.976-1.238 3.655-2.996 6.582-4.977 9.883 3.054-.92 3.054-.92 5.875-2.562 3.083-1.419 4.8-1.731 8.125-1.438-3.184 3.47-6.74 4.908-11 6.75l-2.195.996c-5.436 2.377-5.436 2.377-8.805 1.254l1.875-.125L715 1080c.7-1.989 1.358-3.992 2-6a139 139 0 0 1 1.734-3.75c5.596-11.743 9.241-23.614 12.266-36.25l.554-2.302C736.38 1010.872 736.95 989.27 738 968"/><path fill="#39bfec" d="m816 988 1 2c-11.97 29.476-39.754 54.085-65 72l-2-1 1-3 5-1v-2l2.813-1.25c3.138-1.723 4.198-2.91 6.187-5.75l3-1v-2l2.246-.766c2.942-1.318 4.568-2.688 6.82-4.972l2.221-2.237 2.275-2.338 2.288-2.302c6.736-6.416 6.736-6.416 11.15-14.385l3-2 1-3h2l.344-1.71c.736-2.57 1.824-4.6 3.156-6.915l1.344-2.352L807 1000l1-2h2l.75-2.75c1.29-3.354 2.57-4.927 5.25-7.25"/><path fill="#8be1f9" d="M304 612c-1.742 1.742-4.212 1.399-6.59 1.613-26.54 2.526-49.423 4.838-67.41 26.387-1.928 2.626-3.474 5.117-5 8l-1-2c9.405-15.27 20.772-25.364 38.258-30.195C294.57 608.857 294.57 608.857 304 612"/><path fill="#49c6ee" d="M833 915h1c.824 21.86-2.993 43.973-12 64-1-3-1-3-.125-5.5 1.305-4.06 1.502-7.771 1.684-12.012.51-2.882 1.335-3.572 3.441-5.488.046-2 .038-4 0-6 .542-2.712 1.264-5.33 2-8h2l.184-3.621c.818-15.68.818-15.68 1.816-23.379"/><path fill="#c7f8fe" d="M794 511c0 3.804-1.105 4.823-3.395 7.816l-2.146 2.815-2.271 2.932-2.237 2.943c-5.548 7.226-5.548 7.226-8.951 9.494 1.935-4.4 4.96-7.996 7.898-11.754 2.37-2.8 2.37-2.8 3.102-6.246l-2.957 2.004-3.856 2.558-1.947 1.327c-1.697 1.116-3.466 2.122-5.24 3.111l-3-1q5.122-3.442 10.25-6.875l2.934-1.973 2.832-1.894 2.602-1.746A58 58 0 0 1 794 511"/><path fill="#54c8ef" d="m816 988 1 2c-3.871 9.301-10.34 17.711-16 26l-2-1v-2h2l.344-1.71c.736-2.57 1.824-4.6 3.156-6.915l1.344-2.352L807 1000l1-2h2l.75-2.75c1.29-3.354 2.57-4.927 5.25-7.25"/><path fill="#c4f8fe" d="m744 542 2 1a396 396 0 0 1-4.125 3.375l-2.32 1.898c-2.803 1.895-5.348 2.672-8.555 3.727-2.665 1.354-5.233 2.865-7.812 4.375C717.576 559.59 712.063 562.7 706 565l-2-1 3.523-1.836c8.543-4.465 17.05-8.983 25.477-13.664l2.298-1.275c2.98-1.663 5.86-3.33 8.702-5.225"/><path fill="#c5f8fe" d="M730 689c2.208 3.699 2.833 7.631 3.563 11.813l.38 2.08a221 221 0 0 1 1.584 10.056c.145 2.92.145 2.92 1.473 4.051.072 1.853.084 3.708.063 5.563l-.028 3.066L737 728h-1q-1.294-6.642-2.563-13.287-.434-2.258-.874-4.513-.633-3.257-1.25-6.516l-.398-2.012c-.803-4.276-1.033-8.327-.915-12.672"/><path fill="#49c6ef" d="M768 1045h5c-3.607 3.749-7.374 7.024-11.5 10.188l-1.684 1.326c-3.138 2.418-6.052 4.229-9.816 5.486l1-4 5-1v-2l2.813-1.25c3.138-1.723 4.198-2.91 6.187-5.75l3-1z"/><path fill="#156d9c" d="m654 774 3 2h-17l-1 3-3 1v-2l-6 2c5.957-6.625 15.635-6.967 24-6"/><path fill="#86e3fa" d="M416 858c0 3.746-1.33 4.74-3.862 7.33l-1.638 1.607-1.65 1.634c-3.974 3.826-7.587 6.577-12.85 8.429l-2-1 2.781-1.906c7.008-4.866 13.48-9.714 19.219-16.094"/><path fill="#1a76a0" d="M556 914c2.4.96 3.736 1.57 5.11 3.805 1.505 3.712 1.45 7.26.89 11.195-2.06 3.975-4.236 6.58-8 9l-2-1 2.938-2.062c2.656-2.213 3.034-2.827 3.937-6.375L559 925l.25-3.125c-.29-3.343-1.333-5.16-3.25-7.875"/><path fill="#53cbf0" d="M730.063 1071.938 733 1072c-3.184 3.47-6.74 4.908-11 6.75l-2.195.996c-5.436 2.377-5.436 2.377-8.805 1.254l9-3v-2l2.938-1.437c5.062-2.583 5.062-2.583 7.125-2.626"/><path fill="#57caef" d="M826 957c2.801 7.47-1.01 15.215-4 22-1-3-1-3-.125-5.5 1.311-4.08 1.548-7.849 1.781-12.11C824 959 824 959 826 957"/><path fill="#8ae5fb" d="m722 841 2 3-3 1-.812 2.625c-1.53 4.345-4.07 7.06-7.188 10.375 0-4.215 2.236-6.799 4.5-10.187l1.3-1.983A941 941 0 0 1 722 841"/><path fill="#a8ecfb" d="M669 467v1l-2.082.184-2.73.253-2.708.247c-2.607.25-2.607.25-5.48 1.316a94 94 0 0 1-5.687-.437l-3.012-.31L645 469v-1c8.023-.9 15.93-1.115 24-1"/><path fill="#2983a9" d="m617 802 3 1v8h-3z"/><path fill="#267ca6" d="m640 776-1 3-3 1v-2l-6 2c3.122-3.434 5.36-5.547 10-4"/><path fill="#59cbf0" d="m756 1055 2 1v2a125 125 0 0 1-6 4l-2-1 1-3 5-1z"/><path fill="#8be1fa" d="m779 533 1 2-7 8c0-3.59.664-4.109 3-6.687l1.688-1.887z"/><path fill="#e9eeef" d="M452 1141h15c-2 2-2 2-4.023 2.266l-2.352-.016-2.336.016C456 1143 456 1143 452 1141"/><path fill="#4ac7ee" d="M746 1062c2.25.25 2.25.25 4 1l-6 4-2-1c1.75-2.062 1.75-2.062 4-4"/><path fill="#edf6f6" d="M620 820c2.648 2.578 4.944 4.916 7 8h-3c-4-4.229-4-4.229-4-8"/><path fill="#e9efef" d="M486 1141h12c-2 2-2 2-4.383 2.195l-2.742-.07-2.758-.055L486 1143z"/><path fill="#e9eeee" d="M503 1141h12l-1 2-11-1z"/><path fill="#ebf0f2" d="M144 693h1v13h-1z"/><path fill="#eaeeef" d="M556 1141h9c-4.18 2.09-4.804 2.166-9 1zm24 0h7l-3 2z"/><path fill="#e9eeee" d="M532 1141h7v1h-7z"/><path fill="#ebefef" d="M516 1141h7v1h-7z"/><path fill="#e9f0f1" d="M144 718h1v7h-1z"/><path fill="#e8eeee" d="M597 1141h6v1h-6z"/><path fill="#eaeeef" d="M548 1141h6v1h-6z"/><path fill="#e9efee" d="M468 1141h5l-1 2z"/><path fill="#e8eeee" d="M444 1141h5l-4 2zm-8 0h6v1h-6z"/><path fill="#e6ebec" d="M388 1141h5l-1 2z"/><path fill="#e8eeed" d="M369 1140h6v1h-6z"/><path fill="#e7ecec" d="M146 963h1v6h-1z"/><path fill="#ecf2f4" d="M144 745h1v6h-1z"/><path d="m929 178 3 2-3 1z"/><path fill="#0b0a0a" d="m568 179 4 1h-2l-1 2z"/><path fill="#0b0b0a" d="m416 179 3 1v2h-2z"/><path d="M910 1448h4l-1 2zm-496 0h5v1h-5z"/><path fill="#e7ecec" d="m613 1141 4 1-2 1z"/><path fill="#e8edee" d="M590 1141h5v1h-5z"/><path fill="#e9efef" d="M566 1141h5v1h-5z"/><path fill="#e2eae9" d="m251 1117 3 1-3 1z"/><path fill="#e6ecec" d="M148 982h1v5h-1z"/><path fill="#eaeef0" d="m145 938 1 4-2-3z"/><path fill="#ecf1f3" d="M144 729h1v5h-1z"/><path fill="#e7ecec" d="m229 456 3 1-3 1z"/><path fill="#ebf0f0" d="m687 424 1 2-4-1z"/><path fill="#ebf1f1" d="m679 424 4 1-2 1z"/><path d="m945 178 3 2-4-1zm-105 1h4l-1 2z"/><path fill="#070808" d="m329 178 3 2-4-1z"/><path fill="#040404" d="M264 179h4l-1 2z"/><path d="m177 178 3 2-4-1zm-89 1 4 1-3 1zm-70-1 2 2-4-1zm476 1270 4 1Z"/><path fill="#000001" d="m364 1448 4 1Z"/><path fill="#010001" d="m302 1448 4 1Z"/><path fill="#000100" d="m183 1448 4 1Z"/><path d="m135 1448 4 1Zm-24 0 4 1Zm-97 0 4 1Zm870-22 1 2-3-1zm-846-1 1 3-2-1z"/><path fill="#000100" d="m389 1401 3 1h-3z"/><path fill="#eaefef" d="m650 1139 3 1h-3z"/><path fill="#ecf0f1" d="m144 800 1 4Z"/><path fill="#eaf2f2" d="m144 793 1 4Z"/><path fill="#e8eef0" d="m878 722 2 1-2 2z"/><path fill="#e8eeef" d="m146 618 1 4Z"/><path fill="#e5e7e8" d="M170 516h3l-1 2z"/><path fill="#e3e7e8" d="m185 493 4 1Zm21-21 1 2-3-1z"/><path d="m880 179 3 1h-3z"/><path fill="#060706" d="m744 179 4 1Z"/><path fill="#070707" d="m312 179 4 1Zm-8 0 4 1Z"/><path fill="#070505" d="M288 179h2l-1 3z"/><path d="m81 179 3 1-3 1zm-41 0 4 1Zm-13-2 1 3-2-1zm278 1346 3 1Zm400-27h2l-1 2zm257-32 3 1Zm-154-13 3 1Z"/><path fill="#000001" d="m997 1448 3 1Z"/><path d="M822 1448h2l-1 2z"/><path fill="#000001" d="m758 1448 3 1Zm-24 0h2l-1 2z"/><path d="m728 1448 3 1Zm-152 0 3 1Zm-89 0 3 1Z"/><path fill="#000001" d="m360 1448 3 1Z"/><path d="m326 1448 3 1Z"/><path fill="#000001" d="m311 1448 3 1Z"/><path fill="#010000" d="m199 1448 3 1Z"/><path fill="#000002" d="m103 1448 3 1Z"/><path fill="#000001" d="m298 1427 3 1Z"/><path d="m764 1426 1 2-2-1z"/><path fill="#010201" d="M445 1401h2l-1 2z"/><path d="m237 1400 2 2h-2zm-62 0 1 2-2-1z"/><path fill="#e3e9e8" d="m405 1143 3 1Z"/><path fill="#e8eeef" d="m623 1141 3 1Z"/><path fill="#e9edef" d="m604 1141 3 1Z"/><path fill="#e8edee" d="M636 1140h2l-1 2z"/><path fill="#e7ecec" d="m354 1139 2 1-2 1z"/><path fill="#eaf0ef" d="m646 1139 3 1Z"/><path fill="#e8eeed" d="m683 1134 3 1Z"/><path fill="#e6edec" d="m311 1134 3 1Z"/><path fill="#e4ebed" d="m688 1133 3 1Z"/><path fill="#e5ebec" d="m272 1125 3 1Z"/><path fill="#e6edec" d="m733 1119 3 1Z"/><path fill="#202323" d="m948 1090 3 1Z"/><path fill="#151616" d="m28 1090 3 1Z"/><path fill="#e5e9e9" d="m814 1064 1 2-2-1z"/><path fill="#e5ecea" d="m168 1046 2 2h-2z"/><path fill="#e5eaeb" d="m876 932 2 2h-2z"/><path fill="#eaf1f3" d="m697 426 3 1Z"/><path fill="#ecf0f0" d="m356 425 3 1Z"/><path fill="#eaf0f0" d="m661 424 3 1Z"/><path fill="#ebf2f2" d="m368 424 3 1Z"/><path fill="#bfc2c4" d="m408 396 2 2h-2z"/><path fill="#010100" d="m993 323 2 2h-2z"/><path fill="#1b1c1a" d="m889 323 2 1-2 1z"/><path d="m937 180 2 2h-2zm-32 0 2 2h-2zm95-1 3 1Zm-40 0 3 1Zm-102-1 2 2h-2z"/><path fill="#070708" d="m720 179 3 1Z"/><path fill="#0b0b09" d="m400 179 3 1Z"/><path fill="#010101" d="M246 176h2l-1 2z"/><path d="m937 108 2 2h-2zm-128 0 2 2h-2zm145 1415 2 1Zm-114 0 2 1Zm-24 0 2 1Zm-528 0 2 1Zm-32 0 2 1Zm-216 0 2 1Zm744-3 2 1Zm-249 0 2 1Zm-23 0 2 1Zm-112 0 2 1Zm-130 0 2 1Zm-183 0 2 1Z"/><path fill="#000001" d="m413 1503 2 1Z"/><path d="m811 1501 2 1Z"/><path fill="#000001" d="m402 1501 2 1Z"/><path d="m1008 1499 2 1Z"/><path fill="#000101" d="m989 1499 2 1Z"/><path d="m792 1496 2 1Zm62-23 2 1Zm-464-1 2 1Zm-27-8 2 1Zm-130-11 2 1Zm358-1 2 1Zm49-1 2 1Zm-216 0 2 1Z"/><path fill="#000001" d="m312 1451 2 1Z"/><path fill="#010001" d="m177 1451 2 1Z"/><path d="m56 1451 2 1Z"/><path fill="#000001" d="m902 1448 2 1Zm-15 0 2 1Z"/><path fill="#010001" d="m870 1448 2 1Z"/><path fill="#000001" d="m854 1448 2 1Z"/><path fill="#010102" d="m815 1448 2 1Z"/><path d="m796 1448 2 1Z"/><path fill="#000001" d="m782 1448 2 1Z"/><path fill="#000100" d="m777 1448 2 1Z"/><path fill="#000002" d="m767 1448 2 1Z"/><path d="m698 1448 2 1Zm-18 0 2 1Z"/><path fill="#000101" d="m663 1448 2 1Z"/><path fill="#000001" d="m638 1448 2 1Z"/><path d="m633 1448 2 1Z"/><path fill="#010100" d="m630 1448 2 1Z"/><path fill="#000001" d="m598 1448 2 1Z"/><path fill="#010001" d="m583 1448 2 1Z"/><path fill="#000001" d="m550 1448 2 1Z"/><path fill="#020102" d="m534 1448 2 1Z"/><path d="m512 1448 2 1Z"/><path fill="#000100" d="m484 1448 2 1Zm-3 0 2 1Z"/><path fill="#000001" d="m470 1448 2 1Z"/><path fill="#000101" d="m454 1448 2 1Z"/><path fill="#000100" d="m441 1448 2 1Z"/><path fill="#000001" d="m422 1448 2 1Z"/><path fill="#010001" d="m399 1448 2 1Z"/><path fill="#000100" d="m393 1448 2 1Z"/><path d="m344 1448 2 1Z"/><path fill="#010001" d="m335 1448 2 1Z"/><path d="m323 1448 2 1Z"/><path fill="#000101" d="m294 1448 2 1Z"/><path d="m281 1448 2 1Z"/><path fill="#010001" d="m239 1448 2 1Zm-9 0 2 1Z"/><path d="m196 1448 2 1Z"/><path fill="#000100" d="m193 1448 2 1Z"/><path d="m169 1448 2 1Z"/><path fill="#000100" d="m129 1448 2 1Zm-32 0 2 1Z"/><path fill="#000002" d="m87 1448 2 1Z"/><path fill="#010000" d="m54 1448 2 1Z"/><path fill="#000200" d="m9 1448 2 1Z"/><path fill="#000001" d="m243 1431 2 1Z"/><path fill="#010001" d="m489 1429 2 1Z"/><path d="m482 1429 2 1Z"/><path fill="#010100" d="m962 1427 2 1Z"/><path d="m915 1427 2 1Z"/><path fill="#000100" d="m810 1427 2 1Z"/><path fill="#000001" d="m785 1427 2 1Z"/><path d="m413 1427 2 1Z"/><path fill="#010000" d="m362 1427 2 1Z"/><path d="m170 1427 2 1Zm-144 0 2 1Z"/><path fill="#000100" d="m702 1425 2 1Z"/><path fill="#010000" d="m445 1425 2 1Z"/><path fill="#000201" d="m118 1425 2 1Z"/><path d="m268 1424 2 1Zm452-21 2 1Zm222-2 2 1Zm-33 0 2 1Z"/><path fill="#000100" d="m877 1401 2 1Z"/><path d="m806 1401 2 1Zm-97 0 2 1Z"/><path fill="#000100" d="m662 1401 2 1Z"/><path fill="#010202" d="m646 1401 2 1Z"/><path fill="#010301" d="m622 1401 2 1Z"/><path fill="#020201" d="m469 1401 2 1Z"/><path fill="#010201" d="m422 1401 2 1Z"/><path fill="#010202" d="m414 1401 2 1Z"/><path fill="#010101" d="m374 1401 2 1Z"/><path fill="#000100" d="m333 1401 2 1Zm-15 0 2 1Z"/><path fill="#000001" d="m302 1401 2 1Z"/><path d="m182 1401 2 1Zm-33 0 2 1Z"/><path fill="#000100" d="m109 1401 2 1Z"/><path d="m93 1401 2 1Zm-23 0 2 1Zm814-1 2 1Zm102-21 2 1Zm-144 0 2 1Zm-104 0 2 1Zm-680 0 2 1Z"/><path fill="#e7eeee" d="m608 1141 2 1Z"/><path fill="#e9efef" d="m575 1141 2 1Z"/><path fill="#ecefee" d="m500 1141 2 1Z"/><path fill="#e5edec" d="m394 1141 2 1Z"/><path fill="#e9eeed" d="m359 1139 2 1Z"/><path fill="#e7ebec" d="m330 1137 2 1Z"/><path fill="#e7eceb" d="m316 1135 2 1Z"/><path fill="#eaedf0" d="m696 1131 2 1Z"/><path fill="#dce1e1" d="m246 1119 2 1Z"/><path fill="#d2d7d6" d="m239 1119 2 1Z"/><path fill="#e4e8ea" d="m232 1108 2 1Z"/><path fill="#e7ebeb" d="m222 1103 2 1Z"/><path fill="#e7ebed" d="m215 1098 2 1Z"/><path fill="#0b0a0c" d="m1005 1090 2 1Z"/><path fill="#2b2d2d" d="m933 1090 2 1Z"/><path fill="#323333" d="m925 1090 2 1Z"/><path fill="#cacdcf" d="m804 1090 2 1Z"/><path fill="#595e5c" d="m116 1090 2 1Z"/><path fill="#e1e5e7" d="m808 1071 2 1Z"/><path fill="#e7ebec" d="m153 1012 2 1Z"/><path fill="#4b4d4c" d="m977 659 2 1Z"/><path fill="#323432" d="m1000 563 2 1Z"/><path fill="#848787" d="m908 518 2 1Z"/><path fill="#a1a4a5" d="m892 518 2 1Z"/><path fill="#c3c6c6" d="m876 518 2 1Z"/><path fill="#d4d7da" d="m868 518 2 1Z"/><path fill="#878a8c" d="m124 518 2 1Z"/><path fill="#272828" d="m36 518 2 1Z"/><path fill="#e3e6e8" d="m859 513 2 1Z"/><path fill="#e0e7e5" d="m852 497 2 1Z"/><path fill="#e2e5e6" d="m187 491 2 1Z"/><path fill="#dde2e3" d="m184 491 2 1Z"/><path fill="#e0e6e8" d="m190 489 2 1Z"/><path fill="#e6ebec" d="m837 481 2 1Z"/><path fill="#e2e9e7" d="m210 467 2 1Z"/><path fill="#131514" d="m1022 465 2 1Z"/><path fill="#37393a" d="m942 465 2 1Z"/><path fill="#636766" d="m902 465 2 1Z"/><path fill="#e8edef" d="m216 465 2 1Z"/><path fill="#4f5051" d="m110 465 2 1Z"/><path fill="#e5ebeb" d="m790 449 2 1Z"/><path fill="#e7eaea" d="m243 449 2 1Z"/><path fill="#e7ebed" d="m788 448 2 1Z"/><path fill="#e8ecee" d="m742 433 2 1Z"/><path fill="#ebeef0" d="m292 433 2 1Z"/><path fill="#ebf0f0" d="m297 432 2 1Z"/><path fill="#eaf0f0" d="m316 429 2 1Zm7-1 2 1Z"/><path fill="#eaeeee" d="m320 428 2 1Z"/><path fill="#ecf0f0" d="m708 427 2 1Z"/><path fill="#edf0f1" d="m332 427 2 1Z"/><path fill="#ecf1f0" d="m350 425 2 1Z"/><path fill="#1f2022" d="m949 419 2 1Z"/><path fill="#494a4b" d="m878 401 2 1Z"/><path fill="#4a4b4b" d="m875 398 2 1Z"/><path fill="#0e1110" d="m931 344 2 1Z"/><path fill="#3d3e3d" d="m800 323 2 1Z"/><path fill="#5d5f5d" d="m681 323 2 1Z"/><path fill="#525454" d="m723 321 2 1Z"/><path d="m1015 320 2 1Z"/><path fill="#0b0b0c" d="m932 320 2 1Z"/><path d="m994 275 2 1Z"/><path fill="#000100" d="m954 275 2 1Z"/><path fill="#080a09" d="m898 275 2 1Z"/><path fill="#161616" d="m834 275 2 1Z"/><path fill="#202120" d="m794 275 2 1Z"/><path fill="#212323" d="m786 275 2 1Z"/><path fill="#292a2a" d="m754 275 2 1Z"/><path fill="#2e3030" d="m722 275 2 1Z"/><path fill="#383a3a" d="m626 275 2 1Z"/><path fill="#393b3a" d="m538 275 2 1Z"/><path fill="#383b39" d="m466 275 2 1Z"/><path fill="#393b3a" d="m386 275 2 1Z"/><path fill="#242425" d="m258 275 2 1Z"/><path fill="#080a09" d="m142 272 2 1Z"/><path d="m998 200 2 1Zm-32 0 2 1Zm-32 0 2 1Zm-32 0 2 1Zm-8 0 2 1Z"/><path fill="#000403" d="m830 200 2 1Z"/><path fill="#020404" d="m822 200 2 1Z"/><path fill="#050808" d="m790 200 2 1Z"/><path fill="#0f1011" d="m670 200 2 1Z"/><path fill="#0f1211" d="m654 200 2 1Z"/><path fill="#101112" d="m454 200 2 1Z"/><path fill="#101212" d="m422 200 2 1Z"/><path fill="#101111" d="m398 200 2 1Z"/><path fill="#101310" d="m382 200 2 1Z"/><path fill="#0d0f0e" d="m326 200 2 1Z"/><path fill="#070708" d="m262 200 2 1Z"/><path fill="#080808" d="m254 200 2 1Z"/><path fill="#010302" d="m190 200 2 1Z"/><path d="m134 200 2 1Zm-24 0 2 1Zm-24 0 2 1Z"/><path fill="#000001" d="m78 200 2 1Z"/><path fill="#000101" d="m62 200 2 1Z"/><path d="m911 192 2 1Z"/><path fill="#000200" d="m207 192 2 1Z"/><path d="m985 181 2 1Z"/><path fill="#010000" d="m849 181 2 1Z"/><path fill="#010200" d="m817 181 2 1Z"/><path fill="#030303" d="m809 181 2 1Z"/><path fill="#0a0a09" d="m689 181 2 1Z"/><path fill="#0d0b0b" d="m593 181 2 1Z"/><path fill="#0c0b0c" d="m577 181 2 1Z"/><path fill="#0b0a0b" d="m401 181 2 1Z"/><path fill="#070807" d="m305 181 2 1Z"/><path d="m193 181 2 1Zm-80 0 2 1Z"/><path fill="#000100" d="m1018 179 2 1Z"/><path d="m994 179 2 1Zm-10 0 2 1Zm-6 0 2 1Z"/><path fill="#000001" d="m898 179 2 1Z"/><path fill="#000100" d="m890 179 2 1Z"/><path fill="#010202" d="m818 179 2 1Z"/><path fill="#020302" d="m810 179 2 1Z"/><path fill="#020203" d="m802 179 2 1Z"/><path fill="#040303" d="m784 179 2 1Z"/><path fill="#030504" d="m778 179 2 1Z"/><path fill="#060608" d="m738 179 2 1Z"/><path fill="#070809" d="m730 179 2 1Z"/><path fill="#080909" d="m706 179 2 1Z"/><path fill="#090a09" d="m698 179 2 1Z"/><path fill="#080a09" d="m658 179 2 1Z"/><path fill="#0b0c0b" d="m650 179 2 1Z"/><path fill="#090b0a" d="m634 179 2 1Z"/><path fill="#0b0b09" d="m626 179 2 1Z"/><path fill="#0b0a09" d="m616 179 2 1Z"/><path fill="#0a0c09" d="m594 179 2 1Z"/><path fill="#090c09" d="m506 179 2 1Z"/><path fill="#0a0c0a" d="m482 179 2 1Z"/><path fill="#0a0b09" d="m458 179 2 1Z"/><path fill="#090b0a" d="m450 179 2 1Z"/><path fill="#0a0b0a" d="m442 179 2 1Zm-8 0 2 1Z"/><path fill="#090b0a" d="m378 179 2 1Z"/><path fill="#080b09" d="m370 179 2 1Z"/><path fill="#070808" d="m322 179 2 1Z"/><path fill="#020403" d="m258 179 2 1Z"/><path fill="#020401" d="m242 179 2 1Z"/><path fill="#000202" d="m234 179 2 1Zm-16 0 2 1Z"/><path d="m154 179 2 1Zm-8 0 2 1Z"/><path fill="#000100" d="m122 179 2 1Z"/><path d="m114 179 2 1Zm-17 0 2 1Zm925-3 2 1Z"/><path fill="#010000" d="m974 176 2 1Z"/><path d="m934 176 2 1Zm-40 0 2 1Zm-8 0 2 1Z"/><path fill="#010202" d="m814 176 2 1Z"/><path fill="#040405" d="m766 176 2 1Z"/><path fill="#0a0909" d="m598 176 2 1Z"/><path fill="#080908" d="m494 176 2 1Z"/><path fill="#070807" d="m334 176 2 1Z"/><path fill="#060806" d="m310 176 2 1Z"/><path fill="#060606" d="m302 176 2 1Z"/><path fill="#030404" d="m270 176 2 1Z"/><path d="m198 176 2 1Zm-88 0 2 1Zm-64 0 2 1Zm-16 0 2 1Zm988-45 2 1Z"/><path fill="#000001" d="m954 131 2 1Z"/><path fill="#000100" d="m938 131 2 1Z"/><path d="m882 131 2 1Z"/><path fill="#000100" d="m874 131 2 1Z"/><path fill="#000001" d="m810 131 2 1Z"/><path d="m794 131 2 1Z"/><path fill="#000100" d="m786 131 2 1Z"/><path fill="#000101" d="m778 131 2 1Zm-40 0 2 1Z"/><path fill="#010201" d="m698 131 2 1Z"/><path fill="#010301" d="m634 131 2 1Z"/><path fill="#020202" d="m514 131 2 1Zm-136 0 2 1Z"/><path fill="#000101" d="m274 131 2 1Z"/><path fill="#000100" d="m130 131 2 1Zm-104 0 2 1Zm932-2 2 1Z"/><path d="m14 128 2 1Zm960-7 2 1Zm-69-12 2 1Zm-24 0 2 1Zm-80 0 2 1Z"/><path fill="#000001" d="m745 109 2 1Zm-88 0 2 1Z"/><path d="m577 109 2 1Zm-24 0 2 1Zm-128 0 2 1Z"/><path fill="#000100" d="m417 109 2 1Z"/><path d="m401 109 2 1Z"/><path fill="#000001" d="m353 109 2 1Zm-152 0 2 1Zm-8 0 2 1Z"/><path d="m169 109 2 1Zm-16 0 2 1Z"/><path fill="#000001" d="m121 109 2 1Z"/><path d="m41 109 2 1Zm-32 0 2 1Zm357-5 2 1ZM194 83l2 1Zm678-22 2 1ZM30 56l2 1Zm379-5 2 1Zm-60-2 2 1Z"/></svg>