<svg xmlns="http://www.w3.org/2000/svg" width="1024" height="1024"><path fill="#fefefe" d="m532 189 1 2h3v2l3.5-1c4.29-1.078 8.086-1.232 12.5-1l1 1 2.875-.5C559 191 559 191 562 192c2.638-.394 2.638-.394 5-1v2l3.23-.988c5.666-1.415 11.276-1.266 17.082-1.2l3.284.002c7.981.045 7.981.045 11.404 1.186a530 530 0 0 0 5-1l2 1 3-.5c3-.5 3-.5 5 .5l2.938-.5C623 191 623 191 626 192a530 530 0 0 0 5-1l2 1 6-1c3.527-.186 6.955-.23 10.422.535 2.778.501 4.969.362 7.765.028C671.202 190.1 671.202 190.1 675 192c1.644.07 3.292.084 4.938.063l2.652-.028L685 192c1.854 0 3.709.017 5.563.063 2.446.11 2.446.11 4.437-1.063v2l2.188-1.062c3.236-1.08 4.537-.637 7.812.062q2.505.098 5.012.063l2.795-.024 2.88-.039q2.85-.038 5.7-.062l2.538-.036C726 192 726 192 728 193l1-2 3 2 2-1 2.313 1c3.072 1.143 4.587.886 7.687 0v2l2-.562c7.276-1.062 14.84.952 21.313 4.25L770 200l2-1v2h4v2c3.058.544 5.888 1 9 1v4l4-3 .688 1.875c1.714 2.776 3.253 3.155 6.312 4.125l3 1 2-1 1 4 4-1 1 3c1.917 1.167 1.917 1.167 4 2l2 1v2l4-1v4l1.938.938C821 227 821 227 822 228l2-3v4l2 1-1 2 3-1c1.648 1.074 1.648 1.074 3.375 2.688L835 237l2.75 2.125c2.25 1.875 2.25 1.875 3.813 4 1.315 2.006 1.315 2.006 3.5 2.875 2.494 1.287 3.013 2.382 3.937 5v4l7 2c1 5.75 1 5.75 1 8l2 1c4 4.588 4 4.588 4 7l4 2-.625 1.875L866 279c2.139 2.139 3.133 2.427 6 3l1 4-1-2c-.158 3.053-.158 3.053 1 6l2 2 1 3 2 1c.393 2.323.507 4.618.656 6.969L879 305l2 1c.633 1.848.633 1.848 1.125 4.063l.508 2.222L883 314h2l-1 5h3l4 11 1-1c2 .25 2 .25 4 1l1 3 4-1v2l2.938-.562L907 333l1 1c5.611 3.73 5.611 3.73 12 5l3 2 3-1v3l1.75.313c2.25.687 2.25.687 4.313 2.25 1.936 1.735 1.936 1.735 4.937 1.437l2 4h3a181 181 0 0 1 4 4l3 1 .938 2.438c.813 2.67.813 2.67 3 3.75L955 363l3 2v3l5 1-2 1 2 1c.625 3.063.625 3.063 1 6l4-1c.981 3.053.981 4.947 0 8h3l1 5 1-2 .25 1.75c.61 2.438.61 2.438 2.875 4.188L978 395c-.375 2.625-.375 2.625-1 5l2 2-.555 2.309c-.593 3.585.467 4.755 2.43 7.753 3.492 5.934 4.101 11.137 4.125 17.938h-2l1.063 3.313C985 437 985 437 984 440c.394 2.638.394 2.638 1 5l-2 1 2 7-2 1 2 6-2 2 2 7-2 1c.256 2.343.593 4.678 1 7l2 1-.625 2.313c-.709 2.906-.709 2.906 1.625 5.687h-4l1.438 2.875L987 494l-2 2 .5 2.938C986 502 986 502 984 505c.157 2.128.157 2.128 1 4l2 1h-4l2 7-2 1 1 2.313c1 2.687 1 2.687 1 5.687h-2c.959 2.33.959 2.33 4 4l-2 2 1 2h-3l2 7-2 1 1.063 2.625c1.02 3.673.657 5.693-.063 9.375.358 2.277.358 2.277 1 4h-2l1.063 2.75c.968 3.357.827 4.085-.063 7.25a90 90 0 0 0 1 6h-2c-.687 2.49-1 4.379-1 7v2l-2 1v6l-2 1 .625 2.25c.437 3.204-.118 3.987-1.625 6.75a225 225 0 0 0-1 6l-1 2-3 1-.375 2.438L971 614l-2 1v7h-2v2h-3l-1 4h-2v2a88 88 0 0 1-5 3c-3.248 1.722-3.248 1.722-4 5-1.268 2.536-2.468 2.85-5 4l-2 1-1 3h-2c-2.92 1.224-4.874 2.662-7 5l-2-1 1 3c-4.537 1.452-8.18 2.235-13 2l-1 4-3.437.375L913 660l-1 2-2-1-1 2-6-1v3l2 1-2.187-.75c-2.951-.554-2.951-.554-5.5 1.5-2.445 2.222-2.445 2.222-4.313 5.25h-3v3l-2 1c-.658 3.03-.658 3.03-1 6h-2l1 3c-2.392 5.696-2.392 5.696-5 7l.188 3.688c.02 3.89-.815 6.148-3.188 9.312l-3-1 1 6-3 2c-.79 1.954-.79 1.954-1.187 4.125L871 720l-3-1v5h-2l-1 8-3 1-2 2-2-1-.75 3.75c-.945 3.833-2.25 5.624-5.25 8.25a89 89 0 0 0-2 4l-2 2-1 2h-4v4h-4l-1 2c-2.036 2.313-2.976 2.992-6 4-1.209 2-1.209 2-2 4l-2-1-1 3-2 2a249 249 0 0 0-3 4l-2-1v2c-2.56 2.214-5.183 4.122-8 6l-3-1-1 4-3.437.875L801 788l-1 2-3-1v2l-5 1v2l-1.937.438c-2.038.372-2.038.372-3.063 1.562l-2.437.438c-2.714.354-2.714.354-4.563 2.562-2.625-.375-2.625-.375-5-1l-1 4-4-1-1 3h-2v-2l-3 2h-3l-1 2v-2l-2.75 1.063c-3.128.902-4.302 1.07-7.25-.063v2l-7-1-1 2-2.625-.625c-3.803-.423-5.839.27-9.375 1.625-3.415.873-4.594 1.135-8 0l-2 .5c-2 .5-2 .5-5-.5l-2.812.5c-3.398.533-5.837.156-9.188-.5h-4v-2l-1.75 1.5C695 810 695 810 691 810l-1.812.563c-3.184.636-6.018-.014-9.188-.563v-2l-1.75.563c-2.457.477-3.894.194-6.25-.563v2h-3v-2l-2 2c-2.566.227-2.566.227-5.777.195l-3.494-.02-3.667-.05-3.654-.027q-3.356-.027-6.712-.066A484 484 0 0 0 638 810l-2.562-.062c-2.447-.11-2.447-.11-4.438 1.062q-3.5-.491-7-1c-2.674-.088-5.323-.045-8 0-3 0-3 0-6-1l-3 3v-2h-2l-1 2-2.187-.5c-2.695-.48-5.084-.57-7.813-.5-2.209 0-4.419-.02-6.625-.125-2.565-.13-2.565-.13-4.375 2.125l-1-2-2 2v-2h-3l-1 2-1.648-.984c-2.812-1.215-4.923-1.282-7.977-1.266l-2.914-.016c-2.638.025-2.638.025-4.461 2.266l-1.812-1c-2.242-1.208-2.242-1.208-5.188-1l-3-1-1 2v-2l-2.312 1C543 812 543 812 540 812v-2l-3.437.438A846 846 0 0 1 523 812l-1-2-1.875 1.063L518 812l-2-1c-2.037-.229-4.08-.41-6.125-.562l-3.32-.254L504 810l-1 2-1.562-1.125c-3.562-1.278-5.955-.08-9.438 1.125l-1-2-4 3v-3h-4v2q-2.22.039-4.437.063l-2.497.035C474 812 474 812 473 811l-2 2-2-2-2.125.438c-3.874.757-6.967.13-10.875-.438h-3a93 93 0 0 1-4-1v2h-2v-2h-2l-1 2v-2l-5 2v-2l-3.187.563c-3.432.393-5.515.097-8.813-.563l-2 2c-1.875-.059-1.875-.059-4-.437-3.1-.62-3.1-.62-6 .437v-2l-3 1c-2.927 0-5.29-.162-8.125-.625L400 810l-2 2-1.875-1.062c-3.863-1.16-6.777-.707-10.723-.13-2.415.193-4.108-.082-6.402-.808l-1 2-1-2h-9l-1 2v-2l-3.187.563c-3.498.4-5.457.108-8.813-.563-2.336.312-4.67.642-7 1l-1-1a84 84 0 0 0-5.023.156l-3.094.16-6.492.368-3.102.16-2.853.162C324 811 324 811 321 810l-3 2-3-2c-4.06.376-8.014 1.154-12 2v-2l-2.812.5C297 811 297 811 294 811l-1 1-1-2-3.75.5c-3.773.503-7.443.517-11.25.438-2.561.053-4.57.314-7 1.062v-2l-3.312.563C263 811 263 811 260 810l-2.312.5c-3.148.585-5.56.056-8.688-.5l-2 1-3-2h-9v-2h-3l-2 2-3.125-1.375c-3.24-1.392-6.512-2.559-9.875-3.625v2h-2l-1-2-2 2-2-4-1 2h-2v-2l-3 1c-1.832-.707-1.832-.707-3.812-1.812-5.793-3.116-5.793-3.116-12.188-4.188v-3h-8l-1-3a140 140 0 0 0-4-1l-3-3-2.062-.5C168 786 168 786 166 783c-2.05-1.192-2.05-1.192-4-2v-3l-1 2h-2v-2l-3-1-1-2a280 280 0 0 0-4-1c-2-2-2-2-3-4l-3-1 1-1-5-3-1 2v-5l-4-1 1-1a140 140 0 0 0-7-5l-1-3-2.437-2.437c-2.25-2.25-3.262-3.761-4.563-6.563l-2-1v-2h-2l-.75-2.375c-1.404-2.948-2.257-3.527-5.25-4.625l.25-2.625c-.396-5.343-3.053-8.29-6.937-11.812-2.866-3.176-2.912-5.39-3.313-9.563l-2-1v-3l-2-1c-2.843-2.499-4.457-4.198-5-8l5-2h-3l-1.375-3.375c-1.35-3.587-1.35-3.587-3.625-5.625h2l-.5-2.312C91 680 91 680 91 677c-.323-3.597-.323-3.597-1-7l-2-1 2-7h-3c-1.312-3.937-.243-6.125 1-10l-2-1v-2l2-1-1.562-3.125c-1.591-3.67-1.291-5.95-.438-9.875-.304-1.672-.631-3.34-1-5l1-2-.5-1.812c-.5-2.188-.5-2.188.063-4.625.535-3.135-.195-4.746-1.563-7.563l2-2c-.322-3.1-.322-3.1-1-6h2l-1.062-2.75c-.978-3.388-.737-4.052.062-7.25-.87-3.196-.87-3.196-2-6h3l-1-3.062c-1.074-3.697-1.075-7.09-1-10.938l-1-2q.45-3.008 1-6v-3l2 1-1-2.5c-1.166-4.082-1.07-7.271-1-11.5l-1-2 2-1-1-7h2l-.727-1.645-.898-2.168-.914-2.144L84 534l2-3c-.802-2.671-.802-2.671-2-5l2-2c-.32-2.603-.32-2.603-1-5h2l-.937-2.75c-.79-2.416-1.492-4.778-2.063-7.25l2-1-.5-3.312c-.494-3.646-.5-7.01-.5-10.688h2l-1-2.812c-1.451-4.627-1-9.362-1-14.188l2 1-1.062-2.75c-.969-3.357-.828-4.085.062-7.25a90 90 0 0 0-1-6h2c-.498-2.756-.498-2.756-2-5l-1-3 2-2a140 140 0 0 0-1-4l.563-1.875c.658-2.272.658-2.272-.563-4.937-1.21-3.86-.589-6.198 0-10.188-.19-3.684-.57-7.337-1-11h2l-2-6 2-2c-.322-3.1-.322-3.1-1-6h2l-1-2.875C85 400 85 400 85 398h2l-3-9 2-1-.562-1.625c-.55-2.988.065-5.392.562-8.375-.358-2.277-.358-2.277-1-4h2c-.776-3.075-.776-3.075-3-5v-3h3l-2-7 2-1-.5-3c-.577-4.04-.64-7.921-.5-12l1-1a177 177 0 0 0-1-7l3-1-3-3 2-4v4c3.581-10.45 3.581-10.45 3-21l1-1.937c1.233-2.545.704-3.424 0-6.063l2-2c2.78-4.17 4.546-8.346 6.27-13.027.867-2.342 1.79-4.66 2.73-6.973h3l.375-1.687c.685-2.534 1.616-4.892 2.625-7.313h2l-1-4c3-2 3-2 6-2l.078-1.898.172-2.477.14-2.46L117 256c1.984-1.102 1.984-1.102 4-2l1-3h2l.938-1.875C127 245 127 245 129.438 244.188c2.779-.957 2.779-.957 3.75-3.688L134 238l2-2v3l1-2h3l-1-3h3l-1-3 2-1 3 1v-2h2l2-4h2l1-2 2 1 .25-1.875c.75-2.125.75-2.125 2.563-3.312C160 218 160 218 162.188 217.563L164 217l1-3h3l2-2h4l1-3 3 1 .75-1.812c1.414-2.474 2.9-3.622 5.25-5.188l1 2h3v-2c2.906-1.257 4.796-2 8-2l1-3 1 1 1.75-1c2.25-1 2.25-1 6.25-1l2-2v2l3.813-.937c4.556-1.024 9.053-1.488 13.707-1.817 2.432-.179 2.432-.179 4.554-.773C232 193 232 193 236 193a176 176 0 0 0 5-1c3.85-.786 6.252-.947 10 0q2.28.134 4.563.125l2.316.008c2.311-.054 2.311-.054 5.121-1.133v2l3.75-1.062c3.219-.912 5.054-.838 8.25.062 4.814.293 9.285.031 14-1l1 1 2.313-.5c2.687-.5 2.687-.5 4.476 0 2.887.653 5.337.32 8.274 0 5.607-.61 5.607-.61 8.937.5l2.11-.43c4.054-.8 8.018-.715 12.14-.695l2.508-.012c6.115.01 6.115.01 7.242 1.137l2.188-.5c3.223-.573 5.618-.125 8.812.5 3.107.078 3.107.078 6.563-.562C359 191 359 191 361 192l3-.5c3-.5 3-.5 5 .5 4.844.161 9.229-.046 14-1v2l3-1c3.75-.07 7.489.003 11.238.063 3.63.039 3.63.039 6.63-.574 3.115-.486 5.867-.518 9.01-.368l3.292.147 3.392.17 6.692.308 2.979.146c2.593.101 5.172.126 7.767.108h3l1.875-.562c2.125-.438 2.125-.438 4.375.03 3.026.585 5.796.63 8.875.595l3.133-.028L461 192h3q3.505-.474 7-1v2l3.688-1.062c3.488-.888 5.796-.842 9.312.062l3-1 2 1 1.813-1.062L493 190l2.188.938c3.546 1.34 6.035.893 9.726.351 3.858-.535 7.282.035 11.086.711l1-2 3.063 1.063c3.877 1.113 6.99.884 10.937-.063zm322 71 1 2Zm-752 49 1 2Zm791 21 1 2Zm73 48 1 3ZM86 388l1 2Zm895 30 1 2 1-2zm1 146 1 2Zm-896 8 1 2Zm10 124 1 3Zm765 34 1 2 1-2zm-660 69 1 2Zm518 8 1 2Z"/><path fill="#01af4f" d="m253.04 250.76 5.139-.006c4.693-.004 9.387.004 14.08.014 5.145.009 10.289.006 15.433.004q14.967 0 29.935.021c11.546.015 23.092.016 34.638.018 30.474.01 60.948.038 91.422.064L650 251v490l-202.75.25-63.995.11c-25.808.018-25.808.018-37.894.022q-12.649.006-25.297.04-14.605.04-29.21.032c-4.975-.003-9.95.001-14.925.023-45.678.19-45.678.19-66.929-9.477l-3.07-1.371C180.43 718.597 161.042 696.127 151 670c-4.092-12.044-5.15-23.82-5.147-36.457l-.011-3.733q-.014-5.096-.017-10.193-.007-5.51-.022-11.019c-.02-8.86-.03-17.719-.039-26.579l-.015-12.544a59567 59567 0 0 1-.044-52.566l-.002-2.715a25231 25231 0 0 0-.066-43.502q-.049-22.377-.054-44.753c-.002-8.364-.01-16.727-.036-25.09q-.034-10.689-.02-21.378c.004-3.627.002-7.255-.017-10.882-.17-33.387 6.375-60.624 28.49-86.589l1.77-2.086c19.862-21.42 49.095-29.262 77.27-29.155"/><path fill="#b9b9b9" d="M650 251c86.567 0 86.567 0 103 5.625l2.245.767C768.98 262.319 779.763 269.73 790 280l1.941 1.762c16.431 15.134 26.884 39.165 28.245 61.256.07 3.303.08 6.6.068 9.903l.01 3.81c.008 3.46.004 6.92-.003 10.38-.004 3.743.003 7.486.008 11.23.01 7.32.007 14.643.002 21.965q-.007 8.933-.003 17.865v2.573l.003 5.177q.006 24.246-.012 48.493-.012 20.771.002 41.542a46165 46165 0 0 1 .007 53.472l-.001 2.564q-.003 8.911.006 17.824.008 10.875-.007 21.75a3443 3443 0 0 0 0 11.082c.006 4.016-.002 8.033-.012 12.05l.013 3.485c-.135 28.338-9.565 52.848-29.404 73.079C783.95 718.04 776.552 723.4 768 728l-3.45 1.867C729.739 747.787 686.713 741 650 741z"/><path fill="#e1e1e1" d="m532 189 1 2h3v2l3.5-1c4.29-1.078 8.086-1.232 12.5-1l1 1 2.875-.5C559 191 559 191 562 192c2.638-.394 2.638-.394 5-1v2l3.23-.988c5.666-1.415 11.276-1.266 17.082-1.2l3.284.002c7.981.045 7.981.045 11.404 1.186a530 530 0 0 0 5-1l2 1 3-.5c3-.5 3-.5 5 .5l2.938-.5C623 191 623 191 626 192a530 530 0 0 0 5-1l2 1 6-1c3.527-.186 6.955-.23 10.422.535 2.778.501 4.969.362 7.765.028C671.202 190.1 671.202 190.1 675 192c1.644.07 3.292.084 4.938.063l2.652-.028L685 192c1.854 0 3.709.017 5.563.063 2.446.11 2.446.11 4.437-1.063v2l2.188-1.062c3.236-1.08 4.537-.637 7.812.062q2.505.098 5.012.063l2.795-.024 2.88-.039q2.85-.038 5.7-.062l2.538-.036C726 192 726 192 728 193l1-2 3 2 2-1 2.313 1c3.072 1.143 4.587.886 7.687 0v2l2-.562c7.276-1.062 14.84.952 21.313 4.25L770 200l2-1v2h4v2c3.058.544 5.888 1 9 1v4l4-3 .688 1.875c1.714 2.776 3.253 3.155 6.312 4.125l3 1 2-1 1 4 4-1 1 3c1.917 1.167 1.917 1.167 4 2l2 1v2l4-1v4l1.938.938C821 227 821 227 822 228l2-3v4l2 1-1 2 3-1c1.648 1.074 1.648 1.074 3.375 2.688L835 237l2.75 2.125c2.25 1.875 2.25 1.875 3.813 4 1.315 2.006 1.315 2.006 3.5 2.875 2.494 1.287 3.013 2.382 3.937 5v4l7 2c1 5.75 1 5.75 1 8l2 1c4 4.588 4 4.588 4 7l4 2-.625 1.875L866 279c2.139 2.139 3.133 2.427 6 3l1 4-1-2c-.158 3.053-.158 3.053 1 6l2 2 1 3 2 1c.393 2.323.507 4.618.656 6.969L879 305l2 1c.633 1.848.633 1.848 1.125 4.063l.508 2.222L883 314h2l-1 5h3l4 11 1-1c2 .25 2 .25 4 1l1 3 4-1v2l2.938-.562L907 333l1 1c5.611 3.73 5.611 3.73 12 5l3 2 3-1v3l1.75.313c2.25.687 2.25.687 4.313 2.25 1.936 1.735 1.936 1.735 4.937 1.437l2 4h3a181 181 0 0 1 4 4l3 1 .938 2.438c.813 2.67.813 2.67 3 3.75L955 363l3 2v3l5 1-2 1 2 1c.625 3.063.625 3.063 1 6l4-1c.981 3.053.981 4.947 0 8h3l1 5 1-2 .25 1.75c.61 2.438.61 2.438 2.875 4.188L978 395c-.375 2.625-.375 2.625-1 5l2 2-.555 2.309c-.593 3.585.467 4.755 2.43 7.753 3.492 5.934 4.101 11.137 4.125 17.938h-2l1.063 3.313C985 437 985 437 984 440c.394 2.638.394 2.638 1 5l-2 1 2 7-2 1 2 6-2 2 2 7-2 1c.256 2.343.593 4.678 1 7l2 1-.625 2.313c-.709 2.906-.709 2.906 1.625 5.687h-4l1.438 2.875L987 494l-2 2 .5 2.938C986 502 986 502 984 505c.157 2.128.157 2.128 1 4l2 1h-4l2 7-2 1 1 2.313c1 2.687 1 2.687 1 5.687h-2c.959 2.33.959 2.33 4 4l-2 2 1 2h-3l2 7-2 1 1.063 2.625c1.02 3.673.657 5.693-.063 9.375.358 2.277.358 2.277 1 4h-2l1.063 2.75c.968 3.357.827 4.085-.063 7.25a90 90 0 0 0 1 6h-2c-.687 2.49-1 4.379-1 7v2l-2 1v6l-2 1 .625 2.25c.437 3.204-.118 3.987-1.625 6.75a225 225 0 0 0-1 6l-1 2-3 1-.375 2.438L971 614l-2 1v7h-2v2h-3l-1 4h-2v2a88 88 0 0 1-5 3c-3.248 1.722-3.248 1.722-4 5-1.268 2.536-2.468 2.85-5 4l-2 1-1 3h-2c-2.92 1.224-4.874 2.662-7 5l-2-1 1 3c-4.537 1.452-8.18 2.235-13 2l-1 4-3.437.375L913 660l-1 2-2-1-1 2-6-1v3l2 1-2.187-.75c-2.951-.554-2.951-.554-5.5 1.5-2.445 2.222-2.445 2.222-4.313 5.25h-3v3l-2 1c-.658 3.03-.658 3.03-1 6h-2l1 3c-2.392 5.696-2.392 5.696-5 7l.188 3.688c.02 3.89-.815 6.148-3.188 9.312l-3-1 1 6-3 2c-.79 1.954-.79 1.954-1.187 4.125L871 720l-3-1v5h-2l-1 8-3 1-2 2-2-1-.75 3.75c-.945 3.833-2.25 5.624-5.25 8.25a89 89 0 0 0-2 4l-2 2-1 2h-4v4h-4l-1 2c-2.036 2.313-2.976 2.992-6 4-1.209 2-1.209 2-2 4l-2-1-1 3-2 2a249 249 0 0 0-3 4l-2-1v2c-2.56 2.214-5.183 4.122-8 6l-3-1-1 4-3.437.875L801 788l-1 2-3-1v2l-5 1v2l-1.937.438c-2.038.372-2.038.372-3.063 1.562l-2.437.438c-2.714.354-2.714.354-4.563 2.562-2.625-.375-2.625-.375-5-1l-1 4-4-1-1 3h-2v-2l-3 2h-3l-1 2v-2l-2.75 1.063c-3.128.902-4.302 1.07-7.25-.063v2l-7-1-1 2-2.625-.625c-3.803-.423-5.839.27-9.375 1.625-3.415.873-4.594 1.135-8 0l-2 .5c-2 .5-2 .5-5-.5l-2.812.5c-3.398.533-5.837.156-9.188-.5h-4v-2l-1.75 1.5C695 810 695 810 691 810l-1.812.563c-3.184.636-6.018-.014-9.188-.563v-2l-1.75.563c-2.457.477-3.894.194-6.25-.563v2h-3v-2l-2 2c-2.566.227-2.566.227-5.777.195l-3.494-.02-3.667-.05-3.654-.027q-3.356-.027-6.712-.066A484 484 0 0 0 638 810l-2.562-.062c-2.447-.11-2.447-.11-4.438 1.062q-3.5-.491-7-1c-2.674-.088-5.323-.045-8 0-3 0-3 0-6-1l-3 3v-2h-2l-1 2-2.187-.5c-2.695-.48-5.084-.57-7.813-.5-2.209 0-4.419-.02-6.625-.125-2.565-.13-2.565-.13-4.375 2.125l-1-2-2 2v-2h-3l-1 2-1.648-.984c-2.812-1.215-4.923-1.282-7.977-1.266l-2.914-.016c-2.638.025-2.638.025-4.461 2.266l-1.812-1c-2.242-1.208-2.242-1.208-5.188-1l-3-1-1 2v-2l-2.312 1C543 812 543 812 540 812v-2l-3.437.438A846 846 0 0 1 523 812l-1-2-1.875 1.063L518 812l-2-1c-2.037-.229-4.08-.41-6.125-.562l-3.32-.254L504 810l-1 2-1.562-1.125c-3.562-1.278-5.955-.08-9.438 1.125l-1-2-4 3v-3h-4v2q-2.22.039-4.437.063l-2.497.035C474 812 474 812 473 811l-2 2-2-2-2.125.438c-3.874.757-6.967.13-10.875-.438h-3a93 93 0 0 1-4-1v2h-2v-2h-2l-1 2v-2l-5 2v-2l-3.187.563c-3.432.393-5.515.097-8.813-.563l-2 2c-1.875-.059-1.875-.059-4-.437-3.1-.62-3.1-.62-6 .437v-2l-3 1c-2.927 0-5.29-.162-8.125-.625L400 810l-2 2-1.875-1.062c-3.863-1.16-6.777-.707-10.723-.13-2.415.193-4.108-.082-6.402-.808l-1 2-1-2h-9l-1 2v-2l-3.187.563c-3.498.4-5.457.108-8.813-.563-2.336.312-4.67.642-7 1l-1-1a84 84 0 0 0-5.023.156l-3.094.16-6.492.368-3.102.16-2.853.162C324 811 324 811 321 810l-3 2-3-2c-4.06.376-8.014 1.154-12 2v-2l-2.812.5C297 811 297 811 294 811l-1 1-1-2-3.75.5c-3.773.503-7.443.517-11.25.438-2.561.053-4.57.314-7 1.062v-2l-3.312.563C263 811 263 811 260 810l-2.312.5c-3.148.585-5.56.056-8.688-.5l-2 1-3-2h-9v-2h-3l-2 2-3.125-1.375c-3.24-1.392-6.512-2.559-9.875-3.625v2h-2l-1-2-2 2-2-4-1 2h-2v-2l-3 1c-1.832-.707-1.832-.707-3.812-1.812-5.793-3.116-5.793-3.116-12.188-4.188v-3h-8l-1-3a140 140 0 0 0-4-1l-3-3-2.062-.5C168 786 168 786 166 783c-2.05-1.192-2.05-1.192-4-2v-3l-1 2h-2v-2l-3-1-1-2a280 280 0 0 0-4-1c-2-2-2-2-3-4l-3-1 1-1-5-3-1 2v-5l-4-1 1-1a140 140 0 0 0-7-5l-1-3-2.437-2.437c-2.25-2.25-3.262-3.761-4.563-6.563l-2-1v-2h-2l-.75-2.375c-1.404-2.948-2.257-3.527-5.25-4.625l.25-2.625c-.396-5.343-3.053-8.29-6.937-11.812-2.866-3.176-2.912-5.39-3.313-9.563l-2-1v-3l-2-1c-2.843-2.499-4.457-4.198-5-8l5-2h-3l-1.375-3.375c-1.35-3.587-1.35-3.587-3.625-5.625h2l-.5-2.312C91 680 91 680 91 677c-.323-3.597-.323-3.597-1-7l-2-1 2-7h-3c-1.312-3.937-.243-6.125 1-10l-2-1v-2l2-1-1.562-3.125c-1.591-3.67-1.291-5.95-.438-9.875-.304-1.672-.631-3.34-1-5l1-2-.5-1.812c-.5-2.188-.5-2.188.063-4.625.535-3.135-.195-4.746-1.563-7.563l2-2c-.322-3.1-.322-3.1-1-6h2l-1.062-2.75c-.978-3.388-.737-4.052.062-7.25-.87-3.196-.87-3.196-2-6h3l-1-3.062c-1.074-3.697-1.075-7.09-1-10.938l-1-2q.45-3.008 1-6v-3l2 1-1-2.5c-1.166-4.082-1.07-7.271-1-11.5l-1-2 2-1-1-7h2l-.727-1.645-.898-2.168-.914-2.144L84 534l2-3c-.802-2.671-.802-2.671-2-5l2-2c-.32-2.603-.32-2.603-1-5h2l-.937-2.75c-.79-2.416-1.492-4.778-2.063-7.25l2-1-.5-3.312c-.494-3.646-.5-7.01-.5-10.688h2l-1-2.812c-1.451-4.627-1-9.362-1-14.188l2 1-1.062-2.75c-.969-3.357-.828-4.085.062-7.25a90 90 0 0 0-1-6h2c-.498-2.756-.498-2.756-2-5l-1-3 2-2a140 140 0 0 0-1-4l.563-1.875c.658-2.272.658-2.272-.563-4.937-1.21-3.86-.589-6.198 0-10.188-.19-3.684-.57-7.337-1-11h2l-2-6 2-2c-.322-3.1-.322-3.1-1-6h2l-1-2.875C85 400 85 400 85 398h2l-3-9 2-1-.562-1.625c-.55-2.988.065-5.392.562-8.375-.358-2.277-.358-2.277-1-4h2c-.776-3.075-.776-3.075-3-5v-3h3l-2-7 2-1-.5-3c-.577-4.04-.64-7.921-.5-12l1-1a177 177 0 0 0-1-7l3-1-3-3 2-4v4c3.581-10.45 3.581-10.45 3-21l1-1.937c1.233-2.545.704-3.424 0-6.063l2-2c2.78-4.17 4.546-8.346 6.27-13.027.867-2.342 1.79-4.66 2.73-6.973h3l.375-1.687c.685-2.534 1.616-4.892 2.625-7.313h2l-1-4c3-2 3-2 6-2l.078-1.898.172-2.477.14-2.46L117 256c1.984-1.102 1.984-1.102 4-2l1-3h2l.938-1.875C127 245 127 245 129.438 244.188c2.779-.957 2.779-.957 3.75-3.688L134 238l2-2v3l1-2h3l-1-3h3l-1-3 2-1 3 1v-2h2l2-4h2l1-2 2 1 .25-1.875c.75-2.125.75-2.125 2.563-3.312C160 218 160 218 162.188 217.563L164 217l1-3h3l2-2h4l1-3 3 1 .75-1.812c1.414-2.474 2.9-3.622 5.25-5.188l1 2h3v-2c2.906-1.257 4.796-2 8-2l1-3 1 1 1.75-1c2.25-1 2.25-1 6.25-1l2-2v2l3.813-.937c4.556-1.024 9.053-1.488 13.707-1.817 2.432-.179 2.432-.179 4.554-.773C232 193 232 193 236 193a176 176 0 0 0 5-1c3.85-.786 6.252-.947 10 0q2.28.134 4.563.125l2.316.008c2.311-.054 2.311-.054 5.121-1.133v2l3.75-1.062c3.219-.912 5.054-.838 8.25.062 4.814.293 9.285.031 14-1l1 1 2.313-.5c2.687-.5 2.687-.5 4.476 0 2.887.653 5.337.32 8.274 0 5.607-.61 5.607-.61 8.937.5l2.11-.43c4.054-.8 8.018-.715 12.14-.695l2.508-.012c6.115.01 6.115.01 7.242 1.137l2.188-.5c3.223-.573 5.618-.125 8.812.5 3.107.078 3.107.078 6.563-.562C359 191 359 191 361 192l3-.5c3-.5 3-.5 5 .5 4.844.161 9.229-.046 14-1v2l3-1c3.75-.07 7.489.003 11.238.063 3.63.039 3.63.039 6.63-.574 3.115-.486 5.867-.518 9.01-.368l3.292.147 3.392.17 6.692.308 2.979.146c2.593.101 5.172.126 7.767.108h3l1.875-.562c2.125-.438 2.125-.438 4.375.03 3.026.585 5.796.63 8.875.595l3.133-.028L461 192h3q3.505-.474 7-1v2l3.688-1.062c3.488-.888 5.796-.842 9.312.062l3-1 2 1 1.813-1.062L493 190l2.188.938c3.546 1.34 6.035.893 9.726.351 3.858-.535 7.282.035 11.086.711l1-2 3.063 1.063c3.877 1.113 6.99.884 10.937-.063zm-381 50-2.363 1.957c-5.08 4.307-9.276 9.009-13.399 14.234a149 149 0 0 1-5.164 6.11c-3.312 3.847-5.962 7.98-8.574 12.324l-1.45 2.402c-8.514 14.307-14.487 29.735-18.362 45.91-.16.661-.32 1.322-.483 2.003-2.162 9.577-2.353 19.185-2.345 28.966l-.01 3.842q-.01 5.241-.01 10.482c-.002 3.779-.01 7.558-.016 11.336q-.02 12.38-.024 24.758l-.012 15.488q-.019 21.48-.026 42.96v2.774l-.003 11.15a34471 34471 0 0 1-.045 44.748q-.035 23.025-.037 46.049.002 12.905-.025 25.811-.023 10.997-.012 21.993c.004 3.73.003 7.462-.011 11.193-.123 34.293 3.722 67.86 24.371 96.51l2.117 2.973C130.03 731.695 135.28 737.956 141 744l2.637 2.867C165.81 770.444 196.55 784.344 228 790l2.684.53c3.94.559 7.811.61 11.781.601l2.553.007q4.245.006 8.488.002l6.14.01q8.445.011 16.889.01 9.105.005 18.21.016 20.955.02 41.909.025 10.36.003 20.723.01a178862 178862 0 0 0 91.099.03c23.988.003 47.976.02 71.964.042a82446 82446 0 0 0 86.58.04q16.539.005 33.078.027 16.644.022 33.289.01 9.008-.008 18.015.011 8.262.019 16.523 0 2.973-.004 5.948.01c16.18.066 31.612-1.51 47.127-6.381l3.438-1.02C777.78 779.825 790.305 773.66 802 766l2.488-1.621C832.87 744.827 852.004 717.298 863 685l.93-2.71c3.354-10.962 5.468-23.814 5.07-35.29l2.797.14c24.809.687 47.148-6.604 65.382-23.85 5.971-5.86 10.816-11.901 14.821-19.29l1.61-2.895c8.21-15.507 10.693-31.307 10.68-48.676l.02-4.262c.018-3.825.023-7.65.025-11.475q.001-3.6.01-7.2.028-12.608.026-25.214c-.002-7.784.02-15.568.051-23.353q.038-10.086.036-20.172c0-3.997.005-7.995.026-11.993.203-29.16.203-29.16-8.484-56.76l-1.492-3.102C950.54 381.092 945.838 374.51 940 368l-1.672-1.922c-13.196-14.241-32.896-23.14-52.184-24.241-6.055-.162-12.092-.052-18.144.163l.075-1.799c.155-6.69-.718-12.753-2.2-19.264l-.682-3.039c-5.712-24.557-16.65-47.284-34.123-65.687C829 250 829 250 826.656 247.062c-2.735-3.31-5.872-5.847-9.281-8.437l-1.88-1.443a901 901 0 0 0-3.764-2.864 277 277 0 0 1-4.422-3.455c-28.815-22.23-64.29-29.015-99.812-29.01l-5.992-.011q-8.214-.014-16.428-.017-8.867-.007-17.735-.022-20.397-.027-40.795-.037l-20.191-.015a152823 152823 0 0 0-73.56-.042h-2.174l-13.094-.005q-35.036-.013-70.073-.064a59001 59001 0 0 0-84.406-.059q-15.102-.004-30.204-.034-17.213-.034-34.427-.02c-5.844.004-11.689.002-17.533-.017-48.915-.155-91.519 4.358-129.885 37.49m703 21 1 2Zm-752 49 1 2Zm791 21 1 2Zm73 48 1 3ZM86 388l1 2Zm895 30 1 2 1-2zm1 146 1 2Zm-896 8 1 2Zm10 124 1 3Zm765 34 1 2 1-2zm-660 69 1 2Zm518 8 1 2Z"/><path fill="#fefefe" d="M510.188 314.188c3.62 2.332 5.89 4.967 7.812 8.812.833 10.244-.887 20.485-2.23 30.613q-.354 2.726-.704 5.453a6253 6253 0 0 1-1.874 14.351c-.62 4.723-1.23 9.447-1.842 14.17q-1.267 9.78-2.544 19.554c-1.574 12.049-3.126 24.1-4.67 36.152l-.332 2.598L502 460l3.4-.027q15.89-.121 31.78-.18c5.446-.021 10.892-.05 16.337-.095q7.888-.063 15.775-.078 3.004-.01 6.01-.043c2.812-.03 5.624-.033 8.436-.031l2.492-.044c6.466.046 11.968 1.72 16.645 6.357 2.748 4.619 4.477 8.723 3.125 14.141-4.117 9.156-10.15 17.38-15.812 25.625q-1.405 2.057-2.808 4.115-2.835 4.156-5.676 8.307c-3.174 4.637-6.33 9.285-9.486 13.933-5.894 8.681-11.806 17.35-17.718 26.02l-3.715 5.45q-2.865 4.203-5.735 8.404c-6.963 10.194-13.902 20.401-20.737 30.681l-1.477 2.22a5727 5727 0 0 0-7.174 10.815c-4.447 6.707-8.977 13.312-13.752 19.793-3.421 4.723-6.628 9.588-9.848 14.45l-2.11 3.176a1260 1260 0 0 0-11.077 16.948l-2.059 3.208a433 433 0 0 0-3.476 5.554c-2.878 4.57-5.245 8.047-10.34 10.301-4.399.824-8.225 1.05-12.164-1.281-2.446-2.054-4.4-3.848-5.836-6.719-.8-10.335.177-20.447 1.629-30.68q.406-2.944.808-5.89l.592-4.31c1.242-9.037 2.414-18.081 3.59-27.126l1.193-9.158q.81-6.202 1.617-12.406l2.5-19.192Q458.967 556.62 461 541l-3.528.027q-16.465.121-32.93.18-8.463.03-16.928.095-8.17.063-16.34.078-3.115.01-6.231.043c-2.911.029-5.822.033-8.733.031l-2.598.044c-6.622-.046-10.123-2.12-15.024-6.623-2.548-4.34-3.074-7.878-2.688-12.875 4.15-12.154 13.205-23.018 20.375-33.5q1.955-2.872 3.906-5.746 3.743-5.506 7.491-11.007c3.06-4.494 6.083-9.01 9.09-13.54 2.883-4.325 5.792-8.633 8.7-12.941l1.802-2.669 3.72-5.509c10.307-15.265 20.594-30.542 30.786-45.885q7.106-10.68 14.227-21.35l3.767-5.65q5.559-8.34 11.143-16.664 1.888-2.82 3.768-5.642 2.788-4.181 5.592-8.35l1.664-2.51c14.744-21.846 14.744-21.846 28.156-16.85"/><path fill="#35ce6f" d="m256.552 286.725 3.04-.015c3.287-.014 6.574-.013 9.861-.01l6.919-.014q7.238-.01 14.474-.002c6.15.006 12.3-.01 18.451-.034 4.762-.015 9.523-.016 14.285-.013q3.399 0 6.798-.015c33.284-.13 33.284-.13 44.62 9.378 3.97 4.162 6.333 8.121 6.625 13.937-.808 10.964-7.028 18.926-13.39 27.413-1.69 2.259-3.336 4.549-4.985 6.837a1972 1972 0 0 1-7.508 10.227c-5.692 7.708-11.37 15.421-16.913 23.238-4.146 5.828-8.406 11.57-12.657 17.32A907 907 0 0 0 316 409c-4.46 6.286-9.03 12.487-13.613 18.685a1583 1583 0 0 0-12.012 16.502A910 910 0 0 1 278 461c-7.028 9.316-13.835 18.788-20.63 28.275a1920 1920 0 0 1-9.727 13.47q-1.673 2.295-3.332 4.6C232.207 524.094 232.207 524.094 224 528l-2 1c-7.656.662-14.75.917-21-4-6.619-6.284-10.742-12.864-11.131-22.127l-.01-3.582-.008-2.004c-.01-2.209-.01-4.418-.012-6.627l-.015-4.762q-.019-6.462-.024-12.924-.005-4.044-.012-8.087-.02-12.668-.027-25.334-.007-14.59-.05-29.18-.034-11.297-.034-22.595a3581 3581 0 0 0-.025-13.475 2122 2122 0 0 1-.01-12.694q.002-2.316-.013-4.634C189.51 337.428 194.743 321.68 208 307l1.746-1.957c12.45-13.198 29.057-18.365 46.806-18.318"/><path fill="#b6b6b7" d="M870 390c13.81 0 24.812 2.154 34.965 11.883 6.596 7.112 10.148 14.308 10.175 24.035l.018 3.67.003 4.018.015 4.239q.019 5.755.024 11.511l.012 7.2q.02 11.277.027 22.554.007 12.993.05 25.987.034 10.058.034 20.115 0 6 .025 12 .023 5.65.01 11.302c-.002 2.028.012 4.056.026 6.084-.057 12.59-2.65 22.38-11.493 31.601C892.908 596.444 885.6 597 870 597z"/><path fill="#a4a6a7" d="M275.291 200.39c6.137.018 12.273.006 18.41-.001q15.91-.013 31.823.021a16466 16466 0 0 0 35.47.038h8.463c26.397 0 52.795.028 79.193.068q35.13.055 70.26.058h2.259l15.754.003h2.24c23.129.003 46.257.02 69.386.04q11.49.011 22.981.016h2.085l2.08.001q19.86.006 39.72.041 9.067.019 18.136.02 8.31 0 16.62.024 2.997.007 5.992.003c33.848-.04 67.746 9.044 94.837 30.278v2l2.05.602c4.058 1.923 6.906 4.694 10.138 7.773l2.01 1.905c23.444 22.54 42.506 55.467 43.974 88.599.013 3.049-.031 6.076-.172 9.121l1.512-.484c17.332-3.592 37.625 1.141 52.343 10.687 3.885 2.736 7.516 5.734 11.145 8.797l2.008 1.516c17.575 13.57 27.17 37.198 29.992 58.484.369 4.954.412 9.875.388 14.841q.007 2.103.016 4.205c.014 3.755.009 7.509-.001 11.263-.008 3.965 0 7.93.004 11.894q.007 9.983-.016 19.966c-.016 7.646-.01 15.291.006 22.937q.02 9.921.007 19.841-.008 5.893.005 11.785c.075 34.081-3.792 62.201-27.971 88.002C929.139 633.645 917.396 641.23 905 645l-2.95.898c-10.913 2.816-21.859 2.398-33.05 2.102v-1l1.873-.12c12.447-.836 24.253-1.832 36.127-5.88l3.121-1.055C927.48 633.4 942.128 620.193 951 604l1.613-2.898c8.204-15.512 10.69-31.302 10.678-48.673q.008-2.13.02-4.262c.017-3.825.022-7.65.024-11.475q.001-3.6.01-7.2.028-12.608.026-25.214c-.002-7.784.02-15.568.051-23.353q.038-10.086.036-20.172c0-3.997.005-7.995.026-11.993.203-29.16.203-29.16-8.484-56.76l-1.492-3.102c-9.95-19.578-26.171-34.528-46.86-42.093-12.738-3.87-25.433-4.46-38.648-4.805l-.262-2.508C863.6 304.337 851.165 271.702 825 247l-2.387-2.418C814.255 236.323 805.2 229.809 795 224l-1.729-1.007c-26.642-15.447-55.377-20.145-85.774-20.14l-5.992-.011q-8.214-.014-16.428-.017-8.867-.007-17.735-.022-20.397-.027-40.795-.037l-20.191-.015a152823 152823 0 0 0-73.56-.042h-2.174l-13.094-.005q-35.036-.013-70.073-.064a59001 59001 0 0 0-84.406-.059q-15.102-.004-30.204-.034-17.213-.034-34.427-.02c-5.844.004-11.689.002-17.533-.017-48.99-.155-91.421 4.416-129.885 37.49l-2.14 1.734c-4.833 3.996-8.7 8.51-12.587 13.422a155 155 0 0 1-5.203 6.149c-3.31 3.845-5.959 7.978-8.57 12.32l-1.45 2.402c-8.514 14.307-14.487 29.735-18.362 45.91l-.483 2.003c-2.162 9.577-2.353 19.185-2.345 28.966l-.01 3.842q-.01 5.241-.01 10.482c-.002 3.779-.01 7.558-.016 11.336q-.02 12.38-.024 24.758l-.012 15.488q-.019 21.48-.026 42.96v5.554l-.002 5.576v2.793q-.009 22.375-.046 44.75-.035 23.023-.037 46.048.002 12.905-.025 25.811-.023 10.996-.012 21.993.008 5.596-.011 11.193C99.506 659.783 103.35 693.35 124 722l2.117 2.973c4.912 6.721 10.168 12.98 15.883 19.027l2.414 2.645c21.957 23.184 52.59 36.78 83.586 42.355l2.684.53c3.94.559 7.811.61 11.781.601l2.553.007q4.245.006 8.488.002l6.14.01q8.445.011 16.889.01 9.105.005 18.21.016 20.954.02 41.909.025 10.36.003 20.723.01a178862 178862 0 0 0 91.099.03c23.988.003 47.976.02 71.964.042a82446 82446 0 0 0 84.5.04h2.08q16.539.004 33.078.027 16.644.022 33.289.01c6.005-.004 12.01-.003 18.015.011q8.261.019 16.523 0 2.973-.004 5.948.01c16.18.066 31.612-1.51 47.127-6.381l3.438-1.02C777.78 778.825 790.305 772.66 802 765l2.488-1.621c31.259-21.534 54.014-55.179 61.124-92.6.555-3.319 1.075-6.64 1.576-9.967l.537-3.462q.645-4.174 1.275-8.35h1c1.617 33.893-13.746 65.62-35.812 90.5-2.976 3.26-6.068 6.38-9.188 9.5-.697.755-1.395 1.51-2.113 2.29-7.12 7.562-15.205 13.09-23.887 18.71l-2.617 1.746c-10.995 7.02-23.344 11.917-35.82 15.566l-2.34.698c-15.9 4.4-31.824 5.433-48.235 5.378q-3.076.006-6.154.016c-5.583.014-11.166.01-16.75.003-6.042-.005-12.084.008-18.126.018q-16.702.022-33.405.014a30689 30689 0 0 0-41.287.007c-19.38.01-38.76.016-58.14.008l-2.21-.001-17.764-.008q-34.635-.014-69.27.022a61012 61012 0 0 1-86.295.03l-2.07-.001q-15.418-.002-30.835.019-17.548.023-35.096-.002c-5.96-.009-11.922-.011-17.883.004q-8.205.02-16.41-.01-2.949-.006-5.897.01c-42.014.208-78.75-16.258-109.396-44.517l-2.25-2c-26.497-24.73-41.706-61.279-43.75-97-.324-9.413-.288-18.833-.276-28.251.002-3.751-.007-7.503-.014-11.254q-.018-10.98-.012-21.96a17650 17650 0 0 0-.01-25.647q-.014-24.28-.003-48.56c.006-14.768-.006-29.536-.025-44.304q-.03-22.825-.024-45.65.005-12.783-.014-25.566-.019-10.877-.002-21.754c.006-3.69.008-7.381-.005-11.072-.057-18.743.346-37.018 6.073-55.045l.763-2.468c3.756-11.714 8.693-23.08 15.295-33.477 1.625-2.581 2.95-5.238 4.254-7.992h2l.75-1.64c1.53-2.888 3.342-5.458 5.25-8.11l2.125-2.984L135 252h2l.746-1.723c9.229-16.76 34.416-30.82 51.254-38.277l3.297-1.46c26.714-11.238 54.585-10.257 82.994-10.15"/><path fill="#9b9e9f" d="M240 201c46.885-.034 93.77-.066 140.654-.085h2.104l67.478-.025h2.231q35.782-.015 71.566-.043a121652 121652 0 0 1 83.966-.037h2.067q16.449-.005 32.896-.024 16.552-.017 33.103-.013 8.963.004 17.923-.011 8.215-.014 16.429-.004 2.963.002 5.924-.008c33.769-.101 67.644 9.076 94.659 30.25v2l2.05.602c4.058 1.923 6.906 4.694 10.138 7.773l2.01 1.905c23.444 22.54 42.506 55.467 43.974 88.599.013 3.049-.031 6.076-.172 9.121l1.512-.484c17.332-3.592 37.625 1.141 52.343 10.687 3.885 2.736 7.516 5.734 11.145 8.797l2.008 1.516c17.575 13.57 27.17 37.198 29.992 58.484.369 4.954.412 9.875.388 14.841q.007 2.103.016 4.205c.014 3.755.009 7.509-.001 11.263-.008 3.965 0 7.93.004 11.894q.007 9.983-.016 19.966c-.016 7.646-.01 15.291.006 22.937q.02 9.921.007 19.841-.008 5.893.005 11.785c.075 34.081-3.792 62.201-27.971 88.002C929.139 633.645 917.396 641.23 905 645l-2.95.898c-10.913 2.816-21.859 2.398-33.05 2.102v-1l1.873-.12c12.447-.836 24.253-1.832 36.127-5.88l3.121-1.055C927.48 633.4 942.128 620.193 951 604l1.613-2.898c8.204-15.512 10.69-31.302 10.678-48.673q.008-2.13.02-4.262c.017-3.825.022-7.65.024-11.475q.001-3.6.01-7.2.028-12.608.026-25.214c-.002-7.784.02-15.568.051-23.353q.038-10.086.036-20.172c0-3.997.005-7.995.026-11.993.203-29.16.203-29.16-8.484-56.76l-1.492-3.102c-9.95-19.578-26.171-34.528-46.86-42.093-12.738-3.87-25.433-4.46-38.648-4.805l-.262-2.508C863.6 304.337 851.165 271.702 825 247l-2.387-2.418C814.255 236.323 805.2 229.809 795 224l-1.729-1.007c-26.683-15.471-55.496-20.137-85.962-20.151l-6.052-.015q-8.295-.02-16.59-.028-8.953-.013-17.906-.034-15.504-.032-31.009-.056-16.257-.024-32.513-.056l-2.044-.004-10.276-.02q-36.372-.071-72.742-.132-35.33-.058-70.657-.125l-2.201-.004-66.455-.124-2.07-.004Q308.397 202.114 240 202z"/><path fill="#b5b7b8" d="M240 201v2l-2.253.256C204.378 207.182 176.593 217.993 151 240l-2.14 1.734c-4.833 3.996-8.7 8.51-12.587 13.422a155 155 0 0 1-5.203 6.149c-3.31 3.845-5.959 7.978-8.57 12.32l-1.45 2.402c-8.514 14.307-14.487 29.735-18.362 45.91l-.483 2.003c-2.14 9.483-2.355 19.005-2.363 28.69l-.015 3.75q-.019 5.115-.028 10.228-.013 5.53-.034 11.059-.032 9.567-.056 19.134-.035 13.832-.08 27.665-.071 22.444-.132 44.89-.059 21.795-.125 43.592l-.008 2.717-.041 13.492Q99.153 585.08 99 641h-1a114256 114256 0 0 1-.592-127.557l-.011-2.713q-.094-21.694-.21-43.388-.117-22.287-.2-44.575-.051-13.734-.134-27.468-.055-9.44-.08-18.88c-.01-3.621-.025-7.243-.053-10.864-.143-18.638.275-36.699 5.968-54.618l.763-2.468c3.756-11.714 8.693-23.08 15.295-33.477 1.625-2.581 2.95-5.238 4.254-7.992h2l.75-1.64c1.53-2.888 3.342-5.458 5.25-8.11l2.125-2.984L135 252h2l.746-1.723c9.229-16.76 34.416-30.82 51.254-38.277l3.297-1.46c8.313-3.48 16.755-5.618 25.578-7.415l3.168-.652c6.394-1.227 12.45-1.749 18.957-1.473"/><path fill="#a9aaaa" d="M964 417c2.293 3.44 2.253 4.697 2.26 8.744l.022 3.631-.007 3.99.015 4.2c.014 3.809.014 7.617.012 11.426q0 4.785.008 9.569.016 11.314.006 22.628c-.006 7.742.006 15.483.027 23.225q.027 10.002.02 20.006c-.001 3.972.001 7.944.015 11.916.11 34.238-3.638 62.467-27.94 88.4-9.299 8.91-21.042 16.495-33.438 20.265l-2.95.898c-10.913 2.816-21.859 2.398-33.05 2.102v-1l1.873-.12c12.447-.836 24.253-1.832 36.127-5.88l3.121-1.055C927.48 633.4 942.128 620.193 951 604l1.613-2.898c8.308-15.71 10.68-31.658 10.706-49.234l.03-4.439q.038-5.967.056-11.935c.015-4.172.042-8.344.068-12.516q.068-11.824.116-23.65c.039-8.982.088-17.964.138-26.946q.154-27.69.273-55.382"/><path fill="#abacac" d="M869 649h1c1.617 33.893-13.746 65.62-35.812 90.5-2.976 3.26-6.068 6.38-9.188 9.5-.697.755-1.395 1.51-2.113 2.29-7.12 7.562-15.205 13.09-23.887 18.71l-2.617 1.746C777.467 783.822 755.237 790.31 733 792l-1-2 3.55-.55c8.638-1.37 17.09-2.826 25.45-5.45l3.438-1.02C777.78 778.825 790.305 772.66 802 765l2.488-1.621c31.259-21.534 54.014-55.179 61.124-92.6.555-3.319 1.075-6.64 1.576-9.966l.537-3.463q.645-4.174 1.275-8.35"/><path fill="#a3a6a5" d="M833 253c5.1 3.837 8.408 7.981 11.875 13.313l1.572 2.392C853.084 278.992 860.325 290.954 863 303a66 66 0 0 1-1 4l-1.363-3.707c-6.356-16.825-14.418-31.982-25.836-45.922C833 255 833 255 833 253"/><path fill="#b0b2b2" d="M783 778c-2.662 2.662-5.722 3.598-9.187 4.875l-2.17.8C758.91 788.272 746.423 790.75 733 792l-1-2 3.55-.55c14.133-2.24 29.957-4.794 42.704-11.665C780 777 780 777 783 778"/><path fill="#afb0b0" d="M953 384c5.496 2.748 8.053 14.426 10 20 1.198 4.249 2.07 8.574 2 13l-2 3-.734-3.586c-1.78-8.471-3.624-16.516-7.266-24.414a1121 1121 0 0 1-1.75-4.125L952 385z"/><path fill="#b0b3b3" d="m102 313 2 2c-.172 2.363-.172 2.363-.75 5.313l-.605 3.269L102 327c-1.404 8.317-2.424 16.584-3 25-4.725-7.207-1.152-20.161.5-28.25.773-3.6 1.582-7.184 2.5-10.75"/><path fill="#0b8f25" d="M480 328h4c-1.63 4.825-4.315 8.717-7.156 12.89l-1.524 2.259q-1.59 2.352-3.188 4.7a1915 1915 0 0 0-4.878 7.221l-3.098 4.57-1.474 2.191c-3.452 5.054-3.452 5.054-5.682 6.169 1.549-4.541 4.056-8.235 6.79-12.129l2.85-4.135q2.244-3.236 4.498-6.464c1.454-2.087 2.897-4.18 4.339-6.276l1.373-1.945c2.325-3.394 3.15-4.814 3.15-9.051"/><path fill="#abaeae" d="m734.133 201.172 2.445.266 2.547.312 2.477.266c5.572.634 10.942 1.689 16.398 2.984l-2 2c-2.722-.22-5.311-.562-8-1q-2.687-.38-5.375-.754-2.812-.403-5.625-.809l-2.926-.42L727 203c3.203-2.135 3.572-2.23 7.133-1.828"/><path fill="#b4b6b6" d="M873 340c9.557-.202 18.64-.264 28 2-2 2-2 2-4.29 2.075l-2.831-.247-3.084-.265-3.232-.313-3.221-.266c-7.952-.724-7.952-.724-11.342-2.984"/><path fill="#04952c" d="M592 502c1 2 1 2 .313 4.875-1.36 3.238-2.606 4.925-5.313 7.125h-2l-.812 2.375C583 519 583 519 580 521c1.573-4.728 4.206-8.343 7.125-12.312l1.418-1.956q1.723-2.37 3.457-4.732"/><path fill="#078f22" d="M152 320c1.188 3.564.686 4.62-.437 8.125-1.333 4.51-1.795 8.23-1.375 12.902-.254 2.668-1.473 3.977-3.188 5.973-.784-9.064 1.42-17.387 4-26z"/><path fill="#abaeae" d="M899 343c5.613-.496 9.42 1.179 14.375 3.5l2.23 1.012Q918.31 348.744 921 350l-3 2c-2.418-.793-2.418-.793-5.187-2.187A136 136 0 0 0 899 344z"/><path fill="#afb0b2" d="m188 215-17 10-2-2q3.153-1.974 6.313-3.937l1.802-1.131c6.88-4.267 6.88-4.267 10.885-2.932"/><path fill="#afb1b2" d="m140 247 2 2q-2.428 2.759-4.875 5.5l-1.395 1.59c-1.202 1.341-2.462 2.63-3.73 3.91h-2c1.37-2.95 2.878-5.525 5-8h2l.938-1.937C139 248 139 248 140 247"/><path fill="#068e21" d="m541 577 1 2c-.937 2.125-.937 2.125-2 4h-2l-.687 2.063c-1.669 3.733-3.87 6.659-6.313 9.937l-2-1a9091 9091 0 0 1 5.438-7.937l1.564-2.288 1.494-2.177 1.38-2.016C540 578 540 578 541 577"/><path fill="#b2b4b4" d="M240 201v2a519 519 0 0 1-6.25.625l-3.516.352c-3.173.023-4.617-.28-7.234-1.977 5.707-.993 11.214-1.105 17-1"/><path fill="#06942d" d="m192 267 1 2c-2.623 2.915-5.718 4.885-9 7l-2-1q1.935-1.722 3.875-3.437l2.18-1.934C190 268 190 268 192 267"/><path fill="#b3b4b5" d="m752.188 203.875 3.292.617L758 205l-2 2c-4.412-.362-8.674-1.054-13-2 3.755-2.504 4.869-1.96 9.188-1.125"/><path fill="#0b942a" d="M605 480c1.017 2.655 1.13 3.692.004 6.36l-1.442 2.39-1.433 2.422L601 493l-3-1 1.023-1.61 1.352-2.14 1.336-2.11c1.208-2.005 2.273-4.032 3.289-6.14"/><path fill="#a9abab" d="M148 752c2.747 1.313 5.257 2.753 7.75 4.5l1.86 1.281L159 759v2c-5.292-1.4-7.775-4.855-11-9"/><path fill="#a8abab" d="M120 718c2.648 2.578 4.944 4.916 7 8l-1 3a399 399 0 0 1-3-3.812l-1.687-2.145C120 721 120 721 120 718"/><path fill="#bbbcbc" d="M209 207c-2.36 2.36-3.779 2.491-7 3v-3c3.133-1.044 3.99-.934 7 0"/><path fill="#d2d1d1" d="m639 809 2 3h-2z"/><path fill="#d0d0d0" d="M869 720v3Z"/><path fill="#d0d1d0" d="m400 811 3 1Z"/><path fill="#e6e6e7" d="m84 628 2 1-2 1z"/><path fill="#e8e9ea" d="m84 404 2 1-2 1z"/><path fill="#dedee0" d="m933 344 2 2h-2z"/><path fill="#d4d4d5" d="m143 228 2 2h-2z"/><path fill="#d2d1cf" d="m623 811 2 1Z"/><path fill="#d1d1d0" d="m601 811 2 1Z"/><path fill="#d0d1d0" d="m567 811 2 1Z"/><path fill="#d2d1d1" d="m433 811 2 1Z"/><path fill="#d3d2d3" d="m673 809 2 1Z"/><path fill="#cbcdcc" d="m198 801 2 1Z"/><path fill="#cecccd" d="m183 795 2 1Z"/><path fill="#c7c7c7" d="m804 788 2 1Zm2-1 2 1Z"/><path fill="#d0d1d1" d="m132 758 2 1Z"/><path fill="#d6d8d7" d="m886 683 2 1Z"/><path fill="#dadbdb" d="m979 597 2 1Z"/><path fill="#e2e3e3" d="m988 534 2 1Z"/><path fill="#dedfdf" d="m974 387 2 1Z"/><path fill="#dedfe0" d="m927 341 2 1Z"/><path fill="#e5e5e5" d="m898 331 2 1Zm-7-4 2 1Z"/><path fill="#e2e3e3" d="m884 318 2 1Z"/><path fill="#dbdddd" d="m879 301 2 1Z"/><path fill="#d8d8d7" d="m868 278 2 1Z"/><path fill="#d4d6d4" d="m124 246 2 1Z"/><path fill="#d7d8d8" d="m820 225 2 1Z"/><path fill="#e3e3e4" d="m340 190 2 1Z"/><path fill="#e2e2e3" d="m316 190 2 1Z"/></svg>