<svg xmlns="http://www.w3.org/2000/svg" width="1280" height="853"><path fill="#091d1d" d="M438 130c.709.425 1.418.85 2.148 1.29 1.103.66 1.103.66 2.227 1.335l2.672 1.602a2456 2456 0 0 1 6.094 3.671C473.295 151.276 495.477 164.183 519 175l3.168 1.473c8.192 3.778 16.365 7.205 25.047 9.687 3.217.97 6.365 2.098 9.535 3.215C599.169 203.7 650.252 206.365 694 197l3.052-.65c11.72-2.577 23.217-5.938 34.698-9.412l3.172-.959c25.254-7.852 49.768-20.844 72.203-34.729l1.677-1.035q4.278-2.64 8.542-5.3c6.01-3.736 12.05-7.302 18.316-10.59 2.34-1.256 2.34-1.256 4.297-2.813 3.37-2.494 7.155-4.137 10.914-5.969 1.865-.92 3.717-1.866 5.54-2.867 15.17-8.249 33.862-12.221 50.855-7.684A84 84 0 0 1 917 119l2.227 1.047c6.294 3.267 10.328 8.596 14.773 13.953l1.887 1.797C947.865 148.284 954.72 166.839 960 183l1.016 3.02c5.24 16.199 8.567 32.718 10.674 49.59.241 1.857.514 3.71.8 5.56.512 3.847.781 7.632.975 11.508l.114 2.227q.182 3.63.359 7.26l.257 5.141q.27 5.404.534 10.809.333 6.79.676 13.577A7135 7135 0 0 1 977 325l.18 3.903c.963 21.529 1.04 43.061 1.06 64.608.006 5.053.03 10.106.058 15.16.019 3.93.024 7.861.026 11.792q.004 2.799.024 5.598c.017 2.584.015 5.169.008 7.753l.028 2.301c-.049 6.193-1.76 9.182-5.947 13.572L970 452c-2.386 1.946-2.386 1.946-2.227 5.523q.001 2.325.032 4.648l.009 2.564q.011 2.766.036 5.533c.025 2.938.038 5.875.048 8.813.027 7.314.075 14.628.123 21.942q.06 9.23.09 18.461c.014 2.86.039 5.72.064 8.58.067 12.1-.736 23.925-2.175 35.936l-.383 3.354C963.623 584.55 959.776 601.032 953 617l-.922 2.23A193 193 0 0 1 949 626l-.84 1.778c-4.095 8.61-8.397 16.588-14.16 24.222a5302 5302 0 0 0-4.187 5.813c-5.222 7.2-5.222 7.2-7.813 10.187h-2l-.687 1.688c-1.687 2.97-3.843 4.957-6.313 7.312l-2.5 2.563C908 682 908 682 905.313 684.125c-2.505 1.84-2.505 1.84-4.313 4.875h-3l-2 4h-3v2a112 112 0 0 1-6.687 4.875l-2.138 1.456c-5.858 3.92-11.875 7.535-17.987 11.044l-2.564 1.476c-5.231 2.954-10.547 5.548-16.039 7.981a132 132 0 0 0-6.675 3.266c-4.349 2.202-8.862 3.777-13.472 5.34l-2.64.906q-2.646.908-5.293 1.805-3.416 1.162-6.825 2.343c-5.675 1.948-11.298 3.807-17.188 4.985-3.458.726-6.879 1.597-10.304 2.46l-2.11.528a629 629 0 0 0-9.285 2.39c-6.326 1.669-12.587 2.792-19.078 3.618-2.79.396-5.488.878-8.246 1.43-32.43 5.889-65.856 5.745-98.686 5.618a2366 2366 0 0 0-17.872.014c-23.462.077-46.777-.297-70.157-2.379l-2.796-.248C538.81 752.252 520.892 749.416 503 746l-2.949-.546C479.98 741.71 460.07 736.3 441 729l-2.937-1.121c-4.684-1.835-9.294-3.823-13.875-5.899a150 150 0 0 0-4.188-1.804c-19.524-8.172-36.936-20.598-53-34.176l-2.508-2.105C354.481 675.316 345.73 665.665 338 655l-1.543-2.023c-4.219-5.712-7.706-11.777-11.144-17.977l-1.406-2.517c-9.478-17.35-16.225-38.38-18.477-58.006-.313-2.528-.69-4.96-1.172-7.454a162 162 0 0 1-2.84-25.148l-.121-3.261c-.452-13.37-.444-26.743-.431-40.119q.002-5.653-.002-11.305-.003-9.541.006-19.084.007-9.564 0-19.128c-.025-32.676.036-65.348.518-98.02q.044-2.985.083-5.968c.31-22.153 1.455-44.185 3.178-66.27.328-4.295.584-8.59.816-12.892 1.252-22.767 4.04-45.901 10.535-67.828l.66-2.26c3.114-10.59 6.785-20.687 11.34-30.74l1.453-3.477C335.168 148.506 343.476 135.64 354 126h2v-2c23.142-20.93 59.055-8.252 82 6"/><path fill="#eca207" d="M465.276 255.815c2.52-.002 5.041-.02 7.562-.04C501.955 255.671 529.68 264.84 552 284l1.657 1.396C574.31 302.956 589.799 327.481 596 354c.102 2.871.102 2.871 0 5l1.649-.443a4383 4383 0 0 1 7.476-1.995l2.594-.697 2.539-.674 2.317-.618c5.452-1.288 10.732-1.753 16.323-1.811l2.281-.025q2.388-.02 4.776-.032 2.393-.017 4.787-.062c11.376-.211 21.361 1.048 32.258 4.357.103 9.414-.202 18.618-1 28l-2.586-.93c-21.41-6.712-47.257-4.338-67.414 4.93-3.107 1.603-3.107 1.603-3.537 3.885l-.236 2.306-.302 2.588-.3 2.783C594.39 426.252 584.027 447.802 568 468l22 1 1.437 5.875c2.307 7.469 6.017 11.779 11.563 17.125l2.527 2.594c4.346 4.446 8.8 8.709 13.532 12.742a176 176 0 0 1 4.039 3.578l2.09 1.898 1.855 1.708c5.734 4.337 12.06 4.174 18.957 3.48 11.353-2.994 20.83-15.581 28.875-23.5l2.797-2.684c6.93-6.84 11.315-12.944 12.328-22.816 31.424-1.215 63.387 6.958 87.223 28.444 1.822 1.646 1.822 1.646 4.142 3.249 4.074 3.28 6.671 6.152 7.513 11.384.402 4.013.432 7.996.35 12.026-.04 2.528.02 5.041.09 7.569.078 11.725.078 11.725-3.523 15.858-2.682 1.806-2.682 1.806-5.356 3.096-3.16 1.78-4.052 3.012-5.439 6.374-.426 3.169-.441 6.306-.441 9.5l-.04 2.768c-.041 2.91-.063 5.82-.082 8.732q-.034 4.367-.091 8.732-.038 2.714-.044 5.426c-.074 6.003-.508 9.958-4.802 14.467-10.54 8.127-27.07 6.517-39.464 5.016-19.07-2.95-37.643-9.867-53.036-21.641l-2.59-1.926c-15.838-12.177-28.585-27.588-33.832-47.14-.408-1.922-.408-1.922-1.578-2.934l-.445 1.984c-5.687 23.139-22.636 42.439-42.696 54.746q-1.926 1.14-3.859 2.27l-1.975 1.178C568.515 610.862 541.997 618.71 517 619l-2.86.058c-40.59.762-78.99-6.37-109.453-35.464L402 581c-.68-.63-1.361-1.258-2.063-1.906-11.606-10.985-21.665-27.703-22.18-43.922-.045-4.397.066-8.779.243-13.172 3.529 1.654 6.721 3.711 10 5.812 14.82 9.285 29.848 12.636 47.219 9.008 13.879-4.093 27.623-12.525 37.781-22.82l-2.221-.012c-38.94-.38-70.122-10.96-98.404-38.3-5.38-5.488-9.991-11.385-14.375-17.688l-1.417-2.005C344.705 438.79 336.345 417.055 336 396l-.058-2.288C335.402 370.569 338.08 347.8 349 327l1.738-3.531C365.09 294.809 390.796 272.686 421 262a246 246 0 0 1 9.25-2.813l2.183-.627c10.793-2.915 21.745-2.746 32.843-2.745"/><path fill="#697f80" d="m900 117 1 3h5v-2c3.552.609 6.733 1.457 10 3l1 2a568 568 0 0 0 4 2c2.787 2.2 5.383 4.603 8 7l2.563 2.313c8.012 8.834 14.126 19.6 18.437 30.687a757 757 0 0 0 1.938 4.125c1.948 4.33 3.207 8.695 4.351 13.297.667 2.64.667 2.64 1.86 5.281L959 190l-1 2h2l.313 3.5c.364 2.98.973 5.482 2.125 8.25 1.745 4.321 2.403 8.653 3.093 13.246.418 2.68.946 5.295 1.532 7.941.979 4.752 1.335 9.462 1.593 14.301.3 3.272.768 6.426 1.305 9.664 1.224 7.76 1.726 15.516 2.164 23.348l.13 2.201c.547 9.325.9 18.605.745 27.947 0 5.172.424 10.281.879 15.43.113 2.95-.156 5.324-.879 8.172l-3.332-.437-4.48-.563c-.72-.095-1.438-.19-2.178-.29a99 99 0 0 0-12.81-.737l-2.962.012L945 324q-.43-10.861-.854-21.722l-.292-7.382q-.21-5.321-.417-10.642l-.132-3.306c-.65-16.908-.65-16.908.672-24.71.148-2.325.148-2.325-.832-4.738-1.69-5.167-2.306-10.443-3.082-15.812q-.532-3.532-1.067-7.063c-.936-6.224-.936-6.224-1.374-9.16-3.41-22.448-9.19-52.927-27.622-67.902-6.156-3.14-14.199-2.669-20.672-.786-7.513 3.45-13.96 9.022-20.328 14.223l-1.59 1.29c-9.551 7.785-18.513 16.192-27.41 24.71l-1.684 1.597a536 536 0 0 0-4.441 4.278l-2.445 2.367L829 202l-1.521 1.692c-5.559 7.069-5.342 14.26-5.284 22.843q-.017 2.235-.041 4.468c-.036 3.891-.037 7.782-.03 11.674.001 3.982-.032 7.964-.062 11.946A2974 2974 0 0 0 822 278l3-1c21.869-2.38 52.775-5.216 71 9l1 3 1.848.918c6.84 3.44 10.579 13.237 12.943 20.095 5.332 16.904 5.908 34.027 5.771 51.612l-.013 3.603c-.138 25.895-1.89 50.916-15.858 73.538-1.88 2.963-1.88 2.963-1.64 5.515 1.128 2.043 2.22 2.899 4.136 4.219 4.947 3.994 7.758 9.55 9.813 15.5-.451 3.113-1.528 5.007-3.484 7.434l-1.566 1.947-1.7 2.057-1.755 2.134C893.887 491.485 881.01 505.738 862 508c-3.813.166-7.62.185-11.437.188l-3.006.037c-8.312.016-16.353-.968-24.557-2.225l-2.153-.317a486 486 0 0 1-13.7-2.22 224 224 0 0 0-4.685-.752c-10.777-1.625-17.385-4.16-24.96-12.106-4.949-5.154-11.25-8.272-17.502-11.605-.591-.32-1.182-.64-1.792-.968-12.726-6.758-26.824-11.058-41.072-13.102-9.61-1.413-9.61-1.413-12.636-5.118-1.223-2.14-1.223-2.14-2.5-4.812l-1.871-3.484C690.973 434.225 681.352 413.899 681 394l-.042-2.132c-.473-28.295-.473-28.295 3.042-37.868 6.209 6.026 11.408 12.409 16.25 19.563l1.323 1.93c3.59 5.392 5.263 10.547 6.552 16.882 5.047 20.162 18.219 35.916 35.657 46.73A132.6 132.6 0 0 0 773 452l2.403.74c13.914 4.06 27.704 4.758 42.097 4.822.847.01 1.695.018 2.568.027 20.786.148 39.104-3.968 54.315-18.944L877 436l1.805-1.738c17.744-18.56 21.396-49.967 21.383-74.262l.001-3.587c-.055-9.26-.745-18.272-2.189-27.413 2.098 2.098 2.65 3.38 3.625 6.125.26.724.52 1.449.79 2.195L903 339c-1.643-5.245-3.45-10.114-6-15l-1.375-3.562c-1.775-3.756-3.566-5.657-6.625-8.438l-1.457-1.687c-5.812-6.561-13.91-10.06-22.543-11.313-12.147-.663-23.746.495-35.701 2.603-2.016.348-4.04.652-6.065.948-33.527 5.334-65.98 19.902-95.906 35.332-9.61 4.948-18.807 8.01-29.738 5.582-3.132-1.04-5.196-1.89-7.09-4.652L690 337h-2l-2 4h-2c-1.336-18.14 7.504-33.274 18.375-47.187l1.397-1.793c2.228-2.784 4.395-5.167 7.083-7.536 6.549-5.858 8.013-10.623 8.582-19.109.161-3.072.292-6.143.408-9.216.257-5.226.843-10.404 1.467-15.596l.375-3.13C723.728 221.37 727.133 205.45 732 190l-3-2 2.86-.918c8.218-2.668 16.236-5.57 24.14-9.082l3.27-1.45c16.396-7.465 32.533-15.817 47.855-25.3l1.677-1.035q4.278-2.64 8.542-5.3c6.01-3.736 12.05-7.302 18.316-10.59 2.338-1.254 2.338-1.254 4.281-2.805 2.513-1.855 5.13-3.15 7.934-4.52l3.055-1.5L854 124l3.203-1.687C860.43 120.798 862.47 121 866 121c1.328-.456 2.64-.96 3.938-1.5 3.836-1.562 6.902-1.573 11.062-1.5q2.166-.489 4.313-1.062c5.041-1.244 9.602-.724 14.687.062"/><path fill="#f1d595" d="m590 469 .73 2.661 1.012 3.515.98 3.474c2.141 5.614 6.017 9.243 10.278 13.35l2.527 2.594c4.346 4.446 8.8 8.709 13.532 12.742a176 176 0 0 1 4.039 3.578l2.09 1.899 1.855 1.707c5.734 4.337 12.06 4.174 18.957 3.48 11.353-2.994 20.83-15.581 28.875-23.5l2.797-2.684c6.93-6.84 11.315-12.944 12.328-22.816 31.424-1.215 63.387 6.958 87.223 28.444 1.822 1.646 1.822 1.646 4.142 3.249 4.074 3.28 6.671 6.152 7.513 11.384.402 4.013.432 7.996.35 12.026-.04 2.528.02 5.041.09 7.569.078 11.725.078 11.725-3.523 15.858-2.682 1.806-2.682 1.806-5.356 3.096-3.16 1.78-4.052 3.012-5.439 6.374-.426 3.169-.441 6.306-.441 9.5l-.04 2.768c-.041 2.91-.063 5.82-.082 8.732q-.034 4.367-.091 8.732-.038 2.714-.044 5.426c-.074 6.003-.508 9.958-4.802 14.467-10.54 8.127-27.07 6.517-39.464 5.016-19.07-2.95-37.643-9.867-53.036-21.641l-2.59-1.926c-15.838-12.177-28.585-27.588-33.832-47.14-.408-1.922-.408-1.922-1.578-2.934l-.445 1.984c-5.687 23.139-22.636 42.439-42.696 54.746q-1.926 1.14-3.859 2.27l-1.975 1.178C568.515 610.862 541.997 618.71 517 619l-2.86.058c-40.59.762-78.99-6.37-109.452-35.464L402 581l-2.062-1.906c-11.607-10.985-21.666-27.703-22.18-43.922-.046-4.397.065-8.779.242-13.172 3.529 1.654 6.721 3.711 10 5.813 14.82 9.284 29.848 12.635 47.219 9.007 15.272-4.504 28.487-13.957 40.031-24.633C508.328 481.825 545.192 467.738 590 469"/><path fill="#efda9f" d="M527.098 319.535C542.453 331.96 553.93 352.418 556 372c1.509 21.07-1.525 38.675-12 57l-1.652 3.02c-11.158 19.07-31.953 32.76-53.035 38.355-7.506 1.775-15 2.011-22.688 2.063l-3.276.03c-7.224-.078-13.478-1.307-20.349-3.468q-2.467-.663-4.937-1.312c-20.273-6.246-37.72-21.354-48.034-39.739-1.824-3.455-3.438-6.98-4.966-10.574l-.857-1.987c-4.019-10.047-4.574-20.617-4.519-31.325l.018-3.466c.114-7.952.577-15.06 3.295-22.597l1.219-3.422c8.451-21.504 24.494-38.299 45.3-48.113 34.12-14.36 68.322-8.341 97.579 13.07"/><path fill="#1e373c" d="M949 467h1c.062 14.758-.089 29.511-.317 44.268q-.058 3.84-.105 7.682c-.164 13.318-.462 26.595-1.476 39.878l-.225 3.045c-.726 8.6-2.764 16.086-5.877 24.127a881 881 0 0 0-1.344 3.883c-3.151 8.86-7.621 15.885-13.656 23.117l-2.46 3.105C914.548 628.543 902.643 639.318 890 649a2085 2085 0 0 0-3.941 3.133C865.909 668.113 844.608 681.776 822 694l-1.93 1.063c-23.815 13.033-57.434 26.9-85.289 21.289-8.354-2.469-14.668-6.494-19.218-14.04-2.498-5.295-2.758-9.914-2.836-15.722l-.038-2.522q-.046-4.065-.064-8.13l-.014-2.786c-.067-37.596-.067-37.596 8.389-52.152l2.613.219C749.5 623.329 749.5 623.329 774 616c2.125 0 2.125 0 4 1l1.938 2.438c3.042 3.78 5.52 4.38 10.25 4.937 4.276-.42 7.485-1.665 11.382-3.402 4.165-1.668 7.12-2.255 11.43-.973 5.708.644 8.946.202 13.785-3.055 4.234-1.807 9.048-1.495 13.594-1.574 3.884-.398 6.248-1.47 9.621-3.371l3-1 9 23 6-4c-.642-5.135-1.683-9.994-3-15l2.02-1.617C883.117 600.369 895.533 588.022 904 569l.988-2.133c5.352-12.68 5.586-26.807 6.278-40.344.882-16.223.882-16.223 6.797-22.273 4.926-5.21 9.432-10.675 13.937-16.25q2.28-2.783 4.563-5.562a795 795 0 0 0 10.906-13.637z"/><path fill="#2e474c" d="M904 157c8.337 3.687 12.948 12.108 16.188 20.25.976 2.57 1.903 5.155 2.812 7.75l1.086 3.012c5.615 16.822 8.174 34.43 10.164 51.988l.251 2.204c.554 4.928 1.05 9.858 1.499 14.796l.328 3.584c1.065 13.945.78 27.94.735 41.916l-.014 8.02q-.017 9.74-.049 19.48l2.627.164a338 338 0 0 1 23.748 2.399l5.686.769L974 334q.25 9.157.482 18.317.08 3.117.166 6.236.122 4.47.23 8.943l.083 2.835.06 2.608.061 2.308C975 377 975 377 974 378l2 2c.24 1.873.24 1.873.227 4.174v2.609l-.032 2.819-.008 2.883a1962 1962 0 0 1-.062 9.14q-.016 3.093-.027 6.188-.035 7.594-.098 15.187l-3.884.955-5.132 1.299c-.84.205-1.682.41-2.549.623-17.802 4.554-31.875 17.783-43.236 31.768C920 459 920 459 918 460l-.883-1.977c-2.059-4.39-3.835-8.08-7.492-11.336L907 444c.302-3.665 1.627-6.55 3.25-9.812 3.341-7.175 5.59-14.591 7.75-22.188l.91-3.14c8.862-34.023 8.932-83.02-8.363-114.356-6.375-10.318-14.403-17.916-26.525-20.895-12.88-2.597-25.991-2.978-39.085-3.234l-4.97-.117q-5.983-.141-11.967-.258a3333 3333 0 0 1-.22-23.114q-.03-3.93-.082-7.86c-.048-3.77-.071-7.54-.089-11.311l-.062-3.536c-.002-7.822 1.04-12.084 6.094-18.148l1.609-1.531 1.828-1.75c2.613-2.379 5.277-4.694 7.953-7 1.9-1.688 3.69-3.438 5.469-5.25 3.663-3.712 7.544-7.105 11.5-10.5l3.27-2.863c6.652-5.804 13.315-11.315 20.73-16.137l1.781-1.309c5.092-3.47 10.308-3.543 16.219-2.691"/><path fill="#0b1a19" d="m537 304 1.777 1.34c18.452 14.536 31.974 39.659 34.942 62.832 2.312 31.471-3.73 59.616-24.373 84.271C536.975 466.753 520.939 477.821 503 484l-1.934.712c-5.716 2.03-11.312 3.171-17.316 3.976l-2.815.377c-20.27 2.583-40.418-.278-58.935-9.065l-2.676-1.18C398.427 469.155 382.227 452.424 372 432l-1.297-2.309c-2.844-5.205-4.747-10.532-6.453-16.191l-.639-2.084c-2.673-9.302-2.792-18.735-2.798-28.353l-.038-3.053c-.05-26.43 12.362-51.38 30.725-69.947 5.093-5.007 10.437-9.266 16.5-13.063l2.008-1.352c5.368-3.542 11.073-6.158 16.992-8.648.842-.362 1.684-.724 2.55-1.098 36.231-14.459 77.4-5.006 107.45 18.098m-136.42 23.508C382.704 347.791 378.747 370.698 380 397c1.682 21.179 13.703 40.663 29.296 54.576 7.537 6.3 16.334 12.329 25.704 15.424l1.806.636c21.34 7.327 45.773 7.191 66.396-2.32C527.32 453.507 544.147 435.29 553 410c5.368-17.308 4.797-36.915-1-54l-1.062-3.187c-8.367-22.312-26.216-37.009-46.973-47.32-34.99-15.73-77.51-5.47-103.385 22.015"/><path fill="#021414" d="M500.805 340.664c8.832 6.008 15.135 13.45 19.195 23.336l.906 2.055c4.91 13.137 3.229 30.86-2.093 43.57-5.134 10.475-12.153 18.371-23.18 22.695-10.832 3.39-21.059 4.367-31.633-.32-11.58-6.416-18.792-16.466-22.973-28.89-4.034-14.938-3.61-31.274 3.551-45.173 5.712-9.467 13.03-17.405 23.684-21.054 10.827-2.557 22.889-1.947 32.543 3.781"/><path fill="#bd2601" d="M824.375 341.25A135 135 0 0 1 829 345l2.18 1.809c7.182 6.518 12.492 15.712 12.988 25.511.082 15.917-2.801 26.954-13.918 39.118-9.38 8.767-21.518 12.281-34.07 11.937-12.206-.783-21.747-7.538-29.93-16.125-9.85-11.73-10.439-25.653-9.25-40.25 2.19-10.878 9.99-19.334 18.55-25.98 14.941-9.65 33.935-9.765 48.825.23"/><path fill="#486266" d="M793 633c-1.27 4.29-2.885 7.667-5.375 11.375-4.949 7.63-8.276 13.428-8.625 22.625l-.156 2.816c-.205 6.531.637 12.134 2.5 18.395.71 3.015.765 5.702.656 8.789-9.595 3.077-18.784 5.544-28.828 6.64-3.763.427-7.328 1.135-10.985 2.11-4.412.346-7.141-1.006-11.187-2.75l-1 2-1.645-.91-2.168-1.153-2.144-1.16c-2.19-1.08-2.19-1.08-5.043.223l-2 2c-3.813-5.969-4.175-10.653-4.238-17.656l-.025-2.597q-.02-2.734-.032-5.467-.018-2.738-.062-5.474c-.22-13.436 1.236-25.735 4.357-38.806 6.875.875 6.875.875 8 2 2.988.114 5.952.164 8.941.168l2.773.01q2.928.007 5.854.007c2.93.002 5.86.02 8.79.04 13.962.041 28.029-3.528 41.642-3.225"/><path fill="#233b40" d="M881.375 303.813c3.44 2.867 6.565 5.92 9.625 9.187l1.672 1.727c3.789 4.108 5.657 7.98 7.328 13.273l1.063 2.625c1.088 2.759 2.019 5.555 2.937 8.375l-2 1-3-8 .438 2.113c4.74 26.959 1.927 56.492-8.438 81.887h-2c.673-3.815 1.754-7.336 3-11q1.017-3.495 2-7l1.063-3.25c1.014-4.06 1.399-7.937 1.69-12.102.247-2.648.247-2.648.735-4.996 2.922-15.141 1.773-31.707-1.488-46.652l-9 1c-1.339 2.929-1.339 2.929 0 5.438 1.118 2.865.867 3.725 0 6.562l-1.39-3.727-1.86-4.898-.91-2.45c-2.589-6.774-4.903-12.576-11.84-15.738l-2.562-1.207C841.929 305.318 800.897 321.19 776 331l-2.644 1.042c-12.778 5.088-25.263 10.649-37.543 16.847-12.303 6.1-26.387 11.429-40.208 7.416-5.228-2.711-8.818-7.282-10.918-12.68L684 341a91 91 0 0 1 4-4h2l1.75 1.875c4.681 4.421 9.95 4.368 16.078 4.488 7.961-.912 15.164-4.052 22.297-7.55l2.504-1.202c3.753-1.81 7.483-3.653 11.172-5.591C773.278 313.58 806.04 303.317 839 299l2.125-.302c14.013-1.918 27.527-1.718 40.25 5.115M896 327l1 3Z"/><path fill="#e83801" d="m798.75 350.688 2.173.012c7.91.17 13.905 2.202 20.077 7.3 6.765 8.48 9.104 16.165 8 27-2.223 8.504-7.947 15.518-15.437 20-7.409 3.33-16.552 3.49-24.31 1.184-6.908-3.437-13.03-9.854-16.253-16.872-2.488-8.286-2.085-16.944 1.438-24.812 3.14-5.593 6.9-8.638 12.562-11.5l1.79-1.129c3.268-1.288 6.498-1.21 9.96-1.183"/><path fill="#000312" d="m974 441 3 1c-.577 3.896-2.404 6.107-5 9l-2.11 1.135c-2.27 1.856-2.27 1.856-2.358 5.508a182 182 0 0 0 .046 4.642l.008 2.564c.013 2.81.054 5.619.094 8.428q.019 2.95.031 5.897c.027 5.196.076 10.391.13 15.587.087 8.254.147 16.508.193 24.762.02 2.855.054 5.71.09 8.566.11 12.097-.679 23.903-2.124 35.911l-.383 3.354C963.625 584.55 959.775 601.033 953 617l-.922 2.23A193 193 0 0 1 949 626l-.84 1.778c-4.095 8.61-8.397 16.588-14.16 24.222a5302 5302 0 0 0-4.187 5.813c-5.222 7.2-5.222 7.2-7.813 10.187h-2l-.687 1.688c-1.687 2.97-3.843 4.957-6.313 7.312l-2.5 2.563C908 682 908 682 905.313 684.125c-2.505 1.84-2.505 1.84-4.313 4.875h-3l-2 4h-3v2a112 112 0 0 1-6.687 4.875l-2.138 1.456c-5.858 3.92-11.875 7.535-17.987 11.044l-2.564 1.476c-5.231 2.954-10.547 5.548-16.039 7.981a132 132 0 0 0-6.675 3.266c-4.349 2.202-8.862 3.777-13.472 5.34l-2.64.906q-2.646.908-5.293 1.805-3.416 1.162-6.825 2.343c-5.675 1.948-11.298 3.807-17.188 4.985-3.458.726-6.879 1.597-10.304 2.46l-2.11.528a629 629 0 0 0-9.285 2.39c-6.326 1.669-12.587 2.792-19.078 3.618-2.79.396-5.488.878-8.246 1.43-32.43 5.889-65.856 5.745-98.686 5.618a2366 2366 0 0 0-17.872.014c-23.462.077-46.777-.297-70.157-2.379l-2.796-.248C538.81 752.252 520.892 749.416 503 746l-2.949-.546C479.98 741.71 460.07 736.3 441 729l-2.937-1.121c-4.684-1.835-9.294-3.823-13.875-5.899a150 150 0 0 0-4.188-1.804c-19.524-8.172-36.936-20.598-53-34.176l-2.508-2.105C354.481 675.316 345.73 665.665 338 655l-1.543-2.023c-4.219-5.712-7.706-11.777-11.144-17.977l-1.406-2.517C319.181 623.831 315.64 615.91 315 606c3.008 3.504 4.486 7.436 6.125 11.688 6.993 17.423 16.156 32.86 28.75 46.827C351 666 351 666 351 668h2c1.375 1.434 1.375 1.434 3 3.438 14.905 17.497 34.931 29.876 55 40.562l3.453 1.871C465.003 740.305 524.786 748.41 581 752l3.722.27c17.332 1.16 34.73.928 52.09.918h2.569c37.347-.005 37.347-.005 74.619-2.188l3.518-.309c7.525-.698 15.002-1.62 22.482-2.691l3.72-.527c17.362-2.511 34.358-5.808 51.28-10.473l2.97-.788c15.6-4.144 30.295-9.639 45.03-16.212l2.458-1.083c13.562-6.006 25.974-13.49 38.37-21.605C886 696 886 696 889 695v-2c2.082-1.691 2.082-1.691 4.813-3.562l2.707-1.88C899 686 899 686 902 685q1.019-1.99 2-4c1.77-1.71 1.77-1.71 3.813-3.375 3.527-2.98 6.298-6.034 9.187-9.625l2.5-2.437c2.036-2.087 3.557-3.994 5.188-6.375L927 656h2l.7-2.016c1.672-3.838 3.855-7.217 6.112-10.734a2703 2703 0 0 0 4.015-6.378C944.084 630.077 947 623.793 949 616h2l.313-2.5c.628-3.2 1.623-5.97 2.8-8.996C967.196 567.562 966.331 525 964.5 486.352q-.186-4.389-.367-8.778-.135-2.988-.31-5.973a418 418 0 0 1-.385-8.812l-.192-2.674c-.097-3.903-.083-6.17 2.575-9.172 2.214-1.867 2.214-1.867 4.449-3.463L972 446v-3z"/><path fill="#051717" d="M345 438h3l1.18 2.57c14.318 30.023 38.487 51.368 68.82 64.43l2.398 1.059C437.814 512.36 455.693 512.9 474 513c-4.77 5.868-9.68 9.852-16 14l-2.105 1.586c-3.48 2.514-5.767 3.758-10.102 3.144l-2.391-.334C420.726 527.657 399.465 519.326 382 504l-1.564-1.338c-17.486-15.041-32.487-36.486-37.221-59.474L343 440z"/><path fill="#d0ba81" d="M527.098 319.535C538.534 328.79 548.904 343.858 553 358c-.367 2.863-.367 2.863-1 5-2.738-2.48-4.49-5.25-6.437-8.375-14.086-21.386-33.968-36.316-58.868-42.437-24.124-4.42-47.839.242-68.18 13.945-17.373 12.895-31.548 32.435-34.88 54.262-.406 3.29-.754 6.575-1.004 9.88-.15 1.914-.383 3.821-.631 5.725l-2 1c-.632-28.93-.632-28.93 3-39l1.219-3.422c8.451-21.504 24.494-38.299 45.3-48.113 34.12-14.36 68.322-8.341 97.579 13.07"/><path fill="#f9ad06" d="m639.188 352.5 2.301-.031c11.074-.119 20.9 1.365 31.511 4.531.103 9.414-.202 18.618-1 28l-2.586-.93c-16.833-5.277-41.632-6.13-57.8 1.535C608 387 608 387 599 387l-2-27c12.734-7.64 27.737-7.416 42.188-7.5"/><path fill="#c4c9bf" d="M898 329c2.483 2.483 2.742 4.23 3.563 7.625l.753 3.04c6.246 30.478 2.5 67.827-14.316 94.335-12.177 16.971-27.225 26.799-47.693 30.645-6.688 1.029-13.435.901-20.182.793l-2.38-.021c-11.79-.106-23.241-.644-34.745-3.417l-2.218-.504c-28.918-6.695-53.693-21.064-69.669-46.5-3.983-7.121-4.888-12.9-4.113-20.996 2.576 2.576 3.344 5.113 4.688 8.5 2.683 6.48 5.93 11.99 10.312 17.5l1.695 2.227C732.323 432.797 744.552 440.69 757 446l3.457 1.516c18.49 7.744 37.162 9.957 57.043 10.046.847.01 1.695.018 2.568.027 20.786.148 39.104-3.968 54.315-18.944L877 436l1.805-1.738c17.744-18.56 21.396-49.967 21.383-74.262l.001-3.587c-.055-9.26-.745-18.272-2.189-27.413"/><path fill="#294247" d="M976 430c.29 8.708.29 8.708-2 12-1.883.688-1.883.688-4.125 1-10.685 2.01-19.49 8.721-26.375 17l-2.5 3h-2l-.83 1.795c-1.128 2.126-2.3 3.696-3.893 5.49l-1.617 1.84-1.722 1.938c-3.917 4.447-7.76 8.912-11.438 13.562-12.321 15.104-26.714 28.113-45.5 34.375-2.228.07-4.458.085-6.687.063l-3.575-.028L861 522c-1.43-2.354-2.087-3.48-1.625-6.25L860 514l2.387-.41c23.759-4.696 39.178-21.901 53.44-40.253C950.334 428.952 950.334 428.952 976 430"/><path fill="#faebb7" d="M590 469v6h-1v-5l-11 1v1l-3.625.375c-3.671.456-6.874 1.41-10.375 2.625q-2.026.494-4.062.938l-2.34.515c-1.842.388-3.69.75-5.54 1.094-8.01 1.612-14.78 4.411-22.038 8.027C527 487 527 487 525 487v2l-1.812.313c-2.242.516-2.242.516-3.614 2.132C518 493 518 493 514.625 494.563c-7.132 3.435-13.151 8.864-19.306 13.78-46.14 36.823-46.14 36.823-75.069 36.844l-2.594.038c-16.039.036-26.409-6.213-37.656-17.225l-1 6h-1v-12c3.524 1.762 6.689 3.69 10 5.813 14.82 9.284 29.848 12.635 47.219 9.007 15.272-4.504 28.487-13.957 40.031-24.633C508.328 481.825 545.192 467.738 590 469"/><path fill="#102423" d="M633.482 459.917c3.923-.08 7.845-.128 11.768-.167l3.838-.065c9.47-.033 19.622.11 27.162 6.502L679 469c-.125 2.25-.125 2.25-1 5-6.94 6.073-15.832 6.306-24.645 6.23h-2.7q-2.81-.006-5.62-.024c-2.83-.018-5.66-.02-8.49-.02-28.41-.05-28.41-.05-33.545-5.186-.375-2.75-.375-2.75 0-6 3.713-4.695 8.1-7.51 14.031-8.512 5.485-.278 10.962-.44 16.451-.57"/><path fill="#738888" d="m904 157 3 2v2l-3.367 1.688C895.027 167.072 887.223 171.5 880 178l-2.543 2.254a717 717 0 0 0-5.098 4.601 344 344 0 0 1-6.234 5.52c-7.81 6.823-15.43 13.841-22.812 21.125l-1.568 1.528c-3.901 3.892-4.855 6.487-4.95 11.902l-.06 3.033-.051 3.267-.063 3.35q-.098 5.304-.183 10.607l-.131 7.186q-.161 8.814-.307 17.627h-8a3333 3333 0 0 1-.22-23.114q-.03-3.93-.082-7.86c-.048-3.77-.071-7.54-.089-11.311l-.062-3.536c-.002-7.822 1.04-12.084 6.094-18.148l1.609-1.531 1.828-1.75c2.613-2.379 5.277-4.694 7.953-7 1.9-1.688 3.69-3.438 5.469-5.25 3.663-3.712 7.544-7.105 11.5-10.5l3.27-2.863c6.652-5.804 13.315-11.315 20.73-16.137l1.781-1.309c5.006-3.412 10.384-3.49 16.219-2.691"/><path fill="#f6da55" d="M465.276 255.815c2.52-.002 5.041-.02 7.562-.04 12.643-.045 24.561.987 36.662 4.912l2.425.772c7.181 2.386 13.611 5.619 20.075 9.541-2.891 1.446-4.87.614-8 0l-2.184-.36c-4.515-1.026-8.828-2.687-13.168-4.292-13.561-4.735-27.58-5.934-41.836-5.848l-2.288.003c-13.002.054-25.095 1.468-37.524 5.497-1.23.396-2.46.791-3.727 1.2-3.169 1.137-6.209 2.406-9.273 3.8l-3.402 1.52C393.092 280.78 377.286 293.195 366 309l-2.172 3.035c-15.95 23.137-22.868 49.79-23.45 77.617-.117 4.53-.232 8.237-2.378 12.348h-1c-4.968-24.246.611-53.307 12-75l1.738-3.531C365.09 294.809 390.796 272.686 421 262a246 246 0 0 1 9.25-2.813l2.183-.627c10.793-2.915 21.745-2.746 32.843-2.745"/><path fill="#e0c127" d="M575 407c1.582 3.975.37 7.3-.875 11.188l-.677 2.118c-9.528 28.213-30.71 50.19-56.573 64.194l-2.187 1.223c-5.188 2.796-9.922 4.213-15.688 5.277l-3.36.77c-9.137 2.033-17.704 2.706-27.077 2.605l-2.046-.013c-29.39-.22-53.571-10.757-75.52-30.284-1.888-1.965-2.957-3.582-3.997-6.078h-2c-1.945-2.23-1.945-2.23-4.125-5.187l-2.195-2.918c-1.75-3.016-2.066-4.486-1.68-7.895a96 96 0 0 1 8.639 9.504C397.877 466.783 413.74 476.387 432 483l2.143.783c25.089 8.804 54.68 6.854 78.619-4.533 28.453-14.18 47.057-36.685 57.355-66.61L571 410h4z"/><path fill="#d9dbd3" d="M737 189c1.178 3.68 1 7.164 1 11l1 3c-.696 1.921-1.4 3.84-2.168 5.734-1.128 3.071-1.766 6.18-2.402 9.383C734 220 734 220 733 222l1 3c-.371 1.879-.371 1.879-1 4a358 358 0 0 0-1.062 4.938l-.536 2.527c-.482 2.54-.482 2.54-.336 5.164C731 244 731 244 729 247l1 3-1 3.375c-1.018 3.69-.756 5.034 0 8.625l-.926 2.281c-1.162 2.941-1.448 5.456-1.761 8.594-.86 5.367-2.086 7.636-6.133 11.121C707.49 295.661 693.6 316.01 690 333h-5v6h-1c-1.532-16.984 8.259-32.24 18.375-45.187l1.397-1.793c2.228-2.784 4.395-5.167 7.083-7.536 6.549-5.858 8.013-10.623 8.582-19.109.161-3.072.292-6.143.408-9.216.257-5.226.843-10.404 1.467-15.596l.373-3.12c1.67-13.176 4.293-26.256 7.784-39.072.22-.817.442-1.633.67-2.475L731 194l3-1 1-2h2z"/><path fill="#031617" d="M835 627c2.49 4.848 2.473 9.608 2.563 14.938l.15 2.67c.099 6.27.099 6.27-1.99 9.157-1.817 1.624-3.665 2.93-5.723 4.235l-2.182 1.439a239 239 0 0 1-6.943 4.249l-2.379 1.431a891 891 0 0 1-4.517 2.698c-1.646.984-3.272 2-4.893 3.023C807 672 807 672 804.75 671.875 803 671 803 671 802 668c-.746-6.69.199-12.95 1.75-19.437l.475-2.08c1.102-4.283 2.203-6.85 5.775-9.483 2.935-1.537 5.946-2.842 9-4.125l4.813-2.07c1.061-.45 1.061-.45 2.144-.907 2.074-.88 2.074-.88 4.117-2.01C832 627 832 627 835 627"/><path fill="#b1bbb5" d="M820 221h1v57l4-1c8.332-.878 16.69-1.098 25.063-1.125l2.414-.014c4.285.011 8.302.288 12.523 1.139l-1 2 5 1v1l-2.532.152q-4.758.29-9.516.593-3.03.188-6.057.368c-12.602.807-24.967 2.509-37.332 5.075l-3.07.636c-9.245 1.991-18.228 4.652-27.231 7.528-5.377 1.716-10.807 3.204-16.262 4.648v2l-1.617.58c-2.463.884-4.923 1.777-7.383 2.67l-2.543.91c-4.733 1.725-9.229 3.612-13.668 6-1.913.898-3.728 1.387-5.789 1.84l-2.25.563L732 315v2l-9-1v-2c5.28-5.06 11.875-8.155 18.438-11.187l2.697-1.288c4.905-2.303 9.782-4.289 14.962-5.885 2.156-.676 2.156-.676 5.028-2.202 3.22-1.61 6.413-2.476 9.875-3.438l2.063-1.062c2.591-1.255 5.095-1.532 7.937-1.938 3.535-.665 7.008-1.481 10.492-2.375l3.137-.797a3835 3835 0 0 0 6.469-1.656l3.144-.797 2.84-.727c3.271-.726 6.6-1.174 9.918-1.648z"/><path fill="#112744" d="m917 119 2.227 1.047c6.294 3.267 10.328 8.596 14.773 13.953l1.887 1.797C947.865 148.284 954.72 166.839 960 183l1.016 3.02c5.24 16.199 8.567 32.718 10.674 49.59.239 1.842.512 3.68.8 5.513.54 4.107.805 8.156.99 12.29l.12 2.457q.19 3.985.373 7.97l.264 5.552q.347 7.283.686 14.564.349 7.44.704 14.882.691 14.58 1.373 29.162-5.563-.716-11.125-1.437l-3.172-.409c-4.917-.638-9.82-1.284-14.703-2.154v-1c5.879-.16 11.234.39 17 1.5l2.348.434q2.827.525 5.652 1.066c.1-6.2.03-12.32-.5-18.5-.34-4-.546-7.924-.5-11.937.134-16.869-.725-34.082-3.535-50.735-.471-2.867-.71-5.68-.903-8.578-.363-4.566-.985-8.927-1.96-13.398a214 214 0 0 1-1.329-6.891l-.387-2.165a694 694 0 0 1-.745-4.264c-.636-3.525-1.522-6.362-3.141-9.532-.246-2.7-.09-5.28 0-8h-2l-.312-2.5c-.634-3.227-1.59-6.089-2.797-9.14-1.468-3.887-2.678-7.86-3.926-11.82-.812-2.66-.812-2.66-2.965-4.54a398 398 0 0 1-2.137-5.832c-.857-2.152-1.87-4.053-3.05-6.043C941 149 941 149 941 147l-2-1-1.312-2.25c-1.893-3.084-4.102-5.225-6.688-7.75q-1.36-1.644-2.687-3.312L926 130h-2l-2-3c-1.375-1.709-1.375-1.709-3-3h-3v-3l-2.187-.375c-2.77-.615-5.21-1.51-7.813-2.625v2h-5l-1-2c-7.112-1.782-15.39-1.305-22 2v-2l-2.484.91c-1.078.38-2.156.76-3.266 1.153l-3.234 1.16c-2.939.757-4.24.849-7.016-.223 12.436-12.436 40.929-8.858 55-2"/><path fill="#304441" d="M614.383 599.25c2.607.747 5.006 1.67 7.492 2.75 12.088 4.914 24.801 3.535 37.125 0l3-2c6.11-.546 6.11-.546 8.938 1.188 1.494 2.548 1.63 3.906 1.062 6.812-3.399 3.146-6.785 4.973-11.062 6.688l-3.098 1.261c-6.172 2.284-11.862 2.304-18.403 2.364l-3.134.087c-9.856.08-18.444-2.355-26.303-8.4l-2-2c.188-3.5.188-3.5 1-7 3-2 3-2 5.383-1.75"/><path fill="#d4bd85" d="M686 485c1 3 1 3 .031 5.348-8.934 15.84-19.67 31.89-38.125 37.261-7.061 1.447-12.72-.268-18.906-3.609-8.08-5.494-14.118-12.274-20-20l-1.926-2.371-1.699-2.129-1.477-1.844L603 496l1-3 1.688 1.723c4.312 4.363 8.671 8.592 13.335 12.578a184 184 0 0 1 4.079 3.617l2.086 1.894 1.855 1.708c5.734 4.337 12.06 4.174 18.957 3.48 9.179-2.42 16.047-11.02 22.5-17.52l2.428-2.444a931 931 0 0 0 4.827-4.915l2.268-2.305 2.03-2.08c1.902-1.696 3.62-2.724 5.947-3.736"/><path fill="#bec3b8" d="M684 354c4.706 4.224 4.706 4.224 5.875 7.313.125 2.687.125 2.687-.348 6.214-3.991 30.853 5.898 58.319 19.558 85.42C710 455 710 455 710 457l-2 1v2l2 2c-1.758-.11-1.758-.11-4-1a54.5 54.5 0 0 1-3.875-6.25l-1.048-1.904c-3.334-6.142-6.28-12.443-9.077-18.846l-1.305-2.848c-5.078-11.465-9.471-24.514-9.695-37.152l-.042-2.132c-.473-28.295-.473-28.295 3.042-37.868"/><path fill="#284147" d="M926 528c.579 15.98.544 29.795-10.25 42.688-4.074 3.425-8.397 5.312-13.75 5.312q.683-2.345 1.375-4.687l.773-2.637C905 566 905 566 906.004 563.613c3.145-8.25 4.227-17.677 4.785-26.441C911 535 911 535 912 532c2.906-1.168 2.906-1.168 6.5-2.187l3.594-1.043C925 528 925 528 926 528"/><path fill="#000a28" d="M457 142c6.027 2.854 11.698 6.301 17.438 9.688C488.99 160.214 503.678 167.954 519 175l3.168 1.473c8.192 3.778 16.365 7.205 25.047 9.687 3.217.97 6.365 2.098 9.535 3.215 46.62 15.744 102.67 17.41 150.074 4.375 4.206-.993 7.88-1.057 12.176-.75-32.22 21.48-99.482 13.216-135.401 6.256-4.888-.995-9.747-2.1-14.599-3.256l-2.402-.57c-30.26-7.355-58.626-21.17-85.598-36.43l-2.15-1.208A1007 1007 0 0 1 467 151l-3.07-1.715-2.805-1.597-2.43-1.364L457 145z"/><path fill="#bbc1b7" d="M707 394c2.576 2.576 3.344 5.113 4.688 8.5 2.683 6.48 5.93 11.99 10.312 17.5l1.695 2.227C737.573 439.228 760.687 450.194 782 454l1 5a979 979 0 0 1-4.25-.437l-2.39-.247c-2.36-.316-2.36-.316-4.532-.914-1.913-.622-1.913-.622-3.828.598-1.749-.494-1.749-.494-3.86-1.371l-2.36-.978-2.53-1.089-2.596-1.116c-21.435-9.39-38.297-22.87-48.634-44.4-1.678-5.014-1.52-9.831-1.02-15.046"/><path fill="#1b3338" d="m828 517 21 1c.196 19.56.196 19.56-1 26-3.019 1.51-6.13 1.144-9.437 1.125l-2.065.012c-3.104-.006-5.531-.148-8.498-1.137z"/><path fill="#e7e7df" d="M726 259q.08 3.563.125 7.125c.017.665.034 1.33.05 2.016.059 5.903-.62 9.98-4.425 14.578L719 285.5c-13 13.613-22.854 29.711-29 47.5h-5v6h-1c-1.728-19.166 10.853-36.295 22.584-50.405 1.345-1.515 2.807-2.923 4.271-4.322 8.08-7.718 8.868-14.547 9.145-25.273 3-1 3-1 6 0"/><path fill="#b9c0b8" d="M834 206h2c1.37 2.738 1.078 4.854 1.022 7.918l-.061 3.761-.082 4.079-.072 4.161q-.096 5.48-.202 10.96-.104 5.59-.2 11.18-.195 10.97-.405 21.941h-8a3333 3333 0 0 1-.22-23.114q-.03-3.93-.082-7.86c-.048-3.77-.071-7.54-.089-11.311l-.062-3.536c-.002-6.645.455-10.792 4.453-16.179z"/><path fill="#384741" d="m621.563 460.688 3.878.011c4.116.348 7.016 1.272 10.434 3.551C637 466 637 466 637 468.938c-1.296 3.967-2.406 4.935-6 7.062-6.996 2.985-14.445 4.09-22 3-2.234-1.168-4.212-2.212-6-4-.375-2.75-.375-2.75 0-6 5.058-6.396 10.563-8.417 18.563-8.312"/><path fill="#152524" d="M728 466c22.267 4.839 42.958 15.807 59 32 1.354 2.709 1.065 5.01 1 8l-1.285-1.172c-3.413-3.03-6.694-5.488-10.738-7.652-2.434-1.448-4.604-3.142-6.852-4.863C753.541 480.895 735.251 473.189 716 471v-3c4.097-2.731 7.27-2.588 12-2"/><path fill="#a9b3aa" d="m717 634 7 1-.402 3.184-.535 4.254-.264 2.083q-.261 2.08-.515 4.157-.27 2.202-.552 4.403c-.648 5.322-.866 10.534-.83 15.892l.005 2.45c.005 2.546.018 5.093.03 7.64l.014 5.224q.017 6.357.049 12.713h2l-1 2q-1.996.514-4 1l-2 2c-2.76-5.509-3.456-9.829-3.434-15.95l-.015-2.583a654 654 0 0 1 .003-5.414 538 538 0 0 0-.052-8.063c-.048-12.42 1.635-23.916 4.498-35.99"/><path fill="#eaab0e" d="M527.688 269.875c17.19 2.203 35.194 22.72 45.199 35.543 7.494 10.323 22.79 31.681 20.738 45.02L593 352h-2c-2.058-5.046-4.029-10.079-5.75-15.25-9.553-26.355-30.988-47.97-55.29-61.094-2.508-1.403-4.72-2.864-6.96-4.656 1-1 1-1 4.688-1.125"/><path fill="#c6b381" d="m791.5 556.5 2.281-.031c3.353.803 4.317 1.601 6.219 4.531.492 3.761.375 7.465.25 11.25l-.055 3.125A659 659 0 0 1 800 583l-17 1a936 936 0 0 1-.25-11.25l-.102-3.223-.039-3.105-.063-2.857c.875-4.946 4.1-7.131 8.954-7.065"/><path fill="#eec19e" d="M796.367 351.43c4.088.885 5.845 2.489 8.633 5.57 1.57 3.139 1.352 5.539 1 9-2.891 3.516-5.893 6.723-10.559 7.336-7.801.106-7.801.106-11.066-2.149-2.556-4.066-2.926-7.461-2.375-12.187 3.108-6.56 7.358-8.01 14.367-7.57"/><path fill="#b6a577" d="M820 556c2.19 1.212 2.19 1.212 4 3 .454 2.36.454 2.36.39 5.105l-.038 2.979-.102 3.104-.055 3.138A558 558 0 0 1 824 581c-3.693.786-7.031 1.108-10.812 1.063l-2.958-.028L808 582c-.146-3.395-.234-6.79-.312-10.187l-.127-2.909c-.124-7.133-.124-7.133 2.736-11.049 3.519-2.415 5.515-2.464 9.703-1.855"/><path fill="#e5ba1d" d="M377 442a96 96 0 0 1 8.639 9.504C397.936 466.857 413.756 476.206 432 483l2.504.973c6.316 2.315 12.848 3.154 19.496 4.027-7.242 3.742-12.07 4.646-20.062 2.125-15.7-5.612-37.739-15.356-46.215-30.39L387 458h-2c-1.945-2.23-1.945-2.23-4.125-5.187l-2.195-2.918c-1.75-3.016-2.066-4.486-1.68-7.895"/><path fill="#e9d13b" d="m639.188 352.5 2.3-.03c11.075-.12 20.9 1.364 31.512 4.53v4l-2.373-.422c-10.442-1.69-20.692-2.012-31.252-2.015l-2.668-.01c-13.23-.012-25.126 1.098-37.707 5.447h-2c.25-2.375.25-2.375 1-5 11.335-7.407 28.203-6.43 41.188-6.5"/><path fill="#bba876" d="M844 555c2.2.926 2.2.926 4 3 .506 3.238.374 6.42.25 9.688l-.055 2.705A413 413 0 0 1 848 577q-2.593.507-5.187 1l-2.918.563c-2.688.406-5.183.516-7.895.437a494 494 0 0 1-.312-9.187l-.127-2.62c-.087-4.526-.047-6.541 2.736-10.275 3.514-2.494 5.478-2.533 9.703-1.918"/><path fill="#9c8f63" d="M800 591c.116 3.083.187 6.165.25 9.25l.102 2.645c.098 6.448.098 6.448-2.118 9.683-2.334 1.486-3.497 1.965-6.234 1.922l-2 .031c-3.107-.825-4.161-1.879-6-4.531-.484-3.1-.377-6.123-.25-9.25l.055-2.547c.047-2.068.118-4.136.195-6.203l6.875-.5 3.867-.281c1.75-.118 3.504-.219 5.258-.219"/><path fill="#a29163" d="M849 584c.108 2.73.187 5.456.25 8.188l.102 2.33c.069 4.025-.034 5.98-2.243 9.47-2.538 2.42-3.494 2.945-6.984 3.324C837 607 837 607 834.688 605.126c-3.045-3.833-2.795-6.388-2.75-11.25l.027-3.883L832 587q3.405-.755 6.813-1.5l3.832-.844C846 584 846 584 849 584"/><path fill="#b3a273" d="M824 589c.108 2.918.187 5.831.25 8.75l.102 2.5c.098 6.102.098 6.102-2.118 9.293-2.323 1.515-3.49 2.025-6.234 2.02l-2 .066c-3.27-1.028-4.278-2.718-6-5.629-.46-2.795-.381-5.49-.25-8.312l.055-2.245c.047-1.815.118-3.629.195-5.443q2.03-.257 4.063-.5c1.13-.14 1.13-.14 2.285-.281 3.224-.266 6.418-.25 9.652-.219"/><path fill="#cfd1c5" d="M684 354c4.706 4.224 4.706 4.224 5.875 7.313.125 2.687.125 2.687-.363 5.855-.903 6.894-.616 13.893-.574 20.832q.008 2.186.013 4.371.017 5.314.049 10.629l-3-3-2 5-2-1c-2.46-15.005-3.27-35.648 2-50"/><path fill="#385357" d="M799 512h1c1.238 3.385 2.002 5.86 1.938 9.5 1.326 4.371 2.515 4.694 6.437 6.813A966 966 0 0 0 814 531l3 2c.328 2.348.328 2.348.25 5.063-.015.898-.03 1.796-.047 2.722C817 543 817 543 816 544a237 237 0 0 1-8.562.063L799 544z"/><path fill="#010f26" d="M303 336h1q.251 10.44.482 20.88.08 3.555.166 7.11.122 5.096.23 10.194l.083 3.232.06 2.972.061 2.632C305 385 305 385 304 386a165 165 0 0 0-.316 7.406l-.064 2.495c-.068 2.866-.126 5.732-.183 8.599l-.064 3.034c-.844 41.477-.456 82.984-.373 124.466-1.975-3.309-2.251-5.797-2.254-9.625l-.017-3.478.012-3.808-.01-4.024c-.01-3.656-.006-7.312 0-10.968.005-3.874 0-7.749-.002-11.624q-.006-9.83.01-19.661.015-9.944 0-19.887c-.054-37.691.16-75.279 2.261-112.925"/><path fill="#7b9cb8" d="m812 148 2 1v2c-1.712 1.237-1.712 1.237-4.086 2.602l-2.57 1.484-2.719 1.539-2.695 1.563C795.273 162 795.273 162 793 162v2c-3.071 2.953-5.833 3.527-10 4v2c-4.072 1.82-8.142 3.637-12.25 5.375-7.233 3.085-14.397 6.375-21.375 10C746 187 746 187 743 187c-1.665 3.924-2.872 7.891-4 12h-2v-8h-2l-2 4-.312-2.375c-.464-2.955-.464-2.955-3.688-4.625l2.86-.918c8.218-2.668 16.236-5.57 24.14-9.082l3.27-1.45c17.35-7.9 34.52-16.651 50.375-27.257z"/><path fill="#031532" d="m438 130 2.36 1.395c4.287 2.543 8.554 5.123 12.765 7.792l2.258 1.418L457 142v3h-2l-1.25-1.312c-2.31-2.227-4.86-3.335-7.75-4.688l-2-1v-2l-1.57-.254c-4.04-1.24-7.519-3.61-11.121-5.775-3.697-2.177-7.231-3.68-11.309-4.971a143 143 0 0 1-4.5-2.437c-14.355-7.242-30.789-7.068-46.121-3.512L367 120l-1 3-3-1c-.235.593-.47 1.186-.71 1.797-1.589 2.714-3.266 3.788-5.915 5.453l-2.477 1.578L352 132v-4l4-2v-2c23.157-20.943 59.04-8.234 82 6"/><path fill="#1c3439" d="M799 511q4.47.712 8.938 1.438l2.576.408 2.45.4 2.27.365C817 514 817 514 818 515c.088 2.073.107 4.148.098 6.223l-.01 3.818-.025 4.021-.014 4.034A3769 3769 0 0 1 818 543h-1v-10c-.717-.275-1.433-.55-2.172-.832-4.603-1.9-8.938-4.027-12.828-7.168-1-3.437-1-3.437-1-7a216 216 0 0 0-2-7"/><path fill="#f4cf44" d="M532 271c-2.891 1.446-4.87.614-8 0l-2.184-.36c-3.034-.69-5.862-1.666-8.79-2.71-17.584-6.22-34.441-7.505-53.026-7.93v-1l17-1v-1c18.596-4.418 39.08 5.24 55 14"/><path fill="#081819" d="m855 450-1.937.813c-2.394 1.074-2.394 1.074-3.063 4.187-8.66 3.442-18.092 3.418-27.268 3.281-2.126-.031-4.25-.04-6.377-.047-6.208-.04-12.209-.251-18.355-1.234l2-1v-3l2.272.016q5.208.029 10.415.046l3.573.026c11.098.03 21.782-.084 32.4-3.565 2.525-.564 3.922-.36 6.34.477"/><path fill="#c5c8be" d="M898 329c2.483 2.483 2.742 4.23 3.563 7.625l.753 3.04c1.854 9.044 1.924 18.01 1.934 27.21l.004 2.221c-.003 8.674-.132 17.264-1.567 25.841l-.356 2.162c-.382 1.928-.382 1.928-1.331 4.901l-3 2c-2-3-2-3-1.828-5.355l.578-2.832.602-3.29L898 389c3.402-19.73 3.12-40.25 0-60"/><path fill="#1f435e" d="m917 119 2.227 1.047c5.21 2.705 8.795 6.736 12.46 11.203 2.017 2.767 2.017 2.767 4.313 3.75v2c-2.69-.154-4.452-.44-6.375-2.402Q927.81 132.3 926 130h-2l-2-3c-1.375-1.709-1.375-1.709-3-3h-3v-3l-2.187-.375c-2.77-.615-5.21-1.51-7.813-2.625v2h-5l-1-2c-7.112-1.782-15.39-1.305-22 2v-2l-2.484.91c-1.078.38-2.156.76-3.266 1.153l-3.234 1.16c-2.939.757-4.24.849-7.016-.223 12.436-12.436 40.929-8.858 55-2"/><path fill="#06191c" d="M942.563 390.438c3.918.64 5.063 1.457 7.437 4.562 1.564 3.129 1.356 5.556 1 9-2.062 2.5-2.062 2.5-5 4-4.389.078-6.411-.562-9.937-3.187C934 402 934 402 933.375 399c1.124-5.394 3.804-7.712 9.188-8.562"/><path fill="#162b30" d="m743.5 672.625 2.344-.023c2.646.489 3.496 1.323 5.156 3.398 1.546 3.092 1.294 5.594 1 9-1.375 2.5-1.375 2.5-4 4-3.51.281-6.618-.013-10-1-2.187-2.125-2.187-2.125-3-5 .205-5.947.205-5.947 2.273-8.687 2.2-1.672 3.487-1.715 6.227-1.688"/><path fill="#1a3034" d="M859 239c2.304 1.674 2.923 2.542 3.398 5.375l-.023 2.625.023 2.625c-.473 2.824-1.09 3.719-3.398 5.375-4.978.553-8.004.056-12-3-1.427-2.853-1.31-4.835-1-8 3.932-5.899 6.117-6.449 13-5"/><path fill="#9baba8" d="M726 268h1c.952 3.738 1.634 6.445.152 10.078-3.539 5.572-8.155 10.207-12.68 14.972-4.587 4.9-8.087 10.158-11.472 15.95q-1.402 2.16-2.812 4.313c-1.946 3.103-3.212 6.137-4.188 9.687h-2a269 269 0 0 0-1.75 6.25l-.984 3.516c-.6 3.246-.6 3.246 1.261 5.578 2.997 2.007 5.216 2.453 8.785 2.906l3.47.445c3.454.327 6.754.466 10.218.305v-2q2.435-1.005 4.875-2l2.742-1.125C725 336 725 336 727 336v2c-1.726.82-3.456 1.63-5.187 2.438l-2.918 1.37c-7.294 3.003-15.943 3.465-23.457.942C692 341 692 341 690.5 338.813L690 337h-2l-2 4h-2l1-8h5l.273-2.52c.864-4.139 2.422-7.433 4.352-11.168l1.09-2.133c5.849-11.284 12.81-21.644 21.789-30.706 5.747-5.84 8.01-10.236 8.496-18.473"/><path fill="#395357" d="M828 527c4.361 1.09 5.712 2.248 8.938 5.25l2.644 2.45c2.517 2.395 5.002 4.803 7.418 7.3l-1 3q-3.657.04-7.312.063l-2.092.025c-3.144.015-5.59-.086-8.596-1.088z"/><path fill="#eeb61d" d="M340 396h1l.48 3.777c1.162 8.656 2.504 17.142 4.957 25.536l.585 2.04c1.03 3.35 2.29 6.343 4.06 9.35 2.245 3.86 3.008 6.972 3.918 11.297-5.384-2.393-6.827-5.842-9-11l-1.031-2.386c-4.092-9.815-8.856-21.81-7.969-32.614 1.5-3.375 1.5-3.375 3-6"/><path fill="#abb3ab" d="M697 429c3.06 4.59 5.25 9.592 7.625 14.563l1.563 3.232 1.476 3.084 1.358 2.83C710 455 710 455 710 457l-2 1v2l2 2c-1.758-.11-1.758-.11-4-1a54 54 0 0 1-3.875-6.25l-1.033-1.886A381 381 0 0 1 698 447l-.982-1.87c-5.29-10.188-5.29-10.188-4.354-13.435C694 430 694 430 697 429"/><path fill="#365257" d="M893 316c4.14 3.426 5.352 7.076 7 12l1.063 2.625c1.088 2.759 2.019 5.555 2.937 8.375l-2 1-3-8 .438 2.113c4.74 26.959 1.927 56.492-8.438 81.887h-2c.673-3.815 1.754-7.336 3-11q1.017-3.495 2-7l1.063-3.25c1.014-4.06 1.399-7.937 1.69-12.102.247-2.648.247-2.648.735-4.996 2.83-14.664 1.664-30.474-1.02-45.035a98 98 0 0 1-.968-6.992c-.473-3.432-1.287-6.389-2.5-9.625"/><path fill="#4f686c" d="m860 195 2 1-1.574 1.355c-3.953 3.427-7.77 6.898-11.426 10.645l-2.012 1.98-2.176 2.145-2.042 2.008c-3.81 4.02-4.02 6.516-3.957 11.93l.019 3.785c-.047 3.054-.047 3.054 1.168 5.152h-2l.219 1.723c.576 4.792.878 9.44.781 14.277v3l-.035 2.883-.028 3.242-.035 3.258c-.202 2.544-.202 2.544 1.098 3.617 2.526.237 5.031.422 7.563.563l2.154.13q2.64.159 5.283.307v1l-19 1q-.111-10.544-.165-21.088-.022-3.586-.061-7.172a1530 1530 0 0 1-.067-10.314c-.015-1.068-.03-2.136-.047-3.236-.001-6.87.75-10.294 5.393-15.486l2.326-2.313 2.54-2.536 2.644-2.605 2.654-2.652c6.502-6.458 6.502-6.458 8.783-7.598"/><path fill="#e3c82a" d="m458.035 488.867 2.406-.003q2.517 0 5.036.006 3.868.005 7.736-.007 2.442 0 4.885.004l2.351-.006c5.436.024 5.436.024 6.551 1.139q3.492.553 7 1v1c-7.811 2.041-15.474 2.31-23.505 2.26-2.058-.01-4.115 0-6.173.013-7.048.007-13.51-.376-20.322-2.273 4.989-2.494 8.432-3.147 14.035-3.133"/><path fill="#445f64" d="m889 350 2 1-.098 6.055c-.028 2.027-.028 2.027 1.098 3.945 1.053 7.51 1.199 13.757-1 21v2.625c0 3.082-1.021 5.453-2 8.375a317 317 0 0 0-1.437 6.438c-1.097 4.817-2.343 9.122-4.563 13.562l-.95 2.031C877.823 423.46 871.37 431.486 863 436v-3c1.941-1.875 1.941-1.875 4.563-4 7.895-6.95 12.205-14.664 15.75-24.437l.735-2.022c3.997-11.792 4.198-23.438 4.014-35.728q-.042-3.394-.07-6.79a1204 1204 0 0 0-.074-6.07C888 351 888 351 889 350"/><path fill="#ecca40" d="m339 355 3 1c.99 4.358.989 7.675.125 12.063-1.348 7.064-1.523 14.111-1.695 21.283-.266 8.544-.266 8.544-2.43 12.654h-1c-1.09-5.317-1.192-10.472-1.187-15.875v-2.79c.078-9.464.65-19.173 3.187-28.335"/><path fill="#1b2b2e" d="m888 417 2 1c-3.954 8.157-8.602 14.592-15 21l-2.379 2.414C867.211 446.608 858.954 454 851 454v-2l3-2-2.195.438c-4.99.958-9.698 1.838-14.805 1.562v-1q3.904-1.006 7.813-2l2.236-.578c3.056-.775 5.785-1.422 8.951-1.422l1-2 2 1 1-2a111 111 0 0 1 5.125-2.75c4.895-2.603 8.886-5.425 12.875-9.25l2.25-2c2.159-2.467 3.36-5.038 4.75-8a259 259 0 0 1 3-5"/><path fill="#425d61" d="M835 653h3c-.28 3.334-.714 4.716-3.125 7.105C811.546 677 811.546 677 806 677c-.453-2.2-.453-2.2 0-5a56 56 0 0 1 7.25-4.812q2.198-1.303 4.395-2.61l2.22-1.303c3.095-1.848 6.08-3.83 9.072-5.837l2.903-1.942c2.044-1.32 2.044-1.32 3.16-2.496"/><path fill="#94a19d" d="m850.063 275.875 2.413-.014c4.286.011 8.303.288 12.524 1.139l-1 2 5 1v1l-35 2v-4l-9-1v-1c8.36-.7 16.672-1.105 25.063-1.125"/><path fill="#04152f" d="M317 200c1.373 4.398.243 7.925-.937 12.25l-.592 2.258A751 751 0 0 1 314 220h-2l.5 3.063c1.165 9.175 1.165 9.175-.445 13.44-1.482 4.912-1.748 9.772-2.118 14.872l-.249 3.209A1237 1237 0 0 0 308 280h-1c-1.074-6.044-1.157-11.87-1-18l.05-3.398c.354-9.96 1.758-19.711 3.325-29.54l.318-2.029c2.97-18.773 2.97-18.773 7.307-27.033"/><path fill="#172e37" d="M976 335h1c1.3 17.413 1.118 34.842 1.069 52.29q-.014 6.056-.02 12.11-.016 11.8-.049 23.6h-1l-1-43-3-1v-2h2l-.48-2.046c-.604-3.433-.736-6.738-.836-10.224l-.063-2.063q-.097-3.24-.183-6.48l-.131-4.412q-.16-5.387-.307-10.775l2 2z"/><path fill="#f3bc1f" d="M527.688 269.875C538.954 271.272 549.74 281.871 558 289l-2 1-1 3-2.57-2.125c-7.168-5.83-14.337-10.827-22.47-15.219-2.508-1.403-4.72-2.864-6.96-4.656 1-1 1-1 4.688-1.125"/><path fill="#010b1e" d="M303 535h1l.272 2.984c1.816 19.605 4.185 38.5 9.147 57.597.752 3.13 1.211 6.223 1.581 9.419-4.937-4.766-5.67-10.531-7-17l-.485-2.317c-3.508-16.917-6.572-33.396-4.515-50.683"/><path fill="#e4d2a0" d="m791.75 556.75 2.422.11L796 557l1 2-2.937 1.813c-2.383 1.928-3.005 2.929-3.684 5.968A102 102 0 0 0 790 575h-7c-.108-2.249-.186-4.5-.25-6.75l-.14-3.797c.39-3.453.39-3.453 2.109-5.89 2.635-1.805 3.88-1.998 7.031-1.813"/><path fill="#3e585c" d="M903 348h2c1.612 9.674 2.482 19.285 1 29-.035 2.377-.004 4.741.063 7.117C906 386 906 386 905 388l.125 3.063c-.132 4.166-1.059 7.089-2.566 10.921-.81 2.193-.81 2.193.441 5.016a110 110 0 0 1-3 7h-2c.454-4.183 1.007-8.232 1.973-12.328 4.03-17.774 3.416-35.564 3.027-53.672"/><path fill="#dfb214" d="M574 368h1c2.976 11.902 6.028 28.76.938 40.438L575 410l-4-1 .402-2.113c2.153-12.868 2.252-25.87 2.598-38.887"/><path fill="#adb6af" d="M707 394c2.576 2.576 3.344 5.113 4.688 8.5 2.346 5.733 5.16 10.63 8.894 15.61C722 420 722 420 723 422h-2l-1 3c-5.016-1.672-6.514-6.554-9-11l-1.277-2.02c-3.428-5.793-3.118-11.394-2.723-17.98"/><path fill="#e8bc1d" d="M575 407c1.679 4.077.232 7.586-1.062 11.563l-.679 2.136c-2.047 6.175-4.844 11.762-8.259 17.301-1.577-2.412-2.014-3.757-1.848-6.664 1.117-4.394 2.719-8.51 4.41-12.711l.999-2.52Q569.77 413.05 571 410h4z"/><path fill="#346099" d="M862.375 121.313 864 122c-2 2-2 2-5.402 3.21-5.784 2.083-10.897 5.278-16.16 8.415l-3.194 1.88a896 896 0 0 0-14.076 8.452l-2.105 1.289q-1.893 1.164-3.772 2.352c-1.395.86-2.839 1.642-4.291 2.402l-2-1c5.99-6.521 14.844-10.58 22.59-14.64 2.399-1.281 2.399-1.281 4.36-2.844 2.508-1.854 5.123-3.147 7.925-4.516l3.055-1.5L854 124l3.234-1.707C860 121 860 121 862.375 121.313"/><path fill="#decc99" d="m820 556 1 2-1.937.875c-2.215.953-2.215.953-3.063 3.125-.228 1.87-.41 3.747-.562 5.625l-.254 3.04L815 573l-7 1c-.775-11.756-.775-11.756 2.063-16.312 3.567-2.05 5.885-2.085 9.937-1.688"/><path fill="#b09e6e" d="m843 586-4 1v18l-3 1c-2.932-2.805-3.972-4.054-4.098-8.258l.035-3.867.028-3.883L832 587c3.753-.812 7.155-1.09 11-1"/><path fill="#e9b416" d="M377 442c3.735 3.62 7.078 7.419 10.375 11.438 3.04 3.678 5.963 7.058 9.75 10C400 466 400 466 400.938 469.375L401 472c-5.099-3.65-9.774-7.351-14-12v-2h-2c-1.945-2.23-1.945-2.23-4.125-5.187l-2.195-2.918c-1.75-3.016-2.066-4.486-1.68-7.895"/><path fill="#e5c624" d="M436 484.438c5.85 2.019 11.884 2.759 18 3.562-5.882 3.039-10.197 4.694-16.852 3.047C432.68 489.623 428.2 488.1 424 486v-3c4.499-1.5 7.682-.12 12 1.438"/><path fill="#dbc892" d="M800 591v14h-1v-12h-8v13l-5-1-1 5h-1v-18c13.75-1 13.75-1 16-1"/><path fill="#375358" d="M897 415c1.164 3.49.585 4.6-.91 7.832-7.226 14.374-7.226 14.374-12.653 19.668-2.46 2.24-2.46 2.24-3.375 4.563-2.21 4.03-6.895 5.849-10.812 8-3.416 1.72-3.416 1.72-5.25 4.937h-2c-1.38.31-2.755.646-4.125 1l-2.195.563L854 462c2.568-2.987 5.49-4.345 9-6.062 16.947-9.02 26.128-24.056 34-40.938"/><path fill="#edb316" d="M556 290c4.448.398 6.668 3.47 9.438 6.625l1.47 1.65A393 393 0 0 1 571 303l1.863 2.176c2.158 2.741 3.176 4.214 2.95 7.762L575 315c-3.798-3.687-7.243-7.556-10.625-11.625-3.415-4.19-3.415-4.19-7.21-8.023C556 294 556 294 556 290"/><path fill="#01112a" d="M976 375h1q.217 9.732.427 19.464.072 3.298.146 6.595c.305 13.65.5 27.288.427 40.941l-3-1 1-11h-9c4-2 4-2 8-2v-3h-6c2-2 2-2 4.625-2.125L976 423l-.108-3.545a5462 5462 0 0 1-.374-13.105q-.08-2.829-.166-5.657-.123-4.08-.23-8.162l-.083-2.526c-.128-5.12.206-9.938.961-15.005"/><path fill="#aeb7af" d="M898 329c2.483 2.483 2.742 4.23 3.563 7.625l.753 3.04c1.326 6.468 1.832 12.741 1.782 19.335l-.005 2.185c-.005 2.272-.018 4.543-.03 6.815l-.014 4.66q-.017 5.67-.049 11.34h-1a316 316 0 0 1-2.603-30.152c-.353-8.345-1.28-16.575-2.397-24.848"/><path fill="#d2be8a" d="m844 555 1 2-5 1-2 13h-5l1 8h-2a494 494 0 0 1-.312-9.187l-.127-2.62c-.087-4.519-.038-6.546 2.72-10.287 3.439-2.41 5.608-2.31 9.719-1.906"/><path fill="#2d474c" d="m693 363 13 3v16c-3.379-3.379-6.074-6.72-8.75-10.625l-1.246-1.773C693 365.25 693 365.25 693 363"/><path fill="#a09165" d="m847 569 1 8q-3.467.54-6.937 1.063l-3.903.597-3.16.34c-1-1-1-1-1.062-4.562L833 571q2.374-.506 4.75-1l2.672-.562C843 569 843 569 847 569"/><path fill="#7a8c8c" d="M868.125 276.688c4.419.04 8.562 1.074 12.813 2.187l2.045.526c1.692.466 3.358 1.026 5.017 1.599l1 2-39-1v-1l2.047-.148 2.703-.227c.882-.07 1.763-.14 2.672-.21 4.147-.667 6.708-3.328 10.703-3.728"/><path fill="#061f34" d="M399 114v1l-20 1-1 2c-2.504.633-2.504.633-5.562 1.125l-3.067.508L367 120l-1 3-3-1c-.235.593-.47 1.186-.71 1.797-1.589 2.714-3.266 3.788-5.915 5.453l-2.477 1.578L352 132v-4l4-2v-2c12.268-11.095 27.558-10.57 43-10"/><path fill="#061414" d="M753 440c4.91 1.6 9.781 3.274 14.625 5.063A142 142 0 0 0 780 449c-4.073 2.715-7.302 2.76-12 2-5.14-1.63-10.075-3.82-15-6z"/><path fill="#395357" d="M718 704h3l1.188 2.25c2.534 3.846 5.456 5.379 9.812 6.75 2.354.208 4.566.2 6.922.043 2.224-.046 3.93.408 6.078.957 6.926.49 13.477-.243 20.273-1.562 2.63-.422 5.07-.515 7.727-.438-11.464 6.157-29.09 7.049-41.312 3.438-5.476-2.03-9.919-4.937-13.688-9.438z"/><path fill="#b7a778" d="M791 593h8q.039 2.969.063 5.938l.035 3.34C799 605 799 605 798 606q-3.5.062-7 0z"/><path fill="#0e2532" d="m349 131 2 4a159 159 0 0 1-5 6h-2l-2 6h-2v4a102 102 0 0 1-3 3l-.937 2.563c-1.27 2.913-2.22 3.245-5.063 4.437l-1 2c1.62-11.898 11.65-22.932 19-32"/><path fill="#778a8a" d="M719 668h1l1 29h2l-1 2q-1.996.514-4 1l-2 2c-3.664-6.45-2.983-11.79-2-19h1l1 6h2z"/><path fill="#fddb43" d="m618 355-2 2h6c-2.79 1.86-4.426 2.51-7.598 3.29l-2.677.663-2.788.672-2.798.695C599.295 364 599.295 364 597 364c.25-2.375.25-2.375 1-5 5.948-3.66 13.173-4.29 20-4"/><path fill="#0e2a4c" d="M936 136c6.065 7.426 10.875 15.362 15 24l.954 1.96c2.167 4.677 2.167 4.677 1.046 8.04h-2l-.742-1.988c-1.917-4.59-4.236-8.972-6.512-13.393C941 149.212 941 149.212 941 147l-2-1c-1.881-2.9-3.5-5.887-5-9z"/><path fill="#495c59" d="M721 621c3.125-.187 3.125-.187 6 0-.514 4.97-1.234 9.29-3 14l-7-1q.426-2.409.875-4.812l.492-2.708C719 624 719 624 721 621"/><path fill="#d2b77b" d="m724 607 21 2v2h4v-2c8.357-1.238 8.357-1.238 13 0-4.416 4.416-11.216 3.184-17.062 3.188l-2.99.037c-6.854.013-13.253-.773-19.948-2.225z"/><path fill="#94a6a4" d="m792 307 3 2c-4.51 2.011-9.03 3.73-13.713 5.296-12.029 4.03-24.309 8.567-35.353 14.886C744 330 744 330 741 329a1293 1293 0 0 1 6.813-3.5l1.947-1.012c2.935-1.49 4.901-2.488 8.24-2.488v-2l3.375-.875c3.628-.817 3.628-.817 5.625-3.125 1.918-.781 1.918-.781 4.188-1.5l2.43-.77L776 313l3.813-1.187C783 311 783 311 787 311v-2h5z"/><path fill="#8b8058" d="M808 603h15v6c-3.215 2.143-5.229 2.475-9.059 2.39C812 611 812 611 809.5 608.689 808 606 808 606 808 603"/><path fill="#122727" d="M303 307h1l1 10h1c1.21 7.803.725 15.156 0 23h-2l-1 15h-1q-.037-7.12-.055-14.24-.008-2.412-.02-4.826c-.052-9.705.123-19.266 1.075-28.934"/><path fill="#fac724" d="M653 355q3.313-.079 6.625-.125l3.727-.07c3.591.192 6.315.892 9.648 2.195v4l-2.522-.416c-8.977-1.392-17.768-1.987-26.853-2.209q-2-.057-4-.117A2205 2205 0 0 0 630 358v-1l23-1z"/><path fill="#c0ad7d" d="M808 590h10l-3 1 .035 1.863.028 2.45.035 2.425C815 600 815 600 814 603h-6z"/><path fill="#edc62e" d="M507 262c6.243-.513 10.33 1.112 15.875 3.875l2.336 1.105c5.646 2.734 5.646 2.734 6.789 5.02-6.474-.768-12.55-1.71-18.75-3.812l-2.922-.958C508 266 508 266 507.172 263.863z"/><path fill="#e0ca8c" d="M383 366c2.196 2.196 2.602 2.99 3 6-.523 2.34-.523 2.34-1.375 4.938-1.647 5.52-2.094 10.767-2.316 16.507L382 396l-2 1q-.042-6.437-.062-12.875l-.026-3.707-.01-3.535-.016-3.27C380 371 380 371 381 369h2z"/><path fill="#334d53" d="m943 265 2 1c.379 2.457.379 2.457.563 5.813l.218 3.87.106 2.117c.115 2.246.253 4.49.394 6.735.786 13.158.83 26.287.719 39.465h-2z"/><path fill="#020e0f" d="m800 453 32 1v1l-23 1 23 1v1c-4.354.03-8.708.047-13.062.063l-3.725.025c-5.84.016-11.465-.003-17.213-1.088l2-1z"/><path fill="#0c2542" d="M970 240c4.427 4.427 3.396 11.24 3.625 17.125l.156 3.344c.255 6.315.106 12.272-.781 18.531h-1c-1.288-13.033-2.342-25.896-2-39"/><path fill="#899fb4" d="M743 186a429 429 0 0 1-1.312 5.938l-.739 3.34L740 198l-3 1v-8h-2l-2 4-.312-2.375c-.464-2.955-.464-2.955-3.688-4.625 1.39-.536 2.787-1.053 4.188-1.562l2.355-.88c2.82-.64 4.688-.3 7.457.442"/><path fill="#22496c" d="M895 114v1l-5 1v1l-2.117.402-2.758.535-2.742.528C880 118.9 880 118.9 878 120v-2l-2.484.91c-1.078.38-2.156.76-3.266 1.153l-3.234 1.16c-2.939.757-4.24.849-7.016-.223 2.79-2.79 6.058-3.519 9.75-4.625l2.283-.684c7.095-1.979 13.605-2.216 20.967-1.691"/><path fill="#254045" d="M762 443c6.86 1.518 13.712 3.065 20.563 4.625l3.056.695L793 450v1h-12l3 2v2l-14-3v-1l3.438-.437c3.37-.175 3.37-.175 4.562-1.563l-2.992-.805-3.883-1.07-1.973-.527c-4.925-1.371-4.925-1.371-7.152-3.598"/><path fill="#395358" d="M902 293c10.24 11.703 15 30.612 15 46h-2l-.422-3.023c-1.536-10.696-3.353-20.442-7.59-30.403C906 303 906 303 906 300h-2c-1.46-2.647-2-3.894-2-7"/><path fill="#00092c" d="m304 286 2 1c.145 15.361-.282 30.656-1 46h-1q-.255-6.423-.482-12.848-.08-2.175-.166-4.349c-.4-10.022-.224-19.805.648-29.803"/><path fill="#d88d05" d="M552 456c0 3 0 3-1.193 4.534l-1.65 1.603-1.778 1.748-1.879 1.803-1.879 1.837A891 891 0 0 1 539 472l6-1v2a937 937 0 0 1-7.312 2.563l-2.092.748c-5.256 1.802-5.256 1.802-8.596.689l1.836-1.215C537.328 470.024 544.87 463.368 552 456"/><path fill="#071517" d="m743.5 672.625 2.344-.023c2.608.481 3.495 1.385 5.156 3.398l-1 2-5.957-.977c-2.36-.219-2.36-.219-5.043 1.977-.736 3.568-.736 3.568-1 7-1.562-1.062-1.562-1.062-3-3 .213-5.952.213-5.952 2.273-8.695 2.2-1.662 3.493-1.707 6.227-1.68"/><path fill="#476368" d="M883 405c1.188 1.625 1.188 1.625 2 4-3.822 10.273-12.385 21.701-22 27v-3c1.941-1.875 1.941-1.875 4.563-4 7.617-6.635 12.366-14.425 15.437-24"/><path fill="#354c50" d="m888 417 2 1c-5.97 12.097-12.391 20.518-25 26a57 57 0 0 1-4 1c2.335-2.586 4.767-4.084 7.813-5.75 4.208-2.451 7.095-4.966 10.03-8.832C880 429 880 429 882 428a200 200 0 0 0 3-6 259 259 0 0 1 3-5"/><path fill="#061314" d="M859 239c2 2 2 2 2 5l-1.863-.324-2.45-.363-2.425-.387c-2.325-.14-2.325-.14-4.012 1.387-1.598 2.156-1.894 4.055-2.25 6.687l-2-1c-.357-3.835-.298-5.553 1.875-8.812 3.756-3.867 5.964-3.202 11.125-2.188"/><path fill="#2f4b51" d="M903 348h2c.782 4.693 1.241 9.383 1.625 14.125.095 1.178.19 2.356.29 3.57.078 3.03-.234 5.375-.915 8.305q-.315 2.653-.562 5.313l-.254 2.675L905 384h-1z"/><path fill="#d0c390" d="M449 468q6.345.462 12.688.938l3.63.263 3.506.264 3.222.238A68 68 0 0 1 480 471v1c-4.23.03-8.458.047-12.687.063l-3.631.025-3.506.01-3.222.016c-2.767-.107-5.262-.485-7.954-1.114z"/><path fill="#e1a80f" d="M574 368h1c2.567 10.267 3.21 20.44 3 31l-3-1v-9h-1z"/><path fill="#9e9166" d="M790 575h9v7h-9z"/><path fill="#e6b013" d="M352 447h4l2 6h2v3h2l.375 2.375c.416 2.766.416 2.766 2.625 4.625a104 104 0 0 1 2 5c-4.612-3.24-7.303-6.97-10.312-11.625l-1.377-2.062C352 449.274 352 449.274 352 447"/><path fill="#b8a87a" d="M812.063 572.938 815 573v9h-7c-.098-6.152-.098-6.152 0-8 1-1 1-1 4.063-1.062"/><path fill="#264045" d="M835 444c-6.83 2.833-12.66 3.404-20 3l-3.484-.164c-9.08-.545-9.08-.545-12.516-2.836q7.207-.25 14.417-.482 2.452-.08 4.906-.166 3.522-.122 7.044-.23l2.223-.083c5.182-.153 5.182-.153 7.41.961"/><path fill="#f7c52c" d="M340 396h1q.291 3.655.563 7.313l.17 2.091c.233 3.221.3 5.5-.733 8.596a278 278 0 0 0-1 4c-4.324-13.022-4.324-13.022-1.5-19.375z"/><path fill="#e8c642" d="m339 355 3 1c.913 4.97.913 9.03 0 14h-5c-.226-5.419.533-9.775 2-15"/><path fill="#fdd234" d="m649.813 353.813 3.353-.038 3.229-.005 2.964-.013C662 354 662 354 666 356h-12v1q-3.687.08-7.375.125l-2.117.05c-1.837.018-3.674-.072-5.508-.175l-2-2c2.52-2.52 9.426-1.186 12.813-1.187"/><path fill="#6086a8" d="m812 148 2 1v2c-3.45 2.034-6.912 4.05-10.375 6.063-.985.58-1.97 1.16-2.984 1.76l-2.852 1.65-2.634 1.539L793 163l-2-1c2.231-2.625 4.826-4.109 7.824-5.746 3.718-2.143 7.255-4.576 10.82-6.961z"/><path fill="#a2ada8" d="M842 278h8v2h19v1c-11.016.658-21.96 1.162-33 1v-1l2.438-.375L841 280z"/><path fill="#8d9c99" d="M707 394c3.879 3.879 5.87 9.148 6.25 14.563L713 411h-4c-1.851-3.929-2.22-6.988-2.125-11.312l.055-3.239z"/><path fill="#f9e05a" d="m381 285 3 1-1.937 1.75c-2.182 1.995-2.182 1.995-2.47 4.188-.771 2.681-1.998 3.586-4.156 5.312l-1.94 1.578L372 300v-2l-2-2z"/><path fill="#f8d139" d="m499.34 258.723 2.598.34 2.59.285c2.744.724 4.331 1.82 6.472 3.652l-4 1 2 1a669 669 0 0 1-15-2c2.331-3.92 2.331-3.92 5.34-4.277"/><path fill="#8c7f56" d="M848 598c-1.237 3.424-2.353 6.447-5 9-3.187.25-3.187.25-6 0 .75-5.75.75-5.75 3-8 2.778-.712 5.124-1 8-1"/><path fill="#978b62" d="M815 573h7c.188 3.375.188 3.375 0 7-3 2-3 2-7 2z"/><path fill="#041011" d="m954 449 2 1-22 22c0-4.316 2.133-5.928 5-9h2c.26-.587.52-1.173.79-1.777 2.705-4.966 7.57-9.068 12.21-12.223"/><path fill="#4a7593" d="m834 135 2 1c-3.604 4.115-7.955 6.59-12.625 9.313l-2.352 1.416-2.25 1.322-2.049 1.208L815 150l-2-1c3.914-4.293 9.094-6.983 14-10l2.207-1.379c1.559-.942 3.171-1.793 4.793-2.621"/><path fill="#f4db5c" d="M430 260v2l4 1c-2.606 1.737-4.072 2.45-7 3.188l-2.062.542C423 267 423 267 420 266v-2l-2-1q2.437-.755 4.875-1.5l2.742-.844C428 260 428 260 430 260"/><path fill="#687d7e" d="M863 246h1c.364 3.918.325 5.543-2 8.813L860 257v1l-2.375.375c-2.766.416-2.766.416-4.625 2.625l-1-3a107 107 0 0 0-6-4c3.75-1.125 3.75-1.125 6 0 3.458.417 3.458.417 7 0 2.523-2.355 3.4-4.638 4-8"/><path fill="#fdb20e" d="m394 281 2 1h-3zm-1 2v2c-1.328 1.086-1.328 1.086-3.25 2.375-6.239 4.488-11.414 10.129-16.75 15.625l-2-1c16.065-19 16.065-19 22-19"/><path fill="#94a6a4" d="M852 189h2c-1.394 3.157-3.036 5.281-5.5 7.688l-1.844 1.824C845 200 845 200 843 201l-1 3c-1.937 1.063-1.937 1.063-4 2l-2 2-1-3 1.345-1.253 6.03-5.622 2.117-1.973 2.031-1.894 1.873-1.746c1.22-1.15 2.418-2.326 3.604-3.512"/><path fill="#7191a6" d="M790 161c2 1 2 1 3 3-3.203 2.834-5.78 3.52-10 4v2c-1.812 1.063-1.812 1.063-4 2l-3-1h2l.16-1.793c1.237-3.25 3.249-3.932 6.278-5.52l2.996-1.613z"/><path fill="#173353" d="M923 123c4.156 3.397 7.706 6.73 11 11l2 1v2c-2.69-.154-4.452-.44-6.375-2.402Q927.81 132.3 926 130h-2c-2-3-2-3-3-6z"/><path fill="#051414" d="M781 450c9.41.964 9.41.964 14 2v3l-3.812.563-2.145.316C787 456 787 456 784 455v-2l-4-1z"/><path fill="#aa9b6d" d="m785 604 6 2-1 7h5v1c-6.625.25-6.625.25-10-2-.408-2.712-.133-5.244 0-8"/><path fill="#233232" d="M795 451h8v2h-3v3l5 1v1c-4.833.083-9.237-.047-14-1v-2l3-2z"/><path fill="#a1afab" d="M726 268h1c1.66 6.52 1.66 6.52.012 10.219-3.742 5.728-8.358 10.784-13.012 15.781l-2-2 2.555-2.457c6.65-6.634 11.365-11.625 11.445-21.543"/><path fill="#bcc1b7" d="M684 354c2.563 2.125 2.563 2.125 5 5-.187 3.313-.187 3.313-1 6l-1-3-2 1c-.652 2.025-.652 2.025-1 4h-2c-.193-4.824.243-8.496 2-13"/><path fill="#3a565b" d="M690 351q2.188.716 4.375 1.438l2.46.808C699 354 699 354 701 355c6.855.556 12.791.227 19.16-2.441C722 352 722 352 725 353c-8.988 4.266-19.83 6.357-29.543 3.164-2.5-1.371-4.168-2.586-5.457-5.164"/><path fill="#e1c989" d="M496 616c14.781-.369 14.781-.369 21 2v1h-26v-1h5z"/><path fill="#b9a36f" d="M762 609c-2.73 2.73-4.764 2.945-8.565 3.114l-2.857-.016-3.105-.01-3.223-.025-3.27-.014q-3.99-.018-7.98-.049v-1h16v-2c4.685-.833 8.387-1.272 13 0"/><path fill="#dab92e" d="m484 490-3 1v2l3 1q-4.281-.213-8.562-.437l-2.424-.12c-4.728-.25-9.339-.696-14.014-1.443v-1q4.563-.253 9.125-.5l2.594-.145c4.433-.238 8.839-.413 13.281-.355"/><path fill="#425e64" d="M873 449c2.188.313 2.188.313 4 1q-2.186 1.47-4.375 2.938l-2.46 1.652C868 456 868 456 866 457l-2 3h-2c-1.38.31-2.755.646-4.125 1l-2.195.563L854 462c3.44-4.029 8.34-5.904 12.969-8.281 2.988-1.494 2.988-1.494 4.687-3.5z"/><path fill="#8e9d99" d="M898 329c6.131 6.131 5.619 18.846 6 27l-1-4h-2z"/><path fill="#0b212d" d="M307 249h1c.98 10.49.896 20.513 0 31h-1c-1.835-10.322-.925-20.616 0-31"/><path fill="#dcc78e" d="M686 485c1 3 1 3 .313 5.125-1.633 2.332-2.59 2.365-5.313 2.875l-2 2a126 126 0 0 1-6 2c6.141-7.472 6.141-7.472 10-10z"/><path fill="#fcd648" d="M340 368h1l-1 24h-1l-1-11h-1v-11h3z"/><path fill="#123c6e" d="M910 116v1c-8.726.097-17.33.167-26-1v-1c17.573-1.809 17.573-1.809 26 1"/><path fill="#c77e14" d="m490 498 2 1a2091 2091 0 0 1-17 15l-4-3 3.25-1.375L478 508l2.375-1c1.973-.975 1.973-.975 2.625-4 1.629-1.387 1.629-1.387 3.563-2.687l1.94-1.325z"/><path fill="#709cb4" d="M778 168v3c-1.574 1.316-1.574 1.316-3.687 2.563l-2.2 1.296A47 47 0 0 1 765 178v-2l-2-1q3.184-1.757 6.375-3.5l1.828-1.012C775.773 168 775.773 168 778 168"/><path fill="#486367" d="m825 660 2 1-2 3 2 1-9 6-2-1c2.074-5.069 4.272-7.268 9-10"/><path fill="#cccfc5" d="m892 411 5 3c-.125 2.313-.125 2.313-1 5-4.862 3-4.862 3-8 3 1.213-3.724 2.509-7.378 4-11"/><path fill="#f0d441" d="m606 358 1 4-10 2c1-5 1-5 2.813-6.375 2.492-.712 3.774-.487 6.187.375"/><path fill="#c9cdc4" d="M689.688 325.313 692 326l-2 7h-5v6h-1a286 286 0 0 1-.187-5.312l-.106-2.989C684 328 684 328 685.344 326.125 687 325 687 325 689.687 325.313"/><path fill="#9f9163" d="m808 603 7 1-1 6 7-1-1 2c-5.22.435-5.22.435-8 0-2.5-2.312-2.5-2.312-4-5z"/><path fill="#aa9c73" d="M783 575h6v7l-5 1h6v1h-7z"/><path fill="#cf840a" d="M507 489a1399 1399 0 0 1-5.312 3.938l-2.989 2.214C496 497 496 497 493 498v-2h2v-3l-2-1a760 760 0 0 1 5.875-2.062l3.305-1.16C505 488 505 488 507 489m-17 4 3 1Z"/><path fill="#dabd34" d="M516 480h-2l-.812 3.438L512 487c-3 1-3 1-5.187.063L505 486v-3c1.264-.7 2.537-1.384 3.813-2.062l2.144-1.16C513 479 513 479 516 480"/><path fill="#f4ba24" d="M342 408h1c.418 2.08.808 4.164 1.188 6.25l.667 3.516C345 421 345 421 343.551 423.422L342 425c-1.743-5.229-2.374-9.478-2-15z"/><path fill="#4f6b6f" d="M889 380c2 2 2 2 2.25 4.25-.25 2.75-.25 2.75-1.172 5.496-1.47 4.436-2.347 8.953-3.297 13.524L886 406l-2 1c.765-5.87 1.881-11.639 3.063-17.437l.564-2.795q.684-3.385 1.373-6.768"/><path fill="#f2e5b2" d="M378 522c3.488 1.744 6.034 3.528 9 6h-2l-1 3-4-3-1 6h-1z"/><path fill="#829897" d="M813 288c-8.49 3.087-17.204 5.01-26 7v-2c3.579-1.037 7.164-2.052 10.75-3.062l3.078-.893 2.969-.83 2.73-.778c2.555-.451 4.044-.272 6.473.563"/><path fill="#a5b3af" d="M732 222c2 3 2 3 1.691 4.879L733 229a358 358 0 0 0-1.062 4.938l-.536 2.527c-.493 2.551-.493 2.551-.273 5.226L731 244l-3 2q.427-4.032.875-8.062l.238-2.28c.535-4.75 1.446-9.1 2.887-13.658"/><path fill="#859693" d="M714 683h1l1 6 3 1c-1.875 4.75-1.875 4.75-3 7l-1 3c-1.966-4.045-2.113-6.869-1.625-11.312l.336-3.239z"/><path fill="#d0b222" d="M440 487c4.833-.083 9.237.047 14 1-2.832 1.526-5.494 2.517-8.625 3.25l-2.352.578L441 492l-2-2h3v-2z"/><path fill="#b0a072" d="M833 571h5l1 7a88 88 0 0 1-5 1c-1-1-1-1-1.062-4.562z"/><path fill="#040d0f" d="M942.563 390.438c3.878.634 5.058 1.516 7.437 4.562l-1 2-1-3c-5.51-1.322-5.51-1.322-10.5.563-1.855 3.014-1.816 4.958-1.5 8.437l-2-1c-.462-3.976-.31-5.569 2.063-8.875C939 391 939 391 942.563 390.438"/><path fill="#455f63" d="M875 282a364 364 0 0 1 7.125-.25l2.016-.102c5.346-.104 7.817 1.154 11.859 4.352h-7v-2l-2.562.5c-3.53.513-6.877.571-10.438.5z"/><path fill="#ebd856" d="M403 270c0 3 0 3-2 6-1.66.364-3.327.7-5 1l-1 2 2 1-7-1c2.425-2.682 5.075-4.369 8.188-6.187l2.73-1.606z"/><path fill="#9faaa5" d="M712 407c2.951 1.476 3.07 3.5 4.125 6.563l1.07 3.066L718 419l-4 1c-2.914-4.778-3.199-7.551-2-13"/><path fill="#3d585d" d="M896 329c-2.967 1.648-5.656 2.443-9 3-1.339 2.929-1.339 2.929 0 5.438 1.118 2.865.867 3.725 0 6.562a742 742 0 0 1-2-4.812l-1.125-2.708C883 334 883 334 883 331c4.537-1.452 8.18-2.235 13-2"/><path fill="#aeb8b2" d="M836 206c.625 1.875.625 1.875 1 4-2 2-2 2-5 4-.73 2.563-.73 2.563-1 5h-1c-1.554-5.978-1.554-5.978-.023-8.8 3.427-4.2 3.427-4.2 6.023-4.2"/><path fill="#cdb67c" d="M700 602c6.455-.561 11.154 1.365 17 4v2c-5.929-1.167-11.388-2.755-17-5z"/><path fill="#dbb622" d="m432 483 1 6-9-3v-3c3.29-1.097 4.713-.8 8 0"/><path fill="#c6b17b" d="M546 353h5c1.837 3.782 2.158 5.946 1 10-2.617-2.368-4.329-4.896-6-8z"/><path fill="#fccf3e" d="M477 257h5v2h5v1h-27v-1l17-1z"/><path fill="#a1b0ac" d="m737 200 2 3c-.665 1.927-1.345 3.852-2.137 5.73-1.177 3.096-1.75 6.233-2.336 9.485L734 220l-2 1c2.105-18.105 2.105-18.105 5-21"/><path fill="#cbb37c" d="M384 372c1.154 3.462.496 5.053-.46 8.465-.903 4.244-.998 8.549-1.196 12.875L382 396l-2 1c.081-3.23.194-6.458.313-9.687l.068-2.764c.198-4.965.432-8.49 3.619-12.549"/><path fill="#0e242f" d="M324 175c1.125 1.688 1.125 1.688 2 4-.777 2.51-1.828 4.657-3 7h-2l-1 3c.467-5.414 1.243-9.205 4-14"/><path fill="#ccb32a" d="m494 488 1 4c-4.714-.48-8.666-.968-13-3v-1c4.333-.928 7.667-.928 12 0"/><path fill="#979e96" d="M811 458c3.75-.058 7.5-.094 11.25-.125l3.223-.05 3.105-.02 2.857-.032c2.665.236 4.284.87 6.565 2.227-6.625 1.125-6.625 1.125-10 0a73 73 0 0 0-4.012-.316l-2.295-.127-2.38-.12-2.417-.13q-2.947-.158-5.896-.307z"/><path fill="#f5d03c" d="M615 354c1.938.087 3.876.195 5.813.313l3.269.175C627 355 627 355 630 358h-16z"/><path fill="#eebe0c" d="M441 283a3652 3652 0 0 1-9.375 3.5l-2.695 1.012-2.578.957-2.38.888C422 290 422 290 420 290v-3l1.934-.148 2.503-.227c.824-.07 1.648-.14 2.497-.21L429 286l1-2c4.106-1.472 6.826-2.3 11-1"/><path fill="#d0820d" d="m544 471 1 2a937 937 0 0 1-7.312 2.563l-2.092.748c-5.256 1.802-5.256 1.802-8.596.689 4.79-3.712 7.977-4.506 14-5z"/><path fill="#071d33" d="M972 429h6v13l-3-1 1-11z"/><path fill="#4d6a6e" d="M718 704h3l1.332 2.324c2.063 3.31 3.79 4.02 7.356 5.489l3.011 1.269L735 714c-2.305.79-3.604 1.121-5.965.398-4.38-2.272-7.804-4.561-11.035-8.398z"/><path fill="#dfca8d" d="M603 493c7.483 6.15 7.483 6.15 10 10-2.187.438-2.187.438-5 0-2.995-3.011-5-5.702-5-10"/><path fill="#6d8383" d="M889 282v1c-1.77.081-3.541.14-5.312.188l-2.989.105C878 283 878 283 876.145 281.488L875 280c5.128-1.82 9.177.14 14 2"/><path fill="#fbbf24" d="M524 270c4.22.48 6.797 1.166 10 4l-1 3-10-5z"/><path fill="#d1d6d1" d="M727 242h1c1.684 5.426 2.605 8.66 0 14l-2 1c-.103-5.126-.036-9.95 1-15"/><path fill="#a4b2ae" d="M739 187h3l-2 11-3 1q.21-2.72.438-5.437c.08-1.01.162-2.02.246-3.06C738 188 738 188 739 187"/><path fill="#222c2a" d="m780 449 1 3 3 1v2l-14-3v-1z"/><path fill="#324d53" d="m860 435 2 1c-4.598 3.42-9.323 5.896-15 7-2.273-.426-2.273-.426-4-1l3.21-1.277 4.165-1.66 2.117-.842c3.8-1.506 3.8-1.506 7.508-3.221"/><path fill="#e2ba33" d="M340 396h1c.292 5.547-.81 10.62-2 16-1.929-3.581-2.411-5.889-2-10 1.5-3.375 1.5-3.375 3-6"/><path fill="#0f2936" d="m349 131 2 4-5 6-3-1c1.527-3.436 3.6-6.12 6-9"/><path fill="#243c41" d="M828 517h2v4h2v5l-4 1z"/><path fill="#d4b82b" d="m505 483 1 3 3 2c-5.75 2-5.75 2-8 2l-1-6c3-1 3-1 5-1"/><path fill="#344e54" d="M934 197c4.134 4.134 4.22 11.423 5 17l1 2-2 2q-1.01-3.84-2-7.687l-.578-2.186c-.97-3.796-1.672-7.173-1.422-11.127"/><path fill="#0c182d" d="m733 189-2 3c-2.602.512-2.602.512-5.625.688l-3.04.199L720 193l1-3c3.676-1.617 8.072-1.065 12-1"/><path fill="#899793" d="M710 456c2.5 2.174 3.436 3.73 4 7h-6l-1-5z"/><path fill="#385359" d="m901 400 .438 1.813c.45 1.749.99 3.474 1.562 5.187a110 110 0 0 1-3 7h-2c.514-4.97 1.234-9.29 3-14"/><path fill="#f8dd2f" d="m656.5 353.813 2.844-.043C662 354 662 354 666 356h-12v1h-6l-1-2c3.213-.947 6.155-1.165 9.5-1.187"/><path fill="#000831" d="M309 240h1c.097 6.115-.23 11.933-1 18h-1c-.223-2.06-.428-4.124-.625-6.187l-.352-3.481c-.023-3.365.503-5.344 1.977-8.332"/><path fill="#1e4a79" d="M877 117c-2.39 1.594-4.308 2.653-6.937 3.688-.67.271-1.339.543-2.028.824-2.363.567-3.754.248-6.035-.512 4.01-4.01 9.56-4.265 15-4"/><path fill="#d8b527" d="M515 478h2v3l3 1c-5.273 3.223-5.273 3.223-7 4l-2-1z"/><path fill="#365156" d="m871 426 2 2-9 8-2-2z"/><path fill="#d5d6cb" d="M899 401h1c-.48 4.714-.968 8.666-3 13h-4l1-4h3z"/><path fill="#405b60" d="M893 401c2 3 2 3 1.574 5.41l-.886 2.652-.864 2.66C892 414 892 414 891 416h-2c.673-3.811 1.754-7.34 3-11 .35-1.33.691-2.66 1-4"/><path fill="#f9cc3b" d="M338 387h1c1.517 10.558 1.517 10.558-1 15h-1c-.185-10.558-.185-10.558 1-15"/><path fill="#0c1e2e" d="m310 228 1 4h2l-2 8h-2l-1 2c.964-9.41.964-9.41 2-14"/><path fill="#193246" d="M948 157c3.326 2.693 4.585 6.037 6 10l-1 3h-2c-1.498-3.371-2-5.204-2-9a69 69 0 0 0-1-4"/><path fill="#f2e1a6" d="m690 469 13 1c-3.991 1.996-5.7 2.195-10 2l-3 7c-1.37-3.956-.778-5.332 0-10"/><path fill="#deb923" d="m557 444 2 2-2 5-3-1c-2.143.39-2.143.39-4 1 2.22-2.908 3.93-4.953 7-7"/><path fill="#dbbf42" d="m490 257 10 1c-2.312 2.063-2.312 2.063-5 4l-3-1v-2h-2z"/><path fill="#cbb279" d="M770 601h3c-1.491 3.795-3.757 5.61-7 8l-3-2 2-2 3 1z"/><path fill="#3e5a5e" d="M911 459c2.724 2.724 3 4.15 3 8-1.72 2.623-3.764 4.81-6 7l-1-2 2-2c2.68-4.019 2.322-6.253 2-11"/><path fill="#3d585e" d="m883 439 3 1-2.375 2.25c-2.19 2.294-3.452 3.872-4.625 6.75l-4-1z"/><path fill="#152426" d="m834 196 2 2-7 7-1-3z"/><path fill="#8aa0b0" d="m748 181 2 2 2 1c-5.415 3.077-5.415 3.077-8.375 2.688L742 186v-2z"/><path fill="#061931" d="m344 139 1 2c-1.125 3.063-1.125 3.063-3 6-2.687.875-2.687.875-5 1 1.963-3.534 4.04-6.245 7-9"/><path fill="#1a3f55" d="M927 127c7.258 5.968 7.258 5.968 9 8v2c-2.375-.187-2.375-.187-5-1-1.187-2.312-1.187-2.312-2-5a175 175 0 0 0-2-4"/><path fill="#132d35" d="m360 124 2 1-4 2zm-6 2 2 1v3l-4 2c0-4 0-4 2-6"/><path fill="#dbca97" d="M837 555c3.625-.187 3.625-.187 7 0l1 2-5 1-1 3-1-2 1-2-4 1z"/><path fill="#518dab" d="m812 148 2 1v2c-6.75 4-6.75 4-9 4v-3c5.273-3.223 5.273-3.223 7-4"/><path fill="#2d474c" d="M799 512h1c1.591 4.177 2.213 7.532 2 12l-3-1z"/><path fill="#365156" d="m881 507 2 1c-2.273 2.594-4.234 3.683-7.5 4.75l-2.344.797C871 514 871 514 868 513q3.18-1.544 6.375-3.062l3.586-1.723z"/><path fill="#d0d1cc" d="M724 223c1.884 3.265 2.493 6.281 3 10l-4 2c-.082-4.161.018-7.947 1-12"/><path fill="#4c676c" d="m863 456 2 1-1 3h-2c-1.38.31-2.755.646-4.125 1l-2.195.563L854 462c2.546-2.97 5.422-4.478 9-6"/><path fill="#050d16" d="M672 376h1v11l-8-1 1-2 6 1z"/><path fill="#9dadaa" d="M741 331q-2.434 1.256-4.875 2.5l-2.742 1.406C731 336 731 336 729 336c1-3 1-3 4.313-4.75 3.624-1.228 4.313-1.352 7.687-.25"/><path fill="#96a7a4" d="m766 316 3 2-10 5-1-3 3.438-.875L765 318z"/><path fill="#fdb30e" d="M438 264c-4.524 2.043-9.164 3.01-14 4 3.635-4.021 8.724-6.11 14-4"/><path fill="#f1f0ed" d="M722 241h1c.879 6.152.879 6.152 1 8l-1 1a70 70 0 0 0-.562 4.063L722 258h-1c-.185-11.522-.185-11.522 1-17"/><path fill="#7998aa" d="M781 166c2.125.938 2.125.938 4 2h-2v2c-1.812 1.063-1.812 1.063-4 2l-3-1h2l.375-1.937L779 167z"/><path fill="#466ea6" d="m820 143 3 1c-2.366 2.615-4.86 4.39-8 6l-2-1c2.168-2.276 4.327-4.33 7-6"/><path fill="#2e5c80" d="M864 122c-2.952 2.952-5.955 3.087-10 4 1-3 1-3 3.313-4.25 2.786-.778 4.021-.737 6.687.25"/><path fill="#cebb84" d="m479 615-1 2-10-1c4.18-2.786 6.147-1.796 11-1"/><path fill="#061011" d="M381 552c2.9 2.395 3.502 4.312 4 8l-3 1c-1.478-2.957-1.06-5.742-1-9"/><path fill="#e0b923" d="M434 486h7l1 4c-2.312.688-2.312.688-5 1-1.812-1.312-1.812-1.312-3-3z"/><path fill="#4d6a6e" d="M845 464v1l-11 3v-2l-3-1a75.6 75.6 0 0 1 14-1"/><path fill="#c8bd8c" d="m496 432-1 3c-5.415 1.23-5.415 1.23-8.375.063L485 434c7.625-2 7.625-2 11-2"/><path fill="#cec154" d="m445 257-1 3-9-1c3.991-1.996 5.7-2.195 10-2"/><path fill="#546f73" d="M896 148c-3.847 2.084-7.9 3.497-12 5v-3c4.12-1.998 7.452-2.178 12-2"/><path fill="#d4be83" d="M579 600c2.203.914 2.203.914 4 2q-1.934 1.007-3.875 2l-2.18 1.125C575 606 575 606 573 606v-3c2.75-1.625 2.75-1.625 6-3"/><path fill="#121814" d="m613 580 3 1-7 6-2-1z"/><path fill="#4f6a6d" d="M871 505c-3.909 2.606-6.33 2.704-11 3l-2-2a311 311 0 0 1 4.25-1.062l2.39-.598c2.464-.355 4.016-.109 6.36.66"/><path fill="#efb510" d="M377 442c3.938 3.323 3.938 3.323 4.25 6.75L381 451c-3.938-3.323-3.938-3.323-4.25-6.75z"/><path fill="#e73c19" d="m782 356 2 1-1 2a78 78 0 0 0-.062 4.625l.027 2.477L783 368h-2l-.586-6.152L780 360l-2-1z"/><path fill="#f6e345" d="M618 355c-3.235 1.742-6.435 3.09-10 4l-3-2c4.504-1.757 8.176-2.193 13-2"/><path fill="#99a6a1" d="M685 334h4c-.25 2.375-.25 2.375-1 5-2.062 1.313-2.062 1.313-4 2z"/><path fill="#000310" d="M974 328h3v7h-3z"/><path fill="#0f282c" d="M305 274h1l.184 2.23.253 2.957.247 2.918c.293 2.681.743 5.261 1.316 7.895-1.488-1.082-1.488-1.082-3-3-.293-3.137-.293-3.137-.187-6.687l.082-3.575z"/><path fill="#e2cc53" d="M424 262v2l2 1-1 2-5-1v-2l-2-1c3-1 3-1 6-1"/><path fill="#396588" d="M854 125c-1 3-1 3-2.812 4.25-2.527.866-3.71.635-6.188-.25 6.75-4 6.75-4 9-4"/><path fill="#e0ce93" d="M661 573c6.571 5 6.571 5 8 10a244 244 0 0 1-3.437-2.75l-1.934-1.547c-1.817-1.9-2.233-3.139-2.629-5.703"/><path fill="#243d42" d="m799 511 5 1-1 6-3-1z"/><path fill="#1a2625" d="M854 448h2v2l4 1-9 3c0-2 0-2 1.5-3.562L854 449z"/><path fill="#0b1817" d="m768 446 2 1Zm-3 1c4.75.75 4.75.75 7 3-2.606.93-3.642 1.15-6.25.063L764 449z"/><path fill="#c3c9bf" d="m892 411 5 3-1 5c-1.937-.812-1.937-.812-4-2-1-3-1-3 0-6"/><path fill="#a0aba6" d="M901 352h2l1 7-3 2z"/><path fill="#04184b" d="m962 199 1 3h2c.625 2.313.625 2.313 1 5l-2 3c-1.423-3.823-2.24-6.913-2-11"/><path fill="#38586f" d="M883.25 117.063 885 118l-7 2-1-2-3-2c3.877-1.292 5.63-.647 9.25 1.063"/><path fill="#61797a" d="m720 695 1 2h2l-1 2q-1.996.514-4 1l-2 2-1-2 1-3h4z"/><path fill="#a09063" d="M834 601h4l1 5-5-1-1-3z"/><path fill="#deca2b" d="M516 480h-2l-1 3-8 1c6.851-5.383 6.851-5.383 11-4"/><path fill="#c2c5bf" d="m877 436 1 2a159 159 0 0 1-5 6h-2c1.443-3.366 3.333-5.51 6-8"/><path fill="#7e9290" d="M707 394c3.006 3.006 2.596 5.824 3 10h-2l-1 2z"/><path fill="#476064" d="m902 390 3 4c-.812 3.75-.812 3.75-2 7l-2-1z"/><path fill="#415c60" d="M899 364c2.3 3.45 2.431 4.946 2 9l-3 2z"/><path fill="#dfb924" d="m532 271 8 4c-4 2-4 2-6 2z"/><path fill="#dece52" d="M403 270c0 3 0 3-2 6l-5-1c4.75-3.875 4.75-3.875 7-5"/><path fill="#fcc62e" d="M507 262c5.662 1.477 5.662 1.477 7.375 4.125L515 268l-7-2z"/><path fill="#92a09b" d="M714 683h1l1 6 3 1-1 2h-5z"/><path fill="#a19166" d="m785 604 2 2-1 3 3 1v2l-3 1c-1-1-1-1-1.098-2.848z"/><path fill="#cb7e13" d="m507 489-8 5v-4c5.75-2.125 5.75-2.125 8-1"/><path fill="#d7be28" d="m499 485-2 5-5-2c2.254-2.254 3.792-3 7-3"/><path fill="#e5c320" d="M421 480c2.438.375 2.438.375 5 1l1 2h-3v2l-3-1z"/><path fill="#f2bb17" d="m387 455 5 5h-2l-1 2c-2-2-2-2-2.125-4.625z"/><path fill="#171e1b" d="m533 443 1 3-4 4-3-1z"/><path fill="#294951" d="M899 372h1q.079 2.374.125 4.75l.07 2.672c-.204 2.692-.83 4.277-2.195 6.578a129 129 0 0 1-1-6l1-1q.553-3.492 1-7"/><path fill="#fcb110" d="M351 334c1 3 1 3-.312 6.625C349 344 349 344 347 345q.716-2.188 1.438-4.375l.808-2.46C350 336 350 336 351 334"/><path fill="#000a46" d="M970 240c2.565 2.565 2.54 4.477 3 8h-3z"/><path fill="#445e63" d="m844 210 2 1-7 8-2-2z"/><path fill="#8b9c99" d="m839 201 3 1v2l-1.875.875c-2.258 1.062-2.258 1.062-4.125 3.125l-1-3z"/><path fill="#375055" d="m811 670 2 1Zm-3 2h2v4l-4 1z"/><path fill="#00021d" d="M303 559h3v7l-2 1z"/><path fill="#e0d199" d="m670 499 2 1c-2.39 3.243-4.205 5.509-8 7 1.443-3.366 3.333-5.51 6-8"/><path fill="#e1a511" d="m581 319 3 4-1 2-4-1z"/><path fill="#466266" d="M874 299c3.438.813 3.438.813 7 2l1 3-9-3z"/><path fill="#7b9292" d="m813 288-9 3-1-2c4.108-1.587 5.592-2.102 10-1"/><path fill="#fbde5a" d="m389 279 7 1-5 4-2-1z"/><path fill="#051f47" d="M970 248h3l-1 9c-2.29-3.435-2.178-4.985-2-9"/><path fill="#b5bcb5" d="M733 189h4v2h-2l-2 4a88 88 0 0 1-1-5z"/><path fill="#081d4f" d="M957 177c1.746 2.62 2.387 4.038 3 7l-4-1a100 100 0 0 1 0-5z"/></svg>