<svg xmlns="http://www.w3.org/2000/svg" xmlns:xlink="http://www.w3.org/1999/xlink" id="_Слой_1" data-name="Слой_1" viewBox="0 0 500 500"><defs><style>.st0{fill:#fb9000}</style></defs><ellipse cx="250" cy="122.71" class="st0" rx="136.21" ry="127.29"/><path d="m137.67 250-33.23 15.93-31.59 20.1L42.9 316.8l-14.36 20.52-18.05 29.95-6.57 25.44-3.28 18.87 2.46 9.84 11.49 13.95 23.8 15.59 41.02 17.24 34.38 12.3 20.19 4.52 42.67 11.49 46.77 3.28h48.82l46.77-6.57 30.36-4.51 21.75-5.33 73.99-24.62 32.27-17.51 16.41-13.94 4.38-8.76v-12.31l-9.58-37.47-14.49-30.08-17.51-24.62-44.99-38.77-35.08-20.93-19.9-7.18-42.67 22.16-44.51 14.56-31.59.62-32-6.36-22.36-10.67-18.47-8.61-21.33-11.7z" class="st0"/><image href="/stickers/profile4.img0.png" width="512" height="512" transform="matrix(1.29 0 0 1.02 -79.3 -12.12)"/></svg>