<svg xmlns="http://www.w3.org/2000/svg" id="_Слой_1" data-name="Слой_1" viewBox="0 0 500 500"><defs><style>.st21{fill:#fed311}</style></defs><path d="M178.94 116.92c2.46 2.18 4.61 4.68 6.76 7.18 4.51 4.93 9.75 4.61 16.02 4.81l2.28.06c.78.02 1.55.05 2.35.07 1.9.06 3.79.11 5.69.16.2-.41.4-.82.6-1.24v1.24l1.21-.06c9.58-.43 19.14-.66 28.73-.65h65.64c19.78 0 39.56 0 59.33.07 2.43 0 4.86.01 7.3.02 5.77.01 11.53.04 17.3.09 1.57.01 3.14.02 4.71.02 2.06 0 4.12.03 6.18.06h1.73c4.56.1 7.45 1.72 10.7 4.99 2.77 4.73 2.36 10.19 2.37 15.54 0 .91.01 1.81.02 2.72.02 2.49.03 4.97.04 7.46.01 2.69.03 5.37.04 8.06.03 5.28.05 10.55.07 15.83l.06 13.03c.25 53.42.21 106.84.06 160.25-.03 10.03-.05 20.07-.06 30.1-.02 10.55-.04 21.09-.07 31.64-.02 5.83-.03 11.66-.04 17.48 0 4.88-.02 9.75-.04 14.63 0 2.47-.02 4.94-.02 7.41 0 2.26 0 4.52-.02 6.78v3.58c-.08 9.31-2.19 16.65-8.37 23.46-6.19 6-13.28 7.39-21.52 7.31-.72 0-1.44-.01-2.18-.02-10.82-.21-18.08-4.23-25.58-12.23-1.31-1.47-2.54-2.98-3.76-4.53-1.83-2.19-3.29-3.11-6.16-3.38-2.8.71-3.92 2.14-5.37 4.58-1.01 1.85-1.96 3.72-2.9 5.61q-.54 1.07-1.08 2.15t-.98 2.01c-1.79 2.95-3.94 4.43-7.1 5.52q-1.72.16-3.64.18c-.73 0-1.47.02-2.22.02h-2.43c-.86 0-1.72.01-2.58.02-2.35.02-4.69.03-7.04.04-2.5.01-4.99.03-7.49.05-5.37.04-10.73.06-16.1.09-3.31.02-6.62.03-9.94.05-25.48.14-50.95.26-76.43.02-1.72-.02-3.44-.03-5.16-.04-2.64-.02-5.27-.05-7.91-.08l-2.8-.03q-9.72-.07-13.73-3.86c-2.62-3.4-4.26-7.51-6.08-11.4-.81-1.73-1.66-3.44-2.53-5.14-.26-.52-.53-1.05-.8-1.58-.96-1.49-1.77-2.29-3.26-3.19q-1.33-.31-2.71-.27c-.45-.01-.91-.02-1.37-.04-1.86.43-2.49 1.32-3.74 2.79q-.92 1.72-1.71 3.64-.46 1.06-.92 2.13c-.62 1.48-1.25 2.95-1.87 4.43q-4.14 9.58-9.33 11.71c-3.77.93-7.65.81-11.51.77-1.51-.01-3.03 0-4.54.02-8.76.02-16.11-1.64-23.63-6.55-.42-.27-.85-.55-1.29-.83-10.56-7.45-15.93-21.35-18.28-33.82-.3-2.14-.36-4.19-.36-6.35v-5.57c0-1.03 0-2.07-.01-3.1 0-2.84-.01-5.68-.02-8.52 0-3.07-.02-6.13-.02-9.2-.02-6.02-.03-12.04-.04-18.07l-.03-14.78v-2.13c0-1.43 0-2.86-.01-4.29l-.09-40.33-.09-36.46-.09-37.7v-6.47c-.01-4.86-.02-9.72-.04-14.59-.05-18.03-.07-36.05-.03-54.07v-2.02c.02-8.86.06-17.71.12-26.57.02-2.56.03-5.12.04-7.68 0-2.97.03-5.94.06-8.91 0-1.08.01-2.17.01-3.25q.01-11.27 3.62-15.23c2.74-2.55 5.38-3.55 9.01-3.68.64-.02 1.29-.05 1.95-.07l2.11-.06c.74-.02 1.48-.05 2.24-.07 5.83-.17 11.65-.18 17.48-.15h1.3q5.94.03 11.88.09c2.2.02 4.4.04 6.61.05.83 0 1.65.01 2.48.03 1.14.02 2.29.02 3.43.02.65 0 1.29.01 1.96.02 4.53-.54 7.92-3.69 10.66-7.25 6.35-7.85 14.72-11.29 22.99-4.63Z" class="st21"/><path d="m67.76.63.6 1.24c.54-.1 1.07-.2 1.63-.31 3.39-.5 6.79-.41 10.21-.39h2.02q15.33.02 21.58 5.45c4.1 4.56 5.44 10.18 5.78 16.22l.08 1.31.18 3.19h.6v3.11l1.65-.06c14.55-.48 29.08-.65 43.64-.63h8.86c5.09 0 10.18 0 15.27.01 7.36 0 14.72.01 22.08.01 11.95 0 23.9.01 35.85.02h2.16c5.06 0 10.12 0 15.17.01 5.81 0 11.63 0 17.44.01h2.17c11.94 0 23.88.01 35.82.02 7.35 0 14.7 0 22.05.02h40.66q1.65.04 2.88-.7v1.24h14.43c.8-1.65.7-3.17.75-4.98.19-6.56.96-12.83 5.27-18 4.3-3.51 8.69-5.84 14.24-6.02l1.41-.06c5.03-.18 10.06-.21 15.09-.24.96 0 1.92-.01 2.89-.02 8.03-.07 14.52.43 21.45 4.87 3.81 3.94 6.28 9.05 6.35 14.63 0 1.18-.02 2.36-.04 3.54 0 .61-.01 1.21-.02 1.83-.01 1.49-.03 2.97-.06 4.45.36 0 .72-.01 1.09-.02 3.75-.06 7.49-.09 11.24-.12 1.4-.01 2.79-.03 4.19-.05 2.01-.03 4.02-.04 6.03-.06.62-.01 1.24-.03 1.88-.04 4.62 0 7.8.95 11.32 4.08.38.45.76.9 1.15 1.37.39.45.78.89 1.18 1.35 2.76 4.3 2.4 9.15 2.4 14.13 0 .79 0 1.59.01 2.4v5.02c0 2.13.02 4.26.04 6.38.02 2.05.02 4.1.02 6.15 0 .76.02 1.51.03 2.29-.03 5.18-.69 9.7-3.83 13.88-.38.31-.75.63-1.14.95-.37.33-.74.65-1.12.99-4.26 2.71-8.01 3.04-12.9 2.96h-1.88c-1.97-.01-3.93-.03-5.9-.06-1.34 0-2.68-.02-4.02-.03q-4.905-.03-9.81-.09c.01.38.03.76.04 1.16.05 1.76.08 3.53.11 5.29l.06 1.82c.08 6.36-1.74 11.31-5.97 15.93-4.3 3.76-9.26 5.68-14.84 5.72-.62 0-1.24.01-1.87.02h-2.01c-.69 0-1.38 0-2.09.01-1.46 0-2.91 0-4.37.01-2.22 0-4.43.03-6.64.04h-4.26c-.66 0-1.31.02-1.99.02-6.82-.02-11.9-1.53-16.88-6.44-6.1-6.51-5.53-14.04-6.01-22.98-93.04-.2-186.08-.41-281.95-.62v11.8c-1.67 6.89-3.37 10.69-9.02 14.91-5.05 2.98-9.96 3.21-15.67 3.25q-.97 0-1.95.02c-1.36 0-2.72.02-4.08.02-1.38 0-2.76.02-4.14.04q-18.76.25-24.36-5.27c-4.65-4.75-6.32-9.76-6.37-16.46 0-1 .01-1.99.02-2.99v-1.56c0-1.25.02-2.51.03-3.76q-.51 0-1.04.01-5.37.06-10.74.09c-1.33 0-2.67.02-4 .04-1.92.02-3.85.03-5.77.04-.59 0-1.18.02-1.79.03-5.61 0-9.97-1.18-14.1-5.2-4.13-4.85-4.14-10.42-4.12-16.58V52.31q.04-12.89 4.04-17.4c4.49-4.24 8.56-4.79 14.46-4.7h2q3.15.015 6.3.06c1.43 0 2.86.02 4.29.03 3.49.02 6.99.05 10.48.09 0-.36 0-.71-.01-1.08-.02-1.63-.03-3.26-.04-4.89 0-.56-.02-1.12-.02-1.7-.03-6.2 1.28-10.89 5.49-15.45 4.54-4.19 7.94-5.57 13.98-5.5h1.36c1.1 0 2.2.02 3.3.03V.63Z" style="fill:#dfad0e"/><path d="M149.35 188.5c.9 0 1.8 0 2.71-.01 2.47-.01 4.94-.01 7.42 0 2.67 0 5.34 0 8.01-.02 5.23-.02 10.45-.02 15.68-.02h18.27c11.52-.01 23.05-.01 34.57 0 10.54 0 21.08 0 31.62-.03 10.82-.02 21.65-.03 32.47-.03 6.08 0 12.15 0 18.23-.02 5.17-.01 10.34-.02 15.52 0h7.91c2.42-.01 4.83 0 7.25 0h2.62c5.5-.06 9.38.57 13.73 4.21q1.35 1.52 2.14 2.91c.27.46.55.93.83 1.4 1.92 3.85 1.99 8.76.74 12.85-1.71 3.48-4.11 5.67-7.31 7.67-.32.22-.63.44-.96.66-2.15.86-4.28.73-6.55.7h-1.49c-1.56 0-3.12-.02-4.69-.04-1.06 0-2.12-.01-3.18-.02-2.6-.01-5.19-.04-7.79-.06-.18.38-.35.75-.54 1.14-1.59 3.2-3.39 5.07-6.68 6.31-4.9.79-9.12-1.57-13.07-4.5-3.12-2.26-5.46-2.78-9.23-2.73q-.79 0-1.6-.01c-1.76-.01-3.53 0-5.29 0-1.27 0-2.54 0-3.8-.02-3.44-.01-6.87 0-10.31 0h-10.8c-6.04 0-12.08 0-18.12.02-6.98.02-13.97.01-20.95 0-6-.01-12-.02-18 0h-10.75c-3.37 0-6.73 0-10.1.02h-3.71c-1.69 0-3.37 0-5.06.02-.49 0-.98-.01-1.48-.02-3.49.06-4.98.95-7.43 3.52-6.59 8.43-5.67 19.27-5.63 29.45v28.69c-.01 7.72-.02 15.43-.02 23.15v23.85c0 7.69 0 15.39-.02 23.08 0 4.74-.01 9.48 0 14.22v21.43c0 .59.01 1.18.02 1.79-.04 3.47-.44 5.52-2.72 8.25-2.74 2.11-4.82 2.9-8.25 2.72-3.15-.55-5.45-1.94-7.64-4.32-1.34-2.16-1.62-3.79-1.61-6.3v-45.16c0-8.61 0-17.21.01-25.82 0-8.36 0-16.72.01-25.09v-9.31c0-21.45.02-42.9.03-64.35-.39.01-.79.03-1.19.04-1.81.05-3.61.08-5.42.12l-1.88.06c-4.91.06-8.07-.85-11.8-4.18-3.43-4.14-4.57-7.09-4.48-12.44.33-4.24 1.94-6.93 4.81-9.91 4.89-3.75 9.05-3.86 14.98-3.83Z" style="fill:#deab0d"/><path d="M425.47 1.13c1.64 0 3.29-.01 4.93-.02 8.01-.03 14.35.45 21.28 4.88 3.81 3.94 6.28 9.05 6.35 14.63 0 1.18-.02 2.36-.04 3.54 0 .61-.01 1.21-.02 1.83-.01 1.49-.03 2.97-.06 4.45.36 0 .72-.01 1.09-.02 3.75-.06 7.49-.09 11.24-.12 1.4-.01 2.79-.03 4.19-.05 2.01-.03 4.02-.04 6.03-.06.62-.01 1.24-.03 1.88-.04 4.62 0 7.8.95 11.32 4.08.38.45.76.9 1.15 1.37.39.45.78.89 1.18 1.35 2.76 4.3 2.4 9.15 2.4 14.13q0 1.19.01 2.4v5.02c0 2.13.02 4.26.04 6.38.02 2.05.02 4.1.02 6.15 0 .76.02 1.51.03 2.29-.03 5.18-.69 9.7-3.83 13.88-.38.31-.75.63-1.14.95-.37.33-.74.65-1.12.99-4.26 2.71-8.01 3.04-12.9 2.96h-1.88c-1.97-.01-3.93-.03-5.9-.06-1.34 0-2.68-.02-4.02-.03q-4.905-.03-9.81-.09l.04 1.16c.05 1.76.08 3.53.11 5.29l.06 1.82c.08 6.36-1.74 11.31-5.97 15.93-4.3 3.76-9.26 5.68-14.84 5.72-.62 0-1.24.01-1.87.02h-2.01c-.69 0-1.38 0-2.09.01-1.46 0-2.91 0-4.37.01-2.22 0-4.43.03-6.64.04h-4.26c-.66 0-1.31.02-1.99.02-6.82-.02-11.9-1.53-16.88-6.44-5.46-5.83-5.63-12.97-5.88-20.65q.03-2.21-.73-3.57h1.8V31.06h-1.8q.3-.915.6-1.86c.06-1.26.11-2.53.14-3.79.19-6.54.98-12.79 5.27-17.95 8.68-7.08 18.36-6.33 28.87-6.33Z" style="fill:#fed212"/><path d="m67.76.63.6 1.24c.54-.1 1.07-.2 1.63-.31 3.39-.5 6.79-.41 10.21-.39h2.02q15.33.02 21.58 5.45c4.63 5.16 5.2 10.78 5.19 17.57 0 .86.02 1.72.02 2.59.02 2.33.03 4.65.03 6.98 0 2.44.03 4.88.04 7.32.03 4.1.04 8.2.06 12.29.01 4.73.04 9.46.07 14.19.03 4.56.06 9.12.08 13.68 0 1.94.02 3.87.03 5.81l.03 6.84c0 1.23.01 2.46.02 3.69 0 6.37-.6 12.52-4.91 17.42-6.03 5.86-11.88 6.83-19.91 6.89q-.97 0-1.95.02c-1.36 0-2.72.02-4.08.02-1.38 0-2.76.02-4.14.04q-18.76.25-24.36-5.27c-4.65-4.75-6.32-9.76-6.37-16.46 0-1 .01-1.99.02-2.99v-1.56c0-1.25.02-2.51.03-3.76q-.51 0-1.04.01-5.37.06-10.74.09c-1.33 0-2.67.02-4 .04-1.92.02-3.85.03-5.77.04-.59 0-1.18.02-1.79.03-5.61 0-9.97-1.18-14.1-5.2-4.13-4.85-4.14-10.42-4.12-16.58V52.38q.04-12.89 4.04-17.4c4.49-4.24 8.56-4.79 14.46-4.7h2q3.15.015 6.3.06c1.43 0 2.86.02 4.29.03 3.49.02 6.99.05 10.48.09 0-.36 0-.71-.01-1.08-.02-1.63-.03-3.26-.04-4.89 0-.56-.02-1.12-.02-1.7-.03-6.2 1.28-10.89 5.49-15.45 4.54-4.19 7.94-5.57 13.98-5.5h1.36c1.1 0 2.2.02 3.3.03V.63Z" class="st21"/><path d="M214.5 268.24H226c3.71 0 7.41-.01 11.12-.01h6.94c6.41 0 12.81-.01 19.22-.02h6.24c6.69 0 13.39-.01 20.08-.03 6.87-.01 13.75-.02 20.62-.02 3.86 0 7.72 0 11.58-.02q5.445-.015 10.89 0h9.46c.53 0 1.05-.01 1.6-.02 3.79.03 6.74.63 9.69 3.29.34.42.67.83 1.02 1.26.35.42.69.83 1.05 1.26 1.83 2.78 1.79 6.09 1.43 9.34-1.01 3.73-2.85 5.63-6.07 7.51-2.79 1.38-5.4 1.28-8.42 1.29h-1.72c-1.91 0-3.82.02-5.73.02-1.37 0-2.73.01-4.1.02-4.49.02-8.98.03-13.48.04h-2.32c-7.2.02-14.41.04-21.61.05h-6.27c-6.71.01-13.43.04-20.14.07-6.9.03-13.79.05-20.69.05-3.87 0-7.74.01-11.61.04-3.64.02-7.28.03-10.93.02-1.34 0-2.67 0-4.01.02-1.83.02-3.65.01-5.48 0q-.79.02-1.59.03c-4.05-.06-6.68-1.52-9.75-4.21-2.59-3.51-2.87-7.5-2.4-11.8 1.47-3.15 3.88-5.44 6.61-7.45 2.42-.83 4.74-.71 7.26-.71Zm-.44 114.9h1.57c1.74 0 3.49 0 5.23-.01 1.25 0 2.5 0 3.74-.01 3.4-.01 6.79-.02 10.19-.02 2.12 0 4.24 0 6.36-.01l19.91-.03c7.66 0 15.32-.02 22.99-.05q8.88-.03 17.76-.03c3.54 0 7.07 0 10.61-.02 3.33-.01 6.66-.02 9.98-.01 1.22 0 2.44 0 3.66-.01 1.67-.01 3.34 0 5.01 0l1.46-.02c3.71.04 6.9 1.04 9.68 3.68 2.55 2.99 3.56 5.62 3.43 9.61-.46 4.12-1.92 6.64-5.01 9.25-3.02 2-5.8 2.19-9.32 2.17h-1.57c-1.74 0-3.48 0-5.22.01-1.25 0-2.5 0-3.74.02-3.39.01-6.78.02-10.17.02-2.12 0-4.24 0-6.36.01-7.39.02-14.78.02-22.18.03-6.89 0-13.78.02-20.67.05-5.92.02-11.83.03-17.75.03-3.53 0-7.07 0-10.6.02-3.32.02-6.65.02-9.97 0-1.22 0-2.44 0-3.66.01-1.67.01-3.33 0-5 0-.48 0-.96.02-1.45.02-3.98-.06-6.86-1.58-9.69-4.47-2.76-3.28-2.88-6.06-2.83-10.25.36-3.98 2.98-6.1 5.77-8.54 2.39-1.76 5.03-1.46 7.84-1.46Zm3.93-56.88c.96 0 1.92 0 2.88-.01 2.59 0 5.19 0 7.78.02 2.72.02 5.44.01 8.16.01 4.57 0 9.13.02 13.7.04 5.27.03 10.55.04 15.82.04 5.62 0 11.25.01 16.87.03h4.85c2.54 0 5.09.01 7.63.03h2.8c1.27 0 2.55 0 3.82.02h2.16c3.2.39 5.53 1.71 7.56 4.28.3.37.59.73.89 1.11 2.02 2.99 1.64 6.9 1.32 10.38-.91 2.74-2.62 5.04-4.81 6.83-2.64 1.1-4.87 1.4-7.71 1.41h-5.18c-.95 0-1.91 0-2.86.01-2.58.01-5.17.01-7.75.01h-4.85c-5.64.01-11.27.02-16.91.02q-7.875 0-15.75.03c-4.51.02-9.02.02-13.54.02-2.69 0-5.39 0-8.08.02-2.53.01-5.07.01-7.6 0h-2.78q-8.69.07-12.2-2.8-1.05-1.11-1.73-2.17c-.23-.35-.47-.7-.71-1.07-1.63-3.18-1.71-7.08-.82-10.52 3.13-7.65 9.96-7.9 17.02-7.81Z" style="fill:#ddaa0d"/><path d="M20.78 30.26h1.81c2.22 0 4.44.04 6.66.06l15.07.12v61.49q-32.92 0-38.04-4.99c-4.13-4.85-4.14-10.42-4.12-16.58V52.38q.04-12.89 4.04-17.4c4.53-4.28 8.64-4.79 14.59-4.7Z" style="fill:#e0ad0e"/><path d="M457.92 30.44q31.47 0 35.75 3.8c.38.45.76.9 1.15 1.37q.58.67 1.18 1.35c2.76 4.3 2.4 9.15 2.4 14.13q0 1.19.01 2.4v5.02c0 2.13.02 4.26.04 6.38.02 2.05.02 4.1.02 6.15 0 .76.02 1.51.03 2.29-.03 5.18-.69 9.7-3.83 13.88-.38.31-.75.63-1.14.95-.37.33-.74.65-1.12.99-10.32 6.57-22.76 2.78-34.5 2.78V30.44Z" style="fill:#e0ad0f"/><path d="M109.24 31.06h2.4v1.86h-1.8V88.2h-.6z" style="fill:#d39d0e"/><path d="M498.8 64.6c.4.82.79 1.64 1.2 2.48l-1.2.62v-3.11Z" style="fill:#d1a10d"/><path d="M287.79 499.38h3.01v.62h-3.01z" style="fill:#f5c910"/><path d="M498.8 69.57h.6v3.11h-.6z" style="fill:#d2a10d"/><path d="M390.59 19.88h.6v3.11h-.6z" style="fill:#f1c315"/><path d="m325.66 499.38 2.4.62z" style="fill:#f2c611"/><path d="m121.27 499.38 2.4.62z" style="fill:#efc212"/><path d="m80.39 442.86.6 2.48z" style="fill:#f2c50e"/><path d="m80.39 337.89.6 2.48z" style="fill:#f3c50f"/><path d="m498.8 50.32.6 2.48z" style="fill:#d0a00e"/><path d="m320.25 499.38 1.8.62z" style="fill:#f2c712"/><path d="m390.59 499.38 1.2.62z" style="fill:#edc411"/><path d="m385.18 499.38 1.2.62z" style="fill:#f2c411"/><path d="m331.67 499.38 1.2.62z" style="fill:#eec20f"/><path d="m322.66 499.38 1.2.62z" style="fill:#f2c810"/><path d="m318.45 499.38 1.2.62z" style="fill:#f3ca11"/><path d="m293.8 499.38 1.2.62z" style="fill:#f4c912"/><path d="m284.18 499.38 1.2.62z" style="fill:#f4c810"/><path d="m225.87 499.38 1.2.62z" style="fill:#f2ca11"/><path d="m397.2 498.76 1.2.62z" style="fill:#edc112"/><path d="m373.76 497.52 1.2.62z" style="fill:#f6c812"/><path d="m161.54 473.91 1.2.62z" style="fill:#fad313"/><path d="m94.82 127.95 1.2.62z" style="fill:#fed113"/><path d="m400.81 3.11 1.2.62z" style="fill:#f3c713"/></svg>