<?xml version="1.0" encoding="UTF-8"?>
<svg id="_Слой_1" data-name="Слой_1" xmlns="http://www.w3.org/2000/svg" version="1.1" viewBox="0 0 500 500">
  <!-- Generator: Adobe Illustrator 29.8.1, SVG Export Plug-In . SVG Version: 2.1.1 Build 2)  -->
  <defs>
    <style>
      .st0 {
        fill: #e0ad0e;
      }

      .st1 {
        fill: #f2c411;
      }

      .st2 {
        fill: #f2ca11;
      }

      .st3 {
        fill: #f2c810;
      }

      .st4 {
        fill: #fad313;
      }

      .st5 {
        fill: #edc411;
      }

      .st6 {
        fill: #d0a00e;
      }

      .st7 {
        fill: #deab0d;
      }

      .st8 {
        fill: #d2a10d;
      }

      .st9 {
        fill: #edc112;
      }

      .st10 {
        fill: #fed113;
      }

      .st11 {
        fill: #f4c912;
      }

      .st12 {
        fill: #f3ca11;
      }

      .st13 {
        fill: #f4c810;
      }

      .st14 {
        fill: #f2c50e;
      }

      .st15 {
        fill: #f1c315;
      }

      .st16 {
        fill: #e0ad0f;
      }

      .st17 {
        fill: #d1a10d;
      }

      .st18 {
        fill: #f2c712;
      }

      .st19 {
        fill: #efc212;
      }

      .st20 {
        fill: #f6c812;
      }

      .st21 {
        fill: #fed311;
      }

      .st22 {
        fill: #eec20f;
      }

      .st23 {
        fill: #f2c611;
      }

      .st24 {
        fill: #fed212;
      }

      .st25 {
        fill: #f3c50f;
      }

      .st26 {
        fill: #ddaa0d;
      }

      .st27 {
        fill: #f3c713;
      }

      .st28 {
        fill: #d39d0e;
      }

      .st29 {
        fill: #dfad0e;
      }

      .st30 {
        fill: #f5c910;
      }
    </style>
  </defs>
  <path class="st21" d="M178.94,116.92c2.46,2.18,4.61,4.68,6.76,7.18,4.51,4.93,9.75,4.61,16.02,4.81q1.13.03,2.28.06c.78.02,1.55.05,2.35.07,1.9.06,3.79.11,5.69.16.2-.41.4-.82.6-1.24v1.24q.6-.03,1.21-.06c9.58-.43,19.14-.66,28.73-.65,1.35,0,2.7,0,4.05,0,3.62,0,7.25,0,10.87,0,3.85,0,7.7,0,11.55,0,6.9,0,13.79,0,20.69,0,6.16,0,12.32,0,18.48,0,19.78,0,39.56,0,59.33.07,2.43,0,4.86.01,7.3.02,5.77.01,11.53.04,17.3.09,1.57.01,3.14.02,4.71.02,2.06,0,4.12.03,6.18.06.57,0,1.14,0,1.73,0,4.56.1,7.45,1.72,10.7,4.99,2.77,4.73,2.36,10.19,2.37,15.54,0,.91.01,1.81.02,2.72.02,2.49.03,4.97.04,7.46.01,2.69.03,5.37.04,8.06.03,5.28.05,10.55.07,15.83.02,4.34.04,8.68.06,13.03.25,53.42.21,106.84.06,160.25-.03,10.03-.05,20.07-.06,30.1-.02,10.55-.04,21.09-.07,31.64-.02,5.83-.03,11.66-.04,17.48,0,4.88-.02,9.75-.04,14.63,0,2.47-.02,4.94-.02,7.41,0,2.26,0,4.52-.02,6.78,0,1.19,0,2.39,0,3.58-.08,9.31-2.19,16.65-8.37,23.46-6.19,6-13.28,7.39-21.52,7.31-.72,0-1.44-.01-2.18-.02-10.82-.21-18.08-4.23-25.58-12.23-1.31-1.47-2.54-2.98-3.76-4.53-1.83-2.19-3.29-3.11-6.16-3.38-2.8.71-3.92,2.14-5.37,4.58-1.01,1.85-1.96,3.72-2.9,5.61q-.54,1.07-1.08,2.15t-.98,2.01c-1.79,2.95-3.94,4.43-7.1,5.52q-1.72.16-3.64.18c-.73,0-1.47.02-2.22.02-.81,0-1.62,0-2.43,0-.86,0-1.72.01-2.58.02-2.35.02-4.69.03-7.04.04-2.5.01-4.99.03-7.49.05-5.37.04-10.73.06-16.1.09-3.31.02-6.62.03-9.94.05-25.48.14-50.95.26-76.43.02-1.72-.02-3.44-.03-5.16-.04-2.64-.02-5.27-.05-7.91-.08-.93-.01-1.86-.02-2.8-.03q-9.72-.07-13.73-3.86c-2.62-3.4-4.26-7.51-6.08-11.4-.81-1.73-1.66-3.44-2.53-5.14-.26-.52-.53-1.05-.8-1.58-.96-1.49-1.77-2.29-3.26-3.19q-1.33-.31-2.71-.27c-.45-.01-.91-.02-1.37-.04-1.86.43-2.49,1.32-3.74,2.79q-.92,1.72-1.71,3.64-.46,1.06-.92,2.13c-.62,1.48-1.25,2.95-1.87,4.43q-4.14,9.58-9.33,11.71c-3.77.93-7.65.81-11.51.77-1.51-.01-3.03,0-4.54.02-8.76.02-16.11-1.64-23.63-6.55-.42-.27-.85-.55-1.29-.83-10.56-7.45-15.93-21.35-18.28-33.82-.3-2.14-.36-4.19-.36-6.35q0-.64,0-1.29c0-1.43,0-2.85,0-4.28,0-1.03,0-2.07-.01-3.1,0-2.84-.01-5.68-.02-8.52,0-3.07-.02-6.13-.02-9.2-.02-6.02-.03-12.04-.04-18.07-.01-4.93-.02-9.85-.03-14.78q0-1.06,0-2.13c0-1.43,0-2.86-.01-4.29-.03-13.44-.06-26.89-.09-40.33-.03-12.15-.06-24.31-.09-36.46-.03-12.57-.06-25.13-.09-37.7,0-1.44,0-2.88,0-4.32,0-.71,0-1.42,0-2.15-.01-4.86-.02-9.72-.04-14.59-.05-18.03-.07-36.05-.03-54.07,0-.67,0-1.33,0-2.02.02-8.86.06-17.71.12-26.57.02-2.56.03-5.12.04-7.68,0-2.97.03-5.94.06-8.91,0-1.08.01-2.17.01-3.25q.01-11.27,3.62-15.23c2.74-2.55,5.38-3.55,9.01-3.68.64-.02,1.29-.05,1.95-.07q1.05-.03,2.11-.06c.74-.02,1.48-.05,2.24-.07,5.83-.17,11.65-.18,17.48-.15.43,0,.86,0,1.3,0,3.96.02,7.92.05,11.88.09,2.2.02,4.4.04,6.61.05.83,0,1.65.01,2.48.03,1.14.02,2.29.02,3.43.02.65,0,1.29.01,1.96.02,4.53-.54,7.92-3.69,10.66-7.25,6.35-7.85,14.72-11.29,22.99-4.63Z"/>
  <path class="st29" d="M67.76.63l.6,1.24c.54-.1,1.07-.2,1.63-.31,3.39-.5,6.79-.41,10.21-.39.67,0,1.33,0,2.02,0q15.33.02,21.58,5.45c4.1,4.56,5.44,10.18,5.78,16.22q.04.65.08,1.31c.06,1.06.12,2.13.18,3.19h.6v3.11c.54-.02,1.09-.04,1.65-.06,14.55-.48,29.08-.65,43.64-.63,2.95,0,5.91,0,8.86,0,5.09,0,10.18,0,15.27.01,7.36,0,14.72.01,22.08.01,11.95,0,23.9.01,35.85.02.71,0,1.42,0,2.16,0,5.06,0,10.12,0,15.17.01,5.81,0,11.63,0,17.44.01q1.08,0,2.17,0c11.94,0,23.88.01,35.82.02,7.35,0,14.7,0,22.05.02,5.02,0,10.04,0,15.06,0,2.9,0,5.79,0,8.69,0,2.65,0,5.29,0,7.94,0,.96,0,1.92,0,2.88,0,1.3,0,2.6,0,3.9,0q1.09,0,2.19,0,1.65.04,2.88-.7v1.24h14.43c.8-1.65.7-3.17.75-4.98.19-6.56.96-12.83,5.27-18,4.3-3.51,8.69-5.84,14.24-6.02.47-.02.93-.04,1.41-.06,5.03-.18,10.06-.21,15.09-.24.96,0,1.92-.01,2.89-.02,8.03-.07,14.52.43,21.45,4.87,3.81,3.94,6.28,9.05,6.35,14.63,0,1.18-.02,2.36-.04,3.54,0,.61-.01,1.21-.02,1.83-.01,1.49-.03,2.97-.06,4.45.36,0,.72-.01,1.09-.02,3.75-.06,7.49-.09,11.24-.12,1.4-.01,2.79-.03,4.19-.05,2.01-.03,4.02-.04,6.03-.06.62-.01,1.24-.03,1.88-.04,4.62,0,7.8.95,11.32,4.08.38.45.76.9,1.15,1.37.39.45.78.89,1.18,1.35,2.76,4.3,2.4,9.15,2.4,14.13,0,.79,0,1.59.01,2.4,0,1.67,0,3.35,0,5.02,0,2.13.02,4.26.04,6.38.02,2.05.02,4.1.02,6.15,0,.76.02,1.51.03,2.29-.03,5.18-.69,9.7-3.83,13.88-.38.31-.75.63-1.14.95-.37.33-.74.65-1.12.99-4.26,2.71-8.01,3.04-12.9,2.96-.62,0-1.24,0-1.88,0-1.97-.01-3.93-.03-5.9-.06-1.34,0-2.68-.02-4.02-.03-3.27-.02-6.54-.05-9.81-.09.01.38.03.76.04,1.16.05,1.76.08,3.53.11,5.29.02.6.04,1.2.06,1.82.08,6.36-1.74,11.31-5.97,15.93-4.3,3.76-9.26,5.68-14.84,5.72-.62,0-1.24.01-1.87.02q-.99,0-2.01,0c-.69,0-1.38,0-2.09.01-1.46,0-2.91,0-4.37.01-2.22,0-4.43.03-6.64.04-1.42,0-2.84,0-4.26,0-.66,0-1.31.02-1.99.02-6.82-.02-11.9-1.53-16.88-6.44-6.1-6.51-5.53-14.04-6.01-22.98-93.04-.2-186.08-.41-281.95-.62v11.8c-1.67,6.89-3.37,10.69-9.02,14.91-5.05,2.98-9.96,3.21-15.67,3.25q-.97,0-1.95.02c-1.36,0-2.72.02-4.08.02-1.38,0-2.76.02-4.14.04q-18.76.25-24.36-5.27c-4.65-4.75-6.32-9.76-6.37-16.46,0-1,.01-1.99.02-2.99,0-.51,0-1.03,0-1.56,0-1.25.02-2.51.03-3.76q-.51,0-1.04.01c-3.58.04-7.16.07-10.74.09-1.33,0-2.67.02-4,.04-1.92.02-3.85.03-5.77.04-.59,0-1.18.02-1.79.03-5.61,0-9.97-1.18-14.1-5.2-4.13-4.85-4.14-10.42-4.12-16.58q0-.96,0-1.94c0-1.36,0-2.71,0-4.07,0-2.06,0-4.12,0-6.17,0-1.32,0-2.64,0-3.96,0-.61,0-1.22,0-1.84q.04-12.89,4.04-17.4c4.49-4.24,8.56-4.79,14.46-4.7.66,0,1.32,0,2,0,2.1.01,4.2.03,6.3.06,1.43,0,2.86.02,4.29.03,3.49.02,6.99.05,10.48.09,0-.36,0-.71-.01-1.08-.02-1.63-.03-3.26-.04-4.89,0-.56-.02-1.12-.02-1.7-.03-6.2,1.28-10.89,5.49-15.45,4.54-4.19,7.94-5.57,13.98-5.5.45,0,.9,0,1.36,0,1.1,0,2.2.02,3.3.03V.63Z"/>
  <path class="st7" d="M149.35,188.5c.9,0,1.8,0,2.71-.01,2.47-.01,4.94-.01,7.42,0,2.67,0,5.34,0,8.01-.02,5.23-.02,10.45-.02,15.68-.02,4.25,0,8.5,0,12.75,0,.6,0,1.21,0,1.83,0,1.23,0,2.46,0,3.69,0,11.52-.01,23.05-.01,34.57,0,10.54,0,21.08,0,31.62-.03,10.82-.02,21.65-.03,32.47-.03,6.08,0,12.15,0,18.23-.02,5.17-.01,10.34-.02,15.52,0,2.64,0,5.28,0,7.91,0,2.42-.01,4.83,0,7.25,0,.87,0,1.74,0,2.62,0,5.5-.06,9.38.57,13.73,4.21q1.35,1.52,2.14,2.91c.27.46.55.93.83,1.4,1.92,3.85,1.99,8.76.74,12.85-1.71,3.48-4.11,5.67-7.31,7.67-.32.22-.63.44-.96.66-2.15.86-4.28.73-6.55.7-.49,0-.98,0-1.49,0-1.56,0-3.12-.02-4.69-.04-1.06,0-2.12-.01-3.18-.02-2.6-.01-5.19-.04-7.79-.06-.18.38-.35.75-.54,1.14-1.59,3.2-3.39,5.07-6.68,6.31-4.9.79-9.12-1.57-13.07-4.5-3.12-2.26-5.46-2.78-9.23-2.73q-.79,0-1.6-.01c-1.76-.01-3.53,0-5.29,0-1.27,0-2.54,0-3.8-.02-3.44-.01-6.87,0-10.31,0-3.6,0-7.2,0-10.8,0-6.04,0-12.08,0-18.12.02-6.98.02-13.97.01-20.95,0-6-.01-12-.02-18,0-3.58,0-7.16,0-10.75,0-3.37,0-6.73,0-10.1.02-1.24,0-2.47,0-3.71,0-1.69,0-3.37,0-5.06.02-.49,0-.98-.01-1.48-.02-3.49.06-4.98.95-7.43,3.52-6.59,8.43-5.67,19.27-5.63,29.45,0,1.53,0,3.06,0,4.59,0,3.28,0,6.57,0,9.85,0,4.75,0,9.5,0,14.25-.01,7.72-.02,15.43-.02,23.15,0,.46,0,.92,0,1.4,0,5.15,0,10.29,0,15.44,0,1.87,0,3.74,0,5.61,0,.46,0,.92,0,1.4,0,7.69,0,15.39-.02,23.08,0,4.74-.01,9.48,0,14.22,0,3.63,0,7.26,0,10.88,0,1.49,0,2.98,0,4.46,0,2.03,0,4.06,0,6.09,0,.59.01,1.18.02,1.79-.04,3.47-.44,5.52-2.72,8.25-2.74,2.11-4.82,2.9-8.25,2.72-3.15-.55-5.45-1.94-7.64-4.32-1.34-2.16-1.62-3.79-1.61-6.3,0-.61,0-1.21,0-1.83,0-.67,0-1.33,0-2.02,0-.71,0-1.41,0-2.14,0-2.38,0-4.76,0-7.14,0-1.7,0-3.4,0-5.1,0-3.67,0-7.34,0-11.01,0-5.31,0-10.61,0-15.92,0-8.61,0-17.21.01-25.82,0-8.36,0-16.72.01-25.09,0-.52,0-1.03,0-1.56,0-2.58,0-5.17,0-7.75,0-21.45.02-42.9.03-64.35-.39.01-.79.03-1.19.04-1.81.05-3.61.08-5.42.12-.62.02-1.24.04-1.88.06-4.91.06-8.07-.85-11.8-4.18-3.43-4.14-4.57-7.09-4.48-12.44.33-4.24,1.94-6.93,4.81-9.91,4.89-3.75,9.05-3.86,14.98-3.83Z"/>
  <path class="st24" d="M425.47,1.13c1.64,0,3.29-.01,4.93-.02,8.01-.03,14.35.45,21.28,4.88,3.81,3.94,6.28,9.05,6.35,14.63,0,1.18-.02,2.36-.04,3.54,0,.61-.01,1.21-.02,1.83-.01,1.49-.03,2.97-.06,4.45.36,0,.72-.01,1.09-.02,3.75-.06,7.49-.09,11.24-.12,1.4-.01,2.79-.03,4.19-.05,2.01-.03,4.02-.04,6.03-.06.62-.01,1.24-.03,1.88-.04,4.62,0,7.8.95,11.32,4.08.38.45.76.9,1.15,1.37.39.45.78.89,1.18,1.35,2.76,4.3,2.4,9.15,2.4,14.13q0,1.19.01,2.4c0,1.67,0,3.35,0,5.02,0,2.13.02,4.26.04,6.38.02,2.05.02,4.1.02,6.15,0,.76.02,1.51.03,2.29-.03,5.18-.69,9.7-3.83,13.88-.38.31-.75.63-1.14.95-.37.33-.74.65-1.12.99-4.26,2.71-8.01,3.04-12.9,2.96-.62,0-1.24,0-1.88,0-1.97-.01-3.93-.03-5.9-.06-1.34,0-2.68-.02-4.02-.03-3.27-.02-6.54-.05-9.81-.09q.02.57.04,1.16c.05,1.76.08,3.53.11,5.29.02.6.04,1.2.06,1.82.08,6.36-1.74,11.31-5.97,15.93-4.3,3.76-9.26,5.68-14.84,5.72-.62,0-1.24.01-1.87.02q-.99,0-2.01,0c-.69,0-1.38,0-2.09.01-1.46,0-2.91,0-4.37.01-2.22,0-4.43.03-6.64.04-1.42,0-2.84,0-4.26,0-.66,0-1.31.02-1.99.02-6.82-.02-11.9-1.53-16.88-6.44-5.46-5.83-5.63-12.97-5.88-20.65q.03-2.21-.73-3.57h1.8V31.06h-1.8c.2-.61.4-1.23.6-1.86.06-1.26.11-2.53.14-3.79.19-6.54.98-12.79,5.27-17.95,8.68-7.08,18.36-6.33,28.87-6.33Z"/>
  <path class="st21" d="M67.76.63l.6,1.24c.54-.1,1.07-.2,1.63-.31,3.39-.5,6.79-.41,10.21-.39.67,0,1.33,0,2.02,0q15.33.02,21.58,5.45c4.63,5.16,5.2,10.78,5.19,17.57,0,.86.02,1.72.02,2.59.02,2.33.03,4.65.03,6.98,0,2.44.03,4.88.04,7.32.03,4.1.04,8.2.06,12.29.01,4.73.04,9.46.07,14.19.03,4.56.06,9.12.08,13.68,0,1.94.02,3.87.03,5.81.01,2.28.02,4.56.03,6.84,0,1.23.01,2.46.02,3.69,0,6.37-.6,12.52-4.91,17.42-6.03,5.86-11.88,6.83-19.91,6.89q-.97,0-1.95.02c-1.36,0-2.72.02-4.08.02-1.38,0-2.76.02-4.14.04q-18.76.25-24.36-5.27c-4.65-4.75-6.32-9.76-6.37-16.46,0-1,.01-1.99.02-2.99,0-.51,0-1.03,0-1.56,0-1.25.02-2.51.03-3.76q-.51,0-1.04.01c-3.58.04-7.16.07-10.74.09-1.33,0-2.67.02-4,.04-1.92.02-3.85.03-5.77.04-.59,0-1.18.02-1.79.03-5.61,0-9.97-1.18-14.1-5.2-4.13-4.85-4.14-10.42-4.12-16.58q0-.96,0-1.94c0-1.36,0-2.71,0-4.07,0-2.06,0-4.12,0-6.17,0-1.32,0-2.64,0-3.96,0-.61,0-1.22,0-1.84q.04-12.89,4.04-17.4c4.49-4.24,8.56-4.79,14.46-4.7.66,0,1.32,0,2,0,2.1.01,4.2.03,6.3.06,1.43,0,2.86.02,4.29.03,3.49.02,6.99.05,10.48.09,0-.36,0-.71-.01-1.08-.02-1.63-.03-3.26-.04-4.89,0-.56-.02-1.12-.02-1.7-.03-6.2,1.28-10.89,5.49-15.45,4.54-4.19,7.94-5.57,13.98-5.5.45,0,.9,0,1.36,0,1.1,0,2.2.02,3.3.03V.63Z"/>
  <path class="st26" d="M214.5,268.24c.57,0,1.13,0,1.71,0,1.9,0,3.81,0,5.71,0,1.36,0,2.72,0,4.08,0,3.71,0,7.41-.01,11.12-.01,2.31,0,4.63,0,6.94,0,6.41,0,12.81-.01,19.22-.02.41,0,.82,0,1.24,0,.41,0,.82,0,1.25,0,.83,0,1.67,0,2.5,0q.62,0,1.25,0c6.69,0,13.39-.01,20.08-.03,6.87-.01,13.75-.02,20.62-.02,3.86,0,7.72,0,11.58-.02,3.63-.01,7.26-.01,10.89,0,1.33,0,2.66,0,4,0,1.82,0,3.64,0,5.46,0,.53,0,1.05-.01,1.6-.02,3.79.03,6.74.63,9.69,3.29.34.42.67.83,1.02,1.26.35.42.69.83,1.05,1.26,1.83,2.78,1.79,6.09,1.43,9.34-1.01,3.73-2.85,5.63-6.07,7.51-2.79,1.38-5.4,1.28-8.42,1.29q-.85,0-1.72,0c-1.91,0-3.82.02-5.73.02-1.37,0-2.73.01-4.1.02-4.49.02-8.98.03-13.48.04q-1.15,0-2.32,0c-7.2.02-14.41.04-21.61.05-1.67,0-3.34,0-5.01,0-.41,0-.83,0-1.26,0-6.71.01-13.43.04-20.14.07-6.9.03-13.79.05-20.69.05-3.87,0-7.74.01-11.61.04-3.64.02-7.28.03-10.93.02-1.34,0-2.67,0-4.01.02-1.83.02-3.65.01-5.48,0q-.79.02-1.59.03c-4.05-.06-6.68-1.52-9.75-4.21-2.59-3.51-2.87-7.5-2.4-11.8,1.47-3.15,3.88-5.44,6.61-7.45,2.42-.83,4.74-.71,7.26-.71Z"/>
  <path class="st26" d="M214.06,383.14c.52,0,1.04,0,1.57,0,1.74,0,3.49,0,5.23-.01,1.25,0,2.5,0,3.74-.01,3.4-.01,6.79-.02,10.19-.02,2.12,0,4.24,0,6.36-.01,6.64-.01,13.27-.02,19.91-.03,7.66,0,15.32-.02,22.99-.05,5.92-.02,11.84-.03,17.76-.03,3.54,0,7.07,0,10.61-.02,3.33-.01,6.66-.02,9.98-.01,1.22,0,2.44,0,3.66-.01,1.67-.01,3.34,0,5.01,0q.72-.01,1.46-.02c3.71.04,6.9,1.04,9.68,3.68,2.55,2.99,3.56,5.62,3.43,9.61-.46,4.12-1.92,6.64-5.01,9.25-3.02,2-5.8,2.19-9.32,2.17-.52,0-1.04,0-1.57,0-1.74,0-3.48,0-5.22.01-1.25,0-2.5,0-3.74.02-3.39.01-6.78.02-10.17.02-2.12,0-4.24,0-6.36.01-7.39.02-14.78.02-22.18.03-6.89,0-13.78.02-20.67.05-5.92.02-11.83.03-17.75.03-3.53,0-7.07,0-10.6.02-3.32.02-6.65.02-9.97,0-1.22,0-2.44,0-3.66.01-1.67.01-3.33,0-5,0-.48,0-.96.02-1.45.02-3.98-.06-6.86-1.58-9.69-4.47-2.76-3.28-2.88-6.06-2.83-10.25.36-3.98,2.98-6.1,5.77-8.54,2.39-1.76,5.03-1.46,7.84-1.46Z"/>
  <path class="st26" d="M217.99,326.26c.96,0,1.92,0,2.88-.01,2.59,0,5.19,0,7.78.02,2.72.02,5.44.01,8.16.01,4.57,0,9.13.02,13.7.04,5.27.03,10.55.04,15.82.04,5.62,0,11.25.01,16.87.03,1.62,0,3.24,0,4.85,0,2.54,0,5.09.01,7.63.03.93,0,1.86,0,2.8,0,1.27,0,2.55,0,3.82.02q1.07,0,2.16,0c3.2.39,5.53,1.71,7.56,4.28.3.37.59.73.89,1.11,2.02,2.99,1.64,6.9,1.32,10.38-.91,2.74-2.62,5.04-4.81,6.83-2.64,1.1-4.87,1.4-7.71,1.41q-.6,0-1.21,0c-1.32,0-2.65,0-3.97,0-.95,0-1.91,0-2.86.01-2.58.01-5.17.01-7.75.01-1.62,0-3.23,0-4.85,0-5.64.01-11.27.02-16.91.02-5.25,0-10.5.01-15.75.03-4.51.02-9.02.02-13.54.02-2.69,0-5.39,0-8.08.02-2.53.01-5.07.01-7.6,0-.93,0-1.86,0-2.78,0q-8.69.07-12.2-2.8-1.05-1.11-1.73-2.17c-.23-.35-.47-.7-.71-1.07-1.63-3.18-1.71-7.08-.82-10.52,3.13-7.65,9.96-7.9,17.02-7.81Z"/>
  <path class="st0" d="M20.78,30.26c.6,0,1.2,0,1.81,0,2.22,0,4.44.04,6.66.06,4.97.04,9.94.08,15.07.12v61.49q-32.92,0-38.04-4.99c-4.13-4.85-4.14-10.42-4.12-16.58q0-.96,0-1.94c0-1.36,0-2.71,0-4.07,0-2.06,0-4.12,0-6.17,0-1.32,0-2.64,0-3.96,0-.61,0-1.22,0-1.84q.04-12.89,4.04-17.4c4.53-4.28,8.64-4.79,14.59-4.7Z"/>
  <path class="st16" d="M457.92,30.44q31.47,0,35.75,3.8c.38.45.76.9,1.15,1.37q.58.67,1.18,1.35c2.76,4.3,2.4,9.15,2.4,14.13q0,1.19.01,2.4c0,1.67,0,3.35,0,5.02,0,2.13.02,4.26.04,6.38.02,2.05.02,4.1.02,6.15,0,.76.02,1.51.03,2.29-.03,5.18-.69,9.7-3.83,13.88-.38.31-.75.63-1.14.95-.37.33-.74.65-1.12.99-10.32,6.57-22.76,2.78-34.5,2.78V30.44Z"/>
  <path class="st28" d="M109.24,31.06h2.4v1.86h-1.8v55.28h-.6V31.06Z"/>
  <path class="st17" d="M498.8,64.6c.4.82.79,1.64,1.2,2.48q-.6.31-1.2.62v-3.11Z"/>
  <path class="st30" d="M287.79,499.38h3.01v.62h-3.01v-.62Z"/>
  <path class="st8" d="M498.8,69.57h.6v3.11h-.6v-3.11Z"/>
  <path class="st15" d="M390.59,19.88h.6v3.11h-.6v-3.11Z"/>
  <path class="st23" d="M325.66,499.38l2.4.62-2.4-.62Z"/>
  <path class="st19" d="M121.27,499.38l2.4.62-2.4-.62Z"/>
  <path class="st14" d="M80.39,442.86l.6,2.48-.6-2.48Z"/>
  <path class="st25" d="M80.39,337.89l.6,2.48-.6-2.48Z"/>
  <path class="st6" d="M498.8,50.32l.6,2.48-.6-2.48Z"/>
  <path class="st18" d="M320.25,499.38l1.8.62-1.8-.62Z"/>
  <path class="st18" d="M-61.49-71.42"/>
  <path class="st18" d="M-61.49-71.42"/>
  <path class="st18" d="M-61.49-71.42"/>
  <path class="st18" d="M-61.49-71.42"/>
  <path class="st18" d="M-61.49-71.42"/>
  <path class="st5" d="M390.59,499.38l1.2.62-1.2-.62Z"/>
  <path class="st1" d="M385.18,499.38l1.2.62-1.2-.62Z"/>
  <path class="st22" d="M331.67,499.38l1.2.62-1.2-.62Z"/>
  <path class="st3" d="M322.66,499.38l1.2.62-1.2-.62Z"/>
  <path class="st12" d="M318.45,499.38l1.2.62-1.2-.62Z"/>
  <path class="st11" d="M293.8,499.38l1.2.62-1.2-.62Z"/>
  <path class="st13" d="M284.18,499.38l1.2.62-1.2-.62Z"/>
  <path class="st2" d="M225.87,499.38l1.2.62-1.2-.62Z"/>
  <path class="st9" d="M397.2,498.76l1.2.62-1.2-.62Z"/>
  <path class="st20" d="M373.76,497.52l1.2.62-1.2-.62Z"/>
  <path class="st4" d="M161.54,473.91l1.2.62-1.2-.62Z"/>
  <path class="st4" d="M-61.49-71.42"/>
  <path class="st4" d="M-61.49-71.42"/>
  <path class="st4" d="M-61.49-71.42"/>
  <path class="st4" d="M-61.49-71.42"/>
  <path class="st4" d="M-61.49-71.42"/>
  <path class="st4" d="M-61.49-71.42"/>
  <path class="st4" d="M-61.49-71.42"/>
  <path class="st4" d="M-61.49-71.42"/>
  <path class="st4" d="M-61.49-71.42"/>
  <path class="st4" d="M-61.49-71.42"/>
  <path class="st4" d="M-61.49-71.42"/>
  <path class="st4" d="M-61.49-71.42"/>
  <path class="st4" d="M-61.49-71.42"/>
  <path class="st4" d="M-61.49-71.42"/>
  <path class="st4" d="M-61.49-71.42"/>
  <path class="st4" d="M-61.49-71.42"/>
  <path class="st4" d="M-61.49-71.42"/>
  <path class="st4" d="M-61.49-71.42"/>
  <path class="st4" d="M-61.49-71.42"/>
  <path class="st4" d="M-61.49-71.42"/>
  <path class="st4" d="M-61.49-71.42"/>
  <path class="st4" d="M-61.49-71.42"/>
  <path class="st4" d="M-61.49-71.42"/>
  <path class="st4" d="M-61.49-71.42"/>
  <path class="st4" d="M-61.49-71.42"/>
  <path class="st10" d="M94.82,127.95l1.2.62-1.2-.62Z"/>
  <path class="st10" d="M-61.49-71.42"/>
  <path class="st10" d="M-61.49-71.42"/>
  <path class="st10" d="M-61.49-71.42"/>
  <path class="st10" d="M-61.49-71.42"/>
  <path class="st10" d="M-61.49-71.42"/>
  <path class="st10" d="M-61.49-71.42"/>
  <path class="st10" d="M-61.49-71.42"/>
  <path class="st27" d="M400.81,3.11l1.2.62-1.2-.62Z"/>
  <path class="st27" d="M-61.49-71.42"/>
  <path class="st27" d="M-61.49-71.42"/>
  <path class="st27" d="M-61.49-71.42"/>
  <path class="st27" d="M-61.49-71.42"/>
  <path class="st27" d="M-61.49-71.42"/>
  <path class="st27" d="M-61.49-71.42"/>
  <path class="st27" d="M-61.49-71.42"/>
  <path class="st27" d="M-61.49-71.42"/>
  <path class="st27" d="M-61.49-71.42"/>
  <path class="st27" d="M-61.49-71.42"/>
  <path class="st27" d="M-61.49-71.42"/>
  <path class="st27" d="M-61.49-71.42"/>
  <path class="st27" d="M-61.49-71.42"/>
  <path class="st27" d="M-61.49-71.42"/>
  <path class="st27" d="M-61.49-71.42"/>
  <path class="st27" d="M-61.49-71.42"/>
  <path class="st27" d="M-61.49-71.42"/>
  <path class="st27" d="M-61.49-71.42"/>
  <path class="st27" d="M-61.49-71.42"/>
  <path class="st27" d="M-61.49-71.42"/>
  <path class="st27" d="M-61.49-71.42"/>
  <path class="st27" d="M-61.49-71.42"/>
  <path class="st27" d="M-61.49-71.42"/>
  <path class="st27" d="M-61.49-71.42"/>
  <path class="st27" d="M-61.49-71.42"/>
  <path class="st27" d="M-61.49-71.42"/>
  <path class="st27" d="M-61.49-71.42"/>
  <path class="st27" d="M-61.49-71.42"/>
  <path class="st27" d="M-61.49-71.42"/>
  <path class="st27" d="M-61.49-71.42"/>
  <path class="st27" d="M-61.49-71.42"/>
  <path class="st27" d="M-61.49-71.42"/>
  <path class="st27" d="M-61.49-71.42"/>
  <path class="st27" d="M-61.49-71.42"/>
  <path class="st27" d="M-61.49-71.42"/>
  <path class="st27" d="M-61.49-71.42"/>
  <path class="st27" d="M-61.49-71.42"/>
  <path class="st27" d="M-61.49-71.42"/>
  <path class="st27" d="M-61.49-71.42"/>
  <path class="st27" d="M-61.49-71.42"/>
  <path class="st27" d="M-61.49-71.42"/>
  <path class="st27" d="M-61.49-71.42"/>
  <path class="st27" d="M-61.49-71.42"/>
  <path class="st27" d="M-61.49-71.42"/>
  <path class="st27" d="M-61.49-71.42"/>
  <path class="st27" d="M-61.49-71.42"/>
  <path class="st27" d="M-61.49-71.42"/>
  <path class="st27" d="M-61.49-71.42"/>
  <path class="st27" d="M-61.49-71.42"/>
  <path class="st27" d="M-61.49-71.42"/>
  <path class="st27" d="M-61.49-71.42"/>
  <path class="st27" d="M-61.49-71.42"/>
  <path class="st27" d="M-61.49-71.42"/>
  <path class="st27" d="M-61.49-71.42"/>
  <path class="st27" d="M-61.49-71.42"/>
  <path class="st27" d="M-61.49-71.42"/>
  <path class="st27" d="M-61.49-71.42"/>
  <path class="st27" d="M-61.49-71.42"/>
  <path class="st27" d="M-61.49-71.42"/>
  <path class="st27" d="M-61.49-71.42"/>
  <path class="st27" d="M-61.49-71.42"/>
  <path class="st27" d="M-61.49-71.42"/>
  <path class="st27" d="M-61.49-71.42"/>
  <path class="st27" d="M-61.49-71.42"/>
  <path class="st27" d="M-61.49-71.42"/>
  <path class="st27" d="M-61.49-71.42"/>
  <path class="st27" d="M-61.49-71.42"/>
  <path class="st27" d="M-61.49-71.42"/>
  <path class="st27" d="M-61.49-71.42"/>
  <path class="st27" d="M-61.49-71.42"/>
  <path class="st27" d="M-61.49-71.42"/>
  <path class="st27" d="M-61.49-71.42"/>
  <path class="st27" d="M-61.49-71.42"/>
  <path class="st27" d="M-61.49-71.42"/>
  <path class="st27" d="M-61.49-71.42"/>
  <path class="st27" d="M-61.49-71.42"/>
  <path class="st27" d="M-61.49-71.42"/>
  <path class="st27" d="M-61.49-71.42"/>
  <path class="st27" d="M-61.49-71.42"/>
  <path class="st27" d="M-61.49-71.42"/>
  <path class="st27" d="M-61.49-71.42"/>
  <path class="st27" d="M-61.49-71.42"/>
  <path class="st27" d="M-61.49-71.42"/>
  <path class="st27" d="M-61.49-71.42"/>
  <path class="st27" d="M-61.49-71.42"/>
  <path class="st27" d="M-61.49-71.42"/>
  <path class="st27" d="M-61.49-71.42"/>
  <path class="st27" d="M-61.49-71.42"/>
  <path class="st27" d="M-61.49-71.42"/>
  <path class="st27" d="M-61.49-71.42"/>
  <path class="st27" d="M-61.49-71.42"/>
  <path class="st27" d="M-61.49-71.42"/>
  <path class="st27" d="M-61.49-71.42"/>
  <path class="st27" d="M-61.49-71.42"/>
  <path class="st27" d="M-61.49-71.42"/>
  <path class="st27" d="M-61.49-71.42"/>
  <path class="st27" d="M-61.49-71.42"/>
  <path class="st27" d="M-61.49-71.42"/>
  <path class="st27" d="M-61.49-71.42"/>
  <path class="st27" d="M-61.49-71.42"/>
  <path class="st27" d="M-61.49-71.42"/>
  <path class="st27" d="M-61.49-71.42"/>
  <path class="st27" d="M-61.49-71.42"/>
  <path class="st27" d="M-61.49-71.42"/>
  <path class="st27" d="M-61.49-71.42"/>
  <path class="st27" d="M-61.49-71.42"/>
  <path class="st27" d="M-61.49-71.42"/>
  <path class="st27" d="M-61.49-71.42"/>
  <path class="st27" d="M-61.49-71.42"/>
  <path class="st27" d="M-61.49-71.42"/>
  <path class="st27" d="M-61.49-71.42"/>
  <path class="st27" d="M-61.49-71.42"/>
  <path class="st27" d="M-61.49-71.42"/>
  <path class="st27" d="M-61.49-71.42"/>
  <path class="st27" d="M-61.49-71.42"/>
  <path class="st27" d="M-61.49-71.42"/>
  <path class="st27" d="M-61.49-71.42"/>
  <path class="st27" d="M-61.49-71.42"/>
  <path class="st27" d="M-61.49-71.42"/>
  <path class="st27" d="M-61.49-71.42"/>
  <path class="st27" d="M-61.49-71.42"/>
  <path class="st27" d="M-61.49-71.42"/>
  <path class="st27" d="M-61.49-71.42"/>
  <path class="st27" d="M-61.49-71.42"/>
  <path class="st27" d="M-61.49-71.42"/>
  <path class="st27" d="M-61.49-71.42"/>
  <path class="st27" d="M-61.49-71.42"/>
  <path class="st27" d="M-61.49-71.42"/>
  <path class="st27" d="M-61.49-71.42"/>
  <path class="st27" d="M-61.49-71.42"/>
  <path class="st27" d="M-61.49-71.42"/>
  <path class="st27" d="M-61.49-71.42"/>
  <path class="st27" d="M-61.49-71.42"/>
  <path class="st27" d="M-61.49-71.42"/>
  <path class="st27" d="M-61.49-71.42"/>
  <path class="st27" d="M-61.49-71.42"/>
  <path class="st27" d="M-61.49-71.42"/>
  <path class="st27" d="M-61.49-71.42"/>
  <path class="st27" d="M-61.49-71.42"/>
  <path class="st27" d="M-61.49-71.42"/>
  <path class="st27" d="M-61.49-71.42"/>
  <path class="st27" d="M-61.49-71.42"/>
  <path class="st27" d="M-61.49-71.42"/>
  <path class="st27" d="M-61.49-71.42"/>
  <path class="st27" d="M-61.49-71.42"/>
  <path class="st27" d="M-61.49-71.42"/>
  <path class="st27" d="M-61.49-71.42"/>
  <path class="st27" d="M-61.49-71.42"/>
  <path class="st27" d="M-61.49-71.42"/>
  <path class="st27" d="M-61.49-71.42"/>
  <path class="st27" d="M-61.49-71.42"/>
  <path class="st27" d="M-61.49-71.42"/>
  <path class="st27" d="M-61.49-71.42"/>
  <path class="st27" d="M-61.49-71.42"/>
  <path class="st27" d="M-61.49-71.42"/>
  <path class="st27" d="M-61.49-71.42"/>
  <path class="st27" d="M-61.49-71.42"/>
  <path class="st27" d="M-61.49-71.42"/>
  <path class="st27" d="M-61.49-71.42"/>
  <path class="st27" d="M-61.49-71.42"/>
  <path class="st27" d="M-61.49-71.42"/>
  <path class="st27" d="M-61.49-71.42"/>
  <path class="st27" d="M-61.49-71.42"/>
  <path class="st27" d="M-61.49-71.42"/>
  <path class="st27" d="M-61.49-71.42"/>
  <path class="st27" d="M-61.49-71.42"/>
  <path class="st27" d="M-61.49-71.42"/>
  <path class="st27" d="M-61.49-71.42"/>
  <path class="st27" d="M-61.49-71.42"/>
  <path class="st27" d="M-61.49-71.42"/>
  <path class="st27" d="M-61.49-71.42"/>
  <path class="st27" d="M-61.49-71.42"/>
  <path class="st27" d="M-61.49-71.42"/>
  <path class="st27" d="M-61.49-71.42"/>
  <path class="st27" d="M-61.49-71.42"/>
  <path class="st27" d="M-61.49-71.42"/>
  <path class="st27" d="M-61.49-71.42"/>
  <path class="st27" d="M-61.49-71.42"/>
  <path class="st27" d="M-61.49-71.42"/>
  <path class="st27" d="M-61.49-71.42"/>
  <path class="st27" d="M-61.49-71.42"/>
  <path class="st27" d="M-61.49-71.42"/>
  <path class="st27" d="M-61.49-71.42"/>
  <path class="st27" d="M-61.49-71.42"/>
  <path class="st27" d="M-61.49-71.42"/>
  <path class="st27" d="M-61.49-71.42"/>
  <path class="st27" d="M-61.49-71.42"/>
  <path class="st27" d="M-61.49-71.42"/>
  <path class="st27" d="M-61.49-71.42"/>
  <path class="st27" d="M-61.49-71.42"/>
  <path class="st27" d="M-61.49-71.42"/>
  <path class="st27" d="M-61.49-71.42"/>
  <path class="st27" d="M-61.49-71.42"/>
  <path class="st27" d="M-61.49-71.42"/>
  <path class="st27" d="M-61.49-71.42"/>
  <path class="st27" d="M-61.49-71.42"/>
  <path class="st27" d="M-61.49-71.42"/>
  <path class="st27" d="M-61.49-71.42"/>
  <path class="st27" d="M-61.49-71.42"/>
  <path class="st27" d="M-61.49-71.42"/>
  <path class="st27" d="M-61.49-71.42"/>
  <path class="st27" d="M-61.49-71.42"/>
  <path class="st27" d="M-61.49-71.42"/>
  <path class="st27" d="M-61.49-71.42"/>
  <path class="st27" d="M-61.49-71.42"/>
  <path class="st27" d="M-61.49-71.42"/>
  <path class="st27" d="M-61.49-71.42"/>
  <path class="st27" d="M-61.49-71.42"/>
  <path class="st27" d="M-61.49-71.42"/>
  <path class="st27" d="M-61.49-71.42"/>
  <path class="st27" d="M-61.49-71.42"/>
  <path class="st27" d="M-61.49-71.42"/>
  <path class="st27" d="M-61.49-71.42"/>
  <path class="st27" d="M-61.49-71.42"/>
  <path class="st27" d="M-61.49-71.42"/>
  <path class="st27" d="M-61.49-71.42"/>
  <path class="st27" d="M-61.49-71.42"/>
  <path class="st27" d="M-61.49-71.42"/>
  <path class="st27" d="M-61.49-71.42"/>
  <path class="st27" d="M-61.49-71.42"/>
  <path class="st27" d="M-61.49-71.42"/>
  <path class="st27" d="M-61.49-71.42"/>
  <path class="st27" d="M-61.49-71.42"/>
  <path class="st27" d="M-61.49-71.42"/>
  <path class="st27" d="M-61.49-71.42"/>
  <path class="st27" d="M-61.49-71.42"/>
  <path class="st27" d="M-61.49-71.42"/>
  <path class="st27" d="M-61.49-71.42"/>
  <path class="st27" d="M-61.49-71.42"/>
  <path class="st27" d="M-61.49-71.42"/>
  <path class="st27" d="M-61.49-71.42"/>
  <path class="st27" d="M-61.49-71.42"/>
  <path class="st27" d="M-61.49-71.42"/>
  <path class="st27" d="M-61.49-71.42"/>
  <path class="st27" d="M-61.49-71.42"/>
</svg>