<?xml version="1.0" encoding="UTF-8"?>
<svg version="1.1" xmlns="http://www.w3.org/2000/svg" width="1024" height="1024">
<path d="M0 0 C4.08932468 3.50347817 7.67638644 7.53020975 11.24511719 11.5546875 C18.75480062 19.49395029 27.46865823 18.97317488 37.89746094 19.30078125 C39.77498047 19.3471875 39.77498047 19.3471875 41.69042969 19.39453125 C42.98078125 19.43320312 44.27113281 19.471875 45.60058594 19.51171875 C48.75539839 19.60519467 51.91021696 19.69095438 55.06542969 19.76953125 C55.39542969 19.10953125 55.72542969 18.44953125 56.06542969 17.76953125 C56.06542969 18.42953125 56.06542969 19.08953125 56.06542969 19.76953125 C57.05990458 19.72510822 57.05990458 19.72510822 58.07446986 19.67978776 C74.01313551 18.98173846 89.91216008 18.62348902 105.86499023 18.64013672 C108.1114047 18.63877588 110.35781895 18.63699217 112.60423279 18.63482666 C118.63153004 18.6303236 124.65880989 18.63201475 130.6861074 18.63520575 C137.08938877 18.63777826 143.49266887 18.63537738 149.89595032 18.63381958 C161.36829286 18.63189154 172.84062675 18.63496779 184.31296793 18.64007892 C194.5607814 18.64450516 204.80858325 18.64373151 215.05639648 18.63916016 C247.95543662 18.62509657 280.85413564 18.64759857 313.75304413 18.75065613 C317.79910842 18.76320925 321.84516758 18.77384683 325.89124298 18.78205872 C335.48215204 18.80186016 345.072274 18.84060231 354.6627903 18.93167496 C357.27200639 18.95339433 359.88130424 18.96711559 362.49060631 18.97192001 C365.91706715 18.98014421 369.34172729 19.01863676 372.76782227 19.06689453 C373.71885897 19.06257038 374.66989567 19.05824623 375.64975166 19.05379105 C383.23609033 19.22072854 388.04717451 21.83070384 393.44042969 27.08203125 C398.04927835 34.70435788 397.37309236 43.48532222 397.38824463 52.0952301 C397.39797329 53.55608203 397.4085408 55.01692857 397.41987062 56.47776896 C397.44834858 60.48187441 397.4644701 64.48594678 397.47833216 68.49012604 C397.49527371 72.81430408 397.5231109 77.1384152 397.54927826 81.46254539 C397.59866454 89.95885809 397.63648981 98.45518644 397.66992527 106.95157547 C397.69753903 113.94220331 397.72917634 120.932803 397.76313019 127.92340279 C398.17757691 213.92726671 398.11531884 299.92961752 397.8700375 385.93384857 C397.82426215 402.08991786 397.7938605 418.24598125 397.76921818 434.40209525 C397.74314306 451.38064103 397.70605454 468.35913196 397.65739846 485.33762842 C397.63073188 494.72062679 397.60840538 504.10358384 397.59838104 513.48661613 C397.58992708 521.33624368 397.57129619 529.18576379 397.53927723 537.03533208 C397.52333709 541.01369607 397.51207759 544.99192084 397.51387978 548.97031975 C397.51541249 552.61111793 397.50304684 556.25160436 397.47998145 559.89232738 C397.47128204 561.81450646 397.47705068 563.73673469 397.48350883 565.65892261 C397.35385172 580.64182654 393.84722212 592.4701092 383.55371094 603.4375 C373.25068016 613.09355868 361.4704063 615.32882372 347.75292969 615.20703125 C346.55539062 615.19873291 345.35785156 615.19043457 344.12402344 615.18188477 C326.12036282 614.83669995 314.04824545 608.3689975 301.56542969 595.49609375 C299.39131934 593.12495465 297.34609561 590.70003629 295.31542969 588.20703125 C292.27281725 584.67789129 289.84405186 583.20395145 285.06542969 582.76953125 C280.39997914 583.91209057 278.54709946 586.21498035 276.12792969 590.14453125 C274.45449642 593.12341769 272.87454146 596.13943022 271.30761719 599.17578125 C270.41429687 600.8928125 270.41429687 600.8928125 269.50292969 602.64453125 C268.69662109 604.24941406 268.69662109 604.24941406 267.87402344 605.88671875 C264.8946332 610.63572522 261.31449643 613.01298638 256.06542969 614.76953125 C253.20839596 615.03403759 253.20839596 615.03403759 250.00901794 615.05473328 C248.78901816 615.0673457 247.56901838 615.07995811 246.31204891 615.09295273 C244.96478773 615.09691589 243.61752594 615.10067388 242.27026367 615.10424805 C240.84078873 615.11516649 239.41131999 615.12692454 237.98185825 615.13945389 C234.07864043 615.17106379 230.17544848 615.19022812 226.27214241 615.20702815 C222.1188843 615.22681336 217.9657028 615.25737244 213.8125 615.28627014 C204.88591468 615.34604904 195.9592933 615.39025627 187.03260422 615.43113708 C181.52286999 615.45648858 176.01316036 615.48573609 170.50344849 615.51550293 C128.12682999 615.74185782 85.74804692 615.93661181 43.37187576 615.54459 C40.50907094 615.51958489 37.64626922 615.49972901 34.78341675 615.48104858 C30.39704355 615.45105431 26.01113028 615.40555167 21.62506104 615.34597588 C20.07462648 615.32668082 18.52412709 615.31191034 16.97360229 615.30229378 C0.80550057 615.19129822 0.80550057 615.19129822 -5.87207031 609.08203125 C-10.22735667 603.61179159 -12.95954741 596.99785053 -15.97949219 590.73486328 C-17.33315115 587.94934317 -18.74006984 585.19647534 -20.18457031 582.45703125 C-20.62285156 581.61527344 -21.06113281 580.77351562 -21.51269531 579.90625 C-23.10504927 577.51334447 -24.4558986 576.22001321 -26.93457031 574.76953125 C-29.14968454 574.26366069 -29.14968454 574.26366069 -31.43457031 574.33203125 C-32.18738281 574.31269531 -32.94019531 574.29335938 -33.71582031 574.2734375 C-36.80903048 574.96505315 -37.85998725 576.39286544 -39.93457031 578.76953125 C-41.47178432 581.53904775 -41.47178432 581.53904775 -42.77441406 584.63671875 C-43.53334961 586.33634766 -43.53334961 586.33634766 -44.30761719 588.0703125 C-45.34708813 590.44513376 -46.38615342 592.82013263 -47.42480469 595.1953125 C-54.31217506 610.61532088 -54.31217506 610.61532088 -62.94091797 614.0546875 C-69.2159545 615.55308148 -75.66021617 615.35544101 -82.07983398 615.29101562 C-84.59946624 615.26972228 -87.11620108 615.29079966 -89.63574219 615.31640625 C-104.19925416 615.34203046 -116.4277492 612.67591339 -128.93457031 604.76953125 C-129.64097656 604.32996094 -130.34738281 603.89039063 -131.07519531 603.4375 C-148.63648385 591.44189543 -157.56840171 569.06582682 -161.47553384 548.98991257 C-161.96753544 545.53826362 -162.06686169 542.24948184 -162.07602882 538.76296139 C-162.08074155 537.7357602 -162.08074155 537.7357602 -162.08554947 536.68780747 C-162.09487185 534.39350027 -162.09718081 532.09924054 -162.09951782 529.80491638 C-162.10480198 528.14185055 -162.11051493 526.47878603 -162.11661947 524.815723 C-162.13213925 520.24297276 -162.14149439 515.67022741 -162.14983797 511.0974592 C-162.15990611 506.16116929 -162.17563674 501.22489696 -162.19062805 496.28862 C-162.21913309 486.59274939 -162.24224311 476.89687301 -162.26340581 467.20098387 C-162.28079505 459.27047508 -162.3000341 451.33997277 -162.32056808 443.40947151 C-162.32496098 441.71081627 -162.32496098 441.71081627 -162.32944261 439.97784476 C-162.33540106 437.67564097 -162.34136227 435.37343718 -162.3473262 433.0712334 C-162.40315565 411.42508694 -162.4527382 389.77892948 -162.50033121 368.13276357 C-162.54352842 348.56358061 -162.59376593 328.99442386 -162.64766403 309.42526769 C-162.70332884 289.19402708 -162.75423332 268.96277933 -162.80029619 248.73151451 C-162.80559211 246.41153052 -162.81089471 244.09154654 -162.81620407 241.77156258 C-162.81881391 240.63102064 -162.82142374 239.4904787 -162.82411266 238.31537489 C-162.84230709 230.48721955 -162.86336739 222.65907532 -162.88566971 214.83093071 C-162.96721305 185.8103232 -162.99986621 156.79020604 -162.93457031 127.76953125 C-162.93229113 126.6958913 -162.93001194 125.62225135 -162.92766368 124.51607686 C-162.89638122 110.25619061 -162.83516413 95.9968492 -162.7315433 81.73730099 C-162.7021185 77.61506296 -162.68150667 73.49293293 -162.66883779 69.37061012 C-162.65355557 64.58807778 -162.61916803 59.8060659 -162.56973198 55.02376811 C-162.55476808 53.27814788 -162.54642034 51.53245609 -162.54527923 49.78677209 C-162.52428264 31.63807966 -162.52428264 31.63807966 -156.52314413 25.27235752 C-151.96959733 21.16115637 -147.57191145 19.56081609 -141.52978516 19.35107422 C-140.46015533 19.31168732 -139.39052551 19.27230042 -138.28848267 19.23171997 C-136.54708511 19.18469437 -136.54708511 19.18469437 -134.77050781 19.13671875 C-133.54359222 19.09835907 -132.31667664 19.05999939 -131.05258179 19.02047729 C-121.35855471 18.75355648 -111.67063851 18.72496866 -101.97363281 18.77734375 C-101.26101036 18.78108757 -100.54838791 18.78483139 -99.81417084 18.78868866 C-93.22510724 18.82532154 -86.63617137 18.87194383 -80.04736328 18.94091797 C-76.38410252 18.97860297 -72.72099313 19.00157341 -69.0575676 19.01522446 C-67.68368529 19.02321438 -66.30982243 19.03673037 -64.93605423 19.05615616 C-63.03417278 19.08271933 -61.13203992 19.08889896 -59.22998047 19.09423828 C-58.15527496 19.10391632 -57.08056946 19.11359436 -55.97329712 19.12356567 C-48.44394762 18.24634009 -42.79995261 13.18400927 -38.24707031 7.45703125 C-27.6838691 -5.18554028 -13.76647365 -10.71371133 0 0 Z " fill="#FED311" transform="translate(399.9345703125,303.23046875)"/>
<path d="M0 0 C0.495 0.99 0.495 0.99 1 2 C1.89332031 1.83757812 2.78664063 1.67515625 3.70703125 1.5078125 C9.34146188 0.70673545 15.00854476 0.85551816 20.6875 0.875 C21.79544922 0.87113281 22.90339844 0.86726563 24.04492188 0.86328125 C49.55313316 0.89309798 49.55313316 0.89309798 59.9453125 9.63671875 C66.76220425 16.98457443 69.00211172 26.03047863 69.5625 35.75 C69.62727539 36.79607422 69.62727539 36.79607422 69.69335938 37.86328125 C69.79889596 39.57531922 69.8998991 41.28763561 70 43 C70.33 43 70.66 43 71 43 C71 44.65 71 46.3 71 48 C71.9052776 47.97021844 72.8105552 47.94043688 73.74326545 47.90975285 C97.9466622 47.13423772 122.12113304 46.86064774 146.33593476 46.89859343 C151.25084075 46.9051138 156.16574831 46.90554759 161.08065796 46.9067688 C169.54872254 46.90962188 178.01677812 46.91600306 186.48483849 46.92483521 C198.72963213 46.93751287 210.97442255 46.94349342 223.21922169 46.94776857 C243.10000783 46.95479366 262.98078981 46.96556711 282.86157227 46.97949219 C284.04534184 46.98032 285.22911142 46.98114781 286.4487528 46.98200071 C294.8616686 46.98790772 303.2745843 46.99394738 311.6875 47 C321.35880526 47.00694464 331.03011058 47.01380474 340.70141602 47.02050781 C342.49077748 47.02175 342.49077748 47.02175 344.31628766 47.02301729 C364.17630542 47.03668198 384.03632327 47.04644879 403.89634448 47.05341816 C416.12347187 47.05790038 428.35058719 47.06594229 440.57770894 47.07856297 C448.92560937 47.0869606 457.27350702 47.09187291 465.62141141 47.09398818 C470.4400323 47.09533784 475.25863758 47.09837682 480.07725334 47.10574722 C484.48051095 47.11245767 488.8837459 47.11464045 493.28700814 47.11311162 C494.88552472 47.1133847 496.48404204 47.11537972 498.08255406 47.1192044 C500.24288382 47.12413682 502.40312498 47.12300222 504.56345654 47.12025452 C506.36855986 47.12163721 506.36855986 47.12163721 508.21012992 47.12304783 C510.95602246 47.19172571 510.95602246 47.19172571 513 46 C513 46.66 513 47.32 513 48 C520.92 48 528.84 48 537 48 C538.32500217 45.34999566 538.15776298 42.89648897 538.23950195 39.98144531 C538.5581511 29.42232895 539.8388014 19.32247405 547 11 C554.15753734 5.34638101 561.45286272 1.60374383 570.6875 1.3125 C571.46279053 1.28051514 572.23808105 1.24853027 573.03686523 1.21557617 C581.39999917 0.92724584 589.77346013 0.86996576 598.14102173 0.82577515 C599.74144208 0.81700124 601.34185011 0.80551394 602.94223022 0.79116821 C616.29829492 0.68577465 627.08939602 1.48391182 638.625 8.625 C644.96524837 14.96524837 649.07830516 23.18859223 649.1953125 32.1796875 C649.18212822 34.07822389 649.15843867 35.97671232 649.125 37.875 C649.11597656 38.84953125 649.10695313 39.8240625 649.09765625 40.828125 C649.07421623 43.21900728 649.04140442 45.60937261 649 48 C649.59611084 47.99111755 650.19222168 47.98223511 650.80639648 47.9730835 C657.03603483 47.88427928 663.26549202 47.82412895 669.49560547 47.78027344 C671.81761993 47.76021423 674.13958423 47.73296009 676.46142578 47.69824219 C679.80774345 47.64947459 683.15339059 47.62697357 686.5 47.609375 C687.5305249 47.58872986 688.5610498 47.56808472 689.62280273 47.54681396 C697.30645689 47.54444617 702.60033139 49.08060203 708.4609375 54.11328125 C709.09257813 54.83902344 709.72421875 55.56476563 710.375 56.3125 C711.02210938 57.03050781 711.66921875 57.74851563 712.3359375 58.48828125 C716.92327448 65.41236031 716.32135573 73.22520269 716.3359375 81.23828125 C716.3425943 82.51422653 716.3492511 83.79017181 716.35610962 85.1047821 C716.3662144 87.79875694 716.37179515 90.49232788 716.37060547 93.1862793 C716.37040261 96.61234168 716.39768896 100.03757151 716.43214989 103.46343708 C716.45994043 106.76335245 716.4585726 110.06326492 716.4609375 113.36328125 C716.47530853 114.58026199 716.48967957 115.79724274 716.50448608 117.05110168 C716.46016197 125.39168759 715.3588017 132.66037175 710.140625 139.40234375 C709.51671875 139.90894531 708.8928125 140.41554688 708.25 140.9375 C707.63640625 141.46214844 707.0228125 141.98679687 706.390625 142.52734375 C699.30263716 146.89363691 693.06647562 147.42052325 684.9375 147.29296875 C683.90560547 147.28872391 682.87371094 147.28447906 681.81054688 147.28010559 C678.54009033 147.26341801 675.27026783 147.22578395 672 147.1875 C669.77214437 147.17244036 667.544279 147.1587542 665.31640625 147.14648438 C659.8773907 147.1135471 654.43874067 147.0634475 649 147 C649.02094727 147.61407715 649.04189453 148.2281543 649.06347656 148.86083984 C649.14768034 151.69872017 649.19898423 154.53633652 649.25 157.375 C649.28351562 158.34050781 649.31703125 159.30601562 649.3515625 160.30078125 C649.48890666 170.5329211 646.45899729 178.50258072 639.41796875 185.953125 C632.27079027 192.00340209 624.01719016 195.0906638 614.72583008 195.16113281 C613.6973848 195.17074036 612.66893951 195.1803479 611.60932922 195.19024658 C609.95612923 195.1966214 609.95612923 195.1966214 608.26953125 195.203125 C607.12393234 195.20882507 605.97833344 195.21452515 604.79801941 195.22039795 C602.37471435 195.22983521 599.95139653 195.23637686 597.52807617 195.24023438 C593.84335582 195.2499189 590.15919843 195.28094669 586.47460938 195.3125 C584.11458663 195.31903277 581.75455991 195.32428216 579.39453125 195.328125 C578.30251907 195.3404718 577.2105069 195.3528186 576.08540344 195.36553955 C564.73861251 195.33292833 556.29340849 192.8962146 548 185 C537.84792571 174.51543419 538.7994567 162.39022069 538 148 C383.23 147.67 228.46 147.34 69 147 C69 153.27 69 159.54 69 166 C66.22797389 177.08810445 63.39668069 183.20848879 54 190 C45.59276917 194.79820575 37.42638164 195.1696641 27.93359375 195.23828125 C26.32787254 195.25038887 26.32787254 195.25038887 24.68971252 195.26274109 C22.4262146 195.27654309 20.1626962 195.28728253 17.89916992 195.29516602 C15.60385969 195.30665956 13.30857562 195.32706936 11.01342773 195.35668945 C-20.1899422 195.75889318 -20.1899422 195.75889318 -29.5 186.875 C-37.23615994 179.22689391 -40.01377275 171.15477349 -40.09765625 160.37890625 C-40.0911032 158.7734081 -40.07931749 157.16792344 -40.0625 155.5625 C-40.05798828 154.73556641 -40.05347656 153.90863281 -40.04882812 153.05664062 C-40.03715811 151.03772854 -40.01922718 149.01885426 -40 147 C-40.85325111 147.00999275 -40.85325111 147.00999275 -41.72373962 147.02018738 C-47.6778291 147.08688209 -53.63181135 147.13194141 -59.58618164 147.16479492 C-61.8043245 147.17982277 -64.02243793 147.20025077 -66.24047852 147.22631836 C-69.44034108 147.26296624 -72.63980861 147.27978688 -75.83984375 147.29296875 C-76.82145981 147.30845261 -77.80307587 147.32393646 -78.81443787 147.33988953 C-88.14931916 147.34213905 -95.40511079 145.44617029 -102.2734375 138.9609375 C-109.15027851 131.15058866 -109.15315132 122.18874244 -109.1328125 112.265625 C-109.13424759 110.7158194 -109.13424759 110.7158194 -109.13571167 109.13470459 C-109.13639066 106.95275817 -109.13455599 104.7708097 -109.13037109 102.58886719 C-109.12504077 99.27534356 -109.13031439 95.96195682 -109.13671875 92.6484375 C-109.13605749 90.52083304 -109.13477535 88.39322866 -109.1328125 86.265625 C-109.13483673 85.28611877 -109.13686096 84.30661255 -109.13894653 83.29742432 C-109.069429 62.54743967 -109.069429 62.54743967 -102.42578125 55.27734375 C-94.9639884 48.45273771 -88.18594764 47.56344524 -78.37890625 47.70703125 C-77.27900864 47.71127609 -76.17911102 47.71552094 -75.04588318 47.71989441 C-71.55116755 47.73661598 -68.05703979 47.77425705 -64.5625 47.8125 C-62.18555523 47.82755522 -59.80860138 47.84124216 -57.43164062 47.85351562 C-51.62089497 47.88649815 -45.8104895 47.9366327 -40 48 C-40.00818253 47.42687073 -40.01636505 46.85374146 -40.02479553 46.26324463 C-40.05749429 43.63906586 -40.07767133 41.01493015 -40.09765625 38.390625 C-40.11074829 37.48908691 -40.12384033 36.58754883 -40.1373291 35.65869141 C-40.1943096 25.67570727 -38.0014873 18.12251687 -31 10.7890625 C-23.45602787 4.04074368 -17.79048526 1.82219407 -7.75 1.9375 C-7.00492187 1.94201172 -6.25984375 1.94652344 -5.4921875 1.95117188 C-3.6614236 1.96290754 -1.83070127 1.9808415 0 2 C0 1.34 0 0.68 0 0 Z " fill="#DFAD0E" transform="translate(215,116)"/>
<path d="M0 0 C1.50121257 -0.00604604 3.00241897 -0.01382653 4.50361454 -0.02318513 C8.6165133 -0.04372446 12.72906298 -0.03938707 16.84199023 -0.03082395 C21.28247497 -0.02588566 25.72287606 -0.04392245 30.16333008 -0.05889893 C38.85787943 -0.08438657 47.55230523 -0.08798113 56.24688564 -0.0832984 C63.31470131 -0.07973107 70.38247949 -0.08323343 77.45029068 -0.09174728 C78.45655102 -0.09293766 79.46281137 -0.09412804 80.49956445 -0.09535449 C82.54384287 -0.09777801 84.58812128 -0.10020628 86.63239969 -0.10263924 C105.8000438 -0.12438784 124.96761753 -0.12006637 144.1352656 -0.10786955 C161.66530985 -0.09753122 179.19513182 -0.12004234 196.72513209 -0.15806599 C214.73107229 -0.19682217 232.73690734 -0.21333493 250.74288952 -0.20581949 C260.84943845 -0.20199531 270.95579819 -0.2069718 281.06231308 -0.23524857 C289.66607696 -0.25907748 298.26953519 -0.26188488 306.87330328 -0.23766823 C311.26152387 -0.22589132 315.64918544 -0.22368844 320.03736877 -0.24767303 C324.05828288 -0.26939452 328.0781714 -0.26318284 332.09903754 -0.23514967 C333.54984108 -0.22985647 335.00072503 -0.23458724 336.45144962 -0.25062139 C345.59709835 -0.34464982 352.05649241 0.65966179 359.28640747 6.52139282 C361.54031372 8.97061157 361.54031372 8.97061157 362.84890747 11.20889282 C363.30394653 11.95526001 363.7589856 12.7016272 364.22781372 13.47061157 C367.42377467 19.66204884 367.53409416 27.57427185 365.45046997 34.16592407 C362.61014322 39.76079589 358.60601255 43.29578736 353.28640747 46.52139282 C352.7608728 46.87193726 352.23533813 47.22248169 351.69387817 47.58364868 C348.11856902 48.97628254 344.581455 48.76617168 340.80203247 48.71670532 C339.9864386 48.71387543 339.17084473 48.71104553 338.33053589 48.70812988 C335.73234219 48.6969584 333.13449652 48.67185957 330.53640747 48.64639282 C328.77208954 48.63635909 327.0077662 48.62723393 325.24343872 48.61904907 C320.92429474 48.59702901 316.60541007 48.56252015 312.28640747 48.52139282 C311.99250122 49.12854126 311.69859497 49.7356897 311.39578247 50.36123657 C308.74762867 55.5176769 305.76262459 58.52046734 300.28640747 60.52139282 C292.13381779 61.78644984 285.11274586 57.98939335 278.5505873 53.27410662 C273.35235722 49.63161971 269.47470138 48.80001748 263.20251465 48.88647461 C261.88166601 48.87477468 261.88166601 48.87477468 260.53413355 48.86283839 C257.60135277 48.84299094 254.66988007 48.85865433 251.73709106 48.87442017 C249.62743882 48.86764093 247.5177925 48.85873609 245.40815735 48.84786987 C239.6913203 48.82510941 233.97493527 48.83389895 228.2580905 48.8497653 C222.27245091 48.86243767 216.28684963 48.85068077 210.3012085 48.84283447 C200.25225891 48.83374326 190.20349319 48.84571359 180.15457153 48.86953735 C168.53687681 48.89676225 156.91962065 48.88792218 145.30193651 48.86040533 C135.32380652 48.83771803 125.34580856 48.83451193 115.36766112 48.84759867 C109.40949731 48.85539329 103.45153969 48.85643395 97.49338913 48.83991623 C91.89372269 48.82547592 86.29462215 48.83548577 80.69501686 48.86438751 C78.63991676 48.87099994 76.58476905 48.86909801 74.52968788 48.85807419 C71.72459289 48.844414 68.9213123 48.86154007 66.11633301 48.88647461 C65.30271313 48.875321 64.48909325 48.86416739 63.65081823 48.8526758 C57.84952253 48.95273836 55.36133443 50.38471098 51.28640747 54.52139282 C40.32388105 68.08722072 41.86059238 85.55081083 41.91751099 101.94302368 C41.91504004 104.40808275 41.91119865 106.87314077 41.90609741 109.3381958 C41.89779056 114.62439342 41.89823222 119.91047889 41.90628242 125.19666862 C41.91756472 132.84591592 41.90842921 140.4950405 41.89372062 148.14427716 C41.87001071 160.56661114 41.85659224 172.98892989 41.85256958 185.4112854 C41.85232471 186.15300433 41.85207984 186.89472325 41.85182755 187.65891851 C41.84927878 195.94364331 41.84871665 204.22836694 41.84976196 212.51309204 C41.85009505 215.52342732 41.85038042 218.53376261 41.85061646 221.5440979 C41.85067924 222.28702597 41.85074203 223.02995403 41.85080672 223.79539507 C41.8514115 236.18306478 41.83653768 248.5706641 41.8097834 260.95830446 C41.79398783 268.58975965 41.79171004 276.2209875 41.80691742 283.85244507 C41.81749627 289.69294977 41.80769883 295.533306 41.7903595 301.37379837 C41.78662569 303.76916121 41.78976308 306.16454596 41.80023003 308.55988884 C41.81355486 311.82639809 41.80243 315.09194365 41.78520203 318.3584137 C41.7950088 319.30869711 41.80481558 320.25898053 41.81491953 321.23806041 C41.75382379 326.82889945 41.08035895 330.12334873 37.28640747 334.52139282 C32.72043344 337.92349112 29.2656494 339.19048073 23.55984497 338.90811157 C18.31218103 338.01546771 14.49001556 335.7867244 10.84890747 331.95889282 C8.61481504 328.47370863 8.16153714 325.85839503 8.16335964 321.81062031 C8.16136859 320.83626319 8.15937755 319.86190608 8.15732616 318.85802299 C8.160239 317.78507789 8.16315184 316.71213278 8.16615295 315.60667419 C8.16529853 314.46888336 8.1644441 313.33109253 8.16356379 312.15882319 C8.1619098 308.32629484 8.16742908 304.49380975 8.17288208 300.6612854 C8.17372007 297.92196118 8.17305022 295.18263783 8.17243958 292.4433136 C8.17191472 286.53544983 8.17505751 280.62759709 8.18067741 274.7197361 C8.18879761 266.17791648 8.19140817 257.6361022 8.19266541 249.09427913 C8.1948551 235.2364032 8.20151298 221.37853314 8.21096802 207.5206604 C8.22014425 194.05744455 8.22722405 180.5942303 8.23147583 167.13101196 C8.23173855 166.30141536 8.23200128 165.47181876 8.23227196 164.61708287 C8.23357698 160.45532298 8.23484069 156.29356307 8.23608387 152.13180315 C8.24645392 117.59499552 8.26407002 83.05819471 8.28640747 48.52139282 C7.63156372 48.54234009 6.97671997 48.56328735 6.30203247 48.58486938 C3.29698419 48.66869665 0.29218283 48.72026177 -2.71359253 48.77139282 C-3.74355347 48.80490845 -4.7735144 48.83842407 -5.83468628 48.87295532 C-14.0056595 48.97704415 -19.2662085 47.49867903 -25.46359253 42.14639282 C-31.17743244 35.48024626 -33.05994625 30.73656418 -32.92062378 22.11123657 C-32.37488757 15.28438551 -29.6950217 10.94803229 -24.92062378 6.16201782 C-16.79356087 0.12066133 -9.87068327 -0.05633654 0 0 Z " fill="#DEAB0D" transform="translate(350.7135925292969,418.4786071777344)"/>
<path d="M0 0 C2.73566851 -0.002205 5.47094433 -0.02048932 8.20654297 -0.03930664 C21.52592805 -0.08288077 32.08040664 0.6784609 43.60107422 7.81030273 C49.94132259 14.1505511 54.05437938 22.37389496 54.17138672 31.36499023 C54.15820244 33.26352663 54.13451289 35.16201506 54.10107422 37.06030273 C54.09205078 38.03483398 54.08302734 39.00936523 54.07373047 40.01342773 C54.05029045 42.40431001 54.01747864 44.79467535 53.97607422 47.18530273 C54.57218506 47.17642029 55.1682959 47.16753784 55.7824707 47.15838623 C62.01210905 47.06958201 68.24156624 47.00943168 74.47167969 46.96557617 C76.79369415 46.94551697 79.11565845 46.91826282 81.4375 46.88354492 C84.78381767 46.83477733 88.1294648 46.81227631 91.47607422 46.79467773 C92.50659912 46.77403259 93.53712402 46.75338745 94.59887695 46.7321167 C102.2825311 46.7297489 107.57640561 48.26590477 113.43701172 53.29858398 C114.06865234 54.02432617 114.70029297 54.75006836 115.35107422 55.49780273 C115.99818359 56.21581055 116.64529297 56.93381836 117.31201172 57.67358398 C121.8993487 64.59766304 121.29742995 72.41050542 121.31201172 80.42358398 C121.32199692 82.33750191 121.32199692 82.33750191 121.33218384 84.29008484 C121.34228862 86.98405968 121.34786937 89.67763062 121.34667969 92.37158203 C121.34647683 95.79764442 121.37376318 99.22287424 121.40822411 102.64873981 C121.43601465 105.94865519 121.43464681 109.24856765 121.43701172 112.54858398 C121.45138275 113.76556473 121.46575378 114.98254547 121.4805603 116.23640442 C121.43623619 124.57699032 120.33487592 131.84567448 115.11669922 138.58764648 C114.49279297 139.09424805 113.86888672 139.60084961 113.22607422 140.12280273 C112.61248047 140.64745117 111.99888672 141.17209961 111.36669922 141.71264648 C104.27871138 146.07893965 98.04254984 146.60582598 89.91357422 146.47827148 C88.88167969 146.47402664 87.84978516 146.4697818 86.78662109 146.46540833 C83.51616455 146.44872074 80.24634205 146.41108668 76.97607422 146.37280273 C74.74821858 146.35774309 72.52035321 146.34405693 70.29248047 146.33178711 C64.85346492 146.29884984 59.41481489 146.24875023 53.97607422 146.18530273 C54.00749512 147.10641846 54.00749512 147.10641846 54.03955078 148.04614258 C54.12375455 150.88402291 54.17505844 153.72163926 54.22607422 156.56030273 C54.25958984 157.52581055 54.29310547 158.49131836 54.32763672 159.48608398 C54.46498088 169.71822384 51.43507151 177.68788346 44.39404297 185.13842773 C37.24686449 191.18870483 28.99326438 194.27596653 19.7019043 194.34643555 C18.67345901 194.35604309 17.64501373 194.36565063 16.58540344 194.37554932 C14.93220345 194.38192413 14.93220345 194.38192413 13.24560547 194.38842773 C12.10000656 194.39412781 10.95440765 194.39982788 9.77409363 194.40570068 C7.35078857 194.41513794 4.92747075 194.4216796 2.50415039 194.42553711 C-1.18056996 194.43522164 -4.86472735 194.46624942 -8.54931641 194.49780273 C-10.90933915 194.5043355 -13.26936587 194.5095849 -15.62939453 194.51342773 C-16.72140671 194.52577454 -17.81341888 194.53812134 -18.93852234 194.55084229 C-30.28531328 194.51823106 -38.73051729 192.08151733 -47.02392578 184.18530273 C-56.1077016 174.80402334 -56.38348632 163.30584 -56.81298828 150.93139648 C-56.76521794 147.37253344 -56.76521794 147.37253344 -58.02392578 145.18530273 C-57.03392578 145.18530273 -56.04392578 145.18530273 -55.02392578 145.18530273 C-55.02392578 113.17530273 -55.02392578 81.16530273 -55.02392578 48.18530273 C-56.01392578 48.18530273 -57.00392578 48.18530273 -58.02392578 48.18530273 C-57.69392578 47.19530273 -57.36392578 46.20530273 -57.02392578 45.18530273 C-56.93086542 43.15038277 -56.84176721 41.11509691 -56.78442383 39.07885742 C-56.46334989 28.5510686 -55.1619193 18.48080872 -48.02392578 10.18530273 C-33.5932573 -1.21324085 -17.49146958 -0.00157723 0 0 Z " fill="#FED212" transform="translate(810.02392578125,116.814697265625)"/>
<path d="M0 0 C0.495 0.99 0.495 0.99 1 2 C1.89332031 1.83757812 2.78664063 1.67515625 3.70703125 1.5078125 C9.34146188 0.70673545 15.00854476 0.85551816 20.6875 0.875 C21.79544922 0.87113281 22.90339844 0.86726563 24.04492188 0.86328125 C49.55313316 0.89309798 49.55313316 0.89309798 59.9453125 9.63671875 C67.64926674 17.94072973 68.5937252 26.99954715 68.57763672 37.92993164 C68.58966694 39.31729136 68.60340172 40.70463717 68.61869812 42.09196472 C68.65492015 45.83569737 68.66671195 49.57913684 68.67336798 53.32302403 C68.68399666 57.25380118 68.71549468 61.18441782 68.74417114 65.11509705 C68.78919695 71.71286388 68.81896839 78.31055933 68.83886719 84.90844727 C68.861949 92.52205439 68.90596969 100.13531031 68.96193302 107.74874216 C69.01570007 115.09298091 69.05769985 122.4372358 69.09332657 129.78158379 C69.1084645 132.89822707 69.1271129 136.0148196 69.14852524 139.13142586 C69.17300552 142.80455028 69.18696192 146.47757443 69.19298744 150.150774 C69.19854018 152.13158263 69.21400069 154.11235583 69.22981262 156.09310913 C69.22881657 166.35174287 68.23025805 176.24461564 61.0546875 184.140625 C51.02585862 193.57541175 41.28810096 195.14175025 27.93359375 195.23828125 C26.32787254 195.25038887 26.32787254 195.25038887 24.68971252 195.26274109 C22.4262146 195.27654309 20.1626962 195.28728253 17.89916992 195.29516602 C15.60385969 195.30665956 13.30857562 195.32706936 11.01342773 195.35668945 C-20.1899422 195.75889318 -20.1899422 195.75889318 -29.5 186.875 C-37.23615994 179.22689391 -40.01377275 171.15477349 -40.09765625 160.37890625 C-40.0911032 158.7734081 -40.07931749 157.16792344 -40.0625 155.5625 C-40.05798828 154.73556641 -40.05347656 153.90863281 -40.04882812 153.05664062 C-40.03715811 151.03772854 -40.01922718 149.01885426 -40 147 C-40.85325111 147.00999275 -40.85325111 147.00999275 -41.72373962 147.02018738 C-47.6778291 147.08688209 -53.63181135 147.13194141 -59.58618164 147.16479492 C-61.8043245 147.17982277 -64.02243793 147.20025077 -66.24047852 147.22631836 C-69.44034108 147.26296624 -72.63980861 147.27978688 -75.83984375 147.29296875 C-76.82145981 147.30845261 -77.80307587 147.32393646 -78.81443787 147.33988953 C-88.14931916 147.34213905 -95.40511079 145.44617029 -102.2734375 138.9609375 C-109.15027851 131.15058866 -109.15315132 122.18874244 -109.1328125 112.265625 C-109.13424759 110.7158194 -109.13424759 110.7158194 -109.13571167 109.13470459 C-109.13639066 106.95275817 -109.13455599 104.7708097 -109.13037109 102.58886719 C-109.12504077 99.27534356 -109.13031439 95.96195682 -109.13671875 92.6484375 C-109.13605749 90.52083304 -109.13477535 88.39322866 -109.1328125 86.265625 C-109.13483673 85.28611877 -109.13686096 84.30661255 -109.13894653 83.29742432 C-109.069429 62.54743967 -109.069429 62.54743967 -102.42578125 55.27734375 C-94.9639884 48.45273771 -88.18594764 47.56344524 -78.37890625 47.70703125 C-77.27900864 47.71127609 -76.17911102 47.71552094 -75.04588318 47.71989441 C-71.55116755 47.73661598 -68.05703979 47.77425705 -64.5625 47.8125 C-62.18555523 47.82755522 -59.80860138 47.84124216 -57.43164062 47.85351562 C-51.62089497 47.88649815 -45.8104895 47.9366327 -40 48 C-40.00818253 47.42687073 -40.01636505 46.85374146 -40.02479553 46.26324463 C-40.05749429 43.63906586 -40.07767133 41.01493015 -40.09765625 38.390625 C-40.11074829 37.48908691 -40.12384033 36.58754883 -40.1373291 35.65869141 C-40.1943096 25.67570727 -38.0014873 18.12251687 -31 10.7890625 C-23.45602787 4.04074368 -17.79048526 1.82219407 -7.75 1.9375 C-7.00492187 1.94201172 -6.25984375 1.94652344 -5.4921875 1.95117188 C-3.6614236 1.96290754 -1.83070127 1.9808415 0 2 C0 1.34 0 0.68 0 0 Z " fill="#FED311" transform="translate(215,116)"/>
<path d="M0 0 C0.94092491 -0.00297112 1.88184982 -0.00594224 2.8512876 -0.0090034 C6.01795308 -0.01770523 9.18458082 -0.01919991 12.35125732 -0.02069092 C14.61617616 -0.02531805 16.88109421 -0.03034257 19.14601135 -0.03573608 C25.30933 -0.04887245 31.47263775 -0.0553075 37.63596821 -0.05974674 C41.48491119 -0.06267557 45.33385118 -0.06678002 49.18279266 -0.07125092 C59.84065284 -0.08336152 70.49850937 -0.09374289 81.15637589 -0.09712601 C81.83852779 -0.09734557 82.52067969 -0.09756514 83.22350286 -0.09779136 C83.90728333 -0.09800964 84.5910638 -0.09822791 85.29556489 -0.09845281 C86.68115378 -0.09889627 88.06674266 -0.09934284 89.45233154 -0.09979248 C90.48328055 -0.10012463 90.48328055 -0.10012463 91.5350568 -0.10046348 C102.6687592 -0.10441047 113.80239611 -0.12186127 124.93607321 -0.145152 C136.36854407 -0.16887458 147.80096735 -0.18107038 159.23346591 -0.18249393 C165.65168707 -0.18354289 172.0698159 -0.18947017 178.48801422 -0.20731354 C184.52575198 -0.22377218 190.56332777 -0.22596036 196.60107994 -0.21717453 C198.81702546 -0.21640297 201.0329796 -0.22076252 203.24890327 -0.23063278 C206.27460886 -0.24331944 209.29973797 -0.23749303 212.32543945 -0.22705078 C213.20181226 -0.23510719 214.07818507 -0.24316359 214.98111463 -0.25146413 C221.28343122 -0.20061478 226.19633544 0.76622825 231.09637451 5.04278564 C231.65582764 5.71438721 232.21528076 6.38598877 232.79168701 7.07794189 C233.36660889 7.74696533 233.94153076 8.41598877 234.53387451 9.10528564 C237.56974536 13.57333285 237.50994102 18.91292832 236.91668701 24.14044189 C235.23096212 30.15321859 232.17328029 33.19860885 226.81903076 36.23028564 C222.18440559 38.44767305 217.83370288 38.29439338 212.80886841 38.30107117 C211.39347241 38.3087029 211.39347241 38.3087029 209.94948256 38.3164888 C206.7736759 38.33224007 203.59789204 38.34074544 200.42205811 38.34918213 C198.15053156 38.35871845 195.87900648 38.36860951 193.60748291 38.37882996 C186.1350477 38.41024128 178.66260127 38.43048498 171.19012451 38.44903564 C169.28385812 38.45398163 169.28385812 38.45398163 167.33908129 38.45902753 C155.35588762 38.48980986 143.37269245 38.51668185 131.38947105 38.53344631 C128.6142005 38.5373957 125.83893004 38.54139871 123.06365967 38.54547119 C122.37389434 38.54647955 121.68412901 38.54748791 120.9734617 38.54852683 C109.80546474 38.56552532 98.63768968 38.60662563 87.46980099 38.65749418 C75.99889206 38.70931224 64.52815319 38.73791187 53.05711806 38.7456432 C46.61858168 38.75060069 40.18043965 38.76569185 33.74201584 38.8053875 C27.68280471 38.84225225 21.62421319 38.85066352 15.56491089 38.83738136 C13.34333442 38.83743531 11.1217305 38.8477323 8.90025711 38.869133 C5.86156176 38.89683688 2.82512259 38.88729511 -0.21359253 38.86869812 C-1.52524964 38.89389051 -1.52524964 38.89389051 -2.86340487 38.91959184 C-9.59659799 38.81696229 -13.97628691 36.47783559 -19.08331299 32.14044189 C-23.3908639 26.48678132 -23.85212075 20.05971174 -23.08331299 13.14044189 C-20.64539155 8.06956529 -16.63575976 4.383136 -12.08331299 1.14044189 C-8.06291218 -0.19969171 -4.19232603 -0.00410323 0 0 Z " fill="#DDAA0D" transform="translate(459.08331298828125,546.8595581054688)"/>
<path d="M0 0 C0.86263185 -0.00367669 1.7252637 -0.00735338 2.6140359 -0.01114148 C5.51579329 -0.0221886 8.41751488 -0.02602391 11.31929016 -0.02983093 C13.39539708 -0.03609482 15.47150287 -0.04274155 17.54760742 -0.04974365 C23.1965432 -0.06716053 28.84547051 -0.07770736 34.49442649 -0.08594918 C38.02309869 -0.09109805 41.55176827 -0.09717384 45.08043861 -0.10346031 C56.11903501 -0.12251459 67.15762472 -0.13674505 78.19623441 -0.14507228 C90.94164698 -0.15484557 103.68688593 -0.18116661 116.43223733 -0.22157317 C126.28117511 -0.2517265 136.13006311 -0.26654043 145.97904617 -0.26985329 C151.86245885 -0.27220471 157.7456861 -0.28117729 163.6290493 -0.30631447 C169.16533744 -0.32958624 174.70131792 -0.33383187 180.23764229 -0.32355309 C182.26772967 -0.3230574 184.29783216 -0.32938752 186.32787323 -0.34310913 C189.10379713 -0.36081989 191.87861594 -0.35372582 194.65454102 -0.34057617 C195.85383894 -0.35703004 195.85383894 -0.35703004 197.0773651 -0.37381631 C203.24775675 -0.30345966 208.55861927 1.30073812 213.17552966 5.55908412 C217.41575882 10.37149171 219.10500347 14.60034229 218.88691711 21.03388977 C218.12749872 27.66042768 215.69126547 31.72557322 210.55879211 35.92060852 C205.5293013 39.14358835 200.90315084 39.43889196 195.0489502 39.42132568 C194.1846095 39.42656236 193.3202688 39.43179904 192.42973596 39.43719441 C189.53414988 39.45219332 186.63874054 39.45289954 183.74311829 39.4535675 C181.6667145 39.46118904 179.59031353 39.46961653 177.51391602 39.47879028 C171.87335352 39.50074235 166.23284525 39.50953513 160.59224486 39.51461673 C157.06791207 39.51825938 153.5435935 39.52449897 150.01926613 39.53161812 C137.72310893 39.55611483 125.42699395 39.56916505 113.1308136 39.57270813 C101.67060077 39.57634382 90.21065569 39.60624118 78.7505247 39.64811271 C68.91003125 39.68280573 59.06962659 39.6982564 49.22907239 39.69895416 C43.35236275 39.69974729 37.47592584 39.70850286 31.5992794 39.73695183 C26.0711078 39.76311532 20.5434354 39.76534696 15.01523018 39.74929619 C12.98836555 39.74748037 10.96147233 39.75418437 8.93466949 39.7701149 C6.16300987 39.79056867 3.39309798 39.78002792 0.62145996 39.76190186 C-0.17670775 39.77510182 -0.97487546 39.78830179 -1.79723006 39.80190176 C-8.42436271 39.70321128 -13.21517479 37.25241284 -17.92152339 32.59830278 C-22.52072975 27.31190635 -22.71002016 22.84562719 -22.62870789 16.08857727 C-22.03273837 9.6776481 -17.66759018 6.27410608 -13.03886414 2.34638977 C-9.05612384 -0.49050413 -4.66614834 -0.00106115 0 0 Z " fill="#DDAA0D" transform="translate(458.3552703857422,731.8528289794922)"/>
<path d="M0 0 C1.59749042 -0.00322337 3.19497738 -0.00904672 4.79244995 -0.01725769 C9.10864853 -0.03173148 13.42390867 -0.00893041 17.73999381 0.02160144 C22.26551895 0.04805456 26.79101791 0.04266851 31.31660461 0.04151917 C38.91158654 0.0443236 46.50620758 0.07030424 54.10107422 0.11132812 C62.87570592 0.15855005 71.64994321 0.17432037 80.42469281 0.17212147 C89.78032446 0.17009384 99.13580459 0.19091832 108.49139047 0.21846128 C111.18238862 0.22484776 113.87336225 0.22698376 116.56436729 0.22817802 C120.79410938 0.23119598 125.02352162 0.24954748 129.25315475 0.27967644 C130.80351427 0.28842259 132.35391176 0.29213337 133.90429497 0.29039383 C136.02371826 0.28891592 138.14222515 0.30594138 140.26152039 0.32762146 C142.03871727 0.33516276 142.03871727 0.33516276 143.85181713 0.34285641 C149.16875497 0.97248623 153.05843925 3.09322515 156.4230957 7.22875977 C156.91422852 7.81657227 157.40536133 8.40438477 157.91137695 9.01000977 C161.27579164 13.83197218 160.64044026 20.12547214 160.1105957 25.72875977 C158.59885507 30.14648887 155.75381932 33.8356116 152.1105957 36.72875977 C147.71384218 38.49760532 144.00783348 38.98277366 139.286026 38.9961853 C138.29344139 39.00298197 138.29344139 39.00298197 137.28080457 39.00991595 C135.07694203 39.02251481 132.87332803 39.02094256 130.66943359 39.01928711 C129.08386418 39.02527509 127.49829768 39.03208126 125.91273499 39.03964233 C121.61522102 39.05727965 117.31778673 39.06199669 113.02024007 39.06327391 C110.33362392 39.06469707 107.64702793 39.06896974 104.96041679 39.07426834 C95.5831359 39.09275938 86.2059118 39.1009399 76.82861328 39.09936523 C68.09438377 39.09816329 59.36040115 39.11927832 50.62623411 39.15085256 C43.12032157 39.17701758 35.61448968 39.18773247 28.10853189 39.18645442 C23.62861756 39.18594495 19.14892284 39.19161967 14.66905403 39.21281052 C10.45577243 39.23219739 6.24291991 39.23231448 2.02962303 39.21777725 C0.48610939 39.21568877 -1.05743116 39.22039246 -2.60089874 39.23249817 C-17.05079778 39.33846526 -17.05079778 39.33846526 -22.8894043 34.72875977 C-24.6315918 32.94750977 -24.6315918 32.94750977 -25.7644043 31.22875977 C-26.15370117 30.66157227 -26.54299805 30.09438477 -26.9440918 29.51000977 C-29.66302256 24.38673526 -29.79649203 18.10582287 -28.3112793 12.57641602 C-23.10889436 0.2562226 -11.74307783 -0.1379697 0 0 Z " fill="#DDAA0D" transform="translate(464.889404296875,640.271240234375)"/>
<path d="M0 0 C0.9955188 0.00302124 1.9910376 0.00604248 3.01672363 0.00915527 C6.71047436 0.02476802 10.40407649 0.06665164 14.09765625 0.10546875 C22.36828125 0.16734375 30.63890625 0.22921875 39.16015625 0.29296875 C39.16015625 32.96296875 39.16015625 65.63296875 39.16015625 99.29296875 C-15.59933742 99.29296875 -15.59933742 99.29296875 -24.11328125 91.25390625 C-30.99012226 83.44355741 -30.99299507 74.48171119 -30.97265625 64.55859375 C-30.97409134 63.00878815 -30.97409134 63.00878815 -30.97555542 61.42767334 C-30.97623441 59.24572692 -30.97439974 57.06377845 -30.97021484 54.88183594 C-30.96488452 51.56831231 -30.97015814 48.25492557 -30.9765625 44.94140625 C-30.97590124 42.81380179 -30.9746191 40.68619741 -30.97265625 38.55859375 C-30.97468048 37.57908752 -30.97670471 36.5995813 -30.97879028 35.59039307 C-30.90927275 14.84040842 -30.90927275 14.84040842 -24.265625 7.5703125 C-16.73420249 0.6820227 -9.89720058 -0.14258076 0 0 Z " fill="#E0AD0E" transform="translate(136.83984375,163.70703125)"/>
<path d="M0 0 C52.34195933 0 52.34195933 0 59.4609375 6.11328125 C60.09257813 6.83902344 60.72421875 7.56476563 61.375 8.3125 C62.34566406 9.38951172 62.34566406 9.38951172 63.3359375 10.48828125 C67.92327448 17.41236031 67.32135573 25.22520269 67.3359375 33.23828125 C67.3459227 35.15219917 67.3459227 35.15219917 67.35610962 37.1047821 C67.3662144 39.79875694 67.37179515 42.49232788 67.37060547 45.1862793 C67.37040261 48.61234168 67.39768896 52.03757151 67.43214989 55.46343708 C67.45994043 58.76335245 67.4585726 62.06326492 67.4609375 65.36328125 C67.47530853 66.58026199 67.48967957 67.79724274 67.50448608 69.05110168 C67.46016197 77.39168759 66.3588017 84.66037175 61.140625 91.40234375 C60.51671875 91.90894531 59.8928125 92.41554688 59.25 92.9375 C58.63640625 93.46214844 58.0228125 93.98679687 57.390625 94.52734375 C40.23093615 105.09793639 19.52484588 99 0 99 C0 66.33 0 33.66 0 0 Z " fill="#E0AD0F" transform="translate(864,164)"/>
<path d="M0 0 C1.32 0 2.64 0 4 0 C4 0.99 4 1.98 4 3 C3.01 3 2.02 3 1 3 C1 32.37 1 61.74 1 92 C0.67 92 0.34 92 0 92 C0 61.64 0 31.28 0 0 Z " fill="#D39D0E" transform="translate(284,165)"/>
<path d="M0 0 C0.66 1.32 1.32 2.64 2 4 C1.01 4.495 1.01 4.495 0 5 C0 3.35 0 1.7 0 0 Z " fill="#D1A10D" transform="translate(932,219)"/>
<path d="M0 0 C1.65 0 3.3 0 5 0 C5 0.33 5 0.66 5 1 C3.35 1 1.7 1 0 1 C0 0.67 0 0.34 0 0 Z " fill="#F5C910" transform="translate(581,919)"/>
<path d="M0 0 C0.33 0 0.66 0 1 0 C1 1.65 1 3.3 1 5 C0.67 5 0.34 5 0 5 C0 3.35 0 1.7 0 0 Z " fill="#D2A10D" transform="translate(932,227)"/>
<path d="M0 0 C0.33 0 0.66 0 1 0 C1 1.65 1 3.3 1 5 C0.67 5 0.34 5 0 5 C0 3.35 0 1.7 0 0 Z " fill="#F1C315" transform="translate(752,147)"/>
<path d="M0 0 C4 1 4 1 4 1 Z " fill="#F2C611" transform="translate(644,919)"/>
<path d="M0 0 C4 1 4 1 4 1 Z " fill="#EFC212" transform="translate(304,919)"/>
<path d="M0 0 C1 4 1 4 1 4 Z " fill="#F2C50E" transform="translate(236,828)"/>
<path d="M0 0 C1 4 1 4 1 4 Z " fill="#F3C50F" transform="translate(236,659)"/>
<path d="M0 0 C1 4 1 4 1 4 Z " fill="#D0A00E" transform="translate(932,196)"/>
<path d="M0 0 C3 1 3 1 3 1 Z " fill="#F2C712" transform="translate(635,919)"/>
<path d="" fill="#F3C60E" transform="translate(0,0)"/>
<path d="" fill="#F1C610" transform="translate(0,0)"/>
<path d="" fill="#F3C70E" transform="translate(0,0)"/>
<path d="" fill="#F5C70E" transform="translate(0,0)"/>
<path d="" fill="#F4C80F" transform="translate(0,0)"/>
<path d="M0 0 C2 1 2 1 2 1 Z " fill="#EDC411" transform="translate(752,919)"/>
<path d="M0 0 C2 1 2 1 2 1 Z " fill="#F2C411" transform="translate(743,919)"/>
<path d="M0 0 C2 1 2 1 2 1 Z " fill="#EEC20F" transform="translate(654,919)"/>
<path d="M0 0 C2 1 2 1 2 1 Z " fill="#F2C810" transform="translate(639,919)"/>
<path d="M0 0 C2 1 2 1 2 1 Z " fill="#F3CA11" transform="translate(632,919)"/>
<path d="M0 0 C2 1 2 1 2 1 Z " fill="#F4C912" transform="translate(591,919)"/>
<path d="M0 0 C2 1 2 1 2 1 Z " fill="#F4C810" transform="translate(575,919)"/>
<path d="M0 0 C2 1 2 1 2 1 Z " fill="#F2CA11" transform="translate(478,919)"/>
<path d="M0 0 C2 1 2 1 2 1 Z " fill="#EDC112" transform="translate(763,918)"/>
<path d="M0 0 C2 1 2 1 2 1 Z " fill="#F6C812" transform="translate(724,916)"/>
<path d="M0 0 C2 1 2 1 2 1 Z " fill="#FAD313" transform="translate(371,878)"/>
<path d="" fill="#EFC50F" transform="translate(0,0)"/>
<path d="" fill="#EFC510" transform="translate(0,0)"/>
<path d="" fill="#F4C80E" transform="translate(0,0)"/>
<path d="" fill="#F4C710" transform="translate(0,0)"/>
<path d="" fill="#F3C311" transform="translate(0,0)"/>
<path d="" fill="#F3C710" transform="translate(0,0)"/>
<path d="" fill="#F2C70F" transform="translate(0,0)"/>
<path d="" fill="#F3C611" transform="translate(0,0)"/>
<path d="" fill="#F2C90F" transform="translate(0,0)"/>
<path d="" fill="#F3C60F" transform="translate(0,0)"/>
<path d="" fill="#F3C610" transform="translate(0,0)"/>
<path d="" fill="#F4C60F" transform="translate(0,0)"/>
<path d="" fill="#F3C710" transform="translate(0,0)"/>
<path d="" fill="#F6C80F" transform="translate(0,0)"/>
<path d="" fill="#F5C70F" transform="translate(0,0)"/>
<path d="" fill="#F3C813" transform="translate(0,0)"/>
<path d="" fill="#F5C811" transform="translate(0,0)"/>
<path d="" fill="#F4C911" transform="translate(0,0)"/>
<path d="" fill="#F3C80F" transform="translate(0,0)"/>
<path d="" fill="#F3C70F" transform="translate(0,0)"/>
<path d="" fill="#F6C811" transform="translate(0,0)"/>
<path d="" fill="#F4C710" transform="translate(0,0)"/>
<path d="" fill="#F4C810" transform="translate(0,0)"/>
<path d="" fill="#F6CA11" transform="translate(0,0)"/>
<path d="" fill="#F9CA12" transform="translate(0,0)"/>
<path d="M0 0 C2 1 2 1 2 1 Z " fill="#FED113" transform="translate(260,321)"/>
<path d="" fill="#FACD14" transform="translate(0,0)"/>
<path d="" fill="#FBCE14" transform="translate(0,0)"/>
<path d="" fill="#F7CC16" transform="translate(0,0)"/>
<path d="" fill="#D1A10E" transform="translate(0,0)"/>
<path d="" fill="#D3A30D" transform="translate(0,0)"/>
<path d="" fill="#D4A10B" transform="translate(0,0)"/>
<path d="" fill="#F2C314" transform="translate(0,0)"/>
<path d="M0 0 C2 1 2 1 2 1 Z " fill="#F3C713" transform="translate(769,120)"/>
<path d="" fill="#160F00" transform="translate(0,0)"/>
<path d="" fill="#826500" transform="translate(0,0)"/>
<path d="" fill="#322200" transform="translate(0,0)"/>
<path d="" fill="#090500" transform="translate(0,0)"/>
<path d="" fill="#291D00" transform="translate(0,0)"/>
<path d="" fill="#EFC111" transform="translate(0,0)"/>
<path d="" fill="#EFC411" transform="translate(0,0)"/>
<path d="" fill="#F3C512" transform="translate(0,0)"/>
<path d="" fill="#F2C911" transform="translate(0,0)"/>
<path d="" fill="#F3CA0F" transform="translate(0,0)"/>
<path d="" fill="#F4C911" transform="translate(0,0)"/>
<path d="" fill="#F4C914" transform="translate(0,0)"/>
<path d="" fill="#F4CB10" transform="translate(0,0)"/>
<path d="" fill="#F4C812" transform="translate(0,0)"/>
<path d="" fill="#F6C712" transform="translate(0,0)"/>
<path d="" fill="#F3C812" transform="translate(0,0)"/>
<path d="" fill="#F3CA13" transform="translate(0,0)"/>
<path d="" fill="#F3C913" transform="translate(0,0)"/>
<path d="" fill="#F3CB12" transform="translate(0,0)"/>
<path d="" fill="#F4CA12" transform="translate(0,0)"/>
<path d="" fill="#F5C611" transform="translate(0,0)"/>
<path d="" fill="#F5C610" transform="translate(0,0)"/>
<path d="" fill="#F3C612" transform="translate(0,0)"/>
<path d="" fill="#F4C90F" transform="translate(0,0)"/>
<path d="" fill="#F1C512" transform="translate(0,0)"/>
<path d="" fill="#F1C70F" transform="translate(0,0)"/>
<path d="" fill="#F2C712" transform="translate(0,0)"/>
<path d="" fill="#F3CA10" transform="translate(0,0)"/>
<path d="" fill="#F0C611" transform="translate(0,0)"/>
<path d="" fill="#F4C611" transform="translate(0,0)"/>
<path d="" fill="#F5C712" transform="translate(0,0)"/>
<path d="" fill="#EEBF11" transform="translate(0,0)"/>
<path d="" fill="#F0C211" transform="translate(0,0)"/>
<path d="" fill="#F0C610" transform="translate(0,0)"/>
<path d="" fill="#F1C212" transform="translate(0,0)"/>
<path d="" fill="#F0C513" transform="translate(0,0)"/>
<path d="" fill="#EFC013" transform="translate(0,0)"/>
<path d="" fill="#E9BE10" transform="translate(0,0)"/>
<path d="" fill="#F9CE10" transform="translate(0,0)"/>
<path d="" fill="#FACF10" transform="translate(0,0)"/>
<path d="" fill="#211600" transform="translate(0,0)"/>
<path d="" fill="#EABF0F" transform="translate(0,0)"/>
<path d="" fill="#EEC111" transform="translate(0,0)"/>
<path d="" fill="#EBBE10" transform="translate(0,0)"/>
<path d="" fill="#000000" transform="translate(0,0)"/>
<path d="" fill="#FBD011" transform="translate(0,0)"/>
<path d="" fill="#FFD413" transform="translate(0,0)"/>
<path d="" fill="#FFD111" transform="translate(0,0)"/>
<path d="" fill="#FFD415" transform="translate(0,0)"/>
<path d="" fill="#F2C110" transform="translate(0,0)"/>
<path d="" fill="#EDC412" transform="translate(0,0)"/>
<path d="" fill="#EFC60F" transform="translate(0,0)"/>
<path d="" fill="#F1C20F" transform="translate(0,0)"/>
<path d="" fill="#F1C70E" transform="translate(0,0)"/>
<path d="" fill="#F0C70F" transform="translate(0,0)"/>
<path d="" fill="#F2C611" transform="translate(0,0)"/>
<path d="" fill="#F2C711" transform="translate(0,0)"/>
<path d="" fill="#F2C810" transform="translate(0,0)"/>
<path d="" fill="#F3C511" transform="translate(0,0)"/>
<path d="" fill="#F2C711" transform="translate(0,0)"/>
<path d="" fill="#F2C513" transform="translate(0,0)"/>
<path d="" fill="#080200" transform="translate(0,0)"/>
<path d="" fill="#F2C511" transform="translate(0,0)"/>
<path d="" fill="#F4C710" transform="translate(0,0)"/>
<path d="" fill="#F3C711" transform="translate(0,0)"/>
<path d="" fill="#F6C50F" transform="translate(0,0)"/>
<path d="" fill="#201600" transform="translate(0,0)"/>
<path d="" fill="#F2C810" transform="translate(0,0)"/>
<path d="" fill="#4A3900" transform="translate(0,0)"/>
<path d="" fill="#F4C80F" transform="translate(0,0)"/>
<path d="" fill="#F3C612" transform="translate(0,0)"/>
<path d="" fill="#F3C60F" transform="translate(0,0)"/>
<path d="" fill="#F3C610" transform="translate(0,0)"/>
<path d="" fill="#F3C70F" transform="translate(0,0)"/>
<path d="" fill="#F2C40F" transform="translate(0,0)"/>
<path d="" fill="#F3C50E" transform="translate(0,0)"/>
<path d="" fill="#F4CA11" transform="translate(0,0)"/>
<path d="" fill="#F4C412" transform="translate(0,0)"/>
<path d="" fill="#F3C610" transform="translate(0,0)"/>
<path d="" fill="#F2C50E" transform="translate(0,0)"/>
<path d="" fill="#F3C710" transform="translate(0,0)"/>
<path d="" fill="#F1C70C" transform="translate(0,0)"/>
<path d="" fill="#191000" transform="translate(0,0)"/>
<path d="" fill="#F3C611" transform="translate(0,0)"/>
<path d="" fill="#F4C50F" transform="translate(0,0)"/>
<path d="" fill="#F6C911" transform="translate(0,0)"/>
<path d="" fill="#F4C710" transform="translate(0,0)"/>
<path d="" fill="#F5C512" transform="translate(0,0)"/>
<path d="" fill="#F3C70E" transform="translate(0,0)"/>
<path d="" fill="#F3C80F" transform="translate(0,0)"/>
<path d="" fill="#F5C612" transform="translate(0,0)"/>
<path d="" fill="#F5C912" transform="translate(0,0)"/>
<path d="" fill="#F4C810" transform="translate(0,0)"/>
<path d="" fill="#F3C60E" transform="translate(0,0)"/>
<path d="" fill="#090600" transform="translate(0,0)"/>
<path d="" fill="#F5C810" transform="translate(0,0)"/>
<path d="" fill="#F3C713" transform="translate(0,0)"/>
<path d="" fill="#795D01" transform="translate(0,0)"/>
<path d="" fill="#F7C70F" transform="translate(0,0)"/>
<path d="" fill="#F5C90F" transform="translate(0,0)"/>
<path d="" fill="#F4C911" transform="translate(0,0)"/>
<path d="" fill="#F3C90F" transform="translate(0,0)"/>
<path d="" fill="#181000" transform="translate(0,0)"/>
<path d="" fill="#F4C810" transform="translate(0,0)"/>
<path d="" fill="#F4C711" transform="translate(0,0)"/>
<path d="" fill="#F6C711" transform="translate(0,0)"/>
<path d="" fill="#F6C811" transform="translate(0,0)"/>
<path d="" fill="#F5C810" transform="translate(0,0)"/>
<path d="" fill="#977602" transform="translate(0,0)"/>
<path d="" fill="#F7C915" transform="translate(0,0)"/>
<path d="" fill="#F5CA11" transform="translate(0,0)"/>
<path d="" fill="#F6CB10" transform="translate(0,0)"/>
<path d="" fill="#F4C711" transform="translate(0,0)"/>
<path d="" fill="#F6C711" transform="translate(0,0)"/>
<path d="" fill="#0B0601" transform="translate(0,0)"/>
<path d="" fill="#F4C814" transform="translate(0,0)"/>
<path d="" fill="#523E00" transform="translate(0,0)"/>
<path d="" fill="#F6C910" transform="translate(0,0)"/>
<path d="" fill="#F4C812" transform="translate(0,0)"/>
<path d="" fill="#F7C710" transform="translate(0,0)"/>
<path d="" fill="#F4CA12" transform="translate(0,0)"/>
<path d="" fill="#F5C912" transform="translate(0,0)"/>
<path d="" fill="#F4C811" transform="translate(0,0)"/>
<path d="" fill="#F5C80F" transform="translate(0,0)"/>
<path d="" fill="#F6C911" transform="translate(0,0)"/>
<path d="" fill="#F6C70F" transform="translate(0,0)"/>
<path d="" fill="#F4CA11" transform="translate(0,0)"/>
<path d="" fill="#F5C911" transform="translate(0,0)"/>
<path d="" fill="#F6C911" transform="translate(0,0)"/>
<path d="" fill="#F7C810" transform="translate(0,0)"/>
<path d="" fill="#F1C911" transform="translate(0,0)"/>
<path d="" fill="#F7C712" transform="translate(0,0)"/>
<path d="" fill="#F5C70F" transform="translate(0,0)"/>
<path d="" fill="#0C0700" transform="translate(0,0)"/>
<path d="" fill="#F5C914" transform="translate(0,0)"/>
<path d="" fill="#F6C710" transform="translate(0,0)"/>
<path d="" fill="#F5C811" transform="translate(0,0)"/>
<path d="" fill="#F3C911" transform="translate(0,0)"/>
<path d="" fill="#F3C713" transform="translate(0,0)"/>
<path d="" fill="#F5C711" transform="translate(0,0)"/>
<path d="" fill="#F5C812" transform="translate(0,0)"/>
<path d="" fill="#F7CA0F" transform="translate(0,0)"/>
<path d="" fill="#F4CA0E" transform="translate(0,0)"/>
<path d="" fill="#F7CB12" transform="translate(0,0)"/>
<path d="" fill="#F5C710" transform="translate(0,0)"/>
<path d="" fill="#F4C812" transform="translate(0,0)"/>
<path d="" fill="#F6CA0F" transform="translate(0,0)"/>
<path d="" fill="#F4C70E" transform="translate(0,0)"/>
<path d="" fill="#2B1F00" transform="translate(0,0)"/>
<path d="" fill="#F6CB13" transform="translate(0,0)"/>
<path d="" fill="#F4C70F" transform="translate(0,0)"/>
<path d="" fill="#F6C910" transform="translate(0,0)"/>
<path d="" fill="#F7CA10" transform="translate(0,0)"/>
<path d="" fill="#F7C911" transform="translate(0,0)"/>
<path d="" fill="#F4C613" transform="translate(0,0)"/>
<path d="" fill="#F7C912" transform="translate(0,0)"/>
<path d="" fill="#F5C911" transform="translate(0,0)"/>
<path d="" fill="#F4CC10" transform="translate(0,0)"/>
<path d="" fill="#F9CC13" transform="translate(0,0)"/>
<path d="" fill="#F8C913" transform="translate(0,0)"/>
<path d="" fill="#F7CC12" transform="translate(0,0)"/>
<path d="" fill="#F7CD13" transform="translate(0,0)"/>
<path d="" fill="#F9CC12" transform="translate(0,0)"/>
<path d="" fill="#F9CF11" transform="translate(0,0)"/>
<path d="" fill="#FCD113" transform="translate(0,0)"/>
<path d="" fill="#FED417" transform="translate(0,0)"/>
<path d="" fill="#FED215" transform="translate(0,0)"/>
<path d="" fill="#FED114" transform="translate(0,0)"/>
<path d="" fill="#FDCE12" transform="translate(0,0)"/>
<path d="" fill="#806003" transform="translate(0,0)"/>
<path d="" fill="#F6C913" transform="translate(0,0)"/>
<path d="" fill="#F6C712" transform="translate(0,0)"/>
<path d="" fill="#F6C913" transform="translate(0,0)"/>
<path d="" fill="#F6C714" transform="translate(0,0)"/>
<path d="" fill="#FCD415" transform="translate(0,0)"/>
<path d="" fill="#FCCE12" transform="translate(0,0)"/>
<path d="" fill="#F1C313" transform="translate(0,0)"/>
<path d="" fill="#EFC512" transform="translate(0,0)"/>
<path d="" fill="#F2C513" transform="translate(0,0)"/>
<path d="" fill="#F2C513" transform="translate(0,0)"/>
<path d="" fill="#F2C414" transform="translate(0,0)"/>
<path d="" fill="#F0C215" transform="translate(0,0)"/>
<path d="" fill="#FDCF15" transform="translate(0,0)"/>
<path d="" fill="#F5C714" transform="translate(0,0)"/>
<path d="" fill="#EDBB12" transform="translate(0,0)"/>
<path d="" fill="#D1A10F" transform="translate(0,0)"/>
<path d="" fill="#D6A50D" transform="translate(0,0)"/>
<path d="" fill="#D4A30E" transform="translate(0,0)"/>
<path d="" fill="#CE9F0D" transform="translate(0,0)"/>
<path d="" fill="#6E5101" transform="translate(0,0)"/>
<path d="" fill="#D1A20E" transform="translate(0,0)"/>
<path d="" fill="#D4A50D" transform="translate(0,0)"/>
<path d="" fill="#CF9F0D" transform="translate(0,0)"/>
<path d="" fill="#CE9F0F" transform="translate(0,0)"/>
<path d="" fill="#CFA210" transform="translate(0,0)"/>
<path d="" fill="#D4A40F" transform="translate(0,0)"/>
<path d="" fill="#D9A90C" transform="translate(0,0)"/>
<path d="" fill="#DEAD10" transform="translate(0,0)"/>
<path d="" fill="#DEAA10" transform="translate(0,0)"/>
<path d="" fill="#DDAC0E" transform="translate(0,0)"/>
<path d="" fill="#D8AA0E" transform="translate(0,0)"/>
<path d="" fill="#DCAC0E" transform="translate(0,0)"/>
<path d="" fill="#DDAB0E" transform="translate(0,0)"/>
<path d="" fill="#DAA80F" transform="translate(0,0)"/>
<path d="" fill="#D8A70E" transform="translate(0,0)"/>
<path d="" fill="#DBAA0D" transform="translate(0,0)"/>
<path d="" fill="#D9A90E" transform="translate(0,0)"/>
<path d="" fill="#DAAC11" transform="translate(0,0)"/>
<path d="" fill="#E0B10E" transform="translate(0,0)"/>
<path d="" fill="#DEAE11" transform="translate(0,0)"/>
<path d="" fill="#D6A80F" transform="translate(0,0)"/>
<path d="" fill="#EDC011" transform="translate(0,0)"/>
<path d="" fill="#F2C316" transform="translate(0,0)"/>
<path d="" fill="#F4C216" transform="translate(0,0)"/>
<path d="" fill="#F0C214" transform="translate(0,0)"/>
<path d="" fill="#F1C517" transform="translate(0,0)"/>
<path d="" fill="#F3C313" transform="translate(0,0)"/>
<path d="" fill="#F0C112" transform="translate(0,0)"/>
<path d="" fill="#F2C413" transform="translate(0,0)"/>
<path d="" fill="#EBBE14" transform="translate(0,0)"/>
<path d="" fill="#E8BF14" transform="translate(0,0)"/>
<path d="" fill="#EEC112" transform="translate(0,0)"/>
<path d="" fill="#EDC212" transform="translate(0,0)"/>
<path d="" fill="#EEC513" transform="translate(0,0)"/>
<path d="" fill="#382600" transform="translate(0,0)"/>
<path d="" fill="#543B00" transform="translate(0,0)"/>
<path d="" fill="#644700" transform="translate(0,0)"/>
<path d="" fill="#503C00" transform="translate(0,0)"/>
<path d="" fill="#423000" transform="translate(0,0)"/>
<path d="" fill="#3B2900" transform="translate(0,0)"/>
<path d="" fill="#5E4800" transform="translate(0,0)"/>
<path d="" fill="#664D01" transform="translate(0,0)"/>
<path d="" fill="#1E1400" transform="translate(0,0)"/>
<path d="" fill="#2C1E00" transform="translate(0,0)"/>
<path d="" fill="#4C3900" transform="translate(0,0)"/>
</svg>
